<?xml version="1.0" encoding="utf-8"?>
<!-- Generator: Adobe Illustrator 16.0.0, SVG Export Plug-In . SVG Version: 6.00 Build 0)  -->
<!DOCTYPE svg PUBLIC "-//W3C//DTD SVG 1.1//EN" "http://www.w3.org/Graphics/SVG/1.1/DTD/svg11.dtd">
<svg version="1.1" id="Capa_1" xmlns="http://www.w3.org/2000/svg" xmlns:xlink="http://www.w3.org/1999/xlink" x="0px" y="0px"
	 width="26.4595px" height="26.459px" viewBox="0 0 26.4595 26.459" enable-background="new 0 0 26.4595 26.459"
	 xml:space="preserve">
<g>
	<g>
		<path fill="#FFFFFF" d="M13.229,25.459C6.4858,25.459,1,19.9736,1,13.2305C1,6.4863,6.4858,1,13.229,1
			c6.7441,0,12.2305,5.4863,12.2305,12.2305C25.4595,19.9736,19.9731,25.459,13.229,25.459z"/>
		<path fill="#42210B" d="M13.229,2c6.1924,0,11.2305,5.0381,11.2305,11.2305c0,6.1914-5.0381,11.2285-11.2305,11.2285
			C7.0371,24.459,2,19.4219,2,13.2305C2,7.0381,7.0371,2,13.229,2 M13.229,0C5.9238,0,0,5.9238,0,13.2305
			S5.9238,26.459,13.229,26.459c7.3066,0,13.2305-5.9219,13.2305-13.2285S20.5356,0,13.229,0L13.229,0z"/>
	</g>
	<g>
		<g>
			<path fill="#603813" d="M18.1997,18.3027h-2.3574l-0.9375-2.4395h-4.293l-0.8848,2.4395H7.4268l4.1812-10.7373h2.293
				L18.1997,18.3027z M14.2095,14.0547l-1.4805-3.9844l-1.4492,3.9844H14.2095z"/>
		</g>
	</g>
</g>
<g>
</g>
<g>
</g>
<g>
</g>
<g>
</g>
<g>
</g>
<g>
</g>
<g>
</g>
<g>
</g>
<g>
</g>
<g>
</g>
<g>
</g>
<g>
</g>
<g>
</g>
<g>
</g>
<g>
</g>
</svg>
