<?xml version="1.0" encoding="utf-8"?>
<!-- Generator: Adobe Illustrator 16.0.0, SVG Export Plug-In . SVG Version: 6.00 Build 0)  -->
<!DOCTYPE svg PUBLIC "-//W3C//DTD SVG 1.1//EN" "http://www.w3.org/Graphics/SVG/1.1/DTD/svg11.dtd">
<svg version="1.1" id="Capa_1" xmlns="http://www.w3.org/2000/svg" xmlns:xlink="http://www.w3.org/1999/xlink" x="0px" y="0px"
	 width="26.4595px" height="26.459px" viewBox="0 0 26.4595 26.459" enable-background="new 0 0 26.4595 26.459"
	 xml:space="preserve">
<g>
	<g>
		<path fill="#FFFFFF" d="M13.1997,25.4707c-6.7432,0-12.2295-5.4854-12.2295-12.2285c0-6.7441,5.4863-12.2305,12.2295-12.2305
			c6.7441,0,12.2305,5.4863,12.2305,12.2305C25.4302,19.9854,19.9438,25.4707,13.1997,25.4707z"/>
		<path fill="#42210B" d="M13.1997,2.0117c6.1924,0,11.2305,5.0381,11.2305,11.2305c0,6.1914-5.0381,11.2285-11.2305,11.2285
			c-6.1919,0-11.2295-5.0371-11.2295-11.2285C1.9702,7.0498,7.0078,2.0117,13.1997,2.0117 M13.1997,0.0117
			c-7.3057,0-13.2295,5.9238-13.2295,13.2305S5.894,26.4707,13.1997,26.4707c7.3066,0,13.2305-5.9219,13.2305-13.2285
			S20.5063,0.0117,13.1997,0.0117L13.1997,0.0117z"/>
	</g>
	<g>
		<g>
			<path fill="#603813" d="M8.4956,7.5771h4.292c0.8496,0,1.4834,0.0352,1.9004,0.1064c0.418,0.0703,0.791,0.2188,1.1211,0.4434
				c0.3291,0.2246,0.6035,0.5234,0.8242,0.8965c0.2188,0.374,0.3291,0.793,0.3291,1.2559c0,0.5039-0.1357,0.9648-0.4063,1.3848
				c-0.2715,0.4199-0.6387,0.7354-1.1025,0.9453c0.6543,0.1895,1.1572,0.5146,1.5088,0.9736s0.5273,0.999,0.5273,1.6182
				c0,0.4893-0.1133,0.9639-0.3408,1.4248c-0.2266,0.4619-0.5371,0.8301-0.9297,1.1064c-0.3936,0.2754-0.8779,0.4453-1.4541,0.5088
				c-0.3613,0.0391-1.2334,0.0635-2.6143,0.0732H8.4956V7.5771z M10.6636,9.3643v2.4834h1.4209
				c0.8447,0,1.3691-0.0127,1.5742-0.0371c0.3711-0.0439,0.6631-0.1719,0.876-0.3848c0.2119-0.2119,0.3184-0.4912,0.3184-0.8379
				c0-0.332-0.0918-0.6025-0.2744-0.8096c-0.1836-0.208-0.4561-0.333-0.8164-0.3779c-0.2158-0.0234-0.833-0.0361-1.8535-0.0361
				H10.6636z M10.6636,13.6348v2.8711h2.0068c0.7813,0,1.2764-0.0225,1.4863-0.0664c0.3223-0.0586,0.585-0.2012,0.7881-0.4287
				c0.2021-0.2266,0.3037-0.5303,0.3037-0.9111c0-0.3223-0.0781-0.5957-0.2344-0.8203s-0.3818-0.3887-0.6777-0.4912
				c-0.2949-0.1025-0.9365-0.1533-1.9219-0.1533H10.6636z"/>
		</g>
	</g>
</g>
<g>
</g>
<g>
</g>
<g>
</g>
<g>
</g>
<g>
</g>
<g>
</g>
<g>
</g>
<g>
</g>
<g>
</g>
<g>
</g>
<g>
</g>
<g>
</g>
<g>
</g>
<g>
</g>
<g>
</g>
</svg>
