<?xml version="1.0" encoding="utf-8"?>
<!-- Generator: Adobe Illustrator 19.0.0, SVG Export Plug-In . SVG Version: 6.00 Build 0)  -->
<svg version="1.1" id="Capa_1" xmlns="http://www.w3.org/2000/svg" xmlns:xlink="http://www.w3.org/1999/xlink" x="0px" y="0px"
	 viewBox="0 0 60.6 306.2" style="enable-background:new 0 0 60.6 306.2;" xml:space="preserve">
<style type="text/css">
	.st0{fill-rule:evenodd;clip-rule:evenodd;fill:#2B7E88;}
	.st1{fill-rule:evenodd;clip-rule:evenodd;fill:#36828C;}
	.st2{fill-rule:evenodd;clip-rule:evenodd;fill:#418591;}
	.st3{fill-rule:evenodd;clip-rule:evenodd;fill:#4C8B95;}
	.st4{fill-rule:evenodd;clip-rule:evenodd;fill:#54909A;}
	.st5{fill-rule:evenodd;clip-rule:evenodd;fill:#5E959F;}
	.st6{fill-rule:evenodd;clip-rule:evenodd;fill:#6398A1;}
	.st7{fill-rule:evenodd;clip-rule:evenodd;fill:#6C9DA7;}
	.st8{fill-rule:evenodd;clip-rule:evenodd;fill:#74A2AC;}
	.st9{fill-rule:evenodd;clip-rule:evenodd;fill:#7DA6AF;}
	.st10{fill-rule:evenodd;clip-rule:evenodd;fill:#81ABB4;}
	.st11{fill-rule:evenodd;clip-rule:evenodd;fill:#89AFB8;}
	.st12{fill-rule:evenodd;clip-rule:evenodd;fill:#91B5BE;}
	.st13{fill-rule:evenodd;clip-rule:evenodd;fill:#98BAC2;}
	.st14{fill-rule:evenodd;clip-rule:evenodd;fill:#A0BFC8;}
	.st15{fill-rule:evenodd;clip-rule:evenodd;fill:#A5C4CD;}
	.st16{fill-rule:evenodd;clip-rule:evenodd;fill:#ACCAD3;}
	.st17{fill-rule:evenodd;clip-rule:evenodd;fill:#B3CED6;}
	.st18{fill-rule:evenodd;clip-rule:evenodd;fill:#BBD4DC;}
	.st19{fill-rule:evenodd;clip-rule:evenodd;fill:#C2DBE1;}
	.st20{fill-rule:evenodd;clip-rule:evenodd;fill:#C9DFE6;}
	.st21{fill-rule:evenodd;clip-rule:evenodd;fill:#CEE4EB;}
	.st22{fill-rule:evenodd;clip-rule:evenodd;fill:#0E6163;}
	.st23{fill-rule:evenodd;clip-rule:evenodd;fill:#EE7D00;}
	.st24{fill-rule:evenodd;clip-rule:evenodd;fill:#7CC6C1;}
	.st25{fill-rule:evenodd;clip-rule:evenodd;fill:#FFCB00;}
	.st26{fill-rule:evenodd;clip-rule:evenodd;fill:#FFEC00;}
	.st27{fill-rule:evenodd;clip-rule:evenodd;fill:#96D0D0;}
	.st28{fill-rule:evenodd;clip-rule:evenodd;fill:#CFE7E6;}
	.st29{fill:#5F3C21;}
</style>
<g id="XMLID_1532_">
	<path id="XMLID_5087_" class="st0" d="M30.3,306.2c16.7,0,30.3-3.8,30.3-8.5c0-4.7-13.6-8.5-30.3-8.5c-16.7,0-30.3,3.8-30.3,8.5
		C0,302.4,13.6,306.2,30.3,306.2z"/>
	<g id="XMLID_5066_">
		<ellipse id="XMLID_5086_" class="st1" cx="30.3" cy="297.8" rx="29" ry="8.1"/>
		<ellipse id="XMLID_5085_" class="st2" cx="30.3" cy="297.8" rx="27.8" ry="7.8"/>
		<ellipse id="XMLID_5084_" class="st3" cx="30.3" cy="297.8" rx="26.5" ry="7.4"/>
		<ellipse id="XMLID_5083_" class="st4" cx="30.3" cy="297.8" rx="25.3" ry="7.1"/>
		<ellipse id="XMLID_5082_" class="st5" cx="30.3" cy="297.8" rx="24" ry="6.7"/>
		<ellipse id="XMLID_5081_" class="st6" cx="30.3" cy="297.8" rx="22.8" ry="6.4"/>
		<ellipse id="XMLID_5080_" class="st7" cx="30.3" cy="297.8" rx="21.5" ry="6"/>
		<ellipse id="XMLID_5079_" class="st8" cx="30.3" cy="297.8" rx="20.3" ry="5.7"/>
		<ellipse id="XMLID_5078_" class="st9" cx="30.3" cy="297.8" rx="19" ry="5.3"/>
		<ellipse id="XMLID_5077_" class="st10" cx="30.3" cy="297.8" rx="17.8" ry="5"/>
		<ellipse id="XMLID_5076_" class="st11" cx="30.3" cy="297.8" rx="16.5" ry="4.6"/>
		<ellipse id="XMLID_5075_" class="st12" cx="30.3" cy="297.8" rx="15.3" ry="4.3"/>
		<ellipse id="XMLID_5074_" class="st13" cx="30.3" cy="297.8" rx="14" ry="3.9"/>
		<ellipse id="XMLID_5073_" class="st14" cx="30.3" cy="297.8" rx="12.8" ry="3.6"/>
		<ellipse id="XMLID_5072_" class="st15" cx="30.3" cy="297.8" rx="11.5" ry="3.2"/>
		<ellipse id="XMLID_5071_" class="st16" cx="30.3" cy="297.8" rx="10.3" ry="2.9"/>
		<ellipse id="XMLID_5070_" class="st17" cx="30.3" cy="297.8" rx="9" ry="2.5"/>
		<ellipse id="XMLID_5069_" class="st18" cx="30.3" cy="297.8" rx="7.8" ry="2.2"/>
		<ellipse id="XMLID_5068_" class="st19" cx="30.3" cy="297.8" rx="6.5" ry="1.8"/>
		<ellipse id="XMLID_5067_" class="st20" cx="30.3" cy="297.8" rx="5.3" ry="1.5"/>
	</g>
	<path id="XMLID_5065_" class="st21" d="M30.3,298.9c2.2,0,4-0.5,4-1.1c0-0.6-1.8-1.1-4-1.1c-2.2,0-4,0.5-4,1.1
		C26.3,298.4,28.1,298.9,30.3,298.9z"/>
	<path id="XMLID_5064_" class="st22" d="M34.5,222.9h-9.4v71.8c0,0.9,2.1,1.7,4.7,1.7s4.7-0.8,4.7-1.7V222.9z"/>
	<rect id="XMLID_5063_" x="25.1" y="149.4" class="st23" width="9.4" height="73.5"/>
	<rect id="XMLID_5062_" x="25.1" y="75.9" class="st24" width="9.4" height="73.5"/>
	<rect id="XMLID_5061_" x="25.1" y="2.4" class="st25" width="9.4" height="73.5"/>
	<rect id="XMLID_5056_" x="29.7" y="2.4" class="st26" width="4.8" height="73.5"/>
	<path id="XMLID_5055_" class="st27" d="M29.7,222.9v73.5h0.1c2.6,0,4.7-0.8,4.7-1.7v-71.8H29.7z"/>
	<rect id="XMLID_5054_" x="29.7" y="149.4" class="st25" width="4.8" height="73.5"/>
	<rect id="XMLID_5053_" x="29.7" y="75.9" class="st28" width="4.8" height="73.5"/>
	<g id="XMLID_5004_">
		<circle id="XMLID_5046_" class="st23" cx="9.6" cy="224.6" r="7.7"/>
		<circle id="XMLID_5045_" class="st23" cx="8.9" cy="83.5" r="7.7"/>
		<circle id="XMLID_5044_" class="st25" cx="8.9" cy="7.7" r="7.7"/>
		<circle id="XMLID_5043_" class="st24" cx="8.9" cy="156" r="7.7"/>
		<g id="XMLID_5007_">
			<path id="XMLID_5042_" class="st29" d="M18.4,257.6c-0.6-0.4-1.3,0.4-0.7,0.9l1.9,1.4c0.6,0.4,1.3-0.4,0.7-0.9L18.4,257.6z"/>
			<path id="XMLID_5041_" class="st29" d="M13.8,254.2c-0.6-0.4-1.3,0.4-0.7,0.9l1.9,1.4c0.6,0.4,1.3-0.4,0.7-0.9L13.8,254.2z"/>
			<path id="XMLID_5040_" class="st29" d="M11,250.4c0-0.3-0.3-0.6-0.6-0.6c-0.3,0-0.6,0.3-0.6,0.6v2v0.3l0.2,0.2l0.3,0.2
				c0.6,0.4,1.3-0.4,0.7-0.9l0,0V250.4z"/>
			<path id="XMLID_5039_" class="st29" d="M11,244.6c0-0.3-0.3-0.6-0.6-0.6c-0.3,0-0.6,0.3-0.6,0.6v2.3c0,0.3,0.3,0.6,0.6,0.6
				c0.3,0,0.6-0.3,0.6-0.6V244.6z"/>
			<path id="XMLID_5038_" class="st29" d="M11,238.9c0-0.3-0.3-0.6-0.6-0.6c-0.3,0-0.6,0.3-0.6,0.6v2.3c0,0.3,0.3,0.6,0.6,0.6
				c0.3,0,0.6-0.3,0.6-0.6V238.9z"/>
			<path id="XMLID_5035_" class="st29" d="M18.4,188.5c-0.6-0.4-1.3,0.4-0.7,0.9l1.9,1.4c0.6,0.4,1.3-0.4,0.7-0.9L18.4,188.5z"/>
			<path id="XMLID_5034_" class="st29" d="M13.8,185.1c-0.6-0.4-1.3,0.4-0.7,0.9l1.9,1.4c0.6,0.4,1.3-0.4,0.7-0.9L13.8,185.1z"/>
			<path id="XMLID_5033_" class="st29" d="M11,181.3c0-0.3-0.3-0.6-0.6-0.6c-0.3,0-0.6,0.3-0.6,0.6v2v0.3l0.2,0.2l0.3,0.2
				c0.6,0.4,1.3-0.4,0.7-0.9l0,0V181.3z"/>
			<path id="XMLID_5031_" class="st29" d="M11,175.6c0-0.3-0.3-0.6-0.6-0.6c-0.3,0-0.6,0.3-0.6,0.6v2.3c0,0.3,0.3,0.6,0.6,0.6
				c0.3,0,0.6-0.3,0.6-0.6V175.6z"/>
			<path id="XMLID_5029_" class="st29" d="M11,169.8c0-0.3-0.3-0.6-0.6-0.6c-0.3,0-0.6,0.3-0.6,0.6v2.3c0,0.3,0.3,0.6,0.6,0.6
				c0.3,0,0.6-0.3,0.6-0.6V169.8z"/>
			<path id="XMLID_5028_" class="st29" d="M18.4,116.1c-0.6-0.4-1.3,0.4-0.7,0.9l1.9,1.4c0.6,0.4,1.3-0.4,0.7-0.9L18.4,116.1z"/>
			<path id="XMLID_5026_" class="st29" d="M13.8,112.7c-0.6-0.4-1.3,0.4-0.7,0.9L15,115c0.6,0.4,1.3-0.4,0.7-0.9L13.8,112.7z"/>
			<path id="XMLID_5025_" class="st29" d="M11,108.9c0-0.3-0.3-0.6-0.6-0.6c-0.3,0-0.6,0.3-0.6,0.6v2v0.3l0.2,0.2l0.3,0.2
				c0.6,0.4,1.3-0.4,0.7-0.9l0,0V108.9z"/>
			<path id="XMLID_5024_" class="st29" d="M11,103.1c0-0.3-0.3-0.6-0.6-0.6c-0.3,0-0.6,0.3-0.6,0.6v2.3c0,0.3,0.3,0.6,0.6,0.6
				c0.3,0,0.6-0.3,0.6-0.6V103.1z"/>
			<path id="XMLID_5023_" class="st29" d="M11,97.3c0-0.3-0.3-0.6-0.6-0.6c-0.3,0-0.6,0.3-0.6,0.6v2.3c0,0.3,0.3,0.6,0.6,0.6
				c0.3,0,0.6-0.3,0.6-0.6V97.3z"/>
			<path id="XMLID_5022_" class="st29" d="M18.4,40.3c-0.6-0.4-1.3,0.4-0.7,0.9l1.9,1.4c0.6,0.4,1.3-0.4,0.7-0.9L18.4,40.3z"/>
			<path id="XMLID_5021_" class="st29" d="M13.8,36.9c-0.6-0.4-1.3,0.4-0.7,0.9l1.9,1.4c0.6,0.4,1.3-0.4,0.7-0.9L13.8,36.9z"/>
			<path id="XMLID_5015_" class="st29" d="M11,33.1c0-0.3-0.3-0.6-0.6-0.6c-0.3,0-0.6,0.3-0.6,0.6v2v0.3l0.2,0.2l0.3,0.2
				c0.6,0.4,1.3-0.4,0.7-0.9l0,0V33.1z"/>
			<path id="XMLID_5014_" class="st29" d="M11,27.3c0-0.3-0.3-0.6-0.6-0.6c-0.3,0-0.6,0.3-0.6,0.6v2.3c0,0.3,0.3,0.6,0.6,0.6
				c0.3,0,0.6-0.3,0.6-0.6V27.3z"/>
			<path id="XMLID_5010_" class="st29" d="M11,21.5c0-0.3-0.3-0.6-0.6-0.6c-0.3,0-0.6,0.3-0.6,0.6v2.3c0,0.3,0.3,0.6,0.6,0.6
				c0.3,0,0.6-0.3,0.6-0.6V21.5z"/>
		</g>
	</g>
</g>
</svg>
