<?xml version="1.0" encoding="utf-8"?>
<!-- Generator: Adobe Illustrator 19.0.0, SVG Export Plug-In . SVG Version: 6.00 Build 0)  -->
<svg version="1.1" id="Capa_1" xmlns="http://www.w3.org/2000/svg" xmlns:xlink="http://www.w3.org/1999/xlink" x="0px" y="0px"
	 viewBox="-355 251.9 247.6 58.1" style="enable-background:new -355 251.9 247.6 58.1;" xml:space="preserve">
<style type="text/css">
	.st0{fill:#CEC586;}
	.st1{fill:#F9F19D;}
	.st2{opacity:0.5;fill:#2C6882;}
	.st3{fill:#7F634D;}
	.st4{fill:#DFC67C;}
	.st5{fill:#D7B85B;}
	.st6{fill:#414042;}
	.st7{fill:#BE1E2D;}
</style>
<g id="XMLID_2286_">
	<g>
		<polygon id="XMLID_22_" class="st0" points="-121.4,310 -107.4,292.3 -117.8,272.1 -121.4,272.1 		"/>
	</g>
</g>
<rect id="XMLID_2290_" x="-355" y="251.9" class="st1" width="247.6" height="40.4"/>
<polygon id="XMLID_3480_" class="st2" points="-121.4,299.5 -355,292.3 -121.4,292.3 "/>
<g>
	<path class="st3" d="M-268.6,273.6v-2.2h5.6v5.1c-0.5,0.5-1.3,1-2.4,1.4c-1,0.4-2.1,0.6-3.1,0.6c-1.3,0-2.5-0.3-3.5-0.8
		c-1-0.6-1.8-1.4-2.3-2.4c-0.5-1.1-0.8-2.2-0.8-3.4c0-1.3,0.3-2.5,0.8-3.6s1.4-1.8,2.5-2.4c0.8-0.4,1.9-0.6,3.1-0.6
		c1.6,0,2.8,0.3,3.7,1s1.5,1.6,1.7,2.8l-2.6,0.5c-0.2-0.6-0.5-1.1-1-1.5c-0.5-0.4-1.1-0.5-1.9-0.5c-1.1,0-2,0.4-2.7,1.1
		s-1,1.8-1,3.2c0,1.5,0.3,2.7,1,3.4c0.7,0.8,1.6,1.1,2.7,1.1c0.5,0,1.1-0.1,1.6-0.3s1-0.5,1.4-0.8v-1.6H-268.6z"/>
	<path class="st3" d="M-255.2,275.3l2.5,0.4c-0.3,0.9-0.8,1.6-1.5,2.1s-1.5,0.7-2.6,0.7c-1.6,0-2.8-0.5-3.6-1.6
		c-0.6-0.8-0.9-1.9-0.9-3.2c0-1.5,0.4-2.8,1.2-3.6s1.8-1.3,3.1-1.3c1.4,0,2.5,0.5,3.3,1.4c0.8,0.9,1.2,2.3,1.2,4.2h-6.2
		c0,0.7,0.2,1.3,0.6,1.7c0.4,0.4,0.9,0.6,1.4,0.6c0.4,0,0.7-0.1,1-0.3S-255.3,275.8-255.2,275.3z M-255.1,272.8
		c0-0.7-0.2-1.3-0.6-1.6c-0.4-0.4-0.8-0.6-1.3-0.6c-0.5,0-1,0.2-1.3,0.6s-0.5,0.9-0.5,1.6H-255.1z"/>
	<path class="st3" d="M-242.1,278.3h-2.5v-4.8c0-1-0.1-1.7-0.2-2s-0.3-0.5-0.5-0.7s-0.5-0.2-0.9-0.2c-0.4,0-0.8,0.1-1.2,0.4
		s-0.6,0.5-0.7,0.9s-0.2,1.1-0.2,2.1v4.2h-2.5V269h2.3v1.4c0.8-1.1,1.8-1.6,3.1-1.6c0.5,0,1,0.1,1.5,0.3s0.8,0.4,1,0.8
		s0.4,0.7,0.5,1s0.1,0.9,0.1,1.7V278.3z"/>
	<path class="st3" d="M-234.2,275.3l2.5,0.4c-0.3,0.9-0.8,1.6-1.5,2.1s-1.5,0.7-2.6,0.7c-1.6,0-2.8-0.5-3.6-1.6
		c-0.6-0.8-0.9-1.9-0.9-3.2c0-1.5,0.4-2.8,1.2-3.6s1.8-1.3,3.1-1.3c1.4,0,2.5,0.5,3.3,1.4c0.8,0.9,1.2,2.3,1.2,4.2h-6.2
		c0,0.7,0.2,1.3,0.6,1.7c0.4,0.4,0.9,0.6,1.4,0.6c0.4,0,0.7-0.1,1-0.3S-234.3,275.8-234.2,275.3z M-234.1,272.8
		c0-0.7-0.2-1.3-0.6-1.6c-0.4-0.4-0.8-0.6-1.3-0.6c-0.5,0-1,0.2-1.3,0.6s-0.5,0.9-0.5,1.6H-234.1z"/>
	<path class="st3" d="M-227.2,278.3h-2.5V269h2.3v1.3c0.4-0.6,0.7-1,1.1-1.2s0.7-0.3,1.1-0.3c0.6,0,1.1,0.2,1.6,0.5l-0.8,2.2
		c-0.4-0.3-0.8-0.4-1.2-0.4c-0.3,0-0.6,0.1-0.9,0.3c-0.2,0.2-0.4,0.5-0.6,1s-0.2,1.5-0.2,3.1V278.3z"/>
	<path class="st3" d="M-220.7,271.8l-2.2-0.4c0.3-0.9,0.7-1.6,1.3-2s1.5-0.7,2.7-0.7c1.1,0,1.9,0.1,2.5,0.4c0.5,0.3,0.9,0.6,1.1,1
		s0.3,1.1,0.3,2.2l0,2.9c0,0.8,0,1.4,0.1,1.8s0.2,0.8,0.4,1.3h-2.4c-0.1-0.2-0.1-0.4-0.2-0.7c0-0.1-0.1-0.2-0.1-0.3
		c-0.4,0.4-0.9,0.7-1.4,0.9s-1,0.3-1.5,0.3c-1,0-1.7-0.3-2.3-0.8s-0.8-1.2-0.8-2c0-0.5,0.1-1,0.4-1.4c0.3-0.4,0.6-0.7,1.1-0.9
		c0.5-0.2,1.1-0.4,2-0.6c1.2-0.2,2-0.4,2.4-0.6V272c0-0.5-0.1-0.8-0.4-1c-0.2-0.2-0.7-0.3-1.3-0.3c-0.4,0-0.8,0.1-1,0.3
		C-220.4,271.1-220.6,271.4-220.7,271.8z M-217.4,273.8c-0.3,0.1-0.8,0.2-1.5,0.4s-1.1,0.3-1.3,0.4c-0.3,0.2-0.5,0.5-0.5,0.9
		c0,0.3,0.1,0.6,0.4,0.9s0.6,0.4,1,0.4c0.4,0,0.9-0.1,1.3-0.4c0.3-0.2,0.5-0.5,0.6-0.8c0.1-0.2,0.1-0.6,0.1-1.2V273.8z"/>
	<path class="st3" d="M-212.6,278.3v-12.9h2.5v12.9H-212.6z"/>
	<path class="st3" d="M-207.6,267.7v-2.3h2.5v2.3H-207.6z M-207.6,278.3V269h2.5v9.3H-207.6z"/>
	<path class="st3" d="M-194,278.3h-2.3v-1.4c-0.4,0.5-0.8,0.9-1.3,1.2c-0.5,0.3-1,0.4-1.6,0.4c-1.1,0-2-0.4-2.8-1.3
		c-0.8-0.9-1.1-2.1-1.1-3.6c0-1.6,0.4-2.8,1.1-3.6c0.7-0.8,1.7-1.2,2.8-1.2c1,0,1.9,0.4,2.7,1.3v-4.6h2.5V278.3z M-200.6,273.4
		c0,1,0.1,1.7,0.4,2.2c0.4,0.6,1,1,1.7,1c0.6,0,1.1-0.2,1.5-0.7c0.4-0.5,0.6-1.2,0.6-2.2c0-1.1-0.2-1.8-0.6-2.3s-0.9-0.7-1.5-0.7
		c-0.6,0-1.1,0.2-1.5,0.7C-200.4,271.8-200.6,272.5-200.6,273.4z"/>
	<path class="st3" d="M-189.7,271.8l-2.2-0.4c0.3-0.9,0.7-1.6,1.3-2s1.5-0.7,2.7-0.7c1.1,0,1.9,0.1,2.5,0.4c0.5,0.3,0.9,0.6,1.1,1
		s0.3,1.1,0.3,2.2l0,2.9c0,0.8,0,1.4,0.1,1.8s0.2,0.8,0.4,1.3h-2.4c-0.1-0.2-0.1-0.4-0.2-0.7c0-0.1-0.1-0.2-0.1-0.3
		c-0.4,0.4-0.9,0.7-1.4,0.9s-1,0.3-1.5,0.3c-1,0-1.7-0.3-2.3-0.8s-0.8-1.2-0.8-2c0-0.5,0.1-1,0.4-1.4c0.3-0.4,0.6-0.7,1.1-0.9
		c0.5-0.2,1.1-0.4,2-0.6c1.2-0.2,2-0.4,2.4-0.6V272c0-0.5-0.1-0.8-0.4-1c-0.2-0.2-0.7-0.3-1.3-0.3c-0.4,0-0.8,0.1-1,0.3
		C-189.4,271.1-189.6,271.4-189.7,271.8z M-186.4,273.8c-0.3,0.1-0.8,0.2-1.5,0.4s-1.1,0.3-1.3,0.4c-0.3,0.2-0.5,0.5-0.5,0.9
		c0,0.3,0.1,0.6,0.4,0.9s0.6,0.4,1,0.4c0.4,0,0.9-0.1,1.3-0.4c0.3-0.2,0.5-0.5,0.6-0.8c0.1-0.2,0.1-0.6,0.1-1.2V273.8z"/>
	<path class="st3" d="M-173,278.3h-2.3v-1.4c-0.4,0.5-0.8,0.9-1.3,1.2c-0.5,0.3-1,0.4-1.6,0.4c-1.1,0-2-0.4-2.8-1.3
		c-0.8-0.9-1.1-2.1-1.1-3.6c0-1.6,0.4-2.8,1.1-3.6c0.7-0.8,1.7-1.2,2.8-1.2c1,0,1.9,0.4,2.7,1.3v-4.6h2.5V278.3z M-179.6,273.4
		c0,1,0.1,1.7,0.4,2.2c0.4,0.6,1,1,1.7,1c0.6,0,1.1-0.2,1.5-0.7c0.4-0.5,0.6-1.2,0.6-2.2c0-1.1-0.2-1.8-0.6-2.3s-0.9-0.7-1.5-0.7
		c-0.6,0-1.1,0.2-1.5,0.7C-179.4,271.8-179.6,272.5-179.6,273.4z"/>
	<path class="st3" d="M-165.2,275.3l2.5,0.4c-0.3,0.9-0.8,1.6-1.5,2.1s-1.5,0.7-2.6,0.7c-1.6,0-2.8-0.5-3.6-1.6
		c-0.6-0.8-0.9-1.9-0.9-3.2c0-1.5,0.4-2.8,1.2-3.6s1.8-1.3,3.1-1.3c1.4,0,2.5,0.5,3.3,1.4c0.8,0.9,1.2,2.3,1.2,4.2h-6.2
		c0,0.7,0.2,1.3,0.6,1.7c0.4,0.4,0.9,0.6,1.4,0.6c0.4,0,0.7-0.1,1-0.3S-165.3,275.8-165.2,275.3z M-165,272.8c0-0.7-0.2-1.3-0.6-1.6
		c-0.4-0.4-0.8-0.6-1.3-0.6c-0.5,0-1,0.2-1.3,0.6s-0.5,0.9-0.5,1.6H-165z"/>
	<path class="st3" d="M-161.4,275.6l2.5-0.4c0.1,0.5,0.3,0.8,0.6,1.1c0.3,0.3,0.8,0.4,1.4,0.4c0.6,0,1.1-0.1,1.4-0.4
		c0.2-0.2,0.3-0.4,0.3-0.7c0-0.2-0.1-0.3-0.2-0.5c-0.1-0.1-0.4-0.2-0.8-0.3c-2-0.4-3.3-0.8-3.8-1.2c-0.7-0.5-1.1-1.2-1.1-2.1
		c0-0.8,0.3-1.5,1-2s1.6-0.8,3-0.8c1.3,0,2.2,0.2,2.8,0.6s1,1,1.3,1.8l-2.3,0.4c-0.1-0.4-0.3-0.6-0.6-0.8s-0.7-0.3-1.2-0.3
		c-0.7,0-1.1,0.1-1.4,0.3c-0.2,0.1-0.3,0.3-0.3,0.5c0,0.2,0.1,0.3,0.2,0.4c0.2,0.2,1,0.4,2.3,0.7s2.2,0.7,2.8,1.1
		c0.5,0.4,0.8,1.1,0.8,1.8c0,0.9-0.4,1.6-1.1,2.2s-1.8,0.9-3.2,0.9c-1.3,0-2.3-0.3-3-0.8S-161.2,276.5-161.4,275.6z"/>
</g>
<g id="XMLID_56_">
	<g id="XMLID_61_">
		<path id="XMLID_102_" class="st4" d="M-316.7,254.3h-23.7c-0.9,0-1.6,0.7-1.6,1.6v28.9c0,0.9,0.7,1.6,1.6,1.6h23.7
			c0.9,0,1.6-0.7,1.6-1.6v-28.9C-315.2,255-315.9,254.3-316.7,254.3z M-338.8,280.6c-0.5,0-0.9-0.4-0.9-0.9c0-0.5,0.4-0.9,0.9-0.9
			c0.5,0,0.9,0.4,0.9,0.9C-337.9,280.2-338.3,280.6-338.8,280.6z M-317.5,279.2v0.9v1h-4.4v-1h-7.1v-0.9h7.1v-0.9h4.4V279.2z
			 M-317.5,275h-21.9v-17.4h21.9V275z"/>
		<path id="XMLID_97_" class="st5" d="M-340.6,286.3v3.6h23.8v-3.6h-23.7H-340.6z M-319.9,287.2h1.8v1.9h-1.8V287.2z"/>
		<polygon id="XMLID_25_" class="st6" points="-321.9,279.2 -329,279.2 -329,280.1 -321.9,280.1 -321.9,281.1 -317.5,281.1 
			-317.5,280.1 -317.5,279.2 -317.5,278.3 -321.9,278.3 		"/>
		<path id="XMLID_66_" class="st6" d="M-339.4,275h21.9v-17.4h-21.9V275z M-338.6,260.2c0-0.9,0.7-1.6,1.6-1.6h17.2
			c0.9,0,1.6,0.7,1.6,1.6v12.2c0,0.9-0.7,1.6-1.6,1.6H-337c-0.9,0-1.6-0.7-1.6-1.6V260.2z"/>
		<rect id="XMLID_1_" x="-319.9" y="287.2" class="st6" width="1.8" height="1.9"/>
		<path id="XMLID_21_" class="st3" d="M-337,274h17.2c0.9,0,1.6-0.7,1.6-1.6v-12.2c0-0.9-0.7-1.6-1.6-1.6H-337
			c-0.9,0-1.6,0.7-1.6,1.6v12.2C-338.6,273.3-337.9,274-337,274z"/>
		<circle id="XMLID_20_" class="st7" cx="-338.8" cy="279.7" r="0.9"/>
	</g>
</g>
</svg>
