<?xml version="1.0" encoding="utf-8"?>
<!-- Generator: Adobe Illustrator 19.0.0, SVG Export Plug-In . SVG Version: 6.00 Build 0)  -->
<svg version="1.1" id="Capa_1" xmlns="http://www.w3.org/2000/svg" xmlns:xlink="http://www.w3.org/1999/xlink" x="0px" y="0px"
	 viewBox="-355 251.9 247.6 58.1" style="enable-background:new -355 251.9 247.6 58.1;" xml:space="preserve">
<style type="text/css">
	.st0{fill:#CEC586;}
	.st1{fill:#7F634D;}
	.st2{opacity:0.5;fill:#2C6882;enable-background:new    ;}
	.st3{fill:#F9F8F7;}
</style>
<g id="XMLID_2536_">
	<g>
		<polygon id="XMLID_11_" class="st0" points="-121.4,310 -107.4,292.3 -117.8,272.1 -121.4,272.1 		"/>
	</g>
</g>
<g id="XMLID_2540_">
	<g>
		<rect x="-355" y="251.9" class="st1" width="247.6" height="40.4"/>
	</g>
</g>
<polygon id="XMLID_3597_" class="st2" points="-121.4,299.5 -355,292.4 -121.4,292.4 "/>
<g>
	<g>
		<path class="st3" d="M-278.7,269.6h-2.8l-1.1-2.9h-5.2l-1.1,2.9h-2.8l5-12.9h2.8L-278.7,269.6z M-283.5,264.5l-1.8-4.8l-1.7,4.8
			H-283.5z"/>
		<path class="st3" d="M-269.2,263l-2.4,0.4c-0.1-0.5-0.3-0.9-0.6-1.1s-0.7-0.4-1.1-0.4c-0.6,0-1.1,0.2-1.5,0.6s-0.5,1.1-0.5,2.1
			c0,1.1,0.2,1.9,0.6,2.3s0.9,0.7,1.5,0.7c0.5,0,0.9-0.1,1.2-0.4s0.5-0.7,0.6-1.4l2.4,0.4c-0.3,1.1-0.7,2-1.5,2.5s-1.7,0.9-2.9,0.9
			c-1.4,0-2.5-0.4-3.3-1.3s-1.2-2.1-1.2-3.6c0-1.5,0.4-2.7,1.2-3.6c0.8-0.9,1.9-1.3,3.3-1.3c1.1,0,2,0.2,2.7,0.7
			S-269.5,262-269.2,263z"/>
		<path class="st3" d="M-263,260.2v2h-1.7v3.8c0,0.8,0,1.2,0,1.3s0.1,0.2,0.2,0.3s0.3,0.1,0.4,0.1c0.2,0,0.6-0.1,1-0.2l0.2,1.9
			c-0.6,0.2-1.2,0.4-2,0.4c-0.4,0-0.8-0.1-1.2-0.2c-0.4-0.1-0.6-0.3-0.8-0.6c-0.2-0.2-0.3-0.6-0.3-1c-0.1-0.3-0.1-0.9-0.1-1.7v-4.1
			h-1.1v-2h1.1v-1.9l2.5-1.4v3.3H-263z"/>
		<path class="st3" d="M-261.3,259v-2.3h2.5v2.3H-261.3z M-261.3,269.6v-9.3h2.5v9.3H-261.3z"/>
		<path class="st3" d="M-253.7,269.6l-3.8-9.3h2.6l1.8,4.8l0.5,1.6c0.1-0.4,0.2-0.7,0.3-0.8c0.1-0.3,0.2-0.5,0.3-0.8l1.8-4.8h2.5
			l-3.7,9.3H-253.7z"/>
		<path class="st3" d="M-246.3,259v-2.3h2.5v2.3H-246.3z M-246.3,269.6v-9.3h2.5v9.3H-246.3z"/>
		<path class="st3" d="M-232.7,269.6h-2.3v-1.4c-0.4,0.5-0.8,0.9-1.3,1.2c-0.5,0.3-1,0.4-1.6,0.4c-1.1,0-2-0.4-2.8-1.3
			c-0.8-0.9-1.1-2.1-1.1-3.6c0-1.6,0.4-2.8,1.1-3.6c0.7-0.8,1.7-1.2,2.8-1.2c1,0,1.9,0.4,2.7,1.3v-4.6h2.5V269.6z M-239.3,264.7
			c0,1,0.1,1.7,0.4,2.2c0.4,0.6,1,1,1.7,1c0.6,0,1.1-0.2,1.5-0.7c0.4-0.5,0.6-1.2,0.6-2.2c0-1.1-0.2-1.8-0.6-2.3s-0.9-0.7-1.5-0.7
			c-0.6,0-1.1,0.2-1.5,0.7C-239.1,263.1-239.3,263.8-239.3,264.7z"/>
		<path class="st3" d="M-228.5,263.1l-2.2-0.4c0.3-0.9,0.7-1.6,1.3-2c0.6-0.4,1.5-0.7,2.7-0.7c1.1,0,1.9,0.1,2.5,0.4
			c0.5,0.3,0.9,0.6,1.1,1s0.3,1.1,0.3,2.2l0,2.9c0,0.8,0,1.4,0.1,1.8s0.2,0.8,0.4,1.3h-2.4c-0.1-0.2-0.1-0.4-0.2-0.7
			c0-0.1-0.1-0.2-0.1-0.3c-0.4,0.4-0.9,0.7-1.4,0.9s-1,0.3-1.5,0.3c-1,0-1.7-0.3-2.3-0.8s-0.8-1.2-0.8-2c0-0.5,0.1-1,0.4-1.4
			c0.3-0.4,0.6-0.7,1.1-0.9c0.5-0.2,1.1-0.4,2-0.6c1.2-0.2,2-0.4,2.4-0.6v-0.2c0-0.5-0.1-0.8-0.4-1c-0.2-0.2-0.7-0.3-1.3-0.3
			c-0.4,0-0.8,0.1-1,0.3C-228.1,262.4-228.3,262.7-228.5,263.1z M-225.2,265.1c-0.3,0.1-0.8,0.2-1.5,0.4s-1.1,0.3-1.3,0.4
			c-0.3,0.2-0.5,0.5-0.5,0.9c0,0.3,0.1,0.6,0.4,0.9s0.6,0.4,1,0.4c0.4,0,0.9-0.1,1.3-0.4c0.3-0.2,0.5-0.5,0.6-0.8
			c0.1-0.2,0.1-0.6,0.1-1.2V265.1z"/>
		<path class="st3" d="M-211.7,269.6h-2.3v-1.4c-0.4,0.5-0.8,0.9-1.3,1.2c-0.5,0.3-1,0.4-1.6,0.4c-1.1,0-2-0.4-2.8-1.3
			c-0.8-0.9-1.1-2.1-1.1-3.6c0-1.6,0.4-2.8,1.1-3.6c0.7-0.8,1.7-1.2,2.8-1.2c1,0,1.9,0.4,2.7,1.3v-4.6h2.5V269.6z M-218.3,264.7
			c0,1,0.1,1.7,0.4,2.2c0.4,0.6,1,1,1.7,1c0.6,0,1.1-0.2,1.5-0.7c0.4-0.5,0.6-1.2,0.6-2.2c0-1.1-0.2-1.8-0.6-2.3s-0.9-0.7-1.5-0.7
			c-0.6,0-1.1,0.2-1.5,0.7C-218.1,263.1-218.3,263.8-218.3,264.7z"/>
		<path class="st3" d="M-203.9,266.6l2.5,0.4c-0.3,0.9-0.8,1.6-1.5,2.1s-1.5,0.7-2.6,0.7c-1.6,0-2.8-0.5-3.6-1.6
			c-0.6-0.8-0.9-1.9-0.9-3.2c0-1.5,0.4-2.8,1.2-3.6s1.8-1.3,3.1-1.3c1.4,0,2.5,0.5,3.3,1.4c0.8,0.9,1.2,2.3,1.2,4.2h-6.2
			c0,0.7,0.2,1.3,0.6,1.7c0.4,0.4,0.9,0.6,1.4,0.6c0.4,0,0.7-0.1,1-0.3S-204,267.1-203.9,266.6z M-203.8,264.1
			c0-0.7-0.2-1.3-0.6-1.6c-0.4-0.4-0.8-0.6-1.3-0.6c-0.5,0-1,0.2-1.3,0.6s-0.5,0.9-0.5,1.6H-203.8z"/>
		<path class="st3" d="M-200.2,266.9l2.5-0.4c0.1,0.5,0.3,0.8,0.6,1.1c0.3,0.3,0.8,0.4,1.4,0.4c0.6,0,1.1-0.1,1.4-0.4
			c0.2-0.2,0.3-0.4,0.3-0.7c0-0.2-0.1-0.3-0.2-0.5c-0.1-0.1-0.4-0.2-0.8-0.3c-2-0.4-3.3-0.8-3.8-1.2c-0.7-0.5-1.1-1.2-1.1-2.1
			c0-0.8,0.3-1.5,1-2s1.6-0.8,3-0.8c1.3,0,2.2,0.2,2.8,0.6s1,1,1.3,1.8l-2.3,0.4c-0.1-0.4-0.3-0.6-0.6-0.8s-0.7-0.3-1.2-0.3
			c-0.7,0-1.1,0.1-1.4,0.3c-0.2,0.1-0.3,0.3-0.3,0.5c0,0.2,0.1,0.3,0.2,0.4c0.2,0.2,1,0.4,2.3,0.7s2.2,0.7,2.8,1.1
			c0.5,0.4,0.8,1.1,0.8,1.8c0,0.9-0.4,1.6-1.1,2.2s-1.8,0.9-3.2,0.9c-1.3,0-2.3-0.3-3-0.8S-199.9,267.8-200.2,266.9z"/>
		<path class="st3" d="M-175.7,269.6h-2.3v-1.4c-0.4,0.5-0.8,0.9-1.3,1.2c-0.5,0.3-1,0.4-1.6,0.4c-1.1,0-2-0.4-2.8-1.3
			c-0.8-0.9-1.1-2.1-1.1-3.6c0-1.6,0.4-2.8,1.1-3.6c0.7-0.8,1.7-1.2,2.8-1.2c1,0,1.9,0.4,2.7,1.3v-4.6h2.5V269.6z M-182.3,264.7
			c0,1,0.1,1.7,0.4,2.2c0.4,0.6,1,1,1.7,1c0.6,0,1.1-0.2,1.5-0.7c0.4-0.5,0.6-1.2,0.6-2.2c0-1.1-0.2-1.8-0.6-2.3s-0.9-0.7-1.5-0.7
			c-0.6,0-1.1,0.2-1.5,0.7C-182.1,263.1-182.3,263.8-182.3,264.7z"/>
		<path class="st3" d="M-167.9,266.6l2.5,0.4c-0.3,0.9-0.8,1.6-1.5,2.1s-1.5,0.7-2.6,0.7c-1.6,0-2.8-0.5-3.6-1.6
			c-0.6-0.8-0.9-1.9-0.9-3.2c0-1.5,0.4-2.8,1.2-3.6s1.8-1.3,3.1-1.3c1.4,0,2.5,0.5,3.3,1.4c0.8,0.9,1.2,2.3,1.2,4.2h-6.2
			c0,0.7,0.2,1.3,0.6,1.7c0.4,0.4,0.9,0.6,1.4,0.6c0.4,0,0.7-0.1,1-0.3S-168,267.1-167.9,266.6z M-167.7,264.1
			c0-0.7-0.2-1.3-0.6-1.6c-0.4-0.4-0.8-0.6-1.3-0.6c-0.5,0-1,0.2-1.3,0.6s-0.5,0.9-0.5,1.6H-167.7z"/>
		<path class="st3" d="M-152.1,269.6v-1.4c-0.3,0.5-0.8,0.9-1.3,1.2s-1.1,0.4-1.8,0.4c-0.6,0-1.2-0.1-1.7-0.4s-0.9-0.7-1.1-1.2
			s-0.3-1.2-0.3-2.1v-5.9h2.5v4.3c0,1.3,0,2.1,0.1,2.4c0.1,0.3,0.3,0.5,0.5,0.7c0.2,0.2,0.5,0.3,0.9,0.3c0.4,0,0.8-0.1,1.1-0.3
			c0.3-0.2,0.6-0.5,0.7-0.9c0.1-0.3,0.2-1.2,0.2-2.5v-3.9h2.5v9.3H-152.1z"/>
		<path class="st3" d="M-138.8,269.6h-2.5v-4.8c0-1-0.1-1.7-0.2-2s-0.3-0.5-0.5-0.7s-0.5-0.2-0.9-0.2c-0.4,0-0.8,0.1-1.2,0.4
			s-0.6,0.5-0.7,0.9s-0.2,1.1-0.2,2.1v4.2h-2.5v-9.3h2.3v1.4c0.8-1.1,1.8-1.6,3.1-1.6c0.5,0,1,0.1,1.5,0.3s0.8,0.4,1,0.8
			s0.4,0.7,0.5,1s0.1,0.9,0.1,1.7V269.6z"/>
		<path class="st3" d="M-300.9,276.2h2.3v1.4c0.3-0.5,0.7-0.8,1.2-1.1s1.1-0.4,1.7-0.4c1.1,0,2,0.4,2.8,1.3s1.1,2,1.1,3.6
			c0,1.6-0.4,2.8-1.1,3.6c-0.8,0.9-1.7,1.3-2.8,1.3c-0.5,0-1-0.1-1.4-0.3s-0.9-0.6-1.3-1.1v4.7h-2.5V276.2z M-298.4,280.8
			c0,1,0.2,1.8,0.6,2.3c0.4,0.5,0.9,0.8,1.5,0.8c0.6,0,1.1-0.2,1.4-0.7c0.4-0.5,0.6-1.2,0.6-2.3c0-1-0.2-1.7-0.6-2.2
			s-0.9-0.7-1.5-0.7c-0.6,0-1.1,0.2-1.5,0.7C-298.2,279.1-298.4,279.8-298.4,280.8z"/>
		<path class="st3" d="M-287.5,285.6h-2.5v-9.3h2.3v1.3c0.4-0.6,0.7-1,1.1-1.2s0.7-0.3,1.1-0.3c0.6,0,1.1,0.2,1.6,0.5l-0.8,2.2
			c-0.4-0.3-0.8-0.4-1.2-0.4c-0.3,0-0.6,0.1-0.9,0.3c-0.2,0.2-0.4,0.5-0.6,1s-0.2,1.5-0.2,3.1V285.6z"/>
		<path class="st3" d="M-283.4,280.8c0-0.8,0.2-1.6,0.6-2.4s1-1.4,1.7-1.8s1.6-0.6,2.5-0.6c1.4,0,2.6,0.5,3.5,1.4
			c0.9,0.9,1.4,2.1,1.4,3.5c0,1.4-0.5,2.6-1.4,3.5s-2.1,1.4-3.4,1.4c-0.9,0-1.7-0.2-2.4-0.6s-1.4-1-1.8-1.7
			C-283.2,282.8-283.4,281.9-283.4,280.8z M-280.9,280.9c0,0.9,0.2,1.6,0.7,2.1s1,0.7,1.6,0.7s1.2-0.2,1.6-0.7s0.7-1.2,0.7-2.1
			c0-0.9-0.2-1.6-0.7-2.1s-1-0.7-1.6-0.7s-1.2,0.2-1.6,0.7S-280.9,280-280.9,280.9z"/>
		<path class="st3" d="M-263.7,279l-2.4,0.4c-0.1-0.5-0.3-0.9-0.6-1.1s-0.7-0.4-1.1-0.4c-0.6,0-1.1,0.2-1.5,0.6s-0.5,1.1-0.5,2.1
			c0,1.1,0.2,1.9,0.6,2.3s0.9,0.7,1.5,0.7c0.5,0,0.9-0.1,1.2-0.4s0.5-0.7,0.6-1.4l2.4,0.4c-0.3,1.1-0.7,2-1.5,2.5s-1.7,0.9-2.9,0.9
			c-1.4,0-2.5-0.4-3.3-1.3s-1.2-2.1-1.2-3.6c0-1.5,0.4-2.7,1.2-3.6c0.8-0.9,1.9-1.3,3.3-1.3c1.1,0,2,0.2,2.7,0.7S-264,278-263.7,279
			z"/>
		<path class="st3" d="M-256.4,282.6l2.5,0.4c-0.3,0.9-0.8,1.6-1.5,2.1s-1.5,0.7-2.6,0.7c-1.6,0-2.8-0.5-3.6-1.6
			c-0.6-0.8-0.9-1.9-0.9-3.2c0-1.5,0.4-2.8,1.2-3.6s1.8-1.3,3.1-1.3c1.4,0,2.5,0.5,3.3,1.4c0.8,0.9,1.2,2.3,1.2,4.2h-6.2
			c0,0.7,0.2,1.3,0.6,1.7c0.4,0.4,0.9,0.6,1.4,0.6c0.4,0,0.7-0.1,1-0.3S-256.5,283.1-256.4,282.6z M-256.3,280.1
			c0-0.7-0.2-1.3-0.6-1.6c-0.4-0.4-0.8-0.6-1.3-0.6c-0.5,0-1,0.2-1.3,0.6s-0.5,0.9-0.5,1.6H-256.3z"/>
		<path class="st3" d="M-252.7,282.9l2.5-0.4c0.1,0.5,0.3,0.8,0.6,1.1c0.3,0.3,0.8,0.4,1.4,0.4c0.6,0,1.1-0.1,1.4-0.4
			c0.2-0.2,0.3-0.4,0.3-0.7c0-0.2-0.1-0.3-0.2-0.5c-0.1-0.1-0.4-0.2-0.8-0.3c-2-0.4-3.3-0.8-3.8-1.2c-0.7-0.5-1.1-1.2-1.1-2.1
			c0-0.8,0.3-1.5,1-2s1.6-0.8,3-0.8c1.3,0,2.2,0.2,2.8,0.6s1,1,1.3,1.8l-2.3,0.4c-0.1-0.4-0.3-0.6-0.6-0.8s-0.7-0.3-1.2-0.3
			c-0.7,0-1.1,0.1-1.4,0.3c-0.2,0.1-0.3,0.3-0.3,0.5c0,0.2,0.1,0.3,0.2,0.4c0.2,0.2,1,0.4,2.3,0.7s2.2,0.7,2.8,1.1
			c0.5,0.4,0.8,1.1,0.8,1.8c0,0.9-0.4,1.6-1.1,2.2s-1.8,0.9-3.2,0.9c-1.3,0-2.3-0.3-3-0.8S-252.4,283.8-252.7,282.9z"/>
		<path class="st3" d="M-242.4,280.8c0-0.8,0.2-1.6,0.6-2.4s1-1.4,1.7-1.8s1.6-0.6,2.5-0.6c1.4,0,2.6,0.5,3.5,1.4
			c0.9,0.9,1.4,2.1,1.4,3.5c0,1.4-0.5,2.6-1.4,3.5s-2.1,1.4-3.4,1.4c-0.9,0-1.7-0.2-2.4-0.6s-1.4-1-1.8-1.7
			C-242.2,282.8-242.4,281.9-242.4,280.8z M-239.8,280.9c0,0.9,0.2,1.6,0.7,2.1s1,0.7,1.6,0.7s1.2-0.2,1.6-0.7s0.7-1.2,0.7-2.1
			c0-0.9-0.2-1.6-0.7-2.1s-1-0.7-1.6-0.7s-1.2,0.2-1.6,0.7S-239.8,280-239.8,280.9z"/>
		<path class="st3" d="M-217.2,285.6h-2.3v-1.4c-0.4,0.5-0.8,0.9-1.3,1.2c-0.5,0.3-1,0.4-1.6,0.4c-1.1,0-2-0.4-2.8-1.3
			c-0.8-0.9-1.1-2.1-1.1-3.6c0-1.6,0.4-2.8,1.1-3.6c0.7-0.8,1.7-1.2,2.8-1.2c1,0,1.9,0.4,2.7,1.3v-4.6h2.5V285.6z M-223.8,280.7
			c0,1,0.1,1.7,0.4,2.2c0.4,0.6,1,1,1.7,1c0.6,0,1.1-0.2,1.5-0.7c0.4-0.5,0.6-1.2,0.6-2.2c0-1.1-0.2-1.8-0.6-2.3s-0.9-0.7-1.5-0.7
			c-0.6,0-1.1,0.2-1.5,0.7C-223.6,279.1-223.8,279.8-223.8,280.7z"/>
		<path class="st3" d="M-209.4,282.6l2.5,0.4c-0.3,0.9-0.8,1.6-1.5,2.1s-1.5,0.7-2.6,0.7c-1.6,0-2.8-0.5-3.6-1.6
			c-0.6-0.8-0.9-1.9-0.9-3.2c0-1.5,0.4-2.8,1.2-3.6s1.8-1.3,3.1-1.3c1.4,0,2.5,0.5,3.3,1.4c0.8,0.9,1.2,2.3,1.2,4.2h-6.2
			c0,0.7,0.2,1.3,0.6,1.7c0.4,0.4,0.9,0.6,1.4,0.6c0.4,0,0.7-0.1,1-0.3S-209.5,283.1-209.4,282.6z M-209.3,280.1
			c0-0.7-0.2-1.3-0.6-1.6c-0.4-0.4-0.8-0.6-1.3-0.6c-0.5,0-1,0.2-1.3,0.6s-0.5,0.9-0.5,1.6H-209.3z"/>
		<path class="st3" d="M-200.7,282.9l2.5-0.4c0.1,0.5,0.3,0.8,0.6,1.1c0.3,0.3,0.8,0.4,1.4,0.4c0.6,0,1.1-0.1,1.4-0.4
			c0.2-0.2,0.3-0.4,0.3-0.7c0-0.2-0.1-0.3-0.2-0.5c-0.1-0.1-0.4-0.2-0.8-0.3c-2-0.4-3.3-0.8-3.8-1.2c-0.7-0.5-1.1-1.2-1.1-2.1
			c0-0.8,0.3-1.5,1-2s1.6-0.8,3-0.8c1.3,0,2.2,0.2,2.8,0.6s1,1,1.3,1.8l-2.3,0.4c-0.1-0.4-0.3-0.6-0.6-0.8s-0.7-0.3-1.2-0.3
			c-0.7,0-1.1,0.1-1.4,0.3c-0.2,0.1-0.3,0.3-0.3,0.5c0,0.2,0.1,0.3,0.2,0.4c0.2,0.2,1,0.4,2.3,0.7s2.2,0.7,2.8,1.1
			c0.5,0.4,0.8,1.1,0.8,1.8c0,0.9-0.4,1.6-1.1,2.2s-1.8,0.9-3.2,0.9c-1.3,0-2.3-0.3-3-0.8S-200.4,283.8-200.7,282.9z"/>
		<path class="st3" d="M-190.4,280.8c0-0.8,0.2-1.6,0.6-2.4s1-1.4,1.7-1.8s1.6-0.6,2.5-0.6c1.4,0,2.6,0.5,3.5,1.4
			c0.9,0.9,1.4,2.1,1.4,3.5c0,1.4-0.5,2.6-1.4,3.5s-2.1,1.4-3.4,1.4c-0.9,0-1.7-0.2-2.4-0.6s-1.4-1-1.8-1.7
			C-190.1,282.8-190.4,281.9-190.4,280.8z M-187.8,280.9c0,0.9,0.2,1.6,0.7,2.1s1,0.7,1.6,0.7s1.2-0.2,1.6-0.7s0.7-1.2,0.7-2.1
			c0-0.9-0.2-1.6-0.7-2.1s-1-0.7-1.6-0.7s-1.2,0.2-1.6,0.7S-187.8,280-187.8,280.9z"/>
		<path class="st3" d="M-179.9,276.2h1.4v-0.7c0-0.8,0.1-1.4,0.3-1.8s0.5-0.7,0.9-0.9c0.4-0.2,1-0.4,1.7-0.4c0.7,0,1.4,0.1,2.1,0.3
			l-0.3,1.7c-0.4-0.1-0.8-0.1-1.1-0.1c-0.4,0-0.6,0.1-0.8,0.3c-0.2,0.2-0.2,0.5-0.2,1v0.7h1.8v1.9h-1.8v7.4h-2.5v-7.4h-1.4V276.2z"
			/>
		<path class="st3" d="M-168.5,276.2v2h-1.7v3.8c0,0.8,0,1.2,0,1.3s0.1,0.2,0.2,0.3s0.3,0.1,0.4,0.1c0.2,0,0.6-0.1,1-0.2l0.2,1.9
			c-0.6,0.2-1.2,0.4-2,0.4c-0.4,0-0.8-0.1-1.2-0.2c-0.4-0.1-0.6-0.3-0.8-0.6c-0.2-0.2-0.3-0.6-0.3-1c-0.1-0.3-0.1-0.9-0.1-1.7v-4.1
			h-1.1v-2h1.1v-1.9l2.5-1.4v3.3H-168.5z"/>
		<path class="st3" d="M-165.1,285.6l-3-9.3h2.4l1.7,6.1l1.6-6.1h2.4l1.6,6.1l1.8-6.1h2.4l-3,9.3h-2.4l-1.6-6l-1.6,6H-165.1z"/>
		<path class="st3" d="M-150.9,279.1l-2.2-0.4c0.3-0.9,0.7-1.6,1.3-2s1.5-0.7,2.7-0.7c1.1,0,1.9,0.1,2.5,0.4c0.5,0.3,0.9,0.6,1.1,1
			s0.3,1.1,0.3,2.2l0,2.9c0,0.8,0,1.4,0.1,1.8s0.2,0.8,0.4,1.3h-2.4c-0.1-0.2-0.1-0.4-0.2-0.7c0-0.1-0.1-0.2-0.1-0.3
			c-0.4,0.4-0.9,0.7-1.4,0.9s-1,0.3-1.5,0.3c-1,0-1.7-0.3-2.3-0.8s-0.8-1.2-0.8-2c0-0.5,0.1-1,0.4-1.4c0.3-0.4,0.6-0.7,1.1-0.9
			c0.5-0.2,1.1-0.4,2-0.6c1.2-0.2,2-0.4,2.4-0.6v-0.2c0-0.5-0.1-0.8-0.4-1c-0.2-0.2-0.7-0.3-1.3-0.3c-0.4,0-0.8,0.1-1,0.3
			C-150.6,278.4-150.8,278.7-150.9,279.1z M-147.6,281.1c-0.3,0.1-0.8,0.2-1.5,0.4s-1.1,0.3-1.3,0.4c-0.3,0.2-0.5,0.5-0.5,0.9
			c0,0.3,0.1,0.6,0.4,0.9s0.6,0.4,1,0.4c0.4,0,0.9-0.1,1.3-0.4c0.3-0.2,0.5-0.5,0.6-0.8c0.1-0.2,0.1-0.6,0.1-1.2V281.1z"/>
		<path class="st3" d="M-140.4,285.6h-2.5v-9.3h2.3v1.3c0.4-0.6,0.7-1,1.1-1.2s0.7-0.3,1.1-0.3c0.6,0,1.1,0.2,1.6,0.5l-0.8,2.2
			c-0.4-0.3-0.8-0.4-1.2-0.4c-0.3,0-0.6,0.1-0.9,0.3c-0.2,0.2-0.4,0.5-0.6,1s-0.2,1.5-0.2,3.1V285.6z"/>
		<path class="st3" d="M-130.4,282.6l2.5,0.4c-0.3,0.9-0.8,1.6-1.5,2.1s-1.5,0.7-2.6,0.7c-1.6,0-2.8-0.5-3.6-1.6
			c-0.6-0.8-0.9-1.9-0.9-3.2c0-1.5,0.4-2.8,1.2-3.6s1.8-1.3,3.1-1.3c1.4,0,2.5,0.5,3.3,1.4c0.8,0.9,1.2,2.3,1.2,4.2h-6.2
			c0,0.7,0.2,1.3,0.6,1.7c0.4,0.4,0.9,0.6,1.4,0.6c0.4,0,0.7-0.1,1-0.3S-130.5,283.1-130.4,282.6z M-130.2,280.1
			c0-0.7-0.2-1.3-0.6-1.6c-0.4-0.4-0.8-0.6-1.3-0.6c-0.5,0-1,0.2-1.3,0.6s-0.5,0.9-0.5,1.6H-130.2z"/>
	</g>
</g>
<g id="XMLID_3724_">
	<g>
		<path id="XMLID_178_" class="st3" d="M-345.3,286.1c-2.2,0-3.9,1.8-3.9,3.9c0,0.3,0.2,0.6,0.6,0.6h6.7c0.3,0,0.6-0.3,0.6-0.6
			C-341.4,287.9-343.2,286.1-345.3,286.1z M-348.1,289.4c0.2-1.1,1.1-2,2.2-2.2v1.1h1.1v-1.1c1.1,0.2,2,1.1,2.2,2.2H-348.1z"/>
		<path id="XMLID_168_" class="st3" d="M-316.3,281.1h-1c0-0.1-0.1-0.2-0.1-0.2l0.7-0.7c0.2-0.2,0.2-0.6,0-0.8l-2.4-2.4
			c-0.1-0.1-0.3-0.2-0.4-0.2c0.9-0.5,1.5-1.4,1.5-2.5v-14.5c0-1.5-1.3-2.8-2.8-2.8h-25.7c-1.5,0-2.8,1.3-2.8,2.8v14.5
			c0,1.5,1.3,2.8,2.8,2.8h7.3l-2.1,3.9h-0.2h-0.8c-1.1,0-2,0.9-2,2c0,1.1,0.9,2,2,2h12c0,0.3,0.3,0.6,0.6,0.6h1
			c0,0.1,0.1,0.2,0.1,0.2l-0.7,0.7c-0.2,0.2-0.2,0.6,0,0.8l2.4,2.4c0.2,0.2,0.6,0.2,0.8,0l0.7-0.7c0.1,0,0.2,0.1,0.2,0.1v1
			c0,0.3,0.3,0.6,0.6,0.6h3.4c0.3,0,0.6-0.3,0.6-0.6v-1c0.1,0,0.2-0.1,0.2-0.1l0.7,0.7c0.2,0.2,0.6,0.2,0.8,0l2.4-2.4
			c0.2-0.2,0.2-0.6,0-0.8l-0.7-0.7c0-0.1,0.1-0.2,0.1-0.2h1c0.3,0,0.6-0.3,0.6-0.6v-3.4C-315.7,281.3-315.9,281.1-316.3,281.1z
			 M-320.7,277.2c0.3,0,0.6-0.1,0.9-0.2l-0.7,0.7c-0.1,0-0.2-0.1-0.2-0.1V277.2z M-346.4,258.2h25.7c0.9,0,1.7,0.8,1.7,1.7v11.7
			h-29.1v-11.7C-348.1,258.9-347.4,258.2-346.4,258.2z M-348.1,274.4v-1.7h29.1v1.7c0,0.9-0.8,1.7-1.7,1.7h-0.6h-3.4h-4.3h-9.2h-8.2
			C-347.4,276-348.1,275.3-348.1,274.4z M-327.6,277.6l-0.3-0.5h0.8L-327.6,277.6z M-325.2,277.2v0.4c-0.1,0-0.2,0.1-0.2,0.1
			l-0.5-0.5H-325.2z M-342.2,283.9c-0.5,0-0.8-0.4-0.8-0.8c0-0.5,0.4-0.8,0.8-0.8h0.8h0.5h10.7v1.7H-342.2z M-340,281.1l2.1-3.9h8.6
			l0.9,1.3l-0.9,0.9c-0.2,0.2-0.2,0.6,0,0.8l0.7,0.7c0,0.1-0.1,0.2-0.1,0.2h-1L-340,281.1L-340,281.1z M-316.8,284.4h-0.8
			c-0.2,0-0.5,0.2-0.5,0.4c-0.1,0.3-0.2,0.5-0.3,0.8c-0.1,0.2-0.1,0.5,0.1,0.7l0.6,0.6l-1.6,1.6l-0.6-0.6c-0.2-0.2-0.4-0.2-0.7-0.1
			c-0.3,0.1-0.5,0.3-0.8,0.3c-0.2,0.1-0.4,0.3-0.4,0.5v0.8h-2.2v-0.8c0-0.2-0.2-0.5-0.4-0.5c-0.3-0.1-0.5-0.2-0.8-0.3
			c-0.2-0.1-0.5-0.1-0.7,0.1l-0.6,0.6l-1.6-1.6l0.6-0.6c0.2-0.2,0.2-0.4,0.1-0.7c-0.1-0.3-0.3-0.5-0.3-0.8c-0.1-0.2-0.3-0.4-0.5-0.4
			h-0.8v-2.2h0.8c0.2,0,0.5-0.2,0.5-0.4c0.1-0.3,0.2-0.5,0.3-0.8c0.1-0.2,0.1-0.5-0.1-0.7l-0.6-0.6l1.6-1.6l0.6,0.6
			c0.2,0.2,0.4,0.2,0.7,0.1c0.3-0.1,0.5-0.3,0.8-0.3c0.2-0.1,0.4-0.3,0.4-0.5v-0.8h2.2v0.8c0,0.2,0.2,0.5,0.4,0.5
			c0.3,0.1,0.5,0.2,0.8,0.3c0.2,0.1,0.5,0.1,0.7-0.1l0.6-0.6l1.6,1.6l-0.6,0.6c-0.2,0.2-0.2,0.4-0.1,0.7c0.1,0.3,0.3,0.5,0.3,0.8
			c0.1,0.2,0.3,0.4,0.5,0.4h0.8V284.4z"/>
		<path id="XMLID_165_" class="st3" d="M-323,279.9c-1.8,0-3.4,1.5-3.4,3.4c0,1.8,1.5,3.4,3.4,3.4s3.4-1.5,3.4-3.4
			C-319.6,281.5-321.1,279.9-323,279.9z M-323,285.5c-1.2,0-2.2-1-2.2-2.2c0-1.2,1-2.2,2.2-2.2s2.2,1,2.2,2.2
			C-320.7,284.5-321.7,285.5-323,285.5z"/>
		<path id="XMLID_164_" class="st3" d="M-339,269.2l0.8-0.8l-3.5-3.5l3.5-3.5l-0.8-0.8l-3.9,3.9c-0.2,0.2-0.2,0.6,0,0.8L-339,269.2z
			"/>
		<path id="XMLID_163_" class="st3" d="M-329.8,269.2l3.9-3.9c0.2-0.2,0.2-0.6,0-0.8l-3.9-3.9l-0.8,0.8l3.5,3.5l-3.5,3.5
			L-329.8,269.2z"/>
		
			<rect id="XMLID_162_" x="-340" y="263.7" transform="matrix(-0.4472 0.8944 -0.8944 -0.4472 -247.5664 681.6089)" class="st3" width="11.2" height="1.1"/>
		<rect id="XMLID_161_" x="-327.4" y="268.2" class="st3" width="1.1" height="1.1"/>
		<rect id="XMLID_160_" x="-325.2" y="268.2" class="st3" width="1.1" height="1.1"/>
		<rect id="XMLID_159_" x="-323" y="268.2" class="st3" width="1.1" height="1.1"/>
	</g>
</g>
</svg>
