<?xml version="1.0" encoding="utf-8"?>
<!-- Generator: Adobe Illustrator 19.0.0, SVG Export Plug-In . SVG Version: 6.00 Build 0)  -->
<svg version="1.1" id="Capa_1" xmlns="http://www.w3.org/2000/svg" xmlns:xlink="http://www.w3.org/1999/xlink" x="0px" y="0px"
	 viewBox="-355 251.9 247.6 58.1" style="enable-background:new -355 251.9 247.6 58.1;" xml:space="preserve">
<style type="text/css">
	.st0{fill:#CEC586;}
	.st1{fill:#F9F19D;}
	.st2{opacity:0.5;fill:#2C6882;enable-background:new    ;}
	.st3{fill:#7F634D;}
	.st4{fill:#464655;}
	.st5{fill:#FFFFFF;}
	.st6{fill:#BEC8DC;}
	.st7{fill:#AFBBD0;}
	.st8{fill:#96A5B9;}
	.st9{fill:#E4EAF6;}
	.st10{fill:#FF6469;}
</style>
<g id="XMLID_2551_">
	<g>
		<polygon id="XMLID_10_" class="st0" points="-121.4,310 -107.4,292.3 -117.8,272.1 -121.4,272.1 		"/>
	</g>
</g>
<rect id="XMLID_2555_" x="-355" y="251.9" class="st1" width="247.6" height="40.4"/>
<polygon id="XMLID_3600_" class="st2" points="-121.4,299.4 -355,292.2 -121.4,292.4 "/>
<g>
	<g>
		<path class="st3" d="M-298,272.4v-12.9h3.9l2.3,8.8l2.3-8.8h3.9v12.9h-2.4v-10.1l-2.6,10.1h-2.5l-2.5-10.1v10.1H-298z"/>
		<path class="st3" d="M-283.6,267.6c0-0.8,0.2-1.6,0.6-2.4s1-1.4,1.7-1.8s1.6-0.6,2.5-0.6c1.4,0,2.6,0.5,3.5,1.4
			c0.9,0.9,1.4,2.1,1.4,3.5c0,1.4-0.5,2.6-1.4,3.5s-2.1,1.4-3.4,1.4c-0.9,0-1.7-0.2-2.4-0.6s-1.4-1-1.8-1.7
			C-283.4,269.6-283.6,268.7-283.6,267.6z M-281.1,267.8c0,0.9,0.2,1.6,0.7,2.1s1,0.7,1.6,0.7s1.2-0.2,1.6-0.7s0.7-1.2,0.7-2.1
			c0-0.9-0.2-1.6-0.7-2.1s-1-0.7-1.6-0.7s-1.2,0.2-1.6,0.7S-281.1,266.8-281.1,267.8z"/>
		<path class="st3" d="M-263.5,272.4h-2.3v-1.4c-0.4,0.5-0.8,0.9-1.3,1.2c-0.5,0.3-1,0.4-1.6,0.4c-1.1,0-2-0.4-2.8-1.3
			c-0.8-0.9-1.1-2.1-1.1-3.6c0-1.6,0.4-2.8,1.1-3.6c0.7-0.8,1.7-1.2,2.8-1.2c1,0,1.9,0.4,2.7,1.3v-4.6h2.5V272.4z M-270.1,267.6
			c0,1,0.1,1.7,0.4,2.2c0.4,0.6,1,1,1.7,1c0.6,0,1.1-0.2,1.5-0.7c0.4-0.5,0.6-1.2,0.6-2.2c0-1.1-0.2-1.8-0.6-2.3s-0.9-0.7-1.5-0.7
			c-0.6,0-1.1,0.2-1.5,0.7C-269.9,265.9-270.1,266.6-270.1,267.6z"/>
		<path class="st3" d="M-255.6,269.5l2.5,0.4c-0.3,0.9-0.8,1.6-1.5,2.1s-1.5,0.7-2.6,0.7c-1.6,0-2.8-0.5-3.6-1.6
			c-0.6-0.8-0.9-1.9-0.9-3.2c0-1.5,0.4-2.8,1.2-3.6s1.8-1.3,3.1-1.3c1.4,0,2.5,0.5,3.3,1.4c0.8,0.9,1.2,2.3,1.2,4.2h-6.2
			c0,0.7,0.2,1.3,0.6,1.7c0.4,0.4,0.9,0.6,1.4,0.6c0.4,0,0.7-0.1,1-0.3S-255.8,269.9-255.6,269.5z M-255.5,267
			c0-0.7-0.2-1.3-0.6-1.6c-0.4-0.4-0.8-0.6-1.3-0.6c-0.5,0-1,0.2-1.3,0.6s-0.5,0.9-0.5,1.6H-255.5z"/>
		<path class="st3" d="M-251,272.4v-12.9h2.5v12.9H-251z"/>
		<path class="st3" d="M-246.6,267.6c0-0.8,0.2-1.6,0.6-2.4s1-1.4,1.7-1.8s1.6-0.6,2.5-0.6c1.4,0,2.6,0.5,3.5,1.4
			c0.9,0.9,1.4,2.1,1.4,3.5c0,1.4-0.5,2.6-1.4,3.5s-2.1,1.4-3.4,1.4c-0.9,0-1.7-0.2-2.4-0.6s-1.4-1-1.8-1.7
			C-246.4,269.6-246.6,268.7-246.6,267.6z M-244.1,267.8c0,0.9,0.2,1.6,0.7,2.1s1,0.7,1.6,0.7s1.2-0.2,1.6-0.7s0.7-1.2,0.7-2.1
			c0-0.9-0.2-1.6-0.7-2.1s-1-0.7-1.6-0.7s-1.2,0.2-1.6,0.7S-244.1,266.8-244.1,267.8z"/>
		<path class="st3" d="M-235.9,269.8l2.5-0.4c0.1,0.5,0.3,0.8,0.6,1.1c0.3,0.3,0.8,0.4,1.4,0.4c0.6,0,1.1-0.1,1.4-0.4
			c0.2-0.2,0.3-0.4,0.3-0.7c0-0.2-0.1-0.3-0.2-0.5c-0.1-0.1-0.4-0.2-0.8-0.3c-2-0.4-3.3-0.8-3.8-1.2c-0.7-0.5-1.1-1.2-1.1-2.1
			c0-0.8,0.3-1.5,1-2s1.6-0.8,3-0.8c1.3,0,2.2,0.2,2.8,0.6s1,1,1.3,1.8l-2.3,0.4c-0.1-0.4-0.3-0.6-0.6-0.8s-0.7-0.3-1.2-0.3
			c-0.7,0-1.1,0.1-1.4,0.3c-0.2,0.1-0.3,0.3-0.3,0.5c0,0.2,0.1,0.3,0.2,0.4c0.2,0.2,1,0.4,2.3,0.7s2.2,0.7,2.8,1.1
			c0.5,0.4,0.8,1.1,0.8,1.8c0,0.9-0.4,1.6-1.1,2.2s-1.8,0.9-3.2,0.9c-1.3,0-2.3-0.3-3-0.8S-235.7,270.6-235.9,269.8z"/>
		<path class="st3" d="M-211.5,272.4h-2.3v-1.4c-0.4,0.5-0.8,0.9-1.3,1.2c-0.5,0.3-1,0.4-1.6,0.4c-1.1,0-2-0.4-2.8-1.3
			c-0.8-0.9-1.1-2.1-1.1-3.6c0-1.6,0.4-2.8,1.1-3.6c0.7-0.8,1.7-1.2,2.8-1.2c1,0,1.9,0.4,2.7,1.3v-4.6h2.5V272.4z M-218,267.6
			c0,1,0.1,1.7,0.4,2.2c0.4,0.6,1,1,1.7,1c0.6,0,1.1-0.2,1.5-0.7c0.4-0.5,0.6-1.2,0.6-2.2c0-1.1-0.2-1.8-0.6-2.3s-0.9-0.7-1.5-0.7
			c-0.6,0-1.1,0.2-1.5,0.7C-217.8,265.9-218,266.6-218,267.6z"/>
		<path class="st3" d="M-203.6,269.5l2.5,0.4c-0.3,0.9-0.8,1.6-1.5,2.1s-1.5,0.7-2.6,0.7c-1.6,0-2.8-0.5-3.6-1.6
			c-0.6-0.8-0.9-1.9-0.9-3.2c0-1.5,0.4-2.8,1.2-3.6s1.8-1.3,3.1-1.3c1.4,0,2.5,0.5,3.3,1.4c0.8,0.9,1.2,2.3,1.2,4.2h-6.2
			c0,0.7,0.2,1.3,0.6,1.7c0.4,0.4,0.9,0.6,1.4,0.6c0.4,0,0.7-0.1,1-0.3S-203.8,269.9-203.6,269.5z M-203.5,267
			c0-0.7-0.2-1.3-0.6-1.6c-0.4-0.4-0.8-0.6-1.3-0.6c-0.5,0-1,0.2-1.3,0.6s-0.5,0.9-0.5,1.6H-203.5z"/>
		<path class="st3" d="M-194.1,263.1h2.3v1.4c0.3-0.5,0.7-0.8,1.2-1.1s1.1-0.4,1.7-0.4c1.1,0,2,0.4,2.8,1.3s1.1,2,1.1,3.6
			c0,1.6-0.4,2.8-1.1,3.6c-0.8,0.9-1.7,1.3-2.8,1.3c-0.5,0-1-0.1-1.4-0.3s-0.9-0.6-1.3-1.1v4.7h-2.5V263.1z M-191.6,267.6
			c0,1,0.2,1.8,0.6,2.3c0.4,0.5,0.9,0.8,1.5,0.8c0.6,0,1.1-0.2,1.4-0.7c0.4-0.5,0.6-1.2,0.6-2.3c0-1-0.2-1.7-0.6-2.2
			s-0.9-0.7-1.5-0.7c-0.6,0-1.1,0.2-1.5,0.7C-191.4,266-191.6,266.7-191.6,267.6z"/>
		<path class="st3" d="M-180.6,272.4h-2.5v-9.3h2.3v1.3c0.4-0.6,0.7-1,1.1-1.2s0.7-0.3,1.1-0.3c0.6,0,1.1,0.2,1.6,0.5l-0.8,2.2
			c-0.4-0.3-0.8-0.4-1.2-0.4c-0.3,0-0.6,0.1-0.9,0.3c-0.2,0.2-0.4,0.5-0.6,1s-0.2,1.5-0.2,3.1V272.4z"/>
		<path class="st3" d="M-176.6,267.6c0-0.8,0.2-1.6,0.6-2.4s1-1.4,1.7-1.8s1.6-0.6,2.5-0.6c1.4,0,2.6,0.5,3.5,1.4
			c0.9,0.9,1.4,2.1,1.4,3.5c0,1.4-0.5,2.6-1.4,3.5s-2.1,1.4-3.4,1.4c-0.9,0-1.7-0.2-2.4-0.6s-1.4-1-1.8-1.7
			C-176.4,269.6-176.6,268.7-176.6,267.6z M-174,267.8c0,0.9,0.2,1.6,0.7,2.1s1,0.7,1.6,0.7s1.2-0.2,1.6-0.7s0.7-1.2,0.7-2.1
			c0-0.9-0.2-1.6-0.7-2.1s-1-0.7-1.6-0.7s-1.2,0.2-1.6,0.7S-174,266.8-174,267.8z"/>
		<path class="st3" d="M-156.9,265.9l-2.4,0.4c-0.1-0.5-0.3-0.9-0.6-1.1s-0.7-0.4-1.1-0.4c-0.6,0-1.1,0.2-1.5,0.6s-0.5,1.1-0.5,2.1
			c0,1.1,0.2,1.9,0.6,2.3s0.9,0.7,1.5,0.7c0.5,0,0.9-0.1,1.2-0.4s0.5-0.7,0.6-1.4l2.4,0.4c-0.3,1.1-0.7,2-1.5,2.5s-1.7,0.9-2.9,0.9
			c-1.4,0-2.5-0.4-3.3-1.3s-1.2-2.1-1.2-3.6c0-1.5,0.4-2.7,1.2-3.6c0.8-0.9,1.9-1.3,3.3-1.3c1.1,0,2,0.2,2.7,0.7
			S-157.2,264.8-156.9,265.9z"/>
		<path class="st3" d="M-149.6,269.5l2.5,0.4c-0.3,0.9-0.8,1.6-1.5,2.1s-1.5,0.7-2.6,0.7c-1.6,0-2.8-0.5-3.6-1.6
			c-0.6-0.8-0.9-1.9-0.9-3.2c0-1.5,0.4-2.8,1.2-3.6s1.8-1.3,3.1-1.3c1.4,0,2.5,0.5,3.3,1.4c0.8,0.9,1.2,2.3,1.2,4.2h-6.2
			c0,0.7,0.2,1.3,0.6,1.7c0.4,0.4,0.9,0.6,1.4,0.6c0.4,0,0.7-0.1,1-0.3S-149.7,269.9-149.6,269.5z M-149.5,267
			c0-0.7-0.2-1.3-0.6-1.6c-0.4-0.4-0.8-0.6-1.3-0.6c-0.5,0-1,0.2-1.3,0.6s-0.5,0.9-0.5,1.6H-149.5z"/>
		<path class="st3" d="M-145.9,269.8l2.5-0.4c0.1,0.5,0.3,0.8,0.6,1.1c0.3,0.3,0.8,0.4,1.4,0.4c0.6,0,1.1-0.1,1.4-0.4
			c0.2-0.2,0.3-0.4,0.3-0.7c0-0.2-0.1-0.3-0.2-0.5c-0.1-0.1-0.4-0.2-0.8-0.3c-2-0.4-3.3-0.8-3.8-1.2c-0.7-0.5-1.1-1.2-1.1-2.1
			c0-0.8,0.3-1.5,1-2s1.6-0.8,3-0.8c1.3,0,2.2,0.2,2.8,0.6s1,1,1.3,1.8l-2.3,0.4c-0.1-0.4-0.3-0.6-0.6-0.8s-0.7-0.3-1.2-0.3
			c-0.7,0-1.1,0.1-1.4,0.3c-0.2,0.1-0.3,0.3-0.3,0.5c0,0.2,0.1,0.3,0.2,0.4c0.2,0.2,1,0.4,2.3,0.7s2.2,0.7,2.8,1.1
			c0.5,0.4,0.8,1.1,0.8,1.8c0,0.9-0.4,1.6-1.1,2.2s-1.8,0.9-3.2,0.9c-1.3,0-2.3-0.3-3-0.8S-145.6,270.6-145.9,269.8z"/>
		<path class="st3" d="M-135.6,267.6c0-0.8,0.2-1.6,0.6-2.4s1-1.4,1.7-1.8s1.6-0.6,2.5-0.6c1.4,0,2.6,0.5,3.5,1.4
			c0.9,0.9,1.4,2.1,1.4,3.5c0,1.4-0.5,2.6-1.4,3.5s-2.1,1.4-3.4,1.4c-0.9,0-1.7-0.2-2.4-0.6s-1.4-1-1.8-1.7
			C-135.4,269.6-135.6,268.7-135.6,267.6z M-133,267.8c0,0.9,0.2,1.6,0.7,2.1s1,0.7,1.6,0.7s1.2-0.2,1.6-0.7s0.7-1.2,0.7-2.1
			c0-0.9-0.2-1.6-0.7-2.1s-1-0.7-1.6-0.7s-1.2,0.2-1.6,0.7S-133,266.8-133,267.8z"/>
		<path class="st3" d="M-124.9,269.8l2.5-0.4c0.1,0.5,0.3,0.8,0.6,1.1c0.3,0.3,0.8,0.4,1.4,0.4c0.6,0,1.1-0.1,1.4-0.4
			c0.2-0.2,0.3-0.4,0.3-0.7c0-0.2-0.1-0.3-0.2-0.5c-0.1-0.1-0.4-0.2-0.8-0.3c-2-0.4-3.3-0.8-3.8-1.2c-0.7-0.5-1.1-1.2-1.1-2.1
			c0-0.8,0.3-1.5,1-2s1.6-0.8,3-0.8c1.3,0,2.2,0.2,2.8,0.6s1,1,1.3,1.8l-2.3,0.4c-0.1-0.4-0.3-0.6-0.6-0.8s-0.7-0.3-1.2-0.3
			c-0.7,0-1.1,0.1-1.4,0.3c-0.2,0.1-0.3,0.3-0.3,0.5c0,0.2,0.1,0.3,0.2,0.4c0.2,0.2,1,0.4,2.3,0.7s2.2,0.7,2.8,1.1
			c0.5,0.4,0.8,1.1,0.8,1.8c0,0.9-0.4,1.6-1.1,2.2s-1.8,0.9-3.2,0.9c-1.3,0-2.3-0.3-3-0.8S-124.6,270.6-124.9,269.8z"/>
		<path class="st3" d="M-245,288.4h-2.3v-1.4c-0.4,0.5-0.8,0.9-1.3,1.2c-0.5,0.3-1,0.4-1.6,0.4c-1.1,0-2-0.4-2.8-1.3
			c-0.8-0.9-1.1-2.1-1.1-3.6c0-1.6,0.4-2.8,1.1-3.6c0.7-0.8,1.7-1.2,2.8-1.2c1,0,1.9,0.4,2.7,1.3v-4.6h2.5V288.4z M-251.5,283.6
			c0,1,0.1,1.7,0.4,2.2c0.4,0.6,1,1,1.7,1c0.6,0,1.1-0.2,1.5-0.7c0.4-0.5,0.6-1.2,0.6-2.2c0-1.1-0.2-1.8-0.6-2.3
			c-0.4-0.5-0.9-0.7-1.5-0.7c-0.6,0-1.1,0.2-1.5,0.7C-251.3,281.9-251.5,282.6-251.5,283.6z"/>
		<path class="st3" d="M-237.1,285.5l2.5,0.4c-0.3,0.9-0.8,1.6-1.5,2.1s-1.5,0.7-2.6,0.7c-1.6,0-2.8-0.5-3.6-1.6
			c-0.6-0.8-0.9-1.9-0.9-3.2c0-1.5,0.4-2.8,1.2-3.6s1.8-1.3,3.1-1.3c1.4,0,2.5,0.5,3.3,1.4c0.8,0.9,1.2,2.3,1.2,4.2h-6.2
			c0,0.7,0.2,1.3,0.6,1.7c0.4,0.4,0.9,0.6,1.4,0.6c0.4,0,0.7-0.1,1-0.3S-237.2,285.9-237.1,285.5z M-237,283c0-0.7-0.2-1.3-0.6-1.6
			c-0.4-0.4-0.8-0.6-1.3-0.6c-0.5,0-1,0.2-1.3,0.6s-0.5,0.9-0.5,1.6H-237z"/>
		<path class="st3" d="M-228.4,285.8l2.5-0.4c0.1,0.5,0.3,0.8,0.6,1.1c0.3,0.3,0.8,0.4,1.4,0.4c0.6,0,1.1-0.1,1.4-0.4
			c0.2-0.2,0.3-0.4,0.3-0.7c0-0.2-0.1-0.3-0.2-0.5c-0.1-0.1-0.4-0.2-0.8-0.3c-2-0.4-3.3-0.8-3.8-1.2c-0.7-0.5-1.1-1.2-1.1-2.1
			c0-0.8,0.3-1.5,1-2s1.6-0.8,3-0.8c1.3,0,2.2,0.2,2.8,0.6s1,1,1.3,1.8l-2.3,0.4c-0.1-0.4-0.3-0.6-0.6-0.8s-0.7-0.3-1.2-0.3
			c-0.7,0-1.1,0.1-1.4,0.3c-0.2,0.1-0.3,0.3-0.3,0.5c0,0.2,0.1,0.3,0.2,0.4c0.2,0.2,1,0.4,2.3,0.7s2.2,0.7,2.8,1.1
			c0.5,0.4,0.8,1.1,0.8,1.8c0,0.9-0.4,1.6-1.1,2.2s-1.8,0.9-3.2,0.9c-1.3,0-2.3-0.3-3-0.8S-228.1,286.6-228.4,285.8z"/>
		<path class="st3" d="M-218.1,283.6c0-0.8,0.2-1.6,0.6-2.4c0.4-0.8,1-1.4,1.7-1.8s1.6-0.6,2.5-0.6c1.4,0,2.6,0.5,3.5,1.4
			c0.9,0.9,1.4,2.1,1.4,3.5c0,1.4-0.5,2.6-1.4,3.5s-2.1,1.4-3.4,1.4c-0.9,0-1.7-0.2-2.4-0.6s-1.4-1-1.8-1.7
			C-217.9,285.6-218.1,284.7-218.1,283.6z M-215.5,283.8c0,0.9,0.2,1.6,0.7,2.1s1,0.7,1.6,0.7s1.2-0.2,1.6-0.7s0.7-1.2,0.7-2.1
			c0-0.9-0.2-1.6-0.7-2.1c-0.4-0.5-1-0.7-1.6-0.7s-1.2,0.2-1.6,0.7C-215.3,282.1-215.5,282.8-215.5,283.8z"/>
		<path class="st3" d="M-207.6,279.1h1.4v-0.7c0-0.8,0.1-1.4,0.3-1.8s0.5-0.7,0.9-0.9c0.4-0.2,1-0.4,1.7-0.4c0.7,0,1.4,0.1,2.1,0.3
			l-0.3,1.7c-0.4-0.1-0.8-0.1-1.1-0.1c-0.4,0-0.6,0.1-0.8,0.3c-0.2,0.2-0.2,0.5-0.2,1v0.7h1.8v1.9h-1.8v7.4h-2.5V281h-1.4V279.1z"/>
		<path class="st3" d="M-196.2,279.1v2h-1.7v3.8c0,0.8,0,1.2,0,1.3s0.1,0.2,0.2,0.3s0.3,0.1,0.4,0.1c0.2,0,0.6-0.1,1-0.2l0.2,1.9
			c-0.6,0.2-1.2,0.4-2,0.4c-0.4,0-0.8-0.1-1.2-0.2c-0.4-0.1-0.6-0.3-0.8-0.6c-0.2-0.2-0.3-0.6-0.3-1c-0.1-0.3-0.1-0.9-0.1-1.7v-4.1
			h-1.1v-2h1.1v-1.9l2.5-1.4v3.3H-196.2z"/>
		<path class="st3" d="M-192.8,288.4l-3-9.3h2.4l1.7,6.1l1.6-6.1h2.4l1.6,6.1l1.8-6.1h2.4l-3,9.3h-2.4l-1.6-6l-1.6,6H-192.8z"/>
		<path class="st3" d="M-178.7,281.9l-2.2-0.4c0.3-0.9,0.7-1.6,1.3-2s1.5-0.7,2.7-0.7c1.1,0,1.9,0.1,2.5,0.4c0.5,0.3,0.9,0.6,1.1,1
			s0.3,1.1,0.3,2.2l0,2.9c0,0.8,0,1.4,0.1,1.8s0.2,0.8,0.4,1.3h-2.4c-0.1-0.2-0.1-0.4-0.2-0.7c0-0.1-0.1-0.2-0.1-0.3
			c-0.4,0.4-0.9,0.7-1.4,0.9s-1,0.3-1.5,0.3c-1,0-1.7-0.3-2.3-0.8s-0.8-1.2-0.8-2c0-0.5,0.1-1,0.4-1.4c0.3-0.4,0.6-0.7,1.1-0.9
			c0.5-0.2,1.1-0.4,2-0.6c1.2-0.2,2-0.4,2.4-0.6v-0.2c0-0.5-0.1-0.8-0.4-1c-0.2-0.2-0.7-0.3-1.3-0.3c-0.4,0-0.8,0.1-1,0.3
			C-178.3,281.2-178.5,281.5-178.7,281.9z M-175.4,283.9c-0.3,0.1-0.8,0.2-1.5,0.4s-1.1,0.3-1.3,0.4c-0.3,0.2-0.5,0.5-0.5,0.9
			c0,0.3,0.1,0.6,0.4,0.9s0.6,0.4,1,0.4c0.4,0,0.9-0.1,1.3-0.4c0.3-0.2,0.5-0.5,0.6-0.8c0.1-0.2,0.1-0.6,0.1-1.2V283.9z"/>
		<path class="st3" d="M-168.1,288.4h-2.5v-9.3h2.3v1.3c0.4-0.6,0.7-1,1.1-1.2s0.7-0.3,1.1-0.3c0.6,0,1.1,0.2,1.6,0.5l-0.8,2.2
			c-0.4-0.3-0.8-0.4-1.2-0.4c-0.3,0-0.6,0.1-0.9,0.3c-0.2,0.2-0.4,0.5-0.6,1s-0.2,1.5-0.2,3.1V288.4z"/>
		<path class="st3" d="M-158.1,285.5l2.5,0.4c-0.3,0.9-0.8,1.6-1.5,2.1s-1.5,0.7-2.6,0.7c-1.6,0-2.8-0.5-3.6-1.6
			c-0.6-0.8-0.9-1.9-0.9-3.2c0-1.5,0.4-2.8,1.2-3.6s1.8-1.3,3.1-1.3c1.4,0,2.5,0.5,3.3,1.4c0.8,0.9,1.2,2.3,1.2,4.2h-6.2
			c0,0.7,0.2,1.3,0.6,1.7c0.4,0.4,0.9,0.6,1.4,0.6c0.4,0,0.7-0.1,1-0.3S-158.2,285.9-158.1,285.5z M-157.9,283
			c0-0.7-0.2-1.3-0.6-1.6c-0.4-0.4-0.8-0.6-1.3-0.6c-0.5,0-1,0.2-1.3,0.6s-0.5,0.9-0.5,1.6H-157.9z"/>
	</g>
</g>
<g id="XMLID_4603_">
	<path id="XMLID_4826_" class="st4" d="M-311.5,256.1h-36.1c-0.7,0-1.3,0.6-1.3,1.3v20.8h38.8v-20.8
		C-310.2,256.7-310.8,256.1-311.5,256.1L-311.5,256.1z M-312.2,276.3H-347v-18.2h34.8V276.3z M-312.2,276.3"/>
	<path id="XMLID_4823_" class="st5" d="M-333.6,266.2c0.2,0,0.3,0.1,0.3,0.3h1v-1h-1.3c-0.2,0-0.3-0.1-0.3-0.3
		c0-0.2,0.1-0.3,0.3-0.3h1.3v-4.2h-6v5.9h4.3C-333.9,266.4-333.8,266.2-333.6,266.2L-333.6,266.2z M-333.6,266.2"/>
	<path id="XMLID_4806_" class="st5" d="M-347,276.3h34.8v-18.2H-347V276.3z M-332.3,274.7h-1.3c-0.2,0-0.3-0.1-0.3-0.3
		c0-0.2,0.1-0.3,0.3-0.3h1.3c0.2,0,0.3,0.1,0.3,0.3C-331.9,274.6-332.1,274.7-332.3,274.7L-332.3,274.7z M-333.6,271.4
		c0.2,0,0.3,0.1,0.3,0.3v1.3c0,0.2-0.1,0.3-0.3,0.3c-0.2,0-0.3-0.1-0.3-0.3v-1.3C-333.9,271.6-333.8,271.4-333.6,271.4L-333.6,271.4
		z M-333.9,270.5v-1.3c0-0.2,0.1-0.3,0.3-0.3c0.2,0,0.3,0.1,0.3,0.3v1.3c0,0.2-0.1,0.3-0.3,0.3
		C-333.8,270.8-333.9,270.7-333.9,270.5L-333.9,270.5z M-329.6,274.7h-1.3c-0.2,0-0.3-0.1-0.3-0.3c0-0.2,0.1-0.3,0.3-0.3h1.3
		c0.2,0,0.3,0.1,0.3,0.3C-329.2,274.6-329.4,274.7-329.6,274.7L-329.6,274.7z M-323.9,273.1c0,0.2-0.1,0.3-0.3,0.3
		c-0.2,0-0.3-0.1-0.3-0.3v-1.3c0-0.2,0.1-0.3,0.3-0.3c0.2,0,0.3,0.1,0.3,0.3V273.1z M-323.9,270.5c0,0.2-0.1,0.3-0.3,0.3
		c-0.2,0-0.3-0.1-0.3-0.3v-1.3c0-0.2,0.1-0.3,0.3-0.3c0.2,0,0.3,0.1,0.3,0.3V270.5z M-323.9,267.9c0,0.2-0.1,0.3-0.3,0.3
		c-0.2,0-0.3-0.1-0.3-0.3v-1.3c0-0.2,0.1-0.3,0.3-0.3c0.2,0,0.3,0.1,0.3,0.3V267.9z M-320.9,268.5v-8.5c0-0.4,0.3-0.7,0.7-0.7h6
		c0.4,0,0.7,0.3,0.7,0.7v14.3c0,0.4-0.3,0.7-0.7,0.7h-6c-0.4,0-0.7-0.3-0.7-0.7V268.5z M-325.6,264.9h1.3c0.2,0,0.3,0.1,0.3,0.3
		c0,0.2-0.1,0.3-0.3,0.3h-1.3c-0.2,0-0.3-0.1-0.3-0.3C-325.9,265.1-325.8,264.9-325.6,264.9L-325.6,264.9z M-325.6,274.1h1.3
		c0.2,0,0.3,0.1,0.3,0.3c0,0.2-0.1,0.3-0.3,0.3h-1.3c-0.2,0-0.3-0.1-0.3-0.3C-325.9,274.2-325.8,274.1-325.6,274.1L-325.6,274.1z
		 M-328.2,264.9h1.3c0.2,0,0.3,0.1,0.3,0.3c0,0.2-0.1,0.3-0.3,0.3h-1.3c-0.2,0-0.3-0.1-0.3-0.3
		C-328.6,265.1-328.4,264.9-328.2,264.9L-328.2,264.9z M-328.2,274.1h1.3c0.2,0,0.3,0.1,0.3,0.3c0,0.2-0.1,0.3-0.3,0.3h-1.3
		c-0.2,0-0.3-0.1-0.3-0.3C-328.6,274.2-328.4,274.1-328.2,274.1L-328.2,274.1z M-339.6,260.1c0-0.4,0.3-0.7,0.7-0.7h7.4
		c0.4,0,0.7,0.3,0.7,0.7v4.9h1.3c0.2,0,0.3,0.1,0.3,0.3c0,0.2-0.1,0.3-0.3,0.3h-1.3v1.6c0,0.1,0,0.1,0,0.2l1.8,1.5
		c0.1,0.1,0.1,0.4-0.1,0.4l-0.7,0.3l0.6,1.3c0.1,0.2,0,0.4-0.2,0.4c0,0-0.1,0-0.1,0c-0.1,0-0.3-0.1-0.3-0.2l-0.6-1.3l-0.7,0.3
		c-0.2,0.1-0.4-0.1-0.4-0.2l0-2.1c0,0,0,0,0,0h-1.7c0,0.2-0.1,0.3-0.3,0.3c-0.2,0-0.3-0.1-0.3-0.3h-5c-0.4,0-0.7-0.3-0.7-0.7V260.1z
		 M-345.6,260.1c0-0.4,0.3-0.7,0.7-0.7h2c0.4,0,0.7,0.3,0.7,0.7v14.3c0,0.4-0.3,0.7-0.7,0.7h-2c-0.4,0-0.7-0.3-0.7-0.7V260.1z
		 M-345.6,260.1"/>
	<path id="XMLID_4802_" class="st6" d="M-349,280.9c0,0.7,0.6,1.3,1.3,1.3h36.1c0.7,0,1.3-0.6,1.3-1.3v-2.6H-349V280.9z
		 M-329.6,279.3c0.6,0,1,0.4,1,1c0,0.5-0.5,1-1,1c-0.6,0-1-0.4-1-1C-330.6,279.7-330.1,279.3-329.6,279.3L-329.6,279.3z
		 M-329.6,279.3"/>
	<path id="XMLID_4799_" class="st7" d="M-335.5,286.7h11.9l-0.4-3.3h-11L-335.5,286.7z M-335.5,286.7"/>
	<path id="XMLID_4796_" class="st6" d="M-335.6,286.7c-0.4,0-0.7,0.3-0.7,0.7c0,0.4,0.3,0.7,0.7,0.7h12c0.4,0,0.7-0.3,0.7-0.7
		c0-0.4-0.3-0.7-0.7-0.7H-335.6z M-335.6,286.7"/>
	<path id="XMLID_4793_" class="st8" d="M-335.1,283.5h11l-0.2-1.3h-10.7L-335.1,283.5z M-335.1,283.5"/>
	<path id="XMLID_4790_" class="st8" d="M-328.6,280.2c0,0.5-0.5,1-1,1c-0.6,0-1-0.4-1-1c0-0.5,0.4-1,1-1
		C-329,279.3-328.6,279.7-328.6,280.2L-328.6,280.2z M-328.6,280.2"/>
	<path id="XMLID_4781_" class="st6" d="M-345,275h2c0.4,0,0.7-0.3,0.7-0.7v-14.3c0-0.4-0.3-0.7-0.7-0.7h-2c-0.4,0-0.7,0.3-0.7,0.7
		v14.3C-345.6,274.7-345.3,275-345,275L-345,275z M-344.3,260.7h0.7c0.4,0,0.7,0.3,0.7,0.7c0,0.4-0.3,0.7-0.7,0.7h-0.7
		c-0.4,0-0.7-0.3-0.7-0.7C-345,261-344.7,260.7-344.3,260.7L-344.3,260.7z M-344.3,262.7h0.7c0.4,0,0.7,0.3,0.7,0.7
		c0,0.4-0.3,0.7-0.7,0.7h-0.7c-0.4,0-0.7-0.3-0.7-0.7C-345,263-344.7,262.7-344.3,262.7L-344.3,262.7z M-344.3,264.6h0.7
		c0.4,0,0.7,0.3,0.7,0.7c0,0.4-0.3,0.7-0.7,0.7h-0.7c-0.4,0-0.7-0.3-0.7-0.7C-345,264.9-344.7,264.6-344.3,264.6L-344.3,264.6z
		 M-344.3,266.6h0.7c0.4,0,0.7,0.3,0.7,0.7c0,0.4-0.3,0.7-0.7,0.7h-0.7c-0.4,0-0.7-0.3-0.7-0.7C-345,266.9-344.7,266.6-344.3,266.6
		L-344.3,266.6z M-344.3,268.5h0.7c0.4,0,0.7,0.3,0.7,0.7c0,0.4-0.3,0.7-0.7,0.7h-0.7c-0.4,0-0.7-0.3-0.7-0.7
		C-345,268.8-344.7,268.5-344.3,268.5L-344.3,268.5z M-345,271.8c0-0.4,0.3-0.7,0.7-0.7h0.7c0.4,0,0.7,0.3,0.7,0.7v1.3
		c0,0.4-0.3,0.7-0.7,0.7h-0.7c-0.4,0-0.7-0.3-0.7-0.7V271.8z M-345,271.8"/>
	<path id="XMLID_4778_" class="st9" d="M-344.3,262h0.7c0.4,0,0.7-0.3,0.7-0.7c0-0.4-0.3-0.7-0.7-0.7h-0.7c-0.4,0-0.7,0.3-0.7,0.7
		C-345,261.7-344.7,262-344.3,262L-344.3,262z M-344.3,262"/>
	<path id="XMLID_4775_" class="st8" d="M-344.3,264h0.7c0.4,0,0.7-0.3,0.7-0.7c0-0.4-0.3-0.7-0.7-0.7h-0.7c-0.4,0-0.7,0.3-0.7,0.7
		C-345,263.7-344.7,264-344.3,264L-344.3,264z M-344.3,264"/>
	<path id="XMLID_4772_" class="st9" d="M-344.3,265.9h0.7c0.4,0,0.7-0.3,0.7-0.7c0-0.4-0.3-0.7-0.7-0.7h-0.7c-0.4,0-0.7,0.3-0.7,0.7
		C-345,265.6-344.7,265.9-344.3,265.9L-344.3,265.9z M-344.3,265.9"/>
	<path id="XMLID_4769_" class="st9" d="M-344.3,267.9h0.7c0.4,0,0.7-0.3,0.7-0.7c0-0.4-0.3-0.7-0.7-0.7h-0.7c-0.4,0-0.7,0.3-0.7,0.7
		C-345,267.6-344.7,267.9-344.3,267.9L-344.3,267.9z M-344.3,267.9"/>
	<path id="XMLID_4766_" class="st9" d="M-344.3,269.8h0.7c0.4,0,0.7-0.3,0.7-0.7c0-0.4-0.3-0.7-0.7-0.7h-0.7c-0.4,0-0.7,0.3-0.7,0.7
		C-345,269.5-344.7,269.8-344.3,269.8L-344.3,269.8z M-344.3,269.8"/>
	<path id="XMLID_4763_" class="st8" d="M-344.3,273.7h0.7c0.4,0,0.7-0.3,0.7-0.7v-1.3c0-0.4-0.3-0.7-0.7-0.7h-0.7
		c-0.4,0-0.7,0.3-0.7,0.7v1.3C-345,273.4-344.7,273.7-344.3,273.7L-344.3,273.7z M-344.3,273.7"/>
	<path id="XMLID_4757_" class="st6" d="M-313.5,260.1c0-0.4-0.3-0.7-0.7-0.7h-6c-0.4,0-0.7,0.3-0.7,0.7v3.9h7.4V260.1z
		 M-314.5,263.3h-5.4c-0.2,0-0.3-0.1-0.3-0.3c0-0.2,0.1-0.3,0.3-0.3h5.4c0.2,0,0.3,0.1,0.3,0.3
		C-314.2,263.2-314.3,263.3-314.5,263.3L-314.5,263.3z M-314.5,262h-5.4c-0.2,0-0.3-0.1-0.3-0.3c0-0.2,0.1-0.3,0.3-0.3h5.4
		c0.2,0,0.3,0.1,0.3,0.3C-314.2,261.9-314.3,262-314.5,262L-314.5,262z M-314.5,260.7h-5.4c-0.2,0-0.3-0.1-0.3-0.3
		c0-0.2,0.1-0.3,0.3-0.3h5.4c0.2,0,0.3,0.1,0.3,0.3C-314.2,260.6-314.3,260.7-314.5,260.7L-314.5,260.7z M-314.5,260.7"/>
	<path id="XMLID_4742_" class="st6" d="M-320.2,275h6c0.4,0,0.7-0.3,0.7-0.7v-5.9h-7.4v5.9C-320.9,274.7-320.6,275-320.2,275
		L-320.2,275z M-317.2,269.2h2.7c0.2,0,0.3,0.1,0.3,0.3c0,0.2-0.1,0.3-0.3,0.3h-2.7c-0.2,0-0.3-0.1-0.3-0.3
		C-317.5,269.3-317.4,269.2-317.2,269.2L-317.2,269.2z M-317.2,270.5h2.7c0.2,0,0.3,0.1,0.3,0.3c0,0.2-0.1,0.3-0.3,0.3h-2.7
		c-0.2,0-0.3-0.1-0.3-0.3C-317.5,270.6-317.4,270.5-317.2,270.5L-317.2,270.5z M-317.2,271.8h2.7c0.2,0,0.3,0.1,0.3,0.3
		c0,0.2-0.1,0.3-0.3,0.3h-2.7c-0.2,0-0.3-0.1-0.3-0.3C-317.5,271.9-317.4,271.8-317.2,271.8L-317.2,271.8z M-317.2,273.1h2.7
		c0.2,0,0.3,0.1,0.3,0.3c0,0.2-0.1,0.3-0.3,0.3h-2.7c-0.2,0-0.3-0.1-0.3-0.3C-317.5,273.2-317.4,273.1-317.2,273.1L-317.2,273.1z
		 M-318.5,269.2c0.2,0,0.3,0.1,0.3,0.3c0,0.2-0.1,0.3-0.3,0.3c-0.2,0-0.3-0.1-0.3-0.3C-318.9,269.3-318.7,269.2-318.5,269.2
		L-318.5,269.2z M-318.5,270.5c0.2,0,0.3,0.1,0.3,0.3c0,0.2-0.1,0.3-0.3,0.3c-0.2,0-0.3-0.1-0.3-0.3
		C-318.9,270.6-318.7,270.5-318.5,270.5L-318.5,270.5z M-318.5,271.8c0.2,0,0.3,0.1,0.3,0.3c0,0.2-0.1,0.3-0.3,0.3
		c-0.2,0-0.3-0.1-0.3-0.3C-318.9,271.9-318.7,271.8-318.5,271.8L-318.5,271.8z M-318.5,273.1c0.2,0,0.3,0.1,0.3,0.3
		c0,0.2-0.1,0.3-0.3,0.3c-0.2,0-0.3-0.1-0.3-0.3C-318.9,273.2-318.7,273.1-318.5,273.1L-318.5,273.1z M-319.9,269.2
		c0.2,0,0.3,0.1,0.3,0.3c0,0.2-0.1,0.3-0.3,0.3c-0.2,0-0.3-0.1-0.3-0.3C-320.2,269.3-320.1,269.2-319.9,269.2L-319.9,269.2z
		 M-319.9,270.5c0.2,0,0.3,0.1,0.3,0.3c0,0.2-0.1,0.3-0.3,0.3c-0.2,0-0.3-0.1-0.3-0.3C-320.2,270.6-320.1,270.5-319.9,270.5
		L-319.9,270.5z M-319.9,271.8c0.2,0,0.3,0.1,0.3,0.3c0,0.2-0.1,0.3-0.3,0.3c-0.2,0-0.3-0.1-0.3-0.3
		C-320.2,271.9-320.1,271.8-319.9,271.8L-319.9,271.8z M-319.9,273.1c0.2,0,0.3,0.1,0.3,0.3c0,0.2-0.1,0.3-0.3,0.3
		c-0.2,0-0.3-0.1-0.3-0.3C-320.2,273.2-320.1,273.1-319.9,273.1L-319.9,273.1z M-319.9,273.1"/>
	<path id="XMLID_4733_" class="st8" d="M-313.5,264h-7.4v4.6h7.4V264z M-319.2,267.9h-0.7c-0.2,0-0.3-0.1-0.3-0.3
		c0-0.2,0.1-0.3,0.3-0.3h0.7c0.2,0,0.3,0.1,0.3,0.3C-318.9,267.7-319,267.9-319.2,267.9L-319.2,267.9z M-319.2,266.6h-0.7
		c-0.2,0-0.3-0.1-0.3-0.3s0.1-0.3,0.3-0.3h0.7c0.2,0,0.3,0.1,0.3,0.3S-319,266.6-319.2,266.6L-319.2,266.6z M-319.2,265.3h-0.7
		c-0.2,0-0.3-0.1-0.3-0.3c0-0.2,0.1-0.3,0.3-0.3h0.7c0.2,0,0.3,0.1,0.3,0.3C-318.9,265.1-319,265.3-319.2,265.3L-319.2,265.3z
		 M-314.5,267.9h-3.3c-0.2,0-0.3-0.1-0.3-0.3c0-0.2,0.1-0.3,0.3-0.3h3.3c0.2,0,0.3,0.1,0.3,0.3
		C-314.2,267.7-314.3,267.9-314.5,267.9L-314.5,267.9z M-314.5,266.6h-3.3c-0.2,0-0.3-0.1-0.3-0.3s0.1-0.3,0.3-0.3h3.3
		c0.2,0,0.3,0.1,0.3,0.3S-314.3,266.6-314.5,266.6L-314.5,266.6z M-314.5,265.3h-3.3c-0.2,0-0.3-0.1-0.3-0.3c0-0.2,0.1-0.3,0.3-0.3
		h3.3c0.2,0,0.3,0.1,0.3,0.3C-314.2,265.1-314.3,265.3-314.5,265.3L-314.5,265.3z M-314.5,265.3"/>
	<path id="XMLID_4730_" class="st8" d="M-314.5,260.1h-4c0.2,0,0.3,0.1,0.3,0.3c0,0.2-0.1,0.3-0.3,0.3h4c0.2,0,0.3-0.1,0.3-0.3
		C-314.2,260.2-314.3,260.1-314.5,260.1L-314.5,260.1z M-314.5,260.1"/>
	<path id="XMLID_4727_" class="st8" d="M-319.5,260.4c0-0.2,0.1-0.3,0.3-0.3h-0.7c-0.2,0-0.3,0.1-0.3,0.3c0,0.2,0.1,0.3,0.3,0.3h0.7
		C-319.4,260.7-319.5,260.6-319.5,260.4L-319.5,260.4z M-319.5,260.4"/>
	<path id="XMLID_4724_" class="st8" d="M-314.5,262.7h-2.7c0.2,0,0.3,0.1,0.3,0.3c0,0.2-0.1,0.3-0.3,0.3h2.7c0.2,0,0.3-0.1,0.3-0.3
		C-314.2,262.8-314.3,262.7-314.5,262.7L-314.5,262.7z M-314.5,262.7"/>
	<path id="XMLID_4721_" class="st8" d="M-318.2,263c0-0.2,0.1-0.3,0.3-0.3h-2c-0.2,0-0.3,0.1-0.3,0.3c0,0.2,0.1,0.3,0.3,0.3h2
		C-318.1,263.3-318.2,263.2-318.2,263L-318.2,263z M-318.2,263"/>
	<path id="XMLID_4718_" class="st6" d="M-314.5,264.6h-3.3c-0.2,0-0.3,0.1-0.3,0.3c0,0.2,0.1,0.3,0.3,0.3h3.3c0.2,0,0.3-0.1,0.3-0.3
		C-314.2,264.8-314.3,264.6-314.5,264.6L-314.5,264.6z M-314.5,264.6"/>
	<path id="XMLID_4715_" class="st8" d="M-316.2,261.7c0-0.2,0.1-0.3,0.3-0.3h-4c-0.2,0-0.3,0.1-0.3,0.3c0,0.2,0.1,0.3,0.3,0.3h4
		C-316.1,262-316.2,261.9-316.2,261.7L-316.2,261.7z M-316.2,261.7"/>
	<path id="XMLID_4712_" class="st8" d="M-314.5,261.4h-0.7c0.2,0,0.3,0.1,0.3,0.3c0,0.2-0.1,0.3-0.3,0.3h0.7c0.2,0,0.3-0.1,0.3-0.3
		C-314.2,261.5-314.3,261.4-314.5,261.4L-314.5,261.4z M-314.5,261.4"/>
	<path id="XMLID_4709_" class="st9" d="M-318.2,260.4c0-0.2-0.1-0.3-0.3-0.3h-0.7c-0.2,0-0.3,0.1-0.3,0.3c0,0.2,0.1,0.3,0.3,0.3h0.7
		C-318.4,260.7-318.2,260.6-318.2,260.4L-318.2,260.4z M-318.2,260.4"/>
	<path id="XMLID_4706_" class="st9" d="M-316.9,263c0-0.2-0.1-0.3-0.3-0.3h-0.7c-0.2,0-0.3,0.1-0.3,0.3c0,0.2,0.1,0.3,0.3,0.3h0.7
		C-317,263.3-316.9,263.2-316.9,263L-316.9,263z M-316.9,263"/>
	<path id="XMLID_4703_" class="st9" d="M-319.2,264.6h-0.7c-0.2,0-0.3,0.1-0.3,0.3c0,0.2,0.1,0.3,0.3,0.3h0.7c0.2,0,0.3-0.1,0.3-0.3
		C-318.9,264.8-319,264.6-319.2,264.6L-319.2,264.6z M-319.2,264.6"/>
	<path id="XMLID_4700_" class="st6" d="M-314.5,265.9h-3.3c-0.2,0-0.3,0.1-0.3,0.3s0.1,0.3,0.3,0.3h3.3c0.2,0,0.3-0.1,0.3-0.3
		S-314.3,265.9-314.5,265.9L-314.5,265.9z M-314.5,265.9"/>
	<path id="XMLID_4697_" class="st9" d="M-319.2,265.9h-0.7c-0.2,0-0.3,0.1-0.3,0.3s0.1,0.3,0.3,0.3h0.7c0.2,0,0.3-0.1,0.3-0.3
		S-319,265.9-319.2,265.9L-319.2,265.9z M-319.2,265.9"/>
	<path id="XMLID_4694_" class="st6" d="M-314.5,267.2h-3.3c-0.2,0-0.3,0.1-0.3,0.3c0,0.2,0.1,0.3,0.3,0.3h3.3c0.2,0,0.3-0.1,0.3-0.3
		C-314.2,267.4-314.3,267.2-314.5,267.2L-314.5,267.2z M-314.5,267.2"/>
	<path id="XMLID_4691_" class="st9" d="M-319.2,267.2h-0.7c-0.2,0-0.3,0.1-0.3,0.3c0,0.2,0.1,0.3,0.3,0.3h0.7c0.2,0,0.3-0.1,0.3-0.3
		C-318.9,267.4-319,267.2-319.2,267.2L-319.2,267.2z M-319.2,267.2"/>
	<path id="XMLID_4688_" class="st9" d="M-319.9,271.1c0.2,0,0.3-0.1,0.3-0.3c0-0.2-0.1-0.3-0.3-0.3c-0.2,0-0.3,0.1-0.3,0.3
		C-320.2,271-320.1,271.1-319.9,271.1L-319.9,271.1z M-319.9,271.1"/>
	<path id="XMLID_4685_" class="st9" d="M-319.9,269.8c0.2,0,0.3-0.1,0.3-0.3c0-0.2-0.1-0.3-0.3-0.3c-0.2,0-0.3,0.1-0.3,0.3
		C-320.2,269.7-320.1,269.8-319.9,269.8L-319.9,269.8z M-319.9,269.8"/>
	<path id="XMLID_4682_" class="st9" d="M-319.9,273.7c0.2,0,0.3-0.1,0.3-0.3c0-0.2-0.1-0.3-0.3-0.3c-0.2,0-0.3,0.1-0.3,0.3
		C-320.2,273.6-320.1,273.7-319.9,273.7L-319.9,273.7z M-319.9,273.7"/>
	<path id="XMLID_4679_" class="st9" d="M-319.9,272.4c0.2,0,0.3-0.1,0.3-0.3c0-0.2-0.1-0.3-0.3-0.3c-0.2,0-0.3,0.1-0.3,0.3
		C-320.2,272.3-320.1,272.4-319.9,272.4L-319.9,272.4z M-319.9,272.4"/>
	<path id="XMLID_4676_" class="st8" d="M-318.5,271.1c0.2,0,0.3-0.1,0.3-0.3c0-0.2-0.1-0.3-0.3-0.3c-0.2,0-0.3,0.1-0.3,0.3
		C-318.9,271-318.7,271.1-318.5,271.1L-318.5,271.1z M-318.5,271.1"/>
	<path id="XMLID_4673_" class="st8" d="M-318.5,269.8c0.2,0,0.3-0.1,0.3-0.3c0-0.2-0.1-0.3-0.3-0.3c-0.2,0-0.3,0.1-0.3,0.3
		C-318.9,269.7-318.7,269.8-318.5,269.8L-318.5,269.8z M-318.5,269.8"/>
	<path id="XMLID_4670_" class="st8" d="M-318.5,273.7c0.2,0,0.3-0.1,0.3-0.3c0-0.2-0.1-0.3-0.3-0.3c-0.2,0-0.3,0.1-0.3,0.3
		C-318.9,273.6-318.7,273.7-318.5,273.7L-318.5,273.7z M-318.5,273.7"/>
	<path id="XMLID_4667_" class="st8" d="M-318.5,272.4c0.2,0,0.3-0.1,0.3-0.3c0-0.2-0.1-0.3-0.3-0.3c-0.2,0-0.3,0.1-0.3,0.3
		C-318.9,272.3-318.7,272.4-318.5,272.4L-318.5,272.4z M-318.5,272.4"/>
	<path id="XMLID_4664_" class="st8" d="M-317.2,271.1h2.7c0.2,0,0.3-0.1,0.3-0.3c0-0.2-0.1-0.3-0.3-0.3h-2.7c-0.2,0-0.3,0.1-0.3,0.3
		C-317.5,271-317.4,271.1-317.2,271.1L-317.2,271.1z M-317.2,271.1"/>
	<path id="XMLID_4661_" class="st8" d="M-317.2,269.8h2.7c0.2,0,0.3-0.1,0.3-0.3c0-0.2-0.1-0.3-0.3-0.3h-2.7c-0.2,0-0.3,0.1-0.3,0.3
		C-317.5,269.7-317.4,269.8-317.2,269.8L-317.2,269.8z M-317.2,269.8"/>
	<path id="XMLID_4658_" class="st8" d="M-317.2,273.7h2.7c0.2,0,0.3-0.1,0.3-0.3c0-0.2-0.1-0.3-0.3-0.3h-2.7c-0.2,0-0.3,0.1-0.3,0.3
		C-317.5,273.6-317.4,273.7-317.2,273.7L-317.2,273.7z M-317.2,273.7"/>
	<path id="XMLID_4655_" class="st8" d="M-317.2,272.4h2.7c0.2,0,0.3-0.1,0.3-0.3c0-0.2-0.1-0.3-0.3-0.3h-2.7c-0.2,0-0.3,0.1-0.3,0.3
		C-317.5,272.3-317.4,272.4-317.2,272.4L-317.2,272.4z M-317.2,272.4"/>
	<path id="XMLID_4652_" class="st9" d="M-314.9,261.7c0-0.2-0.1-0.3-0.3-0.3h-0.7c-0.2,0-0.3,0.1-0.3,0.3c0,0.2,0.1,0.3,0.3,0.3h0.7
		C-315,262-314.9,261.9-314.9,261.7L-314.9,261.7z M-314.9,261.7"/>
	<path id="XMLID_4649_" class="st10" d="M-338.9,267.9h5v-1.3h-4.3v-5.9h6v4.2c0.2,0,0.3,0.1,0.3,0.3c0,0.2-0.1,0.3-0.3,0.3v1h-1
		v1.3h1.7c0,0,0,0,0,0l0-0.4c0-0.2,0.3-0.3,0.4-0.2l0.2,0.1c0-0.1,0-0.1,0-0.2v-1.6c-0.2,0-0.3-0.1-0.3-0.3c0-0.2,0.1-0.3,0.3-0.3
		v-4.9c0-0.4-0.3-0.7-0.7-0.7h-7.4c-0.4,0-0.7,0.3-0.7,0.7v7.2C-339.6,267.6-339.3,267.9-338.9,267.9L-338.9,267.9z M-338.9,267.9"
		/>
	<path id="XMLID_4646_" class="st8" d="M-333.6,270.8c0.2,0,0.3-0.1,0.3-0.3v-1.3c0-0.2-0.1-0.3-0.3-0.3c-0.2,0-0.3,0.1-0.3,0.3v1.3
		C-333.9,270.7-333.8,270.8-333.6,270.8L-333.6,270.8z M-333.6,270.8"/>
	<path id="XMLID_4643_" class="st8" d="M-325.6,274.7h1.3c0.2,0,0.3-0.1,0.3-0.3c0-0.2-0.1-0.3-0.3-0.3h-1.3c-0.2,0-0.3,0.1-0.3,0.3
		C-325.9,274.6-325.8,274.7-325.6,274.7L-325.6,274.7z M-325.6,274.7"/>
	<path id="XMLID_4640_" class="st8" d="M-324.2,271.4c-0.2,0-0.3,0.1-0.3,0.3v1.3c0,0.2,0.1,0.3,0.3,0.3c0.2,0,0.3-0.1,0.3-0.3v-1.3
		C-323.9,271.6-324,271.4-324.2,271.4L-324.2,271.4z M-324.2,271.4"/>
	<path id="XMLID_4637_" class="st8" d="M-325.6,265.6h1.3c0.2,0,0.3-0.1,0.3-0.3c0-0.2-0.1-0.3-0.3-0.3h-1.3c-0.2,0-0.3,0.1-0.3,0.3
		C-325.9,265.4-325.8,265.6-325.6,265.6L-325.6,265.6z M-325.6,265.6"/>
	<path id="XMLID_4634_" class="st8" d="M-324.2,266.2c-0.2,0-0.3,0.1-0.3,0.3v1.3c0,0.2,0.1,0.3,0.3,0.3c0.2,0,0.3-0.1,0.3-0.3v-1.3
		C-323.9,266.4-324,266.2-324.2,266.2L-324.2,266.2z M-324.2,266.2"/>
	<path id="XMLID_4631_" class="st8" d="M-329.6,274.1h-1.3c-0.2,0-0.3,0.1-0.3,0.3c0,0.2,0.1,0.3,0.3,0.3h1.3c0.2,0,0.3-0.1,0.3-0.3
		C-329.2,274.2-329.4,274.1-329.6,274.1L-329.6,274.1z M-329.6,274.1"/>
	<path id="XMLID_4628_" class="st8" d="M-333.6,266.2c-0.2,0-0.3,0.1-0.3,0.3v1.3c0,0.2,0.1,0.3,0.3,0.3c0.2,0,0.3-0.1,0.3-0.3v-1.3
		C-333.3,266.4-333.4,266.2-333.6,266.2L-333.6,266.2z M-333.6,266.2"/>
	<path id="XMLID_4625_" class="st8" d="M-332.3,274.1h-1.3c-0.2,0-0.3,0.1-0.3,0.3c0,0.2,0.1,0.3,0.3,0.3h1.3c0.2,0,0.3-0.1,0.3-0.3
		C-331.9,274.2-332.1,274.1-332.3,274.1L-332.3,274.1z M-332.3,274.1"/>
	<path id="XMLID_4622_" class="st8" d="M-333.9,273.1c0,0.2,0.1,0.3,0.3,0.3c0.2,0,0.3-0.1,0.3-0.3v-1.3c0-0.2-0.1-0.3-0.3-0.3
		c-0.2,0-0.3,0.1-0.3,0.3V273.1z M-333.9,273.1"/>
	<path id="XMLID_4619_" class="st8" d="M-324.2,268.8c-0.2,0-0.3,0.1-0.3,0.3v1.3c0,0.2,0.1,0.3,0.3,0.3c0.2,0,0.3-0.1,0.3-0.3v-1.3
		C-323.9,269-324,268.8-324.2,268.8L-324.2,268.8z M-324.2,268.8"/>
	<path id="XMLID_4616_" class="st8" d="M-328.2,265.6h1.3c0.2,0,0.3-0.1,0.3-0.3c0-0.2-0.1-0.3-0.3-0.3h-1.3c-0.2,0-0.3,0.1-0.3,0.3
		C-328.6,265.4-328.4,265.6-328.2,265.6L-328.2,265.6z M-328.2,265.6"/>
	<path id="XMLID_4613_" class="st8" d="M-333.9,265.3c0,0.2,0.1,0.3,0.3,0.3h1.3c0.2,0,0.3-0.1,0.3-0.3c0-0.2-0.1-0.3-0.3-0.3h-1.3
		C-333.8,264.9-333.9,265.1-333.9,265.3L-333.9,265.3z M-333.9,265.3"/>
	<path id="XMLID_4610_" class="st8" d="M-328.2,274.7h1.3c0.2,0,0.3-0.1,0.3-0.3c0-0.2-0.1-0.3-0.3-0.3h-1.3c-0.2,0-0.3,0.1-0.3,0.3
		C-328.6,274.6-328.4,274.7-328.2,274.7L-328.2,274.7z M-328.2,274.7"/>
	<path id="XMLID_4607_" class="st8" d="M-331.3,265.3c0,0.2,0.1,0.3,0.3,0.3h1.3c0.2,0,0.3-0.1,0.3-0.3c0-0.2-0.1-0.3-0.3-0.3h-1.3
		C-331.1,264.9-331.3,265.1-331.3,265.3L-331.3,265.3z M-331.3,265.3"/>
	<path id="XMLID_4604_" class="st4" d="M-331.6,267.5l0,0.4l0,2.1c0,0.2,0.2,0.3,0.4,0.2l0.7-0.3l0.6,1.3c0.1,0.1,0.2,0.2,0.3,0.2
		c0,0,0.1,0,0.1,0c0.2-0.1,0.2-0.3,0.2-0.4l-0.6-1.3l0.7-0.3c0.2-0.1,0.2-0.3,0.1-0.4l-1.8-1.5l-0.2-0.1
		C-331.3,267.1-331.6,267.3-331.6,267.5L-331.6,267.5z M-331.6,267.5"/>
</g>
</svg>
