<?xml version="1.0" encoding="utf-8"?>
<!-- Generator: Adobe Illustrator 19.2.1, SVG Export Plug-In . SVG Version: 6.00 Build 0)  -->
<svg version="1.1" id="Capa_1" xmlns="http://www.w3.org/2000/svg" xmlns:xlink="http://www.w3.org/1999/xlink" x="0px" y="0px"
	 viewBox="0 0 220 50.6" style="enable-background:new 0 0 220 50.6;" xml:space="preserve">
<style type="text/css">
	.st0{fill:#3B86B1;}
	.st1{fill:#FFFFFF;}
</style>
<g id="XMLID_2474_">
	<g id="XMLID_2481_">
		<g>
			<polygon id="XMLID_11_" class="st0" points="198.2,0 220,25.3 198.2,50.6 178.3,50.6 200.1,25.3 178.3,0 198.2,0 			"/>
		</g>
	</g>
	<g id="XMLID_2486_">
		<g>
			<polygon id="XMLID_10_" class="st0" points="21.8,50.6 0,25.3 21.8,0 41.7,0 19.9,25.3 41.7,50.6 21.8,50.6 			"/>
		</g>
	</g>
	<polygon id="XMLID_2488_" class="st0" points="47.7,0 172.3,0 194.1,25.3 172.3,50.6 47.7,50.6 25.9,25.3 	"/>
	<g>
		<g>
			<path class="st1" d="M48.9,32.2v-15h3v15H48.9z"/>
			<path class="st1" d="M64.8,32.2h-2.9v-5.6c0-1.2-0.1-1.9-0.2-2.3c-0.1-0.3-0.3-0.6-0.6-0.8c-0.3-0.2-0.6-0.3-1-0.3
				c-0.5,0-0.9,0.1-1.3,0.4c-0.4,0.3-0.7,0.6-0.8,1.1c-0.1,0.5-0.2,1.3-0.2,2.5v4.9h-2.9V21.3h2.7v1.6c1-1.2,2.1-1.8,3.6-1.8
				c0.6,0,1.2,0.1,1.7,0.3s0.9,0.5,1.2,0.9c0.3,0.4,0.5,0.8,0.6,1.2c0.1,0.5,0.2,1.1,0.2,1.9V32.2z"/>
			<path class="st1" d="M72.7,21.3v2.3h-2V28c0,0.9,0,1.4,0.1,1.6c0,0.1,0.1,0.3,0.3,0.4s0.3,0.1,0.5,0.1c0.3,0,0.7-0.1,1.2-0.3
				l0.2,2.2c-0.7,0.3-1.4,0.4-2.3,0.4c-0.5,0-1-0.1-1.4-0.3c-0.4-0.2-0.7-0.4-0.9-0.7c-0.2-0.3-0.3-0.7-0.4-1.1
				c-0.1-0.3-0.1-1-0.1-2v-4.8h-1.3v-2.3h1.3v-2.2l2.9-1.7v3.8H72.7z"/>
			<path class="st1" d="M77.5,32.2h-2.9V21.3h2.7v1.5c0.5-0.7,0.9-1.2,1.2-1.4c0.4-0.2,0.8-0.3,1.2-0.3c0.7,0,1.3,0.2,1.9,0.5
				l-0.9,2.5c-0.5-0.3-0.9-0.5-1.4-0.5c-0.4,0-0.7,0.1-1,0.3c-0.3,0.2-0.5,0.6-0.7,1.2c-0.2,0.6-0.2,1.8-0.2,3.7V32.2z"/>
			<path class="st1" d="M82.2,26.6c0-1,0.2-1.9,0.7-2.8c0.5-0.9,1.1-1.6,2-2.1c0.9-0.5,1.8-0.7,2.9-0.7c1.6,0,3,0.5,4.1,1.6
				s1.6,2.4,1.6,4.1c0,1.6-0.5,3-1.6,4.1c-1.1,1.1-2.4,1.6-4,1.6c-1,0-2-0.2-2.9-0.7c-0.9-0.5-1.6-1.1-2.1-2
				C82.4,28.9,82.2,27.8,82.2,26.6z M85.2,26.7c0,1.1,0.3,1.9,0.8,2.5c0.5,0.6,1.1,0.9,1.9,0.9s1.4-0.3,1.9-0.9
				c0.5-0.6,0.8-1.4,0.8-2.5c0-1.1-0.3-1.9-0.8-2.5s-1.1-0.9-1.9-0.9s-1.4,0.3-1.9,0.9C85.4,24.8,85.2,25.6,85.2,26.7z"/>
			<path class="st1" d="M105.7,32.2H103v-1.6c-0.4,0.6-1,1.1-1.6,1.4c-0.6,0.3-1.2,0.5-1.8,0.5c-1.3,0-2.3-0.5-3.2-1.5
				c-0.9-1-1.3-2.4-1.3-4.2c0-1.8,0.4-3.3,1.3-4.2c0.9-1,2-1.4,3.3-1.4c1.2,0,2.3,0.5,3.2,1.5v-5.4h2.9V32.2z M98,26.5
				c0,1.2,0.2,2,0.5,2.5c0.5,0.8,1.1,1.1,2,1.1c0.7,0,1.2-0.3,1.7-0.8c0.5-0.6,0.7-1.4,0.7-2.5c0-1.3-0.2-2.2-0.7-2.7
				c-0.5-0.6-1-0.8-1.7-0.8c-0.7,0-1.3,0.3-1.7,0.8C98.2,24.6,98,25.4,98,26.5z"/>
			<path class="st1" d="M115.7,32.2v-1.6c-0.4,0.6-0.9,1-1.6,1.4s-1.3,0.5-2,0.5c-0.7,0-1.4-0.2-2-0.5c-0.6-0.3-1-0.8-1.3-1.4
				c-0.3-0.6-0.4-1.4-0.4-2.4v-6.9h2.9v5c0,1.5,0.1,2.5,0.2,2.8c0.1,0.3,0.3,0.6,0.6,0.8c0.3,0.2,0.6,0.3,1.1,0.3
				c0.5,0,0.9-0.1,1.3-0.4c0.4-0.3,0.7-0.6,0.8-1s0.2-1.4,0.2-2.9v-4.6h2.9v10.9H115.7z"/>
			<path class="st1" d="M130.9,24.5l-2.8,0.5c-0.1-0.6-0.3-1-0.7-1.3c-0.3-0.3-0.8-0.4-1.3-0.4c-0.7,0-1.3,0.2-1.7,0.7
				s-0.6,1.3-0.6,2.5c0,1.3,0.2,2.2,0.7,2.7s1,0.8,1.8,0.8c0.5,0,1-0.2,1.3-0.5c0.3-0.3,0.6-0.8,0.7-1.6l2.8,0.5
				c-0.3,1.3-0.9,2.3-1.7,2.9c-0.8,0.7-2,1-3.4,1c-1.6,0-2.9-0.5-3.8-1.5c-0.9-1-1.4-2.4-1.4-4.2c0-1.8,0.5-3.2,1.4-4.2
				s2.2-1.5,3.9-1.5c1.3,0,2.4,0.3,3.2,0.9S130.6,23.3,130.9,24.5z"/>
			<path class="st1" d="M142.6,24.5l-2.8,0.5c-0.1-0.6-0.3-1-0.7-1.3c-0.3-0.3-0.8-0.4-1.3-0.4c-0.7,0-1.3,0.2-1.7,0.7
				s-0.6,1.3-0.6,2.5c0,1.3,0.2,2.2,0.7,2.7s1,0.8,1.8,0.8c0.5,0,1-0.2,1.3-0.5c0.3-0.3,0.6-0.8,0.7-1.6l2.8,0.5
				c-0.3,1.3-0.9,2.3-1.7,2.9c-0.8,0.7-2,1-3.4,1c-1.6,0-2.9-0.5-3.8-1.5c-0.9-1-1.4-2.4-1.4-4.2c0-1.8,0.5-3.2,1.4-4.2
				s2.2-1.5,3.9-1.5c1.3,0,2.4,0.3,3.2,0.9S142.3,23.3,142.6,24.5z"/>
			<path class="st1" d="M144.8,19.8v-2.7h2.9v2.7H144.8z M144.8,32.2V21.3h2.9v10.9H144.8z"/>
			<path class="st1" d="M150,26.6c0-1,0.2-1.9,0.7-2.8c0.5-0.9,1.1-1.6,2-2.1c0.9-0.5,1.8-0.7,2.9-0.7c1.6,0,3,0.5,4.1,1.6
				s1.6,2.4,1.6,4.1c0,1.6-0.5,3-1.6,4.1c-1.1,1.1-2.4,1.6-4,1.6c-1,0-2-0.2-2.9-0.7c-0.9-0.5-1.6-1.1-2.1-2
				C150.2,28.9,150,27.8,150,26.6z M152.9,26.7c0,1.1,0.3,1.9,0.8,2.5c0.5,0.6,1.1,0.9,1.9,0.9s1.4-0.3,1.9-0.9
				c0.5-0.6,0.8-1.4,0.8-2.5c0-1.1-0.3-1.9-0.8-2.5s-1.1-0.9-1.9-0.9s-1.4,0.3-1.9,0.9C153.2,24.8,152.9,25.6,152.9,26.7z
				 M154.1,19.9l1.4-3.1h3.2l-2.8,3.1H154.1z"/>
			<path class="st1" d="M173.4,32.2h-2.9v-5.6c0-1.2-0.1-1.9-0.2-2.3c-0.1-0.3-0.3-0.6-0.6-0.8c-0.3-0.2-0.6-0.3-1-0.3
				c-0.5,0-0.9,0.1-1.3,0.4c-0.4,0.3-0.7,0.6-0.8,1.1c-0.1,0.5-0.2,1.3-0.2,2.5v4.9h-2.9V21.3h2.7v1.6c1-1.2,2.1-1.8,3.6-1.8
				c0.6,0,1.2,0.1,1.7,0.3s0.9,0.5,1.2,0.9c0.3,0.4,0.5,0.8,0.6,1.2c0.1,0.5,0.2,1.1,0.2,1.9V32.2z"/>
		</g>
	</g>
</g>
</svg>
