<?xml version="1.0" encoding="utf-8"?>
<!-- Generator: Adobe Illustrator 16.0.0, SVG Export Plug-In . SVG Version: 6.00 Build 0)  -->
<!DOCTYPE svg PUBLIC "-//W3C//DTD SVG 1.1//EN" "http://www.w3.org/Graphics/SVG/1.1/DTD/svg11.dtd">
<svg version="1.1" id="Capa_1" xmlns="http://www.w3.org/2000/svg" xmlns:xlink="http://www.w3.org/1999/xlink" x="0px" y="0px"
	 width="26.4595px" height="26.459px" viewBox="0 0 26.4595 26.459" enable-background="new 0 0 26.4595 26.459"
	 xml:space="preserve">
<g>
	<g>
		<path fill="#FFFFFF" d="M13.1997,25.4707c-6.7432,0-12.2295-5.4854-12.2295-12.2285c0-6.7441,5.4863-12.2305,12.2295-12.2305
			c6.7441,0,12.2305,5.4863,12.2305,12.2305C25.4302,19.9854,19.9438,25.4707,13.1997,25.4707z"/>
		<path fill="#42210B" d="M13.1997,2.0117c6.1924,0,11.2305,5.0381,11.2305,11.2305c0,6.1914-5.0381,11.2285-11.2305,11.2285
			c-6.1919,0-11.2295-5.0371-11.2295-11.2285C1.9702,7.0498,7.0078,2.0117,13.1997,2.0117 M13.1997,0.0117
			c-7.3057,0-13.2295,5.9238-13.2295,13.2305S5.894,26.4707,13.1997,26.4707c7.3066,0,13.2305-5.9219,13.2305-13.2285
			S20.5063,0.0117,13.1997,0.0117L13.1997,0.0117z"/>
	</g>
	<g>
		<g>
			<path fill="#603813" d="M15.3579,14.3672l2.1025,0.666c-0.3223,1.1719-0.8584,2.042-1.6074,2.6113
				c-0.75,0.5684-1.7012,0.8535-2.8525,0.8535c-1.4268,0-2.5986-0.4873-3.5156-1.4619c-0.9189-0.9736-1.377-2.3057-1.377-3.9951
				c0-1.7871,0.4609-3.1748,1.3838-4.1641c0.9229-0.9883,2.1357-1.4824,3.6396-1.4824c1.3135,0,2.3809,0.3877,3.2012,1.1641
				c0.4883,0.459,0.8545,1.1182,1.0986,1.9775l-2.1455,0.5127c-0.1279-0.5566-0.3926-0.9961-0.7949-1.3184
				c-0.4033-0.3223-0.8926-0.4834-1.4688-0.4834c-0.7959,0-1.4414,0.2861-1.9375,0.8564c-0.4951,0.5723-0.7432,1.4971-0.7432,2.7764
				c0,1.3574,0.2441,2.3242,0.7324,2.9004s1.123,0.8643,1.9043,0.8643c0.5762,0,1.0713-0.1836,1.4873-0.5488
				C14.8794,15.7285,15.1772,15.1533,15.3579,14.3672z"/>
		</g>
	</g>
</g>
<g>
</g>
<g>
</g>
<g>
</g>
<g>
</g>
<g>
</g>
<g>
</g>
<g>
</g>
<g>
</g>
<g>
</g>
<g>
</g>
<g>
</g>
<g>
</g>
<g>
</g>
<g>
</g>
<g>
</g>
</svg>
