<?xml version="1.0" encoding="utf-8"?>
<!-- Generator: Adobe Illustrator 19.0.0, SVG Export Plug-In . SVG Version: 6.00 Build 0)  -->
<svg version="1.1" id="Capa_1" xmlns="http://www.w3.org/2000/svg" xmlns:xlink="http://www.w3.org/1999/xlink" x="0px" y="0px"
	 viewBox="0 0 548 439.4" style="enable-background:new 0 0 548 439.4;" xml:space="preserve">
<style type="text/css">
	.st0{filter:url(#Adobe_OpacityMaskFilter);}
	.st1{fill:url(#XMLID_198_);}
	.st2{opacity:0.5;mask:url(#XMLID_197_);}
	.st3{fill:#FD8A58;}
	.st4{filter:url(#Adobe_OpacityMaskFilter_1_);}
	.st5{fill:url(#XMLID_200_);}
	.st6{opacity:0.5;mask:url(#XMLID_199_);}
	.st7{fill:#06728E;}
	.st8{enable-background:new    ;}
	.st9{clip-path:url(#XMLID_201_);enable-background:new    ;}
	.st10{fill:#7D7D7D;}
	.st11{clip-path:url(#XMLID_202_);enable-background:new    ;}
	.st12{fill:#B8B8B8;}
	.st13{fill:#B3B3B3;}
	.st14{fill:#ADADAD;}
	.st15{fill:#A8A8A8;}
	.st16{fill:#A3A3A3;}
	.st17{fill:#9E9E9E;}
	.st18{fill:#999999;}
	.st19{fill:#949494;}
	.st20{fill:#8F8F8F;}
	.st21{fill:#C9C9C9;}
	.st22{clip-path:url(#XMLID_203_);enable-background:new    ;}
	.st23{clip-path:url(#XMLID_204_);enable-background:new    ;}
	.st24{fill:#FFFFFF;}
	.st25{fill:#FAFAFA;}
	.st26{fill:#F5F5F5;}
	.st27{fill:#F0F0F0;}
	.st28{fill:#EBEBEB;}
	.st29{fill:#E6E6E6;}
	.st30{fill:#E0E0E0;}
	.st31{fill:#DBDBDB;}
	.st32{fill:#D6D6D6;}
	.st33{fill:#D1D1D1;}
	.st34{fill:#CCCCCC;}
	.st35{fill:#C7C7C7;}
	.st36{fill:#C2C2C2;}
	.st37{fill:#BDBDBD;}
	.st38{clip-path:url(#XMLID_205_);enable-background:new    ;}
	.st39{fill:#858585;}
	.st40{clip-path:url(#XMLID_206_);enable-background:new    ;}
	.st41{fill:#B4B4B4;}
	.st42{fill:#FCFCFC;}
	.st43{fill:#828282;}
	.st44{fill:#C1C1C1;}
	.st45{clip-path:url(#XMLID_207_);enable-background:new    ;}
	.st46{fill:#8A8A8A;}
	.st47{clip-path:url(#XMLID_208_);enable-background:new    ;}
	.st48{fill:#DFDFDF;}
	.st49{fill:#505050;}
	.st50{fill:#00C8E6;}
	.st51{clip-path:url(#XMLID_209_);enable-background:new    ;}
	.st52{fill:#7C7C7C;}
	.st53{clip-path:url(#XMLID_210_);enable-background:new    ;}
	.st54{fill:#787878;}
	.st55{fill:#7B7B7B;}
	.st56{fill:#9D9D9D;}
	.st57{fill:#EAEAEA;}
	.st58{fill:#AAAAAA;}
	.st59{fill:#C8C8C8;}
	.st60{fill:#FAD7B9;}
	.st61{fill:#F5C8AA;}
	.st62{fill:#FAE1C8;}
	.st63{fill:#8B5E3C;}
	.st64{fill:#D54A00;}
	.st65{fill:#C83200;}
	.st66{fill:#323232;}
	.st67{fill:#27AAE1;}
	.st68{fill:#464655;}
	.st69{fill:#BEC8DC;}
	.st70{fill:#E4EAF6;}
	.st71{fill:#96A5B9;}
	.st72{fill:#FF6469;}
	.st73{fill:#FFDC3C;}
	.st74{fill:#969696;}
</style>
<g id="XMLID_6267_">
	<g id="XMLID_9324_">
		<defs>
			<filter id="Adobe_OpacityMaskFilter" filterUnits="userSpaceOnUse" x="0" y="263.1" width="314.7" height="162">
				<feColorMatrix  type="matrix" values="1 0 0 0 0  0 1 0 0 0  0 0 1 0 0  0 0 0 1 0"/>
			</filter>
		</defs>
		<mask maskUnits="userSpaceOnUse" x="0" y="263.1" width="314.7" height="162" id="XMLID_197_">
			<g id="XMLID_661_" class="st0">
				
					<radialGradient id="XMLID_198_" cx="1082.9385" cy="329.9459" r="106.8224" gradientTransform="matrix(-1 0 0 1 1216.694 0)" gradientUnits="userSpaceOnUse">
					<stop  offset="0" style="stop-color:#FFFFFF"/>
					<stop  offset="0.1909" style="stop-color:#D3D3D3"/>
					<stop  offset="0.6189" style="stop-color:#666666"/>
					<stop  offset="1" style="stop-color:#000000"/>
				</radialGradient>
				<rect id="XMLID_662_" x="-51.9" y="281.1" class="st1" width="389.5" height="164.5"/>
			</g>
		</mask>
		<g id="XMLID_9356_" class="st2">
			<g id="XMLID_9370_">
				<path id="XMLID_9382_" class="st3" d="M165.5,415.3L8,393.2c0-0.2,0.1-0.3,0.1-0.5l158,22.2C165.9,415,165.7,415.2,165.5,415.3z
					"/>
				<path id="XMLID_9381_" class="st3" d="M181.6,405.6L9.1,381.3c0-0.2,0-0.4,0-0.5l173.3,24.4
					C182.1,405.3,181.8,405.4,181.6,405.6z"/>
				<path id="XMLID_9380_" class="st3" d="M212.7,397.9L9.5,369.3c0-0.2,0-0.4,0-0.5l203.7,28.6C213,397.6,212.9,397.7,212.7,397.9z
					"/>
				<path id="XMLID_9379_" class="st3" d="M6.2,356.8L0,356l0.1-0.5l6.2,0.9C6.2,356.5,6.2,356.7,6.2,356.8z"/>
				<path id="XMLID_9378_" class="st3" d="M224.2,387.5L10,357.4c0-0.2,0-0.4,0-0.5L224.7,387C224.5,387.2,224.3,387.3,224.2,387.5z
					"/>
				<path id="XMLID_9377_" class="st3" d="M236.9,377.2L11.2,345.5c0-0.2,0.1-0.3,0.1-0.5l226.2,31.8
					C237.3,376.9,237.1,377.1,236.9,377.2z"/>
				<path id="XMLID_9376_" class="st3" d="M251.8,367.3L21.1,334.9l0.1-0.5l231.4,32.5C252.3,367,252.1,367.1,251.8,367.3z"/>
				
					<rect id="XMLID_9375_" x="150.5" y="220.6" transform="matrix(-0.1367 0.9906 -0.9906 -0.1367 508.9515 238.009)" class="st3" width="0.5" height="240.5"/>
				
					<rect id="XMLID_9374_" x="161" y="210" transform="matrix(-0.1382 0.9904 -0.9904 -0.1382 510.6769 216.126)" class="st3" width="0.5" height="240.5"/>
				
					<rect id="XMLID_9373_" x="171.6" y="199.4" transform="matrix(-0.1385 0.9904 -0.9904 -0.1385 512.2705 193.7536)" class="st3" width="0.5" height="240.5"/>
				
					<rect id="XMLID_9372_" x="182.2" y="188.9" transform="matrix(-0.1387 0.9903 -0.9903 -0.1387 513.856 171.3427)" class="st3" width="0.5" height="240.5"/>
				
					<rect id="XMLID_9371_" x="192.7" y="178.3" transform="matrix(-0.1382 0.9904 -0.9904 -0.1382 515.3568 148.7415)" class="st3" width="0.5" height="240.5"/>
			</g>
			<g id="XMLID_9357_">
				<path id="XMLID_9369_" class="st3" d="M6.3,355c0,0.2,0,0.4,0,0.6l-6.1,3.2c-0.1-0.2-0.1-0.3-0.2-0.5L6.3,355z"/>
				<path id="XMLID_9368_" class="st3" d="M10.3,352.9l168.8-89.8l0.2,0.5L10.3,353.5C10.3,353.3,10.3,353.1,10.3,352.9z"/>
				<path id="XMLID_9367_" class="st3" d="M9.6,366.8l183.1-97.4l0.2,0.5L9.6,367.4C9.6,367.2,9.6,367,9.6,366.8z"/>
				<path id="XMLID_9366_" class="st3" d="M9.1,380.5l197.1-104.8l0.2,0.5L9.1,381.1C9.1,380.9,9.1,380.7,9.1,380.5z"/>
				<path id="XMLID_9365_" class="st3" d="M7.8,394.7L219.8,282l0.2,0.5L7.7,395.4C7.7,395.2,7.8,394.9,7.8,394.7z"/>
				
					<rect id="XMLID_9364_" x="7" y="344.8" transform="matrix(-0.8829 0.4695 -0.4695 -0.8829 401.5594 589.9426)" class="st3" width="240.5" height="0.5"/>
				
					<rect id="XMLID_9363_" x="20.5" y="351.1" transform="matrix(-0.883 0.4695 -0.4695 -0.883 429.9847 595.4723)" class="st3" width="240.5" height="0.5"/>
				
					<rect id="XMLID_9362_" x="34" y="357.4" transform="matrix(-0.883 0.4695 -0.4695 -0.883 458.4101 600.9983)" class="st3" width="240.5" height="0.5"/>
				<path id="XMLID_9361_" class="st3" d="M68.8,416.3l205.1-109l0.2,0.5l-205,109C69,416.6,68.9,416.5,68.8,416.3z"/>
				<path id="XMLID_9360_" class="st3" d="M99.5,413.4l187.8-99.9l0.2,0.5L99.9,413.9C99.8,413.7,99.7,413.6,99.5,413.4z"/>
				<path id="XMLID_9359_" class="st3" d="M110.1,421.4l190.8-101.5l0.2,0.5L110.4,421.8C110.3,421.6,110.2,421.5,110.1,421.4z"/>
				<path id="XMLID_9358_" class="st3" d="M129.2,424.7l185.2-98.5l0.2,0.5l-185.1,98.4C129.4,425,129.3,424.8,129.2,424.7z"/>
			</g>
		</g>
		<defs>
			<filter id="Adobe_OpacityMaskFilter_1_" filterUnits="userSpaceOnUse" x="233.3" y="277.4" width="314.7" height="162">
				<feColorMatrix  type="matrix" values="1 0 0 0 0  0 1 0 0 0  0 0 1 0 0  0 0 0 1 0"/>
			</filter>
		</defs>
		<mask maskUnits="userSpaceOnUse" x="233.3" y="277.4" width="314.7" height="162" id="XMLID_199_">
			<g id="XMLID_628_" class="st4">
				
					<radialGradient id="XMLID_200_" cx="849.5898" cy="344.2645" r="106.8226" gradientTransform="matrix(-1 0 0 1 1216.694 0)" gradientUnits="userSpaceOnUse">
					<stop  offset="0" style="stop-color:#FFFFFF"/>
					<stop  offset="0.1909" style="stop-color:#D3D3D3"/>
					<stop  offset="0.6189" style="stop-color:#666666"/>
					<stop  offset="1" style="stop-color:#000000"/>
				</radialGradient>
				<rect id="XMLID_631_" x="181.5" y="295.4" class="st5" width="389.5" height="164.5"/>
			</g>
		</mask>
		<g id="XMLID_9327_" class="st6">
			<g id="XMLID_9341_">
				<path id="XMLID_9353_" class="st3" d="M398.8,429.6l-157.4-22.1c0-0.2,0.1-0.3,0.1-0.5l158,22.2
					C399.2,429.4,399,429.5,398.8,429.6z"/>
				<path id="XMLID_9352_" class="st3" d="M414.9,419.9l-172.5-24.2c0-0.2,0-0.4,0-0.5l173.3,24.4
					C415.5,419.6,415.2,419.7,414.9,419.9z"/>
				<path id="XMLID_9351_" class="st3" d="M446,412.2l-203.1-28.5c0-0.2,0-0.4,0-0.5l203.7,28.6C446.4,411.9,446.2,412.1,446,412.2z
					"/>
				<path id="XMLID_9350_" class="st3" d="M239.5,371.2l-6.2-0.9l0.1-0.5l6.2,0.9C239.6,370.8,239.6,371,239.5,371.2z"/>
				<path id="XMLID_9349_" class="st3" d="M457.5,401.8l-214.2-30.1c0-0.2,0-0.4,0-0.5L458,401.3
					C457.9,401.5,457.7,401.6,457.5,401.8z"/>
				<path id="XMLID_9348_" class="st3" d="M470.2,391.5l-225.7-31.7c0-0.2,0.1-0.3,0.1-0.5l226.2,31.8
					C470.7,391.2,470.4,391.4,470.2,391.5z"/>
				<path id="XMLID_9347_" class="st3" d="M485.2,381.6l-230.7-32.4l0.1-0.5l231.4,32.5C485.7,381.3,485.4,381.5,485.2,381.6z"/>
				
					<rect id="XMLID_9346_" x="383.8" y="234.9" transform="matrix(-0.1382 0.9904 -0.9904 -0.1382 788.9081 23.779)" class="st3" width="0.5" height="240.5"/>
				
					<rect id="XMLID_9345_" x="394.4" y="224.3" transform="matrix(-0.1387 0.9903 -0.9903 -0.1387 790.6219 1.4943)" class="st3" width="0.5" height="240.5"/>
				
					<rect id="XMLID_9344_" x="404.9" y="213.8" transform="matrix(-0.1387 0.9903 -0.9903 -0.1387 792.2037 -20.9529)" class="st3" width="0.5" height="240.5"/>
				
					<rect id="XMLID_9343_" x="415.5" y="203.2" transform="matrix(-0.1384 0.9904 -0.9904 -0.1384 793.6572 -43.5351)" class="st3" width="0.5" height="240.5"/>
				
					<rect id="XMLID_9342_" x="426.1" y="192.7" transform="matrix(-0.1385 0.9904 -0.9904 -0.1385 795.2369 -65.9811)" class="st3" width="0.5" height="240.5"/>
			</g>
			<g id="XMLID_9328_">
				<path id="XMLID_9340_" class="st3" d="M239.7,369.4c0,0.2,0,0.4,0,0.6l-6.1,3.2c-0.1-0.2-0.1-0.3-0.2-0.5L239.7,369.4z"/>
				<path id="XMLID_9339_" class="st3" d="M243.7,367.2l168.8-89.8l0.2,0.5l-169.2,89.9C243.6,367.6,243.7,367.4,243.7,367.2z"/>
				<path id="XMLID_9338_" class="st3" d="M242.9,381.1L426,283.8l0.2,0.5l-183.4,97.5C242.9,381.5,242.9,381.3,242.9,381.1z"/>
				<path id="XMLID_9337_" class="st3" d="M242.5,394.9l197.1-104.8l0.2,0.5L242.4,395.5C242.5,395.3,242.5,395.1,242.5,394.9z"/>
				<path id="XMLID_9336_" class="st3" d="M241.2,409.1l211.9-112.7l0.2,0.5L241.1,409.7C241.1,409.5,241.1,409.3,241.2,409.1z"/>
				
					<rect id="XMLID_9335_" x="240.3" y="359.1" transform="matrix(-0.8829 0.4695 -0.4695 -0.8829 847.6663 507.3547)" class="st3" width="240.5" height="0.5"/>
				
					<rect id="XMLID_9334_" x="253.9" y="365.4" transform="matrix(-0.8829 0.4695 -0.4695 -0.8829 876.0938 512.8838)" class="st3" width="240.5" height="0.5"/>
				
					<rect id="XMLID_9333_" x="267.4" y="371.7" transform="matrix(-0.883 0.4695 -0.4695 -0.883 904.5178 518.4109)" class="st3" width="240.5" height="0.5"/>
				<path id="XMLID_9332_" class="st3" d="M302.1,430.6l205.1-109l0.2,0.5l-205,109C302.3,430.9,302.2,430.8,302.1,430.6z"/>
				<path id="XMLID_9331_" class="st3" d="M332.9,427.8l187.8-99.9l0.2,0.5l-187.8,99.8C333.1,428,333,427.9,332.9,427.8z"/>
				<path id="XMLID_9330_" class="st3" d="M343.4,435.7l190.8-101.5l0.2,0.5L343.7,436.1C343.6,436,343.5,435.8,343.4,435.7z"/>
				<path id="XMLID_9329_" class="st3" d="M362.6,439l185.2-98.5l0.2,0.5l-185.1,98.4C362.8,439.3,362.7,439.1,362.6,439z"/>
			</g>
		</g>
	</g>
	<path id="XMLID_9323_" class="st7" d="M175,249.9c-9.8-1.4-21.9-0.3-26.9,2.5l-95.6,52c-5,2.7-1.1,6.1,8.7,7.5l282.2,39.7
		c9.8,1.4,21.9,0.3,26.9-2.5l95.6-52c5-2.7,1.1-6.1-8.7-7.5L175,249.9z"/>
	<g id="XMLID_9319_" class="st8">
		<defs>
			<path id="XMLID_9320_" class="st8" d="M465,288.2c0.1,0,0.1-0.1,0.2-0.1c0.3-0.2,0.6-0.4,1-0.7c0.3-0.2,0.6-0.4,1-0.7
				c-0.2,0.2-0.5,0.3-0.8,0.5l-2,1.4C464.5,288.5,464.8,288.3,465,288.2z"/>
		</defs>
		<clipPath id="XMLID_201_">
			<use xlink:href="#XMLID_9320_"  style="overflow:visible;"/>
		</clipPath>
		<g id="XMLID_9321_" class="st9">
			<path id="XMLID_9322_" class="st10" d="M466.3,287.2l-2,1.4c0.3-0.1,0.5-0.3,0.7-0.4l2.1-1.5C466.9,286.8,466.6,287,466.3,287.2
				L466.3,287.2z"/>
		</g>
	</g>
	<g id="XMLID_9010_">
		<g id="XMLID_9181_">
			<g id="XMLID_9190_">
				<g id="XMLID_9191_" class="st8">
					<g id="XMLID_9307_" class="st8">
						<defs>
							<path id="XMLID_9308_" class="st8" d="M163,211.4l-1.2-0.7c0,8.1,6.1,15.5,13.6,16.5l-0.8-1.7
								C168.2,224.6,163,218.3,163,211.4z"/>
						</defs>
						<clipPath id="XMLID_202_">
							<use xlink:href="#XMLID_9308_"  style="overflow:visible;"/>
						</clipPath>
						<g id="XMLID_9309_" class="st11">
							<path id="XMLID_9318_" class="st12" d="M163,211.4l-1.2-0.7c0,0.4,0,0.8,0.1,1.3l1.2,0.5C163,212.1,163,211.7,163,211.4
								L163,211.4z"/>
							<path id="XMLID_9317_" class="st13" d="M163,212.4l-1.2-0.5c0,0.5,0.1,0.9,0.2,1.4l1.1,0.3
								C163.1,213.2,163.1,212.8,163,212.4L163,212.4z"/>
							<path id="XMLID_9316_" class="st14" d="M163.2,213.6l-1.1-0.3c0.1,0.5,0.2,1,0.3,1.5l1.1,0.1
								C163.3,214.5,163.2,214.1,163.2,213.6L163.2,213.6z"/>
							<path id="XMLID_9315_" class="st15" d="M163.4,214.9l-1.1-0.1c0.1,0.5,0.3,1.1,0.5,1.6l1-0.1
								C163.7,215.8,163.6,215.4,163.4,214.9L163.4,214.9z"/>
							<path id="XMLID_9314_" class="st16" d="M163.9,216.3l-1,0.1c0.2,0.6,0.5,1.2,0.8,1.8l0.9-0.4
								C164.3,217.3,164,216.8,163.9,216.3L163.9,216.3z"/>
							<path id="XMLID_9313_" class="st17" d="M164.5,217.7l-0.9,0.4c0.3,0.7,0.7,1.3,1.1,1.9l0.8-0.7
								C165.1,218.9,164.8,218.3,164.5,217.7L164.5,217.7z"/>
							<path id="XMLID_9312_" class="st18" d="M165.4,219.4l-0.8,0.7c0.5,0.8,1.1,1.5,1.7,2.2l0.5-1
								C166.4,220.7,165.9,220.1,165.4,219.4L165.4,219.4z"/>
							<path id="XMLID_9311_" class="st19" d="M166.9,221.3l-0.5,1c0.9,1,2,1.9,3.1,2.6l0.1-1.4
								C168.6,222.9,167.7,222.1,166.9,221.3L166.9,221.3z"/>
							<path id="XMLID_9310_" class="st20" d="M169.5,223.5l-0.1,1.4c1.8,1.2,3.8,2,5.9,2.3l-0.8-1.7
								C172.8,225.2,171.1,224.6,169.5,223.5L169.5,223.5z"/>
						</g>
					</g>
					<g id="XMLID_9305_">
						<polygon id="XMLID_9306_" class="st21" points="162.6,15.4 161.4,14.7 161.8,210.6 163,211.4 						"/>
					</g>
					<g id="XMLID_9299_" class="st8">
						<defs>
							<path id="XMLID_9300_" class="st8" d="M171.2,1.4c-1.2,0.6-2.3,1.3-3.5,1.9c2.1-1.1,4.6-1.6,7.2-1.2l3.5-1.9
								C175.8-0.2,173.3,0.2,171.2,1.4z"/>
						</defs>
						<clipPath id="XMLID_203_">
							<use xlink:href="#XMLID_9300_"  style="overflow:visible;"/>
						</clipPath>
						<g id="XMLID_9301_" class="st22">
							<path id="XMLID_9304_" class="st15" d="M175,2l3.5-1.9c-1.6-0.2-3.2-0.1-4.7,0.2l-3.5,1.9C171.7,1.9,173.3,1.8,175,2L175,2z"
								/>
							<path id="XMLID_9303_" class="st16" d="M170.3,2.2l3.5-1.9c-0.8,0.2-1.5,0.5-2.1,0.8L168.1,3C168.8,2.7,169.5,2.4,170.3,2.2
								L170.3,2.2z"/>
							<path id="XMLID_9302_" class="st17" d="M168.1,3l3.5-1.9c-0.1,0.1-0.3,0.1-0.4,0.2l-3.5,1.9C167.9,3.2,168,3.1,168.1,3
								L168.1,3z"/>
						</g>
					</g>
					<g id="XMLID_9273_" class="st8">
						<defs>
							<path id="XMLID_9274_" class="st8" d="M174.2,4.6L175,2c-7.5-1-13.5,4.7-13.5,12.7l1.2,0.7C162.6,8.6,167.8,3.7,174.2,4.6z"
								/>
						</defs>
						<clipPath id="XMLID_204_">
							<use xlink:href="#XMLID_9274_"  style="overflow:visible;"/>
						</clipPath>
						<g id="XMLID_9275_" class="st23">
							<path id="XMLID_9298_" class="st24" d="M174.2,4.6L175,2c0,0,0,0,0,0L174.2,4.6C174.1,4.6,174.2,4.6,174.2,4.6L174.2,4.6z"/>
							<path id="XMLID_9297_" class="st24" d="M174.1,4.6l0.8-2.6c-0.2,0-0.4,0-0.5-0.1l-0.7,2.6C173.8,4.5,174,4.5,174.1,4.6
								L174.1,4.6z"/>
							<path id="XMLID_9296_" class="st24" d="M173.7,4.5l0.7-2.6c-0.2,0-0.4,0-0.5,0l-0.6,2.6C173.4,4.5,173.5,4.5,173.7,4.5
								L173.7,4.5z"/>
							<path id="XMLID_9295_" class="st24" d="M173.2,4.5l0.6-2.6c-0.2,0-0.4,0-0.6,0l-0.5,2.6C172.9,4.5,173.1,4.5,173.2,4.5
								L173.2,4.5z"/>
							<path id="XMLID_9294_" class="st24" d="M172.7,4.5l0.5-2.6c-0.2,0-0.4,0-0.6,0l-0.5,2.6C172.4,4.5,172.6,4.5,172.7,4.5
								L172.7,4.5z"/>
							<path id="XMLID_9293_" class="st24" d="M172.2,4.5l0.5-2.6c-0.2,0-0.5,0-0.7,0.1l-0.4,2.6C171.8,4.5,172,4.5,172.2,4.5
								L172.2,4.5z"/>
							<path id="XMLID_9292_" class="st24" d="M171.6,4.5l0.4-2.6c-0.3,0-0.5,0.1-0.8,0.1l-0.2,2.6C171.2,4.6,171.4,4.5,171.6,4.5
								L171.6,4.5z"/>
							<path id="XMLID_9291_" class="st24" d="M170.9,4.6l0.2-2.6c-0.3,0.1-0.6,0.1-0.9,0.2l-0.1,2.5C170.4,4.7,170.7,4.7,170.9,4.6
								L170.9,4.6z"/>
							<path id="XMLID_9290_" class="st24" d="M170.1,4.8l0.1-2.5c-0.4,0.1-0.7,0.2-1,0.3l0.1,2.5C169.5,5,169.8,4.9,170.1,4.8
								L170.1,4.8z"/>
							<path id="XMLID_9289_" class="st25" d="M169.3,5.1l-0.1-2.5c-0.4,0.1-0.8,0.3-1.1,0.5l0.2,2.4C168.6,5.3,168.9,5.2,169.3,5.1
								L169.3,5.1z"/>
							<path id="XMLID_9288_" class="st26" d="M168.3,5.5l-0.2-2.4c-0.4,0.2-0.8,0.4-1.1,0.6l0.4,2.3C167.6,5.8,167.9,5.6,168.3,5.5
								L168.3,5.5z"/>
							<path id="XMLID_9287_" class="st27" d="M167.3,6l-0.4-2.3c-0.4,0.2-0.7,0.5-1,0.8l0.5,2.2C166.7,6.4,167,6.2,167.3,6L167.3,6
								z"/>
							<path id="XMLID_9286_" class="st28" d="M166.5,6.7l-0.5-2.2c-0.3,0.3-0.6,0.5-0.9,0.8l0.6,2.1C165.9,7.1,166.2,6.9,166.5,6.7
								L166.5,6.7z"/>
							<path id="XMLID_9285_" class="st29" d="M165.7,7.4L165,5.3c-0.3,0.3-0.5,0.6-0.8,0.9l0.8,2C165.2,7.9,165.5,7.6,165.7,7.4
								L165.7,7.4z"/>
							<path id="XMLID_9284_" class="st30" d="M165,8.1l-0.8-2c-0.2,0.3-0.5,0.6-0.7,0.9l0.9,1.8C164.6,8.6,164.8,8.4,165,8.1
								L165,8.1z"/>
							<path id="XMLID_9283_" class="st31" d="M164.5,8.9l-0.9-1.8c-0.2,0.3-0.4,0.6-0.6,1l1,1.7C164.1,9.4,164.3,9.2,164.5,8.9
								L164.5,8.9z"/>
							<path id="XMLID_9282_" class="st32" d="M164,9.7L163,8c-0.2,0.3-0.3,0.7-0.5,1l1,1.5C163.7,10.3,163.8,10,164,9.7L164,9.7z"
								/>
							<path id="XMLID_9281_" class="st33" d="M163.6,10.6l-1-1.5c-0.1,0.3-0.3,0.7-0.4,1l1.1,1.4C163.3,11.1,163.4,10.9,163.6,10.6
								L163.6,10.6z"/>
							<path id="XMLID_9280_" class="st34" d="M163.2,11.4l-1.1-1.4c-0.1,0.3-0.2,0.7-0.3,1.1l1.1,1.2
								C163.1,12,163.1,11.7,163.2,11.4L163.2,11.4z"/>
							<path id="XMLID_9279_" class="st35" d="M163,12.4l-1.1-1.2c-0.1,0.4-0.2,0.7-0.2,1.1l1.1,1.1C162.8,13,162.9,12.7,163,12.4
								L163,12.4z"/>
							<path id="XMLID_9278_" class="st36" d="M162.8,13.3l-1.1-1.1c-0.1,0.4-0.1,0.8-0.1,1.2l1.2,0.9
								C162.7,14,162.7,13.6,162.8,13.3L162.8,13.3z"/>
							<path id="XMLID_9277_" class="st37" d="M162.7,14.3l-1.2-0.9c0,0.4-0.1,0.8-0.1,1.3l1.2,0.7C162.6,15,162.6,14.7,162.7,14.3
								L162.7,14.3z"/>
							<path id="XMLID_9276_" class="st12" d="M162.6,15.4l-1.2-0.7c0,0,0,0,0,0.1L162.6,15.4C162.6,15.4,162.6,15.4,162.6,15.4
								L162.6,15.4z"/>
						</g>
					</g>
					<g id="XMLID_9271_">
						<polygon id="XMLID_9272_" class="st18" points="174.6,225.5 175.4,227.2 456.5,266.7 455.7,265 						"/>
					</g>
					<g id="XMLID_9267_" class="st8">
						<defs>
							<path id="XMLID_9268_" class="st8" d="M463.8,265.5c0.6-0.3,1.2-0.6,1.7-0.9c0.6-0.3,1.2-0.6,1.7-0.9
								c3.8-2.1,6.3-6.3,6.3-11.5l-3.5,1.9C470.1,259.2,467.6,263.4,463.8,265.5z"/>
						</defs>
						<clipPath id="XMLID_205_">
							<use xlink:href="#XMLID_9268_"  style="overflow:visible;"/>
						</clipPath>
						<g id="XMLID_9269_" class="st38">
							<path id="XMLID_9270_" class="st39" d="M463.8,265.5l3.5-1.9c3.8-2.1,6.3-6.3,6.3-11.5l-3.5,1.9
								C470.1,259.2,467.6,263.4,463.8,265.5L463.8,265.5z"/>
						</g>
					</g>
					<g id="XMLID_9255_" class="st8">
						<defs>
							<path id="XMLID_9256_" class="st8" d="M455.7,265l0.8,1.7c7.5,1.1,13.5-4.7,13.5-12.7l-2.8,0.2
								C467.3,261,462.1,265.9,455.7,265z"/>
						</defs>
						<clipPath id="XMLID_206_">
							<use xlink:href="#XMLID_9256_"  style="overflow:visible;"/>
						</clipPath>
						<g id="XMLID_9257_" class="st40">
							<path id="XMLID_9266_" class="st20" d="M455.7,265l0.8,1.7c2.4,0.3,4.6,0,6.6-0.9l-1.8-1.6C459.7,265,457.8,265.3,455.7,265
								L455.7,265z"/>
							<path id="XMLID_9265_" class="st19" d="M461.4,264.2l1.8,1.6c1.1-0.5,2.1-1.2,2.9-2l-2.2-1.3
								C463.1,263.2,462.3,263.8,461.4,264.2L461.4,264.2z"/>
							<path id="XMLID_9264_" class="st18" d="M463.9,262.5l2.2,1.3c0.6-0.5,1.1-1.2,1.6-1.8l-2.4-1
								C464.8,261.5,464.4,262.1,463.9,262.5L463.9,262.5z"/>
							<path id="XMLID_9263_" class="st17" d="M465.2,261l2.4,1c0.4-0.5,0.7-1.1,1-1.7l-2.6-0.8C465.8,260,465.6,260.5,465.2,261
								L465.2,261z"/>
							<path id="XMLID_9262_" class="st16" d="M466.1,259.5l2.6,0.8c0.3-0.5,0.5-1,0.7-1.6l-2.7-0.5
								C466.5,258.6,466.3,259.1,466.1,259.5L466.1,259.5z"/>
							<path id="XMLID_9261_" class="st15" d="M466.7,258.1l2.7,0.5c0.2-0.5,0.3-1,0.4-1.5l-2.7-0.3
								C466.9,257.3,466.8,257.7,466.7,258.1L466.7,258.1z"/>
							<path id="XMLID_9260_" class="st14" d="M467,256.9l2.7,0.3c0.1-0.5,0.2-0.9,0.2-1.4l-2.8-0.1
								C467.2,256.1,467.1,256.5,467,256.9L467,256.9z"/>
							<path id="XMLID_9259_" class="st13" d="M467.2,255.7l2.8,0.1c0-0.4,0.1-0.9,0.1-1.3l-2.8,0.1
								C467.3,254.9,467.2,255.3,467.2,255.7L467.2,255.7z"/>
							<path id="XMLID_9258_" class="st12" d="M467.3,254.5l2.8-0.1c0-0.2,0-0.3,0-0.5l-2.8,0.2
								C467.3,254.3,467.3,254.4,467.3,254.5L467.3,254.5z"/>
						</g>
					</g>
					<g id="XMLID_9253_">
						<polygon id="XMLID_9254_" class="st41" points="456.1,41.5 459.6,39.6 178.4,0.1 175,2 						"/>
					</g>
					<g id="XMLID_9251_">
						<polygon id="XMLID_9252_" class="st42" points="455.3,44.1 456.1,41.5 175,2 174.2,4.6 						"/>
					</g>
					<g id="XMLID_9249_">
						<polygon id="XMLID_9250_" class="st43" points="470.1,254 473.5,252.1 473.2,56.2 469.7,58.1 						"/>
					</g>
					<g id="XMLID_9247_">
						<polygon id="XMLID_9248_" class="st44" points="467.3,254.1 470.1,254 469.7,58.1 466.9,58.2 						"/>
					</g>
					<g id="XMLID_9236_" class="st8">
						<defs>
							<path id="XMLID_9237_" class="st8" d="M469.7,58.1l3.5-1.9c0-8.1-6.1-15.5-13.6-16.5l-3.5,1.9
								C463.6,42.6,469.7,50,469.7,58.1z"/>
						</defs>
						<clipPath id="XMLID_207_">
							<use xlink:href="#XMLID_9237_"  style="overflow:visible;"/>
						</clipPath>
						<g id="XMLID_9238_" class="st45">
							<path id="XMLID_9246_" class="st39" d="M469.7,58.1l3.5-1.9c0-2-0.4-3.9-1-5.7l-3.5,1.9C469.3,54.1,469.7,56.1,469.7,58.1
								L469.7,58.1z"/>
							<path id="XMLID_9245_" class="st46" d="M468.6,52.3l3.5-1.9c-0.3-0.8-0.6-1.5-1-2.3l-3.5,1.9C468,50.8,468.4,51.5,468.6,52.3
								L468.6,52.3z"/>
							<path id="XMLID_9244_" class="st20" d="M467.6,50l3.5-1.9c-0.3-0.6-0.7-1.2-1.1-1.8l-3.5,1.9C466.9,48.8,467.3,49.4,467.6,50
								L467.6,50z"/>
							<path id="XMLID_9243_" class="st19" d="M466.5,48.2l3.5-1.9c-0.4-0.5-0.8-1.1-1.2-1.6l-3.5,1.9
								C465.7,47.2,466.1,47.7,466.5,48.2L466.5,48.2z"/>
							<path id="XMLID_9242_" class="st18" d="M465.3,46.7l3.5-1.9c-0.4-0.5-0.9-1-1.4-1.4l-3.5,1.9
								C464.4,45.7,464.9,46.2,465.3,46.7L465.3,46.7z"/>
							<path id="XMLID_9241_" class="st17" d="M463.9,45.3l3.5-1.9c-0.5-0.5-1.1-0.9-1.6-1.3l-3.5,1.9
								C462.8,44.4,463.4,44.8,463.9,45.3L463.9,45.3z"/>
							<path id="XMLID_9240_" class="st16" d="M462.3,44l3.5-1.9c-0.7-0.5-1.4-0.9-2.2-1.3l-3.5,1.9C460.8,43.1,461.6,43.5,462.3,44
								L462.3,44z"/>
							<path id="XMLID_9239_" class="st15" d="M460.1,42.7l3.5-1.9c-1.3-0.6-2.6-1-3.9-1.2l-3.5,1.9
								C457.5,41.7,458.8,42.1,460.1,42.7L460.1,42.7z"/>
						</g>
					</g>
					<g id="XMLID_9194_" class="st8">
						<defs>
							<path id="XMLID_9195_" class="st8" d="M466.9,58.2l2.8-0.2c0-8.1-6.1-15.5-13.6-16.5l-0.8,2.6
								C461.7,45,466.9,51.3,466.9,58.2z"/>
						</defs>
						<clipPath id="XMLID_208_">
							<use xlink:href="#XMLID_9195_"  style="overflow:visible;"/>
						</clipPath>
						<g id="XMLID_9196_" class="st47">
							<path id="XMLID_9235_" class="st12" d="M466.9,58.2l2.8-0.2c0-0.3,0-0.5,0-0.8l-2.8,0.3C466.9,57.8,466.9,58,466.9,58.2
								L466.9,58.2z"/>
							<path id="XMLID_9234_" class="st37" d="M466.9,57.5l2.8-0.3c0-0.4-0.1-0.8-0.1-1.2l-2.8,0.4
								C466.9,56.9,466.9,57.2,466.9,57.5L466.9,57.5z"/>
							<path id="XMLID_9233_" class="st36" d="M466.8,56.6l2.8-0.4c0-0.3-0.1-0.7-0.2-1l-2.7,0.6C466.7,56,466.8,56.3,466.8,56.6
								L466.8,56.6z"/>
							<path id="XMLID_9232_" class="st35" d="M466.7,55.7l2.7-0.6c-0.1-0.3-0.1-0.6-0.2-0.9l-2.7,0.7
								C466.6,55.1,466.6,55.4,466.7,55.7L466.7,55.7z"/>
							<path id="XMLID_9231_" class="st34" d="M466.5,54.9l2.7-0.7c-0.1-0.3-0.1-0.6-0.2-0.8l-2.7,0.8
								C466.4,54.4,466.5,54.6,466.5,54.9L466.5,54.9z"/>
							<path id="XMLID_9230_" class="st33" d="M466.3,54.2l2.7-0.8c-0.1-0.2-0.1-0.5-0.2-0.7l-2.6,1C466.2,53.7,466.3,54,466.3,54.2
								L466.3,54.2z"/>
							<path id="XMLID_9229_" class="st32" d="M466.1,53.5l2.6-1c-0.1-0.2-0.2-0.4-0.2-0.7l-2.6,1C466,53.2,466.1,53.4,466.1,53.5
								L466.1,53.5z"/>
							<path id="XMLID_9228_" class="st31" d="M465.9,53l2.6-1c-0.1-0.2-0.2-0.4-0.2-0.6l-2.6,1.1C465.8,52.7,465.9,52.8,465.9,53
								L465.9,53z"/>
							<path id="XMLID_9227_" class="st30" d="M465.7,52.5l2.6-1.1c-0.1-0.2-0.2-0.3-0.2-0.5l-2.5,1.2
								C465.6,52.2,465.6,52.3,465.7,52.5L465.7,52.5z"/>
							<path id="XMLID_9226_" class="st29" d="M465.5,52.1l2.5-1.2c-0.1-0.2-0.2-0.3-0.2-0.5l-2.5,1.3
								C465.4,51.8,465.4,51.9,465.5,52.1L465.5,52.1z"/>
							<path id="XMLID_9225_" class="st28" d="M465.3,51.6l2.5-1.3c-0.1-0.2-0.2-0.3-0.2-0.4l-2.5,1.3
								C465.2,51.4,465.2,51.5,465.3,51.6L465.3,51.6z"/>
							<path id="XMLID_9224_" class="st27" d="M465.1,51.3l2.5-1.3c-0.1-0.1-0.1-0.3-0.2-0.4l-2.4,1.4C465,51,465,51.2,465.1,51.3
								L465.1,51.3z"/>
							<path id="XMLID_9223_" class="st26" d="M464.9,50.9l2.4-1.4c-0.1-0.1-0.2-0.3-0.2-0.4l-2.4,1.5
								C464.8,50.7,464.9,50.8,464.9,50.9L464.9,50.9z"/>
							<path id="XMLID_9222_" class="st25" d="M464.7,50.6l2.4-1.5c-0.1-0.1-0.1-0.2-0.2-0.3l-2.4,1.5
								C464.6,50.4,464.7,50.5,464.7,50.6L464.7,50.6z"/>
							<path id="XMLID_9221_" class="st24" d="M464.5,50.3l2.4-1.5c-0.1-0.1-0.1-0.2-0.2-0.3l-2.3,1.6
								C464.4,50.1,464.5,50.2,464.5,50.3L464.5,50.3z"/>
							<path id="XMLID_9220_" class="st24" d="M464.3,50l2.3-1.6c-0.1-0.1-0.1-0.2-0.2-0.3l-2.3,1.6C464.2,49.8,464.3,49.9,464.3,50
								L464.3,50z"/>
							<path id="XMLID_9219_" class="st24" d="M464.1,49.7l2.3-1.6c-0.1-0.1-0.2-0.2-0.2-0.3l-2.3,1.6
								C464,49.6,464.1,49.6,464.1,49.7L464.1,49.7z"/>
							<path id="XMLID_9218_" class="st24" d="M464,49.5l2.3-1.6c-0.1-0.1-0.1-0.2-0.2-0.3l-2.2,1.7C463.8,49.3,463.9,49.4,464,49.5
								L464,49.5z"/>
							<path id="XMLID_9217_" class="st24" d="M463.8,49.2l2.2-1.7c-0.1-0.1-0.2-0.2-0.2-0.3l-2.2,1.7
								C463.6,49.1,463.7,49.1,463.8,49.2L463.8,49.2z"/>
							<path id="XMLID_9216_" class="st24" d="M463.6,49l2.2-1.7c-0.1-0.1-0.2-0.2-0.2-0.3l-2.2,1.8C463.4,48.8,463.5,48.9,463.6,49
								L463.6,49z"/>
							<path id="XMLID_9215_" class="st24" d="M463.4,48.7l2.2-1.8c-0.1-0.1-0.2-0.2-0.3-0.3l-2.1,1.8
								C463.2,48.6,463.3,48.6,463.4,48.7L463.4,48.7z"/>
							<path id="XMLID_9214_" class="st24" d="M463.2,48.5l2.1-1.8c-0.1-0.1-0.2-0.2-0.2-0.3l-2.1,1.9
								C463,48.3,463.1,48.4,463.2,48.5L463.2,48.5z"/>
							<path id="XMLID_9213_" class="st24" d="M462.9,48.3l2.1-1.9c-0.1-0.1-0.2-0.2-0.3-0.3l-2.1,1.9
								C462.8,48.1,462.9,48.2,462.9,48.3L462.9,48.3z"/>
							<path id="XMLID_9212_" class="st24" d="M462.7,48l2.1-1.9c-0.1-0.1-0.2-0.2-0.3-0.3l-2,1.9C462.6,47.9,462.6,47.9,462.7,48
								L462.7,48z"/>
							<path id="XMLID_9211_" class="st24" d="M462.5,47.8l2-1.9c-0.1-0.1-0.2-0.2-0.3-0.3l-2,2C462.3,47.6,462.4,47.7,462.5,47.8
								L462.5,47.8z"/>
							<path id="XMLID_9210_" class="st24" d="M462.2,47.5l2-2c-0.1-0.1-0.2-0.2-0.3-0.3l-1.9,2C462,47.4,462.1,47.4,462.2,47.5
								L462.2,47.5z"/>
							<path id="XMLID_9209_" class="st24" d="M462,47.3l1.9-2c-0.1-0.1-0.2-0.2-0.4-0.3l-1.9,2.1C461.7,47.1,461.9,47.2,462,47.3
								L462,47.3z"/>
							<path id="XMLID_9208_" class="st24" d="M461.6,47l1.9-2.1c-0.1-0.1-0.3-0.2-0.4-0.3l-1.8,2.1C461.4,46.8,461.5,46.9,461.6,47
								L461.6,47z"/>
							<path id="XMLID_9207_" class="st24" d="M461.3,46.7l1.8-2.1c-0.2-0.1-0.4-0.3-0.6-0.4l-1.7,2.2
								C461,46.5,461.1,46.6,461.3,46.7L461.3,46.7z"/>
							<path id="XMLID_9206_" class="st24" d="M460.8,46.4l1.7-2.2c-0.4-0.3-0.8-0.5-1.2-0.8l-1.6,2.3
								C460.2,45.9,460.5,46.1,460.8,46.4L460.8,46.4z"/>
							<path id="XMLID_9205_" class="st24" d="M459.8,45.7l1.6-2.3c0,0,0,0,0,0L459.8,45.7C459.8,45.7,459.8,45.7,459.8,45.7
								L459.8,45.7z"/>
							<path id="XMLID_9204_" class="st24" d="M459.8,45.7l1.6-2.3c-0.5-0.3-1-0.6-1.6-0.8l-1.3,2.4
								C458.9,45.2,459.4,45.4,459.8,45.7L459.8,45.7z"/>
							<path id="XMLID_9203_" class="st24" d="M458.5,45l1.3-2.4c-0.2-0.1-0.5-0.2-0.7-0.3l-1.2,2.4C458.1,44.8,458.3,44.9,458.5,45
								L458.5,45z"/>
							<path id="XMLID_9202_" class="st24" d="M457.9,44.7l1.2-2.4c-0.2-0.1-0.4-0.1-0.6-0.2l-1.1,2.5
								C457.5,44.6,457.7,44.7,457.9,44.7L457.9,44.7z"/>
							<path id="XMLID_9201_" class="st24" d="M457.4,44.6l1.1-2.5c-0.2-0.1-0.3-0.1-0.5-0.2l-1.1,2.5
								C457.1,44.5,457.2,44.5,457.4,44.6L457.4,44.6z"/>
							<path id="XMLID_9200_" class="st24" d="M456.9,44.4l1.1-2.5c-0.2,0-0.3-0.1-0.5-0.1l-1,2.5C456.7,44.4,456.8,44.4,456.9,44.4
								L456.9,44.4z"/>
							<path id="XMLID_9199_" class="st24" d="M456.5,44.3l1-2.5c-0.2,0-0.3-0.1-0.5-0.1l-0.9,2.5C456.3,44.3,456.4,44.3,456.5,44.3
								L456.5,44.3z"/>
							<path id="XMLID_9198_" class="st24" d="M456.1,44.2l0.9-2.5c-0.2,0-0.3-0.1-0.5-0.1l-0.9,2.5C455.8,44.2,456,44.2,456.1,44.2
								L456.1,44.2z"/>
							<path id="XMLID_9197_" class="st24" d="M455.7,44.1l0.9-2.5c-0.1,0-0.3-0.1-0.5-0.1l-0.8,2.6
								C455.4,44.1,455.6,44.1,455.7,44.1L455.7,44.1z"/>
						</g>
					</g>
					<g id="XMLID_9192_">
						<path id="XMLID_9193_" class="st48" d="M174.2,4.6c-6.4-0.9-11.6,4-11.6,10.9l0.4,195.9c0,6.9,5.2,13.2,11.6,14.1L455.7,265
							c6.4,0.9,11.6-4,11.6-10.9l-0.4-195.9c0-6.9-5.2-13.2-11.6-14.1L174.2,4.6z"/>
					</g>
				</g>
			</g>
			<g id="XMLID_9182_">
				<path id="XMLID_9187_" class="st49" d="M458.1,254.1l-284.4-40l-0.4-199.7l284.4,40L458.1,254.1L458.1,254.1z M174.9,4.5
					c-6.1-0.9-11.1,3.8-11.1,10.4l0.4,195.9c0,6.6,5,12.7,11.1,13.5l281.1,39.5c6.1,0.9,11.1-3.8,11.1-10.4l-0.4-195.9
					c0-6.6-5-12.7-11.1-13.5L174.9,4.5L174.9,4.5z"/>
				<path id="XMLID_9184_" class="st24" d="M456.5,263.9l-281.1-39.5c-6.1-0.9-11.1-6.9-11.1-13.5L163.8,15c0-6.6,5-11.3,11.1-10.4
					l281.1,39.5c6.1,0.9,11.1,6.9,11.1,13.5l0.4,195.9C467.6,260.1,462.6,264.8,456.5,263.9L456.5,263.9z M174.9,1.9
					c-7.5-1.1-13.5,4.7-13.5,12.7l0.4,195.9c0,8.1,6.1,15.5,13.6,16.5l281.1,39.5c7.5,1,13.5-4.7,13.5-12.7l-0.4-195.9
					c0-8.1-6.1-15.5-13.6-16.6L174.9,1.9L174.9,1.9z"/>
				<polygon id="XMLID_9183_" class="st50" points="173.3,14.4 457.7,54.4 458.1,254.1 173.7,214.1 173.3,14.4 				"/>
			</g>
		</g>
		<g id="XMLID_9011_">
			<g id="XMLID_9177_" class="st8">
				<defs>
					<path id="XMLID_9178_" class="st8" d="M53.1,299c0.7,0.5,1.4,1,2.1,1.5c1.5,1.1,4.4,2,8.3,2.5l-1-1.2
						C58,301.3,54.8,300.2,53.1,299z"/>
				</defs>
				<clipPath id="XMLID_209_">
					<use xlink:href="#XMLID_9178_"  style="overflow:visible;"/>
				</clipPath>
				<g id="XMLID_9179_" class="st51">
					<path id="XMLID_9180_" class="st10" d="M53.1,299l2.1,1.5c1.5,1.1,4.4,2,8.3,2.5l-1-1.2C58,301.3,54.8,300.2,53.1,299L53.1,299
						z"/>
				</g>
			</g>
			<path id="XMLID_9176_" class="st28" d="M51.6,289.6C51.6,289.6,51.6,289.6,51.6,289.6c0-0.1,0-0.2,0-0.2c0,0,0-0.1,0-0.1
				c0-0.1,0-0.1,0.1-0.2c0,0,0-0.1,0-0.1c0,0,0,0,0,0c0-0.1,0.1-0.2,0.2-0.4c0,0,0,0,0,0c0,0,0.1-0.1,0.1-0.1
				c0.1-0.1,0.1-0.1,0.2-0.2c0,0,0.1-0.1,0.1-0.1c0,0,0.1-0.1,0.1-0.1c0,0,0.1-0.1,0.1-0.1c0.1-0.1,0.3-0.2,0.4-0.3l1.1-0.8
				c0.3-0.2,0.7-0.5,1-0.7c0,0,0,0,0,0l0,0c0,0,0,0,0,0c-0.1,0.1-0.3,0.2-0.4,0.3c-0.1,0-0.1,0.1-0.2,0.1c-0.1,0.1-0.2,0.2-0.3,0.3
				c0,0-0.1,0.1-0.1,0.1c-0.1,0.1-0.2,0.3-0.2,0.4c0,0,0,0.1,0,0.1c0,0.1,0,0.2-0.1,0.3c0,0,0,0.1,0,0.1c0,0.1,0,0.2,0.1,0.4
				c0,0,0,0,0,0c0,0.1,0.1,0.3,0.2,0.4c0,0,0.1,0.1,0.1,0.1c0.1,0.1,0.1,0.2,0.2,0.3c0,0,0.1,0.1,0.1,0.1c0.1,0.1,0.2,0.2,0.4,0.3
				c0,0,0.1,0.1,0.1,0.1c0,0,0,0,0,0c0.2,0.1,0.3,0.2,0.5,0.3c0.1,0,0.2,0.1,0.3,0.1c0.1,0.1,0.3,0.2,0.4,0.2
				c0.1,0.1,0.3,0.1,0.5,0.2c0.1,0,0.2,0.1,0.3,0.1c0.2,0.1,0.5,0.2,0.8,0.3c0.1,0,0.2,0.1,0.3,0.1c0.4,0.1,0.9,0.3,1.4,0.4
				c0.3,0.1,0.6,0.1,0.9,0.2c0.1,0,0.2,0,0.3,0.1c0.4,0.1,0.8,0.2,1.3,0.2c0.5,0.1,1,0.2,1.5,0.2l-1,2.3c-0.6-0.1-1.1-0.2-1.7-0.3
				c0,0,0,0-0.1,0c-0.5-0.1-1-0.2-1.4-0.3c-0.1,0-0.1,0-0.2,0c-0.3-0.1-0.7-0.2-1-0.2c0,0-0.1,0-0.1,0c-0.5-0.1-1.1-0.3-1.5-0.4
				c0,0-0.1,0-0.1,0c-0.1,0-0.2-0.1-0.4-0.1c-0.2-0.1-0.5-0.2-0.7-0.3c0,0-0.1,0-0.2-0.1c-0.1-0.1-0.3-0.1-0.4-0.2
				c-0.1-0.1-0.3-0.1-0.4-0.2c0,0-0.1,0-0.1-0.1c-0.2-0.1-0.3-0.2-0.5-0.2c-0.1,0-0.1-0.1-0.2-0.1c0,0-0.1,0-0.1,0
				c-0.2-0.1-0.4-0.3-0.6-0.4c0,0,0,0,0,0c0,0,0,0,0,0c-0.2-0.1-0.3-0.2-0.4-0.4c0,0,0,0-0.1-0.1c0,0-0.1-0.1-0.1-0.1
				c-0.1-0.1-0.1-0.1-0.2-0.2c0-0.1-0.1-0.1-0.1-0.2c0,0-0.1-0.1-0.1-0.1c0,0,0,0-0.1-0.1c-0.1-0.1-0.1-0.2-0.2-0.4c0,0,0,0,0,0
				c0,0,0,0,0,0C51.7,289.8,51.6,289.7,51.6,289.6z"/>
			<g id="XMLID_9174_">
				<polygon id="XMLID_9175_" class="st52" points="62.5,301.9 63.5,303.1 345.1,342.6 344.1,341.5 				"/>
			</g>
			<g id="XMLID_9012_">
				<path id="XMLID_9173_" class="st10" d="M464.8,277.3c0.1-0.1,0.2-0.2,0.3-0.2c0.2-0.1,0.3-0.2,0.4-0.4c0,0,0,0,0,0
					c0.1-0.1,0.2-0.3,0.3-0.4c0-0.1,0.1-0.1,0.1-0.2c0-0.1,0.1-0.2,0.1-0.3c0-0.1,0-0.1,0-0.2c0-0.1,0-0.2,0-0.3c0-0.1,0-0.1,0-0.2
					c0-0.1-0.1-0.2-0.1-0.3c0-0.1-0.1-0.1-0.1-0.2c-0.1-0.1-0.2-0.2-0.3-0.3c0-0.1-0.1-0.1-0.1-0.2c-0.2-0.2-0.4-0.3-0.6-0.5
					c0.7,0.5,1.4,1,2.1,1.5c0.2,0.2,0.5,0.3,0.6,0.5c0.1,0.1,0.1,0.1,0.2,0.2c0.1,0.1,0.2,0.2,0.3,0.3c0.1,0.1,0.1,0.2,0.1,0.2
					c0.1,0.1,0.1,0.2,0.1,0.3c0,0.1,0,0.2,0,0.2c0,0.1,0,0.2,0,0.2c0,0,0,0.1,0,0.1c0,0.1,0,0.1,0,0.2c0,0.1-0.1,0.2-0.1,0.4
					c0,0.1-0.1,0.1-0.1,0.2c0,0,0,0.1-0.1,0.1c-0.1,0.1-0.2,0.2-0.3,0.4c0,0,0,0-0.1,0.1c-0.1,0.1-0.2,0.2-0.3,0.3
					c-0.1,0-0.1,0.1-0.2,0.1c-0.1,0.1-0.2,0.2-0.3,0.3c-0.1,0-0.1,0.1-0.2,0.1c-0.2,0.1-0.3,0.2-0.5,0.3l-2-2
					C464.5,277.5,464.6,277.4,464.8,277.3z"/>
				<g id="XMLID_9169_" class="st8">
					<defs>
						<path id="XMLID_9170_" class="st8" d="M468.5,284.6c0-2.5,0-5,0-7.5c0,0.8-0.7,1.7-2.2,2.5l0,7.5
							C467.8,286.4,468.5,285.5,468.5,284.6z"/>
					</defs>
					<clipPath id="XMLID_210_">
						<use xlink:href="#XMLID_9170_"  style="overflow:visible;"/>
					</clipPath>
					<g id="XMLID_9171_" class="st53">
						<path id="XMLID_9172_" class="st10" d="M466.3,279.7l0,7.5c1.5-0.8,2.2-1.7,2.2-2.5l0-7.5C468.5,278,467.8,278.8,466.3,279.7
							L466.3,279.7z"/>
					</g>
				</g>
				<g id="XMLID_9167_">
					<polygon id="XMLID_9168_" class="st54" points="370.9,339 368.9,340.5 464.3,288.6 466.3,287.2 					"/>
				</g>
				<g id="XMLID_9165_">
					<polygon id="XMLID_9166_" class="st55" points="370.9,331.5 370.9,339 466.3,287.2 466.3,279.7 					"/>
				</g>
				<g id="XMLID_9163_">
					<polygon id="XMLID_9164_" class="st56" points="368.9,329.5 370.9,331.5 466.3,279.7 464.2,277.6 					"/>
				</g>
				<path id="XMLID_9162_" class="st33" d="M51.7,289.8c0,0,0,0.1,0,0.1c0,0.1,0.1,0.2,0.1,0.3c0,0,0,0,0,0.1
					c0.1,0.1,0.1,0.2,0.2,0.4c0,0,0,0,0.1,0.1c0.1,0.1,0.2,0.2,0.2,0.3c0,0,0.1,0.1,0.1,0.1c0.1,0.1,0.2,0.2,0.3,0.2
					c0,0,0.1,0.1,0.1,0.1c0.1,0.1,0.2,0.1,0.3,0.2c0.1,0,0.1,0.1,0.2,0.1c0.1,0.1,0.2,0.1,0.3,0.2c0.1,0.1,0.2,0.1,0.3,0.2
					c0.1,0.1,0.2,0.1,0.3,0.2c0.1,0,0.2,0.1,0.3,0.1c0.1,0.1,0.3,0.1,0.4,0.2c0.1,0,0.2,0.1,0.4,0.1c0.1,0.1,0.3,0.1,0.4,0.2
					c0.2,0.1,0.3,0.1,0.5,0.2c0.1,0,0.3,0.1,0.4,0.1c0.3,0.1,0.6,0.2,0.8,0.2c0.1,0,0.2,0.1,0.4,0.1c0.5,0.1,1,0.3,1.6,0.4
					c0.1,0,0.3,0.1,0.4,0.1c0.2,0,0.5,0.1,0.7,0.1c0.2,0,0.3,0.1,0.5,0.1c0.4,0.1,0.9,0.1,1.3,0.2L344.1,334l0,7.5L62.5,301.9
					c-0.5-0.1-0.9-0.1-1.3-0.2c-0.1,0-0.2,0-0.3-0.1c-0.3-0.1-0.6-0.1-0.9-0.2c0,0-0.1,0-0.1,0c0,0-0.1,0-0.1,0
					c-0.6-0.1-1.2-0.3-1.8-0.4c0,0,0,0,0,0v0c0,0,0,0,0,0v0c0,0-0.1,0-0.1,0c-0.4-0.1-0.7-0.2-1.1-0.3c0,0-0.1,0-0.1,0
					c-0.1,0-0.1,0-0.2-0.1c-0.2-0.1-0.4-0.1-0.6-0.2c-0.1,0-0.2-0.1-0.2-0.1c-0.1,0-0.1,0-0.2-0.1c-0.1,0-0.3-0.1-0.4-0.2
					c-0.1,0-0.2-0.1-0.3-0.1c0,0-0.1,0-0.1-0.1c-0.1-0.1-0.2-0.1-0.3-0.2c-0.1,0-0.1-0.1-0.2-0.1c0,0-0.1,0-0.1-0.1
					c-0.1-0.1-0.2-0.1-0.3-0.2c-0.1,0-0.1-0.1-0.2-0.1c0,0-0.1-0.1-0.1-0.1c-0.1,0-0.1-0.1-0.2-0.1c0,0-0.1-0.1-0.1-0.1
					c-0.1,0-0.1-0.1-0.1-0.1c-0.1,0-0.1-0.1-0.2-0.1c0,0-0.1,0-0.1-0.1c-0.1,0-0.1-0.1-0.2-0.1c0,0-0.1-0.1-0.1-0.1c0,0,0,0,0,0
					c-0.1-0.1-0.2-0.2-0.2-0.3c0,0,0,0,0,0c0,0,0,0,0,0c-0.1-0.1-0.1-0.2-0.2-0.3v0c0,0,0,0,0,0c0,0,0-0.1,0-0.1
					c0-0.1-0.1-0.2-0.1-0.2c0,0,0,0,0,0c0-0.1,0-0.1,0-0.2c0-0.1,0-0.1,0-0.2l0-7.5c0,0,0,0,0-0.1C51.6,289.6,51.6,289.7,51.7,289.8
					z"/>
				<g id="XMLID_9160_">
					<polygon id="XMLID_9161_" class="st57" points="63.5,292.1 62.5,294.4 344.1,334 345.1,331.7 					"/>
				</g>
				<path id="XMLID_9159_" class="st10" d="M370.9,339l-2,1.4c-4.4,2.4-15.1,3.4-23.8,2.2l-1-1.2C353.8,342.9,365.9,341.8,370.9,339
					z"/>
				<g id="XMLID_9157_">
					<path id="XMLID_9158_" class="st58" d="M175,231.5c-8.6-1.2-19.4-0.2-23.8,2.2l-95.4,51.9c-4.4,2.4-1,5.4,7.7,6.6l281.6,39.6
						c8.6,1.2,19.4,0.2,23.8-2.2l95.4-51.9c4.4-2.4,1-5.4-7.7-6.6L175,231.5z"/>
				</g>
				<path id="XMLID_9156_" class="st41" d="M346.2,341.7c-0.7-0.1-1.4-0.2-2.2-0.3l0-7.5c0.7,0.1,1.4,0.2,2.1,0.2
					c0.3,0,0.6,0.1,0.8,0.1c0.4,0,0.9,0.1,1.4,0.1c0.4,0,0.7,0,1.1,0.1c0.2,0,0.3,0,0.5,0c0.5,0,1,0,1.5,0c0.1,0,0.2,0,0.2,0
					c0.1,0,0.2,0,0.3,0c0.5,0,1,0,1.5,0c0.1,0,0.2,0,0.2,0c0.6,0,1.2,0,1.8,0c0.1,0,0.1,0,0.2,0c1.8-0.1,3.6-0.2,5.3-0.4
					c0.1,0,0.1,0,0.2,0c0.6-0.1,1.1-0.1,1.6-0.2c0,0,0,0,0,0c0.5-0.1,1-0.2,1.5-0.3c0.1,0,0.3,0,0.4-0.1c0.3-0.1,0.7-0.1,1-0.2
					c0.2,0,0.3-0.1,0.5-0.1c0.3-0.1,0.5-0.1,0.7-0.2c0.2-0.1,0.5-0.1,0.7-0.2c0.2-0.1,0.4-0.1,0.6-0.2c0.3-0.1,0.6-0.2,0.9-0.3
					c0.2-0.1,0.3-0.1,0.5-0.2c0.4-0.2,0.8-0.4,1.2-0.6l0,7.5c-0.4,0.2-0.8,0.4-1.2,0.6c-0.2,0.1-0.3,0.1-0.5,0.2
					c-0.3,0.1-0.6,0.2-1,0.3c-0.1,0-0.2,0.1-0.3,0.1c-0.1,0-0.2,0.1-0.3,0.1c-0.2,0.1-0.4,0.1-0.6,0.2c-0.2,0-0.3,0.1-0.5,0.1
					c-0.1,0-0.3,0.1-0.4,0.1c-0.1,0-0.2,0-0.3,0.1c-0.2,0-0.4,0.1-0.6,0.1c-0.2,0-0.5,0.1-0.7,0.1c0,0-0.1,0-0.1,0
					c-0.1,0-0.2,0-0.3,0.1c-0.4,0.1-0.8,0.1-1.1,0.2c0,0-0.1,0-0.1,0c0,0-0.1,0-0.1,0c-0.3,0-0.6,0.1-0.9,0.1c-0.2,0-0.4,0-0.5,0.1
					c-0.1,0-0.2,0-0.3,0c-0.1,0-0.2,0-0.3,0c-0.4,0-0.7,0.1-1.1,0.1c-0.1,0-0.1,0-0.2,0c-0.1,0-0.2,0-0.3,0c-0.2,0-0.4,0-0.6,0.1
					c-0.3,0-0.5,0-0.8,0.1c-0.1,0-0.2,0-0.3,0c-0.4,0-0.7,0-1.1,0.1c-0.2,0-0.4,0-0.6,0c-0.1,0-0.2,0-0.3,0c-0.1,0-0.2,0-0.3,0
					c-0.4,0-0.8,0-1.1,0c-0.1,0-0.1,0-0.2,0c-0.1,0-0.2,0-0.3,0c-0.2,0-0.4,0-0.7,0c-0.4,0-0.7,0-1.1,0c0,0,0,0,0,0c0,0,0,0,0,0
					c-0.4,0-0.9,0-1.3,0c-0.1,0-0.3,0-0.4,0c-0.2,0-0.4,0-0.5,0c-0.2,0-0.4,0-0.6,0c-0.1,0-0.2,0-0.4,0c-0.5,0-1.1-0.1-1.6-0.1
					C346.6,341.8,346.4,341.8,346.2,341.7z"/>
				<path id="XMLID_9155_" class="st33" d="M349,334.5c-0.2,0-0.3,0-0.5,0c-0.5,0-1-0.1-1.5-0.1c-0.3,0-0.6,0-0.8-0.1
					c-0.7-0.1-1.4-0.2-2.1-0.3l1-2.3c0.6,0.1,1.3,0.2,2,0.2c0.2,0,0.3,0,0.5,0c0.5,0,1.1,0.1,1.6,0.1c0.2,0,0.4,0,0.5,0
					c0.4,0,0.8,0,1.2,0.1c0.2,0,0.5,0,0.7,0c0.2,0,0.5,0,0.7,0c0.3,0,0.6,0,1,0c0.2,0,0.3,0,0.5,0c0.5,0,0.9,0,1.4,0
					c0.1,0,0.3,0,0.4,0c0.4,0,0.8,0,1.1-0.1c0.1,0,0.3,0,0.4,0c0.4,0,0.7-0.1,1.1-0.1c0.1,0,0.2,0,0.3,0c0.2,0,0.4,0,0.6-0.1
					c0.3,0,0.6-0.1,0.8-0.1c0.1,0,0.3,0,0.4-0.1c0.5-0.1,0.9-0.1,1.3-0.2c0,0,0.1,0,0.1,0c0.4-0.1,0.8-0.1,1.2-0.2
					c0.1,0,0.2,0,0.2,0c0.4-0.1,0.8-0.2,1.2-0.3c0.1,0,0.1,0,0.2,0c0.3-0.1,0.7-0.2,1-0.3c0.1,0,0.2-0.1,0.3-0.1
					c0.3-0.1,0.6-0.2,0.9-0.3c0,0,0.1,0,0.1,0c0.3-0.1,0.7-0.2,1-0.4c0.1,0,0.1-0.1,0.2-0.1c0.3-0.1,0.5-0.2,0.8-0.4l2,2
					c-0.1,0.1-0.2,0.1-0.3,0.2c-0.2,0.1-0.3,0.2-0.5,0.2c-0.1,0-0.2,0.1-0.3,0.1c0,0-0.1,0-0.1,0c-0.3,0.1-0.6,0.2-0.9,0.3
					c0,0-0.1,0-0.1,0c0,0,0,0,0,0c-0.3,0.1-0.5,0.2-0.8,0.3c-0.1,0-0.2,0.1-0.3,0.1c-0.1,0-0.2,0-0.2,0.1c-0.1,0-0.2,0.1-0.4,0.1
					c-0.3,0.1-0.6,0.1-0.9,0.2c0,0,0,0-0.1,0c0,0,0,0-0.1,0c-0.3,0.1-0.7,0.2-1,0.2c-0.1,0-0.2,0-0.3,0.1c-0.1,0-0.2,0-0.3,0.1
					c-0.2,0-0.3,0.1-0.5,0.1c-0.4,0.1-0.7,0.1-1.1,0.2c-0.4,0.1-0.8,0.1-1.2,0.2c-0.1,0-0.2,0-0.3,0c-0.1,0-0.2,0-0.4,0
					c-0.2,0-0.3,0-0.5,0.1c-0.3,0-0.6,0.1-1,0.1c-0.1,0-0.1,0-0.2,0c0,0-0.1,0-0.1,0c-0.4,0-0.8,0.1-1.2,0.1c-0.1,0-0.2,0-0.4,0
					c-0.1,0-0.2,0-0.3,0c-0.2,0-0.4,0-0.7,0c-0.4,0-0.7,0-1.1,0c0,0,0,0,0,0c-0.1,0-0.1,0-0.2,0c-0.4,0-0.9,0-1.3,0
					c-0.1,0-0.1,0-0.2,0c-0.2,0-0.3,0-0.5,0c-0.2,0-0.4,0-0.7,0c-0.2,0-0.4,0-0.6,0c-0.2,0-0.3,0-0.5,0c-0.1,0-0.3,0-0.4,0
					c-0.2,0-0.5,0-0.7,0c-0.3,0-0.6,0-1,0C349.2,334.5,349.1,334.5,349,334.5z"/>
				<g id="XMLID_9013_">
					<path id="XMLID_9085_" class="st27" d="M260.6,317.8l-103.1-14.5l38.2-20.8L298.8,297L260.6,317.8L260.6,317.8z M387.5,304.3
						l-34.2-4.8l9.4-5.1l34.2,4.8L387.5,304.3L387.5,304.3z M349.9,299l-16.1-2.3l9.4-5.1l16.1,2.3L349.9,299L349.9,299z
						 M331.1,296.4l-19.9-2.8l9.4-5.1l19.9,2.8L331.1,296.4L331.1,296.4z M308.7,293.2l-90.1-12.7l9.4-5.1l90.1,12.7L308.7,293.2
						L308.7,293.2z M216.1,280.2l-39.4-5.5l9.4-5.1l39.4,5.5L216.1,280.2L216.1,280.2z M160.4,269.2l13.6,1.9l-4.7,2.6l-16.4-2.3
						l-13.2-1.9l-12.7-1.8l4.7-2.6l12.7,1.8l4.7-2.6l16,2.3L160.4,269.2L160.4,269.2z M398.2,298.5l-39.5-5.5l7.9-4.3l39.5,5.5
						L398.2,298.5L398.2,298.5z M356.3,292.7l-16-2.2l7.9-4.3l16,2.2L356.3,292.7L356.3,292.7z M337.8,290.1l-16-2.2l7.9-4.3l16,2.3
						L337.8,290.1L337.8,290.1z M319.3,287.4l-16-2.2l7.9-4.3l16,2.3L319.3,287.4L319.3,287.4z M300.8,284.8l-16-2.2l7.9-4.3l16,2.2
						L300.8,284.8L300.8,284.8z M282.3,282.2l-16-2.2l7.9-4.3l16,2.2L282.3,282.2L282.3,282.2z M263.8,279.6l-16-2.2l7.9-4.3l16,2.2
						L263.8,279.6L263.8,279.6z M245.2,277l-16-2.2l7.9-4.3l16,2.2L245.2,277L245.2,277z M226.7,274.4l-16-2.2l7.9-4.3l16,2.2
						L226.7,274.4L226.7,274.4z M208.2,271.8l-16-2.2l7.9-4.3l16,2.2L208.2,271.8L208.2,271.8z M189.7,269.2l-16-2.2l7.9-4.3l16,2.2
						L189.7,269.2L189.7,269.2z M171.2,266.6l-39.5-5.5l7.9-4.3l39.5,5.5L171.2,266.6L171.2,266.6z M407.4,293.5l-30-4.2l7.9-4.3
						l30,4.2L407.4,293.5L407.4,293.5z M374.8,288.9l-16-2.2l7.9-4.3l16,2.2L374.8,288.9L374.8,288.9z M356.3,286.3l-16-2.2l7.9-4.3
						l16,2.2L356.3,286.3L356.3,286.3z M337.8,283.7l-16-2.2l7.9-4.3l16,2.2L337.8,283.7L337.8,283.7z M319.2,281.1l-16-2.2l7.9-4.3
						l16,2.2L319.2,281.1L319.2,281.1z M300.7,278.5l-16-2.2l7.9-4.3l16,2.2L300.7,278.5L300.7,278.5z M282.2,275.9l-16-2.2l7.9-4.3
						l16,2.2L282.2,275.9L282.2,275.9z M263.7,273.3l-16-2.3l7.9-4.3l16,2.2L263.7,273.3L263.7,273.3z M245.2,270.7l-16-2.2l7.9-4.3
						l16,2.2L245.2,270.7L245.2,270.7z M226.7,268.1l-16-2.3l7.9-4.3l16,2.3L226.7,268.1L226.7,268.1z M208.2,265.5l-16-2.3l7.9-4.3
						l16,2.2L208.2,265.5L208.2,265.5z M189.6,262.9l-16-2.2l7.9-4.3l16,2.2L189.6,262.9L189.6,262.9z M416.7,288.5l-25.1-3.5
						l7.9-4.3l25.1,3.5L416.7,288.5L416.7,288.5z M388.4,284.5l-16-2.2l7.9-4.3l16,2.3L388.4,284.5L388.4,284.5z M369.9,281.9
						l-16-2.2l7.9-4.3l16,2.3L369.9,281.9L369.9,281.9z M351.4,279.3l-16-2.2l7.9-4.3l16,2.3L351.4,279.3L351.4,279.3z M332.9,276.7
						l-16-2.2l7.9-4.3l16,2.2L332.9,276.7L332.9,276.7z M314.4,274.1l-16-2.3l7.9-4.3l16,2.2L314.4,274.1L314.4,274.1z M295.9,271.5
						l-16-2.2l7.9-4.3l16,2.2L295.9,271.5L295.9,271.5z M277.4,268.9l-16-2.3l7.9-4.3l16,2.2L277.4,268.9L277.4,268.9z M258.8,266.3
						l-16-2.2l7.9-4.3l16,2.2L258.8,266.3L258.8,266.3z M240.3,263.7l-16-2.2l7.9-4.3l16,2.2L240.3,263.7L240.3,263.7z M221.8,261.1
						l-16-2.2l7.9-4.3l16,2.2L221.8,261.1L221.8,261.1z M203.3,258.5l-16-2.2l7.9-4.3l16,2.3L203.3,258.5L203.3,258.5z M184.8,255.9
						l-16-2.2l7.9-4.3l16,2.2L184.8,255.9L184.8,255.9z M164.9,254l14,2l-7.9,4.3l-30-4.2l7.9-4.3l9.3-5.1l16,2.2L164.9,254
						L164.9,254z M426,283.4l-16-2.3l7.9-4.3l16,2.2L426,283.4L426,283.4z M405.8,280.5l-16-2.3l7.9-4.3l16,2.3L405.8,280.5
						L405.8,280.5z M385.6,277.7l-16-2.2l7.9-4.3l16,2.2L385.6,277.7L385.6,277.7z M365.3,274.8l-16-2.2l7.9-4.3l16,2.2L365.3,274.8
						L365.3,274.8z M345.1,272l-16-2.2l7.9-4.3l16,2.2L345.1,272L345.1,272z M324.9,269.2l-16-2.2l7.9-4.3l16,2.2L324.9,269.2
						L324.9,269.2z M304.6,266.3l-16-2.2l7.9-4.3l16,2.2L304.6,266.3L304.6,266.3z M284.4,263.5l-16-2.2l7.9-4.3l16,2.2L284.4,263.5
						L284.4,263.5z M264.2,260.6l-16-2.2l7.9-4.3l16,2.2L264.2,260.6L264.2,260.6z M243.9,257.8l-16-2.2l7.9-4.3l16,2.2L243.9,257.8
						L243.9,257.8z M223.7,254.9l-16-2.2l7.9-4.3l16,2.2L223.7,254.9L223.7,254.9z M203.5,252.1l-16-2.2l7.9-4.3l16,2.2L203.5,252.1
						L203.5,252.1z M184.8,249.5l-25.1-3.5l7.9-4.3l25.1,3.5L184.8,249.5L184.8,249.5z M436.3,277.8l-16.8-2.4l4.8-2.6l16.8,2.4
						L436.3,277.8L436.3,277.8z M413.6,274.6l-16.8-2.4l4.8-2.6l16.8,2.4L413.6,274.6L413.6,274.6z M390.9,271.4l-16.8-2.4l4.8-2.6
						l16.8,2.4L390.9,271.4L390.9,271.4z M368.2,268.2l-16.8-2.4l4.8-2.6l16.8,2.4L368.2,268.2L368.2,268.2z M322.9,261.8l-16.8-2.4
						l4.8-2.6l16.8,2.4L322.9,261.8L322.9,261.8z M300.2,258.6l-16.8-2.4l4.8-2.6l16.8,2.4L300.2,258.6L300.2,258.6z M277.5,255.4
						l-16.8-2.4l4.8-2.6l16.8,2.4L277.5,255.4L277.5,255.4z M254.8,252.3l-16.8-2.4l4.8-2.6l16.8,2.4L254.8,252.3L254.8,252.3z
						 M209.4,245.9l-16.8-2.4l4.8-2.6l16.8,2.4L209.4,245.9L209.4,245.9z M186.7,242.7l-16.8-2.4l4.8-2.6l16.8,2.4L186.7,242.7
						L186.7,242.7z M176.3,231.8c-9.7-1.4-21.8-0.3-26.8,2.4L54.4,286c-5,2.7-1.1,6.1,8.6,7.4l280.9,39.5c9.7,1.4,21.8,0.3,26.8-2.4
						l95.1-51.8c5-2.7,1.1-6.1-8.6-7.4L176.3,231.8L176.3,231.8z"/>
					<polygon id="XMLID_9084_" class="st41" points="195.7,282.5 298.8,297 260.6,317.8 157.5,303.3 195.7,282.5 					"/>
					<polygon id="XMLID_9083_" class="st54" points="424.3,272.8 441.1,275.2 436.3,277.8 419.5,275.4 424.3,272.8 					"/>
					<polygon id="XMLID_9082_" class="st54" points="401.6,269.6 418.4,272 413.6,274.6 396.8,272.2 401.6,269.6 					"/>
					<polygon id="XMLID_9081_" class="st54" points="378.9,266.4 395.7,268.8 390.9,271.4 374.1,269 378.9,266.4 					"/>
					<polygon id="XMLID_9080_" class="st54" points="356.2,263.3 373,265.6 368.2,268.2 351.5,265.8 356.2,263.3 					"/>
					<polygon id="XMLID_9079_" class="st54" points="310.8,256.9 327.6,259.2 322.9,261.8 306.1,259.5 310.8,256.9 					"/>
					<polygon id="XMLID_9078_" class="st54" points="288.1,253.7 304.9,256.1 300.2,258.6 283.4,256.3 288.1,253.7 					"/>
					<polygon id="XMLID_9077_" class="st54" points="265.4,250.5 282.2,252.9 277.5,255.4 260.7,253.1 265.4,250.5 					"/>
					<polygon id="XMLID_9076_" class="st54" points="242.7,247.3 259.5,249.7 254.8,252.3 238,249.9 242.7,247.3 					"/>
					<polygon id="XMLID_9075_" class="st54" points="197.4,240.9 214.1,243.3 209.4,245.9 192.6,243.5 197.4,240.9 					"/>
					<polygon id="XMLID_9074_" class="st54" points="174.7,237.7 191.5,240.1 186.7,242.7 169.9,240.3 174.7,237.7 					"/>
					<polygon id="XMLID_9073_" class="st54" points="418,276.8 434,279.1 426,283.4 410,281.1 418,276.8 					"/>
					<polygon id="XMLID_9072_" class="st54" points="397.7,274 413.7,276.2 405.8,280.5 389.8,278.3 397.7,274 					"/>
					<polygon id="XMLID_9071_" class="st54" points="377.5,271.1 393.5,273.4 385.6,277.7 369.6,275.4 377.5,271.1 					"/>
					<polygon id="XMLID_9070_" class="st54" points="357.3,268.3 373.3,270.5 365.3,274.8 349.3,272.6 357.3,268.3 					"/>
					<polygon id="XMLID_9069_" class="st54" points="337,265.4 353,267.7 345.1,272 329.1,269.8 337,265.4 					"/>
					<polygon id="XMLID_9068_" class="st54" points="316.8,262.6 332.8,264.8 324.9,269.2 308.9,266.9 316.8,262.6 					"/>
					<polygon id="XMLID_9067_" class="st54" points="296.6,259.7 312.6,262 304.6,266.3 288.6,264.1 296.6,259.7 					"/>
					<polygon id="XMLID_9066_" class="st54" points="276.3,256.9 292.3,259.1 284.4,263.5 268.4,261.2 276.3,256.9 					"/>
					<polygon id="XMLID_9065_" class="st54" points="256.1,254.1 272.1,256.3 264.2,260.6 248.2,258.4 256.1,254.1 					"/>
					<polygon id="XMLID_9064_" class="st54" points="235.9,251.2 251.9,253.5 243.9,257.8 227.9,255.5 235.9,251.2 					"/>
					<polygon id="XMLID_9063_" class="st54" points="215.6,248.4 231.6,250.6 223.7,254.9 207.7,252.7 215.6,248.4 					"/>
					<polygon id="XMLID_9062_" class="st54" points="195.4,245.5 211.4,247.8 203.5,252.1 187.5,249.8 195.4,245.5 					"/>
					<polygon id="XMLID_9061_" class="st54" points="380.4,277.9 396.4,280.2 388.4,284.5 372.4,282.2 380.4,277.9 					"/>
					<polygon id="XMLID_9060_" class="st54" points="361.9,275.3 377.9,277.6 369.9,281.9 353.9,279.6 361.9,275.3 					"/>
					<polygon id="XMLID_9059_" class="st54" points="343.4,272.7 359.4,275 351.4,279.3 335.4,277 343.4,272.7 					"/>
					<polygon id="XMLID_9058_" class="st54" points="324.8,270.1 340.8,272.4 332.9,276.7 316.9,274.4 324.8,270.1 					"/>
					<polygon id="XMLID_9057_" class="st54" points="306.3,267.5 322.3,269.8 314.4,274.1 298.4,271.8 306.3,267.5 					"/>
					<polygon id="XMLID_9056_" class="st54" points="287.8,264.9 303.8,267.2 295.9,271.5 279.9,269.2 287.8,264.9 					"/>
					<polygon id="XMLID_9055_" class="st54" points="269.3,262.3 285.3,264.6 277.4,268.9 261.4,266.6 269.3,262.3 					"/>
					<polygon id="XMLID_9054_" class="st54" points="250.8,259.7 266.8,262 258.8,266.3 242.8,264 250.8,259.7 					"/>
					<polygon id="XMLID_9053_" class="st54" points="232.3,257.1 248.3,259.4 240.3,263.7 224.3,261.4 232.3,257.1 					"/>
					<polygon id="XMLID_9052_" class="st54" points="213.8,254.5 229.7,256.8 221.8,261.1 205.8,258.8 213.8,254.5 					"/>
					<polygon id="XMLID_9051_" class="st54" points="195.2,251.9 211.2,254.2 203.3,258.5 187.3,256.2 195.2,251.9 					"/>
					<polygon id="XMLID_9050_" class="st54" points="176.7,249.3 192.7,251.6 184.8,255.9 168.8,253.6 176.7,249.3 					"/>
					<polygon id="XMLID_9049_" class="st54" points="158.2,246.7 174.2,249 164.9,254 148.9,251.8 158.2,246.7 					"/>
					<polygon id="XMLID_9048_" class="st54" points="366.7,282.4 382.7,284.6 374.8,288.9 358.8,286.7 366.7,282.4 					"/>
					<polygon id="XMLID_9047_" class="st54" points="348.2,279.8 364.2,282 356.3,286.3 340.3,284.1 348.2,279.8 					"/>
					<polygon id="XMLID_9046_" class="st54" points="329.7,277.2 345.7,279.4 337.8,283.7 321.8,281.5 329.7,277.2 					"/>
					<polygon id="XMLID_9045_" class="st54" points="311.2,274.6 327.2,276.8 319.2,281.1 303.3,278.9 311.2,274.6 					"/>
					<polygon id="XMLID_9044_" class="st54" points="292.7,272 308.7,274.2 300.7,278.5 284.7,276.3 292.7,272 					"/>
					<polygon id="XMLID_9043_" class="st54" points="274.2,269.4 290.2,271.6 282.2,275.9 266.2,273.7 274.2,269.4 					"/>
					<polygon id="XMLID_9042_" class="st54" points="255.7,266.8 271.6,269 263.7,273.3 247.7,271.1 255.7,266.8 					"/>
					<polygon id="XMLID_9041_" class="st54" points="237.1,264.2 253.1,266.4 245.2,270.7 229.2,268.5 237.1,264.2 					"/>
					<polygon id="XMLID_9040_" class="st54" points="218.6,261.6 234.6,263.8 226.7,268.1 210.7,265.9 218.6,261.6 					"/>
					<polygon id="XMLID_9039_" class="st54" points="200.1,259 216.1,261.2 208.2,265.5 192.2,263.3 200.1,259 					"/>
					<polygon id="XMLID_9038_" class="st54" points="181.6,256.4 197.6,258.6 189.6,262.9 173.6,260.7 181.6,256.4 					"/>
					<polygon id="XMLID_9037_" class="st54" points="348.3,286.1 364.3,288.3 356.3,292.7 340.3,290.4 348.3,286.1 					"/>
					<polygon id="XMLID_9036_" class="st54" points="329.8,283.5 345.8,285.7 337.8,290.1 321.8,287.8 329.8,283.5 					"/>
					<polygon id="XMLID_9035_" class="st54" points="311.2,280.9 327.2,283.1 319.3,287.4 303.3,285.2 311.2,280.9 					"/>
					<polygon id="XMLID_9034_" class="st54" points="292.7,278.3 308.7,280.5 300.8,284.8 284.8,282.6 292.7,278.3 					"/>
					<polygon id="XMLID_9033_" class="st54" points="274.2,275.7 290.2,277.9 282.3,282.2 266.3,280 274.2,275.7 					"/>
					<polygon id="XMLID_9032_" class="st54" points="255.7,273.1 271.7,275.3 263.8,279.6 247.8,277.4 255.7,273.1 					"/>
					<polygon id="XMLID_9031_" class="st54" points="237.2,270.5 253.2,272.7 245.2,277 229.2,274.8 237.2,270.5 					"/>
					<polygon id="XMLID_9030_" class="st54" points="218.7,267.9 234.7,270.1 226.7,274.4 210.7,272.2 218.7,267.9 					"/>
					<polygon id="XMLID_9029_" class="st54" points="200.2,265.3 216.1,267.5 208.2,271.8 192.2,269.6 200.2,265.3 					"/>
					<polygon id="XMLID_9028_" class="st54" points="181.6,262.7 197.6,264.9 189.7,269.2 173.7,267 181.6,262.7 					"/>
					<polygon id="XMLID_9027_" class="st54" points="399.5,280.6 424.6,284.1 416.7,288.5 391.5,284.9 399.5,280.6 					"/>
					<polygon id="XMLID_9026_" class="st54" points="385.3,285 415.3,289.2 407.4,293.5 377.4,289.3 385.3,285 					"/>
					<polygon id="XMLID_9025_" class="st54" points="366.6,288.7 406.1,294.2 398.2,298.5 358.7,293 366.6,288.7 					"/>
					<polygon id="XMLID_9024_" class="st54" points="148.9,251.8 164.9,254 178.9,256 171,260.3 141,256.1 148.9,251.8 					"/>
					<polygon id="XMLID_9023_" class="st54" points="167.6,241.6 192.7,245.1 184.8,249.5 159.6,245.9 167.6,241.6 					"/>
					<polygon id="XMLID_9022_" class="st54" points="139.7,256.8 179.2,262.3 171.2,266.6 131.8,261.1 139.7,256.8 					"/>
					<polygon id="XMLID_9021_" class="st54" points="228,275.5 318.1,288.1 308.7,293.2 218.6,280.6 228,275.5 					"/>
					<polygon id="XMLID_9020_" class="st54" points="362.8,294.4 396.9,299.2 387.5,304.3 353.4,299.5 362.8,294.4 					"/>
					<polygon id="XMLID_9019_" class="st54" points="186.1,269.6 225.5,275.1 216.1,280.2 176.7,274.7 186.1,269.6 					"/>
					<polygon id="XMLID_9018_" class="st54" points="343.2,291.6 359.3,293.9 349.9,299 333.8,296.8 343.2,291.6 					"/>
					<polygon id="XMLID_9017_" class="st54" points="320.6,288.5 340.5,291.3 331.1,296.4 311.2,293.6 320.6,288.5 					"/>
					<polygon id="XMLID_9016_" class="st54" points="160.4,269.2 173.9,271.1 169.2,273.6 152.8,271.3 155.6,271.7 160.4,269.2 
											"/>
					<polygon id="XMLID_9015_" class="st54" points="149.1,264.4 165.1,266.6 160.4,269.2 155.6,271.7 152.8,271.3 139.7,269.5 
						143.8,270.1 148.5,267.5 144.4,266.9 149.1,264.4 					"/>
					<polygon id="XMLID_9014_" class="st54" points="131.6,265.1 144.4,266.9 148.5,267.5 143.8,270.1 139.7,269.5 126.9,267.7 
						131.6,265.1 					"/>
				</g>
			</g>
		</g>
	</g>
	<g id="XMLID_8989_">
		<path id="XMLID_8997_" d="M280.3,93.8l-89.4-12.6l0-3.2l89.4,12.6L280.3,93.8L280.3,93.8z M280.2,85.8l-89.4-12.6l0-3.2l89.4,12.6
			L280.2,85.8L280.2,85.8z M280.2,77.9l-89.4-12.6l0-3.2l89.4,12.6L280.2,77.9L280.2,77.9z M280.2,69.9l-89.4-12.6l0-3.2l89.4,12.6
			L280.2,69.9L280.2,69.9z M280.2,61.9l-89.4-12.6l0-3.2l89.4,12.6L280.2,61.9L280.2,61.9z M280.2,53.9l-89.4-12.6l0-3.2l89.4,12.6
			L280.2,53.9L280.2,53.9z M280.2,45.9l-89.4-12.6l0-3.2l89.4,12.6L280.2,45.9L280.2,45.9z M184.3,22.3l0.1,66.6L286,103.2
			l-0.1-66.6L184.3,22.3L184.3,22.3z"/>
		<polygon id="XMLID_8996_" class="st59" points="190.8,30.2 280.2,42.7 280.2,45.9 190.8,33.4 190.8,30.2 		"/>
		<polygon id="XMLID_8995_" class="st59" points="190.8,38.2 280.2,50.7 280.2,53.9 190.8,41.4 190.8,38.2 		"/>
		<polygon id="XMLID_8994_" class="st59" points="190.8,46.1 280.2,58.7 280.2,61.9 190.8,49.3 190.8,46.1 		"/>
		<polygon id="XMLID_8993_" class="st59" points="190.8,54.1 280.2,66.7 280.2,69.9 190.9,57.3 190.8,54.1 		"/>
		<polygon id="XMLID_8992_" class="st59" points="190.9,62.1 280.2,74.7 280.2,77.9 190.9,65.3 190.9,62.1 		"/>
		<polygon id="XMLID_8991_" class="st59" points="190.9,70.1 280.2,82.6 280.2,85.8 190.9,73.3 190.9,70.1 		"/>
		<polygon id="XMLID_8990_" class="st59" points="190.9,78.1 280.3,90.6 280.3,93.8 190.9,81.3 190.9,78.1 		"/>
	</g>
	<g id="XMLID_6270_">
		<path id="XMLID_8945_" class="st29" d="M224.8,200.6l0,0.1v0.2l-8.1,7.4c-0.2,0.4-0.5,0.7-0.8,0.9l1.5,4.9l8.1-13.1L224.8,200.6
			L224.8,200.6z M202.3,197.4l-0.9,0.3l0,0c0.1,0,0.1,0,0.1,0l0,0l0.1,0l8.2,15.4l1.5-4.5c-0.4-0.3-0.7-0.7-0.9-1.2l0,0.1l-8.1-9.7
			v-0.2L202.3,197.4L202.3,197.4z"/>
		<path id="XMLID_8940_" class="st60" d="M211.9,199.8l1.4,1.5l0,0.1l0.6,0.1l0-0.1l1.3-1.1c-0.6,0.1-1.1,0.1-1.6,0
			C213,200.2,212.5,200,211.9,199.8L211.9,199.8z M206.6,194.2C206.6,194.2,206.6,194.2,206.6,194.2
			C206.6,194.2,206.6,194.2,206.6,194.2L206.6,194.2z M206.6,194.1C206.6,194.1,206.6,194.1,206.6,194.1
			C206.6,194.1,206.6,194.1,206.6,194.1L206.6,194.1z M206.7,194.1L206.7,194.1L206.7,194.1L206.7,194.1z"/>
		<path id="XMLID_8939_" class="st61" d="M206.7,194.1c2.3,2.4,4.9,3.9,6.9,4.2c2,0.3,4.6-0.5,6.9-2.2l0,0l-5.3,4.2
			c-0.6,0.1-1.1,0.1-1.6,0c-0.5-0.1-1.1-0.2-1.7-0.5L206.7,194.1C206.6,194.2,206.6,194.2,206.7,194.1
			C206.6,194.2,206.6,194.2,206.7,194.1C206.6,194.1,206.6,194.1,206.7,194.1L206.7,194.1L206.7,194.1L206.7,194.1z"/>
		<path id="XMLID_8938_" class="st62" d="M217.4,173l5.7,0.8c0.6,0.1,1.1,0.7,1.1,1.3l0,2.2c0,0.6-0.5,1.1-1.1,1l-5.7-0.8
			c-0.6-0.1-1.1-0.7-1.1-1.3l0-2.2C216.3,173.4,216.8,172.9,217.4,173L217.4,173z"/>
		<path id="XMLID_8937_" class="st60" d="M196,167.7C196,167.7,196,167.7,196,167.7c0.2,0,0.3,0,0.5,0.1c2.3,0.3,3.7,3,3.7,3
			s-1.1-12.2,2.8-16.8c0,0,0,0,0,0c2.3-2,5.6-3.3,10.5-2.6c2.5,0.3,4.6,1.1,6.3,2.1v18.5l-2.4-0.3c-0.9-0.1-1.7,0.3-2.1,1.1
			l-1.8-0.3l-1.8-0.3c-0.4-0.9-1.2-1.6-2.1-1.7l-5.7-0.8c-1.3-0.2-2.4,0.8-2.4,2.2l0,2.2c0,1.4,1.1,2.7,2.4,2.9l5.7,0.8
			c1.3,0.2,2.4-0.8,2.4-2.2l0-2.2c0-0.1,0-0.1,0-0.2l1.6,0.2l1.6,0.2c0,0.1,0,0.1,0,0.2l0,2.2c0,1.4,1.1,2.7,2.4,2.9l2.3,0.3v17.3
			c-2.1,1.4-4.4,2-6.2,1.8c-0.1,0-0.2,0-0.3-0.1l0,0c-3.8-0.7-9.3-5.4-11.3-12.2c-0.6-2.1-0.8-3.6-0.8-3.6s0,0-0.1,0
			c-0.3,0-1.3-0.4-3.1-2.7c-1.3-1.7-3-5.8-3-8.9C194.9,169.4,195.2,168.3,196,167.7z"/>
		<path id="XMLID_8936_" class="st62" d="M213.5,151.3c4.8,0.7,8.2,2.9,10.5,5.6c3.9,5.8,2.9,17.6,2.9,17.6s1.4-2.3,3.7-2
			c0.2,0,0.3,0.1,0.5,0.1v0c2.6,2.9,0,9.7-1.9,11.5c-1.8,1.8-2.8,1.8-3.1,1.8c-0.1,0-0.1,0-0.1,0s-0.2,1.3-0.8,3.4
			c-0.7,2.3-1.9,4.2-3.4,5.7l0,0l-0.9,0.9c-0.1,0-0.1,0.1-0.2,0.1l0,0c-0.1,0-0.1,0.1-0.2,0.1c-2.3,1.7-4.9,2.5-6.9,2.2
			c-2-0.3-4.6-1.8-6.9-4.2c-2-2.1-3.8-4.9-4.7-8.1c-0.6-2.1-0.8-3.6-0.8-3.6s0,0-0.1,0c-0.3,0-1.3-0.4-3.1-2.7c-1.3-1.7-3-5.8-3-8.9
			c0,3.1,1.7,7.3,3,8.9c1.8,2.3,2.8,2.6,3.1,2.7c0.1,0,0.1,0,0.1,0s0.2,1.5,0.8,3.6c2,7,7.8,11.8,11.6,12.3l0-24.9l1.6,0.2
			c0,0.1,0,0.1,0,0.2l0,2.2c0,1.4,1.1,2.7,2.4,2.9l5.7,0.8c1.3,0.2,2.4-0.8,2.4-2.2l0-2.2c0-1.4-1.1-2.7-2.4-2.9l-5.7-0.8
			c-0.9-0.1-1.7,0.3-2.1,1.1l-1.8-0.3L213.5,151.3L213.5,151.3z"/>
		<path id="XMLID_8935_" class="st60" d="M203.9,171.1l5.7,0.8c0.6,0.1,1.1,0.7,1.1,1.3l0,2.2c0,0.6-0.5,1.1-1.1,1l-5.7-0.8
			c-0.6-0.1-1.1-0.7-1.1-1.3l0-2.2C202.8,171.5,203.3,171,203.9,171.1L203.9,171.1z"/>
		<path id="XMLID_8934_" class="st54" d="M223.9,156.9c6.9,1.1,7,15.5,7,15.7v0c-0.2,0-0.3-0.1-0.5-0.1c-2.3-0.3-3.7,2-3.7,2
			S227.9,162.7,223.9,156.9C224,156.9,223.9,156.9,223.9,156.9L223.9,156.9z"/>
		<path id="XMLID_8933_" class="st54" d="M203,153.9c-3.9,4.7-2.8,16.8-2.8,16.8s-1.4-2.7-3.7-3c-0.2,0-0.3,0-0.5,0c0,0,0,0,0,0
			C196,167.1,196.2,153.2,203,153.9C203,153.9,203,153.9,203,153.9L203,153.9z"/>
		<path id="XMLID_8929_" class="st63" d="M201.5,171.9l0,2.2c0,1.4,1.1,2.7,2.4,2.9l5.7,0.8c1.3,0.2,2.4-0.8,2.4-2.2l0-2.2
			c0-0.1,0-0.1,0-0.2l1.6,0.2l1.6,0.2c0,0.1,0,0.1,0,0.2l0,2.2c0,1.4,1.1,2.7,2.4,2.9l5.7,0.8c1.3,0.2,2.4-0.8,2.4-2.2l0-2.2
			c0-1.4-1.1-2.7-2.4-2.9l-5.7-0.8c-0.9-0.1-1.7,0.3-2.1,1.1l-1.8-0.3l-1.8-0.3c-0.4-0.9-1.2-1.6-2.1-1.7l-5.7-0.8
			C202.6,169.5,201.5,170.5,201.5,171.9z M216.3,174c0-0.6,0.5-1.1,1.1-1l5.7,0.8c0.6,0.1,1.1,0.7,1.1,1.3l0,2.2
			c0,0.6-0.5,1.1-1.1,1l-5.7-0.8c-0.6-0.1-1.1-0.7-1.1-1.3L216.3,174z M202.8,172.1c0-0.6,0.5-1.1,1.1-1l5.7,0.8
			c0.6,0.1,1.1,0.7,1.1,1.3l0,2.2c0,0.6-0.5,1.1-1.1,1l-5.7-0.8c-0.6-0.1-1.1-0.7-1.1-1.3L202.8,172.1z"/>
		<path id="XMLID_8928_" class="st64" d="M215.9,209.3l1.5,4.9l-2.4,3.8l3.7,0.5l0,0.1l-5.1-0.7l-0.2,0l-5.1-0.7l0,0l3.6,0.5l0.1,0
			l-2.3-4.4l1.5-4.5l0,0l-0.4,1.1c0.3,0.3,0.7,0.5,1.1,0.6l3.2,0.5c0.4,0.1,0.8-0.1,1.1-0.3L215.9,209.3
			C215.9,209.3,215.9,209.3,215.9,209.3L215.9,209.3z"/>
		<path id="XMLID_8927_" class="st65" d="M215.9,209.3l0.4,1.2c-0.3,0.2-0.7,0.4-1.1,0.3l-3.2-0.5c-0.4-0.1-0.8-0.3-1.1-0.6l0.4-1.1
			c0.2,0.1,0.4,0.2,0.7,0.3l3.2,0.5C215.5,209.4,215.7,209.4,215.9,209.3L215.9,209.3z"/>
		<path id="XMLID_8926_" class="st64" d="M213.2,201.3l0.6,0.1l2.9,7l0,0c-0.2,0.4-0.5,0.7-0.8,0.9c0,0,0,0,0,0
			c-0.2,0.1-0.5,0.1-0.8,0.1l-3.2-0.5c-0.2,0-0.5-0.1-0.7-0.3l0,0c-0.4-0.3-0.7-0.7-0.9-1.2L213.2,201.3L213.2,201.3z"/>
		<polygon id="XMLID_8925_" class="st26" points="221.7,194.9 221.7,194.9 222.5,195.3 224.8,200.6 224.9,200.7 224.9,201 
			216.8,208.4 216.7,208.4 213.8,201.4 213.8,201.4 215.2,200.3 220.4,196.1 220.6,195.9 220.6,195.9 220.7,195.8 220.8,195.8 
			221.7,194.9 		"/>
		<polygon id="XMLID_8924_" class="st26" points="205.3,192.6 206.3,193.8 206.6,194.2 211.9,199.8 213.2,201.3 213.2,201.3 
			210.4,207.5 210.3,207.5 202.2,197.8 202.2,197.5 202.3,197.4 204.6,192.8 205.3,192.6 		"/>
		<path id="XMLID_8921_" class="st66" d="M230.7,204l-10.3,14.7l-5.2-0.7l3.7,0.5l24.1,3.4l0-2.6c0,0-4.4-10.6-5.1-11.1
			C237.4,207.9,233.8,205.8,230.7,204L230.7,204z M225.5,201.1l5,2.9C227.9,202.4,225.5,201.1,225.5,201.1L225.5,201.1z"/>
		<path id="XMLID_8920_" class="st66" d="M201.5,197.7L201.5,197.7l-5.1,1.5l10.4,17.6l5.2,0.7l-3.6-0.5l-24.3-3.4l0-2.6
			c0,0,4.4-9.4,5.1-9.7C190,201,200.3,198,201.5,197.7C201.5,197.7,201.5,197.7,201.5,197.7L201.5,197.7z"/>
		<polygon id="XMLID_8919_" class="st49" points="225.5,201.1 230.6,203.9 230.7,204 220.3,218.7 215.1,217.9 217.5,214.1 
			225.5,201.1 		"/>
		<polygon id="XMLID_8918_" class="st49" points="201.6,197.7 209.8,213.1 212.1,217.5 212,217.5 206.9,216.8 196.4,199.2 
			201.5,197.7 201.6,197.7 		"/>
	</g>
	<g id="XMLID_8889_">
		<path id="XMLID_8890_" class="st67" d="M140.6,163.3c0,0.1,0.2,1.1,0.9,2.6l0.1,0.1C140.9,164.5,140.6,163.4,140.6,163.3z"/>
	</g>
	<g id="XMLID_8887_">
		<path id="XMLID_8888_" class="st67" d="M154.7,175.3c-0.2,0-0.3,0-0.5-0.1C154.4,175.3,154.6,175.3,154.7,175.3z"/>
	</g>
	<g id="XMLID_8885_">
		<path id="XMLID_8886_" class="st60" d="M166.2,160.5c0-0.1,0-0.1,0-0.2C166.2,160.4,166.2,160.5,166.2,160.5z"/>
	</g>
	<g id="XMLID_8883_">
		<path id="XMLID_8884_" class="st67" d="M155.1,175.4c-0.1,0-0.2,0-0.3,0C154.8,175.4,154.9,175.4,155.1,175.4z"/>
	</g>
	<g id="XMLID_8881_">
		<path id="XMLID_8882_" class="st67" d="M155.2,175.4c-0.1,0-0.1,0-0.2,0C155.1,175.4,155.2,175.4,155.2,175.4z"/>
	</g>
	<g id="XMLID_6272_">
		<g id="XMLID_8838_">
			<path id="XMLID_8846_" class="st24" d="M295.3,129.2l0.2,92.4l141.1,19.8l-0.2-92.4L295.3,129.2L295.3,129.2z"/>
			<polyline id="XMLID_6275_" class="st59" points="304.5,200 304.5,195.5 304.5,195.5 			"/>
		</g>
		<path id="XMLID_7462_" class="st68" d="M428.2,151.7l-123.5-17c-2.5-0.3-4.6,1.6-4.7,4.3l-1.3,78.3l132.6,18.3l1.3-78.3
			C432.7,154.5,430.7,152,428.2,151.7L428.2,151.7z M424.6,227.2l-118.9-16.4l1.2-68.5l118.9,16.4L424.6,227.2z M424.6,227.2"/>
		<path id="XMLID_7457_" class="st24" d="M352.1,179.2c0.6,0.1,1.1,0.7,1.1,1.4l3.4,0.5l0.1-3.7l-4.6-0.6c-0.6-0.1-1.1-0.7-1.1-1.4
			c0-0.7,0.5-1.2,1.2-1.1l4.6,0.6L357,159l-20.6-2.8l-0.4,22l14.9,2.1C350.9,179.6,351.4,179.1,352.1,179.2L352.1,179.2z
			 M352.1,179.2"/>
		<path id="XMLID_6877_" class="st24" d="M305.7,210.8l118.9,16.4l1.2-68.5l-118.9-16.4L305.7,210.8z M356.1,211.6l-4.6-0.6
			c-0.6-0.1-1.1-0.7-1.1-1.4c0-0.7,0.5-1.2,1.2-1.1l4.6,0.6c0.6,0.1,1.1,0.7,1.1,1.4C357.3,211.3,356.7,211.7,356.1,211.6
			L356.1,211.6z M351.7,198.8c0.6,0.1,1.1,0.7,1.1,1.4l-0.1,4.9c0,0.7-0.5,1.2-1.2,1.1c-0.6-0.1-1.1-0.7-1.1-1.4l0.1-4.9
			C350.6,199.2,351.1,198.7,351.7,198.8L351.7,198.8z M350.7,195l0.1-4.9c0-0.7,0.5-1.2,1.2-1.1c0.6,0.1,1.1,0.7,1.1,1.4l-0.1,4.9
			c0,0.7-0.5,1.2-1.2,1.1C351.2,196.2,350.7,195.6,350.7,195L350.7,195z M365.3,212.9l-4.6-0.6c-0.6-0.1-1.1-0.7-1.1-1.4
			c0-0.7,0.5-1.2,1.2-1.1l4.6,0.6c0.6,0.1,1.1,0.7,1.1,1.4C366.4,212.5,365.9,213,365.3,212.9L365.3,212.9z M384.8,209.5
			c0,0.7-0.5,1.2-1.2,1.1c-0.6-0.1-1.1-0.7-1.1-1.4l0.1-4.9c0-0.7,0.5-1.2,1.2-1.1c0.6,0.1,1.1,0.7,1.1,1.4L384.8,209.5z M385,199.7
			c0,0.7-0.5,1.2-1.2,1.1c-0.6-0.1-1.1-0.7-1.1-1.4l0.1-4.9c0-0.7,0.5-1.2,1.2-1.1c0.6,0.1,1.1,0.7,1.1,1.4L385,199.7z M385.1,189.9
			c0,0.7-0.5,1.2-1.2,1.1c-0.6-0.1-1.1-0.7-1.1-1.4l0.1-4.9c0-0.7,0.5-1.2,1.2-1.1c0.6,0.1,1.1,0.7,1.1,1.4L385.1,189.9z
			 M395.4,193.8l0.5-31.8c0-1.4,1.1-2.3,2.3-2.1l20.6,2.8c1.3,0.2,2.3,1.4,2.2,2.8l-0.9,53.8c0,1.4-1.1,2.3-2.3,2.1l-20.6-2.8
			c-1.3-0.2-2.3-1.4-2.2-2.8L395.4,193.8z M379.6,178.1l4.6,0.6c0.6,0.1,1.1,0.7,1.1,1.4c0,0.7-0.5,1.2-1.2,1.1l-4.6-0.6
			c-0.6-0.1-1.1-0.7-1.1-1.4C378.4,178.5,379,178,379.6,178.1L379.6,178.1z M379,212.4l4.6,0.6c0.6,0.1,1.1,0.7,1.1,1.4
			c0,0.7-0.5,1.2-1.2,1.1l-4.6-0.6c-0.6-0.1-1.1-0.7-1.1-1.4C377.9,212.7,378.4,212.3,379,212.4L379,212.4z M370.5,176.8l4.6,0.6
			c0.6,0.1,1.1,0.7,1.1,1.4c0,0.7-0.5,1.2-1.2,1.1l-4.6-0.6c-0.6-0.1-1.1-0.7-1.1-1.4C369.3,177.2,369.8,176.7,370.5,176.8
			L370.5,176.8z M369.9,211.1l4.6,0.6c0.6,0.1,1.1,0.7,1.1,1.4c0,0.7-0.5,1.2-1.2,1.1l-4.6-0.6c-0.6-0.1-1.1-0.7-1.1-1.4
			C368.7,211.5,369.2,211,369.9,211.1L369.9,211.1z M331.9,153.1c0-1.4,1.1-2.3,2.3-2.1l25.2,3.5c1.3,0.2,2.3,1.4,2.2,2.8l-0.3,18.4
			l4.6,0.6c0.6,0.1,1.1,0.7,1.1,1.4c0,0.7-0.5,1.2-1.2,1.1l-4.6-0.6l-0.1,6.1c0,0.3,0,0.5-0.1,0.7l5.9,6.6c0.5,0.5,0.3,1.4-0.3,1.6
			l-2.3,0.8l1.9,5.2c0.2,0.7,0,1.3-0.6,1.5c-0.2,0-0.3,0.1-0.5,0c-0.4-0.1-0.9-0.4-1-0.9l-1.9-5.2l-2.3,0.8
			c-0.6,0.2-1.3-0.4-1.3-1.1l0.2-7.9c0,0-0.1,0-0.1,0l-5.7-0.8c0,0.7-0.5,1.2-1.2,1.1c-0.6-0.1-1.1-0.7-1.1-1.4l-17.2-2.4
			c-1.3-0.2-2.3-1.4-2.2-2.8L331.9,153.1z M311.3,150.3c0-1.3,1.1-2.3,2.3-2.1l6.9,0.9c1.3,0.2,2.3,1.4,2.2,2.8l-0.9,53.8
			c0,1.4-1.1,2.3-2.3,2.1l-6.9-0.9c-1.3-0.2-2.3-1.4-2.2-2.8L311.3,150.3z M311.3,150.3"/>
		<path id="XMLID_6839_" class="st69" d="M312.6,206.9l6.9,0.9c1.3,0.2,2.3-0.8,2.3-2.1l0.9-53.8c0-1.4-1-2.6-2.2-2.8l-6.9-0.9
			c-1.3-0.2-2.3,0.8-2.3,2.1l-0.9,53.8C310.4,205.5,311.4,206.7,312.6,206.9L312.6,206.9z M315.8,153.4l2.3,0.3
			c1.3,0.2,2.3,1.4,2.2,2.8c0,1.4-1.1,2.3-2.3,2.1l-2.3-0.3c-1.3-0.2-2.3-1.4-2.2-2.8C313.5,154.1,314.6,153.2,315.8,153.4
			L315.8,153.4z M315.7,160.7l2.3,0.3c1.3,0.2,2.3,1.4,2.2,2.8c0,1.3-1.1,2.3-2.3,2.1l-2.3-0.3c-1.3-0.2-2.3-1.4-2.2-2.8
			C313.4,161.5,314.5,160.5,315.7,160.7L315.7,160.7z M315.6,168l2.3,0.3c1.3,0.2,2.3,1.4,2.2,2.8c0,1.4-1.1,2.3-2.3,2.1l-2.3-0.3
			c-1.3-0.2-2.3-1.4-2.2-2.8C313.3,168.8,314.3,167.9,315.6,168L315.6,168z M315.5,175.4l2.3,0.3c1.3,0.2,2.3,1.4,2.2,2.8
			c0,1.4-1.1,2.3-2.3,2.1l-2.3-0.3c-1.3-0.2-2.3-1.4-2.2-2.8C313.2,176.2,314.2,175.2,315.5,175.4L315.5,175.4z M315.3,182.7
			l2.3,0.3c1.3,0.2,2.3,1.4,2.2,2.8c0,1.3-1.1,2.3-2.3,2.1l-2.3-0.3c-1.3-0.2-2.3-1.4-2.2-2.8C313,183.5,314.1,182.5,315.3,182.7
			L315.3,182.7z M312.8,194.6c0-1.4,1.1-2.3,2.3-2.1l2.3,0.3c1.3,0.2,2.3,1.4,2.2,2.8l-0.1,4.9c0,1.4-1.1,2.3-2.3,2.1l-2.3-0.3
			c-1.3-0.2-2.3-1.4-2.2-2.8L312.8,194.6z M312.8,194.6"/>
		<path id="XMLID_6836_" class="st70" d="M315.8,158.3l2.3,0.3c1.3,0.2,2.3-0.8,2.3-2.1c0-1.4-1-2.6-2.2-2.8l-2.3-0.3
			c-1.3-0.2-2.3,0.8-2.3,2.1C313.5,156.8,314.5,158.1,315.8,158.3L315.8,158.3z M315.8,158.3"/>
		<path id="XMLID_6833_" class="st71" d="M315.6,165.6l2.3,0.3c1.3,0.2,2.3-0.8,2.3-2.1c0-1.4-1-2.6-2.2-2.8l-2.3-0.3
			c-1.3-0.2-2.3,0.8-2.3,2.1C313.4,164.2,314.4,165.4,315.6,165.6L315.6,165.6z M315.6,165.6"/>
		<path id="XMLID_6287_" class="st70" d="M315.5,172.9l2.3,0.3c1.3,0.2,2.3-0.8,2.3-2.1c0-1.4-1-2.6-2.2-2.8l-2.3-0.3
			c-1.3-0.2-2.3,0.8-2.3,2.1C313.2,171.5,314.2,172.8,315.5,172.9L315.5,172.9z M315.5,172.9"/>
		<path id="XMLID_6284_" class="st70" d="M315.4,180.3l2.3,0.3c1.3,0.2,2.3-0.8,2.3-2.1c0-1.4-1-2.6-2.2-2.8l-2.3-0.3
			c-1.3-0.2-2.3,0.8-2.3,2.1C313.1,178.9,314.1,180.1,315.4,180.3L315.4,180.3z M315.4,180.3"/>
		<path id="XMLID_6281_" class="st70" d="M315.3,187.6l2.3,0.3c1.3,0.2,2.3-0.8,2.3-2.1c0-1.4-1-2.6-2.2-2.8l-2.3-0.3
			c-1.3-0.2-2.3,0.8-2.3,2.1C313,186.2,314,187.4,315.3,187.6L315.3,187.6z M315.3,187.6"/>
		<path id="XMLID_6278_" class="st71" d="M315,202.3l2.3,0.3c1.3,0.2,2.3-0.8,2.3-2.1l0.1-4.9c0-1.4-1-2.6-2.2-2.8l-2.3-0.3
			c-1.3-0.2-2.3,0.8-2.3,2.1l-0.1,4.9C312.7,200.9,313.7,202.1,315,202.3L315,202.3z M315,202.3"/>
		<path id="XMLID_6274_" class="st69" d="M421.1,165.4c0-1.4-1-2.6-2.2-2.8l-20.6-2.8c-1.3-0.2-2.3,0.8-2.3,2.1l-0.3,14.7l25.2,3.5
			L421.1,165.4z M417.4,177.2l-18.3-2.5c-0.6-0.1-1.1-0.7-1.1-1.4c0-0.7,0.5-1.2,1.2-1.1l18.3,2.5c0.6,0.1,1.1,0.7,1.1,1.4
			C418.6,176.8,418.1,177.3,417.4,177.2L417.4,177.2z M417.5,172.3l-18.3-2.5c-0.6-0.1-1.1-0.7-1.1-1.4c0-0.7,0.5-1.2,1.2-1.1
			l18.3,2.5c0.6,0.1,1.1,0.7,1.1,1.4C418.7,171.9,418.2,172.4,417.5,172.3L417.5,172.3z M417.6,167.4l-18.3-2.5
			c-0.6-0.1-1.1-0.7-1.1-1.4c0-0.7,0.5-1.2,1.2-1.1l18.3,2.5c0.6,0.1,1.1,0.7,1.1,1.4C418.8,167,418.2,167.5,417.6,167.4
			L417.6,167.4z M417.6,167.4"/>
		<path id="XMLID_6321_" class="st69" d="M397.2,218.5l20.6,2.8c1.3,0.2,2.3-0.8,2.3-2.1l0.4-22l-25.2-3.5l-0.4,22
			C395,217.1,396,218.4,397.2,218.5L397.2,218.5z M407.9,197.9l9.1,1.3c0.6,0.1,1.1,0.7,1.1,1.4c0,0.7-0.5,1.2-1.2,1.1l-9.1-1.3
			c-0.6-0.1-1.1-0.7-1.1-1.4C406.8,198.3,407.3,197.9,407.9,197.9L407.9,197.9z M407.8,202.8l9.1,1.3c0.6,0.1,1.1,0.7,1.1,1.4
			c0,0.7-0.5,1.2-1.2,1.1l-9.1-1.3c-0.6-0.1-1.1-0.7-1.1-1.4C406.7,203.2,407.2,202.8,407.8,202.8L407.8,202.8z M407.7,207.7
			l9.1,1.3c0.6,0.1,1.1,0.7,1.1,1.4c0,0.7-0.5,1.2-1.2,1.1l-9.1-1.3c-0.6-0.1-1.1-0.7-1.1-1.4C406.6,208.1,407.1,207.6,407.7,207.7
			L407.7,207.7z M407.7,212.6l9.1,1.3c0.6,0.1,1.1,0.7,1.1,1.4c0,0.7-0.5,1.2-1.2,1.1l-9.1-1.3c-0.6-0.1-1.1-0.7-1.1-1.4
			C406.5,213,407,212.5,407.7,212.6L407.7,212.6z M403.3,197.3c0.6,0.1,1.1,0.7,1.1,1.4c0,0.7-0.5,1.2-1.2,1.1
			c-0.6-0.1-1.1-0.7-1.1-1.4C402.2,197.7,402.7,197.2,403.3,197.3L403.3,197.3z M403.3,202.2c0.6,0.1,1.1,0.7,1.1,1.4
			c0,0.7-0.5,1.2-1.2,1.1c-0.6-0.1-1.1-0.7-1.1-1.4C402.1,202.6,402.6,202.1,403.3,202.2L403.3,202.2z M403.2,207.1
			c0.6,0.1,1.1,0.7,1.1,1.4c0,0.7-0.5,1.2-1.2,1.1c-0.6-0.1-1.1-0.7-1.1-1.4C402,207.5,402.5,207,403.2,207.1L403.2,207.1z
			 M403.1,212c0.6,0.1,1.1,0.7,1.1,1.4c0,0.7-0.5,1.2-1.2,1.1c-0.6-0.1-1.1-0.7-1.1-1.4C401.9,212.4,402.5,211.9,403.1,212
			L403.1,212z M398.8,196.7c0.6,0.1,1.1,0.7,1.1,1.4c0,0.7-0.5,1.2-1.2,1.1c-0.6-0.1-1.1-0.7-1.1-1.4
			C397.6,197.1,398.1,196.6,398.8,196.7L398.8,196.7z M398.7,201.6c0.6,0.1,1.1,0.7,1.1,1.4c0,0.7-0.5,1.2-1.2,1.1
			c-0.6-0.1-1.1-0.7-1.1-1.4C397.5,202,398.1,201.5,398.7,201.6L398.7,201.6z M398.6,206.5c0.6,0.1,1.1,0.7,1.1,1.4
			c0,0.7-0.5,1.2-1.2,1.1c-0.6-0.1-1.1-0.7-1.1-1.4C397.4,206.9,398,206.4,398.6,206.5L398.6,206.5z M398.5,211.4
			c0.6,0.1,1.1,0.7,1.1,1.4c0,0.7-0.5,1.2-1.2,1.1c-0.6-0.1-1.1-0.7-1.1-1.4C397.4,211.8,397.9,211.3,398.5,211.4L398.5,211.4z
			 M398.5,211.4"/>
		<path id="XMLID_7446_" class="st71" d="M420.8,180.1l-25.2-3.5l-0.3,17.1l25.2,3.5L420.8,180.1z M401.1,192.1l-2.3-0.3
			c-0.6-0.1-1.1-0.7-1.1-1.4c0-0.7,0.5-1.2,1.2-1.1l2.3,0.3c0.6,0.1,1.1,0.7,1.1,1.4C402.3,191.7,401.8,192.2,401.1,192.1
			L401.1,192.1z M401.2,187.2l-2.3-0.3c-0.6-0.1-1.1-0.7-1.1-1.4c0-0.7,0.5-1.2,1.2-1.1l2.3,0.3c0.6,0.1,1.1,0.7,1.1,1.4
			C402.4,186.8,401.9,187.3,401.2,187.2L401.2,187.2z M401.3,182.3L399,182c-0.6-0.1-1.1-0.7-1.1-1.4c0-0.7,0.5-1.2,1.2-1.1l2.3,0.3
			c0.6,0.1,1.1,0.7,1.1,1.4C402.5,181.9,401.9,182.4,401.3,182.3L401.3,182.3z M417.1,194.3l-11.4-1.6c-0.6-0.1-1.1-0.7-1.1-1.4
			c0-0.7,0.5-1.2,1.2-1.1l11.4,1.6c0.6,0.1,1.1,0.7,1.1,1.4C418.3,193.9,417.8,194.4,417.1,194.3L417.1,194.3z M417.2,189.4
			l-11.4-1.6c-0.6-0.1-1.1-0.7-1.1-1.4c0-0.7,0.5-1.2,1.2-1.1l11.4,1.6c0.6,0.1,1.1,0.7,1.1,1.4C418.4,189,417.9,189.5,417.2,189.4
			L417.2,189.4z M417.3,184.5l-11.4-1.6c-0.6-0.1-1.1-0.7-1.1-1.4c0-0.7,0.5-1.2,1.2-1.1l11.4,1.6c0.6,0.1,1.1,0.7,1.1,1.4
			C418.5,184.1,417.9,184.6,417.3,184.5L417.3,184.5z M417.3,184.5"/>
		<path id="XMLID_7476_" class="st71" d="M417.6,164.9l-13.7-1.9c0.6,0.1,1.1,0.7,1.1,1.4c0,0.7-0.5,1.2-1.2,1.1l13.7,1.9
			c0.6,0.1,1.2-0.4,1.2-1.1C418.8,165.7,418.3,165,417.6,164.9L417.6,164.9z M417.6,164.9"/>
		<path id="XMLID_7479_" class="st71" d="M400.5,163.8c0-0.7,0.5-1.2,1.2-1.1l-2.3-0.3c-0.6-0.1-1.2,0.4-1.2,1.1
			c0,0.7,0.5,1.3,1.1,1.4l2.3,0.3C401,165.1,400.5,164.5,400.5,163.8L400.5,163.8z M400.5,163.8"/>
		<path id="XMLID_7485_" class="st71" d="M417.5,174.7l-9.1-1.3c0.6,0.1,1.1,0.7,1.1,1.4c0,0.7-0.5,1.2-1.2,1.1l9.1,1.3
			c0.6,0.1,1.2-0.4,1.2-1.1C418.6,175.4,418.1,174.8,417.5,174.7L417.5,174.7z M417.5,174.7"/>
		<path id="XMLID_7491_" class="st71" d="M404.9,174.2c0-0.7,0.5-1.2,1.2-1.1l-6.9-0.9c-0.6-0.1-1.2,0.4-1.2,1.1
			c0,0.7,0.5,1.3,1.1,1.4l6.9,0.9C405.4,175.5,404.9,174.9,404.9,174.2L404.9,174.2z M404.9,174.2"/>
		<path id="XMLID_7496_" class="st69" d="M417.4,182.1l-11.4-1.6c-0.6-0.1-1.2,0.4-1.2,1.1c0,0.7,0.5,1.3,1.1,1.4l11.4,1.6
			c0.6,0.1,1.2-0.4,1.2-1.1C418.5,182.8,418,182.2,417.4,182.1L417.4,182.1z M417.4,182.1"/>
		<path id="XMLID_7500_" class="st71" d="M411.8,170.3c0-0.7,0.5-1.2,1.2-1.1l-13.7-1.9c-0.6-0.1-1.2,0.4-1.2,1.1
			c0,0.7,0.5,1.3,1.1,1.4l13.7,1.9C412.3,171.6,411.8,171,411.8,170.3L411.8,170.3z M411.8,170.3"/>
		<path id="XMLID_7611_" class="st71" d="M417.6,169.8l-2.3-0.3c0.6,0.1,1.1,0.7,1.1,1.4c0,0.7-0.5,1.2-1.2,1.1l2.3,0.3
			c0.6,0.1,1.2-0.4,1.2-1.1C418.7,170.5,418.2,169.9,417.6,169.8L417.6,169.8z M417.6,169.8"/>
		<path id="XMLID_7943_" class="st70" d="M405,164.4c0-0.7-0.5-1.3-1.1-1.4l-2.3-0.3c-0.6-0.1-1.2,0.4-1.2,1.1
			c0,0.7,0.5,1.3,1.1,1.4l2.3,0.3C404.5,165.6,405,165.1,405,164.4L405,164.4z M405,164.4"/>
		<path id="XMLID_7998_" class="st70" d="M409.5,174.9c0-0.7-0.5-1.3-1.1-1.4l-2.3-0.3c-0.6-0.1-1.2,0.4-1.2,1.1
			c0,0.7,0.5,1.3,1.1,1.4l2.3,0.3C408.9,176,409.4,175.5,409.5,174.9L409.5,174.9z M409.5,174.9"/>
		<path id="XMLID_8020_" class="st70" d="M401.3,179.9l-2.3-0.3c-0.6-0.1-1.2,0.4-1.2,1.1c0,0.7,0.5,1.3,1.1,1.4l2.3,0.3
			c0.6,0.1,1.2-0.4,1.2-1.1C402.5,180.6,402,180,401.3,179.9L401.3,179.9z M401.3,179.9"/>
		<path id="XMLID_8094_" class="st69" d="M417.3,187l-11.4-1.6c-0.6-0.1-1.2,0.4-1.2,1.1c0,0.7,0.5,1.3,1.1,1.4l11.4,1.6
			c0.6,0.1,1.2-0.4,1.2-1.1C418.4,187.7,417.9,187.1,417.3,187L417.3,187z M417.3,187"/>
		<path id="XMLID_8097_" class="st70" d="M401.3,184.8l-2.3-0.3c-0.6-0.1-1.2,0.4-1.2,1.1c0,0.7,0.5,1.3,1.1,1.4l2.3,0.3
			c0.6,0.1,1.2-0.4,1.2-1.1C402.4,185.5,401.9,184.9,401.3,184.8L401.3,184.8z M401.3,184.8"/>
		<path id="XMLID_8100_" class="st69" d="M417.2,191.9l-11.4-1.6c-0.6-0.1-1.2,0.4-1.2,1.1c0,0.7,0.5,1.3,1.1,1.4l11.4,1.6
			c0.6,0.1,1.2-0.4,1.2-1.1C418.3,192.6,417.8,192,417.2,191.9L417.2,191.9z M417.2,191.9"/>
		<path id="XMLID_8103_" class="st70" d="M401.2,189.7l-2.3-0.3c-0.6-0.1-1.2,0.4-1.2,1.1c0,0.7,0.5,1.3,1.1,1.4l2.3,0.3
			c0.6,0.1,1.2-0.4,1.2-1.1C402.3,190.4,401.8,189.7,401.2,189.7L401.2,189.7z M401.2,189.7"/>
		<path id="XMLID_8106_" class="st70" d="M398.6,204c0.6,0.1,1.2-0.4,1.2-1.1c0-0.7-0.5-1.3-1.1-1.4c-0.6-0.1-1.2,0.4-1.2,1.1
			C397.5,203.3,398,203.9,398.6,204L398.6,204z M398.6,204"/>
		<path id="XMLID_8109_" class="st70" d="M398.7,199.1c0.6,0.1,1.2-0.4,1.2-1.1c0-0.7-0.5-1.3-1.1-1.4c-0.6-0.1-1.2,0.4-1.2,1.1
			C397.6,198.4,398.1,199,398.7,199.1L398.7,199.1z M398.7,199.1"/>
		<path id="XMLID_8112_" class="st70" d="M398.5,213.8c0.6,0.1,1.2-0.4,1.2-1.1c0-0.7-0.5-1.3-1.1-1.4s-1.2,0.4-1.2,1.1
			C397.3,213.1,397.8,213.7,398.5,213.8L398.5,213.8z M398.5,213.8"/>
		<path id="XMLID_8115_" class="st70" d="M398.6,208.9c0.6,0.1,1.2-0.4,1.2-1.1c0-0.7-0.5-1.3-1.1-1.4c-0.6-0.1-1.2,0.4-1.2,1.1
			C397.4,208.2,397.9,208.8,398.6,208.9L398.6,208.9z M398.6,208.9"/>
		<path id="XMLID_8130_" class="st71" d="M403.2,204.7c0.6,0.1,1.2-0.4,1.2-1.1c0-0.7-0.5-1.3-1.1-1.4c-0.6-0.1-1.2,0.4-1.2,1.1
			C402.1,203.9,402.6,204.6,403.2,204.7L403.2,204.7z M403.2,204.7"/>
		<path id="XMLID_8134_" class="st71" d="M403.3,199.8c0.6,0.1,1.2-0.4,1.2-1.1c0-0.7-0.5-1.3-1.1-1.4c-0.6-0.1-1.2,0.4-1.2,1.1
			C402.2,199.1,402.7,199.7,403.3,199.8L403.3,199.8z M403.3,199.8"/>
		<path id="XMLID_8139_" class="st71" d="M403,214.4c0.6,0.1,1.2-0.4,1.2-1.1c0-0.7-0.5-1.3-1.1-1.4c-0.6-0.1-1.2,0.4-1.2,1.1
			C401.9,213.7,402.4,214.4,403,214.4L403,214.4z M403,214.4"/>
		<path id="XMLID_8143_" class="st71" d="M403.1,209.5c0.6,0.1,1.2-0.4,1.2-1.1c0-0.7-0.5-1.3-1.1-1.4c-0.6-0.1-1.2,0.4-1.2,1.1
			C402,208.8,402.5,209.5,403.1,209.5L403.1,209.5z M403.1,209.5"/>
		<path id="XMLID_8146_" class="st71" d="M407.8,205.3l9.1,1.3c0.6,0.1,1.2-0.4,1.2-1.1c0-0.7-0.5-1.3-1.1-1.4l-9.1-1.3
			c-0.6-0.1-1.2,0.4-1.2,1.1C406.7,204.6,407.2,205.2,407.8,205.3L407.8,205.3z M407.8,205.3"/>
		<path id="XMLID_8149_" class="st71" d="M407.9,200.4l9.1,1.3c0.6,0.1,1.2-0.4,1.2-1.1c0-0.7-0.5-1.3-1.1-1.4l-9.1-1.3
			c-0.6-0.1-1.2,0.4-1.2,1.1C406.7,199.7,407.2,200.3,407.9,200.4L407.9,200.4z M407.9,200.4"/>
		<path id="XMLID_8152_" class="st71" d="M407.6,215.1l9.1,1.3c0.6,0.1,1.2-0.4,1.2-1.1c0-0.7-0.5-1.3-1.1-1.4l-9.1-1.3
			c-0.6-0.1-1.2,0.4-1.2,1.1C406.5,214.4,407,215,407.6,215.1L407.6,215.1z M407.6,215.1"/>
		<path id="XMLID_8155_" class="st71" d="M407.7,210.2l9.1,1.3c0.6,0.1,1.2-0.4,1.2-1.1c0-0.7-0.5-1.3-1.1-1.4l-9.1-1.3
			c-0.6-0.1-1.2,0.4-1.2,1.1C406.6,209.5,407.1,210.1,407.7,210.2L407.7,210.2z M407.7,210.2"/>
		<path id="XMLID_8158_" class="st70" d="M416.4,170.9c0-0.7-0.5-1.3-1.1-1.4l-2.3-0.3c-0.6-0.1-1.2,0.4-1.2,1.1
			c0,0.7,0.5,1.3,1.1,1.4l2.3,0.3C415.9,172.1,416.4,171.6,416.4,170.9L416.4,170.9z M416.4,170.9"/>
		<path id="XMLID_8177_" class="st72" d="M333.7,182.8l17.2,2.4l0.1-4.9l-14.9-2.1l0.4-22L357,159l-0.3,15.9
			c0.6,0.1,1.1,0.7,1.1,1.4c0,0.7-0.5,1.2-1.2,1.1l-0.1,3.7l-3.4-0.5l-0.1,4.9l5.7,0.8c0,0,0.1,0,0.1,0l0-1.5c0-0.8,1-1.2,1.5-0.5
			l0.5,0.6c0.1-0.2,0.1-0.5,0.1-0.7l0.1-6.1c-0.6-0.1-1.1-0.7-1.1-1.4c0-0.7,0.5-1.2,1.2-1.1l0.3-18.4c0-1.4-1-2.6-2.2-2.8
			l-25.2-3.5c-1.3-0.2-2.3,0.8-2.3,2.1l-0.5,26.9C331.4,181.4,332.4,182.6,333.7,182.8L333.7,182.8z M333.7,182.8"/>
		<path id="XMLID_8180_" class="st71" d="M351.8,196.3c0.6,0.1,1.2-0.4,1.2-1.1l0.1-4.9c0-0.7-0.5-1.3-1.1-1.4
			c-0.6-0.1-1.2,0.4-1.2,1.1l-0.1,4.9C350.7,195.6,351.2,196.2,351.8,196.3L351.8,196.3z M351.8,196.3"/>
		<path id="XMLID_8183_" class="st71" d="M379,214.8l4.6,0.6c0.6,0.1,1.2-0.4,1.2-1.1c0-0.7-0.5-1.3-1.1-1.4l-4.6-0.6
			c-0.6-0.1-1.2,0.4-1.2,1.1C377.8,214.1,378.3,214.7,379,214.8L379,214.8z M379,214.8"/>
		<path id="XMLID_8186_" class="st71" d="M383.8,203.2c-0.6-0.1-1.2,0.4-1.2,1.1l-0.1,4.9c0,0.7,0.5,1.3,1.1,1.4
			c0.6,0.1,1.2-0.4,1.2-1.1l0.1-4.9C384.9,203.9,384.4,203.3,383.8,203.2L383.8,203.2z M383.8,203.2"/>
		<path id="XMLID_8189_" class="st71" d="M379.6,180.5l4.6,0.6c0.6,0.1,1.2-0.4,1.2-1.1c0-0.7-0.5-1.3-1.1-1.4l-4.6-0.6
			c-0.6-0.1-1.2,0.4-1.2,1.1C378.4,179.8,378.9,180.5,379.6,180.5L379.6,180.5z M379.6,180.5"/>
		<path id="XMLID_8192_" class="st71" d="M384.1,183.6c-0.6-0.1-1.2,0.4-1.2,1.1l-0.1,4.9c0,0.7,0.5,1.3,1.1,1.4
			c0.6,0.1,1.2-0.4,1.2-1.1l0.1-4.9C385.2,184.3,384.7,183.7,384.1,183.6L384.1,183.6z M384.1,183.6"/>
		<path id="XMLID_8195_" class="st71" d="M365.3,210.5l-4.6-0.6c-0.6-0.1-1.2,0.4-1.2,1.1c0,0.7,0.5,1.3,1.1,1.4l4.6,0.6
			c0.6,0.1,1.2-0.4,1.2-1.1C366.4,211.2,365.9,210.5,365.3,210.5L365.3,210.5z M365.3,210.5"/>
		<path id="XMLID_8198_" class="st71" d="M352.1,179.2c-0.6-0.1-1.2,0.4-1.2,1.1l-0.1,4.9c0,0.7,0.5,1.3,1.1,1.4
			c0.6,0.1,1.2-0.4,1.2-1.1l0.1-4.9C353.2,179.9,352.7,179.3,352.1,179.2L352.1,179.2z M352.1,179.2"/>
		<path id="XMLID_8201_" class="st71" d="M356.1,209.2l-4.6-0.6c-0.6-0.1-1.2,0.4-1.2,1.1c0,0.7,0.5,1.3,1.1,1.4l4.6,0.6
			c0.6,0.1,1.2-0.4,1.2-1.1C357.3,209.9,356.8,209.3,356.1,209.2L356.1,209.2z M356.1,209.2"/>
		<path id="XMLID_8204_" class="st71" d="M350.5,204.7c0,0.7,0.5,1.3,1.1,1.4c0.6,0.1,1.2-0.4,1.2-1.1l0.1-4.9
			c0-0.7-0.5-1.3-1.1-1.4c-0.6-0.1-1.2,0.4-1.2,1.1L350.5,204.7z M350.5,204.7"/>
		<path id="XMLID_8207_" class="st71" d="M383.9,193.4c-0.6-0.1-1.2,0.4-1.2,1.1l-0.1,4.9c0,0.7,0.5,1.3,1.1,1.4
			c0.6,0.1,1.2-0.4,1.2-1.1l0.1-4.9C385.1,194.1,384.6,193.5,383.9,193.4L383.9,193.4z M383.9,193.4"/>
		<path id="XMLID_8210_" class="st71" d="M370.4,179.3l4.6,0.6c0.6,0.1,1.2-0.4,1.2-1.1c0-0.7-0.5-1.3-1.1-1.4l-4.6-0.6
			c-0.6-0.1-1.2,0.4-1.2,1.1C369.3,178.6,369.8,179.2,370.4,179.3L370.4,179.3z M370.4,179.3"/>
		<path id="XMLID_8213_" class="st71" d="M351,175.4c0,0.7,0.5,1.3,1.1,1.4l4.6,0.6c0.6,0.1,1.2-0.4,1.2-1.1c0-0.7-0.5-1.3-1.1-1.4
			l-4.6-0.6C351.5,174.2,351,174.7,351,175.4L351,175.4z M351,175.4"/>
		<path id="XMLID_8216_" class="st71" d="M369.8,213.5l4.6,0.6c0.6,0.1,1.2-0.4,1.2-1.1c0-0.7-0.5-1.3-1.1-1.4l-4.6-0.6
			c-0.6-0.1-1.2,0.4-1.2,1.1C368.7,212.8,369.2,213.4,369.8,213.5L369.8,213.5z M369.8,213.5"/>
		<path id="XMLID_8219_" class="st71" d="M360.1,176.6c0,0.7,0.5,1.3,1.1,1.4l4.6,0.6c0.6,0.1,1.2-0.4,1.2-1.1
			c0-0.7-0.5-1.3-1.1-1.4l-4.6-0.6C360.7,175.5,360.2,176,360.1,176.6L360.1,176.6z M360.1,176.6"/>
		<path id="XMLID_8222_" class="st68" d="M359,184.8l0,1.5l-0.2,7.9c0,0.7,0.7,1.3,1.3,1.1l2.3-0.8l1.9,5.2c0.2,0.5,0.6,0.8,1,0.9
			c0.2,0,0.3,0,0.5,0c0.6-0.2,0.9-0.9,0.6-1.5l-1.9-5.2l2.3-0.8c0.6-0.2,0.8-1.1,0.3-1.6l-5.9-6.6l-0.5-0.6
			C359.9,183.7,359,184,359,184.8L359,184.8z M359,184.8"/>
	</g>
	<g id="XMLID_8961_">
		<path id="XMLID_8981_" class="st73" d="M257.9,143c-0.1,0-0.1,0-0.1,0c-0.1,0.1-0.3,0.4-0.4,1.7c0,0.3,0,0.6,0,0.9
			c0,1.1,0,2.3-0.7,2.6c-0.1,0-0.3,0.1-0.4,0c-0.5-0.1-1-0.6-1.4-1c-0.3-0.4-0.6-0.8-0.9-1.3c-0.3-0.5-0.6-1-0.9-1.2l-0.2-0.1
			c-0.1,0-0.2,0.2-0.2,0.3c-0.1,0.2-0.2,0.3-0.4,0.5c-0.5,0.6-1,0.9-1.8,0.8c-0.1,0-0.2,0-0.4-0.1c-0.8-0.2-1.6-0.6-2.5-1
			c2,6.7,5.1,18.9,5.1,29.4l2.2,0.3l2.5,0.4c-0.1-10.9,3.2-22.5,5.1-28.5c-1-0.9-2-1.8-3.1-2.6c-0.1-0.1-0.3-0.2-0.4-0.3
			C258.7,143.5,258.2,143,257.9,143L257.9,143z M235.9,133.6l-2.2-0.3c0-19.2,14.5-21.4,20.1-20.6l0,2.4
			C248.8,114.3,235.9,116.3,235.9,133.6L235.9,133.6z M254.8,110.9c-12.5-1.8-22.7,7.8-22.7,21.3c0,4.1,1,8.1,2.6,11.7
			c3.8,10.8,12.1,16.3,12.1,29.8l0.9,0.1l3.3,0.5c0-11.1-3.5-24.1-5.4-30.3c-1.2-0.7-2.2-1.5-3-2.3l0.6-0.9c0.5,0.5,1.2,1,1.9,1.5
			c-0.4-1.2-0.6-1.8-0.6-1.9l1.5-0.4c0,0,0.5,1.4,1.2,3.6c1.1,0.6,2.2,1.1,3.1,1.4c0.1,0,0.2,0,0.3,0.1c0.3,0,0.5-0.1,0.9-0.5
			c0.1-0.1,0.2-0.3,0.3-0.4c0.2-0.3,0.5-0.8,1.1-0.7c0.2,0,0.4,0.1,0.7,0.3c0.5,0.4,0.9,1,1.3,1.6c0.2,0.4,0.4,0.8,0.7,1
			c0.4,0.4,0.6,0.5,0.6,0.6c0.1-0.2,0.1-1.1,0.1-1.6c0-0.3,0-0.7,0-1c0-0.7,0.1-2.1,0.9-2.5c0.2-0.1,0.5-0.2,0.7-0.1
			c0.6,0.1,1.3,0.6,1.8,1c0.1,0.1,0.3,0.2,0.4,0.3c1.1,0.8,2,1.6,2.9,2.5c0.6-1.8,1-2.9,1.1-3l1.5,0.9c0,0-0.5,1.3-1.2,3.4
			c0.3,0.3,0.6,0.5,0.8,0.7l-0.6,0.9c-0.2-0.2-0.4-0.4-0.6-0.5c-1.9,6-5,17.1-4.9,27.5l2.8,0.4l1.8,0.3c0-17.6,13.9-17.6,13.9-37.5
			C277.5,125.1,267.3,112.7,254.8,110.9L254.8,110.9z"/>
		<path id="XMLID_8980_" class="st74" d="M254.9,174.8l2.5,0.4c0,0,0,0,0,0l1.6,0.2l2.8,0.4c3,0.4,5.5,3.4,5.5,6.7l0,11.8
			c0,3.3-2.5,5.6-5.5,5.1l-14.1-2c-3-0.4-5.5-3.4-5.5-6.7c0,3.3,2.5,6.3,5.5,6.7l7.2,1L254.9,174.8L254.9,174.8z"/>
		<path id="XMLID_8977_" class="st24" d="M262.5,146.7c-2,6-5.2,17.7-5.1,28.5c0,0,0,0,0,0l1.6,0.2c-0.1-10.3,2.9-21.4,4.9-27.5
			c-0.4-0.4-0.9-0.8-1.3-1.2C262.6,146.7,262.6,146.7,262.5,146.7L262.5,146.7z M264,142.6c0,0-0.4,1.1-1.1,3
			c0.1,0.1,0.3,0.2,0.4,0.4c0.3,0.3,0.7,0.6,1,0.9c0.7-2.1,1.2-3.4,1.2-3.4L264,142.6L264,142.6z"/>
		<path id="XMLID_8974_" class="st24" d="M245.6,144c1.9,6.1,5.5,19.2,5.4,30.3l1.6,0.2c0-10.5-3.1-22.6-5.1-29.4
			C247,144.8,246.3,144.4,245.6,144L245.6,144z M246,140l-1.5,0.4c0,0,0.2,0.7,0.6,1.9c0.7,0.5,1.4,0.9,2.1,1.3
			C246.5,141.4,246,140.1,246,140L246,140z"/>
		<path id="XMLID_8973_" class="st24" d="M257.8,141.8c0.6,0.1,1.3,0.6,1.8,1c0.1,0.1,0.3,0.2,0.4,0.3c1.1,0.8,2,1.6,2.9,2.5
			c0.1,0.1,0.3,0.2,0.4,0.4c0.3,0.3,0.7,0.6,1,0.9c0.3,0.3,0.6,0.5,0.8,0.7l-0.6,0.9c-0.2-0.2-0.4-0.4-0.6-0.5
			c-0.4-0.4-0.9-0.8-1.3-1.2c0,0-0.1-0.1-0.1-0.1c-1-0.9-2-1.8-3.1-2.6c-0.1-0.1-0.3-0.2-0.4-0.3c-0.3-0.3-0.9-0.7-1.2-0.8
			c-0.1,0-0.1,0-0.1,0c-0.1,0.1-0.3,0.4-0.4,1.7c0,0.3,0,0.6,0,0.9c0,1.1,0,2.3-0.7,2.6c-0.1,0-0.3,0.1-0.4,0c-0.5-0.1-1-0.6-1.4-1
			c-0.3-0.4-0.6-0.8-0.9-1.3c-0.3-0.5-0.6-1-0.9-1.2l-0.2-0.1c-0.1,0-0.2,0.2-0.2,0.3c-0.1,0.2-0.2,0.3-0.4,0.5
			c-0.5,0.6-1,0.9-1.8,0.8c-0.1,0-0.2,0-0.4-0.1c-0.8-0.2-1.6-0.6-2.5-1c-0.7-0.3-1.4-0.7-2-1.2c-1.2-0.7-2.2-1.5-3-2.3l0.6-0.9
			c0.5,0.5,1.2,1,1.9,1.5c0.7,0.5,1.4,0.9,2.1,1.3c1.1,0.6,2.2,1.1,3.1,1.4c0.1,0,0.2,0,0.3,0.1c0.3,0,0.5-0.1,0.9-0.5
			c0.1-0.1,0.2-0.3,0.3-0.4c0.2-0.3,0.5-0.8,1.1-0.7c0.2,0,0.4,0.1,0.7,0.3c0.5,0.4,0.9,1,1.3,1.6c0.2,0.4,0.4,0.8,0.7,1
			c0.4,0.4,0.6,0.5,0.6,0.6c0.1-0.2,0.1-1.1,0.1-1.6c0-0.3,0-0.7,0-1c0-0.7,0.1-2.1,0.9-2.5C257.3,141.8,257.6,141.7,257.8,141.8
			L257.8,141.8z"/>
		<path id="XMLID_8967_" class="st41" d="M254.9,195.3l-11.2-1.6l0-2.4l11.2,1.6L254.9,195.3L254.9,195.3z M254.9,190.4l-11.2-1.6
			l0-2.4l11.2,1.6L254.9,190.4L254.9,190.4z M254.9,185.4l-11.2-1.6l0-2.4l11.2,1.6L254.9,185.4L254.9,185.4z M254.9,180.5
			l-11.2-1.6l0-2.4l11.2,1.6L254.9,180.5L254.9,180.5z M247.7,173.8c-3-0.4-5.5,1.9-5.5,5.1l0,11.8c0,3.3,2.5,6.3,5.5,6.7l7.2,1
			l0-23.6l-2.2-0.3l-1.6-0.2L247.7,173.8L247.7,173.8z"/>
		<polygon id="XMLID_8966_" class="st74" points="243.7,176.5 254.9,178.1 254.9,180.5 243.7,178.9 243.7,176.5 		"/>
		<polygon id="XMLID_8965_" class="st74" points="243.7,181.5 254.9,183 254.9,185.4 243.7,183.8 243.7,181.5 		"/>
		<polygon id="XMLID_8964_" class="st74" points="243.7,186.4 254.9,188 254.9,190.4 243.7,188.8 243.7,186.4 		"/>
		<polygon id="XMLID_8963_" class="st74" points="243.7,191.4 254.9,192.9 254.9,195.3 243.7,193.7 243.7,191.4 		"/>
		<path id="XMLID_8962_" class="st24" d="M253.8,112.6l0,2.4c-5-0.7-17.9,1.3-17.9,18.6l-2.2-0.3C233.7,114,248.2,111.8,253.8,112.6
			L253.8,112.6z"/>
	</g>
</g>
</svg>
