<?xml version="1.0" encoding="utf-8"?>
<!-- Generator: Adobe Illustrator 19.0.0, SVG Export Plug-In . SVG Version: 6.00 Build 0)  -->
<svg version="1.1" id="Capa_1" xmlns="http://www.w3.org/2000/svg" xmlns:xlink="http://www.w3.org/1999/xlink" x="0px" y="0px"
	 viewBox="0 0 165.4654 176.1317" style="enable-background:new 0 0 165.4654 176.1317;" xml:space="preserve">
<style type="text/css">
	.st0{fill:#FFFFFF;}
	.st1{fill:#605553;}
	.st2{fill:#F2EDD8;}
	.st3{fill:#E2E2E2;}
	.st4{opacity:0.13;fill:#FFFFFF;}
</style>
<g id="XMLID_1_">
	<path id="XMLID_1421_" class="st0" d="M139.6466,90.3304H25.8196c-3.5148,0-6.3906-2.8758-6.3906-6.3906V6.3906
		C19.429,2.8758,22.3048,0,25.8196,0h113.8265c3.5151,0,6.3911,2.876,6.3911,6.3911v77.5487
		C146.0372,87.4546,143.1614,90.3304,139.6466,90.3304z"/>
	<g id="XMLID_1419_">
		<path id="XMLID_1420_" class="st1" d="M131.3744,81.0087c-32.4581,1.4177-64.8251,1.4177-97.2832,0
			c-2.5619-0.1247-4.9293-2.4735-5.2108-5.2064c-1.7833-20.6105-1.7833-40.6637,0-61.2743
			c0.2815-2.7328,2.6489-5.0816,5.2108-5.2063c32.4581-1.4177,64.8251-1.4177,97.2832,0c2.5614,0.1247,4.9293,2.4735,5.2109,5.2063
			c1.7832,20.6107,1.7832,40.6638,0,61.2743C136.3037,78.5352,133.9359,80.8835,131.3744,81.0087z"/>
	</g>
	<g id="XMLID_1390_">
		<path id="XMLID_1416_" class="st0" d="M156.3062,140.2554H9.1595c-1.8042,0-3.2803-1.4761-3.2803-3.2803V95.5105
			c0-1.8044,1.4764-3.2808,3.2808-3.2808h147.1461c1.8042,0,3.2803,1.4761,3.2803,3.2803v41.4652
			C159.5864,138.7793,158.1103,140.2554,156.3062,140.2554z"/>
		<g id="XMLID_1391_">
			<rect id="XMLID_1415_" x="16.0933" y="96.6166" class="st1" width="14.3532" height="12.0068"/>
			<g id="XMLID_1410_">
				<rect id="XMLID_1414_" x="12.643" y="111.7208" class="st1" width="25.4625" height="3.0511"/>
				<rect id="XMLID_1413_" x="12.643" y="118.7721" class="st1" width="25.4625" height="3.0511"/>
				<rect id="XMLID_1412_" x="12.643" y="125.8239" class="st1" width="25.4625" height="3.0511"/>
				<rect id="XMLID_1411_" x="12.643" y="132.8754" class="st1" width="25.4625" height="3.0511"/>
			</g>
			<g id="XMLID_1405_">
				<rect id="XMLID_1409_" x="43.2807" y="96.6166" class="st1" width="2.2769" height="39.3099"/>
				<rect id="XMLID_1408_" x="50.8017" y="96.6166" class="st1" width="2.2774" height="39.3099"/>
				<rect id="XMLID_1407_" x="58.323" y="96.6166" class="st1" width="2.2775" height="39.3099"/>
				<rect id="XMLID_1406_" x="65.8444" y="96.6166" class="st1" width="2.2774" height="39.3099"/>
			</g>
			<g id="XMLID_1392_">
				<rect id="XMLID_1404_" x="72.7792" y="96.5588" class="st1" width="80.0434" height="39.3677"/>
				<g id="XMLID_1393_">
					<rect id="XMLID_1403_" x="77.6095" y="100.2353" class="st2" width="70.3829" height="1.4579"/>
					<rect id="XMLID_1402_" x="77.6095" y="103.6308" class="st2" width="70.3829" height="1.4574"/>
					<rect id="XMLID_1401_" x="77.6095" y="107.0257" class="st2" width="70.3829" height="1.4579"/>
					<rect id="XMLID_1400_" x="77.6095" y="110.4207" class="st2" width="70.3829" height="1.4579"/>
					<rect id="XMLID_1399_" x="77.6095" y="113.8161" class="st2" width="70.3829" height="1.4575"/>
					<rect id="XMLID_1398_" x="77.6095" y="117.2111" class="st2" width="70.3829" height="1.4579"/>
					<rect id="XMLID_1397_" x="77.6095" y="120.6066" class="st2" width="70.3829" height="1.4574"/>
					<rect id="XMLID_1396_" x="77.6095" y="124.0015" class="st2" width="70.3829" height="1.4579"/>
					<rect id="XMLID_1395_" x="77.6095" y="127.397" class="st2" width="70.3829" height="1.4574"/>
					<rect id="XMLID_1394_" x="77.6095" y="130.7919" class="st2" width="70.3829" height="1.458"/>
				</g>
			</g>
		</g>
	</g>
	<g id="XMLID_3_">
		<g id="XMLID_908_">
			<g id="XMLID_1385_">
				<path id="XMLID_1387_" class="st0" d="M122.5685,145.6775c-0.3896-1.273-1.563-2.1437-2.8943-2.1472l-49.4796-0.1337
					l-0.001-0.0262l-4.781,0.0131l-4.7811-0.0131l-0.0005,0.0262l-49.4801,0.1337c-1.3312,0.0035-2.5051,0.8742-2.8942,2.1472
					L0.135,172.2068c-0.5973,1.9516,0.8622,3.9248,2.9033,3.9248h57.0112h10.7264h57.0111c2.0412,0,3.5005-1.9732,2.9034-3.9248
					L122.5685,145.6775z"/>
				<path id="XMLID_1386_" class="st1" d="M120.6697,147.0711c-0.3765-1.1473-1.5111-1.9315-2.7987-1.935l-47.8358-0.1212
					l-0.0005-0.0232l-4.6221,0.0121l-4.6222-0.0121l-0.0005,0.0232l-47.8357,0.1212c-1.2875,0.0035-2.4222,0.7878-2.7988,1.935
					l-7.8512,23.903c-0.5776,1.758,0.8336,3.5363,2.8068,3.5363h55.1168h10.3699h55.1168c1.9728,0,3.384-1.7782,2.8063-3.5363
					L120.6697,147.0711z"/>
			</g>
			<g id="XMLID_1293_">
				<g id="XMLID_1379_">
					<g id="XMLID_1383_">
						<path id="XMLID_1384_" class="st3" d="M19.2036,172.07h-3.6098c-0.6123,0-1.1133-0.501-1.1133-1.1133v-2.5845
							c0-0.6123,0.501-1.1133,1.1133-1.1133h3.6102c0.6123,0,1.1133,0.501,1.1133,1.1133v2.5841
							C20.3173,171.5688,19.8162,172.07,19.2036,172.07z"/>
					</g>
					<path id="XMLID_1380_" class="st0" d="M19.4833,167.2589h-4.1686c-0.459,0-0.8341,0.3092-0.8341,0.6873v1.9954
						c0.739,0.4112,1.7721,0.6676,2.9184,0.6676s2.1794-0.2564,2.9184-0.6676v-1.9954
						C20.3173,167.5681,19.9423,167.2589,19.4833,167.2589z"/>
				</g>
				<g id="XMLID_1373_">
					<g id="XMLID_1377_">
						<path id="XMLID_1378_" class="st3" d="M27.2061,172.07h-3.6097c-0.6123,0-1.1133-0.501-1.1133-1.1133v-2.5845
							c0-0.6123,0.501-1.1133,1.1133-1.1133h3.6101c0.6123,0,1.1133,0.501,1.1133,1.1133v2.5841
							C28.3198,171.5688,27.8186,172.07,27.2061,172.07z"/>
					</g>
					<path id="XMLID_1374_" class="st0" d="M27.4858,167.2589h-4.1693c-0.4585,0-0.8335,0.3092-0.8335,0.6873v1.9954
						c0.7385,0.4112,1.7721,0.6676,2.9179,0.6676c1.1462,0,2.1798-0.2564,2.9188-0.6676v-1.9954
						C28.3198,167.5681,27.9443,167.2589,27.4858,167.2589z"/>
				</g>
				<g id="XMLID_1367_">
					<g id="XMLID_1371_">
						<path id="XMLID_1372_" class="st3" d="M11.2011,172.07H7.5913c-0.6122,0-1.1132-0.5009-1.1132-1.1132v-2.5846
							c0-0.6123,0.501-1.1133,1.1133-1.1133h3.6101c0.6123,0,1.1133,0.501,1.1133,1.1133v2.5841
							C12.3148,171.5688,11.8136,172.07,11.2011,172.07z"/>
					</g>
					<path id="XMLID_1368_" class="st0" d="M11.4812,167.2589H7.3121c-0.459,0-0.834,0.3092-0.834,0.6873v1.9954
						c0.7389,0.4112,1.7725,0.6676,2.9183,0.6676c1.1463,0,2.1799-0.2564,2.9184-0.6676v-1.9954
						C12.3148,167.5681,11.9397,167.2589,11.4812,167.2589z"/>
				</g>
				<g id="XMLID_1361_">
					<g id="XMLID_1365_">
						<path id="XMLID_1366_" class="st3" d="M35.2082,172.07h-3.6099c-0.6123,0-1.1132-0.5009-1.1132-1.1132v-2.5846
							c0-0.6123,0.501-1.1133,1.1133-1.1133h3.6102c0.6123,0,1.1133,0.501,1.1133,1.1133v2.5841
							C36.3219,171.5688,35.8207,172.07,35.2082,172.07z"/>
					</g>
					<path id="XMLID_1362_" class="st0" d="M35.4883,167.2589h-4.1697c-0.4585,0-0.8336,0.3092-0.8336,0.6873v1.9954
						c0.739,0.4112,1.7722,0.6676,2.9184,0.6676c1.1463,0,2.1794-0.2564,2.9184-0.6676v-1.9954
						C36.3219,167.5681,35.9463,167.2589,35.4883,167.2589z"/>
				</g>
				<g id="XMLID_1355_">
					<g id="XMLID_1359_">
						<path id="XMLID_1360_" class="st3" d="M43.2107,172.07h-3.6098c-0.6126,0-1.1138-0.5012-1.1138-1.1138v-2.584
							c0-0.6123,0.501-1.1133,1.1133-1.1133h3.6102c0.6126,0,1.1138,0.5012,1.1138,1.1138v2.5836
							C44.3244,171.5688,43.8233,172.07,43.2107,172.07z"/>
					</g>
					<path id="XMLID_1356_" class="st0" d="M43.4904,167.2589h-4.1692c-0.4585,0-0.8341,0.3092-0.8341,0.6873v1.9954
						c0.739,0.4112,1.7727,0.6676,2.9189,0.6676c1.1457,0,2.1794-0.2564,2.9184-0.6676v-1.9954
						C44.3244,167.5681,43.9488,167.2589,43.4904,167.2589z"/>
				</g>
				<g id="XMLID_1349_">
					<g id="XMLID_1353_">
						<path id="XMLID_1354_" class="st3" d="M51.2127,172.07H47.603c-0.6123,0-1.1133-0.501-1.1133-1.1133v-2.5845
							c0-0.6123,0.501-1.1133,1.1133-1.1133h3.6101c0.6123,0,1.1133,0.501,1.1133,1.1133v2.5841
							C52.3264,171.5688,51.8252,172.07,51.2127,172.07z"/>
					</g>
					<path id="XMLID_1350_" class="st0" d="M51.4929,167.2589h-4.1697c-0.4586,0-0.8336,0.3092-0.8336,0.6873v1.9954
						c0.739,0.4112,1.7721,0.6676,2.9184,0.6676c1.1462,0,2.1794-0.2564,2.9183-0.6676v-1.9954
						C52.3264,167.5681,51.9514,167.2589,51.4929,167.2589z"/>
				</g>
				<g id="XMLID_1343_">
					<g id="XMLID_1347_">
						<path id="XMLID_1348_" class="st3" d="M59.2147,172.07h-3.6093c-0.6125,0-1.1137-0.5012-1.1137-1.1137v-2.5841
							c0-0.6123,0.501-1.1133,1.1133-1.1133h3.6106c0.612,0,1.1128,0.5008,1.1128,1.1128v2.5846
							C60.3284,171.5688,59.8273,172.07,59.2147,172.07z"/>
					</g>
					<path id="XMLID_1344_" class="st0" d="M59.4949,167.2589h-4.1692c-0.4585,0-0.834,0.3092-0.834,0.6873v1.9954
						c0.739,0.4112,1.7726,0.6676,2.9188,0.6676c1.1458,0,2.1794-0.2564,2.9179-0.6676v-1.9954
						C60.3284,167.5681,59.9534,167.2589,59.4949,167.2589z"/>
				</g>
				<g id="XMLID_1337_">
					<g id="XMLID_1341_">
						<path id="XMLID_1342_" class="st3" d="M67.2173,172.07H63.608c-0.6126,0-1.1138-0.5012-1.1138-1.1138v-2.584
							c0-0.6123,0.501-1.1133,1.1133-1.1133h3.6097c0.6126,0,1.1138,0.5012,1.1138,1.1138v2.5836
							C68.331,171.5688,67.8299,172.07,67.2173,172.07z"/>
					</g>
					<path id="XMLID_1338_" class="st0" d="M67.4975,167.2589h-4.1692c-0.459,0-0.8341,0.3092-0.8341,0.6873v1.9954
						c0.739,0.4112,1.7721,0.6676,2.9184,0.6676s2.1794-0.2564,2.9184-0.6676v-1.9954
						C68.331,167.5681,67.9559,167.2589,67.4975,167.2589z"/>
				</g>
				<g id="XMLID_1331_">
					<g id="XMLID_1335_">
						<path id="XMLID_1336_" class="st3" d="M75.2198,172.07h-3.6102c-0.6121,0-1.1128-0.5008-1.1128-1.1128v-2.585
							c0-0.6123,0.501-1.1133,1.1133-1.1133h3.6096c0.6126,0,1.1138,0.5012,1.1138,1.1138v2.5836
							C76.3335,171.5688,75.8323,172.07,75.2198,172.07z"/>
					</g>
					<path id="XMLID_1332_" class="st0" d="M75.4995,167.2589h-4.1693c-0.4585,0-0.8335,0.3092-0.8335,0.6873v1.9954
						c0.7389,0.4112,1.7721,0.6676,2.9183,0.6676c1.1462,0,2.1794-0.2564,2.9184-0.6676v-1.9954
						C76.3335,167.5681,75.9585,167.2589,75.4995,167.2589z"/>
				</g>
				<g id="XMLID_1325_">
					<g id="XMLID_1329_">
						<path id="XMLID_1330_" class="st3" d="M83.2218,172.07h-3.6093c-0.6126,0-1.1138-0.5012-1.1138-1.1138v-2.584
							c0-0.6123,0.501-1.1133,1.1133-1.1133h3.6102c0.6123,0,1.1133,0.501,1.1133,1.1133v2.5841
							C84.3355,171.5688,83.8344,172.07,83.2218,172.07z"/>
					</g>
					<path id="XMLID_1326_" class="st0" d="M83.502,167.2589h-4.1697c-0.4585,0-0.8336,0.3092-0.8336,0.6873v1.9954
						c0.7391,0.4112,1.7721,0.6676,2.9184,0.6676s2.1794-0.2564,2.9184-0.6676v-1.9954
						C84.3355,167.5681,83.9605,167.2589,83.502,167.2589z"/>
				</g>
				<g id="XMLID_1319_">
					<g id="XMLID_1323_">
						<path id="XMLID_1324_" class="st3" d="M91.2244,172.07h-3.6098c-0.6126,0-1.1138-0.5012-1.1138-1.1138v-2.584
							c0-0.6123,0.501-1.1133,1.1133-1.1133h3.6102c0.6126,0,1.1138,0.5012,1.1138,1.1138v2.5836
							C92.3381,171.5688,91.837,172.07,91.2244,172.07z"/>
					</g>
					<path id="XMLID_1320_" class="st0" d="M91.504,167.2589h-4.1692c-0.4585,0-0.8341,0.3092-0.8341,0.6873v1.9954
						c0.7391,0.4112,1.7727,0.6676,2.9184,0.6676c1.1463,0,2.1799-0.2564,2.9189-0.6676v-1.9954
						C92.3381,167.5681,91.9625,167.2589,91.504,167.2589z"/>
				</g>
				<g id="XMLID_1313_">
					<g id="XMLID_1317_">
						<path id="XMLID_1318_" class="st3" d="M99.2264,172.07h-3.6092c-0.6126,0-1.1138-0.5012-1.1138-1.1138v-2.584
							c0-0.6123,0.501-1.1133,1.1133-1.1133h3.6097c0.6125,0,1.1137,0.5012,1.1137,1.1137v2.5837
							C100.3401,171.5688,99.8389,172.07,99.2264,172.07z"/>
					</g>
					<path id="XMLID_1314_" class="st0" d="M99.5066,167.2589h-4.1693c-0.4585,0-0.834,0.3092-0.834,0.6873v1.9954
						c0.7385,0.4112,1.7721,0.6676,2.9184,0.6676c1.1462,0,2.1794-0.2564,2.9183-0.6676v-1.9954
						C100.3401,167.5681,99.9651,167.2589,99.5066,167.2589z"/>
				</g>
				<g id="XMLID_1307_">
					<g id="XMLID_1311_">
						<path id="XMLID_1312_" class="st3" d="M107.229,172.07h-3.6093c-0.6128,0-1.1142-0.5014-1.1142-1.1142v-2.5836
							c0-0.6123,0.501-1.1133,1.1133-1.1133h3.6101c0.6126,0,1.1138,0.5012,1.1138,1.1138v2.5836
							C108.3427,171.5688,107.8415,172.07,107.229,172.07z"/>
					</g>
					<path id="XMLID_1308_" class="st0" d="M107.5086,167.2589h-4.1697c-0.458,0-0.8335,0.3092-0.8335,0.6873v1.9954
						c0.7389,0.4112,1.7726,0.6676,2.9188,0.6676c1.1457,0,2.1788-0.2564,2.9184-0.6676v-1.9954
						C108.3427,167.5681,107.9671,167.2589,107.5086,167.2589z"/>
				</g>
				<g id="XMLID_1301_">
					<g id="XMLID_1305_">
						<path id="XMLID_1306_" class="st3" d="M115.231,172.07h-3.6093c-0.6126,0-1.1138-0.5012-1.1138-1.1138v-2.584
							c0-0.6123,0.501-1.1133,1.1133-1.1133h3.6097c0.6126,0,1.1138,0.5012,1.1138,1.1138v2.5836
							C116.3447,171.5688,115.8436,172.07,115.231,172.07z"/>
					</g>
					<path id="XMLID_1302_" class="st0" d="M115.5106,167.2589h-4.1692c-0.4585,0-0.8335,0.3092-0.8335,0.6873v1.9954
						c0.739,0.4112,1.7721,0.6676,2.9184,0.6676s2.1794-0.2564,2.9184-0.6676v-1.9954
						C116.3447,167.5681,115.9696,167.2589,115.5106,167.2589z"/>
				</g>
				<g id="XMLID_1295_">
					<g id="XMLID_1299_">
						<path id="XMLID_1300_" class="st3" d="M123.2335,172.07h-3.6097c-0.6123,0-1.1133-0.501-1.1133-1.1133v-2.5845
							c0-0.6123,0.501-1.1133,1.1133-1.1133h3.6096c0.6126,0,1.1138,0.5012,1.1138,1.1138v2.5836
							C124.3472,171.5688,123.846,172.07,123.2335,172.07z"/>
					</g>
					<path id="XMLID_1296_" class="st0" d="M123.5132,167.2589h-4.1692c-0.4585,0-0.8335,0.3092-0.8335,0.6873v1.9954
						c0.7385,0.4112,1.7721,0.6676,2.9179,0.6676c1.1467,0,2.1798-0.2564,2.9188-0.6676v-1.9954
						C124.3472,167.5681,123.9722,167.2589,123.5132,167.2589z"/>
				</g>
			</g>
			<g id="XMLID_1172_">
				<g id="XMLID_1287_">
					<g id="XMLID_1291_">
						<path id="XMLID_1292_" class="st3" d="M15.2027,165.3465h-3.6096c-0.6126,0-1.1138-0.5012-1.1138-1.1138v-2.5836
							c0-0.6123,0.501-1.1133,1.1133-1.1133h3.6097c0.6128,0,1.1142,0.5014,1.1142,1.1142v2.5827
							C16.3165,164.8453,15.8153,165.3465,15.2027,165.3465z"/>
					</g>
					<path id="XMLID_1288_" class="st0" d="M15.482,160.5358h-4.1688c-0.4585,0-0.834,0.3092-0.834,0.6868v1.9959
						c0.7391,0.4112,1.7721,0.6681,2.9184,0.6681c1.1462,0,2.1798-0.2569,2.9188-0.6681v-1.9959
						C16.3165,160.845,15.941,160.5358,15.482,160.5358z"/>
				</g>
				<g id="XMLID_1279_">
					<g id="XMLID_1284_">
						<path id="XMLID_1286_" class="st3" d="M23.2048,165.3465h-3.6097c-0.6123,0-1.1133-0.501-1.1133-1.1133v-2.5841
							c0-0.6123,0.501-1.1133,1.1133-1.1133h3.6097c0.6126,0,1.1138,0.5012,1.1138,1.1138v2.5831
							C24.3186,164.8453,23.8174,165.3465,23.2048,165.3465z"/>
					</g>
					<path id="XMLID_1281_" class="st0" d="M23.4845,160.5358h-4.1692c-0.4585,0-0.8336,0.3092-0.8336,0.6868v1.9959
						c0.7385,0.4112,1.7722,0.6681,2.9184,0.6681c1.1457,0,2.1788-0.2569,2.9184-0.6681v-1.9959
						C24.3186,160.845,23.9435,160.5358,23.4845,160.5358z"/>
				</g>
				<g id="XMLID_1273_">
					<g id="XMLID_1277_">
						<path id="XMLID_1278_" class="st3" d="M31.2073,165.3465h-3.6102c-0.6123,0-1.1133-0.501-1.1133-1.1133v-2.5841
							c0-0.6123,0.501-1.1133,1.1133-1.1133h3.6102c0.6126,0,1.1138,0.5012,1.1138,1.1138v2.5831
							C32.3211,164.8453,31.8199,165.3465,31.2073,165.3465z"/>
					</g>
					<path id="XMLID_1274_" class="st0" d="M31.4871,160.5358h-4.1692c-0.4585,0-0.8341,0.3092-0.8341,0.6868v1.9959
						c0.739,0.4112,1.7727,0.6681,2.9184,0.6681c1.1463,0,2.1799-0.2569,2.9189-0.6681v-1.9959
						C32.3211,160.845,31.9455,160.5358,31.4871,160.5358z"/>
				</g>
				<g id="XMLID_1263_">
					<g id="XMLID_1271_">
						<path id="XMLID_1272_" class="st3" d="M39.2093,165.3465h-3.6096c-0.6123,0-1.1133-0.501-1.1133-1.1133v-2.5841
							c0-0.6123,0.501-1.1133,1.1133-1.1133h3.6101c0.6123,0,1.1133,0.501,1.1133,1.1133v2.5836
							C40.3231,164.8453,39.8219,165.3465,39.2093,165.3465z"/>
					</g>
					<path id="XMLID_1264_" class="st0" d="M39.4891,160.5358h-4.1693c-0.4585,0-0.8335,0.3092-0.8335,0.6868v1.9959
						c0.7385,0.4112,1.7721,0.6681,2.9184,0.6681c1.1456,0,2.1794-0.2569,2.9183-0.6681v-1.9959
						C40.3231,160.845,39.9476,160.5358,39.4891,160.5358z"/>
				</g>
				<g id="XMLID_1255_">
					<g id="XMLID_1261_">
						<path id="XMLID_1262_" class="st3" d="M47.2119,165.3465h-3.6102c-0.6123,0-1.1132-0.5009-1.1132-1.1132v-2.5843
							c0-0.6123,0.5009-1.1132,1.1132-1.1132h3.6102c0.6126,0,1.1138,0.5012,1.1138,1.1138v2.5831
							C48.3257,164.8453,47.8245,165.3465,47.2119,165.3465z"/>
					</g>
					<path id="XMLID_1256_" class="st0" d="M47.4916,160.5358h-4.1692c-0.4585,0-0.834,0.3092-0.834,0.6868v1.9959
						c0.7389,0.4112,1.7726,0.6681,2.9183,0.6681c1.1463,0,2.1799-0.2569,2.9189-0.6681v-1.9959
						C48.3257,160.845,47.9501,160.5358,47.4916,160.5358z"/>
				</g>
				<g id="XMLID_1245_">
					<g id="XMLID_1251_">
						<path id="XMLID_1253_" class="st3" d="M55.2139,165.3465h-3.6092c-0.6126,0-1.1138-0.5012-1.1138-1.1138v-2.5836
							c0-0.6123,0.501-1.1133,1.1133-1.1133h3.6097c0.6126,0,1.1138,0.5012,1.1138,1.1138v2.5831
							C56.3277,164.8453,55.8265,165.3465,55.2139,165.3465z"/>
					</g>
					<path id="XMLID_1247_" class="st0" d="M55.4936,160.5358h-4.1692c-0.4585,0-0.8336,0.3092-0.8336,0.6868v1.9959
						c0.7385,0.4112,1.7722,0.6681,2.9184,0.6681c1.1457,0,2.1793-0.2569,2.9184-0.6681v-1.9959
						C56.3277,160.845,55.9526,160.5358,55.4936,160.5358z"/>
				</g>
				<g id="XMLID_1237_">
					<g id="XMLID_1243_">
						<path id="XMLID_1244_" class="st3" d="M63.216,165.3465h-3.6097c-0.6123,0-1.1133-0.501-1.1133-1.1133v-2.5841
							c0-0.6123,0.501-1.1133,1.1133-1.1133h3.6101c0.6123,0,1.1133,0.501,1.1133,1.1133v2.5837
							C64.3297,164.8453,63.8285,165.3465,63.216,165.3465z"/>
					</g>
					<path id="XMLID_1238_" class="st0" d="M63.4962,160.5358H59.327c-0.4585,0-0.834,0.3092-0.834,0.6868v1.9959
						c0.739,0.4112,1.7721,0.6681,2.9184,0.6681c1.1461,0,2.1797-0.2569,2.9183-0.6681v-1.9959
						C64.3297,160.845,63.9547,160.5358,63.4962,160.5358z"/>
				</g>
				<g id="XMLID_1227_">
					<g id="XMLID_1233_">
						<path id="XMLID_1235_" class="st3" d="M71.2185,165.3465h-3.6092c-0.6126,0-1.1138-0.5012-1.1138-1.1138v-2.5836
							c0-0.6123,0.501-1.1133,1.1133-1.1133h3.6102c0.6123,0,1.1133,0.501,1.1133,1.1133v2.5836
							C72.3323,164.8453,71.831,165.3465,71.2185,165.3465z"/>
					</g>
					<path id="XMLID_1229_" class="st0" d="M71.4982,160.5358H67.329c-0.4585,0-0.8336,0.3092-0.8336,0.6868v1.9959
						c0.739,0.4112,1.7721,0.6681,2.9184,0.6681c1.1457,0,2.1794-0.2569,2.9184-0.6681v-1.9959
						C72.3323,160.845,71.9572,160.5358,71.4982,160.5358z"/>
				</g>
				<g id="XMLID_1219_">
					<g id="XMLID_1225_">
						<path id="XMLID_1226_" class="st3" d="M79.2205,165.3465h-3.6092c-0.6123,0-1.1133-0.501-1.1133-1.1133v-2.5841
							c0-0.6123,0.501-1.1133,1.1133-1.1133h3.6097c0.6123,0,1.1133,0.501,1.1133,1.1133v2.5836
							C80.3343,164.8453,79.8331,165.3465,79.2205,165.3465z"/>
					</g>
					<path id="XMLID_1220_" class="st0" d="M79.5007,160.5358h-4.1691c-0.459,0-0.8336,0.3092-0.8336,0.6868v1.9959
						c0.7385,0.4112,1.7721,0.6681,2.9179,0.6681c1.1463,0,2.1794-0.2569,2.9184-0.6681v-1.9959
						C80.3343,160.845,79.9592,160.5358,79.5007,160.5358z"/>
				</g>
				<g id="XMLID_1209_">
					<g id="XMLID_1215_">
						<path id="XMLID_1217_" class="st3" d="M87.2231,165.3465h-3.6097c-0.6123,0-1.1133-0.501-1.1133-1.1133v-2.5841
							c0-0.6123,0.501-1.1133,1.1133-1.1133h3.6101c0.6123,0,1.1133,0.501,1.1133,1.1133v2.5837
							C88.3368,164.8453,87.8356,165.3465,87.2231,165.3465z"/>
					</g>
					<path id="XMLID_1211_" class="st0" d="M87.5028,160.5358h-4.1693c-0.4585,0-0.8335,0.3092-0.8335,0.6868v1.9959
						c0.7385,0.4112,1.7721,0.6681,2.9184,0.6681c1.1456,0,2.1794-0.2569,2.9183-0.6681v-1.9959
						C88.3368,160.845,87.9613,160.5358,87.5028,160.5358z"/>
				</g>
				<g id="XMLID_1201_">
					<g id="XMLID_1207_">
						<path id="XMLID_1208_" class="st3" d="M95.225,165.3465h-3.6092c-0.6125,0-1.1137-0.5012-1.1137-1.1137v-2.5838
							c0-0.6123,0.5009-1.1132,1.1132-1.1132h3.6102c0.6123,0,1.1133,0.501,1.1133,1.1133v2.5836
							C96.3388,164.8453,95.8376,165.3465,95.225,165.3465z"/>
					</g>
					<path id="XMLID_1202_" class="st0" d="M95.5053,160.5358h-4.1697c-0.4585,0-0.8335,0.3092-0.8335,0.6868v1.9959
						c0.7389,0.4112,1.772,0.6681,2.9183,0.6681s2.1794-0.2569,2.9184-0.6681v-1.9959
						C96.3388,160.845,95.9638,160.5358,95.5053,160.5358z"/>
				</g>
				<g id="XMLID_1191_">
					<g id="XMLID_1197_">
						<path id="XMLID_1199_" class="st3" d="M103.2276,165.3465h-3.6097c-0.6126,0-1.1138-0.5012-1.1138-1.1138v-2.5836
							c0-0.6123,0.501-1.1133,1.1133-1.1133h3.6102c0.6126,0,1.1138,0.5012,1.1138,1.1138v2.5831
							C104.3414,164.8453,103.8402,165.3465,103.2276,165.3465z"/>
					</g>
					<path id="XMLID_1193_" class="st0" d="M103.5073,160.5358h-4.1692c-0.4585,0-0.8341,0.3092-0.8341,0.6868v1.9959
						c0.739,0.4112,1.7727,0.6681,2.9189,0.6681c1.1463,0,2.1794-0.2569,2.9184-0.6681v-1.9959
						C104.3414,160.845,103.9658,160.5358,103.5073,160.5358z"/>
				</g>
				<g id="XMLID_1183_">
					<g id="XMLID_1189_">
						<path id="XMLID_1190_" class="st3" d="M111.2296,165.3465H107.62c-0.6123,0-1.1133-0.501-1.1133-1.1133v-2.5841
							c0-0.6123,0.501-1.1133,1.1133-1.1133h3.6101c0.6123,0,1.1133,0.501,1.1133,1.1133v2.5836
							C112.3434,164.8453,111.8422,165.3465,111.2296,165.3465z"/>
					</g>
					<path id="XMLID_1184_" class="st0" d="M111.5094,160.5358h-4.1688c-0.459,0-0.834,0.3092-0.834,0.6868v1.9959
						c0.739,0.4112,1.7722,0.6681,2.9184,0.6681c1.1461,0,2.1798-0.2569,2.9183-0.6681v-1.9959
						C112.3434,160.845,111.9684,160.5358,111.5094,160.5358z"/>
				</g>
				<g id="XMLID_1173_">
					<g id="XMLID_1179_">
						<path id="XMLID_1181_" class="st3" d="M119.2321,165.3465h-3.6092c-0.6126,0-1.1138-0.5012-1.1138-1.1138v-2.5836
							c0-0.6123,0.501-1.1133,1.1133-1.1133h3.6097c0.6126,0,1.1138,0.5012,1.1138,1.1138v2.5831
							C120.3459,164.8453,119.8447,165.3465,119.2321,165.3465z"/>
					</g>
					<path id="XMLID_1175_" class="st0" d="M119.5119,160.5358h-4.1692c-0.4585,0-0.8336,0.3092-0.8336,0.6868v1.9959
						c0.7391,0.4112,1.7721,0.6681,2.9184,0.6681c1.1463,0,2.1794-0.2569,2.9184-0.6681v-1.9959
						C120.3459,160.845,119.9703,160.5358,119.5119,160.5358z"/>
				</g>
			</g>
			<g id="XMLID_1015_">
				<g id="XMLID_1162_">
					<g id="XMLID_1168_">
						<path id="XMLID_1171_" class="st3" d="M19.2035,158.6234h-3.6092c-0.6126,0-1.1138-0.5012-1.1138-1.1138v-2.5841
							c0-0.6123,0.501-1.1133,1.1133-1.1133h3.6097c0.6126,0,1.1138,0.5012,1.1138,1.1138v2.5836
							C20.3173,158.1222,19.8161,158.6234,19.2035,158.6234z"/>
					</g>
					<path id="XMLID_1164_" class="st0" d="M19.4833,153.8122h-4.1686c-0.459,0-0.8341,0.3097-0.8341,0.6873v1.9959
						c0.739,0.4112,1.7721,0.6676,2.9184,0.6676s2.1794-0.2564,2.9184-0.6676v-1.9959
						C20.3173,154.1219,19.9423,153.8122,19.4833,153.8122z"/>
				</g>
				<g id="XMLID_1153_">
					<g id="XMLID_1159_">
						<path id="XMLID_1160_" class="st3" d="M27.206,158.6234h-3.6096c-0.6123,0-1.1133-0.501-1.1133-1.1133v-2.5846
							c0-0.6123,0.501-1.1133,1.1133-1.1133h3.6097c0.6125,0,1.1137,0.5012,1.1137,1.1137v2.5837
							C28.3198,158.1222,27.8186,158.6234,27.206,158.6234z"/>
					</g>
					<path id="XMLID_1154_" class="st0" d="M27.4858,153.8122h-4.1693c-0.4585,0-0.8335,0.3097-0.8335,0.6873v1.9959
						c0.7385,0.4112,1.7721,0.6676,2.9179,0.6676c1.1462,0,2.1798-0.2564,2.9188-0.6676v-1.9959
						C28.3198,154.1219,27.9443,153.8122,27.4858,153.8122z"/>
				</g>
				<g id="XMLID_1144_">
					<g id="XMLID_1150_">
						<path id="XMLID_1152_" class="st3" d="M35.2086,158.6234h-3.6097c-0.6126,0-1.1138-0.5012-1.1138-1.1138v-2.5841
							c0-0.6123,0.501-1.1133,1.1133-1.1133h3.6102c0.6126,0,1.1138,0.5012,1.1138,1.1138v2.5836
							C36.3224,158.1222,35.8212,158.6234,35.2086,158.6234z"/>
					</g>
					<path id="XMLID_1146_" class="st0" d="M35.4883,153.8122h-4.1692c-0.459,0-0.8341,0.3097-0.8341,0.6873v1.9959
						c0.739,0.4112,1.7722,0.6676,2.9184,0.6676c1.1463,0,2.1794-0.2564,2.9189-0.6676v-1.9959
						C36.3224,154.1219,35.9468,153.8122,35.4883,153.8122z"/>
				</g>
				<g id="XMLID_1100_">
					<g id="XMLID_1141_">
						<path id="XMLID_1142_" class="st3" d="M43.2106,158.6234h-3.6097c-0.6126,0-1.1138-0.5012-1.1138-1.1138v-2.5841
							c0-0.6123,0.501-1.1133,1.1133-1.1133h3.6102c0.6126,0,1.1138,0.5012,1.1138,1.1138v2.5836
							C44.3244,158.1222,43.8232,158.6234,43.2106,158.6234z"/>
					</g>
					<path id="XMLID_1102_" class="st0" d="M43.4904,153.8122h-4.1692c-0.4585,0-0.8341,0.3097-0.8341,0.6873v1.9959
						c0.7396,0.4112,1.7727,0.6676,2.9189,0.6676s2.1794-0.2564,2.9184-0.6676v-1.9959
						C44.3244,154.1219,43.9488,153.8122,43.4904,153.8122z"/>
				</g>
				<g id="XMLID_1092_">
					<g id="XMLID_1098_">
						<path id="XMLID_1099_" class="st3" d="M51.2126,158.6234h-3.6091c-0.6126,0-1.1138-0.5012-1.1138-1.1138v-2.5841
							c0-0.6123,0.501-1.1133,1.1133-1.1133h3.6101c0.6123,0,1.1133,0.501,1.1133,1.1133v2.5841
							C52.3264,158.1222,51.8252,158.6234,51.2126,158.6234z"/>
					</g>
					<path id="XMLID_1093_" class="st0" d="M51.4929,153.8122h-4.1697c-0.458,0-0.8336,0.3097-0.8336,0.6873v1.9959
						c0.739,0.4112,1.7727,0.6676,2.9184,0.6676c1.1462,0,2.1794-0.2564,2.9183-0.6676v-1.9959
						C52.3264,154.1219,51.9514,153.8122,51.4929,153.8122z"/>
				</g>
				<g id="XMLID_1081_">
					<g id="XMLID_1088_">
						<path id="XMLID_1090_" class="st3" d="M59.2152,158.6234h-3.6097c-0.6125,0-1.1137-0.5012-1.1137-1.1137v-2.5838
							c0-0.6125,0.5012-1.1137,1.1137-1.1137h3.6097c0.6126,0,1.1138,0.5012,1.1138,1.1138v2.5836
							C60.329,158.1222,59.8278,158.6234,59.2152,158.6234z"/>
					</g>
					<path id="XMLID_1083_" class="st0" d="M59.4954,153.8122h-4.1697c-0.4585,0-0.834,0.3097-0.834,0.6873v1.9959
						c0.739,0.4112,1.7726,0.6676,2.9188,0.6676c1.1458,0,2.1794-0.2564,2.9184-0.6676v-1.9959
						C60.329,154.1219,59.9534,153.8122,59.4954,153.8122z"/>
				</g>
				<g id="XMLID_1073_">
					<g id="XMLID_1079_">
						<path id="XMLID_1080_" class="st3" d="M67.2172,158.6234H63.608c-0.6126,0-1.1138-0.5012-1.1138-1.1138v-2.5841
							c0-0.6123,0.501-1.1133,1.1133-1.1133h3.6097c0.6126,0,1.1138,0.5012,1.1138,1.1138v2.5836
							C68.331,158.1222,67.8298,158.6234,67.2172,158.6234z"/>
					</g>
					<path id="XMLID_1074_" class="st0" d="M67.4975,153.8122h-4.1692c-0.4585,0-0.8341,0.3097-0.8341,0.6873v1.9959
						c0.739,0.4112,1.7727,0.6676,2.9189,0.6676c1.1452,0,2.1788-0.2564,2.9179-0.6676v-1.9959
						C68.331,154.1219,67.9559,153.8122,67.4975,153.8122z"/>
				</g>
				<g id="XMLID_1062_">
					<g id="XMLID_1069_">
						<path id="XMLID_1071_" class="st3" d="M75.2197,158.6234h-3.6096c-0.6123,0-1.1133-0.501-1.1133-1.1133v-2.5846
							c0-0.6123,0.501-1.1133,1.1133-1.1133h3.6097c0.6125,0,1.1137,0.5012,1.1137,1.1137v2.5837
							C76.3335,158.1222,75.8323,158.6234,75.2197,158.6234z"/>
					</g>
					<path id="XMLID_1063_" class="st0" d="M75.4995,153.8122h-4.1693c-0.4585,0-0.8335,0.3097-0.8335,0.6873v1.9959
						c0.7385,0.4112,1.7721,0.6676,2.9183,0.6676c1.1462,0,2.1794-0.2564,2.9184-0.6676v-1.9959
						C76.3335,154.1219,75.9585,153.8122,75.4995,153.8122z"/>
				</g>
				<g id="XMLID_1053_">
					<g id="XMLID_1059_">
						<path id="XMLID_1061_" class="st3" d="M83.2217,158.6234h-3.6092c-0.6126,0-1.1138-0.5012-1.1138-1.1138v-2.5841
							c0-0.6123,0.501-1.1133,1.1133-1.1133h3.6102c0.6123,0,1.1133,0.501,1.1133,1.1133v2.5841
							C84.3355,158.1222,83.8343,158.6234,83.2217,158.6234z"/>
					</g>
					<path id="XMLID_1055_" class="st0" d="M83.502,153.8122h-4.1697c-0.4585,0-0.8336,0.3097-0.8336,0.6873v1.9959
						c0.7391,0.4112,1.7727,0.6676,2.9184,0.6676c1.1463,0,2.1794-0.2564,2.9184-0.6676v-1.9959
						C84.3355,154.1219,83.9605,153.8122,83.502,153.8122z"/>
				</g>
				<g id="XMLID_1044_">
					<g id="XMLID_1050_">
						<path id="XMLID_1051_" class="st3" d="M91.2243,158.6234h-3.6097c-0.6123,0-1.1133-0.501-1.1133-1.1133v-2.5846
							c0-0.6123,0.501-1.1133,1.1133-1.1133h3.6097c0.6126,0,1.1138,0.5012,1.1138,1.1138v2.5836
							C92.3381,158.1222,91.8369,158.6234,91.2243,158.6234z"/>
					</g>
					<path id="XMLID_1045_" class="st0" d="M91.504,153.8122h-4.1692c-0.4585,0-0.8336,0.3097-0.8336,0.6873v1.9959
						c0.7385,0.4112,1.7721,0.6676,2.9179,0.6676c1.1463,0,2.1799-0.2564,2.9189-0.6676v-1.9959
						C92.3381,154.1219,91.963,153.8122,91.504,153.8122z"/>
				</g>
				<g id="XMLID_1035_">
					<g id="XMLID_1041_">
						<path id="XMLID_1043_" class="st3" d="M99.2263,158.6234h-3.6091c-0.6126,0-1.1138-0.5012-1.1138-1.1138v-2.5841
							c0-0.6123,0.501-1.1133,1.1133-1.1133h3.6101c0.6123,0,1.1133,0.501,1.1133,1.1133v2.5841
							C100.3401,158.1222,99.8389,158.6234,99.2263,158.6234z"/>
					</g>
					<path id="XMLID_1037_" class="st0" d="M99.5066,153.8122h-4.1693c-0.4585,0-0.834,0.3097-0.834,0.6873v1.9959
						c0.7391,0.4112,1.7727,0.6676,2.9184,0.6676c1.1462,0,2.1794-0.2564,2.9183-0.6676v-1.9959
						C100.3401,154.1219,99.9651,153.8122,99.5066,153.8122z"/>
				</g>
				<g id="XMLID_1026_">
					<g id="XMLID_1032_">
						<path id="XMLID_1033_" class="st3" d="M107.2289,158.6234h-3.6096c-0.6126,0-1.1138-0.5012-1.1138-1.1138v-2.5841
							c0-0.6123,0.501-1.1133,1.1133-1.1133h3.6101c0.6126,0,1.1138,0.5012,1.1138,1.1138v2.5836
							C108.3427,158.1222,107.8415,158.6234,107.2289,158.6234z"/>
					</g>
					<path id="XMLID_1027_" class="st0" d="M107.5086,153.8122h-4.1697c-0.458,0-0.8335,0.3097-0.8335,0.6873v1.9959
						c0.7389,0.4112,1.7726,0.6676,2.9188,0.6676c1.1457,0,2.1794-0.2564,2.9184-0.6676v-1.9959
						C108.3427,154.1219,107.9671,153.8122,107.5086,153.8122z"/>
				</g>
				<g id="XMLID_1017_">
					<g id="XMLID_1023_">
						<path id="XMLID_1025_" class="st3" d="M115.2309,158.6234h-3.6097c-0.6123,0-1.1133-0.501-1.1133-1.1133v-2.5846
							c0-0.6123,0.501-1.1133,1.1133-1.1133h3.6097c0.6126,0,1.1138,0.5012,1.1138,1.1138v2.5836
							C116.3447,158.1222,115.8435,158.6234,115.2309,158.6234z"/>
					</g>
					<path id="XMLID_1019_" class="st0" d="M115.5111,153.8122h-4.1692c-0.459,0-0.8341,0.3097-0.8341,0.6873v1.9959
						c0.739,0.4112,1.7721,0.6676,2.9184,0.6676s2.1794-0.2564,2.9184-0.6676v-1.9959
						C116.3447,154.1219,115.9696,153.8122,115.5111,153.8122z"/>
				</g>
			</g>
			<g id="XMLID_909_">
				<g id="XMLID_1007_">
					<g id="XMLID_1013_">
						<path id="XMLID_1014_" class="st3" d="M23.2053,151.9003h-3.6097c-0.6126,0-1.1138-0.5012-1.1138-1.1138v-2.5841
							c0-0.6123,0.501-1.1133,1.1133-1.1133h3.6097c0.6126,0,1.1138,0.5012,1.1138,1.1138v2.5841
							C24.3186,151.3993,23.8176,151.9003,23.2053,151.9003z"/>
					</g>
					<path id="XMLID_1008_" class="st0" d="M23.4845,147.0891h-4.1692c-0.4585,0-0.8336,0.3092-0.8336,0.6873v1.9954
						c0.7385,0.4117,1.7722,0.6681,2.9184,0.6681c1.1457,0,2.1788-0.2564,2.9184-0.6681v-1.9954
						C24.3186,147.3983,23.9435,147.0891,23.4845,147.0891z"/>
				</g>
				<g id="XMLID_996_">
					<g id="XMLID_1002_">
						<path id="XMLID_1004_" class="st3" d="M31.2073,151.9003h-3.6097c-0.6126,0-1.1138-0.5012-1.1138-1.1138v-2.5841
							c0-0.6123,0.501-1.1133,1.1133-1.1133h3.6102c0.6126,0,1.1138,0.5012,1.1138,1.1138v2.5836
							C32.3211,151.3991,31.8199,151.9003,31.2073,151.9003z"/>
					</g>
					<path id="XMLID_998_" class="st0" d="M31.4871,147.0891h-4.1692c-0.4585,0-0.8341,0.3092-0.8341,0.6873v1.9954
						c0.739,0.4117,1.7727,0.6681,2.9184,0.6681c1.1463,0,2.1799-0.2564,2.9189-0.6681v-1.9954
						C32.3211,147.3983,31.9455,147.0891,31.4871,147.0891z"/>
				</g>
				<g id="XMLID_988_">
					<g id="XMLID_994_">
						<path id="XMLID_995_" class="st3" d="M39.2093,151.9003h-3.6096c-0.6123,0-1.1133-0.501-1.1133-1.1133v-2.5846
							c0-0.6123,0.501-1.1133,1.1133-1.1133h3.6101c0.6123,0,1.1133,0.501,1.1133,1.1133v2.5841
							C40.3231,151.3991,39.8219,151.9003,39.2093,151.9003z"/>
					</g>
					<path id="XMLID_989_" class="st0" d="M39.4896,147.0891h-4.1698c-0.4585,0-0.8335,0.3092-0.8335,0.6873v1.9954
						c0.7385,0.4117,1.7721,0.6681,2.9184,0.6681c1.1456,0,2.1794-0.2564,2.9183-0.6681v-1.9954
						C40.3231,147.3983,39.9476,147.0891,39.4896,147.0891z"/>
				</g>
				<g id="XMLID_978_">
					<g id="XMLID_984_">
						<path id="XMLID_986_" class="st3" d="M47.2119,151.9003h-3.6097c-0.6125,0-1.1137-0.5012-1.1137-1.1137v-2.5842
							c0-0.6123,0.501-1.1133,1.1133-1.1133h3.6101c0.6126,0,1.1138,0.5012,1.1138,1.1138v2.5836
							C48.3257,151.3991,47.8245,151.9003,47.2119,151.9003z"/>
					</g>
					<path id="XMLID_980_" class="st0" d="M47.4916,147.0891h-4.1692c-0.4585,0-0.834,0.3092-0.834,0.6873v1.9954
						c0.7389,0.4117,1.7726,0.6681,2.9183,0.6681c1.1463,0,2.1799-0.2564,2.9189-0.6681v-1.9954
						C48.3257,147.3983,47.9501,147.0891,47.4916,147.0891z"/>
				</g>
				<g id="XMLID_970_">
					<g id="XMLID_976_">
						<path id="XMLID_977_" class="st3" d="M55.2139,151.9003h-3.6092c-0.6126,0-1.1138-0.5012-1.1138-1.1138v-2.5841
							c0-0.6123,0.501-1.1133,1.1133-1.1133h3.6097c0.6126,0,1.1138,0.5012,1.1138,1.1138v2.5836
							C56.3277,151.3991,55.8265,151.9003,55.2139,151.9003z"/>
					</g>
					<path id="XMLID_971_" class="st0" d="M55.4936,147.0891h-4.1692c-0.4585,0-0.8336,0.3092-0.8336,0.6873v1.9954
						c0.7385,0.4117,1.7722,0.6681,2.9184,0.6681c1.1457,0,2.1793-0.2564,2.9184-0.6681v-1.9954
						C56.3277,147.3983,55.9526,147.0891,55.4936,147.0891z"/>
				</g>
				<g id="XMLID_960_">
					<g id="XMLID_966_">
						<path id="XMLID_968_" class="st3" d="M63.2159,151.9003h-3.6096c-0.6123,0-1.1133-0.501-1.1133-1.1133v-2.5846
							c0-0.6123,0.501-1.1133,1.1133-1.1133h3.6101c0.6123,0,1.1133,0.501,1.1133,1.1133v2.5841
							C64.3297,151.3991,63.8285,151.9003,63.2159,151.9003z"/>
					</g>
					<path id="XMLID_962_" class="st0" d="M63.4962,147.0891H59.327c-0.4585,0-0.834,0.3092-0.834,0.6873v1.9954
						c0.739,0.4117,1.7721,0.6681,2.9184,0.6681c1.1461,0,2.1797-0.2564,2.9183-0.6681v-1.9954
						C64.3297,147.3983,63.9547,147.0891,63.4962,147.0891z"/>
				</g>
				<g id="XMLID_952_">
					<g id="XMLID_958_">
						<path id="XMLID_959_" class="st3" d="M71.2185,151.9003h-3.6097c-0.6123,0-1.1133-0.501-1.1133-1.1133v-2.5846
							c0-0.6123,0.501-1.1133,1.1133-1.1133h3.6102c0.6123,0,1.1133,0.501,1.1133,1.1133v2.5841
							C72.3323,151.3991,71.831,151.9003,71.2185,151.9003z"/>
					</g>
					<path id="XMLID_953_" class="st0" d="M71.4982,147.0891H67.329c-0.4585,0-0.8336,0.3092-0.8336,0.6873v1.9954
						c0.739,0.4117,1.7721,0.6681,2.9184,0.6681c1.1457,0,2.1794-0.2564,2.9184-0.6681v-1.9954
						C72.3323,147.3983,71.9572,147.0891,71.4982,147.0891z"/>
				</g>
				<g id="XMLID_942_">
					<g id="XMLID_948_">
						<path id="XMLID_950_" class="st3" d="M79.221,151.9003h-3.6097c-0.6123,0-1.1133-0.501-1.1133-1.1133v-2.5846
							c0-0.6123,0.501-1.1133,1.1133-1.1133h3.6092c0.6129,0,1.1143,0.5014,1.1143,1.1143v2.5831
							C80.3348,151.3991,79.8336,151.9003,79.221,151.9003z"/>
					</g>
					<path id="XMLID_944_" class="st0" d="M79.5007,147.0891h-4.1691c-0.459,0-0.8336,0.3092-0.8336,0.6873v1.9954
						c0.7385,0.4117,1.7721,0.6681,2.9179,0.6681c1.1463,0,2.1794-0.2564,2.9189-0.6681v-1.9954
						C80.3348,147.3983,79.9592,147.0891,79.5007,147.0891z"/>
				</g>
				<g id="XMLID_934_">
					<g id="XMLID_940_">
						<path id="XMLID_941_" class="st3" d="M87.223,151.9003h-3.6096c-0.6123,0-1.1133-0.501-1.1133-1.1133v-2.5846
							c0-0.6123,0.501-1.1133,1.1133-1.1133h3.6101c0.6123,0,1.1133,0.501,1.1133,1.1133v2.5841
							C88.3368,151.3991,87.8356,151.9003,87.223,151.9003z"/>
					</g>
					<path id="XMLID_935_" class="st0" d="M87.5028,147.0891h-4.1693c-0.4585,0-0.8335,0.3092-0.8335,0.6873v1.9954
						c0.7385,0.4117,1.7721,0.6681,2.9184,0.6681c1.1456,0,2.1794-0.2564,2.9183-0.6681v-1.9954
						C88.3368,147.3983,87.9613,147.0891,87.5028,147.0891z"/>
				</g>
				<g id="XMLID_925_">
					<g id="XMLID_929_">
						<path id="XMLID_930_" class="st3" d="M95.225,151.9003h-3.6092c-0.6125,0-1.1137-0.5012-1.1137-1.1137v-2.5842
							c0-0.6123,0.501-1.1133,1.1133-1.1133h3.6101c0.6123,0,1.1133,0.501,1.1133,1.1133v2.5841
							C96.3388,151.3991,95.8376,151.9003,95.225,151.9003z"/>
					</g>
					<path id="XMLID_926_" class="st0" d="M95.5053,147.0891h-4.1697c-0.4585,0-0.8335,0.3092-0.8335,0.6873v1.9954
						c0.7389,0.4117,1.772,0.6681,2.9183,0.6681s2.1794-0.2564,2.9184-0.6681v-1.9954
						C96.3388,147.3983,95.9638,147.0891,95.5053,147.0891z"/>
				</g>
				<g id="XMLID_919_">
					<g id="XMLID_923_">
						<path id="XMLID_924_" class="st3" d="M103.2276,151.9003h-3.6097c-0.6126,0-1.1138-0.5012-1.1138-1.1138v-2.5841
							c0-0.6123,0.501-1.1133,1.1133-1.1133h3.6102c0.6126,0,1.1138,0.5012,1.1138,1.1138v2.5836
							C104.3414,151.3991,103.8402,151.9003,103.2276,151.9003z"/>
					</g>
					<path id="XMLID_920_" class="st0" d="M103.5073,147.0891h-4.1692c-0.4585,0-0.8341,0.3092-0.8341,0.6873v1.9954
						c0.739,0.4117,1.7727,0.6681,2.9189,0.6681c1.1463,0,2.1794-0.2564,2.9184-0.6681v-1.9954
						C104.3414,147.3983,103.9658,147.0891,103.5073,147.0891z"/>
				</g>
				<g id="XMLID_911_">
					<g id="XMLID_917_">
						<path id="XMLID_918_" class="st3" d="M111.2296,151.9003H107.62c-0.6123,0-1.1133-0.501-1.1133-1.1133v-2.5846
							c0-0.6123,0.501-1.1133,1.1133-1.1133h3.6101c0.6123,0,1.1133,0.501,1.1133,1.1133v2.5841
							C112.3434,151.3991,111.8422,151.9003,111.2296,151.9003z"/>
					</g>
					<path id="XMLID_914_" class="st0" d="M111.5099,147.0891h-4.1693c-0.459,0-0.834,0.3092-0.834,0.6873v1.9954
						c0.739,0.4117,1.7727,0.6681,2.9188,0.6681c1.1457,0,2.1794-0.2564,2.9179-0.6681v-1.9954
						C112.3434,147.3983,111.9684,147.0891,111.5099,147.0891z"/>
				</g>
			</g>
		</g>
		<g id="XMLID_31_">
			<path id="XMLID_890_" class="st0" d="M163.6245,176.1317h-22.3937c-1.0127,0-1.8413-0.8286-1.8413-1.8413v-30.0766
				c0-1.0127,0.8286-1.8413,1.8413-1.8413h22.3937c1.0125,0,1.8409,0.8284,1.8409,1.8409v30.0774
				C165.4654,175.3033,164.637,176.1317,163.6245,176.1317z"/>
			<g id="XMLID_864_">
				<path id="XMLID_882_" class="st1" d="M145.736,160.037L145.736,160.037c-1.5474,0-2.8138-1.2663-2.8138-2.8138v-6.8216
					c0-1.5479,1.2659-2.8138,2.8138-2.8138h0.0005c1.5475,0,2.8138,1.2659,2.8138,2.8138v6.8216
					C148.5503,158.7707,147.284,160.037,145.736,160.037z"/>
				<path id="XMLID_881_" class="st1" d="M152.4275,160.037L152.4275,160.037c-1.5479,0-2.8138-1.2663-2.8138-2.8138v-6.8216
					c0-1.5474,1.2659-2.8138,2.8138-2.8138l0,0c1.5479,0,2.8143,1.2664,2.8143,2.8143v6.8206
					C155.2418,158.7707,153.9754,160.037,152.4275,160.037z"/>
				<path id="XMLID_880_" class="st1" d="M159.1183,160.037L159.1183,160.037c-1.5474,0-2.8138-1.2663-2.8138-2.8138v-6.8216
					c0-1.5479,1.2664-2.8138,2.8138-2.8138h0.0005c1.5479,0,2.8138,1.2659,2.8138,2.8138v6.8216
					C161.9327,158.7707,160.6662,160.037,159.1183,160.037z"/>
			</g>
		</g>
	</g>
	<path id="XMLID_384_" class="st4" d="M130.3443,10.8017c-31.7708-1.388-63.4521-1.388-95.2229,0
		c-2.5072,0.1217-4.8248,2.4212-5.1002,5.0957c-1.2217,14.1214-1.5686,27.9778-1.0799,41.9381
		c15.8196,4.7434,34.1915,7.4602,53.7917,7.4602c19.6001,0,37.9725-2.7168,53.7921-7.4602
		c0.4886-13.9604,0.1413-27.8167-1.0805-41.9381C135.1691,13.223,132.8515,10.9234,130.3443,10.8017z"/>
</g>
</svg>
