<?xml version="1.0" encoding="utf-8"?>
<!-- Generator: Adobe Illustrator 19.0.0, SVG Export Plug-In . SVG Version: 6.00 Build 0)  -->
<svg version="1.1" id="Capa_1" xmlns="http://www.w3.org/2000/svg" xmlns:xlink="http://www.w3.org/1999/xlink" x="0px" y="0px"
	 viewBox="0 0 342.5 264.2" style="enable-background:new 0 0 342.5 264.2;" xml:space="preserve">
<style type="text/css">
	.st0{fill:#231F20;}
	.st1{fill:#F1F1F1;}
	.st2{fill:#55B9C7;}
	.st3{fill:#FFB353;}
</style>
<g id="XMLID_5495_">
	<path id="XMLID_6263_" class="st0" d="M307,175c0,4-3.3,7.3-7.3,7.3H42.8c-4,0-7.3-3.3-7.3-7.3V7.3c0-4,3.3-7.3,7.3-7.3h256.9
		c4,0,7.3,3.3,7.3,7.3V175z"/>
	<path id="XMLID_6262_" class="st0" d="M333.2,263.4c0,0.5-3.9,0.8-8.7,0.8H18c-4.8,0-8.7-0.4-8.7-0.8v-19c0-0.5,3.9-0.8,8.7-0.8
		h306.5c4.8,0,8.7,0.4,8.7,0.8V263.4z"/>
	<path id="XMLID_6261_" class="st1" d="M342.4,254.7c0.8,1.5-2.7,2.7-7.8,2.7H7.9c-5.1,0-8.6-1.2-7.8-2.7L34,193.2
		c0.8-1.5,4.7-2.7,8.8-2.7h256.9c4,0,8,1.2,8.8,2.7L342.4,254.7z"/>
	<path id="XMLID_6260_" class="st0" d="M316.7,234.4c0.7,0.9-2.3,1.6-6.6,1.6H32.5c-4.4,0-7.3-0.7-6.6-1.6l19.7-37.9
		c0.7-0.9,4-1.6,7.5-1.6h236.6c3.4,0,6.8,0.7,7.5,1.6L316.7,234.4z"/>
	<path id="XMLID_6259_" class="st2" d="M293.4,166.6c0,3.6-2.9,6.6-6.6,6.6H55.7c-3.6,0-6.6-2.9-6.6-6.6V15.7c0-3.6,2.9-6.6,6.6-6.6
		h231.1c3.6,0,6.6,2.9,6.6,6.6V166.6z"/>
	<path id="XMLID_6258_" class="st0" d="M210.2,246.7c0,3.8-3.1,7-7,7h-64c-3.8,0-7-3.1-7-7l0,0c0-3.8,3.1-7,7-7h64
		C207.1,239.8,210.2,242.9,210.2,246.7L210.2,246.7z"/>
	<g id="XMLID_6248_">
		<path id="XMLID_6257_" class="st1" d="M74,199.3c0,1.1-0.9,2.1-2.1,2.1H53c-1.1,0-2.1-0.9-2.1-2.1l0,0c0-1.1,0.9-2.1,2.1-2.1h19
			C73.1,197.3,74,198.2,74,199.3L74,199.3z"/>
		<path id="XMLID_6256_" class="st1" d="M101.2,199.3c0,1.1-0.9,2.1-2.1,2.1h-19c-1.1,0-2.1-0.9-2.1-2.1l0,0c0-1.1,0.9-2.1,2.1-2.1
			h19C100.3,197.3,101.2,198.2,101.2,199.3L101.2,199.3z"/>
		<path id="XMLID_6255_" class="st1" d="M128.4,199.3c0,1.1-0.9,2.1-2.1,2.1h-19c-1.1,0-2.1-0.9-2.1-2.1l0,0c0-1.1,0.9-2.1,2.1-2.1
			h19C127.5,197.3,128.4,198.2,128.4,199.3L128.4,199.3z"/>
		<path id="XMLID_6254_" class="st1" d="M155.6,199.3c0,1.1-0.9,2.1-2.1,2.1h-19c-1.1,0-2.1-0.9-2.1-2.1l0,0c0-1.1,0.9-2.1,2.1-2.1
			h19C154.7,197.3,155.6,198.2,155.6,199.3L155.6,199.3z"/>
		<path id="XMLID_6253_" class="st1" d="M182.8,199.3c0,1.1-0.9,2.1-2.1,2.1h-19c-1.1,0-2.1-0.9-2.1-2.1l0,0c0-1.1,0.9-2.1,2.1-2.1
			h19C181.9,197.3,182.8,198.2,182.8,199.3L182.8,199.3z"/>
		<path id="XMLID_6252_" class="st1" d="M210,199.3c0,1.1-0.9,2.1-2.1,2.1h-19c-1.1,0-2.1-0.9-2.1-2.1l0,0c0-1.1,0.9-2.1,2.1-2.1h19
			C209.1,197.3,210,198.2,210,199.3L210,199.3z"/>
		<path id="XMLID_6251_" class="st1" d="M237.2,199.3c0,1.1-0.9,2.1-2.1,2.1h-19c-1.1,0-2.1-0.9-2.1-2.1l0,0c0-1.1,0.9-2.1,2.1-2.1
			h19C236.3,197.3,237.2,198.2,237.2,199.3L237.2,199.3z"/>
		<path id="XMLID_6250_" class="st1" d="M264.4,199.3c0,1.1-0.9,2.1-2.1,2.1h-19c-1.1,0-2.1-0.9-2.1-2.1l0,0c0-1.1,0.9-2.1,2.1-2.1
			h19C263.5,197.3,264.4,198.2,264.4,199.3L264.4,199.3z"/>
		<path id="XMLID_6249_" class="st1" d="M291.6,199.3c0,1.1-0.9,2.1-2.1,2.1h-19c-1.1,0-2.1-0.9-2.1-2.1l0,0c0-1.1,0.9-2.1,2.1-2.1
			h19C290.7,197.3,291.6,198.2,291.6,199.3L291.6,199.3z"/>
	</g>
	<g id="XMLID_5658_">
		<path id="XMLID_6247_" class="st1" d="M65.1,214.2c0,1.4-1,2.6-2.3,2.6H42.1c-1.2,0-2.3-1.2-2.3-2.6l0,0c0-1.4,1-2.6,2.3-2.6h20.7
			C64.1,211.6,65.1,212.8,65.1,214.2L65.1,214.2z"/>
		<path id="XMLID_6242_" class="st1" d="M94.8,214.2c0,1.4-1,2.6-2.3,2.6H71.8c-1.2,0-2.3-1.2-2.3-2.6l0,0c0-1.4,1-2.6,2.3-2.6h20.7
			C93.8,211.6,94.8,212.8,94.8,214.2L94.8,214.2z"/>
		<path id="XMLID_6240_" class="st1" d="M124.5,214.2c0,1.4-1,2.6-2.3,2.6h-20.7c-1.2,0-2.3-1.2-2.3-2.6l0,0c0-1.4,1-2.6,2.3-2.6
			h20.7C123.5,211.6,124.5,212.8,124.5,214.2L124.5,214.2z"/>
		<path id="XMLID_6239_" class="st1" d="M154.2,214.2c0,1.4-1,2.6-2.3,2.6h-20.7c-1.2,0-2.3-1.2-2.3-2.6l0,0c0-1.4,1-2.6,2.3-2.6
			h20.7C153.2,211.6,154.2,212.8,154.2,214.2L154.2,214.2z"/>
		<path id="XMLID_6228_" class="st1" d="M183.9,214.2c0,1.4-1,2.6-2.3,2.6h-20.7c-1.2,0-2.3-1.2-2.3-2.6l0,0c0-1.4,1-2.6,2.3-2.6
			h20.7C182.9,211.6,183.9,212.8,183.9,214.2L183.9,214.2z"/>
		<path id="XMLID_6226_" class="st1" d="M213.6,214.2c0,1.4-1,2.6-2.3,2.6h-20.7c-1.2,0-2.3-1.2-2.3-2.6l0,0c0-1.4,1-2.6,2.3-2.6
			h20.7C212.6,211.6,213.6,212.8,213.6,214.2L213.6,214.2z"/>
		<path id="XMLID_5796_" class="st1" d="M243.3,214.2c0,1.4-1,2.6-2.3,2.6h-20.7c-1.2,0-2.3-1.2-2.3-2.6l0,0c0-1.4,1-2.6,2.3-2.6
			H241C242.3,211.6,243.3,212.8,243.3,214.2L243.3,214.2z"/>
		<path id="XMLID_5660_" class="st1" d="M273,214.2c0,1.4-1,2.6-2.3,2.6H250c-1.2,0-2.3-1.2-2.3-2.6l0,0c0-1.4,1-2.6,2.3-2.6h20.7
			C272,211.6,273,212.8,273,214.2L273,214.2z"/>
		<path id="XMLID_5659_" class="st1" d="M302.7,214.2c0,1.4-1,2.6-2.3,2.6h-20.7c-1.2,0-2.3-1.2-2.3-2.6l0,0c0-1.4,1-2.6,2.3-2.6
			h20.7C301.6,211.6,302.7,212.8,302.7,214.2L302.7,214.2z"/>
	</g>
	<g id="XMLID_5549_">
		<path id="XMLID_5657_" class="st1" d="M60.3,222.7c0,1.4-1.1,2.6-2.4,2.6H36.2c-1.3,0-2.4-1.2-2.4-2.6l0,0c0-1.4,1.1-2.6,2.4-2.6
			h21.7C59.2,220.1,60.3,221.3,60.3,222.7L60.3,222.7z"/>
		<path id="XMLID_5656_" class="st1" d="M91.3,222.7c0,1.4-1.1,2.6-2.4,2.6H67.3c-1.3,0-2.4-1.2-2.4-2.6l0,0c0-1.4,1.1-2.6,2.4-2.6
			H89C90.3,220.1,91.3,221.3,91.3,222.7L91.3,222.7z"/>
		<path id="XMLID_5655_" class="st1" d="M122.4,222.7c0,1.4-1.1,2.6-2.4,2.6H98.3c-1.3,0-2.4-1.2-2.4-2.6l0,0c0-1.4,1.1-2.6,2.4-2.6
			H120C121.3,220.1,122.4,221.3,122.4,222.7L122.4,222.7z"/>
		<path id="XMLID_5654_" class="st1" d="M153.4,222.7c0,1.4-1.1,2.6-2.4,2.6h-21.7c-1.3,0-2.4-1.2-2.4-2.6l0,0
			c0-1.4,1.1-2.6,2.4-2.6h21.7C152.4,220.1,153.4,221.3,153.4,222.7L153.4,222.7z"/>
		<path id="XMLID_5653_" class="st1" d="M184.5,222.7c0,1.4-1.1,2.6-2.4,2.6h-21.7c-1.3,0-2.4-1.2-2.4-2.6l0,0
			c0-1.4,1.1-2.6,2.4-2.6h21.7C183.4,220.1,184.5,221.3,184.5,222.7L184.5,222.7z"/>
		<path id="XMLID_5558_" class="st1" d="M215.5,222.7c0,1.4-1.1,2.6-2.4,2.6h-21.7c-1.3,0-2.4-1.2-2.4-2.6l0,0
			c0-1.4,1.1-2.6,2.4-2.6h21.7C214.5,220.1,215.5,221.3,215.5,222.7L215.5,222.7z"/>
		<path id="XMLID_5557_" class="st1" d="M246.6,222.7c0,1.4-1.1,2.6-2.4,2.6h-21.7c-1.3,0-2.4-1.2-2.4-2.6l0,0
			c0-1.4,1.1-2.6,2.4-2.6h21.7C245.5,220.1,246.6,221.3,246.6,222.7L246.6,222.7z"/>
		<path id="XMLID_5553_" class="st1" d="M277.6,222.7c0,1.4-1.1,2.6-2.4,2.6h-21.7c-1.3,0-2.4-1.2-2.4-2.6l0,0
			c0-1.4,1.1-2.6,2.4-2.6h21.7C276.5,220.1,277.6,221.3,277.6,222.7L277.6,222.7z"/>
		<path id="XMLID_5550_" class="st1" d="M308.6,222.7c0,1.4-1.1,2.6-2.4,2.6h-21.7c-1.3,0-2.4-1.2-2.4-2.6l0,0
			c0-1.4,1.1-2.6,2.4-2.6h21.7C307.6,220.1,308.6,221.3,308.6,222.7L308.6,222.7z"/>
	</g>
	<g id="XMLID_5528_">
		<path id="XMLID_5548_" class="st1" d="M60.3,230.8c0,1.4-1.1,2.6-2.4,2.6H36.2c-1.3,0-2.4-1.2-2.4-2.6l0,0c0-1.4,1.1-2.6,2.4-2.6
			h21.7C59.2,228.3,60.3,229.4,60.3,230.8L60.3,230.8z"/>
		<path id="XMLID_5547_" class="st1" d="M91.3,230.8c0,1.4-1.1,2.6-2.4,2.6H67.3c-1.3,0-2.4-1.2-2.4-2.6l0,0c0-1.4,1.1-2.6,2.4-2.6
			H89C90.3,228.3,91.3,229.4,91.3,230.8L91.3,230.8z"/>
		<path id="XMLID_5546_" class="st1" d="M122.4,230.8c0,1.4-1.1,2.6-2.4,2.6H98.3c-1.3,0-2.4-1.2-2.4-2.6l0,0c0-1.4,1.1-2.6,2.4-2.6
			H120C121.3,228.3,122.4,229.4,122.4,230.8L122.4,230.8z"/>
		<path id="XMLID_5545_" class="st1" d="M153.4,230.8c0,1.4-1.1,2.6-2.4,2.6h-21.7c-1.3,0-2.4-1.2-2.4-2.6l0,0
			c0-1.4,1.1-2.6,2.4-2.6h21.7C152.4,228.3,153.4,229.4,153.4,230.8L153.4,230.8z"/>
		<path id="XMLID_5544_" class="st1" d="M184.5,230.8c0,1.4-1.1,2.6-2.4,2.6h-21.7c-1.3,0-2.4-1.2-2.4-2.6l0,0
			c0-1.4,1.1-2.6,2.4-2.6h21.7C183.4,228.3,184.5,229.4,184.5,230.8L184.5,230.8z"/>
		<path id="XMLID_5543_" class="st1" d="M215.5,230.8c0,1.4-1.1,2.6-2.4,2.6h-21.7c-1.3,0-2.4-1.2-2.4-2.6l0,0
			c0-1.4,1.1-2.6,2.4-2.6h21.7C214.5,228.3,215.5,229.4,215.5,230.8L215.5,230.8z"/>
		<path id="XMLID_5541_" class="st1" d="M246.6,230.8c0,1.4-1.1,2.6-2.4,2.6h-21.7c-1.3,0-2.4-1.2-2.4-2.6l0,0
			c0-1.4,1.1-2.6,2.4-2.6h21.7C245.5,228.3,246.6,229.4,246.6,230.8L246.6,230.8z"/>
		<path id="XMLID_5539_" class="st1" d="M277.6,230.8c0,1.4-1.1,2.6-2.4,2.6h-21.7c-1.3,0-2.4-1.2-2.4-2.6l0,0
			c0-1.4,1.1-2.6,2.4-2.6h21.7C276.5,228.3,277.6,229.4,277.6,230.8L277.6,230.8z"/>
		<path id="XMLID_5529_" class="st1" d="M308.6,230.8c0,1.4-1.1,2.6-2.4,2.6h-21.7c-1.3,0-2.4-1.2-2.4-2.6l0,0
			c0-1.4,1.1-2.6,2.4-2.6h21.7C307.6,228.3,308.6,229.4,308.6,230.8L308.6,230.8z"/>
	</g>
	<g id="XMLID_5496_">
		<path id="XMLID_5520_" class="st1" d="M68.4,206.6c0,1.1-1,2.1-2.2,2.1H46.1c-1.2,0-2.2-0.9-2.2-2.1l0,0c0-1.1,1-2.1,2.2-2.1h20.1
			C67.4,204.5,68.4,205.5,68.4,206.6L68.4,206.6z"/>
		<path id="XMLID_5518_" class="st1" d="M97.2,206.6c0,1.1-1,2.1-2.2,2.1H74.9c-1.2,0-2.2-0.9-2.2-2.1l0,0c0-1.1,1-2.1,2.2-2.1H95
			C96.2,204.5,97.2,205.5,97.2,206.6L97.2,206.6z"/>
		<path id="XMLID_5513_" class="st1" d="M125.9,206.6c0,1.1-1,2.1-2.2,2.1h-20.1c-1.2,0-2.2-0.9-2.2-2.1l0,0c0-1.1,1-2.1,2.2-2.1
			h20.1C125,204.5,125.9,205.5,125.9,206.6L125.9,206.6z"/>
		<path id="XMLID_5512_" class="st1" d="M154.7,206.6c0,1.1-1,2.1-2.2,2.1h-20.1c-1.2,0-2.2-0.9-2.2-2.1l0,0c0-1.1,1-2.1,2.2-2.1
			h20.1C153.7,204.5,154.7,205.5,154.7,206.6L154.7,206.6z"/>
		<path id="XMLID_5510_" class="st1" d="M183.5,206.6c0,1.1-1,2.1-2.2,2.1h-20.1c-1.2,0-2.2-0.9-2.2-2.1l0,0c0-1.1,1-2.1,2.2-2.1
			h20.1C182.5,204.5,183.5,205.5,183.5,206.6L183.5,206.6z"/>
		<path id="XMLID_5508_" class="st1" d="M212.3,206.6c0,1.1-1,2.1-2.2,2.1H190c-1.2,0-2.2-0.9-2.2-2.1l0,0c0-1.1,1-2.1,2.2-2.1h20.1
			C211.3,204.5,212.3,205.5,212.3,206.6L212.3,206.6z"/>
		<path id="XMLID_5499_" class="st1" d="M241,206.6c0,1.1-1,2.1-2.2,2.1h-20.1c-1.2,0-2.2-0.9-2.2-2.1l0,0c0-1.1,1-2.1,2.2-2.1h20.1
			C240.1,204.5,241,205.5,241,206.6L241,206.6z"/>
		<path id="XMLID_5498_" class="st1" d="M269.8,206.6c0,1.1-1,2.1-2.2,2.1h-20.1c-1.2,0-2.2-0.9-2.2-2.1l0,0c0-1.1,1-2.1,2.2-2.1
			h20.1C268.8,204.5,269.8,205.5,269.8,206.6L269.8,206.6z"/>
		<path id="XMLID_5497_" class="st1" d="M298.6,206.6c0,1.1-1,2.1-2.2,2.1h-20.1c-1.2,0-2.2-0.9-2.2-2.1l0,0c0-1.1,1-2.1,2.2-2.1
			h20.1C297.6,204.5,298.6,205.5,298.6,206.6L298.6,206.6z"/>
	</g>
</g>
<polygon id="XMLID_6264_" class="st3" points="276.5,31.3 276.1,31 243.6,44.5 248.7,49.2 169.6,128.9 123.8,100.7 123.7,100.7 
	123.5,100.5 97.8,129.4 66.5,107.9 66,108.3 96.6,151.2 97.6,150.3 125.8,124.2 169.8,151.3 170.1,150.7 170.5,151.3 261,60.7 
	267.6,66.9 "/>
</svg>
