<?xml version="1.0" encoding="utf-8"?>
<!-- Generator: Adobe Illustrator 19.0.0, SVG Export Plug-In . SVG Version: 6.00 Build 0)  -->
<svg version="1.1" id="Capa_1" xmlns="http://www.w3.org/2000/svg" xmlns:xlink="http://www.w3.org/1999/xlink" x="0px" y="0px"
	 viewBox="0 0 214.4098 139.4722" style="enable-background:new 0 0 214.4098 139.4722;" xml:space="preserve">
<style type="text/css">
	.st0{fill:#605553;}
	.st1{fill:#65A599;}
	.st2{fill:#544A49;}
	.st3{fill:#545151;}
	.st4{fill:#6B605E;}
	.st5{opacity:0.13;fill:#FFFFFF;}
</style>
<g id="XMLID_1424_">
	<g id="XMLID_1434_">
		<path id="XMLID_1448_" class="st0" d="M214.4098,136.2542c0,1.7768-1.2607,3.218-2.8164,3.218h-62.609
			c-1.5576,0-2.8173-1.4413-2.8173-3.218V3.217c0-1.7768,1.2597-3.217,2.8173-3.217h62.609c1.5557,0,2.8164,1.4402,2.8164,3.217
			V136.2542z"/>
		<path id="XMLID_1447_" class="st1" d="M208.3107,81.0577c0,0.9759-1.033,1.7658-2.3109,1.7658h-51.4217
			c-1.2767,0-2.3118-0.7899-2.3118-1.7658V8.0193c0-0.9769,1.035-1.7683,2.3118-1.7683h51.4217
			c1.2779,0,2.3109,0.7913,2.3109,1.7683V81.0577z"/>
		<rect id="XMLID_1446_" x="156.1959" y="23.9381" class="st0" width="48.1842" height="11.1897"/>
		<rect id="XMLID_1445_" x="156.1959" y="37.0003" class="st0" width="48.1842" height="11.1898"/>
		<rect id="XMLID_1444_" x="156.1959" y="50.0607" class="st0" width="48.1842" height="11.1911"/>
		<rect id="XMLID_1443_" x="156.1959" y="10.8763" class="st0" width="48.1842" height="11.1892"/>
		<path id="XMLID_1442_" class="st1" d="M203.3781,14.7974c0,0.3215-0.1826,0.5847-0.4043,0.5847h-45.3717
			c-0.2197,0-0.4022-0.2632-0.4022-0.5847v-1.5587c0-0.3225,0.1825-0.5842,0.4022-0.5842h45.3717
			c0.2216,0,0.4043,0.2617,0.4043,0.5842V14.7974z"/>
		<ellipse id="XMLID_1441_" class="st1" cx="201.2959" cy="18.4789" rx="1.2698" ry="1.3369"/>
		<path id="XMLID_1440_" class="st2" d="M195.2017,106.1035c0,8.2365-6.6778,14.9124-14.9112,14.9124
			c-8.2375,0-14.9133-6.6758-14.9133-14.9124c0-8.2329,6.6758-14.9077,14.9133-14.9077
			C188.5239,91.1958,195.2017,97.8706,195.2017,106.1035z"/>
		<path id="XMLID_1439_" class="st1" d="M193.0684,106.1035c0,7.0606-5.722,12.7825-12.778,12.7825
			c-7.0599,0-12.7819-5.7219-12.7819-12.7825c0-7.0564,5.722-12.7784,12.7819-12.7784
			C187.3464,93.3252,193.0684,99.0471,193.0684,106.1035z"/>
		<path id="XMLID_1438_" class="st3" d="M188.3073,106.1035c0,4.4312-3.5887,8.0219-8.0198,8.0219
			c-4.4282,0-8.0179-3.5907-8.0179-8.0219c0-4.4256,3.5896-8.0173,8.0179-8.0173
			C184.7186,98.0863,188.3073,101.678,188.3073,106.1035z"/>
		<g id="XMLID_1435_">
			<path id="XMLID_1437_" class="st1" d="M181.5392,101.4136v1.2518c1.2306,0.496,2.1042,1.7006,2.1042,3.1123
				c0,1.851-1.5004,3.355-3.3559,3.355c-1.8526,0-3.353-1.504-3.353-3.355c0-1.4117,0.8716-2.6163,2.1023-3.1123v-1.2518
				c-1.8986,0.5441-3.2888,2.2889-3.2888,4.364c0,2.5054,2.0301,4.541,4.5396,4.541c2.5104,0,4.5435-2.0356,4.5435-4.541
				C184.831,103.7025,183.4408,101.9577,181.5392,101.4136z"/>
			<path id="XMLID_1436_" class="st1" d="M181.0748,104.4131c0,0.2397-0.1144,0.4313-0.2558,0.4313h-1.0612
				c-0.1423,0-0.2568-0.1915-0.2568-0.4313v-4.0661c0-0.2397,0.1144-0.4349,0.2568-0.4349h1.0612
				c0.1414,0,0.2558,0.1951,0.2558,0.4349V104.4131z"/>
		</g>
	</g>
	<g id="XMLID_1425_">
		<path id="XMLID_1433_" class="st4" d="M88.0405,138.6487c0,0.4564-0.3681,0.8235-0.8225,0.8235h-40.409
			c-0.4554,0-0.8214-0.3671-0.8214-0.8235v-1.8209c0-0.4519,0.366-0.8204,0.8214-0.8204h40.409
			c0.4544,0,0.8225,0.3685,0.8225,0.8204V138.6487z"/>
		<path id="XMLID_1432_" class="st4" d="M73.4482,133.353c0,0.2317-0.2087,0.4187-0.4695,0.4187H61.0483
			c-0.2597,0-0.4674-0.187-0.4674-0.4187v-16.7317c0-0.2317,0.2077-0.4198,0.4674-0.4198h11.9304
			c0.2608,0,0.4695,0.188,0.4695,0.4198V133.353z"/>
		<path id="XMLID_1431_" class="st0" d="M90.5669,137.3694c-0.0642,0.5025-0.5235,0.8586-1.028,0.7974
			c-14.9615-1.8154-30.0864-1.8154-45.0479,0c-0.5045,0.0612-0.9648-0.2949-1.029-0.7974c-0.0843-0.671-0.1696-1.3414-0.2538-2.0124
			c-0.0642-0.5025,0.3009-0.9629,0.8174-1.0251c15.2704-1.853,30.7082-1.853,45.9786,0c0.5155,0.0626,0.8806,0.5226,0.8164,1.0251
			C90.7355,136.028,90.6513,136.6984,90.5669,137.3694z"/>
		<path id="XMLID_1430_" class="st0" d="M134.028,119.8193c0,1.2337-0.8796,2.2347-1.9638,2.2347H1.9649
			c-1.0843,0-1.9649-1.001-1.9649-2.2347V34.703c0-1.2341,0.8806-2.2347,1.9649-2.2347h130.0993
			c1.0843,0,1.9638,1.0006,1.9638,2.2347V119.8193z"/>
		<path id="XMLID_1429_" class="st1" d="M130.0001,116.4679c0,0.2477-0.1766,0.4478-0.3922,0.4478H4.4211
			c-0.2167,0-0.3922-0.2001-0.3922-0.4478V38.0534c0-0.2467,0.1755-0.4468,0.3922-0.4468h125.1868
			c0.2157,0,0.3922,0.2001,0.3922,0.4468V116.4679z"/>
		<path id="XMLID_1426_" class="st5" d="M127.0213,39.9446H7.0078c-0.2086,0-0.3771,0.1917-0.3771,0.4283v49.3276
			c15.9193,7.0123,37.1133,11.2905,60.3844,11.2905c23.2691,0,44.4641-4.2782,60.3834-11.2905V40.3728
			C127.3984,40.1362,127.2288,39.9446,127.0213,39.9446z"/>
	</g>
</g>
</svg>
