<?xml version="1.0" encoding="utf-8"?>
<!-- Generator: Adobe Illustrator 19.0.0, SVG Export Plug-In . SVG Version: 6.00 Build 0)  -->
<svg version="1.1" id="Capa_1" xmlns="http://www.w3.org/2000/svg" xmlns:xlink="http://www.w3.org/1999/xlink" x="0px" y="0px"
	 viewBox="-241.1 275.3 145.1 129" style="enable-background:new -241.1 275.3 145.1 129;" xml:space="preserve">
<style type="text/css">
	.st0{fill:#2F2622;}
</style>
<g id="XMLID_1620_">
	<g id="XMLID_1644_">
		<path id="XMLID_1649_" class="st0" d="M-208,374.5L-208,374.5l0.1,0.1c0.2,0.9,1.4,1,1.4,1l11.1,0.8l12.7,1l8.2,0.8l10.6,0.9
			l0,0.1c0.5,1,1.1,1.5,1.8,1.5c1.1,0,2.2-1.2,2.2-1.2l0,0l12.3,1l0,0c1.3,1.2,2.4,1.8,3.5,1.8c2.5,0,3.7-3.3,3.7-3.3l0-0.1l0.1,0
			c17.6-4.8,28-11.6,33.5-16.4c6-5.2,7.9-9.3,8-9.4c4-8.3,2.7-16.7,1-22.2c-1.9-6-4.8-10.2-4.8-10.2c-8.5-12.3-40.5-37.7-44.1-40.2
			c-3.2-2.2-13.7-3.8-13.8-3.8c-2.5-0.7-4.6-1.1-6.2-1.1c-1.7,0-2.4,0.4-2.4,0.4l0,0c-11.3,2.8-25.5,15.3-26,15.7
			c-12.7,26-19,64.9-19.4,67.5h0.4l-0.1,0.5l-0.5,0.5c0,0.1-0.1,0.2-0.1,0.5c0.3-0.3,0.6-0.4,1,0.3l-0.5,9c0,0-0.4,0.2-0.9,0.1
			C-214.1,374.4-208.1,374.5-208,374.5z M-192,369.1c-0.7,2.1-4.2,1.1-4.2,1.1c-3.5-0.5-3.1-5-3.1-5c0.1-4.4,2.2-5.6,2.2-5.6
			c1.5-1.1,3.8-0.7,3.8-0.7c1.3-0.1,1.5,0.9,1.5,0.9C-189.9,362.2-192,369.1-192,369.1z M-165.1,279.7c0,0,1-0.6,1.6-0.5l2.3,0.6
			c0,0,8.1,1.3,11.6,2.8c0,0,1.4,0.5,8.2,6l9.8,8.3l11.2,9.9c0,0,8.2,7.9,8.6,8.4c0,0,5.8,6.6,7.1,9.1c0,0,3.7,7.3,4.1,10.6
			c0,0,0.8,3.9,0.7,4.8l-85.8,17.2C-185.8,356.7-172.8,283.4-165.1,279.7z M-197.2,299.4c9.7-9.1,19.8-11.7,19.8-11.7
			c1.3-0.7,0.8,0.2,0.8,0.2c-9.2,25.6-14.9,58.9-14.9,58.9c-0.2,0.6-0.5,1.2-0.5,1.2c-13.7,0.2-18.5,2.5-18.5,2.5
			C-206.3,324.7-197.2,299.4-197.2,299.4z"/>
		<path id="XMLID_1648_" class="st0" d="M-97.6,330.8c-1.9-6.1-4.8-10.2-4.8-10.3c-8.6-12.4-40.5-37.7-44.2-40.3
			c-3.2-2.2-13.5-3.8-13.9-3.9c-2.5-0.7-4.6-1.1-6.3-1.1c-1.7,0-2.4,0.4-2.5,0.4c-11.5,2.9-26,15.7-26.1,15.8l0,0
			c-13.1,26.8-19.4,67.3-19.4,67.7l0,0.1h0.4l0,0.2l-0.4,0.5l0,0c0,0-0.1,0.4-0.3,1.1c0-0.1,0.1-0.2,0.2-0.3
			c0.1-0.5,0.2-0.7,0.2-0.7l0.5-0.5l0-0.4h-0.4c0,0,6.2-40.6,19.4-67.6c0,0,14.5-12.9,26.1-15.8c0,0,1.9-1.3,8.7,0.6
			c0,0,10.6,1.6,13.9,3.9c3.2,2.3,35.4,27.7,44.1,40.3c0,0,11.6,16.4,3.9,32.5c0,0-7.4,16.4-41.6,25.8c0,0-2.3,6.4-7.4,1.6l-12.2-1
			c0,0-2.6,3-4.2-0.3l-10.5-0.9l-8.2-0.8l-12.7-1l-11.1-0.8c0,0-1.3-0.1-1.5-1.1c0,0-6.1-0.1-7.4-4.6c0,0,0-0.1,0-0.1
			c0,0-0.1-0.1-0.1-0.1c0,0.1,0,0.2,0.1,0.2c1.2,4.2,6.6,4.6,7.4,4.7c0.3,1,1.5,1.1,1.6,1.1l11.1,0.8l12.7,1l8.2,0.8l10.5,0.9
			c0.5,1,1.2,1.6,2,1.6c1.1,0,2.1-1,2.3-1.2l12.1,1c1.3,1.2,2.5,1.8,3.6,1.8c2.5,0,3.7-3,3.9-3.4c17.6-4.8,28-11.6,33.6-16.4
			c6.1-5.2,8-9.4,8-9.4C-94.6,344.9-95.8,336.4-97.6,330.8z"/>
		<path id="XMLID_1646_" class="st0" d="M-215.3,361.2C-215.3,361.2-215.3,361.3-215.3,361.2c-1.3,4.3-0.6,8-0.6,8
			c0.1,0.3,0.2,0.5,0.3,0.6C-216.4,366.6-215.7,363-215.3,361.2z"/>
		<path id="XMLID_1645_" class="st0" d="M-215.4,369.9c0,0,0.1,0.1,0.1,0.1l0,0c-1-3.6,0-7.9,0.4-9.3c-0.1,0.1-0.1,0.1-0.2,0.2
			C-215.5,362.5-216.4,366.5-215.4,369.9z"/>
	</g>
	<g id="XMLID_1621_">
		<g id="XMLID_1628_">
			<g id="XMLID_1640_">
				<path id="XMLID_1641_" class="st0" d="M-207.9,403L-207.9,403l-31.9-6c-0.5-0.1-0.9-0.2-1.1-0.5c-0.2-0.2-0.1-0.4-0.1-0.4
					l-0.1-1.5c0-2.2,3.3-2.8,3.5-2.8c0.8,0,74-3.1,79.2-3.7c1.9-0.2,3.1,0.1,3.5,0.8c0.5,0.9-0.4,2.1-0.4,2.1l-0.1,0l-5.4,3.2
					l-20.6,4.7L-207.9,403z M-157.3,388.4c-0.3,0-0.7,0-1.1,0.1c-5.2,0.6-78.4,3.6-79.2,3.6c0,0-3.2,0.6-3.2,2.5l0.1,1.6
					c0,0.2,0.2,0.5,0.9,0.6l31.8,6l26.3-4.1l20.6-4.7l5.3-3.1c0.1-0.2,0.7-1.1,0.4-1.7C-155.5,388.6-156.2,388.4-157.3,388.4z"/>
			</g>
			<path id="XMLID_1639_" class="st0" d="M-207.1,403.2c0,0-1.7-0.3,0.2-1.6c0,0,1.9-1.9,9.9-3.1c0,0,14.9-1.7,22-3.3
				c7-1.7,18.3-5.2,19.3-6c0,0,0.7-0.6,1.1,0.8c0,0,1.3,3.1-0.7,4.3C-155.4,394.3-159.1,399.1-207.1,403.2z"/>
			<path id="XMLID_1638_" class="st0" d="M-238.6,392c0,0,0.3-1.8,2.4-2.1c0,0,22.6-0.9,35.7-6.4h1.3l0.2,0.4l0.8-0.5l0.9-0.1v0.6
				l0.7-0.3l1.1,0.1l-0.1,0.4l0.7-0.5l1.3,0.2l-0.2,0.4h1l0.4-0.5l1.5,0.1l0.1,0.5l0.7-0.5l1.2,0.1l-0.1,0.4l0.7-0.4l1.4,0.1
				l-0.1,0.5l0.7-0.4l1.4,0.2l-0.2,0.7h0.5l0.7-0.7h1.9l0.2,0.6l0.5-0.5l1.7-0.1l-0.2,0.5l0.7-0.5l1.4,0.2l-0.1,0.5l0.6-0.4h1.7
				l-0.1,0.4l0.1,0.6h1.2l0.7-0.7h1.7l0.2,0.6l0.5-0.7h1.8l0.1,0.7l0.7-0.4l1.4-0.1v0.6l2.7-0.3l0.7,1.1l3.1-0.5
				c0,0,0.9-0.7,1.5,0.4l0.7,2.2c0,0-20.6,8.9-47.3,8.3C-205.8,396.6-233,393.3-238.6,392z"/>
		</g>
		<g id="XMLID_1622_">
			<g id="XMLID_1624_">
				<path id="XMLID_1625_" class="st0" d="M-133.5,403c-8.5,0-17.2-1.1-17.3-1.1l-0.1,0l0,0c0,0-2.9-3.1-1.1-5.8
					c0.1-0.1,6.1-5.9,15-5.9c0,0,0.1,0,0.3,0c2.5,0,15.4,0.2,19.1,4.5c0.8,1,1.1,2.1,0.9,3.3C-117.1,401.3-122.8,403-133.5,403z
					 M-150.6,401.6c0.8,0.1,9.1,1.1,17.2,1.1c10.4,0,16.1-1.6,16.6-4.7c0.2-1.1-0.1-2.1-0.9-3c-3.6-4.2-16.3-4.4-18.9-4.4
					c-0.2,0-0.3,0-0.3,0c-8.8,0-14.7,5.7-14.8,5.8C-153.2,398.5-151,401.2-150.6,401.6z"/>
			</g>
			<path id="XMLID_1623_" class="st0" d="M-152.1,399.6c0,0,3.8,3.2,8.7,1.9c0,0,5.8-1.4,9-4.4c0,0,3.2-3.1,3.8-3.7
				c0,0,1.2-2.7,8.8-0.4c0,0,7.9,2.1,4.2,7.8c0,0-1.9,2.4-6.2,2.8l-22.5,0.6C-146.3,404.3-151.3,403.7-152.1,399.6z"/>
		</g>
	</g>
</g>
</svg>
