<?xml version="1.0" encoding="utf-8"?>
<!-- Generator: Adobe Illustrator 16.0.0, SVG Export Plug-In . SVG Version: 6.00 Build 0)  -->
<!DOCTYPE svg PUBLIC "-//W3C//DTD SVG 1.1//EN" "http://www.w3.org/Graphics/SVG/1.1/DTD/svg11.dtd">
<svg version="1.1" id="Capa_1" xmlns="http://www.w3.org/2000/svg" xmlns:xlink="http://www.w3.org/1999/xlink" x="0px" y="0px"
	 width="26.4595px" height="26.459px" viewBox="0 0 26.4595 26.459" enable-background="new 0 0 26.4595 26.459"
	 xml:space="preserve">
<g>
	<g>
		<path fill="#FFFFFF" d="M13.1997,25.4707c-6.7432,0-12.2295-5.4854-12.2295-12.2285c0-6.7441,5.4863-12.2305,12.2295-12.2305
			c6.7441,0,12.2305,5.4863,12.2305,12.2305C25.4302,19.9854,19.9438,25.4707,13.1997,25.4707z"/>
		<path fill="#42210B" d="M13.1997,2.0117c6.1924,0,11.2305,5.0381,11.2305,11.2305c0,6.1914-5.0381,11.2285-11.2305,11.2285
			c-6.1919,0-11.2295-5.0371-11.2295-11.2285C1.9702,7.0498,7.0078,2.0117,13.1997,2.0117 M13.1997,0.0117
			c-7.3057,0-13.2295,5.9238-13.2295,13.2305S5.894,26.4707,13.1997,26.4707c7.3066,0,13.2305-5.9219,13.2305-13.2285
			S20.5063,0.0117,13.1997,0.0117L13.1997,0.0117z"/>
	</g>
	<g>
		<g>
			<path fill="#603813" d="M8.481,7.5771h3.9629c0.8926,0,1.5742,0.0684,2.043,0.2051c0.6299,0.1855,1.1689,0.5156,1.6191,0.9893
				c0.4482,0.4736,0.791,1.0527,1.0254,1.7393c0.2344,0.6855,0.3516,1.5322,0.3516,2.5381c0,0.8838-0.1104,1.6455-0.3301,2.2852
				c-0.2686,0.7813-0.6523,1.4131-1.1504,1.8965c-0.376,0.3662-0.8838,0.6523-1.5234,0.8574
				c-0.4785,0.1514-1.1182,0.2266-1.918,0.2266H8.481V7.5771z M10.6489,9.3936v7.1123h1.6191c0.6045,0,1.042-0.0342,1.3105-0.1035
				c0.3516-0.0879,0.6436-0.2363,0.875-0.4463c0.2324-0.21,0.4219-0.5557,0.5684-1.0361c0.1465-0.4814,0.2188-1.1367,0.2188-1.9668
				s-0.0723-1.4668-0.2188-1.9121c-0.1465-0.4434-0.3516-0.791-0.6152-1.0391c-0.2637-0.25-0.5986-0.418-1.0039-0.5059
				c-0.3027-0.0684-0.8965-0.1025-1.7793-0.1025H10.6489z"/>
		</g>
	</g>
</g>
<g>
</g>
<g>
</g>
<g>
</g>
<g>
</g>
<g>
</g>
<g>
</g>
<g>
</g>
<g>
</g>
<g>
</g>
<g>
</g>
<g>
</g>
<g>
</g>
<g>
</g>
<g>
</g>
<g>
</g>
</svg>
