<?xml version="1.0" encoding="utf-8"?>
<!-- Generator: Adobe Illustrator 16.0.0, SVG Export Plug-In . SVG Version: 6.00 Build 0)  -->
<!DOCTYPE svg PUBLIC "-//W3C//DTD SVG 1.1//EN" "http://www.w3.org/Graphics/SVG/1.1/DTD/svg11.dtd">
<svg version="1.1" id="Capa_1" xmlns="http://www.w3.org/2000/svg" xmlns:xlink="http://www.w3.org/1999/xlink" x="0px" y="0px"
	 width="26.4595px" height="26.459px" viewBox="0 0 26.4595 26.459" enable-background="new 0 0 26.4595 26.459"
	 xml:space="preserve">
<g>
	<g>
		<path fill="#FFFFFF" d="M13.1997,25.4707c-6.7432,0-12.2295-5.4854-12.2295-12.2285c0-6.7441,5.4863-12.2305,12.2295-12.2305
			c6.7441,0,12.2305,5.4863,12.2305,12.2305C25.4302,19.9854,19.9438,25.4707,13.1997,25.4707z"/>
		<path fill="#42210B" d="M13.1997,2.0117c6.1924,0,11.2305,5.0381,11.2305,11.2305c0,6.1914-5.0381,11.2285-11.2305,11.2285
			c-6.1919,0-11.2295-5.0371-11.2295-11.2285C1.9702,7.0498,7.0078,2.0117,13.1997,2.0117 M13.1997,0.0117
			c-7.3057,0-13.2295,5.9238-13.2295,13.2305S5.894,26.4707,13.1997,26.4707c7.3066,0,13.2305-5.9219,13.2305-13.2285
			S20.5063,0.0117,13.1997,0.0117L13.1997,0.0117z"/>
	</g>
	<g>
		<g>
			<path fill="#603813" d="M8.4888,18.3145V7.5771h7.9609v1.8164h-5.793v2.3799h5.3906v1.8096h-5.3906v2.9229h5.998v1.8086H8.4888z"
				/>
		</g>
	</g>
</g>
<g>
</g>
<g>
</g>
<g>
</g>
<g>
</g>
<g>
</g>
<g>
</g>
<g>
</g>
<g>
</g>
<g>
</g>
<g>
</g>
<g>
</g>
<g>
</g>
<g>
</g>
<g>
</g>
<g>
</g>
</svg>
