<?xml version="1.0" encoding="utf-8"?>
<!-- Generator: Adobe Illustrator 19.0.0, SVG Export Plug-In . SVG Version: 6.00 Build 0)  -->
<svg version="1.1" id="Capa_1" xmlns="http://www.w3.org/2000/svg" xmlns:xlink="http://www.w3.org/1999/xlink" x="0px" y="0px"
	 viewBox="-249.7 41.9 175.2 569" style="enable-background:new -249.7 41.9 175.2 569;" xml:space="preserve">
<style type="text/css">
	.st0{fill:#3D4447;}
	.st1{fill:#BC7A55;stroke:#724437;stroke-width:0.9359;stroke-miterlimit:10;}
	.st2{fill:#E89669;}
	.st3{fill:#FFB68D;}
	.st4{fill:#E90D00;stroke:#8E0804;stroke-width:0.5182;stroke-miterlimit:10;}
	.st5{fill:#E90D00;stroke:#8E0804;stroke-width:0.5355;stroke-miterlimit:10;}
	.st6{fill:#E90D00;stroke:#8E0804;stroke-width:0.5564;stroke-miterlimit:10;}
	.st7{fill:#9B897B;stroke:#605650;stroke-width:0.8911;stroke-miterlimit:10;}
	.st8{fill:none;stroke:#837167;stroke-width:0.9511;stroke-miterlimit:10;}
	.st9{fill:#C5BAA6;}
	.st10{fill:none;stroke:#776960;stroke-width:0.8911;stroke-miterlimit:10;}
	.st11{fill:#70645D;}
	.st12{fill:#AD9D92;}
	.st13{fill:#7C716C;}
	.st14{fill:#87786E;}
	.st15{fill:#BF070F;}
	.st16{fill:#A0654B;}
	.st17{fill:none;stroke:#724437;stroke-width:0.9359;stroke-miterlimit:10;}
	.st18{fill:#BC7A55;}
	.st19{fill:#BA0E09;stroke:#7F0A0A;stroke-width:0.8911;stroke-miterlimit:10;}
	.st20{fill:#9B0D1E;}
	.st21{fill:#8C050B;}
	.st22{fill:#BF070F;stroke:#7F0A0A;stroke-width:0.9511;stroke-miterlimit:10;}
	.st23{fill:#CE283C;}
	.st24{fill:#A0654B;stroke:#724437;stroke-width:0.9359;stroke-miterlimit:10;}
	.st25{fill:#D39479;}
	.st26{fill:none;stroke:#7F0A0A;stroke-width:0.8911;stroke-miterlimit:10;}
	.st27{fill:#470E02;}
	.st28{fill:#BC7A55;stroke:#9E654C;stroke-width:0.9359;stroke-miterlimit:10;}
	.st29{fill:#935441;}
	.st30{fill:#300901;}
	.st31{fill:#BC7A55;stroke:#724437;stroke-width:0.9359;stroke-linecap:round;stroke-linejoin:round;stroke-miterlimit:10;}
	.st32{fill:#BC7A55;stroke:#77473A;stroke-width:0.9359;stroke-linecap:round;stroke-linejoin:round;stroke-miterlimit:10;}
	.st33{fill:#A53D3D;}
	.st34{fill:#7F0A0A;}
	.st35{fill:#571B01;}
	.st36{fill:#FFFFFF;}
	.st37{clip-path:url(#XMLID_71_);}
	.st38{fill:#BC682A;}
	.st39{fill:#713213;}
	.st40{clip-path:url(#XMLID_72_);}
	.st41{fill:#3A0C00;}
	.st42{fill:#A06047;}
	.st43{fill:#D39C81;}
	.st44{fill:#4F1911;}
	.st45{fill:#C10C1A;}
	.st46{fill:#B20814;}
	.st47{opacity:0.3;}
	.st48{fill:none;stroke:#000000;stroke-width:0.9511;stroke-miterlimit:10;}
	.st49{fill:#4D585E;}
	.st50{opacity:0.24;}
	.st51{fill:#F2F2F2;}
	.st52{fill:none;stroke:#4D585E;stroke-width:0.9511;stroke-miterlimit:10;}
</style>
<g id="XMLID_12074_">
	<path id="XMLID_12167_" class="st0" d="M-176.1,98.3l-12,0c0,0-0.2,4.6-0.3,5.7c-0.1,1.1,4.8-1.6,5.4-2.5c0.6-0.8,5.2-1.7,6-1.8
		C-176.7,99-176.1,98.3-176.1,98.3z"/>
	<g id="XMLID_12493_">
		<path id="XMLID_12166_" class="st1" d="M-168.2,555.2c0,0,6.2,15.8,1.4,22.7c-4.8,6.9-14.1,20.6-18.6,23c-4.5,2.4-1.7,6.5,5.5,5.8
			c7.2-0.7,10,3.1,17.2-7.2c7.2-10.3,9.6-12,12.7-14.8c3.1-2.7,5.8-4.8,2.4-11.3c-3.4-6.5-4.1-13.7-5.2-17.9
			C-153.8,551.4-168.2,555.2-168.2,555.2z"/>
		<path id="XMLID_12165_" class="st2" d="M-147.6,573.4c-3.4-6.5-4.1-13.7-5.2-17.9c-0.2-0.9-1.2-1.5-2.4-1.7
			c-0.3,10.2,4.3,19.5,7,29.3C-146,581-144.8,578.6-147.6,573.4z"/>
		<path id="XMLID_12164_" class="st3" d="M-170.5,590.6c2.9-4.4,5.1-8.8,7.3-12.5c4.1-7.5,1.2-16.2-0.9-23.8
			c-2.4,0.4-4.1,0.9-4.1,0.9s6.2,15.8,1.4,22.7c-4.8,6.9-14.1,20.6-18.6,23c-2.9,1.5-2.8,3.8-0.4,5c1.4-2,2.6-4.1,4.3-5.8
			C-178.5,596.5-173.4,594.3-170.5,590.6z"/>
		<path id="XMLID_12163_" class="st4" d="M-147.1,599c0.5,1.5-1.2,2.2-4,1.4c-2.8-0.8-3.2-2.4-3.2-2.4l0.2-11.6l9.2-3.6
			C-145,582.8-149.3,592.2-147.1,599z"/>
		<path id="XMLID_12162_" class="st4" d="M-148.9,570.7c-1.5,1.1-8,9.7-10.6,19c-2.6,9.4-10.1,11.1-12.4,11.3
			c-2.3,0.2-6.5-3.6-10.4-3.7c-3.9-0.1-7.2,3.7-8.6,5.7c-1.4,2-0.1,4.9,0.6,5.6c0.7,0.7,16.6,3.3,22.9-0.3c6.3-3.7,9.3-13.2,12.9-16
			c3.6-2.8,8.9-4.6,9.4-9.4C-144.5,578-146.6,569.1-148.9,570.7z"/>
	</g>
	<g id="XMLID_12480_">
		<path id="XMLID_12161_" class="st1" d="M-100.1,553.8c0,0,2.5,15.5,6.3,23.3c3.7,7.6,5.8,15.9,9.9,19.2c2.7,2.1,6.3,3.9,5.1,5.5
			c-4.4,6.1-16.3,5.9-19,0.4c-3.8-7.8-5-12.5-8.8-14.6c-3.7-2.1-6.9-3.6-4.9-10.9c2.1-7.3-4.5-14.8-4.3-19.2
			C-115.5,553-100.1,553.8-100.1,553.8z"/>
		<path id="XMLID_12160_" class="st2" d="M-113.2,555c-1.4,0.5-2.4,1.3-2.4,2.4c-0.2,4.4,6.4,11.8,4.3,19.2c-1.6,5.7,0,7.9,2.5,9.6
			C-106.6,575.4-107.1,564.3-113.2,555z"/>
		<path id="XMLID_12159_" class="st3" d="M-79.8,603c0.4-0.4,0.8-0.8,1.1-1.2c1.1-1.6-2.5-3.4-5.1-5.5c-4.1-3.3-6.3-11.6-9.9-19.2
			c-3.8-7.8-6.3-23.3-6.3-23.3s-1.1-0.1-2.8,0C-98.9,571.5-97.2,594.5-79.8,603z"/>
		<path id="XMLID_12158_" class="st5" d="M-111.4,598.4c-0.6,1.5,1.1,2.3,4,1.7s3.5-2.3,3.5-2.3l-0.9-12l-8.4-1.5
			C-113.1,584.4-108.7,591.6-111.4,598.4z"/>
		<path id="XMLID_12157_" class="st6" d="M-111.2,572.1c1.9-0.6,2.1,3.2,6.6,12.6c2.1,6.4,6.2,14.2,13.3,16.5
			c2.4,0.4,7.6-4.4,11.5-3c2.2,0.8,5.2,5.5,5,8c-0.2,2.6-2.4,3-3.4,3.5c-1,0.5-10.6,2.4-17.1-1.9c-6.5-4.3-6.8-14-10.5-17.3
			c-3.7-3.3-6.8-3.4-8-8.5C-114.6,579-114.2,573-111.2,572.1z"/>
	</g>
	<g id="XMLID_12426_">
		<path id="XMLID_12156_" class="st7" d="M-197.1,267.5c-1,19.5-19,31.4-17.5,73.9c1.5,42.4,23,85.8,26.4,114.3
			c3.5,28.4,3.5,45.4,9.5,62.9c6,17.5,8.6,35,9.1,41.5c0.5,6.4,7.2,6.3,13.5,6.6c6.3,0.3,6.3-1,7.6-2.2c1.3-1.2-2.7-21.1-4.4-30.9
			c-1.7-9.8-0.1-35.7,0.4-43.3c0.5-7.6-1.2-24.7-3.8-39.7c-2.6-15-4.5-58-4.6-72.8c-0.2-14.8-4.1-41.8-4.1-41.8l-16-65L-197.1,267.5
			z"/>
		<path id="XMLID_12155_" class="st8" d="M-189.6,333.5c5.5,2.7,17.8,5,23.6,2.4c0,0-3.8,8.1-23.4,14.2"/>
		<path id="XMLID_12154_" class="st9" d="M-164.6,338.3c0.1,0.5,0.2,1.2,0.3,1.9c0-0.3-0.1-0.6-0.1-0.9
			C-164.4,339.2-164.5,338.9-164.6,338.3z"/>
		<path id="XMLID_12153_" class="st7" d="M-166,333.2c1.1,3.2,1.6,6,1.6,6c1.8,22.9,6.9,54.1,11.5,68.7
			c4.6,14.7,13.3,37.6,14.2,58.2c0.9,20.6,4.6,36.2,9.6,49.5c5,13.3,10.1,37.1,14.7,46.7c3,6.3,17.3,1.4,16-4.8
			c0,0-0.4-1.1-3.6-17.2c-3.2-16-3.2-77.4-8.2-99.4c-5-22-6.9-34.4-6-84.3c0.8-44.4-15.7-66-23-84.4l-0.4-0.9
			c-0.7-2-1.4-3.9-1.9-5.9c-0.1,0.1-0.2,0.2-0.3,0.3l0-0.1c-8.4,6.4-34.7,6-38.2,5.3c-3.4-0.7-4.1-0.5-5,1.8
			c-0.9,2.3-0.5,4.1-1.4,8.5c-0.7,3.5,2.5,4.9,6.4,5.4c0,1,0,1.7,0,1.7s0,0-0.9,9.6c-0.9,9.6,3.7,25.2,9.2,27.5"/>
		<path id="XMLID_12152_" class="st8" d="M-133.5,342c-9.9,2-24.4-0.5-31.4-6.4c0,0,20.9,1.5,29-4.6"/>
		<path id="XMLID_12151_" class="st10" d="M-137.9,275.7c-1.5-3.5-2.8-6.9-3.7-10.2c-13.5,8.5-39.4,5.5-39.4,5.5l-16.2-3.4
			c-0.2,4-1.1,7.6-2.4,11.3C-190.7,286.9-171.4,292.5-137.9,275.7z"/>
		<circle id="XMLID_12150_" class="st11" cx="-182.1" cy="282.3" r="1.7"/>
		<circle id="XMLID_12149_" class="st11" cx="-181.4" cy="275.4" r="1.7"/>
		<path id="XMLID_12148_" class="st12" d="M-164.6,553.2c-5.9-30.1-27.9-74.8-13.2-89.5c0-1.5,1.5-2.9,0-5.1
			c-2.2-3.7-4.4-7.3-5.1-11c-8.1-33-21.3-60.9-27.9-93.9c-4.4-24.9,0.7-49.9,15.4-71.2c2.1-3.4,0.9-9.4,0.8-14.4l-2.5-0.5
			c-1,19.5-19,31.4-17.5,73.9c1.5,42.4,23,85.8,26.4,114.3c3.5,28.4,3.5,45.4,9.5,62.9c6,17.5,8.6,35,9.1,41.5
			c0.3,3.3,2.2,4.9,4.9,5.7C-163.8,562.1-163.7,557.9-164.6,553.2z"/>
		<path id="XMLID_12147_" class="st13" d="M-153.6,533.5c-1.7-9.8-0.1-35.7,0.4-43.3c0.5-7.6-1.2-24.7-3.8-39.7
			c-2.6-15-4.5-58-4.6-72.8c-0.2-14.8-2.8-35.4-4.1-41.8c-3.1,7-10.7,12.4-21.7,15.5c7.3,0.5,13.2-2.8,19.8-8.1
			c-0.7,11.7,1.2,26.7,2.2,39.3c3.1,43.4,10.4,104.2,9.6,127.9c-1,16.8,5.9,34.2,3.2,55.8c2.2-0.4,2.5-1.3,3.4-2.1
			C-147.8,563.2-151.9,543.3-153.6,533.5z"/>
		<path id="XMLID_12146_" class="st9" d="M-164.6,338.3c0.1,0.5,0.2,1.2,0.3,1.9c0-0.3-0.1-0.6-0.1-0.9
			C-164.4,339.2-164.5,338.9-164.6,338.3z"/>
		<path id="XMLID_12145_" class="st13" d="M-173.6,322.8c-3.7-9.5-4.2-27.1-1.2-36.7c-1.9,0-3.5,0.6-5.1,0.8c0,0.9,0,1.4,0,1.4
			s0,0-0.9,9.6c-0.9,9.4,3.5,24.6,8.9,27.3C-172.6,324.6-173.2,323.8-173.6,322.8z"/>
		<path id="XMLID_12144_" class="st13" d="M-114,557.6c-9.5-33.7-23.5-66-22.7-102c0-6.6-2.9-12.5-5.1-19.1
			c-13.2-31.5-17.6-66-19.8-100.5c0-1.8-0.4-3.1-1-4.1c-0.7-0.1-1.4-0.2-2.1-0.3c-0.6,0.4-1.1,0.8-1.7,1l0.4,0.5
			c1.1,3.2,1.6,6,1.6,6c1.8,22.9,6.9,54.1,11.5,68.7c4.6,14.7,13.3,37.6,14.2,58.2c0.9,20.6,4.6,36.2,9.6,49.5
			c5,13.3,10.1,37.1,14.7,46.7c0.5,1.1,1.4,1.9,2.5,2.3C-112.5,562.4-113.2,560-114,557.6z"/>
		<path id="XMLID_12143_" class="st13" d="M-98.5,557.6c0,0-0.4-1.1-3.6-17.2c-3.2-16-3.2-77.4-8.2-99.4c-5-22-6.9-34.4-6-84.3
			c0.8-44.4-15.7-66-23-84.4l-0.4-0.9c-0.5-1.2-0.9-2.5-1.3-3.7c-0.7,1-1.7,1.8-2.8,2.4c4.1,10.7,6.6,21.7,12.1,32.2
			c19.1,37.4,7.3,78.5,11,118.9c0.7,6.6,2.9,11.7,5.1,17.6c2.2,6.6,4.4,13.9,5.1,21.3c0.7,32.3-1.5,64.6,8.1,96.1c0.5,2,1.3,4,2,5.9
			C-98.9,560.8-98.2,559.2-98.5,557.6z"/>
		<path id="XMLID_12142_" class="st14" d="M-141.5,265.4c-0.1,0.1-0.2,0.2-0.3,0.3l0-0.1c-0.8,0.6-1.8,1.2-3,1.7
			c-10.4,4.6-32.1,4.2-35.2,3.6c-3.4-0.7-4.1-0.5-5,1.8c-0.9,2.3-0.5,4.1-1.4,8.5c0,0.2-0.1,0.4-0.1,0.6c0.2-0.3,0.4-0.6,0.6-0.9
			c1.5-2.2,0-6.6,0.7-6.6c8.1-2.9,16.1,2.2,24.9,0c5-1,12-1.7,16.5-4.3c1.1-0.7,2.1-1.5,2.8-2.4
			C-141.1,266.9-141.3,266.2-141.5,265.4z"/>
		<circle id="XMLID_12141_" class="st11" cx="-182.1" cy="282.3" r="1.7"/>
		<circle id="XMLID_12140_" class="st11" cx="-181.4" cy="275.4" r="1.7"/>
	</g>
	<path id="XMLID_12139_" class="st15" d="M-161.1,169.1c0,0-17.4,3.6-21.3,5.4c-3.9,1.8-8.6,15.5-11.1,23.3
		c-2.4,7.8,68.7,5.2,71,1.8c2.3-3.4,4.4-19.7-2.9-23.1C-132.8,173-150.9,168.6-161.1,169.1z"/>
	<g id="XMLID_12364_">
		<g id="XMLID_12385_">
			<g>
				<g id="XMLID_115_">
					<path class="st16" d="M-91,361.3c0,2.5,0.3,8.4-0.1,10.1c-0.4,1.8-5,6.2-6.2,7.3c-1.1,1.1-1.6-2.2-0.1-3.8
						c1.5-1.6,3.4-4.7,3.3-5.6c-0.1-0.9-0.3-4.3-1.6-5.8"/>
					<path class="st17" d="M-91,361.3c0,2.5,0.3,8.4-0.1,10.1c-0.4,1.8-5,6.2-6.2,7.3c-1.1,1.1-1.6-2.2-0.1-3.8
						c1.5-1.6,3.4-4.7,3.3-5.6c-0.1-0.9-0.3-4.3-1.6-5.8"/>
				</g>
				<g id="XMLID_114_">
					<path class="st16" d="M-88.3,364c-0.2,3,0,8.6-0.6,10.7c-0.6,2.1-6.5,6.9-7.9,8.1c-1.4,1.2-1.7-2.7,0.3-4.4
						c2-1.7,4.4-5.3,4.4-6.3c0-1,0-5.1-1.3-7"/>
					<path class="st17" d="M-88.3,364c-0.2,3,0,8.6-0.6,10.7c-0.6,2.1-6.5,6.9-7.9,8.1c-1.4,1.2-1.7-2.7,0.3-4.4
						c2-1.7,4.4-5.3,4.4-6.3c0-1,0-5.1-1.3-7"/>
				</g>
				<g id="XMLID_113_">
					<path class="st16" d="M-86.5,366.5c-0.4,2.9-0.7,10.6-1.5,12.6c-0.8,2-7,6.5-8.5,7.5c-1.5,1-1.5-2.8,0.6-4.4
						c2.1-1.6,4.8-5,4.8-6c0-1,0.4-5.1-0.9-7.1"/>
					<path class="st17" d="M-86.5,366.5c-0.4,2.9-0.7,10.6-1.5,12.6c-0.8,2-7,6.5-8.5,7.5c-1.5,1-1.5-2.8,0.6-4.4
						c2.1-1.6,4.8-5,4.8-6c0-1,0.4-5.1-0.9-7.1"/>
				</g>
				<g id="XMLID_112_">
					<path class="st18" d="M-93.1,346.6c0,0,1.6,8.2,4,11.3c2.5,3.1,4.5,5.7,4.4,8.6c-0.1,3,0.4,12.6-0.2,14.7
						c-0.6,2.1-6.3,7.1-7.7,8.3c-1.4,1.2-1.8-2.7,0.2-4.4c1.9-1.8,4.3-5.4,4.2-6.4c0-1-0.1-5.1-1.5-7c-1.4-1.9-3.7-3.8-6.2-5.1
						c-2.5-1.3-8.8-3.3-8.7-8.5c0.1-5.2,1.8-5.7,0.7-9.3C-105.1,345.2-93.1,346.6-93.1,346.6z"/>
					<path class="st17" d="M-93.1,346.6c0,0,1.6,8.2,4,11.3c2.5,3.1,4.5,5.7,4.4,8.6c-0.1,3,0.4,12.6-0.2,14.7
						c-0.6,2.1-6.3,7.1-7.7,8.3c-1.4,1.2-1.8-2.7,0.2-4.4c1.9-1.8,4.3-5.4,4.2-6.4c0-1-0.1-5.1-1.5-7c-1.4-1.9-3.7-3.8-6.2-5.1
						c-2.5-1.3-8.8-3.3-8.7-8.5c0.1-5.2,1.8-5.7,0.7-9.3C-105.1,345.2-93.1,346.6-93.1,346.6z"/>
				</g>
				<g id="XMLID_111_">
					<path class="st18" d="M-103.3,349.2c0,0-0.4,4.1-1.6,6.4c-1.2,2.3,0.8,5.6,0.6,8.2c-0.4,3.9-1.5,4.8-3.6,8.2
						c-1.3,2.1,3.1,2,4.7,0.2c1.9-2,3.3-4.7,3.5-6.5c0.2-1.7,3.4,0.7,3.4,0.7"/>
					<path class="st17" d="M-103.3,349.2c0,0-0.4,4.1-1.6,6.4c-1.2,2.3,0.8,5.6,0.6,8.2c-0.4,3.9-1.5,4.8-3.6,8.2
						c-1.3,2.1,3.1,2,4.7,0.2c1.9-2,3.3-4.7,3.5-6.5c0.2-1.7,3.4,0.7,3.4,0.7"/>
				</g>
			</g>
		</g>
		<path id="XMLID_12130_" class="st19" d="M-107.1,337.2c0,0,2.2,10.4,3,11.7c0.8,1.2,11.4,0.1,11.2-1.6c-0.1-1.7-0.7-12.8-0.7-12.8
			L-107.1,337.2z"/>
		<path id="XMLID_12176_" class="st20" d="M-92.9,347.3c-0.1-1.7-0.7-12.8-0.7-12.8l-3.8,0.8c1.1,0.3,0.5,2.2,1.9,2.2
			c-0.6,3.9-1.3,7.8,0.6,11.1C-93.8,348.3-92.9,347.8-92.9,347.3z"/>
		<path id="XMLID_12190_" class="st21" d="M-107.1,337.2c0,0,2.2,10.4,3,11.7l1.8,0.5c1.3-3.9-3.3-8.3-2-12.7L-107.1,337.2z"/>
		<path id="XMLID_12209_" class="st22" d="M-136.5,172.4c0,0,26.1,5,25.2,10.1c-0.9,5,0.1,8.4,0.5,11c0.9,6.4,6.4,45.4,7.3,66.9
			c0.9,21.5,7.3,22,7.8,33.9c0.5,11.9,1.4,36.7,2.8,41.2c1.4,4.6-12,4.9-14.2,4.1c-2.2-0.7-5-22.5-11-32.5c-6-10.1-5-28.4-7.3-37.1
			c-2.3-8.7-9.2-31.6-8.7-44.9"/>
		<path id="XMLID_12213_" class="st21" d="M-116.9,292.7c-6.6-17.6-5.9-35.2-9.5-54.3c-2.2-9.5-2.9-20.5,5.9-27.1
			c-4.6,3.3-10.9,3-14.3-1.2l0.7,15c-0.5,13.3,6.4,36.2,8.7,44.9c2.3,8.7,1.4,27,7.3,37.1c6,10.1,8.8,31.8,11,32.5
			c0.5,0.2,1.5,0.3,2.8,0.3c0.2-3-0.5-6.1-1.5-9.1C-108.8,317.7-112.5,305.2-116.9,292.7z"/>
		<path id="XMLID_12228_" class="st20" d="M-115.4,183.4c1.5,0.7-0.7,2.9-2.9,3.7c2.2,3.7,4.4,8.1,5.1,12.5
			c7.3,31.5-2.2,63.1,13.2,92.4c7.6,14-3.4,32.9,3.4,47.2c2.5-0.7,4.2-1.8,3.7-3.6c-1.4-4.6-2.3-29.3-2.8-41.2
			c-0.5-11.9-6.9-12.4-7.8-33.9c-0.9-21.5-6.4-60.5-7.3-66.9c-0.4-2.6-1.4-6-0.5-11L-115.4,183.4z"/>
		<path id="XMLID_12244_" class="st23" d="M-111.3,182.5c0.9-5-25.2-10.1-25.2-10.1l0.1,2.8c7.1,2.6,14.6,3.8,20.9,8.2"/>
	</g>
	<g id="XMLID_12129_">
		<g id="XMLID_12338_">
			<g id="XMLID_12343_">
				<path id="XMLID_12262_" class="st24" d="M-241.2,344.6c-0.3,2.5-1.1,8.3-0.9,10.1c0.2,1.8,4.4,6.7,5.4,7.9c1,1.2,1.8-2,0.4-3.7
					c-1.4-1.7-2.9-5-2.8-5.9c0.2-0.8,0.7-4.2,2.1-5.6"/>
				<path id="XMLID_12268_" class="st24" d="M-244.1,346.9c-0.1,3-0.8,8.6-0.4,10.7c0.4,2.1,5.8,7.5,7.1,8.8
					c1.3,1.3,1.9-2.5,0.2-4.4c-1.8-1.9-3.9-5.7-3.8-6.7c0.1-1,0.5-5.1,2-6.9"/>
				<path id="XMLID_12293_" class="st24" d="M-246.2,349.3c0.1,3-0.3,10.6,0.3,12.7c0.6,2.1,6.3,7.1,7.7,8.3
					c1.4,1.2,1.8-2.7-0.2-4.4c-1.9-1.8-4.3-5.4-4.2-6.4c0.1-1,0.1-5.1,1.5-7"/>
				<path id="XMLID_12297_" class="st1" d="M-237.7,330.1c0,0-2.3,8-5.1,10.8c-2.8,2.8-5,5.2-5.2,8.2c-0.2,3-1.6,12.5-1.2,14.7
					c0.4,2.1,5.6,7.6,6.9,9c1.3,1.3,2-2.5,0.3-4.4c-1.7-2-3.7-5.8-3.6-6.8s0.6-5,2.2-6.8c1.6-1.8,4-3.4,6.7-4.5
					c2.7-1.1,9-2.5,9.5-7.6c0.4-5.2-1.3-5.8,0.2-9.3C-225.7,329.8-237.7,330.1-237.7,330.1z"/>
				<path id="XMLID_12317_" class="st1" d="M-227.9,333.6c0,0,0,4.1,1,6.5c1,2.4-1.4,5.5-1.3,8.1c0,3.9,1,4.9,2.8,8.5
					c1.1,2.3-3.2,1.7-4.7-0.2c-1.7-2.2-2.9-5-2.9-6.8c0-1.7-3.5,0.4-3.5,0.4"/>
			</g>
			<g id="XMLID_12339_">
				<path id="XMLID_12320_" class="st25" d="M-237.2,336c0.7-1.3,0.7-3.8,0.7-5.9c-0.7,0-1.2,0-1.2,0s-2.3,8-5.1,10.8
					c-2.8,2.8-5,5.2-5.2,8.2c-0.2,3-1.6,12.5-1.2,14.7c0.1,0.3,0.2,0.7,0.4,1.1C-248.9,354.2-244.6,344.6-237.2,336z"/>
			</g>
		</g>
		<g id="XMLID_12330_">
			<path id="XMLID_12246_" class="st19" d="M-238.4,331.2c0,0,1.9,4.1,6.5,4.2c4.6,0.1,5.2,0,6.1-1.1c0.9-1.1,1.3-6,1.3-6l-11.7-4.7
				C-236.2,323.7-238.8,329.2-238.4,331.2z"/>
			<path id="XMLID_12323_" class="st23" d="M-235.2,324.1l-1-0.4c0,0-2.6,5.5-2.2,7.5c0,0,1.4,3.1,4.8,4
				C-236.7,332.2-237.8,328.3-235.2,324.1z"/>
			<path id="XMLID_12326_" class="st21" d="M-227.6,327.2c0.2,3.3-0.4,6-1.8,8.3c2.4,0,2.9-0.3,3.6-1.2c0.9-1.1,1.3-6,1.3-6
				L-227.6,327.2z"/>
		</g>
		<path id="XMLID_12329_" class="st22" d="M-179.5,172.9c0,0-16.7,3.9-23.3,3.5c-6.6-0.4-12.1,6.6-11.3,10.9
			c0.8,4.3,0.4,23.7-1.2,31.9c-1.6,8.2,0.2,28.8-4.1,40.4c-4.3,11.7-12.6,42-16.9,64.1c0,0,0.8,4.3,5.4,5.8c4.7,1.6,6.2-1.2,6.2-1.2
			s8.9-24.5,16.3-36.9c4.8-8.1,4.7-17.1,7-28c3.5-16.7,11.3-47,9.3-60.3"/>
		<path id="XMLID_12333_" class="st21" d="M-198.1,202c5.1,4.4,6.4,7.1,4.2,15.2c-6.6,21.3-9.5,41.8-13.9,64.6
			c-0.7,3.7-4.4,7.3-5.9,11c-6.1,12.6-9.1,24.7-13.8,37.1c1.4,0.2,3-1.4,3-1.4s8.9-24.5,16.3-36.9c4.8-8.1,4.7-17.1,7-28
			c3.5-16.7,11.3-47,9.3-60.3l1.4-3.4C-194,198.4-194.6,199.6-198.1,202z"/>
		<path id="XMLID_12336_" class="st23" d="M-202.8,176.4c-6.6-0.4-12.1,6.6-11.3,10.9c0.8,4.3,0.4,23.7-1.2,31.9
			c-1.6,8.2,0.2,28.8-4.1,40.4c-4.3,11.7-12.6,42-16.9,64.1c0,0,0.3,0.4,1,1.5c6.7-19.5,10.5-38.9,16.4-59.7c1.5-3.7,4.4-7.3,5.1-11
			c5.9-22.7-2.2-44.8,2.9-68.2c0-1.5,0.7-3.7,2.2-4.4c9.7-1.3,18.4-3.7,27.8-5.8l1.3-3.2C-179.5,172.9-196.2,176.8-202.8,176.4z"/>
	</g>
	<path id="XMLID_12337_" class="st26" d="M-178.1,271.3c0,0-3.5-3-2.2-7.8c1.4-4.9,0.8-6.8-0.8-10.5c-1.6-3.8,3.2-6.8,0.5-11.3
		c-2.7-4.6-6.2-14-4.6-20.3c1.6-6.2,11.9-18.1,13-24"/>
	<g id="XMLID_12340_">
		<path id="XMLID_12345_" class="st22" d="M-132.3,195.2c-1.7,7.6,4.9,16.4,3.6,26.4c-1.4,10-8.4,14.1-9.5,18.4
			c-1.1,4.3-0.5,17.8-0.5,20.7c0,3-2.4,4.9-10.6,8.1c-8.2,3.2-22.2,1.6-25.4,2.4c-3.2,0.8-1.9-1.4-4.6-0.3c-2.7,1-16.5-0.7-18.4-3.2
			c-1.9-2.4,0.8-8.1,2.4-13c1.6-4.9,2.4-15.1-5.4-21.6c-7.8-6.5-9.2-15.7-3.8-25.9c5.4-10.3,14-14,14-18.9"/>
		<path id="XMLID_12348_" class="st21" d="M-129.3,224.1c-4.1,5.9-9.9,10.5-17,11.4c-20.5,3.5-49.2,7.1-61.1-13.1
			c0.8,4.1,3,7.7,6.7,10.8c7.8,6.5,7,16.7,5.4,21.6c-1.6,4.7-4.1,10.2-2.6,12.7c6.4-7.3,9.4-16.5,5.4-27.6
			c13.2,9.5,36.7-5.9,47.7,3.7c7.9,7.3,1,19.9-9.6,26.6c1.8-0.3,3.5-0.7,5.1-1.3c8.2-3.2,10.6-5.1,10.6-8.1c0-3-0.6-16.4,0.5-20.7
			C-137.3,236.1-131.3,232.3-129.3,224.1z"/>
		<path id="XMLID_12349_" class="st26" d="M-178.1,271.3c0,0-3.5-3-2.2-7.8c1.4-4.9,0.8-6.8-0.8-10.5c-1.6-3.8,3.2-6.8,0.5-11.3
			c-2.7-4.6-6.2-14-4.6-20.3c1.6-6.2,11.9-18.1,13-24"/>
	</g>
	<path id="XMLID_12350_" class="st27" d="M-144.5,169.9c0,0,16.2-0.7,16.5-7.6c0.3-6.9-8.2-12-4.8-12s9.6,0.7,7.9-5.8
		c-1.7-6.5-11.7-8.9-0.7-12.4c11-3.4,27.2-2.1,26.1-28.9c-0.6-15.1-20-58.9-48.5-59.3c-28.9-0.3-23.7,8.9-32,15.1
		c-8.2,6.2-16.9,8.5-8.9,26.5c9.9,22.3-0.7,48.9,2.7,55.7c3.4,6.9,9.3,5.8,5.5,15.5c-3.8,9.6,5.2,19.6,11.7,14.8
		S-144.5,169.9-144.5,169.9z"/>
	<path id="XMLID_12354_" class="st28" d="M-172.7,145.6c0,0,4.7,14.8-0.5,25.4c-6.6,13.5-2,10.4-1,16.3c1,5.9,2,9.9,2,9.9
		s9.4-15,12.7-17.3c3.3-2.3,12.7-13.2,12.7-13.2c-6.5-6.4-6-15.3-0.7-25.7L-172.7,145.6z"/>
	<path id="XMLID_12357_" class="st29" d="M-166,157.7c2.6,0.2,9.4-4.4,16-10.8c0.6-1.9,1.5-3.8,2.5-5.8l-25.2,4.6
		c0,0,1.1,3.4,1.6,8.2C-169.2,156.2-167.5,157.6-166,157.7z"/>
	<path id="XMLID_12358_" class="st30" d="M-179.2,61.5c0,0-10-0.5-13.6,10.7c-3.6,11.2,1.9,22.7,7.7,24.9
		C-179.2,99.3-179.2,61.5-179.2,61.5z"/>
	<path id="XMLID_12362_" class="st31" d="M-157.6,57.2c-18.8,0-30.6,6.5-29.7,21.3c0.9,14.8,5,15.3,1.9,24.4
		c-3.1,9.1-5.2,13.8-0.9,23.7c7.3,16.9,15,26.5,20.3,26.8c5.3,0.3,27.5-14.4,31.1-28.4c3.6-13.9,8.9-35.2,5.2-47.6
		C-133.5,65.1-139.3,57.2-157.6,57.2z"/>
	<path id="XMLID_12367_" class="st32" d="M-169.3,100.7c0.3,2.9,0.1,12.7-4.5,15.8c-4.6,3.1,0.1,4.2,2.7,4.5c2.6,0.3,6.6-0.2,7.6-1"
		/>
	<path id="XMLID_12368_" class="st33" d="M-167.6,135.5c-2.5-0.1-6.3-2.2-6.5-4.3l13.6-0.3C-160.5,131-161.8,135.8-167.6,135.5z"/>
	<path id="XMLID_12369_" class="st34" d="M-158.8,130.2c0.4-0.1-1,2.2-9.7,1.7c-8.7-0.4-8.5-2.2-8.5-2.2s2,0.7,3.7-0.3
		c1.6-0.9,4-0.8,6.8-0.4C-163.6,129.4-161.7,130.9-158.8,130.2z"/>
	<g id="XMLID_12370_">
		<path id="XMLID_12373_" class="st35" d="M-143.8,105c0,0-2.4-5-7.1-4.3c-4.7,0.7-8.1,4.7-8,5.3c0.1,0.6,1.3,2.8,7.5,2.3
			S-144.2,106-143.8,105z"/>
		<path id="XMLID_12374_" class="st36" d="M-143.8,105c0,0-3.5-3.1-8.2-2.3c-4.7,0.7-7,2.8-6.9,3.3c0.1,0.6,1.3,2.8,7.5,2.3
			S-144.2,106-143.8,105z"/>
		<g id="XMLID_12375_">
			<defs>
				<path id="XMLID_12384_" d="M-143.8,105c0,0-3.5-3.1-8.2-2.3c-4.7,0.7-7,2.8-6.9,3.3c0.1,0.6,1.3,2.8,7.5,2.3
					S-144.2,106-143.8,105z"/>
			</defs>
			<clipPath id="XMLID_71_">
				<use xlink:href="#XMLID_12384_"  style="overflow:visible;"/>
			</clipPath>
			<g id="XMLID_12376_" class="st37">
				<circle id="XMLID_12379_" class="st38" cx="-149.8" cy="105" r="4.1"/>
				<circle id="XMLID_12382_" class="st39" cx="-149.8" cy="105" r="2.2"/>
				<circle id="XMLID_12383_" class="st36" cx="-148" cy="104.1" r="1"/>
			</g>
		</g>
	</g>
	<g id="XMLID_12386_">
		<path id="XMLID_12389_" class="st35" d="M-185,104.4c0,0,2.3-4.7,6.6-4c4.3,0.7,7.5,4.4,7.4,4.9c-0.1,0.5-1.2,2.6-7,2.1
			C-183.9,106.9-184.6,105.3-185,104.4z"/>
		<path id="XMLID_12390_" class="st36" d="M-185,104.4c0,0,3.3-2.8,7.6-2.2c4.3,0.7,6.5,2.5,6.4,3.1c-0.1,0.5-1.2,2.6-7,2.1
			C-183.9,106.9-184.6,105.3-185,104.4z"/>
		<g id="XMLID_12391_">
			<defs>
				<path id="XMLID_12400_" d="M-185,104.4c0,0,3.3-2.8,7.6-2.2c4.3,0.7,6.5,2.5,6.4,3.1c-0.1,0.5-1.2,2.6-7,2.1
					C-183.9,106.9-184.6,105.3-185,104.4z"/>
			</defs>
			<clipPath id="XMLID_72_">
				<use xlink:href="#XMLID_12400_"  style="overflow:visible;"/>
			</clipPath>
			<g id="XMLID_12392_" class="st40">
				<circle id="XMLID_12395_" class="st38" cx="-176.5" cy="104.4" r="3.8"/>
				<circle id="XMLID_12398_" class="st39" cx="-176.5" cy="104.4" r="2.1"/>
				<circle id="XMLID_12399_" class="st36" cx="-174.8" cy="103.5" r="0.9"/>
			</g>
		</g>
	</g>
	<path id="XMLID_12401_" class="st41" d="M-140.1,96.8c-0.8-1.1-3.3-4.3-7.3-3.9c-4.1,0.4-7.8,1.6-7.9,2.9c-0.1,1.3,2.1,0.7,4.6,0
		c2.5-0.7,6.4-1.2,8-0.1C-141.1,96.7-139.4,97.9-140.1,96.8z"/>
	<path id="XMLID_12404_" class="st42" d="M-135,124c-3.6,13.9-28.4,30.3-33.6,27.7c-0.3-0.2-0.8-0.1-1.2-0.2c1.4,1,2.8,1.5,3.9,1.6
		c5.3,0.3,27.5-14.4,31.1-28.4L-135,124z"/>
	<path id="XMLID_12407_" class="st42" d="M-158.9,69.4c-3.4,2.7-4.1-2.1-6.2-2.7c-11.1-3.3-18.5,9-21,19.1c3-2.2,5.8-5.7,5.8-5.7
		l7.4-8c2.8-0.9,5.8-0.7,6.7,0.8c2.3,3.8,7.6,5.2,14.4-0.3c6.9-5.5,10.7,1.2,8.6,8.1c-2.1,6.9-0.3,8.8,3.8,9.4
		c4.1,0.7,8.9,11.8,6.9,16c-2.1,4.1,0.9,0.9,5-3.4c-1.2-13.1-8.5-18-11.5-30.4C-141.7,63.2-151.4,63.9-158.9,69.4z"/>
	<path id="XMLID_12410_" class="st43" d="M-183.5,128c-7-17-2-16.4-0.4-26.7c1.5-9.5,0.2-6.6-0.7-21.4c-0.1-2.5,0.1-4.7,0.6-6.7
		c-1,0.7-2.1,1.2-3.3,1.5c-0.1,1.2-0.2,2.5-0.1,3.8c0.9,14.8,5,15.3,1.9,24.4c-3.1,9.1-5.2,13.8-0.9,23.7
		c6.8,15.7,13.8,25,19.1,26.6C-172.1,149.8-178,141.1-183.5,128z"/>
	<path id="XMLID_12411_" class="st41" d="M-172.7,97.3c1.4,0.9,2.4-1,0.8-2.1c-1.6-1.2-5.1-1.6-7.4-1.4c-2.3,0.1-4.7,1.8-5.2,3
		c-0.5,1.2,0.8-0.3,1.7-0.7C-179.9,95.1-176.3,95.1-172.7,97.3z"/>
	<path id="XMLID_12412_" class="st27" d="M-179.9,56.2c0,0-18.2,8.7-12.9,23.3c5.3,14.6,12.5-2.2,12.5-2.2l7.9-8.6L-179.9,56.2z"/>
	<path id="XMLID_12413_" class="st44" d="M-166.1,70c2.3,3.8,7.6,5.2,14.4-0.3c6.9-5.5,10.7-3.2,8.6,3.7c-2.1,6.9-0.3,11.7,3.8,12.4
		c4.1,0.7,8.9,14.8,6.9,18.9c-2.1,4.1-0.7,7.9-0.7,7.9s2.4-10.7,8.9-13.7c6.5-3.1,2.4-23-4.1-24.4c-6.5-1.4,7.6,1.2,2.4-10.9
		c-5.2-12-10-19.6-24.1-21.3c-14.1-1.7-29.2,5.5-29.9,15.5c-0.7,10,2.7,13.4,5.8,12C-171,68.3-167.2,68.3-166.1,70z"/>
	<path id="XMLID_12416_" class="st21" d="M-151,160.7c0,0,14.5,8.3,14.2,12.3c-0.2,4.1-2.3,15-7.4,17.1c-3.9,1.5-2.5-10.4-8.8-7.9
		c-6.2,2.4-17.1,12-19.2,15.5c0,0,12.7-24.9,20.3-27.6c1.7-0.4,4-2.6,2.6-4.3C-150.3,164.5-150.9,162-151,160.7z"/>
	<path id="XMLID_12419_" class="st21" d="M-171.2,165.4c-0.2,8.1-6.9,11.4-1.5,20.5c0,0,1.6,7.7,0.5,12c0,0-2.4-10.1-6.7-12
		c-4.3-1.9-8.6,5.1-8.6,5.1s0.8-17.8,7.3-22.7C-173.8,163.5-171.2,165.4-171.2,165.4z"/>
	<path id="XMLID_12423_" class="st22" d="M-151,158.5c0,0,15,5.8,14.8,9.9c-0.2,4.1-3.2,17.6-7,19.5c-3.8,1.9-3.5-10.3-9.7-7.8
		c-6.2,2.4-17,13.8-19.2,17.3c0,0,12.7-26.7,20.3-29.4c1.7-0.4,4-2.6,2.6-4.3C-150.3,162.3-150.9,159.8-151,158.5z"/>
	<g id="XMLID_12424_">
		<path id="XMLID_12428_" class="st45" d="M-150.9,158.8c0.1,1.3,0.7,3.8,1.7,5c0.4,0.4,0.5,0.9,0.4,1.4c0.6,1.4,1,3.1,0.4,3.7
			c-3.9,3.1-4.2,6.9-3.6,10.8c5.2-0.9,5.1,9.7,8.7,7.9c3.7-1.9,6.7-15.1,6.9-19.1C-136.2,164.5-150.9,158.8-150.9,158.8z"/>
		<path id="XMLID_12431_" class="st46" d="M-148.4,168.7c0.6-0.6,0.2-2.4-0.4-3.8c-0.2,1.3-1.8,2.6-3,2.8
			c-7.6,2.7-20.3,29.4-20.3,29.4c2.2-3.5,13-14.9,19.2-17.3c0.3-0.1,0.6-0.2,0.9-0.3C-152.7,175.7-152.4,171.9-148.4,168.7z"/>
	</g>
	<path id="XMLID_12435_" class="st22" d="M-171.2,163.2c-0.2,8.1-6.9,11.4-1.5,20.5c0,0,1.6,9.2,0.5,13.5c0,0-2.4-11.6-6.8-13.5
		c-4.3-1.9-8.6,5.1-8.6,5.1s0.8-17.8,7.3-22.7C-173.8,161.3-171.2,163.2-171.2,163.2z"/>
	<g id="XMLID_12436_">
		<path id="XMLID_12439_" class="st45" d="M-171.4,163.1c-0.7-0.3-3.4-1-8.8,3.1c-6.5,4.9-7.3,22.7-7.3,22.7s3.9-6.3,7.9-5.4
			C-180.2,176.1-176.8,168.6-171.4,163.1z"/>
		<path id="XMLID_12442_" class="st46" d="M-171.4,163.1c-5.4,5.5-8.7,13-8.2,20.4c0.2,0.1,0.5,0.1,0.7,0.2
			c4.3,1.9,6.8,13.5,6.8,13.5c1.1-4.3-0.5-13.5-0.5-13.5c-5.4-9.2,1.3-12.4,1.5-20.5C-171.2,163.2-171.3,163.2-171.4,163.1z"/>
	</g>
	<path id="XMLID_12445_" class="st47" d="M-126.9,101.3l-12,0c0,0-0.2,4.6-0.3,5.7c-0.1,1.1,4.8-1.6,5.4-2.5c0.6-0.8,5.2-1.7,6-1.8
		C-127.5,102-126.9,101.3-126.9,101.3z"/>
	<g id="XMLID_12446_" class="st47">
		<g>
			<path id="XMLID_99_" class="st48" d="M-184.1,98.2c4.5,0,9.1,0.3,13.7,1c0.6,0,1.1,0.7,1.1,1.4c0.1,2-0.5,4.2-1,6.7
				c0,0.8-0.6,1.4-1.3,1.3c-5.4,0.1-10.4-0.5-14.9-1.8"/>
			<path id="XMLID_98_" class="st48" d="M-159.7,109.4c5.7,0.8,14.1,1.6,19,0.6c0.6,0,1.1-0.6,1.2-1.3c0.2-1.6,0.4-4.8,0.4-6.9
				c0-0.8-0.4-1.4-1.1-1.4c-5.3-0.8-14-0.6-19.6-0.4c-0.6,0-1.2,0.5-1.2,1.3c-0.3,2,0,4.2,0.2,6.8
				C-160.9,108.8-160.3,109.4-159.7,109.4z"/>
			<path id="XMLID_96_" class="st48" d="M-169.2,101.3c0,0,0.5-1.8,3.5-1.8c3,0,4.5,4.1,4.5,4.1"/>
		</g>
	</g>
	<path id="XMLID_12451_" class="st49" d="M-126.9,100.5l-12,0c0,0-0.2,4.6-0.3,5.7c-0.1,1.1,4.8-1.6,5.4-2.5c0.6-0.8,5.2-1.7,6-1.8
		C-127.5,101.2-126.9,100.5-126.9,100.5z"/>
	<g id="XMLID_12452_" class="st50">
		<path id="XMLID_12453_" class="st51" d="M-171.6,108.2c-5.7,0.1-11-0.6-15.7-2.1c-0.6-0.1-1.1-0.7-1-1.4c0-1.6,0.1-3.5,0.3-5.6
			c0-0.8,0.6-1.3,1.2-1.3c5.3-0.2,10.8,0.1,16.3,0.9c0.6,0,1.1,0.7,1.1,1.4c0.1,2-0.5,4.2-1,6.7
			C-170.3,107.7-170.9,108.3-171.6,108.2z"/>
		<path id="XMLID_12454_" class="st51" d="M-159.7,109c5.7,0.8,14.1,1.6,19,0.6c0.6,0,1.1-0.6,1.2-1.3c0.2-1.6,0.4-4.8,0.4-6.9
			c0-0.8-0.4-1.4-1.1-1.4c-5.3-0.8-14-0.6-19.6-0.4c-0.6,0-1.2,0.5-1.2,1.3c-0.3,2,0,4.2,0.2,6.8C-160.9,108.3-160.3,109-159.7,109z
			"/>
	</g>
	<g id="XMLID_12455_">
		<path id="XMLID_12456_" class="st52" d="M-171.6,108.2c-5.7,0.1-11-0.6-15.7-2.1c-0.6-0.1-1.1-0.7-1-1.4c0-1.6,0.1-3.5,0.3-5.6
			c0-0.8,0.6-1.3,1.2-1.3c5.3-0.2,10.8,0.1,16.3,0.9c0.6,0,1.1,0.7,1.1,1.4c0.1,2-0.5,4.2-1,6.7
			C-170.3,107.7-170.9,108.3-171.6,108.2z"/>
		<path id="XMLID_12457_" class="st52" d="M-159.7,109c5.7,0.8,14.1,1.6,19,0.6c0.6,0,1.1-0.6,1.2-1.3c0.2-1.6,0.4-4.8,0.4-6.9
			c0-0.8-0.4-1.4-1.1-1.4c-5.3-0.8-14-0.6-19.6-0.4c-0.6,0-1.2,0.5-1.2,1.3c-0.3,2,0,4.2,0.2,6.8C-160.9,108.3-160.3,109-159.7,109z
			"/>
		<path id="XMLID_12458_" class="st52" d="M-169.2,100.8c0,0,0.5-1.8,3.5-1.8s4.5,4.1,4.5,4.1"/>
	</g>
	<path id="XMLID_12462_" class="st31" d="M-131.2,106.2c1.1-1.9,6.1-9.4,8.7-4.8c2.6,4.6,1.7,15.2-2.9,16.9
		c-4.6,1.7-1.6,4.9-4.3,7.5c-2.6,2.6-4.8-0.2-5.2-2.3"/>
	<path id="XMLID_12466_" class="st31" d="M-127.5,108.1c4.2-1.9,4.6,5.7-0.5,6.8c-2.9,0.6-5.2,3.2-5.1,5.8"/>
</g>
</svg>
