<?xml version="1.0" encoding="utf-8"?>
<!-- Generator: Adobe Illustrator 19.0.0, SVG Export Plug-In . SVG Version: 6.00 Build 0)  -->
<svg version="1.1" id="Capa_1" xmlns="http://www.w3.org/2000/svg" xmlns:xlink="http://www.w3.org/1999/xlink" x="0px" y="0px"
	 viewBox="-397.0266 268.3882 34.5173 34.5185" style="enable-background:new -397.0266 268.3882 34.5173 34.5185;"
	 xml:space="preserve">
<style type="text/css">
	.st0{fill:#FBF6D8;}
	.st1{fill:#A3CE89;stroke:#3B86B1;stroke-width:1.7139;stroke-miterlimit:10;}
	.st2{fill:#A3CE89;}
</style>
<g id="XMLID_5540_">
	<circle id="XMLID_5538_" class="st0" cx="-379.3774" cy="285.7773" r="14.3882"/>
	<g id="XMLID_5096_">
		<path id="XMLID_5101_" class="st1" d="M-374.0527,279.9326c0.9629,0.9629,0.9629,2.5244,0,3.4873l-2.1797,2.1797l2.1797,2.1797
			c0.9629,0.9639,0.9629,2.5254,0,3.4883c-0.9629,0.9629-2.5254,0.9629-3.4883,0l-2.1797-2.1797l-2.1797,2.1797
			c-0.9629,0.9629-2.5254,0.9629-3.4883,0c-0.9629-0.9629-0.9629-2.5254,0-3.4883l2.1797-2.1797l-2.1797-2.1797
			c-0.9629-0.9629-0.9629-2.5244,0-3.4873c0.9629-0.9629,2.5254-0.9629,3.4883,0l2.1797,2.1797l2.1797-2.1787
			C-376.5781,278.9697-375.0156,278.9697-374.0527,279.9326L-374.0527,279.9326z M-374.0527,279.9326"/>
		<path id="XMLID_5097_" class="st2" d="M-391.9766,297.8574c-6.7334-6.7324-6.7334-17.6875,0-24.4199
			c6.7325-6.7324,17.6856-6.7324,24.418,0c6.7324,6.7324,6.7324,17.6875,0,24.4199
			C-374.291,304.5898-385.2441,304.5898-391.9766,297.8574L-391.9766,297.8574z M-370.2275,276.1074
			c-5.2608-5.2597-13.8194-5.2597-19.0791,0c-5.2618,5.2608-5.2618,13.8194,0,19.0801c5.2597,5.2598,13.8183,5.2598,19.0791,0
			C-364.9687,289.9268-364.9687,281.3682-370.2275,276.1074L-370.2275,276.1074z M-369.2773,275.1563"/>
	</g>
</g>
</svg>
