<?xml version="1.0" encoding="utf-8"?>
<!-- Generator: Adobe Illustrator 21.0.0, SVG Export Plug-In . SVG Version: 6.00 Build 0)  -->
<svg version="1.1" id="Capa_1" xmlns="http://www.w3.org/2000/svg" xmlns:xlink="http://www.w3.org/1999/xlink" x="0px" y="0px"
	 viewBox="0 0 661 316" style="enable-background:new 0 0 661 316;" xml:space="preserve">
<style type="text/css">
	.st0{fill:#0071BC;}
	.st1{fill:#3B86B1;}
	.st2{fill:#00FFFF;}
	.st3{fill:#2E3192;}
	.st4{fill:#75C6F0;}
	.st5{fill:#FFFFFF;}
	.st6{fill:#8CCEEA;}
</style>
<g>
	<path class="st0" d="M307.2188,204.3887c83.4365-1.6983,92.3623-33.4473,92.3623-35.2305c0-8.9902-14.001-32.4551-89.5948-32.4551
		c-75.5937,0-73.248,27.835-73.248,28.8653c0,0.7832,0.1426,5.124,4.2265,9.416l-43.6806-3.1699
		c1.3652,2.2587,3.2275,4.7031,5.7676,7.2031C215.2881,191.0605,243.2598,204.3887,307.2188,204.3887z"/>
	<path class="st1" d="M301.9746,220.6016c130.2695-2.2891,135.0918-46.3418,135.0918-51.6953
		c0-12.9063-19.7217-46.3672-131.7832-46.3672s-111.7539,34.5078-111.7539,37.5976c0,0.75,1.4287,13.0293,10.0996,18.8926
		l37.3359-4.0449c-4.0839-4.292-4.2265-8.6328-4.2265-9.416c0-1.0303-2.3457-28.8653,73.248-28.8653
		c75.5938,0,89.5948,23.4649,89.5948,32.4551c0,1.7832-8.9258,33.5322-92.3623,35.2305c-63.5909,0-91.6084-13.1748-103.9561-25.1631
		c-5.8506,0.5234-33.7188,3.749-44.0537,5.0771C176.7188,202.9424,217.4355,222.0869,301.9746,220.6016z"/>
	<path class="st2" d="M302.2422,233.2441c151.4121-2.6474,171.5723-48.041,172.2998-64.0937
		c1.125-24.8174-50.6709-62.6836-175.3721-62.1045c-124.4424,0.5781-151.2734,41.5186-151.2734,50.7939
		c-0.3799,2.8916-0.1865,15.9297,11.3125,26.4629l43.8428-5.2851c-9.0977-6.2471-9.5225-18.1309-9.5225-18.8809
		c0-3.0898-0.3076-37.5976,111.7539-37.5976S437.0664,156,437.0664,168.9063c0,5.3535-4.8223,49.4062-135.0918,51.6953
		c-84.331,1.4814-125.0547-17.5655-142.6367-36.1612c-8.9629,1.1016-28.9717,3.0674-37.9609,4.251
		C145.6611,210.9834,199.7822,235.0352,302.2422,233.2441z"/>
	<g>
		<path class="st3" d="M143.9964,181.8557c-0.2866,0-0.5708-0.1226-0.7686-0.3599c-3.7344-4.4814-5.4927-10.8135-5.2266-18.8208
			c0.0186-0.5518,0.4956-0.9785,1.0327-0.9663c0.5518,0.0186,0.9844,0.481,0.9663,1.0327
			c-0.2495,7.502,1.3535,13.3809,4.7637,17.4741c0.3535,0.4243,0.2964,1.0547-0.1279,1.4082
			C144.4491,181.7795,144.222,181.8557,143.9964,181.8557z"/>
		<polygon class="st3" points="134,163 144,163 138.7021,154.6865 		"/>
	</g>
	<g>
		<path class="st3" d="M190.5106,176.883c-0.1636,0-0.3291-0.04-0.4824-0.1245c-3.4419-1.9014-7.3506-5.3335-7.0269-15.0835
			c0.0186-0.5518,0.4829-0.98,1.0327-0.9663c0.5518,0.0186,0.9844,0.481,0.9663,1.0327c-0.2861,8.6143,2.8696,11.54,5.9946,13.2661
			c0.4834,0.2671,0.6592,0.8755,0.3921,1.3589C191.2044,176.6965,190.8631,176.883,190.5106,176.883z"/>
		<polygon class="st3" points="179,162 189,162 183.7021,153.6865 		"/>
	</g>
	<g>
		<path class="st3" d="M233.5125,173.4324c-0.0781,0-0.1577-0.0088-0.2368-0.0283l-0.1333-0.0322
			c-3.3276-0.8066-7.4697-1.8101-7.1411-11.6968c0.0186-0.5518,0.4922-0.98,1.0327-0.9663c0.5518,0.0186,0.9844,0.481,0.9663,1.0327
			c-0.2744,8.2598,2.4541,8.9209,5.6133,9.6865l0.1338,0.0327c0.5371,0.1304,0.8662,0.6709,0.7358,1.2075
			C234.3724,173.1257,233.9632,173.4324,233.5125,173.4324z"/>
		<polygon class="st3" points="222,162 232,162 226.7021,153.6865 		"/>
	</g>
	<g>
		<path class="st3" d="M105.0018,185.6672c-0.0742,0-0.1499-0.0083-0.2256-0.0254c-0.1348-0.0313-13.4604-3.3418-12.7749-23.9668
			c0.0186-0.5518,0.4824-0.98,1.0327-0.9663c0.5518,0.0186,0.9844,0.481,0.9663,1.0327
			c-0.6313,18.998,11.1064,21.9238,11.2251,21.9512c0.5381,0.124,0.874,0.6611,0.75,1.1992
			C105.8685,185.3542,105.4569,185.6672,105.0018,185.6672z"/>
		<polygon class="st3" points="88,162 98,162 92.7021,153.6865 		"/>
	</g>
	<polygon class="st3" points="108.9297,184.7715 110.3154,194.6758 117.8135,188.2773 	"/>
	<polygon class="st3" points="148.8584,180.959 150.4531,190.832 157.8135,184.2773 	"/>
	<polygon class="st3" points="182.8584,176.959 184.4531,186.832 191.8135,180.2773 	"/>
	<polygon class="st3" points="224.8584,171.959 226.4531,181.832 233.8135,175.2773 	"/>
	<path class="st4" d="M306.035,250.1955c-71.8975,0-130.1328-7.7188-173.0879-22.9414
		c-42.9644-15.2266-68.5049-37.1934-75.9131-65.291c-0.1411-0.5342,0.1777-1.0811,0.7119-1.2217
		c0.5356-0.1416,1.0811,0.1782,1.2217,0.7119c7.2295,27.4189,32.3442,48.9238,74.6475,63.915
		c42.7402,15.1475,100.7505,22.8271,172.4199,22.8271c53.9707,0,103.8057-7.9717,140.3223-22.4453
		c37.1729-14.7344,57.6445-35.2432,57.6445-57.75c0-18.1885-19.5244-36.3247-53.5664-49.7583
		c-26.7529-10.5576-74.7061-23.145-151.2246-23.1577c-0.0361,0-0.0728,0-0.1089,0c-73.8716,0-119.7998,12.4585-145.3247,22.9131
		c-29.9302,12.2593-47.7988,28.3164-47.7988,42.9541c0,7.0601,5.25,16.4341,14.0435,25.0757
		c9.3853,9.2222,27.4492,22.3042,60.2114,32.2554c33.248,10.0986,74.2939,14.8018,121.9912,13.9619
		c160.4619-2.8057,170.8633-53.0879,171.3184-63.1392c0.2842-6.2642-2.9678-13.1187-9.4043-19.8218
		c-9.4189-9.8096-49.1631-41.7661-164.9639-41.2373c-65.9624,0.3062-102.6704,12.146-121.8496,22.0244
		c-23.2061,11.9521-28.4287,24.3638-28.4287,27.769c0,0.0435-0.0029,0.0869-0.0083,0.1304
		c-0.9536,7.2632,2.812,16.4536,10.0728,24.5845c12.9893,14.5464,48.8325,38.7153,142.9961,37.0474
		c54.4922-0.957,93.4697-9.208,115.8496-24.5234c17.3799-11.8936,18.2598-23.8882,18.2598-26.1719
		c0-7.1758-6.1299-18.0737-23.335-27.1387c-22.9561-12.0957-59.1064-18.2285-107.4482-18.2285
		c-46.5742,0-79.293,5.8574-97.2476,17.4092c-12.1929,7.8447-13.5073,16.0142-13.5063,19.1626
		c0,4.4526,3.1621,43.2778,112.6895,43.2778c84.0723-1.7109,91.3418-33.9229,91.3623-34.2471
		c0-4.877-4.1836-12.3647-15.9248-18.7026c-15.6563-8.4512-40.106-12.7363-72.6699-12.7363
		c-42.3521,0-59.7856,8.8008-66.9531,16.1841c-4.9399,5.0884-5.3501,9.7793-5.2974,11.5601c0,0.0103,0.0024,0.1118,0.0024,0.1216
		c0,0.7637,0.1904,4.7744,3.9512,8.7266c0.3804,0.4004,0.3647,1.0332-0.0352,1.4141c-0.4004,0.3813-1.0327,0.3647-1.4141-0.0352
		c-4.1772-4.3901-4.502-8.8447-4.502-10.1055c-0.062-2.0972,0.3882-7.4385,5.8599-13.0747
		c7.436-7.6602,25.3369-16.791,68.3882-16.791c32.8994,0,57.6689,4.3657,73.6201,12.9766
		c12.5156,6.7559,16.9746,15.0083,16.9746,20.479c0,1.6543-2.7295,10.1416-15.3408,18.4814
		c-16.7324,11.0645-42.9756,17.0361-78.001,17.749c-111.4917,0-114.71-40.6206-114.71-45.2524
		c-0.001-3.5015,1.4028-12.4922,14.4243-20.8701c18.2822-11.7627,51.3652-17.7271,98.3296-17.7271
		c48.6699,0,85.1348,6.2104,108.3809,18.459c17.9922,9.48,24.4023,21.1489,24.4023,28.9082
		c0,5.1489-3.8184,50.3711-136.0742,52.6953c-94.9614,1.665-131.3057-22.9141-144.5229-37.7148
		c-7.6226-8.5361-11.5713-18.293-10.5723-26.1147c0.1191-10.249,27.3701-51.1465,152.2686-51.7261
		c43.02-0.189,80.1948,4.0996,110.4702,12.7773c31.9639,9.1616,48.0664,20.8677,55.9463,29.0747
		c6.8242,7.1079,10.2686,14.4727,9.959,21.2979c-0.4697,10.3643-11.0313,62.2114-173.2813,65.0483
		c-47.9126,0.8291-89.1602-3.8887-122.6074-14.0479c-33.1509-10.0693-51.4873-23.3633-61.0322-32.7432
		c-9.3047-9.1436-14.6416-18.8032-14.6416-26.502c0-15.478,18.333-32.2275,49.041-44.8047
		c25.6895-10.522,71.8936-23.0625,146.0825-23.0625c0.041,0,0.0684,0,0.1089,0c76.833,0.0127,125.0439,12.6763,151.959,23.2969
		c34.8467,13.7515,54.832,32.5659,54.832,51.6191c0,23.3828-20.9199,44.5518-58.9072,59.6094
		C410.3485,242.1741,360.2528,250.1955,306.035,250.1955z"/>
	<path class="st3" d="M254.9998,282.0002c-0.1523,0-0.3071-0.0352-0.4526-0.1084c-0.4922-0.251-0.688-0.8525-0.4375-1.3447
		l58.333-114.6675c0.0796-0.1567,0.1992-0.2896,0.3467-0.3853l111.3335-72.249c0.4629-0.3003,1.082-0.1685,1.3828,0.2944
		c0.3008,0.4634,0.1689,1.0825-0.2949,1.3833l-111.1074,72.103l-58.2114,114.4272
		C255.7157,281.801,255.3646,282.0002,254.9998,282.0002z"/>
	<path class="st3" d="M16.6659,201.6672c-0.501,0-0.9336-0.375-0.9922-0.8848c-0.0635-0.5488,0.3296-1.0449,0.8784-1.1084
		l294.4805-34.0811L220.994,83.74c-0.4087-0.3711-0.4385-1.0039-0.0669-1.4126c0.3716-0.4077,1.0039-0.4385,1.4126-0.0669
		l91.667,83.333c0.29,0.2637,0.3994,0.6729,0.2793,1.0459c-0.1201,0.3735-0.4478,0.6421-0.8374,0.687l-296.667,34.334
		C16.743,201.6653,16.7039,201.6672,16.6659,201.6672z"/>
	<path class="st3" d="M487.6668,231.3332c-0.1143,0-0.2305-0.0195-0.3447-0.0615l-174.333-63.9995
		c-0.5186-0.1904-0.7842-0.7651-0.5942-1.2837c0.1909-0.519,0.7661-0.7847,1.2837-0.5942l174.333,64.0005
		c0.5186,0.1904,0.7842,0.7646,0.5938,1.2832C488.4569,231.0823,488.0741,231.3332,487.6668,231.3332z"/>
</g>
<g>
	<g>
		<rect x="251" class="st4" width="135" height="74"/>
		<g>
			<path class="st5" d="M281.5062,14.5393v-7.874h2.5513c0.9668,0,1.5972,0.0391,1.8906,0.1182
				c0.4512,0.1182,0.8291,0.375,1.1333,0.7705s0.4565,0.9072,0.4565,1.5342c0,0.4824-0.0879,0.8896-0.2632,1.2188
				s-0.3984,0.5879-0.6685,0.7764c-0.2705,0.1875-0.5454,0.3125-0.8247,0.373c-0.3794,0.0752-0.9292,0.1123-1.6489,0.1123h-1.0366
				v2.9707H281.5062z M283.096,7.9973v2.2344h0.8701c0.6265,0,1.0454-0.041,1.2568-0.124c0.2114-0.082,0.377-0.2109,0.4966-0.3867
				c0.1201-0.1748,0.1802-0.3789,0.1802-0.6113c0-0.2871-0.084-0.5234-0.2524-0.709c-0.1685-0.1865-0.3813-0.3027-0.6392-0.3496
				c-0.1899-0.0361-0.5713-0.0537-1.144-0.0537H283.096z"/>
			<path class="st5" d="M288.8861,14.5393V6.7297h1.5898v6.4834h3.9531v1.3262H288.8861z"/>
			<path class="st5" d="M302.6629,14.5393h-1.7295l-0.6875-1.7891h-3.1475l-0.6499,1.7891h-1.6865l3.0669-7.874h1.6812
				L302.6629,14.5393z M299.7357,11.4241l-1.085-2.9219l-1.0635,2.9219H299.7357z"/>
			<path class="st5" d="M303.5223,14.5393v-7.874h1.5469l3.2227,5.2588V6.6653h1.4771v7.874h-1.5952l-3.1743-5.1348v5.1348H303.5223
				z"/>
			<path class="st5" d="M311.45,14.5393v-7.874h5.8384v1.332h-4.2485v1.7451h3.9531v1.3271h-3.9531v2.1436h4.3989v1.3262H311.45z"/>
			<path class="st5" d="M325.8875,14.5393h-1.7295l-0.6875-1.7891h-3.1475l-0.6499,1.7891h-1.6865l3.0669-7.874h1.6812
				L325.8875,14.5393z M322.9603,11.4241l-1.085-2.9219l-1.0635,2.9219H322.9603z"/>
			<path class="st5" d="M331.7689,11.6448l1.5415,0.4883c-0.2363,0.8594-0.6294,1.498-1.1787,1.915
				c-0.5498,0.417-1.2471,0.626-2.0923,0.626c-1.0454,0-1.9048-0.3574-2.5781-1.0723c-0.6733-0.7139-1.0098-1.6904-1.0098-2.9297
				c0-1.3105,0.3384-2.3281,1.0151-3.0537c0.6768-0.7246,1.5664-1.0869,2.6694-1.0869c0.9634,0,1.7456,0.2842,2.3472,0.8535
				c0.3579,0.3369,0.6265,0.8203,0.8057,1.4502l-1.5737,0.376c-0.0933-0.4082-0.2876-0.7305-0.5825-0.9668
				c-0.2959-0.2363-0.6548-0.3545-1.0771-0.3545c-0.5835,0-1.0571,0.21-1.4209,0.6279c-0.3633,0.4199-0.5449,1.0977-0.5449,2.0361
				c0,0.9951,0.1792,1.7041,0.5371,2.127s0.8237,0.6338,1.3965,0.6338c0.4224,0,0.7861-0.1348,1.0903-0.4023
				C331.4178,12.6428,331.6366,12.2209,331.7689,11.6448z"/>
			<path class="st5" d="M334.6263,14.5393v-7.874h1.5898v7.874H334.6263z"/>
			<path class="st5" d="M337.4085,10.6506c0-0.8018,0.1201-1.4756,0.3599-2.0195c0.1792-0.4014,0.4233-0.7607,0.7334-1.0801
				c0.3096-0.3184,0.6489-0.5547,1.0176-0.709c0.4907-0.207,1.0562-0.3105,1.6973-0.3105c1.1602,0,2.0884,0.3594,2.7852,1.0791
				c0.6963,0.7197,1.0444,1.7207,1.0444,3.0029c0,1.2705-0.3457,2.2656-1.0366,2.9834s-1.6147,1.0771-2.7715,1.0771
				c-1.1709,0-2.1021-0.3574-2.793-1.0723C337.7542,12.8879,337.4085,11.9035,337.4085,10.6506z M339.0467,10.5969
				c0,0.8916,0.2061,1.5674,0.6177,2.0273s0.9346,0.6904,1.5684,0.6904s1.1538-0.2285,1.5601-0.6846
				c0.4067-0.457,0.6099-1.1416,0.6099-2.0547c0-0.9023-0.1978-1.5752-0.5933-2.0195c-0.396-0.4443-0.9214-0.666-1.5767-0.666
				s-1.1836,0.2246-1.5845,0.6738S339.0467,9.6907,339.0467,10.5969z M340.2498,6.2141l0.7412-1.6064h1.6919l-1.4771,1.6064
				H340.2498z"/>
			<path class="st5" d="M346.3031,14.5393v-7.874h1.5469l3.2227,5.2588V6.6653h1.4771v7.874h-1.5952l-3.1743-5.1348v5.1348H346.3031
				z"/>
		</g>
	</g>
	<rect x="255" y="21" class="st6" width="125" height="46"/>
	<g>
		<path class="st5" d="M288.1434,32.7961v-8.5898h6.2109V25.22h-5.0742v2.6309h4.752v1.0078h-4.752v2.9238h5.2734v1.0137H288.1434z"
			/>
		<path class="st5" d="M295.5672,30.9387l1.043-0.1641c0.0586,0.418,0.2217,0.7383,0.4893,0.9609s0.6416,0.334,1.1221,0.334
			c0.4844,0,0.8438-0.0986,1.0781-0.2959s0.3516-0.4287,0.3516-0.6943c0-0.2383-0.1035-0.4258-0.3105-0.5625
			c-0.1445-0.0938-0.5039-0.2129-1.0781-0.3574c-0.7734-0.1953-1.3096-0.3643-1.6084-0.5068s-0.5254-0.3398-0.6797-0.5918
			s-0.2314-0.5303-0.2314-0.835c0-0.2773,0.0635-0.5342,0.1904-0.7705s0.2998-0.4326,0.5186-0.5889
			c0.1641-0.1211,0.3877-0.2236,0.6709-0.3076s0.5869-0.126,0.9111-0.126c0.4883,0,0.917,0.0703,1.2861,0.2109
			s0.6416,0.3311,0.8174,0.5713s0.2969,0.5615,0.3633,0.9639l-1.0313,0.1406c-0.0469-0.3203-0.1826-0.5703-0.4072-0.75
			s-0.542-0.2695-0.9521-0.2695c-0.4844,0-0.8301,0.0801-1.0371,0.2402s-0.3105,0.3477-0.3105,0.5625
			c0,0.1367,0.043,0.2598,0.1289,0.3691c0.0859,0.1133,0.2207,0.207,0.4043,0.2813c0.1055,0.0391,0.416,0.1289,0.9316,0.2695
			c0.7461,0.1992,1.2666,0.3623,1.5615,0.4893s0.5264,0.3115,0.6943,0.5537s0.252,0.543,0.252,0.9023
			c0,0.3516-0.1025,0.6826-0.3076,0.9932s-0.501,0.5508-0.8877,0.7207s-0.8242,0.2549-1.3125,0.2549
			c-0.8086,0-1.4248-0.168-1.8486-0.5039S295.6844,31.5989,295.5672,30.9387z"/>
		<path class="st5" d="M304.2918,31.8528l0.1523,0.9316c-0.2969,0.0625-0.5625,0.0938-0.7969,0.0938
			c-0.3828,0-0.6797-0.0605-0.8906-0.1816s-0.3594-0.2803-0.4453-0.4775s-0.1289-0.6123-0.1289-1.2451v-3.5801h-0.7734v-0.8203
			h0.7734v-1.541l1.0488-0.6328v2.1738h1.0605v0.8203h-1.0605v3.6387c0,0.3008,0.0186,0.4941,0.0557,0.5801
			s0.0977,0.1543,0.1816,0.2051s0.2041,0.0762,0.3604,0.0762C303.9461,31.8938,304.1004,31.8801,304.2918,31.8528z"/>
		<path class="st5" d="M305.3289,25.4192v-1.2129h1.0547v1.2129H305.3289z M305.3289,32.7961v-6.2227h1.0547v6.2227H305.3289z"/>
		<path class="st5" d="M307.9891,32.7961v-6.2227h0.9434v0.873c0.1953-0.3047,0.4551-0.5498,0.7793-0.7354
			s0.6934-0.2783,1.1074-0.2783c0.4609,0,0.8389,0.0957,1.1338,0.2871s0.5029,0.459,0.624,0.8027
			c0.4922-0.7266,1.1328-1.0898,1.9219-1.0898c0.6172,0,1.0918,0.1709,1.4238,0.5127s0.498,0.8682,0.498,1.5791v4.2715h-1.0488
			v-3.9199c0-0.4219-0.0342-0.7256-0.1025-0.9111s-0.1924-0.335-0.3721-0.4482s-0.3906-0.1699-0.6328-0.1699
			c-0.4375,0-0.8008,0.1455-1.0898,0.4365s-0.4336,0.7568-0.4336,1.3975v3.6152h-1.0547v-4.043
			c0-0.4688-0.0859-0.8203-0.2578-1.0547s-0.4531-0.3516-0.8438-0.3516c-0.2969,0-0.5713,0.0781-0.8232,0.2344
			s-0.4346,0.3848-0.5479,0.6855s-0.1699,0.7344-0.1699,1.3008v3.2285H307.9891z"/>
		<path class="st5" d="M322.0457,32.0285c-0.3906,0.332-0.7666,0.5664-1.1279,0.7031s-0.749,0.2051-1.1631,0.2051
			c-0.6836,0-1.209-0.167-1.5762-0.501s-0.5508-0.7607-0.5508-1.2803c0-0.3047,0.0693-0.583,0.208-0.835
			s0.3203-0.4541,0.5449-0.6064s0.4775-0.2676,0.7588-0.3457c0.207-0.0547,0.5195-0.1074,0.9375-0.1582
			c0.8516-0.1016,1.4785-0.2227,1.8809-0.3633c0.0039-0.1445,0.0059-0.2363,0.0059-0.2754c0-0.4297-0.0996-0.7324-0.2988-0.9082
			c-0.2695-0.2383-0.6699-0.3574-1.2012-0.3574c-0.4961,0-0.8623,0.0869-1.0986,0.2607s-0.4111,0.4814-0.5244,0.9229l-1.0313-0.1406
			c0.0938-0.4414,0.248-0.7979,0.4629-1.0693s0.5254-0.4805,0.9316-0.627s0.877-0.2197,1.4121-0.2197
			c0.5313,0,0.9629,0.0625,1.2949,0.1875s0.5762,0.2822,0.7324,0.4717s0.2656,0.4287,0.3281,0.7178
			c0.0352,0.1797,0.0527,0.5039,0.0527,0.9727v1.4063c0,0.9805,0.0225,1.6006,0.0674,1.8604s0.1338,0.5088,0.2666,0.7471h-1.1016
			C322.1473,32.5774,322.077,32.3215,322.0457,32.0285z M321.9579,29.6731c-0.3828,0.1563-0.957,0.2891-1.7227,0.3984
			c-0.4336,0.0625-0.7402,0.1328-0.9199,0.2109s-0.3184,0.1924-0.416,0.3428s-0.1465,0.3174-0.1465,0.501
			c0,0.2813,0.1064,0.5156,0.3193,0.7031s0.5244,0.2813,0.9346,0.2813c0.4063,0,0.7676-0.0889,1.084-0.2666
			s0.5488-0.4209,0.6973-0.7295c0.1133-0.2383,0.1699-0.5898,0.1699-1.0547V29.6731z"/>
		<path class="st5" d="M328.7196,30.5168l1.0371,0.1348c-0.1133,0.7148-0.4033,1.2744-0.8701,1.6787s-1.04,0.6064-1.7197,0.6064
			c-0.8516,0-1.5361-0.2783-2.0537-0.835s-0.7764-1.3545-0.7764-2.3936c0-0.6719,0.1113-1.2598,0.334-1.7637
			s0.5615-0.8818,1.0166-1.1338s0.9502-0.3779,1.4854-0.3779c0.6758,0,1.2285,0.1709,1.6582,0.5127s0.7051,0.8271,0.8262,1.4561
			l-1.0254,0.1582c-0.0977-0.418-0.2705-0.7324-0.5186-0.9434S327.5653,27.3,327.2137,27.3c-0.5313,0-0.9629,0.1904-1.2949,0.5713
			s-0.498,0.9834-0.498,1.8076c0,0.8359,0.1602,1.4434,0.4805,1.8223s0.7383,0.5684,1.2539,0.5684
			c0.4141,0,0.7598-0.127,1.0371-0.3809S328.6454,31.0442,328.7196,30.5168z"/>
		<path class="st5" d="M330.6649,25.4192v-1.2129h1.0547v1.2129H330.6649z M330.6649,32.7961v-6.2227h1.0547v6.2227H330.6649z"/>
		<path class="st5" d="M332.9325,29.6848c0-1.1523,0.3203-2.0059,0.9609-2.5605c0.5352-0.4609,1.1875-0.6914,1.957-0.6914
			c0.8555,0,1.5547,0.2803,2.0977,0.8408s0.8145,1.335,0.8145,2.3232c0,0.8008-0.1201,1.4307-0.3604,1.8896
			s-0.5898,0.8154-1.0488,1.0693s-0.96,0.3809-1.5029,0.3809c-0.8711,0-1.5752-0.2793-2.1123-0.8379
			S332.9325,30.7356,332.9325,29.6848z M334.0164,29.6848c0,0.7969,0.1738,1.3936,0.5215,1.79s0.7852,0.5947,1.3125,0.5947
			c0.5234,0,0.959-0.1992,1.3066-0.5977s0.5215-1.0059,0.5215-1.8223c0-0.7695-0.1748-1.3525-0.5244-1.749
			s-0.7842-0.5947-1.3037-0.5947c-0.5273,0-0.9648,0.1973-1.3125,0.5918S334.0164,28.8879,334.0164,29.6848z M335.2645,25.8
			l0.7793-1.6406h1.3828L336.1375,25.8H335.2645z"/>
		<path class="st5" d="M339.9989,32.7961v-6.2227h0.9492v0.8848c0.457-0.6836,1.1172-1.0254,1.9805-1.0254
			c0.375,0,0.7197,0.0674,1.0342,0.2021s0.5498,0.3115,0.7061,0.5303s0.2656,0.4785,0.3281,0.7793
			c0.0391,0.1953,0.0586,0.5371,0.0586,1.0254v3.8262h-1.0547V29.011c0-0.4297-0.041-0.751-0.123-0.9639
			s-0.2275-0.3828-0.4365-0.5098s-0.4541-0.1904-0.7354-0.1904c-0.4492,0-0.8369,0.1426-1.1631,0.4277s-0.4893,0.8262-0.4893,1.623
			v3.3984H339.9989z"/>
		<path class="st5" d="M294.3133,46.7961v-8.5898h1.1367v8.5898H294.3133z"/>
		<path class="st5" d="M299.6219,45.8528l0.1523,0.9316c-0.2969,0.0625-0.5625,0.0938-0.7969,0.0938
			c-0.3828,0-0.6797-0.0605-0.8906-0.1816s-0.3594-0.2803-0.4453-0.4775s-0.1289-0.6123-0.1289-1.2451v-3.5801h-0.7734v-0.8203
			h0.7734v-1.541l1.0488-0.6328v2.1738h1.0605v0.8203h-1.0605v3.6387c0,0.3008,0.0186,0.4941,0.0557,0.5801
			s0.0977,0.1543,0.1816,0.2051s0.2041,0.0762,0.3604,0.0762C299.2762,45.8938,299.4305,45.8801,299.6219,45.8528z"/>
		<path class="st5" d="M300.659,39.4192v-1.2129h1.0547v1.2129H300.659z M300.659,46.7961v-6.2227h1.0547v6.2227H300.659z"/>
		<path class="st5" d="M303.3192,46.7961v-6.2227h0.9492v0.8848c0.457-0.6836,1.1172-1.0254,1.9805-1.0254
			c0.375,0,0.7197,0.0674,1.0342,0.2021s0.5498,0.3115,0.7061,0.5303s0.2656,0.4785,0.3281,0.7793
			c0.0391,0.1953,0.0586,0.5371,0.0586,1.0254v3.8262h-1.0547V43.011c0-0.4297-0.041-0.751-0.123-0.9639
			s-0.2275-0.3828-0.4365-0.5098s-0.4541-0.1904-0.7354-0.1904c-0.4492,0-0.8369,0.1426-1.1631,0.4277s-0.4893,0.8262-0.4893,1.623
			v3.3984H303.3192z"/>
		<path class="st5" d="M314.2528,44.7922l1.0898,0.1348c-0.1719,0.6367-0.4902,1.1309-0.9551,1.4824s-1.0586,0.5273-1.7813,0.5273
			c-0.9102,0-1.6318-0.2803-2.165-0.8408s-0.7998-1.3467-0.7998-2.3584c0-1.0469,0.2695-1.8594,0.8086-2.4375
			s1.2383-0.8672,2.0977-0.8672c0.832,0,1.5117,0.2832,2.0391,0.8496s0.791,1.3633,0.791,2.3906
			c0,0.0625-0.002,0.1563-0.0059,0.2813h-4.6406c0.0391,0.6836,0.2324,1.207,0.5801,1.5703s0.7813,0.5449,1.3008,0.5449
			c0.3867,0,0.7168-0.1016,0.9902-0.3047S314.0926,45.2375,314.2528,44.7922z M310.7899,43.0871h3.4746
			c-0.0469-0.5234-0.1797-0.916-0.3984-1.1777c-0.3359-0.4063-0.7715-0.6094-1.3066-0.6094c-0.4844,0-0.8916,0.1621-1.2217,0.4863
			S310.825,42.5442,310.7899,43.0871z"/>
		<path class="st5" d="M316.6551,46.7961v-6.2227h0.9492v0.9434c0.2422-0.4414,0.4658-0.7324,0.6709-0.873
			s0.4307-0.2109,0.6768-0.2109c0.3555,0,0.7168,0.1133,1.084,0.3398l-0.3633,0.9785c-0.2578-0.1523-0.5156-0.2285-0.7734-0.2285
			c-0.2305,0-0.4375,0.0693-0.6211,0.208s-0.3145,0.3311-0.3926,0.5771c-0.1172,0.375-0.1758,0.7852-0.1758,1.2305v3.2578H316.6551z
			"/>
		<path class="st5" d="M324.7235,46.0285c-0.3906,0.332-0.7666,0.5664-1.1279,0.7031s-0.749,0.2051-1.1631,0.2051
			c-0.6836,0-1.209-0.167-1.5762-0.501s-0.5508-0.7607-0.5508-1.2803c0-0.3047,0.0693-0.583,0.208-0.835
			s0.3203-0.4541,0.5449-0.6064s0.4775-0.2676,0.7588-0.3457c0.207-0.0547,0.5195-0.1074,0.9375-0.1582
			c0.8516-0.1016,1.4785-0.2227,1.8809-0.3633c0.0039-0.1445,0.0059-0.2363,0.0059-0.2754c0-0.4297-0.0996-0.7324-0.2988-0.9082
			c-0.2695-0.2383-0.6699-0.3574-1.2012-0.3574c-0.4961,0-0.8623,0.0869-1.0986,0.2607s-0.4111,0.4814-0.5244,0.9229l-1.0313-0.1406
			c0.0938-0.4414,0.248-0.7979,0.4629-1.0693s0.5254-0.4805,0.9316-0.627s0.877-0.2197,1.4121-0.2197
			c0.5313,0,0.9629,0.0625,1.2949,0.1875s0.5762,0.2822,0.7324,0.4717s0.2656,0.4287,0.3281,0.7178
			c0.0352,0.1797,0.0527,0.5039,0.0527,0.9727v1.4063c0,0.9805,0.0225,1.6006,0.0674,1.8604s0.1338,0.5088,0.2666,0.7471h-1.1016
			C324.825,46.5774,324.7547,46.3215,324.7235,46.0285z M324.6356,43.6731c-0.3828,0.1563-0.957,0.2891-1.7227,0.3984
			c-0.4336,0.0625-0.7402,0.1328-0.9199,0.2109s-0.3184,0.1924-0.416,0.3428s-0.1465,0.3174-0.1465,0.501
			c0,0.2813,0.1064,0.5156,0.3193,0.7031s0.5244,0.2813,0.9346,0.2813c0.4063,0,0.7676-0.0889,1.084-0.2666
			s0.5488-0.4209,0.6973-0.7295c0.1133-0.2383,0.1699-0.5898,0.1699-1.0547V43.6731z"/>
		<path class="st5" d="M327.325,46.7961v-6.2227h0.9492v0.9434c0.2422-0.4414,0.4658-0.7324,0.6709-0.873
			s0.4307-0.2109,0.6768-0.2109c0.3555,0,0.7168,0.1133,1.084,0.3398l-0.3633,0.9785c-0.2578-0.1523-0.5156-0.2285-0.7734-0.2285
			c-0.2305,0-0.4375,0.0693-0.6211,0.208s-0.3145,0.3311-0.3926,0.5771c-0.1172,0.375-0.1758,0.7852-0.1758,1.2305v3.2578H327.325z"
			/>
		<path class="st5" d="M331.3387,39.4192v-1.2129h1.0547v1.2129H331.3387z M331.3387,46.7961v-6.2227h1.0547v6.2227H331.3387z"/>
		<path class="st5" d="M333.6063,43.6848c0-1.1523,0.3203-2.0059,0.9609-2.5605c0.5352-0.4609,1.1875-0.6914,1.957-0.6914
			c0.8555,0,1.5547,0.2803,2.0977,0.8408s0.8145,1.335,0.8145,2.3232c0,0.8008-0.1201,1.4307-0.3604,1.8896
			s-0.5898,0.8154-1.0488,1.0693s-0.96,0.3809-1.5029,0.3809c-0.8711,0-1.5752-0.2793-2.1123-0.8379
			S333.6063,44.7356,333.6063,43.6848z M334.6903,43.6848c0,0.7969,0.1738,1.3936,0.5215,1.79s0.7852,0.5947,1.3125,0.5947
			c0.5234,0,0.959-0.1992,1.3066-0.5977s0.5215-1.0059,0.5215-1.8223c0-0.7695-0.1748-1.3525-0.5244-1.749
			s-0.7842-0.5947-1.3037-0.5947c-0.5273,0-0.9648,0.1973-1.3125,0.5918S334.6903,42.8879,334.6903,43.6848z"/>
		<path class="st5" d="M266.4959,60.7961l3.2988-8.5898h1.2246l3.5156,8.5898h-1.2949l-1.002-2.6016h-3.5918l-0.9434,2.6016
			H266.4959z M268.9745,57.2688h2.9121l-0.8965-2.3789c-0.2734-0.7227-0.4766-1.3164-0.6094-1.7813
			c-0.1094,0.5508-0.2637,1.0977-0.4629,1.6406L268.9745,57.2688z"/>
		<path class="st5" d="M275.3084,60.7961v-6.2227h0.9492v0.8848c0.457-0.6836,1.1172-1.0254,1.9805-1.0254
			c0.375,0,0.7197,0.0674,1.0342,0.2021s0.5498,0.3115,0.7061,0.5303s0.2656,0.4785,0.3281,0.7793
			c0.0391,0.1953,0.0586,0.5371,0.0586,1.0254v3.8262h-1.0547V57.011c0-0.4297-0.041-0.751-0.123-0.9639
			s-0.2275-0.3828-0.4365-0.5098s-0.4541-0.1904-0.7354-0.1904c-0.4492,0-0.8369,0.1426-1.1631,0.4277s-0.4893,0.8262-0.4893,1.623
			v3.3984H275.3084z"/>
		<path class="st5" d="M286.0428,60.0285c-0.3906,0.332-0.7666,0.5664-1.1279,0.7031s-0.749,0.2051-1.1631,0.2051
			c-0.6836,0-1.209-0.167-1.5762-0.501s-0.5508-0.7607-0.5508-1.2803c0-0.3047,0.0693-0.583,0.208-0.835
			s0.3203-0.4541,0.5449-0.6064s0.4775-0.2676,0.7588-0.3457c0.207-0.0547,0.5195-0.1074,0.9375-0.1582
			c0.8516-0.1016,1.4785-0.2227,1.8809-0.3633c0.0039-0.1445,0.0059-0.2363,0.0059-0.2754c0-0.4297-0.0996-0.7324-0.2988-0.9082
			c-0.2695-0.2383-0.6699-0.3574-1.2012-0.3574c-0.4961,0-0.8623,0.0869-1.0986,0.2607s-0.4111,0.4814-0.5244,0.9229l-1.0313-0.1406
			c0.0938-0.4414,0.248-0.7979,0.4629-1.0693s0.5254-0.4805,0.9316-0.627s0.877-0.2197,1.4121-0.2197
			c0.5313,0,0.9629,0.0625,1.2949,0.1875s0.5762,0.2822,0.7324,0.4717s0.2656,0.4287,0.3281,0.7178
			c0.0352,0.1797,0.0527,0.5039,0.0527,0.9727v1.4063c0,0.9805,0.0225,1.6006,0.0674,1.8604s0.1338,0.5088,0.2666,0.7471h-1.1016
			C286.1444,60.5774,286.0741,60.3215,286.0428,60.0285z M285.9549,57.6731c-0.3828,0.1563-0.957,0.2891-1.7227,0.3984
			c-0.4336,0.0625-0.7402,0.1328-0.9199,0.2109s-0.3184,0.1924-0.416,0.3428s-0.1465,0.3174-0.1465,0.501
			c0,0.2813,0.1064,0.5156,0.3193,0.7031s0.5244,0.2813,0.9346,0.2813c0.4063,0,0.7676-0.0889,1.084-0.2666
			s0.5488-0.4209,0.6973-0.7295c0.1133-0.2383,0.1699-0.5898,0.1699-1.0547V57.6731z M283.9041,53.8l0.7793-1.6406h1.3828
			L284.7772,53.8H283.9041z"/>
		<path class="st5" d="M288.6327,60.7961v-8.5898h1.0547v8.5898H288.6327z"/>
		<path class="st5" d="M291.328,53.4192v-1.2129h1.0547v1.2129H291.328z M291.328,60.7961v-6.2227h1.0547v6.2227H291.328z"/>
		<path class="st5" d="M293.5663,58.9387l1.043-0.1641c0.0586,0.418,0.2217,0.7383,0.4893,0.9609s0.6416,0.334,1.1221,0.334
			c0.4844,0,0.8438-0.0986,1.0781-0.2959s0.3516-0.4287,0.3516-0.6943c0-0.2383-0.1035-0.4258-0.3105-0.5625
			c-0.1445-0.0938-0.5039-0.2129-1.0781-0.3574c-0.7734-0.1953-1.3096-0.3643-1.6084-0.5068s-0.5254-0.3398-0.6797-0.5918
			s-0.2314-0.5303-0.2314-0.835c0-0.2773,0.0635-0.5342,0.1904-0.7705s0.2998-0.4326,0.5186-0.5889
			c0.1641-0.1211,0.3877-0.2236,0.6709-0.3076s0.5869-0.126,0.9111-0.126c0.4883,0,0.917,0.0703,1.2861,0.2109
			s0.6416,0.3311,0.8174,0.5713s0.2969,0.5615,0.3633,0.9639l-1.0313,0.1406c-0.0469-0.3203-0.1826-0.5703-0.4072-0.75
			s-0.542-0.2695-0.9521-0.2695c-0.4844,0-0.8301,0.0801-1.0371,0.2402s-0.3105,0.3477-0.3105,0.5625
			c0,0.1367,0.043,0.2598,0.1289,0.3691c0.0859,0.1133,0.2207,0.207,0.4043,0.2813c0.1055,0.0391,0.416,0.1289,0.9316,0.2695
			c0.7461,0.1992,1.2666,0.3623,1.5615,0.4893s0.5264,0.3115,0.6943,0.5537s0.252,0.543,0.252,0.9023
			c0,0.3516-0.1025,0.6826-0.3076,0.9932s-0.501,0.5508-0.8877,0.7207s-0.8242,0.2549-1.3125,0.2549
			c-0.8086,0-1.4248-0.168-1.8486-0.5039S293.6834,59.5989,293.5663,58.9387z"/>
		<path class="st5" d="M299.994,53.4192v-1.2129h1.0547v1.2129H299.994z M299.994,60.7961v-6.2227h1.0547v6.2227H299.994z"/>
		<path class="st5" d="M302.2323,58.9387l1.043-0.1641c0.0586,0.418,0.2217,0.7383,0.4893,0.9609s0.6416,0.334,1.1221,0.334
			c0.4844,0,0.8438-0.0986,1.0781-0.2959s0.3516-0.4287,0.3516-0.6943c0-0.2383-0.1035-0.4258-0.3105-0.5625
			c-0.1445-0.0938-0.5039-0.2129-1.0781-0.3574c-0.7734-0.1953-1.3096-0.3643-1.6084-0.5068s-0.5254-0.3398-0.6797-0.5918
			s-0.2314-0.5303-0.2314-0.835c0-0.2773,0.0635-0.5342,0.1904-0.7705s0.2998-0.4326,0.5186-0.5889
			c0.1641-0.1211,0.3877-0.2236,0.6709-0.3076s0.5869-0.126,0.9111-0.126c0.4883,0,0.917,0.0703,1.2861,0.2109
			s0.6416,0.3311,0.8174,0.5713s0.2969,0.5615,0.3633,0.9639l-1.0313,0.1406c-0.0469-0.3203-0.1826-0.5703-0.4072-0.75
			s-0.542-0.2695-0.9521-0.2695c-0.4844,0-0.8301,0.0801-1.0371,0.2402s-0.3105,0.3477-0.3105,0.5625
			c0,0.1367,0.043,0.2598,0.1289,0.3691c0.0859,0.1133,0.2207,0.207,0.4043,0.2813c0.1055,0.0391,0.416,0.1289,0.9316,0.2695
			c0.7461,0.1992,1.2666,0.3623,1.5615,0.4893s0.5264,0.3115,0.6943,0.5537s0.252,0.543,0.252,0.9023
			c0,0.3516-0.1025,0.6826-0.3076,0.9932s-0.501,0.5508-0.8877,0.7207s-0.8242,0.2549-1.3125,0.2549
			c-0.8086,0-1.4248-0.168-1.8486-0.5039S302.3495,59.5989,302.2323,58.9387z"/>
		<path class="st5" d="M316.0252,60.7961V60.011c-0.3945,0.6172-0.9746,0.9258-1.7402,0.9258c-0.4961,0-0.9521-0.1367-1.3682-0.4102
			s-0.7383-0.6553-0.9668-1.1455s-0.3428-1.0537-0.3428-1.6904c0-0.6211,0.1035-1.1846,0.3105-1.6904s0.5176-0.8936,0.9316-1.1631
			s0.877-0.4043,1.3887-0.4043c0.375,0,0.709,0.0791,1.002,0.2373s0.5313,0.3643,0.7148,0.6182v-3.082h1.0488v8.5898H316.0252z
			 M312.6913,57.6907c0,0.7969,0.168,1.3926,0.5039,1.7871s0.7324,0.5918,1.1895,0.5918c0.4609,0,0.8525-0.1885,1.1748-0.5654
			s0.4834-0.9521,0.4834-1.7256c0-0.8516-0.1641-1.4766-0.4922-1.875s-0.7324-0.5977-1.2129-0.5977
			c-0.4688,0-0.8604,0.1914-1.1748,0.5742S312.6913,56.8664,312.6913,57.6907z"/>
		<path class="st5" d="M322.9217,58.7922l1.0898,0.1348c-0.1719,0.6367-0.4902,1.1309-0.9551,1.4824s-1.0586,0.5273-1.7813,0.5273
			c-0.9102,0-1.6318-0.2803-2.165-0.8408s-0.7998-1.3467-0.7998-2.3584c0-1.0469,0.2695-1.8594,0.8086-2.4375
			s1.2383-0.8672,2.0977-0.8672c0.832,0,1.5117,0.2832,2.0391,0.8496s0.791,1.3633,0.791,2.3906
			c0,0.0625-0.002,0.1563-0.0059,0.2813h-4.6406c0.0391,0.6836,0.2324,1.207,0.5801,1.5703s0.7813,0.5449,1.3008,0.5449
			c0.3867,0,0.7168-0.1016,0.9902-0.3047S322.7616,59.2375,322.9217,58.7922z M319.4588,57.0871h3.4746
			c-0.0469-0.5234-0.1797-0.916-0.3984-1.1777c-0.3359-0.4063-0.7715-0.6094-1.3066-0.6094c-0.4844,0-0.8916,0.1621-1.2217,0.4863
			S319.494,56.5442,319.4588,57.0871z"/>
		<path class="st5" d="M328.6581,60.7961v-6.2227h0.9492v0.9434c0.2422-0.4414,0.4658-0.7324,0.6709-0.873
			s0.4307-0.2109,0.6768-0.2109c0.3555,0,0.7168,0.1133,1.084,0.3398l-0.3633,0.9785c-0.2578-0.1523-0.5156-0.2285-0.7734-0.2285
			c-0.2305,0-0.4375,0.0693-0.6211,0.208s-0.3145,0.3311-0.3926,0.5771c-0.1172,0.375-0.1758,0.7852-0.1758,1.2305v3.2578H328.6581z
			"/>
		<path class="st5" d="M332.6717,53.4192v-1.2129h1.0547v1.2129H332.6717z M332.6717,60.7961v-6.2227h1.0547v6.2227H332.6717z"/>
		<path class="st5" d="M339.5916,58.7922l1.0898,0.1348c-0.1719,0.6367-0.4902,1.1309-0.9551,1.4824s-1.0586,0.5273-1.7813,0.5273
			c-0.9102,0-1.6318-0.2803-2.165-0.8408s-0.7998-1.3467-0.7998-2.3584c0-1.0469,0.2695-1.8594,0.8086-2.4375
			s1.2383-0.8672,2.0977-0.8672c0.832,0,1.5117,0.2832,2.0391,0.8496s0.791,1.3633,0.791,2.3906
			c0,0.0625-0.002,0.1563-0.0059,0.2813h-4.6406c0.0391,0.6836,0.2324,1.207,0.5801,1.5703s0.7813,0.5449,1.3008,0.5449
			c0.3867,0,0.7168-0.1016,0.9902-0.3047S339.4315,59.2375,339.5916,58.7922z M336.1288,57.0871h3.4746
			c-0.0469-0.5234-0.1797-0.916-0.3984-1.1777c-0.3359-0.4063-0.7715-0.6094-1.3066-0.6094c-0.4844,0-0.8916,0.1621-1.2217,0.4863
			S336.1639,56.5442,336.1288,57.0871z"/>
		<path class="st5" d="M341.5838,58.9387l1.043-0.1641c0.0586,0.418,0.2217,0.7383,0.4893,0.9609s0.6416,0.334,1.1221,0.334
			c0.4844,0,0.8438-0.0986,1.0781-0.2959s0.3516-0.4287,0.3516-0.6943c0-0.2383-0.1035-0.4258-0.3105-0.5625
			c-0.1445-0.0938-0.5039-0.2129-1.0781-0.3574c-0.7734-0.1953-1.3096-0.3643-1.6084-0.5068s-0.5254-0.3398-0.6797-0.5918
			s-0.2314-0.5303-0.2314-0.835c0-0.2773,0.0635-0.5342,0.1904-0.7705s0.2998-0.4326,0.5186-0.5889
			c0.1641-0.1211,0.3877-0.2236,0.6709-0.3076s0.5869-0.126,0.9111-0.126c0.4883,0,0.917,0.0703,1.2861,0.2109
			s0.6416,0.3311,0.8174,0.5713s0.2969,0.5615,0.3633,0.9639l-1.0313,0.1406c-0.0469-0.3203-0.1826-0.5703-0.4072-0.75
			S344.537,55.3,344.1268,55.3c-0.4844,0-0.8301,0.0801-1.0371,0.2402s-0.3105,0.3477-0.3105,0.5625
			c0,0.1367,0.043,0.2598,0.1289,0.3691c0.0859,0.1133,0.2207,0.207,0.4043,0.2813c0.1055,0.0391,0.416,0.1289,0.9316,0.2695
			c0.7461,0.1992,1.2666,0.3623,1.5615,0.4893s0.5264,0.3115,0.6943,0.5537s0.252,0.543,0.252,0.9023
			c0,0.3516-0.1025,0.6826-0.3076,0.9932s-0.501,0.5508-0.8877,0.7207s-0.8242,0.2549-1.3125,0.2549
			c-0.8086,0-1.4248-0.168-1.8486-0.5039S341.701,59.5989,341.5838,58.9387z"/>
		<path class="st5" d="M347.8123,61.3118l1.0254,0.1523c0.043,0.3164,0.1621,0.5469,0.3574,0.6914
			c0.2617,0.1953,0.6191,0.293,1.0723,0.293c0.4883,0,0.8652-0.0977,1.1309-0.293s0.4453-0.4688,0.5391-0.8203
			c0.0547-0.2148,0.0801-0.666,0.0762-1.3535c-0.4609,0.543-1.0352,0.8145-1.7227,0.8145c-0.8555,0-1.5176-0.3086-1.9863-0.9258
			s-0.7031-1.3574-0.7031-2.2207c0-0.5938,0.1074-1.1416,0.3223-1.6436s0.5264-0.8896,0.9346-1.1631s0.8877-0.4102,1.4385-0.4102
			c0.7344,0,1.3398,0.2969,1.8164,0.8906v-0.75h0.9727v5.3789c0,0.9688-0.0986,1.6553-0.2959,2.0596s-0.5098,0.7236-0.9375,0.958
			s-0.9541,0.3516-1.5791,0.3516c-0.7422,0-1.3418-0.167-1.7988-0.501S347.7967,61.9836,347.8123,61.3118z M348.6854,57.5735
			c0,0.8164,0.1621,1.4121,0.4863,1.7871s0.7305,0.5625,1.2188,0.5625c0.4844,0,0.8906-0.1865,1.2188-0.5596
			s0.4922-0.958,0.4922-1.7549c0-0.7617-0.1689-1.3359-0.5068-1.7227s-0.7451-0.5801-1.2217-0.5801
			c-0.4688,0-0.8672,0.1904-1.1953,0.5713S348.6854,56.8235,348.6854,57.5735z"/>
		<path class="st5" d="M354.287,57.6848c0-1.1523,0.3203-2.0059,0.9609-2.5605c0.5352-0.4609,1.1875-0.6914,1.957-0.6914
			c0.8555,0,1.5547,0.2803,2.0977,0.8408s0.8145,1.335,0.8145,2.3232c0,0.8008-0.1201,1.4307-0.3604,1.8896
			s-0.5898,0.8154-1.0488,1.0693s-0.96,0.3809-1.5029,0.3809c-0.8711,0-1.5752-0.2793-2.1123-0.8379
			S354.287,58.7356,354.287,57.6848z M355.3709,57.6848c0,0.7969,0.1738,1.3936,0.5215,1.79s0.7852,0.5947,1.3125,0.5947
			c0.5234,0,0.959-0.1992,1.3066-0.5977s0.5215-1.0059,0.5215-1.8223c0-0.7695-0.1748-1.3525-0.5244-1.749
			s-0.7842-0.5947-1.3037-0.5947c-0.5273,0-0.9648,0.1973-1.3125,0.5918S355.3709,56.8879,355.3709,57.6848z"/>
		<path class="st5" d="M360.9315,58.9387l1.043-0.1641c0.0586,0.418,0.2217,0.7383,0.4893,0.9609s0.6416,0.334,1.1221,0.334
			c0.4844,0,0.8438-0.0986,1.0781-0.2959s0.3516-0.4287,0.3516-0.6943c0-0.2383-0.1035-0.4258-0.3105-0.5625
			c-0.1445-0.0938-0.5039-0.2129-1.0781-0.3574c-0.7734-0.1953-1.3096-0.3643-1.6084-0.5068s-0.5254-0.3398-0.6797-0.5918
			s-0.2314-0.5303-0.2314-0.835c0-0.2773,0.0635-0.5342,0.1904-0.7705s0.2998-0.4326,0.5186-0.5889
			c0.1641-0.1211,0.3877-0.2236,0.6709-0.3076s0.5869-0.126,0.9111-0.126c0.4883,0,0.917,0.0703,1.2861,0.2109
			s0.6416,0.3311,0.8174,0.5713s0.2969,0.5615,0.3633,0.9639l-1.0313,0.1406c-0.0469-0.3203-0.1826-0.5703-0.4072-0.75
			s-0.542-0.2695-0.9521-0.2695c-0.4844,0-0.8301,0.0801-1.0371,0.2402s-0.3105,0.3477-0.3105,0.5625
			c0,0.1367,0.043,0.2598,0.1289,0.3691c0.0859,0.1133,0.2207,0.207,0.4043,0.2813c0.1055,0.0391,0.416,0.1289,0.9316,0.2695
			c0.7461,0.1992,1.2666,0.3623,1.5615,0.4893s0.5264,0.3115,0.6943,0.5537s0.252,0.543,0.252,0.9023
			c0,0.3516-0.1025,0.6826-0.3076,0.9932s-0.501,0.5508-0.8877,0.7207s-0.8242,0.2549-1.3125,0.2549
			c-0.8086,0-1.4248-0.168-1.8486-0.5039S361.0487,59.5989,360.9315,58.9387z"/>
	</g>
</g>
<g>
	<g>
		<rect x="526" y="125" class="st4" width="135" height="61"/>
		<g>
			<path class="st5" d="M560.7654,139.5393v-7.874h2.3799l1.4287,5.3711l1.4121-5.3711h2.3848v7.874h-1.4766v-6.1982l-1.5635,6.1982
				h-1.5303l-1.5576-6.1982v6.1982H560.7654z"/>
			<path class="st5" d="M569.6277,135.6506c0-0.8018,0.1201-1.4756,0.3604-2.0195c0.1787-0.4014,0.4229-0.7607,0.7334-1.0801
				c0.3096-0.3184,0.6484-0.5547,1.0176-0.709c0.4902-0.207,1.0557-0.3105,1.6973-0.3105c1.1602,0,2.0879,0.3594,2.7852,1.0791
				c0.6963,0.7197,1.0439,1.7207,1.0439,3.0029c0,1.2705-0.3457,2.2656-1.0361,2.9834c-0.6914,0.7178-1.6152,1.0771-2.7715,1.0771
				c-1.1709,0-2.1025-0.3574-2.793-1.0723C569.9734,137.8879,569.6277,136.9035,569.6277,135.6506z M571.2664,135.5969
				c0,0.8916,0.2061,1.5674,0.6172,2.0273c0.4121,0.46,0.9346,0.6904,1.5684,0.6904s1.1543-0.2285,1.5605-0.6846
				c0.4063-0.457,0.6094-1.1416,0.6094-2.0547c0-0.9023-0.1973-1.5752-0.5928-2.0195c-0.3965-0.4443-0.9219-0.666-1.5771-0.666
				s-1.1836,0.2246-1.584,0.6738C571.4666,134.0129,571.2664,134.6907,571.2664,135.5969z"/>
			<path class="st5" d="M578.5008,131.6653h2.9063c0.6553,0,1.1543,0.0498,1.498,0.1504c0.4619,0.1357,0.8574,0.3779,1.1875,0.7256
				c0.3291,0.3467,0.5801,0.7725,0.752,1.2754s0.2578,1.123,0.2578,1.8613c0,0.6475-0.0811,1.2061-0.2422,1.6758
				c-0.1963,0.5723-0.4775,1.0361-0.8428,1.3906c-0.2764,0.2686-0.6484,0.4785-1.1172,0.6289
				c-0.3516,0.1104-0.8203,0.166-1.4072,0.166h-2.9922V131.6653z M580.0906,132.9973v5.2158h1.1875
				c0.4434,0,0.7646-0.0254,0.9609-0.0762c0.2578-0.0645,0.4717-0.1729,0.6416-0.3271c0.1709-0.1543,0.3096-0.4072,0.417-0.7598
				s0.1611-0.834,0.1611-1.4424s-0.0537-1.0762-0.1611-1.4023c-0.1074-0.3252-0.2578-0.5801-0.4512-0.7617
				c-0.1934-0.1836-0.4385-0.3066-0.7363-0.3711c-0.2217-0.0498-0.6572-0.0752-1.3047-0.0752H580.0906z"/>
			<path class="st5" d="M586.45,139.5393v-7.874h5.8389v1.332h-4.249v1.7451h3.9531v1.3271h-3.9531v2.1436h4.3994v1.3262H586.45z"/>
			<path class="st5" d="M593.8299,139.5393v-7.8096h1.5898v6.4834h3.9531v1.3262H593.8299z"/>
			<path class="st5" d="M607.6072,139.5393h-1.7295l-0.6875-1.7891h-3.1475l-0.6504,1.7891h-1.6865l3.0674-7.874h1.6807
				L607.6072,139.5393z M604.6795,136.4241l-1.085-2.9219l-1.0635,2.9219H604.6795z"/>
			<path class="st5" d="M608.4451,131.6653h2.9053c0.6553,0,1.1553,0.0498,1.499,0.1504c0.4619,0.1357,0.8574,0.3779,1.1865,0.7256
				c0.3301,0.3467,0.5801,0.7725,0.752,1.2754s0.2578,1.123,0.2578,1.8613c0,0.6475-0.0801,1.2061-0.2412,1.6758
				c-0.1973,0.5723-0.4785,1.0361-0.8438,1.3906c-0.2754,0.2686-0.6475,0.4785-1.1172,0.6289
				c-0.3506,0.1104-0.8193,0.166-1.4072,0.166h-2.9912V131.6653z M610.035,132.9973v5.2158h1.1865
				c0.4443,0,0.7646-0.0254,0.9619-0.0762c0.2578-0.0645,0.4717-0.1729,0.6416-0.3271s0.3086-0.4072,0.416-0.7598
				s0.1611-0.834,0.1611-1.4424s-0.0537-1.0762-0.1611-1.4023c-0.1074-0.3252-0.2578-0.5801-0.4512-0.7617
				c-0.1934-0.1836-0.4385-0.3066-0.7354-0.3711c-0.2227-0.0498-0.6572-0.0752-1.3057-0.0752H610.035z"/>
			<path class="st5" d="M616.0721,135.6506c0-0.8018,0.1201-1.4756,0.3594-2.0195c0.1797-0.4014,0.4238-0.7607,0.7334-1.0801
				c0.3096-0.3184,0.6494-0.5547,1.0176-0.709c0.4912-0.207,1.0566-0.3105,1.6973-0.3105c1.1602,0,2.0889,0.3594,2.7852,1.0791
				s1.0449,1.7207,1.0449,3.0029c0,1.2705-0.3457,2.2656-1.0371,2.9834c-0.6904,0.7178-1.6143,1.0771-2.7715,1.0771
				c-1.1709,0-2.1016-0.3574-2.793-1.0723C616.4178,137.8879,616.0721,136.9035,616.0721,135.6506z M617.7098,135.5969
				c0,0.8916,0.2061,1.5674,0.6182,2.0273c0.4111,0.46,0.9346,0.6904,1.5684,0.6904s1.1533-0.2285,1.5596-0.6846
				c0.4072-0.457,0.6104-1.1416,0.6104-2.0547c0-0.9023-0.1982-1.5752-0.5938-2.0195s-0.9209-0.666-1.5762-0.666
				s-1.1836,0.2246-1.585,0.6738C617.9109,134.0129,617.7098,134.6907,617.7098,135.5969z"/>
		</g>
	</g>
	<rect x="530" y="146" class="st6" width="125" height="33"/>
	<g>
		<path class="st5" d="M570.8455,157.7961l3.2988-8.5898h1.2246l3.5156,8.5898h-1.2949l-1.002-2.6016h-3.5918l-0.9434,2.6016
			H570.8455z M573.324,154.2688h2.9121l-0.8965-2.3789c-0.2734-0.7227-0.4766-1.3164-0.6094-1.7813
			c-0.1094,0.5508-0.2637,1.0977-0.4629,1.6406L573.324,154.2688z"/>
		<path class="st5" d="M579.658,157.7961v-6.2227h0.9492v0.8848c0.457-0.6836,1.1172-1.0254,1.9805-1.0254
			c0.375,0,0.7197,0.0674,1.0342,0.2021s0.5498,0.3115,0.7061,0.5303s0.2656,0.4785,0.3281,0.7793
			c0.0391,0.1953,0.0586,0.5371,0.0586,1.0254v3.8262H583.66v-3.7852c0-0.4297-0.041-0.751-0.123-0.9639
			s-0.2275-0.3828-0.4365-0.5098s-0.4541-0.1904-0.7354-0.1904c-0.4492,0-0.8369,0.1426-1.1631,0.4277s-0.4893,0.8262-0.4893,1.623
			v3.3984H579.658z"/>
		<path class="st5" d="M590.3924,157.0285c-0.3906,0.332-0.7666,0.5664-1.1279,0.7031s-0.749,0.2051-1.1631,0.2051
			c-0.6836,0-1.209-0.167-1.5762-0.501s-0.5508-0.7607-0.5508-1.2803c0-0.3047,0.0693-0.583,0.208-0.835
			s0.3203-0.4541,0.5449-0.6064s0.4775-0.2676,0.7588-0.3457c0.207-0.0547,0.5195-0.1074,0.9375-0.1582
			c0.8516-0.1016,1.4785-0.2227,1.8809-0.3633c0.0039-0.1445,0.0059-0.2363,0.0059-0.2754c0-0.4297-0.0996-0.7324-0.2988-0.9082
			c-0.2695-0.2383-0.6699-0.3574-1.2012-0.3574c-0.4961,0-0.8623,0.0869-1.0986,0.2607s-0.4111,0.4814-0.5244,0.9229l-1.0313-0.1406
			c0.0938-0.4414,0.248-0.7979,0.4629-1.0693s0.5254-0.4805,0.9316-0.627s0.877-0.2197,1.4121-0.2197
			c0.5313,0,0.9629,0.0625,1.2949,0.1875s0.5762,0.2822,0.7324,0.4717s0.2656,0.4287,0.3281,0.7178
			c0.0352,0.1797,0.0527,0.5039,0.0527,0.9727v1.4063c0,0.9805,0.0225,1.6006,0.0674,1.8604s0.1338,0.5088,0.2666,0.7471h-1.1016
			C590.494,157.5774,590.4236,157.3215,590.3924,157.0285z M590.3045,154.6731c-0.3828,0.1563-0.957,0.2891-1.7227,0.3984
			c-0.4336,0.0625-0.7402,0.1328-0.9199,0.2109s-0.3184,0.1924-0.416,0.3428s-0.1465,0.3174-0.1465,0.501
			c0,0.2813,0.1064,0.5156,0.3193,0.7031s0.5244,0.2813,0.9346,0.2813c0.4063,0,0.7676-0.0889,1.084-0.2666
			s0.5488-0.4209,0.6973-0.7295c0.1133-0.2383,0.1699-0.5898,0.1699-1.0547V154.6731z M588.2537,150.8l0.7793-1.6406h1.3828
			l-1.2891,1.6406H588.2537z"/>
		<path class="st5" d="M592.9822,157.7961v-8.5898h1.0547v8.5898H592.9822z"/>
		<path class="st5" d="M595.6776,150.4192v-1.2129h1.0547v1.2129H595.6776z M595.6776,157.7961v-6.2227h1.0547v6.2227H595.6776z"/>
		<path class="st5" d="M597.9158,155.9387l1.043-0.1641c0.0586,0.418,0.2217,0.7383,0.4893,0.9609s0.6416,0.334,1.1221,0.334
			c0.4844,0,0.8438-0.0986,1.0781-0.2959s0.3516-0.4287,0.3516-0.6943c0-0.2383-0.1035-0.4258-0.3105-0.5625
			c-0.1445-0.0938-0.5039-0.2129-1.0781-0.3574c-0.7734-0.1953-1.3096-0.3643-1.6084-0.5068s-0.5254-0.3398-0.6797-0.5918
			s-0.2314-0.5303-0.2314-0.835c0-0.2773,0.0635-0.5342,0.1904-0.7705s0.2998-0.4326,0.5186-0.5889
			c0.1641-0.1211,0.3877-0.2236,0.6709-0.3076s0.5869-0.126,0.9111-0.126c0.4883,0,0.917,0.0703,1.2861,0.2109
			s0.6416,0.3311,0.8174,0.5713s0.2969,0.5615,0.3633,0.9639l-1.0313,0.1406c-0.0469-0.3203-0.1826-0.5703-0.4072-0.75
			s-0.542-0.2695-0.9521-0.2695c-0.4844,0-0.8301,0.0801-1.0371,0.2402s-0.3105,0.3477-0.3105,0.5625
			c0,0.1367,0.043,0.2598,0.1289,0.3691c0.0859,0.1133,0.2207,0.207,0.4043,0.2813c0.1055,0.0391,0.416,0.1289,0.9316,0.2695
			c0.7461,0.1992,1.2666,0.3623,1.5615,0.4893s0.5264,0.3115,0.6943,0.5537s0.252,0.543,0.252,0.9023
			c0,0.3516-0.1025,0.6826-0.3076,0.9932s-0.501,0.5508-0.8877,0.7207s-0.8242,0.2549-1.3125,0.2549
			c-0.8086,0-1.4248-0.168-1.8486-0.5039S598.033,156.5989,597.9158,155.9387z"/>
		<path class="st5" d="M604.3436,150.4192v-1.2129h1.0547v1.2129H604.3436z M604.3436,157.7961v-6.2227h1.0547v6.2227H604.3436z"/>
		<path class="st5" d="M606.5818,155.9387l1.043-0.1641c0.0586,0.418,0.2217,0.7383,0.4893,0.9609s0.6416,0.334,1.1221,0.334
			c0.4844,0,0.8438-0.0986,1.0781-0.2959s0.3516-0.4287,0.3516-0.6943c0-0.2383-0.1035-0.4258-0.3105-0.5625
			c-0.1445-0.0938-0.5039-0.2129-1.0781-0.3574c-0.7734-0.1953-1.3096-0.3643-1.6084-0.5068s-0.5254-0.3398-0.6797-0.5918
			s-0.2314-0.5303-0.2314-0.835c0-0.2773,0.0635-0.5342,0.1904-0.7705s0.2998-0.4326,0.5186-0.5889
			c0.1641-0.1211,0.3877-0.2236,0.6709-0.3076s0.5869-0.126,0.9111-0.126c0.4883,0,0.917,0.0703,1.2861,0.2109
			s0.6416,0.3311,0.8174,0.5713s0.2969,0.5615,0.3633,0.9639l-1.0313,0.1406c-0.0469-0.3203-0.1826-0.5703-0.4072-0.75
			s-0.542-0.2695-0.9521-0.2695c-0.4844,0-0.8301,0.0801-1.0371,0.2402s-0.3105,0.3477-0.3105,0.5625
			c0,0.1367,0.043,0.2598,0.1289,0.3691c0.0859,0.1133,0.2207,0.207,0.4043,0.2813c0.1055,0.0391,0.416,0.1289,0.9316,0.2695
			c0.7461,0.1992,1.2666,0.3623,1.5615,0.4893s0.5264,0.3115,0.6943,0.5537s0.252,0.543,0.252,0.9023
			c0,0.3516-0.1025,0.6826-0.3076,0.9932s-0.501,0.5508-0.8877,0.7207s-0.8242,0.2549-1.3125,0.2549
			c-0.8086,0-1.4248-0.168-1.8486-0.5039S606.699,156.5989,606.5818,155.9387z"/>
		<path class="st5" d="M573.7869,171.7961v-8.5898h2.959c0.668,0,1.1777,0.041,1.5293,0.123
			c0.4922,0.1133,0.9121,0.3184,1.2598,0.6152c0.4531,0.3828,0.792,0.8721,1.0166,1.4678s0.3369,1.2764,0.3369,2.042
			c0,0.6523-0.0762,1.2305-0.2285,1.7344s-0.3477,0.9209-0.5859,1.251s-0.499,0.5898-0.7822,0.7793s-0.625,0.333-1.0254,0.4307
			s-0.8604,0.1465-1.3799,0.1465H573.7869z M574.9236,170.7825h1.834c0.5664,0,1.0107-0.0527,1.333-0.1582
			s0.5791-0.2539,0.7705-0.4453c0.2695-0.2695,0.4795-0.6318,0.6299-1.0869s0.2256-1.0068,0.2256-1.6553
			c0-0.8984-0.1475-1.5889-0.4424-2.0713s-0.6533-0.8057-1.0752-0.9697c-0.3047-0.1172-0.7949-0.1758-1.4707-0.1758h-1.8047
			V170.7825z"/>
		<path class="st5" d="M582.324,164.4192v-1.2129h1.0547v1.2129H582.324z M582.324,171.7961v-6.2227h1.0547v6.2227H582.324z"/>
		<path class="st5" d="M584.5623,169.9387l1.043-0.1641c0.0586,0.418,0.2217,0.7383,0.4893,0.9609s0.6416,0.334,1.1221,0.334
			c0.4844,0,0.8438-0.0986,1.0781-0.2959s0.3516-0.4287,0.3516-0.6943c0-0.2383-0.1035-0.4258-0.3105-0.5625
			c-0.1445-0.0938-0.5039-0.2129-1.0781-0.3574c-0.7734-0.1953-1.3096-0.3643-1.6084-0.5068s-0.5254-0.3398-0.6797-0.5918
			s-0.2314-0.5303-0.2314-0.835c0-0.2773,0.0635-0.5342,0.1904-0.7705s0.2998-0.4326,0.5186-0.5889
			c0.1641-0.1211,0.3877-0.2236,0.6709-0.3076s0.5869-0.126,0.9111-0.126c0.4883,0,0.917,0.0703,1.2861,0.2109
			s0.6416,0.3311,0.8174,0.5713s0.2969,0.5615,0.3633,0.9639l-1.0313,0.1406c-0.0469-0.3203-0.1826-0.5703-0.4072-0.75
			s-0.542-0.2695-0.9521-0.2695c-0.4844,0-0.8301,0.0801-1.0371,0.2402s-0.3105,0.3477-0.3105,0.5625
			c0,0.1367,0.043,0.2598,0.1289,0.3691c0.0859,0.1133,0.2207,0.207,0.4043,0.2813c0.1055,0.0391,0.416,0.1289,0.9316,0.2695
			c0.7461,0.1992,1.2666,0.3623,1.5615,0.4893s0.5264,0.3115,0.6943,0.5537s0.252,0.543,0.252,0.9023
			c0,0.3516-0.1025,0.6826-0.3076,0.9932s-0.501,0.5508-0.8877,0.7207s-0.8242,0.2549-1.3125,0.2549
			c-0.8086,0-1.4248-0.168-1.8486-0.5039S584.6795,170.5989,584.5623,169.9387z"/>
		<path class="st5" d="M595.244,169.7922l1.0898,0.1348c-0.1719,0.6367-0.4902,1.1309-0.9551,1.4824s-1.0586,0.5273-1.7813,0.5273
			c-0.9102,0-1.6318-0.2803-2.165-0.8408s-0.7998-1.3467-0.7998-2.3584c0-1.0469,0.2695-1.8594,0.8086-2.4375
			s1.2383-0.8672,2.0977-0.8672c0.832,0,1.5117,0.2832,2.0391,0.8496s0.791,1.3633,0.791,2.3906
			c0,0.0625-0.002,0.1563-0.0059,0.2813h-4.6406c0.0391,0.6836,0.2324,1.207,0.5801,1.5703s0.7813,0.5449,1.3008,0.5449
			c0.3867,0,0.7168-0.1016,0.9902-0.3047S595.0838,170.2375,595.244,169.7922z M591.7811,168.0871h3.4746
			c-0.0469-0.5234-0.1797-0.916-0.3984-1.1777c-0.3359-0.4063-0.7715-0.6094-1.3066-0.6094c-0.4844,0-0.8916,0.1621-1.2217,0.4863
			S591.8162,167.5442,591.7811,168.0871z"/>
		<path class="st5" d="M597.658,171.7961v-6.2227h0.9492v0.8848c0.457-0.6836,1.1172-1.0254,1.9805-1.0254
			c0.375,0,0.7197,0.0674,1.0342,0.2021s0.5498,0.3115,0.7061,0.5303s0.2656,0.4785,0.3281,0.7793
			c0.0391,0.1953,0.0586,0.5371,0.0586,1.0254v3.8262H601.66v-3.7852c0-0.4297-0.041-0.751-0.123-0.9639
			s-0.2275-0.3828-0.4365-0.5098s-0.4541-0.1904-0.7354-0.1904c-0.4492,0-0.8369,0.1426-1.1631,0.4277s-0.4893,0.8262-0.4893,1.623
			v3.3984H597.658z M598.4022,164.6535c-0.0039-0.4063,0.1074-0.7305,0.334-0.9727c0.2227-0.2422,0.5078-0.3633,0.8555-0.3633
			c0.2422,0,0.5723,0.1055,0.9902,0.3164c0.2305,0.1172,0.4141,0.1758,0.5508,0.1758c0.125,0,0.2207-0.0342,0.2871-0.1025
			s0.1133-0.2041,0.1406-0.4072h0.7617c-0.0117,0.4453-0.124,0.7793-0.3369,1.002s-0.4834,0.334-0.8115,0.334
			c-0.2461,0-0.5703-0.1094-0.9727-0.3281c-0.2617-0.1406-0.4531-0.2109-0.5742-0.2109c-0.1328,0-0.2402,0.0469-0.3223,0.1406
			c-0.0859,0.0938-0.127,0.2324-0.123,0.416H598.4022z"/>
		<path class="st5" d="M603.9393,168.6848c0-1.1523,0.3203-2.0059,0.9609-2.5605c0.5352-0.4609,1.1875-0.6914,1.957-0.6914
			c0.8555,0,1.5547,0.2803,2.0977,0.8408s0.8145,1.335,0.8145,2.3232c0,0.8008-0.1201,1.4307-0.3604,1.8896
			s-0.5898,0.8154-1.0488,1.0693s-0.96,0.3809-1.5029,0.3809c-0.8711,0-1.5752-0.2793-2.1123-0.8379
			S603.9393,169.7356,603.9393,168.6848z M605.0233,168.6848c0,0.7969,0.1738,1.3936,0.5215,1.79s0.7852,0.5947,1.3125,0.5947
			c0.5234,0,0.959-0.1992,1.3066-0.5977s0.5215-1.0059,0.5215-1.8223c0-0.7695-0.1748-1.3525-0.5244-1.749
			s-0.7842-0.5947-1.3037-0.5947c-0.5273,0-0.9648,0.1973-1.3125,0.5918S605.0233,167.8879,605.0233,168.6848z"/>
	</g>
</g>
<g>
	<rect y="81" class="st4" width="135" height="37"/>
	<g>
		<path class="st5" d="M27.9095,100.0412l1.5415,0.4883c-0.2363,0.8594-0.6294,1.498-1.1787,1.915
			c-0.5498,0.417-1.2471,0.626-2.0923,0.626c-1.0454,0-1.9048-0.3574-2.5781-1.0723c-0.6733-0.7139-1.0098-1.6904-1.0098-2.9297
			c0-1.3105,0.3384-2.3281,1.0151-3.0537c0.6768-0.7246,1.5664-1.0869,2.6694-1.0869c0.9634,0,1.7456,0.2842,2.3472,0.8535
			c0.3579,0.3369,0.6265,0.8203,0.8057,1.4502l-1.5737,0.376c-0.0933-0.4082-0.2876-0.7305-0.5825-0.9668
			c-0.2959-0.2363-0.6548-0.3545-1.0771-0.3545c-0.5835,0-1.0571,0.21-1.4209,0.6279c-0.3633,0.4199-0.5449,1.0977-0.5449,2.0361
			c0,0.9951,0.1792,1.7041,0.5371,2.127s0.8237,0.6338,1.3965,0.6338c0.4224,0,0.7861-0.1348,1.0903-0.4023
			C27.5584,101.0393,27.7772,100.6174,27.9095,100.0412z"/>
		<path class="st5" d="M30.493,99.0471c0-0.8018,0.1201-1.4756,0.3599-2.0195c0.1792-0.4014,0.4233-0.7607,0.7334-1.0801
			c0.3096-0.3184,0.6489-0.5547,1.0176-0.709c0.4907-0.207,1.0562-0.3105,1.6973-0.3105c1.1602,0,2.0884,0.3594,2.7852,1.0791
			c0.6963,0.7197,1.0444,1.7207,1.0444,3.0029c0,1.2705-0.3457,2.2656-1.0366,2.9834s-1.6147,1.0771-2.7715,1.0771
			c-1.1709,0-2.1021-0.3574-2.793-1.0723C30.8387,101.2844,30.493,100.3,30.493,99.0471z M32.1312,98.9934
			c0,0.8916,0.2061,1.5674,0.6177,2.0273s0.9346,0.6904,1.5684,0.6904s1.1538-0.2285,1.5601-0.6846
			c0.4067-0.457,0.6099-1.1416,0.6099-2.0547c0-0.9023-0.1978-1.5752-0.5933-2.0195c-0.396-0.4443-0.9214-0.666-1.5767-0.666
			s-1.1836,0.2246-1.5845,0.6738S32.1312,98.0871,32.1312,98.9934z"/>
		<path class="st5" d="M39.3499,102.9358v-7.874h2.3794l1.4287,5.3711l1.4126-5.3711h2.3848v7.874h-1.4771v-6.1982l-1.563,6.1982
			h-1.5308l-1.5576-6.1982v6.1982H39.3499z"/>
		<path class="st5" d="M48.5238,95.0618h1.5898v4.2646c0,0.6768,0.0195,1.1152,0.0591,1.3164
			c0.0679,0.3223,0.23,0.5801,0.4863,0.7754c0.2559,0.1953,0.606,0.293,1.0498,0.293c0.4512,0,0.7915-0.0918,1.0205-0.2764
			s0.3672-0.4111,0.4136-0.6797s0.0698-0.7139,0.0698-1.3369v-4.3564h1.5898v4.1357c0,0.9453-0.043,1.6133-0.1289,2.0039
			c-0.0859,0.3896-0.2441,0.7188-0.4756,0.9883c-0.2305,0.2676-0.5396,0.4824-0.9263,0.6416s-0.8916,0.2393-1.5146,0.2393
			c-0.752,0-1.3223-0.0869-1.7104-0.2607c-0.3887-0.1738-0.6958-0.3994-0.9214-0.6768s-0.374-0.5684-0.4458-0.873
			c-0.104-0.4512-0.1558-1.1172-0.1558-1.998V95.0618z"/>
		<path class="st5" d="M56.4945,102.9358v-7.874h1.5469l3.2227,5.2588v-5.2588h1.4771v7.874h-1.5952l-3.1743-5.1348v5.1348H56.4945z
			"/>
		<path class="st5" d="M64.3739,102.9358v-7.874h1.5898v7.874H64.3739z"/>
		<path class="st5" d="M72.5164,100.0412l1.5415,0.4883c-0.2363,0.8594-0.6294,1.498-1.1787,1.915
			c-0.5498,0.417-1.2471,0.626-2.0923,0.626c-1.0454,0-1.9048-0.3574-2.5781-1.0723c-0.6733-0.7139-1.0098-1.6904-1.0098-2.9297
			c0-1.3105,0.3384-2.3281,1.0151-3.0537c0.6768-0.7246,1.5664-1.0869,2.6694-1.0869c0.9634,0,1.7456,0.2842,2.3472,0.8535
			c0.3579,0.3369,0.6265,0.8203,0.8057,1.4502l-1.5737,0.376c-0.0933-0.4082-0.2876-0.7305-0.5825-0.9668
			c-0.2959-0.2363-0.6548-0.3545-1.0771-0.3545c-0.5835,0-1.0571,0.21-1.4209,0.6279c-0.3633,0.4199-0.5449,1.0977-0.5449,2.0361
			c0,0.9951,0.1792,1.7041,0.5371,2.127s0.8237,0.6338,1.3965,0.6338c0.4224,0,0.7861-0.1348,1.0903-0.4023
			C72.1654,101.0393,72.3841,100.6174,72.5164,100.0412z"/>
		<path class="st5" d="M82.5228,102.9358h-1.7295l-0.6875-1.7891h-3.1475l-0.6499,1.7891h-1.6865l3.0669-7.874H79.37
			L82.5228,102.9358z M79.5956,99.8205l-1.085-2.9219l-1.0635,2.9219H79.5956z"/>
		<path class="st5" d="M88.4041,100.0412l1.5415,0.4883c-0.2363,0.8594-0.6294,1.498-1.1787,1.915
			c-0.5498,0.417-1.2471,0.626-2.0923,0.626c-1.0454,0-1.9048-0.3574-2.5781-1.0723c-0.6733-0.7139-1.0098-1.6904-1.0098-2.9297
			c0-1.3105,0.3384-2.3281,1.0151-3.0537c0.6768-0.7246,1.5664-1.0869,2.6694-1.0869c0.9634,0,1.7456,0.2842,2.3472,0.8535
			c0.3579,0.3369,0.6265,0.8203,0.8057,1.4502l-1.5737,0.376c-0.0933-0.4082-0.2876-0.7305-0.5825-0.9668
			c-0.2959-0.2363-0.6548-0.3545-1.0771-0.3545c-0.5835,0-1.0571,0.21-1.4209,0.6279c-0.3633,0.4199-0.5449,1.0977-0.5449,2.0361
			c0,0.9951,0.1792,1.7041,0.5371,2.127s0.8237,0.6338,1.3965,0.6338c0.4224,0,0.7861-0.1348,1.0903-0.4023
			C88.0531,101.0393,88.2718,100.6174,88.4041,100.0412z"/>
		<path class="st5" d="M91.2616,102.9358v-7.874h1.5898v7.874H91.2616z"/>
		<path class="st5" d="M94.0438,99.0471c0-0.8018,0.1201-1.4756,0.3599-2.0195c0.1792-0.4014,0.4233-0.7607,0.7334-1.0801
			c0.3096-0.3184,0.6489-0.5547,1.0176-0.709c0.4907-0.207,1.0562-0.3105,1.6973-0.3105c1.1602,0,2.0884,0.3594,2.7852,1.0791
			c0.6963,0.7197,1.0444,1.7207,1.0444,3.0029c0,1.2705-0.3457,2.2656-1.0366,2.9834s-1.6147,1.0771-2.7715,1.0771
			c-1.1709,0-2.1021-0.3574-2.793-1.0723C94.3895,101.2844,94.0438,100.3,94.0438,99.0471z M95.682,98.9934
			c0,0.8916,0.2061,1.5674,0.6177,2.0273s0.9346,0.6904,1.5684,0.6904s1.1538-0.2285,1.5601-0.6846
			c0.4067-0.457,0.6099-1.1416,0.6099-2.0547c0-0.9023-0.1978-1.5752-0.5933-2.0195c-0.396-0.4443-0.9214-0.666-1.5767-0.666
			s-1.1836,0.2246-1.5845,0.6738S95.682,98.0871,95.682,98.9934z M96.8851,94.6106l0.7412-1.6064h1.6919l-1.4771,1.6064H96.8851z"/>
		<path class="st5" d="M102.9383,102.9358v-7.874h1.5469l3.2227,5.2588v-5.2588h1.4771v7.874h-1.5952l-3.1743-5.1348v5.1348
			H102.9383z"/>
	</g>
</g>
<g>
	<g>
		<rect x="21" y="240" class="st4" width="135" height="64"/>
		<g>
			<path class="st5" d="M52.411,246.6653h2.9058c0.6553,0,1.1548,0.0498,1.4985,0.1504c0.4619,0.1357,0.8574,0.3779,1.187,0.7256
				c0.3296,0.3467,0.5801,0.7725,0.752,1.2754s0.2578,1.123,0.2578,1.8613c0,0.6475-0.0806,1.2061-0.2417,1.6758
				c-0.1968,0.5723-0.478,1.0361-0.8433,1.3906c-0.2759,0.2686-0.6479,0.4785-1.1172,0.6289
				c-0.3511,0.1104-0.8198,0.166-1.4072,0.166H52.411V246.6653z M54.0008,247.9973v5.2158h1.187
				c0.4438,0,0.7646-0.0254,0.9614-0.0762c0.2578-0.0645,0.4717-0.1729,0.6416-0.3271c0.1704-0.1543,0.3091-0.4072,0.4165-0.7598
				s0.1611-0.834,0.1611-1.4424s-0.0537-1.0762-0.1611-1.4023c-0.1074-0.3252-0.2578-0.5801-0.4512-0.7617
				c-0.1934-0.1836-0.4385-0.3066-0.7358-0.3711c-0.2222-0.0498-0.6572-0.0752-1.3052-0.0752H54.0008z"/>
			<path class="st5" d="M60.3602,254.5393v-7.874h5.8384v1.332H61.95v1.7451h3.9531v1.3271H61.95v2.1436h4.3989v1.3262H60.3602z"/>
			<path class="st5" d="M67.2943,251.9768l1.5469-0.1504c0.0933,0.5195,0.2822,0.9014,0.5664,1.1445
				c0.2852,0.2432,0.6689,0.3652,1.1523,0.3652c0.5122,0,0.8979-0.1084,1.1572-0.3252c0.2598-0.2168,0.3896-0.4697,0.3896-0.7598
				c0-0.1865-0.0547-0.3447-0.1641-0.4756c-0.1089-0.1309-0.2998-0.2441-0.5718-0.3408c-0.186-0.0645-0.6104-0.1787-1.2729-0.3438
				c-0.8521-0.2109-1.4502-0.4707-1.7939-0.7783c-0.4834-0.4336-0.7251-0.9619-0.7251-1.585c0-0.4014,0.1138-0.7764,0.3413-1.125
				c0.2271-0.3496,0.5547-0.6152,0.9824-0.7979c0.4282-0.1826,0.9448-0.2734,1.5498-0.2734c0.9883,0,1.7324,0.2158,2.2314,0.6494
				c0.5,0.4336,0.7622,1.0117,0.7871,1.7354l-1.5898,0.0693c-0.0679-0.4043-0.2139-0.6953-0.4375-0.873
				c-0.2241-0.1768-0.5596-0.2656-1.0073-0.2656c-0.4619,0-0.8237,0.0947-1.085,0.2842c-0.1685,0.1221-0.2524,0.2852-0.2524,0.4893
				c0,0.1865,0.0786,0.3457,0.2363,0.4775c0.2007,0.1689,0.6875,0.3438,1.4609,0.5273c0.7734,0.1816,1.3457,0.3711,1.7158,0.5664
				c0.3711,0.1953,0.6611,0.4619,0.8701,0.7998c0.21,0.3389,0.3145,0.7568,0.3145,1.2549c0,0.4512-0.1255,0.873-0.376,1.2676
				c-0.2505,0.3936-0.605,0.6865-1.0635,0.8779s-1.0293,0.2871-1.7134,0.2871c-0.9956,0-1.7598-0.2305-2.2935-0.6904
				S67.3983,252.8577,67.2943,251.9768z"/>
			<path class="st5" d="M75.034,254.5393v-7.874h2.5513c0.9668,0,1.5972,0.0391,1.8906,0.1182
				c0.4512,0.1182,0.8291,0.375,1.1333,0.7705s0.4565,0.9072,0.4565,1.5342c0,0.4824-0.0879,0.8896-0.2632,1.2188
				s-0.3984,0.5879-0.6685,0.7764c-0.2705,0.1875-0.5454,0.3125-0.8247,0.373c-0.3794,0.0752-0.9292,0.1123-1.6489,0.1123h-1.0366
				v2.9707H75.034z M76.6239,247.9973v2.2344h0.8701c0.6265,0,1.0454-0.041,1.2568-0.124c0.2114-0.082,0.377-0.2109,0.4966-0.3867
				c0.1201-0.1748,0.1802-0.3789,0.1802-0.6113c0-0.2871-0.084-0.5234-0.2524-0.709c-0.1685-0.1865-0.3813-0.3027-0.6392-0.3496
				c-0.1899-0.0361-0.5713-0.0537-1.144-0.0537H76.6239z"/>
			<path class="st5" d="M82.4139,254.5393v-7.8096h1.5898v6.4834h3.9531v1.3262H82.4139z"/>
			<path class="st5" d="M89.0418,254.5393v-7.874h1.5898v7.874H89.0418z"/>
			<path class="st5" d="M92.1463,254.5393v-7.874h5.8384v1.332h-4.2485v1.7451h3.9531v1.3271h-3.9531v2.1436h4.3989v1.3262H92.1463z
				"/>
			<path class="st5" d="M103.1463,251.6448v-1.3271h3.4268v3.1367c-0.333,0.3223-0.8154,0.6064-1.4478,0.8516
				c-0.6318,0.2451-1.272,0.3682-1.9199,0.3682c-0.8237,0-1.5415-0.1729-2.1538-0.5186s-1.0723-0.8398-1.3804-1.4824
				s-0.4619-1.3418-0.4619-2.0977c0-0.8203,0.1719-1.5488,0.5156-2.1865c0.3438-0.6367,0.8467-1.126,1.5093-1.4658
				c0.5049-0.2617,1.1333-0.3916,1.8853-0.3916c0.9775,0,1.7412,0.2041,2.291,0.6143c0.5493,0.4102,0.9028,0.9766,1.0605,1.7002
				l-1.5791,0.2949c-0.1108-0.3867-0.3193-0.6914-0.626-0.915c-0.3057-0.2236-0.688-0.3359-1.1465-0.3359
				c-0.6948,0-1.2471,0.2197-1.6572,0.6611c-0.4097,0.4395-0.6147,1.0938-0.6147,1.96c0,0.9346,0.2075,1.6357,0.623,2.1025
				c0.4155,0.4678,0.9595,0.7012,1.6328,0.7012c0.333,0,0.667-0.0654,1.0015-0.1963c0.335-0.1309,0.6226-0.2891,0.8623-0.4756
				v-0.998H103.1463z"/>
			<path class="st5" d="M108.0287,246.6653h1.5898v4.2646c0,0.6768,0.0195,1.1152,0.0591,1.3164
				c0.0679,0.3223,0.23,0.5801,0.4863,0.7754c0.2559,0.1953,0.606,0.293,1.0498,0.293c0.4512,0,0.7915-0.0918,1.0205-0.2764
				s0.3672-0.4111,0.4136-0.6797s0.0698-0.7139,0.0698-1.3369v-4.3564h1.5898v4.1357c0,0.9453-0.043,1.6133-0.1289,2.0039
				c-0.0859,0.3896-0.2441,0.7188-0.4756,0.9883c-0.2305,0.2676-0.5396,0.4824-0.9263,0.6416s-0.8916,0.2393-1.5146,0.2393
				c-0.752,0-1.3223-0.0869-1.7104-0.2607c-0.3887-0.1738-0.6958-0.3994-0.9214-0.6768s-0.374-0.5684-0.4458-0.873
				c-0.104-0.4512-0.1558-1.1172-0.1558-1.998V246.6653z"/>
			<path class="st5" d="M115.9832,254.5393v-7.874h5.8384v1.332h-4.2485v1.7451h3.9531v1.3271h-3.9531v2.1436h4.3989v1.3262
				H115.9832z"/>
		</g>
	</g>
	<rect x="25" y="261" class="st6" width="125" height="36"/>
	<g>
		<path class="st5" d="M66.4725,272.7961v-8.5898h6.2109v1.0137h-5.0742v2.6309h4.752v1.0078h-4.752v2.9238h5.2734v1.0137H66.4725z"
			/>
		<path class="st5" d="M74.3182,272.7961v-6.2227h0.9492v0.8848c0.457-0.6836,1.1172-1.0254,1.9805-1.0254
			c0.375,0,0.7197,0.0674,1.0342,0.2021s0.5498,0.3115,0.7061,0.5303s0.2656,0.4785,0.3281,0.7793
			c0.0391,0.1953,0.0586,0.5371,0.0586,1.0254v3.8262h-1.0547v-3.7852c0-0.4297-0.041-0.751-0.123-0.9639
			s-0.2275-0.3828-0.4365-0.5098s-0.4541-0.1904-0.7354-0.1904c-0.4492,0-0.8369,0.1426-1.1631,0.4277s-0.4893,0.8262-0.4893,1.623
			v3.3984H74.3182z"/>
		<path class="st5" d="M83.2948,271.8528l0.1523,0.9316c-0.2969,0.0625-0.5625,0.0938-0.7969,0.0938
			c-0.3828,0-0.6797-0.0605-0.8906-0.1816s-0.3594-0.2803-0.4453-0.4775s-0.1289-0.6123-0.1289-1.2451v-3.5801H80.412v-0.8203
			h0.7734v-1.541l1.0488-0.6328v2.1738h1.0605v0.8203h-1.0605v3.6387c0,0.3008,0.0186,0.4941,0.0557,0.5801
			s0.0977,0.1543,0.1816,0.2051s0.2041,0.0762,0.3604,0.0762C82.9491,271.8938,83.1034,271.8801,83.2948,271.8528z"/>
		<path class="st5" d="M84.3143,272.7961v-6.2227h0.9492v0.9434c0.2422-0.4414,0.4658-0.7324,0.6709-0.873
			s0.4307-0.2109,0.6768-0.2109c0.3555,0,0.7168,0.1133,1.084,0.3398l-0.3633,0.9785c-0.2578-0.1523-0.5156-0.2285-0.7734-0.2285
			c-0.2305,0-0.4375,0.0693-0.6211,0.208s-0.3145,0.3311-0.3926,0.5771c-0.1172,0.375-0.1758,0.7852-0.1758,1.2305v3.2578H84.3143z"
			/>
		<path class="st5" d="M92.5819,270.7922l1.0898,0.1348c-0.1719,0.6367-0.4902,1.1309-0.9551,1.4824s-1.0586,0.5273-1.7813,0.5273
			c-0.9102,0-1.6318-0.2803-2.165-0.8408s-0.7998-1.3467-0.7998-2.3584c0-1.0469,0.2695-1.8594,0.8086-2.4375
			s1.2383-0.8672,2.0977-0.8672c0.832,0,1.5117,0.2832,2.0391,0.8496s0.791,1.3633,0.791,2.3906
			c0,0.0625-0.002,0.1563-0.0059,0.2813h-4.6406c0.0391,0.6836,0.2324,1.207,0.5801,1.5703s0.7813,0.5449,1.3008,0.5449
			c0.3867,0,0.7168-0.1016,0.9902-0.3047S92.4217,271.2375,92.5819,270.7922z M89.119,269.0871h3.4746
			c-0.0469-0.5234-0.1797-0.916-0.3984-1.1777c-0.3359-0.4063-0.7715-0.6094-1.3066-0.6094c-0.4844,0-0.8916,0.1621-1.2217,0.4863
			S89.1541,268.5442,89.119,269.0871z"/>
		<path class="st5" d="M94.8026,273.3117l1.0254,0.1523c0.043,0.3164,0.1621,0.5469,0.3574,0.6914
			c0.2617,0.1953,0.6191,0.293,1.0723,0.293c0.4883,0,0.8652-0.0977,1.1309-0.293s0.4453-0.4688,0.5391-0.8203
			c0.0547-0.2148,0.0801-0.666,0.0762-1.3535c-0.4609,0.543-1.0352,0.8145-1.7227,0.8145c-0.8555,0-1.5176-0.3086-1.9863-0.9258
			s-0.7031-1.3574-0.7031-2.2207c0-0.5938,0.1074-1.1416,0.3223-1.6436s0.5264-0.8896,0.9346-1.1631s0.8877-0.4102,1.4385-0.4102
			c0.7344,0,1.3398,0.2969,1.8164,0.8906v-0.75h0.9727v5.3789c0,0.9688-0.0986,1.6553-0.2959,2.0596s-0.5098,0.7236-0.9375,0.958
			s-0.9541,0.3516-1.5791,0.3516c-0.7422,0-1.3418-0.167-1.7988-0.501S94.787,273.9836,94.8026,273.3117z M95.6756,269.5735
			c0,0.8164,0.1621,1.4121,0.4863,1.7871s0.7305,0.5625,1.2188,0.5625c0.4844,0,0.8906-0.1865,1.2188-0.5596
			s0.4922-0.958,0.4922-1.7549c0-0.7617-0.1689-1.3359-0.5068-1.7227s-0.7451-0.5801-1.2217-0.5801
			c-0.4688,0-0.8672,0.1904-1.1953,0.5713S95.6756,268.8235,95.6756,269.5735z"/>
		<path class="st5" d="M105.7303,272.0285c-0.3906,0.332-0.7666,0.5664-1.1279,0.7031s-0.749,0.2051-1.1631,0.2051
			c-0.6836,0-1.209-0.167-1.5762-0.501s-0.5508-0.7607-0.5508-1.2803c0-0.3047,0.0693-0.583,0.208-0.835
			s0.3203-0.4541,0.5449-0.6064s0.4775-0.2676,0.7588-0.3457c0.207-0.0547,0.5195-0.1074,0.9375-0.1582
			c0.8516-0.1016,1.4785-0.2227,1.8809-0.3633c0.0039-0.1445,0.0059-0.2363,0.0059-0.2754c0-0.4297-0.0996-0.7324-0.2988-0.9082
			c-0.2695-0.2383-0.6699-0.3574-1.2012-0.3574c-0.4961,0-0.8623,0.0869-1.0986,0.2607s-0.4111,0.4814-0.5244,0.9229l-1.0313-0.1406
			c0.0938-0.4414,0.248-0.7979,0.4629-1.0693s0.5254-0.4805,0.9316-0.627s0.877-0.2197,1.4121-0.2197
			c0.5313,0,0.9629,0.0625,1.2949,0.1875s0.5762,0.2822,0.7324,0.4717s0.2656,0.4287,0.3281,0.7178
			c0.0352,0.1797,0.0527,0.5039,0.0527,0.9727v1.4063c0,0.9805,0.0225,1.6006,0.0674,1.8604s0.1338,0.5088,0.2666,0.7471h-1.1016
			C105.8319,272.5774,105.7616,272.3215,105.7303,272.0285z M105.6424,269.6731c-0.3828,0.1563-0.957,0.2891-1.7227,0.3984
			c-0.4336,0.0625-0.7402,0.1328-0.9199,0.2109s-0.3184,0.1924-0.416,0.3428s-0.1465,0.3174-0.1465,0.501
			c0,0.2813,0.1064,0.5156,0.3193,0.7031s0.5244,0.2813,0.9346,0.2813c0.4063,0,0.7676-0.0889,1.084-0.2666
			s0.5488-0.4209,0.6973-0.7295c0.1133-0.2383,0.1699-0.5898,0.1699-1.0547V269.6731z"/>
		<path class="st5" d="M39.1239,286.7961v-8.5898h3.8086c0.7656,0,1.3477,0.0771,1.7461,0.2314s0.7168,0.4268,0.9551,0.8174
			s0.3574,0.8223,0.3574,1.2949c0,0.6094-0.1973,1.123-0.5918,1.541s-1.0039,0.6836-1.8281,0.7969
			c0.3008,0.1445,0.5293,0.2871,0.6855,0.4277c0.332,0.3047,0.6465,0.6855,0.9434,1.1426l1.4941,2.3379h-1.4297l-1.1367-1.7871
			c-0.332-0.5156-0.6055-0.9102-0.8203-1.1836s-0.4072-0.4648-0.5771-0.5742s-0.3428-0.1855-0.5186-0.2285
			c-0.1289-0.0273-0.3398-0.041-0.6328-0.041h-1.3184v3.8145H39.1239z M40.2606,281.9973h2.4434
			c0.5195,0,0.9258-0.0537,1.2188-0.1611s0.5156-0.2793,0.668-0.5156s0.2285-0.4932,0.2285-0.7705
			c0-0.4063-0.1475-0.7402-0.4424-1.002s-0.7607-0.3926-1.3975-0.3926h-2.7188V281.9973z"/>
		<path class="st5" d="M51.8973,284.7922l1.0898,0.1348c-0.1719,0.6367-0.4902,1.1309-0.9551,1.4824s-1.0586,0.5273-1.7813,0.5273
			c-0.9102,0-1.6318-0.2803-2.165-0.8408s-0.7998-1.3467-0.7998-2.3584c0-1.0469,0.2695-1.8594,0.8086-2.4375
			s1.2383-0.8672,2.0977-0.8672c0.832,0,1.5117,0.2832,2.0391,0.8496s0.791,1.3633,0.791,2.3906
			c0,0.0625-0.002,0.1563-0.0059,0.2813h-4.6406c0.0391,0.6836,0.2324,1.207,0.5801,1.5703s0.7813,0.5449,1.3008,0.5449
			c0.3867,0,0.7168-0.1016,0.9902-0.3047S51.7372,285.2375,51.8973,284.7922z M48.4344,283.0871h3.4746
			c-0.0469-0.5234-0.1797-0.916-0.3984-1.1777c-0.3359-0.4063-0.7715-0.6094-1.3066-0.6094c-0.4844,0-0.8916,0.1621-1.2217,0.4863
			S48.4696,282.5442,48.4344,283.0871z"/>
		<path class="st5" d="M56.6141,285.8528l0.1523,0.9316c-0.2969,0.0625-0.5625,0.0938-0.7969,0.0938
			c-0.3828,0-0.6797-0.0605-0.8906-0.1816s-0.3594-0.2803-0.4453-0.4775s-0.1289-0.6123-0.1289-1.2451v-3.5801h-0.7734v-0.8203
			h0.7734v-1.541l1.0488-0.6328v2.1738h1.0605v0.8203h-1.0605v3.6387c0,0.3008,0.0186,0.4941,0.0557,0.5801
			s0.0977,0.1543,0.1816,0.2051s0.2041,0.0762,0.3604,0.0762C56.2684,285.8938,56.4227,285.8801,56.6141,285.8528z"/>
		<path class="st5" d="M57.6336,286.7961v-6.2227h0.9492v0.9434c0.2422-0.4414,0.4658-0.7324,0.6709-0.873
			s0.4307-0.2109,0.6768-0.2109c0.3555,0,0.7168,0.1133,1.084,0.3398l-0.3633,0.9785c-0.2578-0.1523-0.5156-0.2285-0.7734-0.2285
			c-0.2305,0-0.4375,0.0693-0.6211,0.208s-0.3145,0.3311-0.3926,0.5771c-0.1172,0.375-0.1758,0.7852-0.1758,1.2305v3.2578H57.6336z"
			/>
		<path class="st5" d="M61.2489,283.6848c0-1.1523,0.3203-2.0059,0.9609-2.5605c0.5352-0.4609,1.1875-0.6914,1.957-0.6914
			c0.8555,0,1.5547,0.2803,2.0977,0.8408s0.8145,1.335,0.8145,2.3232c0,0.8008-0.1201,1.4307-0.3604,1.8896
			s-0.5898,0.8154-1.0488,1.0693s-0.96,0.3809-1.5029,0.3809c-0.8711,0-1.5752-0.2793-2.1123-0.8379
			S61.2489,284.7356,61.2489,283.6848z M62.3329,283.6848c0,0.7969,0.1738,1.3936,0.5215,1.79s0.7852,0.5947,1.3125,0.5947
			c0.5234,0,0.959-0.1992,1.3066-0.5977s0.5215-1.0059,0.5215-1.8223c0-0.7695-0.1748-1.3525-0.5244-1.749
			s-0.7842-0.5947-1.3037-0.5947c-0.5273,0-0.9648,0.1973-1.3125,0.5918S62.3329,282.8879,62.3329,283.6848z"/>
		<path class="st5" d="M72.3758,286.0285c-0.3906,0.332-0.7666,0.5664-1.1279,0.7031s-0.749,0.2051-1.1631,0.2051
			c-0.6836,0-1.209-0.167-1.5762-0.501s-0.5508-0.7607-0.5508-1.2803c0-0.3047,0.0693-0.583,0.208-0.835
			s0.3203-0.4541,0.5449-0.6064s0.4775-0.2676,0.7588-0.3457c0.207-0.0547,0.5195-0.1074,0.9375-0.1582
			c0.8516-0.1016,1.4785-0.2227,1.8809-0.3633c0.0039-0.1445,0.0059-0.2363,0.0059-0.2754c0-0.4297-0.0996-0.7324-0.2988-0.9082
			c-0.2695-0.2383-0.6699-0.3574-1.2012-0.3574c-0.4961,0-0.8623,0.0869-1.0986,0.2607s-0.4111,0.4814-0.5244,0.9229l-1.0313-0.1406
			c0.0938-0.4414,0.248-0.7979,0.4629-1.0693s0.5254-0.4805,0.9316-0.627s0.877-0.2197,1.4121-0.2197
			c0.5313,0,0.9629,0.0625,1.2949,0.1875s0.5762,0.2822,0.7324,0.4717s0.2656,0.4287,0.3281,0.7178
			c0.0352,0.1797,0.0527,0.5039,0.0527,0.9727v1.4063c0,0.9805,0.0225,1.6006,0.0674,1.8604s0.1338,0.5088,0.2666,0.7471h-1.1016
			C72.4774,286.5774,72.4071,286.3215,72.3758,286.0285z M72.2879,283.6731c-0.3828,0.1563-0.957,0.2891-1.7227,0.3984
			c-0.4336,0.0625-0.7402,0.1328-0.9199,0.2109s-0.3184,0.1924-0.416,0.3428s-0.1465,0.3174-0.1465,0.501
			c0,0.2813,0.1064,0.5156,0.3193,0.7031s0.5244,0.2813,0.9346,0.2813c0.4063,0,0.7676-0.0889,1.084-0.2666
			s0.5488-0.4209,0.6973-0.7295c0.1133-0.2383,0.1699-0.5898,0.1699-1.0547V283.6731z"/>
		<path class="st5" d="M74.9657,286.7961v-8.5898h1.0547v8.5898H74.9657z"/>
		<path class="st5" d="M77.661,279.4192v-1.2129h1.0547v1.2129H77.661z M77.661,286.7961v-6.2227h1.0547v6.2227H77.661z"/>
		<path class="st5" d="M80.3211,286.7961v-6.2227h0.9434v0.873c0.1953-0.3047,0.4551-0.5498,0.7793-0.7354
			s0.6934-0.2783,1.1074-0.2783c0.4609,0,0.8389,0.0957,1.1338,0.2871s0.5029,0.459,0.624,0.8027
			c0.4922-0.7266,1.1328-1.0898,1.9219-1.0898c0.6172,0,1.0918,0.1709,1.4238,0.5127s0.498,0.8682,0.498,1.5791v4.2715h-1.0488
			v-3.9199c0-0.4219-0.0342-0.7256-0.1025-0.9111s-0.1924-0.335-0.3721-0.4482s-0.3906-0.1699-0.6328-0.1699
			c-0.4375,0-0.8008,0.1455-1.0898,0.4365s-0.4336,0.7568-0.4336,1.3975v3.6152h-1.0547v-4.043
			c0-0.4688-0.0859-0.8203-0.2578-1.0547s-0.4531-0.3516-0.8438-0.3516c-0.2969,0-0.5713,0.0781-0.8232,0.2344
			s-0.4346,0.3848-0.5479,0.6855s-0.1699,0.7344-0.1699,1.3008v3.2285H80.3211z"/>
		<path class="st5" d="M94.577,284.7922l1.0898,0.1348c-0.1719,0.6367-0.4902,1.1309-0.9551,1.4824s-1.0586,0.5273-1.7813,0.5273
			c-0.9102,0-1.6318-0.2803-2.165-0.8408s-0.7998-1.3467-0.7998-2.3584c0-1.0469,0.2695-1.8594,0.8086-2.4375
			s1.2383-0.8672,2.0977-0.8672c0.832,0,1.5117,0.2832,2.0391,0.8496s0.791,1.3633,0.791,2.3906
			c0,0.0625-0.002,0.1563-0.0059,0.2813h-4.6406c0.0391,0.6836,0.2324,1.207,0.5801,1.5703s0.7813,0.5449,1.3008,0.5449
			c0.3867,0,0.7168-0.1016,0.9902-0.3047S94.4168,285.2375,94.577,284.7922z M91.1141,283.0871h3.4746
			c-0.0469-0.5234-0.1797-0.916-0.3984-1.1777c-0.3359-0.4063-0.7715-0.6094-1.3066-0.6094c-0.4844,0-0.8916,0.1621-1.2217,0.4863
			S91.1493,282.5442,91.1141,283.0871z"/>
		<path class="st5" d="M96.9911,286.7961v-6.2227h0.9492v0.8848c0.457-0.6836,1.1172-1.0254,1.9805-1.0254
			c0.375,0,0.7197,0.0674,1.0342,0.2021s0.5498,0.3115,0.7061,0.5303s0.2656,0.4785,0.3281,0.7793
			c0.0391,0.1953,0.0586,0.5371,0.0586,1.0254v3.8262h-1.0547v-3.7852c0-0.4297-0.041-0.751-0.123-0.9639
			s-0.2275-0.3828-0.4365-0.5098s-0.4541-0.1904-0.7354-0.1904c-0.4492,0-0.8369,0.1426-1.1631,0.4277s-0.4893,0.8262-0.4893,1.623
			v3.3984H96.9911z"/>
		<path class="st5" d="M105.9676,285.8528l0.1523,0.9316c-0.2969,0.0625-0.5625,0.0938-0.7969,0.0938
			c-0.3828,0-0.6797-0.0605-0.8906-0.1816s-0.3594-0.2803-0.4453-0.4775s-0.1289-0.6123-0.1289-1.2451v-3.5801h-0.7734v-0.8203
			h0.7734v-1.541l1.0488-0.6328v2.1738h1.0605v0.8203h-1.0605v3.6387c0,0.3008,0.0186,0.4941,0.0557,0.5801
			s0.0977,0.1543,0.1816,0.2051s0.2041,0.0762,0.3604,0.0762C105.6219,285.8938,105.7762,285.8801,105.9676,285.8528z"/>
		<path class="st5" d="M111.0594,286.0285c-0.3906,0.332-0.7666,0.5664-1.1279,0.7031s-0.749,0.2051-1.1631,0.2051
			c-0.6836,0-1.209-0.167-1.5762-0.501s-0.5508-0.7607-0.5508-1.2803c0-0.3047,0.0693-0.583,0.208-0.835
			s0.3203-0.4541,0.5449-0.6064s0.4775-0.2676,0.7588-0.3457c0.207-0.0547,0.5195-0.1074,0.9375-0.1582
			c0.8516-0.1016,1.4785-0.2227,1.8809-0.3633c0.0039-0.1445,0.0059-0.2363,0.0059-0.2754c0-0.4297-0.0996-0.7324-0.2988-0.9082
			c-0.2695-0.2383-0.6699-0.3574-1.2012-0.3574c-0.4961,0-0.8623,0.0869-1.0986,0.2607s-0.4111,0.4814-0.5244,0.9229l-1.0313-0.1406
			c0.0938-0.4414,0.248-0.7979,0.4629-1.0693s0.5254-0.4805,0.9316-0.627s0.877-0.2197,1.4121-0.2197
			c0.5313,0,0.9629,0.0625,1.2949,0.1875s0.5762,0.2822,0.7324,0.4717s0.2656,0.4287,0.3281,0.7178
			c0.0352,0.1797,0.0527,0.5039,0.0527,0.9727v1.4063c0,0.9805,0.0225,1.6006,0.0674,1.8604s0.1338,0.5088,0.2666,0.7471h-1.1016
			C111.161,286.5774,111.0907,286.3215,111.0594,286.0285z M110.9715,283.6731c-0.3828,0.1563-0.957,0.2891-1.7227,0.3984
			c-0.4336,0.0625-0.7402,0.1328-0.9199,0.2109s-0.3184,0.1924-0.416,0.3428s-0.1465,0.3174-0.1465,0.501
			c0,0.2813,0.1064,0.5156,0.3193,0.7031s0.5244,0.2813,0.9346,0.2813c0.4063,0,0.7676-0.0889,1.084-0.2666
			s0.5488-0.4209,0.6973-0.7295c0.1133-0.2383,0.1699-0.5898,0.1699-1.0547V283.6731z"/>
		<path class="st5" d="M117.7332,284.5168l1.0371,0.1348c-0.1133,0.7148-0.4033,1.2744-0.8701,1.6787s-1.04,0.6064-1.7197,0.6064
			c-0.8516,0-1.5361-0.2783-2.0537-0.835s-0.7764-1.3545-0.7764-2.3936c0-0.6719,0.1113-1.2598,0.334-1.7637
			s0.5615-0.8818,1.0166-1.1338s0.9502-0.3779,1.4854-0.3779c0.6758,0,1.2285,0.1709,1.6582,0.5127s0.7051,0.8271,0.8262,1.4561
			l-1.0254,0.1582c-0.0977-0.418-0.2705-0.7324-0.5186-0.9434s-0.5479-0.3164-0.8994-0.3164c-0.5313,0-0.9629,0.1904-1.2949,0.5713
			s-0.498,0.9834-0.498,1.8076c0,0.8359,0.1602,1.4434,0.4805,1.8223s0.7383,0.5684,1.2539,0.5684
			c0.4141,0,0.7598-0.127,1.0371-0.3809S117.659,285.0442,117.7332,284.5168z"/>
		<path class="st5" d="M119.6786,279.4192v-1.2129h1.0547v1.2129H119.6786z M119.6786,286.7961v-6.2227h1.0547v6.2227H119.6786z"/>
		<path class="st5" d="M121.9461,283.6848c0-1.1523,0.3203-2.0059,0.9609-2.5605c0.5352-0.4609,1.1875-0.6914,1.957-0.6914
			c0.8555,0,1.5547,0.2803,2.0977,0.8408s0.8145,1.335,0.8145,2.3232c0,0.8008-0.1201,1.4307-0.3604,1.8896
			s-0.5898,0.8154-1.0488,1.0693s-0.96,0.3809-1.5029,0.3809c-0.8711,0-1.5752-0.2793-2.1123-0.8379
			S121.9461,284.7356,121.9461,283.6848z M123.0301,283.6848c0,0.7969,0.1738,1.3936,0.5215,1.79s0.7852,0.5947,1.3125,0.5947
			c0.5234,0,0.959-0.1992,1.3066-0.5977s0.5215-1.0059,0.5215-1.8223c0-0.7695-0.1748-1.3525-0.5244-1.749
			s-0.7842-0.5947-1.3037-0.5947c-0.5273,0-0.9648,0.1973-1.3125,0.5918S123.0301,282.8879,123.0301,283.6848z M124.2782,279.8
			l0.7793-1.6406h1.3828l-1.2891,1.6406H124.2782z"/>
		<path class="st5" d="M129.0125,286.7961v-6.2227h0.9492v0.8848c0.457-0.6836,1.1172-1.0254,1.9805-1.0254
			c0.375,0,0.7197,0.0674,1.0342,0.2021s0.5498,0.3115,0.7061,0.5303s0.2656,0.4785,0.3281,0.7793
			c0.0391,0.1953,0.0586,0.5371,0.0586,1.0254v3.8262h-1.0547v-3.7852c0-0.4297-0.041-0.751-0.123-0.9639
			s-0.2275-0.3828-0.4365-0.5098s-0.4541-0.1904-0.7354-0.1904c-0.4492,0-0.8369,0.1426-1.1631,0.4277s-0.4893,0.8262-0.4893,1.623
			v3.3984H129.0125z"/>
	</g>
</g>
<g>
	<g>
		<rect x="325" y="255" class="st4" width="135" height="61"/>
		<g>
			<path class="st5" d="M351.9906,266.6447l1.5415,0.4883c-0.2363,0.8594-0.6294,1.498-1.1787,1.915
				c-0.5498,0.417-1.2471,0.626-2.0923,0.626c-1.0454,0-1.9048-0.3574-2.5781-1.0723c-0.6733-0.7139-1.0098-1.6904-1.0098-2.9297
				c0-1.3105,0.3384-2.3281,1.0151-3.0537c0.6768-0.7246,1.5664-1.0869,2.6694-1.0869c0.9634,0,1.7456,0.2842,2.3472,0.8535
				c0.3579,0.3369,0.6265,0.8203,0.8057,1.4502l-1.5737,0.376c-0.0933-0.4082-0.2876-0.7305-0.5825-0.9668
				c-0.2959-0.2363-0.6548-0.3545-1.0771-0.3545c-0.5835,0-1.0571,0.21-1.4209,0.6279c-0.3633,0.4199-0.5449,1.0977-0.5449,2.0361
				c0,0.9951,0.1792,1.7041,0.5371,2.127s0.8237,0.6338,1.3965,0.6338c0.4224,0,0.7861-0.1348,1.0903-0.4023
				C351.6395,267.6428,351.8582,267.2209,351.9906,266.6447z"/>
			<path class="st5" d="M354.5741,265.6506c0-0.8018,0.1201-1.4756,0.3604-2.0195c0.1787-0.4014,0.4229-0.7607,0.7334-1.0801
				c0.3096-0.3184,0.6484-0.5547,1.0176-0.709c0.4902-0.207,1.0557-0.3105,1.6973-0.3105c1.1602,0,2.0879,0.3594,2.7852,1.0791
				c0.6963,0.7197,1.0439,1.7207,1.0439,3.0029c0,1.2705-0.3457,2.2656-1.0361,2.9834c-0.6914,0.7178-1.6152,1.0771-2.7715,1.0771
				c-1.1709,0-2.1025-0.3574-2.793-1.0723C354.9198,267.8879,354.5741,266.9035,354.5741,265.6506z M356.2127,265.5969
				c0,0.8916,0.2061,1.5674,0.6172,2.0273c0.4121,0.46,0.9346,0.6904,1.5684,0.6904s1.1543-0.2285,1.5605-0.6846
				c0.4063-0.457,0.6094-1.1416,0.6094-2.0547c0-0.9023-0.1973-1.5752-0.5928-2.0195c-0.3965-0.4443-0.9219-0.666-1.5771-0.666
				s-1.1836,0.2246-1.584,0.6738C356.4129,264.0129,356.2127,264.6906,356.2127,265.5969z"/>
			<path class="st5" d="M363.4686,269.5393v-7.874h1.5469l3.2227,5.2588v-5.2588h1.4775v7.874H368.12l-3.1738-5.1348v5.1348
				H363.4686z"/>
			<path class="st5" d="M370.994,266.9768l1.5469-0.1504c0.0928,0.5195,0.2822,0.9014,0.5664,1.1445
				c0.2852,0.2432,0.6689,0.3652,1.1523,0.3652c0.5117,0,0.8975-0.1084,1.1572-0.3252s0.3896-0.4697,0.3896-0.7598
				c0-0.1865-0.0547-0.3447-0.1641-0.4756s-0.2998-0.2441-0.5723-0.3408c-0.1855-0.0645-0.6104-0.1787-1.2725-0.3438
				c-0.8525-0.2109-1.4502-0.4707-1.7939-0.7783c-0.4834-0.4336-0.7256-0.9619-0.7256-1.585c0-0.4014,0.1143-0.7764,0.3418-1.125
				c0.2266-0.3496,0.5547-0.6152,0.9824-0.7979s0.9443-0.2734,1.5498-0.2734c0.9883,0,1.7324,0.2158,2.2314,0.6494
				c0.5,0.4336,0.7617,1.0117,0.7871,1.7354l-1.5898,0.0693c-0.0684-0.4043-0.2139-0.6953-0.4375-0.873
				c-0.2246-0.1768-0.5596-0.2656-1.0078-0.2656c-0.4619,0-0.8232,0.0947-1.085,0.2842c-0.168,0.1221-0.252,0.2852-0.252,0.4893
				c0,0.1865,0.0781,0.3457,0.2363,0.4775c0.2002,0.1689,0.6875,0.3438,1.4609,0.5273c0.7734,0.1816,1.3457,0.3711,1.7158,0.5664
				c0.3711,0.1953,0.6611,0.4619,0.8701,0.7998c0.21,0.3389,0.3145,0.7568,0.3145,1.2549c0,0.4512-0.126,0.873-0.376,1.2676
				c-0.251,0.3936-0.6055,0.6865-1.0635,0.8779c-0.459,0.1914-1.0293,0.2871-1.7139,0.2871c-0.9951,0-1.7598-0.2305-2.293-0.6904
				C371.4159,268.5285,371.0975,267.8576,370.994,266.9768z"/>
			<path class="st5" d="M380.5057,269.5393v-6.542h-2.3359v-1.332h6.2568v1.332h-2.3311v6.542H380.5057z"/>
			<path class="st5" d="M385.4579,269.5393v-7.874h3.3467c0.8408,0,1.4521,0.0703,1.834,0.2119
				c0.3809,0.1416,0.6865,0.3936,0.916,0.7549c0.2285,0.3613,0.3438,0.7754,0.3438,1.2412c0,0.5898-0.1738,1.0781-0.5215,1.4629
				c-0.3467,0.3848-0.8662,0.6279-1.5576,0.7285c0.3438,0.2002,0.6279,0.4199,0.8516,0.6602s0.5254,0.666,0.9053,1.2783
				l0.9609,1.5361h-1.9014l-1.1494-1.7129c-0.4082-0.6133-0.6875-0.999-0.8379-1.1582s-0.3096-0.2686-0.4775-0.3271
				c-0.1689-0.0596-0.4355-0.0889-0.8008-0.0889h-0.3223v3.2871H385.4579z M387.0477,264.9953h1.1768
				c0.7627,0,1.2383-0.0322,1.4287-0.0967c0.1895-0.0645,0.3379-0.1758,0.4453-0.333s0.1611-0.3545,0.1611-0.5908
				c0-0.2646-0.0703-0.4785-0.2119-0.6416s-0.3408-0.2666-0.5986-0.3096c-0.1289-0.0176-0.5156-0.0264-1.1602-0.0264h-1.2412
				V264.9953z"/>
			<path class="st5" d="M393.3856,261.6653h1.5898v4.2646c0,0.6768,0.0195,1.1152,0.0596,1.3164
				c0.0674,0.3223,0.2295,0.5801,0.4863,0.7754c0.2559,0.1953,0.6055,0.293,1.0498,0.293c0.4512,0,0.791-0.0918,1.0205-0.2764
				c0.2285-0.1846,0.3672-0.4111,0.4131-0.6797c0.0469-0.2686,0.0703-0.7139,0.0703-1.3369v-4.3564h1.5898v4.1357
				c0,0.9453-0.043,1.6133-0.1289,2.0039c-0.0859,0.3896-0.2441,0.7188-0.4756,0.9883c-0.2305,0.2676-0.54,0.4824-0.9268,0.6416
				s-0.8916,0.2393-1.5146,0.2393c-0.752,0-1.3223-0.0869-1.71-0.2607c-0.3887-0.1738-0.6963-0.3994-0.9219-0.6768
				s-0.374-0.5684-0.4453-0.873c-0.1045-0.4512-0.1563-1.1172-0.1563-1.998V261.6653z"/>
			<path class="st5" d="M406.3788,266.6447l1.541,0.4883c-0.2363,0.8594-0.6289,1.498-1.1787,1.915s-1.2471,0.626-2.0918,0.626
				c-1.0459,0-1.9053-0.3574-2.5781-1.0723c-0.6738-0.7139-1.0098-1.6904-1.0098-2.9297c0-1.3105,0.3379-2.3281,1.0146-3.0537
				c0.6768-0.7246,1.5664-1.0869,2.6699-1.0869c0.9629,0,1.7451,0.2842,2.3467,0.8535c0.3584,0.3369,0.627,0.8203,0.8057,1.4502
				l-1.5732,0.376c-0.0938-0.4082-0.2881-0.7305-0.583-0.9668c-0.2959-0.2363-0.6543-0.3545-1.0771-0.3545
				c-0.583,0-1.0566,0.21-1.4209,0.6279c-0.3633,0.4199-0.5449,1.0977-0.5449,2.0361c0,0.9951,0.1797,1.7041,0.5371,2.127
				c0.3584,0.4229,0.8242,0.6338,1.3965,0.6338c0.4229,0,0.7861-0.1348,1.0908-0.4023
				C406.0272,267.6428,406.2459,267.2209,406.3788,266.6447z"/>
			<path class="st5" d="M414.3221,266.6447l1.542,0.4883c-0.2363,0.8594-0.6299,1.498-1.1787,1.915
				c-0.5498,0.417-1.2471,0.626-2.0928,0.626c-1.0449,0-1.9043-0.3574-2.5781-1.0723c-0.6729-0.7139-1.0098-1.6904-1.0098-2.9297
				c0-1.3105,0.3389-2.3281,1.0156-3.0537c0.6768-0.7246,1.5664-1.0869,2.6689-1.0869c0.9639,0,1.7461,0.2842,2.3477,0.8535
				c0.3574,0.3369,0.626,0.8203,0.8057,1.4502l-1.5742,0.376c-0.0928-0.4082-0.2871-0.7305-0.582-0.9668
				c-0.2959-0.2363-0.6553-0.3545-1.0771-0.3545c-0.584,0-1.0576,0.21-1.4209,0.6279c-0.3633,0.4199-0.5449,1.0977-0.5449,2.0361
				c0,0.9951,0.1787,1.7041,0.5371,2.127c0.3574,0.4229,0.8232,0.6338,1.3965,0.6338c0.4219,0,0.7861-0.1348,1.0898-0.4023
				C413.9715,267.6428,414.1903,267.2209,414.3221,266.6447z"/>
			<path class="st5" d="M417.1795,269.5393v-7.874h1.5898v7.874H417.1795z"/>
			<path class="st5" d="M419.9618,265.6506c0-0.8018,0.1201-1.4756,0.3604-2.0195c0.1787-0.4014,0.4229-0.7607,0.7334-1.0801
				c0.3096-0.3184,0.6484-0.5547,1.0176-0.709c0.4902-0.207,1.0557-0.3105,1.6973-0.3105c1.1602,0,2.0879,0.3594,2.7852,1.0791
				c0.6963,0.7197,1.0439,1.7207,1.0439,3.0029c0,1.2705-0.3457,2.2656-1.0361,2.9834c-0.6914,0.7178-1.6152,1.0771-2.7715,1.0771
				c-1.1709,0-2.1025-0.3574-2.793-1.0723C420.3075,267.8879,419.9618,266.9035,419.9618,265.6506z M421.6004,265.5969
				c0,0.8916,0.2061,1.5674,0.6172,2.0273c0.4121,0.46,0.9346,0.6904,1.5684,0.6904s1.1543-0.2285,1.5605-0.6846
				c0.4063-0.457,0.6094-1.1416,0.6094-2.0547c0-0.9023-0.1973-1.5752-0.5928-2.0195c-0.3965-0.4443-0.9219-0.666-1.5771-0.666
				s-1.1836,0.2246-1.584,0.6738C421.8006,264.0129,421.6004,264.6906,421.6004,265.5969z M422.8036,261.2141l0.7412-1.6064h1.6914
				l-1.4766,1.6064H422.8036z"/>
			<path class="st5" d="M428.8563,269.5393v-7.874h1.5469l3.2227,5.2588v-5.2588h1.4775v7.874h-1.5957l-3.1738-5.1348v5.1348
				H428.8563z"/>
		</g>
	</g>
	<rect x="329" y="276" class="st6" width="125" height="33"/>
	<g>
		<path class="st5" d="M378.5789,284.7844l1.1367,0.2871c-0.2383,0.9336-0.667,1.6455-1.2861,2.1357s-1.376,0.7354-2.2705,0.7354
			c-0.9258,0-1.6787-0.1885-2.2588-0.5654s-1.0215-0.9229-1.3242-1.6377s-0.4541-1.4824-0.4541-2.3027
			c0-0.8945,0.1709-1.6748,0.5127-2.3408s0.8281-1.1719,1.459-1.5176s1.3252-0.5186,2.083-0.5186
			c0.8594,0,1.582,0.2188,2.168,0.6563s0.9941,1.0527,1.2246,1.8457l-1.1191,0.2637c-0.1992-0.625-0.4883-1.0801-0.8672-1.3652
			s-0.8555-0.4277-1.4297-0.4277c-0.6602,0-1.2119,0.1582-1.6553,0.4746s-0.7549,0.7412-0.9346,1.2744s-0.2695,1.083-0.2695,1.6494
			c0,0.7305,0.1064,1.3682,0.3193,1.9131s0.5439,0.9521,0.9932,1.2217s0.9355,0.4043,1.459,0.4043
			c0.6367,0,1.1758-0.1836,1.6172-0.5508S378.4227,285.507,378.5789,284.7844z"/>
		<path class="st5" d="M380.5887,284.6848c0-1.1523,0.3203-2.0059,0.9609-2.5605c0.5352-0.4609,1.1875-0.6914,1.957-0.6914
			c0.8555,0,1.5547,0.2803,2.0977,0.8408s0.8145,1.335,0.8145,2.3232c0,0.8008-0.1201,1.4307-0.3604,1.8896
			s-0.5898,0.8154-1.0488,1.0693s-0.96,0.3809-1.5029,0.3809c-0.8711,0-1.5752-0.2793-2.1123-0.8379
			S380.5887,285.7356,380.5887,284.6848z M381.6727,284.6848c0,0.7969,0.1738,1.3936,0.5215,1.79s0.7852,0.5947,1.3125,0.5947
			c0.5234,0,0.959-0.1992,1.3066-0.5977s0.5215-1.0059,0.5215-1.8223c0-0.7695-0.1748-1.3525-0.5244-1.749
			s-0.7842-0.5947-1.3037-0.5947c-0.5273,0-0.9648,0.1973-1.3125,0.5918S381.6727,283.8879,381.6727,284.6848z M382.9207,280.8
			l0.7793-1.6406h1.3828l-1.2891,1.6406H382.9207z"/>
		<path class="st5" d="M391.6922,287.7961v-0.7852c-0.3945,0.6172-0.9746,0.9258-1.7402,0.9258
			c-0.4961,0-0.9521-0.1367-1.3682-0.4102s-0.7383-0.6553-0.9668-1.1455s-0.3428-1.0537-0.3428-1.6904
			c0-0.6211,0.1035-1.1846,0.3105-1.6904s0.5176-0.8936,0.9316-1.1631s0.877-0.4043,1.3887-0.4043
			c0.375,0,0.709,0.0791,1.002,0.2373s0.5313,0.3643,0.7148,0.6182v-3.082h1.0488v8.5898H391.6922z M388.3582,284.6906
			c0,0.7969,0.168,1.3926,0.5039,1.7871s0.7324,0.5918,1.1895,0.5918c0.4609,0,0.8525-0.1885,1.1748-0.5654
			s0.4834-0.9521,0.4834-1.7256c0-0.8516-0.1641-1.4766-0.4922-1.875s-0.7324-0.5977-1.2129-0.5977
			c-0.4688,0-0.8604,0.1914-1.1748,0.5742S388.3582,283.8664,388.3582,284.6906z"/>
		<path class="st5" d="M394.3348,280.4192v-1.2129h1.0547v1.2129H394.3348z M394.3348,287.7961v-6.2227h1.0547v6.2227H394.3348z"/>
		<path class="st5" d="M396.8016,288.3117l1.0254,0.1523c0.043,0.3164,0.1621,0.5469,0.3574,0.6914
			c0.2617,0.1953,0.6191,0.293,1.0723,0.293c0.4883,0,0.8652-0.0977,1.1309-0.293s0.4453-0.4688,0.5391-0.8203
			c0.0547-0.2148,0.0801-0.666,0.0762-1.3535c-0.4609,0.543-1.0352,0.8145-1.7227,0.8145c-0.8555,0-1.5176-0.3086-1.9863-0.9258
			s-0.7031-1.3574-0.7031-2.2207c0-0.5938,0.1074-1.1416,0.3223-1.6436s0.5264-0.8896,0.9346-1.1631s0.8877-0.4102,1.4385-0.4102
			c0.7344,0,1.3398,0.2969,1.8164,0.8906v-0.75h0.9727v5.3789c0,0.9688-0.0986,1.6553-0.2959,2.0596s-0.5098,0.7236-0.9375,0.958
			s-0.9541,0.3516-1.5791,0.3516c-0.7422,0-1.3418-0.167-1.7988-0.501S396.786,288.9836,396.8016,288.3117z M397.6747,284.5735
			c0,0.8164,0.1621,1.4121,0.4863,1.7871s0.7305,0.5625,1.2188,0.5625c0.4844,0,0.8906-0.1865,1.2188-0.5596
			s0.4922-0.958,0.4922-1.7549c0-0.7617-0.1689-1.3359-0.5068-1.7227s-0.7451-0.5801-1.2217-0.5801
			c-0.4688,0-0.8672,0.1904-1.1953,0.5713S397.6747,283.8235,397.6747,284.5735z"/>
		<path class="st5" d="M403.2762,284.6848c0-1.1523,0.3203-2.0059,0.9609-2.5605c0.5352-0.4609,1.1875-0.6914,1.957-0.6914
			c0.8555,0,1.5547,0.2803,2.0977,0.8408s0.8145,1.335,0.8145,2.3232c0,0.8008-0.1201,1.4307-0.3604,1.8896
			s-0.5898,0.8154-1.0488,1.0693s-0.96,0.3809-1.5029,0.3809c-0.8711,0-1.5752-0.2793-2.1123-0.8379
			S403.2762,285.7356,403.2762,284.6848z M404.3602,284.6848c0,0.7969,0.1738,1.3936,0.5215,1.79s0.7852,0.5947,1.3125,0.5947
			c0.5234,0,0.959-0.1992,1.3066-0.5977s0.5215-1.0059,0.5215-1.8223c0-0.7695-0.1748-1.3525-0.5244-1.749
			s-0.7842-0.5947-1.3037-0.5947c-0.5273,0-0.9648,0.1973-1.3125,0.5918S404.3602,283.8879,404.3602,284.6848z"/>
		<path class="st5" d="M372.1161,301.7961v-8.5898h3.2402c0.5703,0,1.0059,0.0273,1.3066,0.082
			c0.4219,0.0703,0.7754,0.2041,1.0605,0.4014s0.5146,0.4736,0.6885,0.8291s0.2607,0.7461,0.2607,1.1719
			c0,0.7305-0.2324,1.3486-0.6973,1.8545s-1.3047,0.7588-2.5195,0.7588h-2.2031v3.4922H372.1161z M373.2528,297.2903h2.2207
			c0.7344,0,1.2559-0.1367,1.5645-0.4102s0.4629-0.6582,0.4629-1.1543c0-0.3594-0.0908-0.667-0.2725-0.9229
			s-0.4209-0.4248-0.7178-0.5068c-0.1914-0.0508-0.5449-0.0762-1.0605-0.0762h-2.1973V297.2903z"/>
		<path class="st5" d="M379.9735,301.7961v-6.2227h0.9492v0.9434c0.2422-0.4414,0.4658-0.7324,0.6709-0.873
			s0.4307-0.2109,0.6768-0.2109c0.3555,0,0.7168,0.1133,1.084,0.3398l-0.3633,0.9785c-0.2578-0.1523-0.5156-0.2285-0.7734-0.2285
			c-0.2305,0-0.4375,0.0693-0.6211,0.208s-0.3145,0.3311-0.3926,0.5771c-0.1172,0.375-0.1758,0.7852-0.1758,1.2305v3.2578H379.9735z
			"/>
		<path class="st5" d="M388.0594,301.7961v-0.9141c-0.4844,0.7031-1.1426,1.0547-1.9746,1.0547c-0.3672,0-0.71-0.0703-1.0283-0.2109
			s-0.5547-0.3174-0.709-0.5303s-0.2627-0.4736-0.3252-0.7822c-0.043-0.207-0.0645-0.5352-0.0645-0.9844v-3.8555h1.0547v3.4512
			c0,0.5508,0.0215,0.9219,0.0645,1.1133c0.0664,0.2773,0.207,0.4951,0.4219,0.6533s0.4805,0.2373,0.7969,0.2373
			s0.6133-0.0811,0.8906-0.2432s0.4736-0.3828,0.5889-0.6621s0.1729-0.6846,0.1729-1.2158v-3.334h1.0547v6.2227H388.0594z"/>
		<path class="st5" d="M394.9149,299.7922l1.0898,0.1348c-0.1719,0.6367-0.4902,1.1309-0.9551,1.4824s-1.0586,0.5273-1.7813,0.5273
			c-0.9102,0-1.6318-0.2803-2.165-0.8408s-0.7998-1.3467-0.7998-2.3584c0-1.0469,0.2695-1.8594,0.8086-2.4375
			s1.2383-0.8672,2.0977-0.8672c0.832,0,1.5117,0.2832,2.0391,0.8496s0.791,1.3633,0.791,2.3906
			c0,0.0625-0.002,0.1563-0.0059,0.2813h-4.6406c0.0391,0.6836,0.2324,1.207,0.5801,1.5703s0.7813,0.5449,1.3008,0.5449
			c0.3867,0,0.7168-0.1016,0.9902-0.3047S394.7547,300.2375,394.9149,299.7922z M391.452,298.0871h3.4746
			c-0.0469-0.5234-0.1797-0.916-0.3984-1.1777c-0.3359-0.4063-0.7715-0.6094-1.3066-0.6094c-0.4844,0-0.8916,0.1621-1.2217,0.4863
			S391.4872,297.5442,391.452,298.0871z"/>
		<path class="st5" d="M398.3016,301.7961h-0.9785v-8.5898h1.0547v3.0645c0.4453-0.5586,1.0137-0.8379,1.7051-0.8379
			c0.3828,0,0.7451,0.0771,1.0869,0.2314s0.623,0.3711,0.8438,0.6504s0.3936,0.6162,0.5186,1.0107s0.1875,0.8164,0.1875,1.2656
			c0,1.0664-0.2637,1.8906-0.791,2.4727s-1.1602,0.873-1.8984,0.873c-0.7344,0-1.3105-0.3066-1.7285-0.9199V301.7961z
			 M398.2899,298.6379c0,0.7461,0.1016,1.2852,0.3047,1.6172c0.332,0.543,0.7813,0.8145,1.3477,0.8145
			c0.4609,0,0.8594-0.2002,1.1953-0.6006s0.5039-0.9971,0.5039-1.79c0-0.8125-0.1611-1.4121-0.4834-1.7988
			s-0.7119-0.5801-1.1689-0.5801c-0.4609,0-0.8594,0.2002-1.1953,0.6006S398.2899,297.8801,398.2899,298.6379z"/>
		<path class="st5" d="M408.0633,301.0285c-0.3906,0.332-0.7666,0.5664-1.1279,0.7031s-0.749,0.2051-1.1631,0.2051
			c-0.6836,0-1.209-0.167-1.5762-0.501s-0.5508-0.7607-0.5508-1.2803c0-0.3047,0.0693-0.583,0.208-0.835
			s0.3203-0.4541,0.5449-0.6064s0.4775-0.2676,0.7588-0.3457c0.207-0.0547,0.5195-0.1074,0.9375-0.1582
			c0.8516-0.1016,1.4785-0.2227,1.8809-0.3633c0.0039-0.1445,0.0059-0.2363,0.0059-0.2754c0-0.4297-0.0996-0.7324-0.2988-0.9082
			c-0.2695-0.2383-0.6699-0.3574-1.2012-0.3574c-0.4961,0-0.8623,0.0869-1.0986,0.2607s-0.4111,0.4814-0.5244,0.9229l-1.0313-0.1406
			c0.0938-0.4414,0.248-0.7979,0.4629-1.0693s0.5254-0.4805,0.9316-0.627s0.877-0.2197,1.4121-0.2197
			c0.5313,0,0.9629,0.0625,1.2949,0.1875s0.5762,0.2822,0.7324,0.4717s0.2656,0.4287,0.3281,0.7178
			c0.0352,0.1797,0.0527,0.5039,0.0527,0.9727v1.4063c0,0.9805,0.0225,1.6006,0.0674,1.8604s0.1338,0.5088,0.2666,0.7471h-1.1016
			C408.1649,301.5774,408.0946,301.3215,408.0633,301.0285z M407.9754,298.6731c-0.3828,0.1563-0.957,0.2891-1.7227,0.3984
			c-0.4336,0.0625-0.7402,0.1328-0.9199,0.2109s-0.3184,0.1924-0.416,0.3428s-0.1465,0.3174-0.1465,0.501
			c0,0.2813,0.1064,0.5156,0.3193,0.7031s0.5244,0.2813,0.9346,0.2813c0.4063,0,0.7676-0.0889,1.084-0.2666
			s0.5488-0.4209,0.6973-0.7295c0.1133-0.2383,0.1699-0.5898,0.1699-1.0547V298.6731z"/>
	</g>
</g>
<g>
	<path class="st5" d="M236.5453,186.4397v-7.874h1.5898v7.874H236.5453z"/>
	<path class="st5" d="M239.6659,186.4397v-7.874h1.5469l3.2227,5.2588v-5.2588h1.4771v7.874h-1.5952l-3.1743-5.1348v5.1348H239.6659
		z"/>
	<path class="st5" d="M247.5453,186.4397v-7.874h1.5898v7.874H247.5453z"/>
	<path class="st5" d="M255.6878,183.5452l1.5415,0.4883c-0.2363,0.8594-0.6294,1.498-1.1787,1.915
		c-0.5498,0.417-1.2471,0.626-2.0923,0.626c-1.0454,0-1.9048-0.3574-2.5781-1.0723c-0.6733-0.7139-1.0098-1.6904-1.0098-2.9297
		c0-1.3105,0.3384-2.3281,1.0151-3.0537c0.6768-0.7246,1.5664-1.0869,2.6694-1.0869c0.9634,0,1.7456,0.2842,2.3472,0.8535
		c0.3579,0.3369,0.6265,0.8203,0.8057,1.4502l-1.5737,0.376c-0.0933-0.4082-0.2876-0.7305-0.5825-0.9668
		c-0.2959-0.2363-0.6548-0.3545-1.0771-0.3545c-0.5835,0-1.0571,0.21-1.4209,0.6279c-0.3633,0.4199-0.5449,1.0977-0.5449,2.0361
		c0,0.9951,0.1792,1.7041,0.5371,2.127s0.8237,0.6338,1.3965,0.6338c0.4224,0,0.7861-0.1348,1.0903-0.4023
		C255.3368,184.5432,255.5555,184.1213,255.6878,183.5452z"/>
	<path class="st5" d="M258.5453,186.4397v-7.874h1.5898v7.874H258.5453z"/>
	<path class="st5" d="M261.3275,182.551c0-0.8018,0.1201-1.4756,0.3599-2.0195c0.1792-0.4014,0.4233-0.7607,0.7334-1.0801
		c0.3096-0.3184,0.6489-0.5547,1.0176-0.709c0.4907-0.207,1.0562-0.3105,1.6973-0.3105c1.1602,0,2.0884,0.3594,2.7852,1.0791
		c0.6963,0.7197,1.0444,1.7207,1.0444,3.0029c0,1.2705-0.3457,2.2656-1.0366,2.9834s-1.6147,1.0771-2.7715,1.0771
		c-1.1709,0-2.1021-0.3574-2.793-1.0723C261.6732,184.7883,261.3275,183.8039,261.3275,182.551z M262.9657,182.4973
		c0,0.8916,0.2061,1.5674,0.6177,2.0273s0.9346,0.6904,1.5684,0.6904s1.1538-0.2285,1.5601-0.6846
		c0.4067-0.457,0.6099-1.1416,0.6099-2.0547c0-0.9023-0.1978-1.5752-0.5933-2.0195c-0.396-0.4443-0.9214-0.666-1.5767-0.666
		s-1.1836,0.2246-1.5845,0.6738S262.9657,181.591,262.9657,182.4973z"/>
</g>
</svg>
