<?xml version="1.0" encoding="utf-8"?>
<!-- Generator: Adobe Illustrator 21.0.0, SVG Export Plug-In . SVG Version: 6.00 Build 0)  -->
<svg version="1.1" id="Capa_1" xmlns="http://www.w3.org/2000/svg" xmlns:xlink="http://www.w3.org/1999/xlink" x="0px" y="0px"
	 viewBox="0 0 276 165" style="enable-background:new 0 0 276 165;" xml:space="preserve">
<g>
	<rect x="95" style="fill:#75C6F0;" width="79" height="34"/>
	<g>
		<path style="fill:#FFFFFF;" d="M108.4595,16.3574c0-0.6563,0.0981-1.207,0.2944-1.6523c0.1465-0.3281,0.3462-0.6221,0.5996-0.8828
			s0.5313-0.4541,0.833-0.5801c0.4014-0.1699,0.8643-0.2559,1.3887-0.2559c0.9492,0,1.7085,0.2949,2.2783,0.8838
			s0.855,1.4082,0.855,2.4561c0,1.041-0.2827,1.8545-0.8481,2.4414c-0.5654,0.5879-1.3213,0.8809-2.2676,0.8809
			c-0.958,0-1.7197-0.292-2.2852-0.876C108.7422,18.1875,108.4595,17.3828,108.4595,16.3574z M109.7998,16.3135
			c0,0.7295,0.1685,1.2822,0.5054,1.6592c0.3369,0.376,0.7646,0.5645,1.2832,0.5645s0.9438-0.1865,1.2769-0.5605
			c0.332-0.373,0.4985-0.9336,0.4985-1.6807c0-0.7383-0.1621-1.2891-0.4858-1.6523s-0.7534-0.5449-1.2896-0.5449
			s-0.9683,0.1836-1.2964,0.5518C109.9639,15.0176,109.7998,15.5723,109.7998,16.3135z"/>
		<path style="fill:#FFFFFF;" d="M115.728,13.0967h2.5752c0.5098,0,0.8896,0.0215,1.1406,0.0635
			c0.25,0.043,0.4746,0.1318,0.6719,0.2656c0.1982,0.1357,0.3628,0.3145,0.4946,0.5391c0.1318,0.2236,0.1978,0.4756,0.1978,0.7539
			c0,0.3018-0.0811,0.5781-0.2441,0.8301c-0.1621,0.252-0.3828,0.4414-0.6611,0.5664c0.3926,0.1152,0.6943,0.3096,0.9053,0.585
			s0.3164,0.5996,0.3164,0.9717c0,0.293-0.0684,0.5771-0.2041,0.8545c-0.1367,0.2764-0.3228,0.498-0.5586,0.6631
			c-0.2358,0.166-0.5264,0.2676-0.8721,0.3057c-0.2168,0.0234-0.7397,0.0381-1.5688,0.0439h-2.1929L115.728,13.0967L115.728,13.0967
			z M117.0288,14.1689v1.4893h0.8525c0.5068,0,0.8218-0.0068,0.9448-0.0215c0.2227-0.0264,0.3979-0.1035,0.5249-0.2305
			c0.1279-0.1279,0.1914-0.2949,0.1914-0.5039c0-0.1982-0.0547-0.3604-0.165-0.4854c-0.1094-0.124-0.2729-0.2002-0.4897-0.2256
			c-0.1289-0.0146-0.4995-0.0225-1.1118-0.0225h-0.7471V14.1689z M117.0288,16.7305v1.7227h1.2041
			c0.4688,0,0.7661-0.0127,0.8921-0.0391c0.1934-0.0352,0.3506-0.1211,0.4722-0.2568c0.1216-0.1367,0.1826-0.3193,0.1826-0.5479
			c0-0.1934-0.0469-0.3564-0.1406-0.4922c-0.0938-0.1338-0.2295-0.2324-0.4063-0.2939c-0.1777-0.0615-0.562-0.0928-1.1538-0.0928
			H117.0288z"/>
		<path style="fill:#FFFFFF;" d="M123.6733,19.5391v-5.3525h-1.9116v-1.0898h5.1196v1.0898h-1.9072v5.3525H123.6733z"/>
		<path style="fill:#FFFFFF;" d="M127.7207,19.5391v-6.4424h4.7769v1.0898h-3.4761v1.4287h3.2344v1.085h-3.2344v1.7529h3.5991
			v1.0859h-4.8999V19.5391z"/>
		<path style="fill:#FFFFFF;" d="M133.7368,19.5391v-6.4424h1.2651l2.6367,4.3018v-4.3018h1.209v6.4424h-1.3047l-2.5977-4.2012
			v4.2012H133.7368z"/>
		<path style="fill:#FFFFFF;" d="M144.3457,17.1699l1.2607,0.4004c-0.1934,0.7031-0.5146,1.2256-0.9648,1.5664
			c-0.4502,0.3418-1.0205,0.5117-1.7119,0.5117c-0.8555,0-1.5586-0.292-2.1094-0.876c-0.5508-0.585-0.8262-1.3838-0.8262-2.3975
			c0-1.0723,0.2773-1.9053,0.8311-2.498c0.5537-0.5938,1.2822-0.8906,2.1846-0.8906c0.7871,0,1.4277,0.2334,1.9199,0.6992
			c0.293,0.2754,0.5127,0.6709,0.6592,1.1865l-1.2881,0.3076c-0.0762-0.334-0.2344-0.5977-0.4766-0.791
			c-0.2412-0.1934-0.5352-0.29-0.8809-0.29c-0.4775,0-0.8652,0.1709-1.1621,0.5146c-0.2979,0.3418-0.4463,0.8975-0.4463,1.665
			c0,0.8145,0.1465,1.3945,0.4395,1.7402s0.6738,0.5186,1.1426,0.5186c0.3457,0,0.6436-0.1094,0.8916-0.3301
			C144.0586,17.9883,144.2363,17.6426,144.3457,17.1699z"/>
		<path style="fill:#FFFFFF;" d="M146.6836,19.5391v-6.4424h1.3008v6.4424H146.6836z"/>
		<path style="fill:#FFFFFF;" d="M148.959,16.3574c0-0.6563,0.0986-1.207,0.2949-1.6523c0.1465-0.3281,0.3457-0.6221,0.5996-0.8828
			s0.5313-0.4541,0.833-0.5801c0.4014-0.1699,0.8643-0.2559,1.3887-0.2559c0.9492,0,1.708,0.2949,2.2783,0.8838
			s0.8555,1.4082,0.8555,2.4561c0,1.041-0.2832,1.8545-0.8486,2.4414c-0.5654,0.5879-1.3213,0.8809-2.2676,0.8809
			c-0.958,0-1.7197-0.292-2.2852-0.876C149.2422,18.1875,148.959,17.3828,148.959,16.3574z M150.2998,16.3135
			c0,0.7295,0.1689,1.2822,0.5049,1.6592c0.3379,0.376,0.7656,0.5645,1.2832,0.5645c0.5195,0,0.9443-0.1865,1.2773-0.5605
			c0.332-0.373,0.498-0.9336,0.498-1.6807c0-0.7383-0.1621-1.2891-0.4854-1.6523s-0.7529-0.5449-1.29-0.5449
			c-0.5352,0-0.9678,0.1836-1.2959,0.5518C150.4639,15.0176,150.2998,15.5723,150.2998,16.3135z M151.2842,12.7275l0.6064-1.3135
			h1.3848l-1.209,1.3135H151.2842z"/>
		<path style="fill:#FFFFFF;" d="M156.2363,19.5391v-6.4424h1.2656l2.6367,4.3018v-4.3018h1.209v6.4424h-1.3047l-2.5977-4.2012
			v4.2012H156.2363z"/>
	</g>
</g>
<g>
	<rect x="95" y="131" style="fill:#75C6F0;" width="79" height="34"/>
	<g>
		<path style="fill:#FFFFFF;" d="M97.4688,150.5391v-6.4424h4.7769v1.0898h-3.4761v1.4287h3.2344v1.085h-3.2344v1.7529h3.5991
			v1.0859L97.4688,150.5391L97.4688,150.5391z"/>
		<path style="fill:#FFFFFF;" d="M103.1421,148.4434l1.2656-0.123c0.0762,0.4248,0.2305,0.7363,0.4639,0.9355
			c0.2324,0.1992,0.5469,0.2988,0.9424,0.2988c0.4189,0,0.7344-0.0889,0.9473-0.2656c0.2119-0.1777,0.3184-0.3848,0.3184-0.6221
			c0-0.1523-0.0449-0.2822-0.1338-0.3887c-0.0898-0.1074-0.2456-0.2002-0.4683-0.2793c-0.1523-0.0527-0.4995-0.1465-1.0415-0.2813
			c-0.6973-0.1729-1.1865-0.3848-1.4678-0.6377c-0.3955-0.3535-0.5933-0.7861-0.5933-1.2959c0-0.3281,0.0928-0.6348,0.2788-0.9209
			c0.186-0.2852,0.4541-0.5029,0.8047-0.6523c0.3496-0.1494,0.7725-0.2246,1.2676-0.2246c0.8086,0,1.417,0.1777,1.8262,0.5322
			c0.4082,0.3545,0.623,0.8281,0.6436,1.4189l-1.3008,0.0576c-0.0557-0.3311-0.1753-0.5693-0.3584-0.7139
			c-0.1831-0.1455-0.4575-0.2178-0.8237-0.2178c-0.3779,0-0.6738,0.0781-0.8877,0.2334c-0.1377,0.0996-0.2065,0.2324-0.2065,0.3994
			c0,0.1523,0.0645,0.2832,0.1934,0.3916c0.1641,0.1377,0.5625,0.2813,1.1953,0.4297c0.6328,0.1504,1.1006,0.3047,1.4043,0.4639
			c0.3027,0.1602,0.54,0.3779,0.7119,0.6553c0.1709,0.2764,0.2568,0.6191,0.2568,1.0254c0,0.3691-0.1025,0.7158-0.3076,1.0371
			c-0.2051,0.3232-0.4951,0.5625-0.8701,0.7188c-0.375,0.1572-0.8423,0.2354-1.4019,0.2354c-0.8145,0-1.4399-0.1885-1.8765-0.5645
			C103.4878,149.7119,103.2271,149.1641,103.1421,148.4434z"/>
		<path style="fill:#FFFFFF;" d="M109.4746,150.5391v-6.4424h2.0874c0.791,0,1.3066,0.0322,1.5469,0.0967
			c0.3691,0.0967,0.6782,0.3066,0.9272,0.6309c0.249,0.3232,0.3735,0.7422,0.3735,1.2539c0,0.3965-0.0718,0.7285-0.2153,0.998
			s-0.3262,0.4814-0.5474,0.6348c-0.2212,0.1543-0.4458,0.2559-0.6743,0.3057c-0.3105,0.0615-0.7603,0.0928-1.3491,0.0928h-0.8481
			v2.4297h-1.3008V150.5391z M110.7754,145.1865v1.8281h0.7119c0.5127,0,0.8555-0.0332,1.0283-0.1006s0.3081-0.1729,0.4067-0.3164
			c0.0977-0.1436,0.147-0.3105,0.147-0.502c0-0.2334-0.0688-0.4268-0.2065-0.5801c-0.1377-0.1514-0.312-0.2471-0.5229-0.2852
			c-0.1553-0.0293-0.4673-0.0439-0.936-0.0439h-0.6285V145.1865z"/>
		<path style="fill:#FFFFFF;" d="M115.4775,150.5391v-6.4424h4.7769v1.0898h-3.4761v1.4287h3.2344v1.085h-3.2344v1.7529h3.5991
			v1.0859L115.4775,150.5391L115.4775,150.5391z"/>
		<path style="fill:#FFFFFF;" d="M125.6025,148.1699l1.2612,0.4004c-0.1934,0.7031-0.5151,1.2256-0.9648,1.5664
			c-0.4497,0.3418-1.02,0.5117-1.7114,0.5117c-0.8555,0-1.5586-0.292-2.1094-0.876c-0.5508-0.585-0.8262-1.3838-0.8262-2.3975
			c0-1.0723,0.2769-1.9053,0.8306-2.498c0.5537-0.5938,1.2817-0.8906,2.1841-0.8906c0.7881,0,1.4282,0.2334,1.9204,0.6992
			c0.293,0.2754,0.5127,0.6709,0.6592,1.1865l-1.2876,0.3076c-0.0762-0.334-0.2349-0.5977-0.4771-0.791
			c-0.2412-0.1934-0.5352-0.29-0.8809-0.29c-0.4775,0-0.8652,0.1709-1.1621,0.5146c-0.2979,0.3418-0.4463,0.8975-0.4463,1.665
			c0,0.8145,0.1465,1.3945,0.4395,1.7402s0.6738,0.5186,1.1426,0.5186c0.3457,0,0.6431-0.1094,0.8921-0.3301
			C125.3154,148.9883,125.4941,148.6426,125.6025,148.1699z"/>
		<path style="fill:#FFFFFF;" d="M127.9404,150.5391v-6.4424h1.3008v6.4424H127.9404z"/>
		<path style="fill:#FFFFFF;" d="M130.4893,150.5391v-6.4424h4.417v1.0898H131.79v1.5244h2.6895v1.0898H131.79v2.7383h-1.3007
			V150.5391z"/>
		<path style="fill:#FFFFFF;" d="M135.9385,150.5391v-6.4424h1.3008v6.4424H135.9385z"/>
		<path style="fill:#FFFFFF;" d="M142.6006,148.1699l1.2607,0.4004c-0.1934,0.7031-0.5146,1.2256-0.9648,1.5664
			c-0.4492,0.3418-1.0195,0.5117-1.7109,0.5117c-0.8555,0-1.5586-0.292-2.1094-0.876c-0.5508-0.585-0.8262-1.3838-0.8262-2.3975
			c0-1.0723,0.2773-1.9053,0.8301-2.498c0.5547-0.5938,1.2822-0.8906,2.1846-0.8906c0.7881,0,1.4287,0.2334,1.9209,0.6992
			c0.293,0.2754,0.5117,0.6709,0.6582,1.1865l-1.2871,0.3076c-0.0762-0.334-0.2344-0.5977-0.4766-0.791s-0.5352-0.29-0.8809-0.29
			c-0.4785,0-0.8652,0.1709-1.1621,0.5146c-0.2988,0.3418-0.4473,0.8975-0.4473,1.665c0,0.8145,0.1465,1.3945,0.4395,1.7402
			s0.6738,0.5186,1.1426,0.5186c0.3457,0,0.6436-0.1094,0.8926-0.3301C142.3135,148.9883,142.4922,148.6426,142.6006,148.1699z"/>
		<path style="fill:#FFFFFF;" d="M150.7871,150.5391h-1.4141l-0.5625-1.4629h-2.5762l-0.5313,1.4629h-1.3799l2.5088-6.4424h1.376
			L150.7871,150.5391z M148.3926,147.9902l-0.8877-2.3906l-0.8701,2.3906H148.3926z"/>
		<path style="fill:#FFFFFF;" d="M155.5996,148.1699l1.2617,0.4004c-0.1934,0.7031-0.5156,1.2256-0.9648,1.5664
			c-0.4502,0.3418-1.0205,0.5117-1.7119,0.5117c-0.8555,0-1.5586-0.292-2.1094-0.876c-0.5508-0.585-0.8262-1.3838-0.8262-2.3975
			c0-1.0723,0.2764-1.9053,0.8311-2.498c0.5527-0.5938,1.2813-0.8906,2.1836-0.8906c0.7881,0,1.4277,0.2334,1.9199,0.6992
			c0.293,0.2754,0.5137,0.6709,0.6602,1.1865l-1.2881,0.3076c-0.0762-0.334-0.2354-0.5977-0.4775-0.791
			c-0.2402-0.1934-0.5352-0.29-0.8809-0.29c-0.4766,0-0.8652,0.1709-1.1621,0.5146c-0.2969,0.3418-0.4453,0.8975-0.4453,1.665
			c0,0.8145,0.1465,1.3945,0.4395,1.7402s0.6738,0.5186,1.1426,0.5186c0.3457,0,0.6426-0.1094,0.8916-0.3301
			C155.3125,148.9883,155.4912,148.6426,155.5996,148.1699z"/>
		<path style="fill:#FFFFFF;" d="M157.9375,150.5391v-6.4424h1.3008v6.4424H157.9375z"/>
		<path style="fill:#FFFFFF;" d="M160.2139,147.3574c0-0.6563,0.0986-1.207,0.2939-1.6523
			c0.1465-0.3281,0.3467-0.6221,0.5996-0.8828c0.2539-0.2607,0.5313-0.4541,0.834-0.5801c0.4004-0.1699,0.8633-0.2559,1.3887-0.2559
			c0.9492,0,1.708,0.2949,2.2773,0.8838c0.5703,0.5889,0.8555,1.4082,0.8555,2.4561c0,1.041-0.2832,1.8545-0.8477,2.4414
			c-0.5664,0.5879-1.3223,0.8809-2.2676,0.8809c-0.959,0-1.7207-0.292-2.2852-0.876
			C160.4961,149.1875,160.2139,148.3828,160.2139,147.3574z M161.5547,147.3135c0,0.7295,0.168,1.2822,0.5049,1.6592
			c0.3369,0.376,0.7646,0.5645,1.2832,0.5645s0.9443-0.1865,1.2764-0.5605c0.332-0.373,0.499-0.9336,0.499-1.6807
			c0-0.7383-0.1621-1.2891-0.4854-1.6523c-0.3242-0.3633-0.7539-0.5449-1.29-0.5449s-0.9678,0.1836-1.2959,0.5518
			C161.7188,146.0176,161.5547,146.5723,161.5547,147.3135z M162.5391,143.7275l0.6055-1.3135h1.3848l-1.209,1.3135H162.5391z"/>
		<path style="fill:#FFFFFF;" d="M167.4912,150.5391v-6.4424h1.2656l2.6367,4.3018v-4.3018h1.208v6.4424h-1.3047l-2.5977-4.2012
			v4.2012H167.4912z"/>
	</g>
</g>
<g>
	<rect y="71" style="fill:#75C6F0;" width="79" height="34"/>
	<g>
		<path style="fill:#FFFFFF;" d="M14.7007,90.0391l-2.3027-6.4424h1.4106l1.6304,4.7686l1.5776-4.7686h1.3799l-2.3071,6.4424
			H14.7007z"/>
		<path style="fill:#FFFFFF;" d="M24.2017,90.0391h-1.415l-0.5625-1.4629H19.649l-0.5317,1.4629h-1.3799l2.5093-6.4424h1.3755
			L24.2017,90.0391z M21.8066,87.4902l-0.8877-2.3906l-0.8701,2.3906H21.8066z"/>
		<path style="fill:#FFFFFF;" d="M24.9268,90.0391v-6.3896h1.3008v5.3037h3.2344v1.0859H24.9268z"/>
		<path style="fill:#FFFFFF;" d="M30.3496,90.0391v-6.4424h1.3008v6.4424H30.3496z"/>
		<path style="fill:#FFFFFF;" d="M32.8853,83.5967h2.3774c0.5361,0,0.9448,0.041,1.2261,0.123
			c0.3779,0.1113,0.7017,0.3096,0.9712,0.5928c0.2695,0.2852,0.4746,0.6328,0.6152,1.0439
			c0.1406,0.4121,0.2109,0.9199,0.2109,1.5225c0,0.5313-0.0659,0.9883-0.1978,1.3711c-0.1611,0.4697-0.3911,0.8486-0.6899,1.1387
			c-0.2256,0.2197-0.5303,0.3906-0.9141,0.5137c-0.2871,0.0918-0.6709,0.1367-1.1514,0.1367h-2.4478v-6.4424H32.8853z
			 M34.186,84.6865v4.2666h0.9712c0.3633,0,0.6255-0.0195,0.7866-0.0605c0.2109-0.0527,0.3857-0.1426,0.5254-0.2686
			c0.1387-0.126,0.2524-0.333,0.3403-0.6221c0.0879-0.2881,0.1318-0.6816,0.1318-1.1797s-0.0439-0.8799-0.1318-1.1465
			s-0.2109-0.4746-0.3691-0.625c-0.1582-0.1484-0.3589-0.25-0.6021-0.3027c-0.1816-0.041-0.5376-0.0615-1.0679-0.0615H34.186z"/>
		<path style="fill:#FFFFFF;" d="M45.1987,90.0391h-1.415l-0.5625-1.4629H40.646l-0.5317,1.4629h-1.3799l2.5093-6.4424h1.3755
			L45.1987,90.0391z M42.8037,87.4902l-0.8877-2.3906l-0.8701,2.3906H42.8037z"/>
		<path style="fill:#FFFFFF;" d="M50.0107,87.6699l1.2612,0.4004c-0.1934,0.7031-0.5151,1.2256-0.9648,1.5664
			c-0.4497,0.3418-1.02,0.5117-1.7114,0.5117c-0.8555,0-1.5586-0.292-2.1094-0.876c-0.5508-0.585-0.8262-1.3838-0.8262-2.3975
			c0-1.0723,0.2769-1.9053,0.8306-2.498c0.5537-0.5938,1.2817-0.8906,2.1841-0.8906c0.7881,0,1.4282,0.2334,1.9204,0.6992
			c0.293,0.2754,0.5127,0.6709,0.6592,1.1865l-1.2876,0.3076c-0.0762-0.334-0.2349-0.5977-0.4771-0.791
			c-0.2412-0.1934-0.5352-0.29-0.8809-0.29c-0.4775,0-0.8652,0.1709-1.1621,0.5146c-0.2979,0.3418-0.4463,0.8975-0.4463,1.665
			c0,0.8145,0.1465,1.3945,0.4395,1.7402s0.6738,0.5186,1.1426,0.5186c0.3457,0,0.6431-0.1094,0.8921-0.3301
			C49.7236,88.4883,49.9023,88.1426,50.0107,87.6699z"/>
		<path style="fill:#FFFFFF;" d="M52.3486,90.0391v-6.4424h1.3008v6.4424H52.3486z"/>
		<path style="fill:#FFFFFF;" d="M54.625,86.8574c0-0.6563,0.0981-1.207,0.2944-1.6523c0.1465-0.3281,0.3462-0.6221,0.5996-0.8828
			s0.5313-0.4541,0.833-0.5801c0.4014-0.1699,0.8643-0.2559,1.3887-0.2559c0.9492,0,1.7085,0.2949,2.2783,0.8838
			s0.855,1.4082,0.855,2.4561c0,1.041-0.2827,1.8545-0.8481,2.4414c-0.5654,0.5879-1.3213,0.8809-2.2676,0.8809
			c-0.958,0-1.7197-0.292-2.2852-0.876C54.9077,88.6875,54.625,87.8828,54.625,86.8574z M55.9653,86.8135
			c0,0.7295,0.1685,1.2822,0.5054,1.6592c0.3369,0.376,0.7646,0.5645,1.2832,0.5645s0.9438-0.1865,1.2769-0.5605
			c0.332-0.373,0.4985-0.9336,0.4985-1.6807c0-0.7383-0.1621-1.2891-0.4858-1.6523s-0.7534-0.5449-1.2896-0.5449
			s-0.9683,0.1836-1.2964,0.5518C56.1294,85.5176,55.9653,86.0723,55.9653,86.8135z M56.9497,83.2275l0.6064-1.3135h1.3843
			l-1.2085,1.3135H56.9497z"/>
		<path style="fill:#FFFFFF;" d="M61.9023,90.0391v-6.4424h1.2656l2.6367,4.3018v-4.3018h1.2085v6.4424H65.708l-2.5972-4.2012
			v4.2012C63.1108,90.0391,61.9023,90.0391,61.9023,90.0391z"/>
	</g>
</g>
<g>
	<rect x="197" y="71" style="fill:#75C6F0;" width="79" height="34"/>
	<g>
		<path style="fill:#FFFFFF;" d="M222.5313,90.0391h-1.415l-0.5625-1.4629h-2.5752l-0.5313,1.4629h-1.3809l2.5098-6.4424h1.375
			L222.5313,90.0391z M220.1367,87.4902l-0.8887-2.3906l-0.8691,2.3906H220.1367z"/>
		<path style="fill:#FFFFFF;" d="M223.2344,90.0391v-6.4424H224.5l2.6367,4.3018v-4.3018h1.209v6.4424H227.04l-2.5967-4.2012v4.2012
			C224.4433,90.0391,223.2344,90.0391,223.2344,90.0391z"/>
		<path style="fill:#FFFFFF;" d="M235.5303,90.0391h-1.415l-0.5625-1.4629h-2.5752l-0.5322,1.4629h-1.3789l2.5088-6.4424h1.376
			L235.5303,90.0391z M233.1348,87.4902l-0.8867-2.3906l-0.8711,2.3906H233.1348z M231.5,83.2275l0.6074-1.3135h1.3838
			l-1.208,1.3135H231.5z"/>
		<path style="fill:#FFFFFF;" d="M236.2559,90.0391v-6.3896h1.3008v5.3037h3.2344v1.0859H236.2559z"/>
		<path style="fill:#FFFFFF;" d="M241.6777,90.0391v-6.4424h1.3008v6.4424H241.6777z"/>
		<path style="fill:#FFFFFF;" d="M243.8887,87.9434l1.2656-0.123c0.0762,0.4248,0.2305,0.7363,0.4639,0.9355
			c0.2324,0.1992,0.5469,0.2988,0.9424,0.2988c0.4189,0,0.7344-0.0889,0.9473-0.2656c0.2119-0.1777,0.3184-0.3848,0.3184-0.6221
			c0-0.1523-0.0449-0.2822-0.1338-0.3887c-0.0898-0.1074-0.2451-0.2002-0.4678-0.2793c-0.1523-0.0527-0.5-0.1465-1.042-0.2813
			c-0.6973-0.1729-1.1865-0.3848-1.4678-0.6377c-0.3955-0.3535-0.5938-0.7861-0.5938-1.2959c0-0.3281,0.0938-0.6348,0.2793-0.9209
			c0.1855-0.2852,0.4541-0.5029,0.8047-0.6523c0.3496-0.1494,0.7725-0.2246,1.2676-0.2246c0.8086,0,1.417,0.1777,1.8262,0.5322
			c0.4082,0.3545,0.623,0.8281,0.6436,1.4189l-1.3008,0.0576c-0.0557-0.3311-0.1748-0.5693-0.3584-0.7139
			c-0.1836-0.1455-0.457-0.2178-0.8242-0.2178c-0.377,0-0.6738,0.0781-0.8867,0.2334c-0.1387,0.0996-0.207,0.2324-0.207,0.3994
			c0,0.1523,0.0645,0.2832,0.1934,0.3916c0.1641,0.1377,0.5625,0.2813,1.1953,0.4297c0.6328,0.1504,1.1006,0.3047,1.4043,0.4639
			c0.3027,0.1602,0.54,0.3779,0.7119,0.6553c0.1709,0.2764,0.2568,0.6191,0.2568,1.0254c0,0.3691-0.1025,0.7158-0.3076,1.0371
			c-0.2051,0.3232-0.4951,0.5625-0.8701,0.7188c-0.375,0.1572-0.8418,0.2354-1.4023,0.2354c-0.8145,0-1.4395-0.1885-1.876-0.5645
			C244.2344,89.2119,243.9736,88.6641,243.8887,87.9434z"/>
		<path style="fill:#FFFFFF;" d="M250.1816,90.0391v-6.4424h1.3008v6.4424H250.1816z"/>
		<path style="fill:#FFFFFF;" d="M252.3926,87.9434l1.2656-0.123c0.0762,0.4248,0.2305,0.7363,0.4629,0.9355
			s0.5469,0.2988,0.9434,0.2988c0.418,0,0.7344-0.0889,0.9473-0.2656c0.2109-0.1777,0.3184-0.3848,0.3184-0.6221
			c0-0.1523-0.0449-0.2822-0.1348-0.3887c-0.0898-0.1074-0.2451-0.2002-0.4678-0.2793c-0.1523-0.0527-0.499-0.1465-1.042-0.2813
			c-0.6973-0.1729-1.1855-0.3848-1.4668-0.6377c-0.3965-0.3535-0.5938-0.7861-0.5938-1.2959c0-0.3281,0.0928-0.6348,0.2793-0.9209
			c0.1855-0.2852,0.4531-0.5029,0.8047-0.6523c0.3496-0.1494,0.7715-0.2246,1.2676-0.2246c0.8086,0,1.416,0.1777,1.8262,0.5322
			c0.4082,0.3545,0.623,0.8281,0.6426,1.4189l-1.3008,0.0576c-0.0547-0.3311-0.1748-0.5693-0.3574-0.7139
			c-0.1836-0.1455-0.458-0.2178-0.8242-0.2178c-0.3779,0-0.6738,0.0781-0.8877,0.2334c-0.1377,0.0996-0.2061,0.2324-0.2061,0.3994
			c0,0.1523,0.0645,0.2832,0.1934,0.3916c0.1641,0.1377,0.5625,0.2813,1.1953,0.4297c0.6328,0.1504,1.0996,0.3047,1.4043,0.4639
			c0.3027,0.1602,0.5391,0.3779,0.7109,0.6553c0.1719,0.2764,0.2578,0.6191,0.2578,1.0254c0,0.3691-0.1035,0.7158-0.3086,1.0371
			c-0.2051,0.3232-0.4941,0.5625-0.8691,0.7188c-0.375,0.1572-0.8428,0.2354-1.4023,0.2354c-0.8145,0-1.4395-0.1885-1.877-0.5645
			C252.7383,89.2119,252.4766,88.6641,252.3926,87.9434z"/>
	</g>
</g>
<path style="fill:#75C6F0;" d="M221.4079,110.2983c0,0,0.0994,21.7799-18.0466,20.4967c-0.168,0-0.3613-0.0117-0.3613-0.0215
	v-2.2344l-9,6.2227l9,7.7773v-2.3125c0,0.0078,0.1484,0.0166,0.3154,0.0166c11.1475,0,20.1836-9.0361,20.1836-20.1836
	C223.2592,112.3851,221.4079,110.2983,221.4079,110.2983z"/>
<path style="fill:#75C6F0;" d="M77.6204,140.448c0,0-21.7799,0.0994-20.4967-18.0466c0-0.168,0.0117-0.3613,0.0215-0.3613h2.2344
	l-6.2227-9l-7.7773,9h2.3125c-0.0078,0-0.0166,0.1484-0.0166,0.3154c0,11.1475,9.0361,20.1836,20.1836,20.1836
	C75.5336,142.2993,77.6204,140.448,77.6204,140.448z"/>
<path style="fill:#75C6F0;" d="M47.4707,60.0391c0,0-0.0994-21.7799,18.0466-20.4967c0.168,0,0.3613,0.0117,0.3613,0.0215v2.2344
	l9-6.2227l-9-7.7773v2.3125c0-0.0078-0.1484-0.0166-0.3154-0.0166c-11.1475,0-20.1836,9.0361-20.1836,20.1836
	C45.6194,57.9523,47.4707,60.0391,47.4707,60.0391z"/>
<path style="fill:#75C6F0;" d="M191.2582,29.8894c0,0,21.7799-0.0994,20.4967,18.0466c0,0.168-0.0117,0.3613-0.0215,0.3613h-2.2344
	l6.2227,9l7.7773-9h-2.3125c0.0078,0,0.0166-0.1484,0.0166-0.3154c0-11.1475-9.0361-20.1836-20.1836-20.1836
	C193.345,28.0381,191.2582,29.8894,191.2582,29.8894z"/>
</svg>
