<?xml version="1.0" encoding="utf-8"?>
<!-- Generator: Adobe Illustrator 16.0.0, SVG Export Plug-In . SVG Version: 6.00 Build 0)  -->
<!DOCTYPE svg PUBLIC "-//W3C//DTD SVG 1.1//EN" "http://www.w3.org/Graphics/SVG/1.1/DTD/svg11.dtd">
<svg version="1.1" id="Capa_1" xmlns="http://www.w3.org/2000/svg" xmlns:xlink="http://www.w3.org/1999/xlink" x="0px" y="0px"
	 width="409px" height="215px" viewBox="0 0 409 215" enable-background="new 0 0 409 215" xml:space="preserve">
<g>
	<rect fill="#75C6F0" width="84" height="215"/>
	<polygon fill="#FFFFFF" points="29,184 42,202 54,184 47,184 47,129 37,129 37,184 	"/>
	<polygon fill="#FFFFFF" points="54,33 41,15 29,33 36,33 36,88 46,88 46,33 	"/>
	<rect x="236" fill="#75C6F0" width="84" height="215"/>
	<polygon fill="#FFFFFF" points="265,184 278,202 290,184 283,184 283,129 273,129 273,184 	"/>
	<polygon fill="#FFFFFF" points="290,33 277,15 265,33 272,33 272,88 282,88 282,33 	"/>
	<rect x="325" fill="#75C6F0" width="84" height="215"/>
	<polygon fill="#FFFFFF" points="354,184 367,202 379,184 372,184 372,129 362,129 362,184 	"/>
	<polygon fill="#FFFFFF" points="379,33 366,15 354,33 361,33 361,88 371,88 371,33 	"/>
	<g>
		<path fill="#FFFFFF" d="M9.0591,108.7236H7.644l-0.5625-1.4629H4.5063l-0.5317,1.4629H2.5947l2.5093-6.4424h1.3755
			L9.0591,108.7236z M6.6641,106.1748l-0.8877-2.3906l-0.8701,2.3906H6.6641z"/>
		<path fill="#FFFFFF" d="M9.4194,106.6279l1.2656-0.123c0.0762,0.4248,0.2305,0.7363,0.4639,0.9355
			c0.2324,0.1992,0.5469,0.2988,0.9424,0.2988c0.4189,0,0.7344-0.0889,0.9473-0.2656c0.2119-0.1777,0.3184-0.3848,0.3184-0.6221
			c0-0.1523-0.0449-0.2822-0.1338-0.3887c-0.0898-0.1074-0.2456-0.2002-0.4683-0.2793c-0.1523-0.0527-0.4995-0.1465-1.0415-0.2813
			c-0.6973-0.1729-1.1865-0.3848-1.4678-0.6377c-0.3955-0.3535-0.5933-0.7861-0.5933-1.2959c0-0.3281,0.0928-0.6348,0.2788-0.9209
			c0.186-0.2852,0.4541-0.5029,0.8047-0.6523c0.3496-0.1494,0.7725-0.2246,1.2676-0.2246c0.8086,0,1.417,0.1777,1.8262,0.5322
			c0.4082,0.3545,0.623,0.8281,0.6436,1.4189l-1.3008,0.0576c-0.0557-0.3311-0.1753-0.5693-0.3584-0.7139
			c-0.1831-0.1455-0.4575-0.2178-0.8237-0.2178c-0.3779,0-0.6738,0.0781-0.8877,0.2334c-0.1377,0.0996-0.2065,0.2324-0.2065,0.3994
			c0,0.1523,0.0645,0.2832,0.1934,0.3916c0.1641,0.1377,0.5625,0.2813,1.1953,0.4297c0.6328,0.1504,1.1006,0.3047,1.4043,0.4639
			c0.3027,0.1602,0.54,0.3779,0.7119,0.6553c0.1709,0.2764,0.2568,0.6191,0.2568,1.0254c0,0.3691-0.1025,0.7158-0.3076,1.0371
			c-0.2051,0.3232-0.4951,0.5625-0.8701,0.7188c-0.375,0.1572-0.8423,0.2354-1.4019,0.2354c-0.8145,0-1.4399-0.1885-1.8765-0.5645
			C9.7651,107.8965,9.5044,107.3486,9.4194,106.6279z"/>
		<path fill="#FFFFFF" d="M15.752,108.7236v-6.4424h4.7769v1.0898h-3.4761v1.4287h3.2344v1.085h-3.2344v1.7529h3.5991v1.0859H15.752
			z"/>
		<path fill="#FFFFFF" d="M24.752,106.3545v-1.085h2.8037v2.5664c-0.2725,0.2637-0.6675,0.4961-1.1841,0.6963
			c-0.5176,0.2012-1.041,0.3008-1.5713,0.3008c-0.6738,0-1.2612-0.1406-1.7622-0.4238c-0.501-0.2822-0.8774-0.6865-1.1294-1.2129
			c-0.252-0.5254-0.3779-1.0977-0.3779-1.7158c0-0.6709,0.1406-1.2666,0.4219-1.7881s0.6929-0.9219,1.2349-1.2002
			c0.4131-0.2139,0.9272-0.3213,1.5425-0.3213c0.7998,0,1.4243,0.168,1.874,0.5039c0.4497,0.335,0.7393,0.7988,0.8682,1.3906
			l-1.292,0.2422c-0.0908-0.3164-0.2617-0.5664-0.5117-0.75c-0.251-0.1826-0.5635-0.2744-0.9385-0.2744
			c-0.5684,0-1.0205,0.1807-1.3555,0.54c-0.3359,0.3613-0.5034,0.8955-0.5034,1.6045c0,0.7646,0.1699,1.3379,0.5098,1.7207
			c0.3398,0.3818,0.7852,0.5732,1.3359,0.5732c0.2725,0,0.5454-0.0537,0.8198-0.1602c0.2734-0.1074,0.5088-0.2363,0.7051-0.3887
			v-0.8184H24.752z"/>
		<path fill="#FFFFFF" d="M28.7466,102.2813h1.3008v3.4893c0,0.5537,0.0161,0.9131,0.0483,1.0762
			c0.0557,0.2637,0.188,0.4756,0.3975,0.6357c0.2095,0.1592,0.4961,0.2393,0.8594,0.2393c0.3691,0,0.6475-0.0752,0.835-0.2266
			c0.1875-0.1504,0.3003-0.3359,0.3384-0.5557s0.0571-0.585,0.0571-1.0947v-3.5635h1.3008v3.3838
			c0,0.7734-0.0352,1.3203-0.1055,1.6387c-0.0703,0.3203-0.2002,0.5898-0.3887,0.8086c-0.1895,0.2207-0.4419,0.3955-0.7583,0.5254
			c-0.3164,0.1309-0.7295,0.1953-1.2393,0.1953c-0.6152,0-1.082-0.0703-1.3999-0.2129c-0.3179-0.1416-0.5688-0.3262-0.7534-0.5537
			c-0.1846-0.2266-0.3062-0.4648-0.3647-0.7139c-0.085-0.3691-0.1274-0.9141-0.1274-1.6348V102.2813z"/>
		<path fill="#FFFFFF" d="M35.2593,108.7236v-6.4424h2.7378c0.6885,0,1.189,0.0576,1.5005,0.1738
			c0.3125,0.1152,0.562,0.3213,0.7495,0.6172s0.2813,0.6348,0.2813,1.0146c0,0.4844-0.1421,0.8828-0.4263,1.1982
			c-0.2842,0.3145-0.709,0.5137-1.2744,0.5947c0.2813,0.165,0.5132,0.3447,0.6963,0.541s0.4302,0.5449,0.7407,1.0459l0.7866,1.2568
			h-1.5557l-0.9404-1.4023c-0.334-0.5-0.5625-0.8164-0.6855-0.9463c-0.123-0.1309-0.2534-0.2197-0.3911-0.2686
			c-0.1377-0.0479-0.356-0.0723-0.6548-0.0723h-0.2637v2.6895H35.2593z M36.5601,105.0059h0.9624
			c0.624,0,1.0137-0.0264,1.1689-0.0791s0.2769-0.1436,0.3647-0.2725s0.1318-0.29,0.1318-0.4834
			c0-0.2168-0.0581-0.3916-0.1738-0.5254c-0.1157-0.1328-0.2788-0.2168-0.4897-0.252c-0.1055-0.0146-0.4219-0.0225-0.9492-0.0225
			h-1.0151V105.0059z"/>
		<path fill="#FFFFFF" d="M47.564,108.7236h-1.415l-0.5625-1.4629h-2.5752l-0.5317,1.4629h-1.3799l2.5093-6.4424h1.3755
			L47.564,108.7236z M45.1689,106.1748l-0.8877-2.3906l-0.8701,2.3906H45.1689z"/>
		<path fill="#FFFFFF" d="M48.2363,108.7236v-6.4424h1.9468l1.1689,4.3945l1.1558-4.3945h1.9512v6.4424h-1.2085v-5.0713
			l-1.2788,5.0713h-1.2524l-1.2744-5.0713v5.0713H48.2363z"/>
		<path fill="#FFFFFF" d="M55.7114,108.7236v-6.4424h1.3008v6.4424H55.7114z"/>
		<path fill="#FFFFFF" d="M58.2515,108.7236v-6.4424h4.7769v1.0898h-3.4761v1.4287h3.2344v1.085h-3.2344v1.7529h3.5991v1.0859
			H58.2515z"/>
		<path fill="#FFFFFF" d="M64.2676,108.7236v-6.4424h1.2656l2.6367,4.3018v-4.3018h1.2085v6.4424h-1.3052l-2.5972-4.2012v4.2012
			H64.2676z"/>
		<path fill="#FFFFFF" d="M72.2041,108.7236v-5.3525h-1.9116v-1.0898h5.1196v1.0898h-1.9072v5.3525H72.2041z"/>
		<path fill="#FFFFFF" d="M75.8252,105.542c0-0.6563,0.0981-1.207,0.2944-1.6523c0.1465-0.3281,0.3462-0.6221,0.5996-0.8828
			s0.5313-0.4541,0.833-0.5801c0.4014-0.1699,0.8643-0.2559,1.3887-0.2559c0.9492,0,1.7085,0.2949,2.2783,0.8838
			s0.855,1.4082,0.855,2.4561c0,1.041-0.2827,1.8545-0.8481,2.4414c-0.5654,0.5879-1.3213,0.8809-2.2676,0.8809
			c-0.958,0-1.7197-0.292-2.2852-0.876C76.1079,107.3721,75.8252,106.5674,75.8252,105.542z M77.1655,105.498
			c0,0.7295,0.1685,1.2822,0.5054,1.6592c0.3369,0.376,0.7646,0.5645,1.2832,0.5645s0.9438-0.1865,1.2769-0.5605
			c0.332-0.373,0.4985-0.9336,0.4985-1.6807c0-0.7383-0.1621-1.2891-0.4858-1.6523s-0.7534-0.5449-1.2896-0.5449
			s-0.9683,0.1836-1.2964,0.5518C77.3296,104.2021,77.1655,104.7568,77.1655,105.498z"/>
		<path fill="#FFFFFF" d="M8.334,113.0811h2.3774c0.5361,0,0.9448,0.041,1.2261,0.123c0.3779,0.1113,0.7017,0.3096,0.9712,0.5928
			c0.2695,0.2852,0.4746,0.6328,0.6152,1.0439c0.1406,0.4121,0.2109,0.9199,0.2109,1.5225c0,0.5313-0.0659,0.9883-0.1978,1.3711
			c-0.1611,0.4697-0.3911,0.8486-0.6899,1.1387c-0.2256,0.2197-0.5303,0.3906-0.9141,0.5137
			c-0.2871,0.0918-0.6709,0.1367-1.1514,0.1367H8.334V113.0811z M9.6348,114.1709v4.2666h0.9712
			c0.3633,0,0.6255-0.0195,0.7866-0.0605c0.2109-0.0527,0.3857-0.1426,0.5254-0.2686c0.1387-0.126,0.2524-0.333,0.3403-0.6221
			c0.0879-0.2881,0.1318-0.6816,0.1318-1.1797s-0.0439-0.8799-0.1318-1.1465s-0.2109-0.4746-0.3691-0.625
			c-0.1582-0.1484-0.3589-0.25-0.6021-0.3027c-0.1816-0.041-0.5376-0.0615-1.0679-0.0615H9.6348z"/>
		<path fill="#FFFFFF" d="M14.8379,119.5234v-6.4424h4.7769v1.0898h-3.4761v1.4287h3.2344v1.085h-3.2344v1.7529h3.5991v1.0859
			H14.8379z"/>
		<path fill="#FFFFFF" d="M23.3765,119.5234v-6.3896h1.3008v5.3037h3.2344v1.0859H23.3765z"/>
		<path fill="#FFFFFF" d="M34.6484,119.5234h-1.415l-0.5625-1.4629h-2.5752l-0.5317,1.4629h-1.3799l2.5093-6.4424h1.3755
			L34.6484,119.5234z M32.2534,116.9746l-0.8877-2.3906l-0.8701,2.3906H32.2534z"/>
		<path fill="#FFFFFF" d="M41.627,117.1543l1.2612,0.4004c-0.1934,0.7031-0.5151,1.2256-0.9648,1.5664
			c-0.4497,0.3418-1.02,0.5117-1.7114,0.5117c-0.8555,0-1.5586-0.292-2.1094-0.876c-0.5508-0.585-0.8262-1.3838-0.8262-2.3975
			c0-1.0723,0.2769-1.9053,0.8306-2.498c0.5537-0.5938,1.2817-0.8906,2.1841-0.8906c0.7881,0,1.4282,0.2334,1.9204,0.6992
			c0.293,0.2754,0.5127,0.6709,0.6592,1.1865l-1.2876,0.3076c-0.0762-0.334-0.2349-0.5977-0.4771-0.791
			c-0.2412-0.1934-0.5352-0.29-0.8809-0.29c-0.4775,0-0.8652,0.1709-1.1621,0.5146c-0.2979,0.3418-0.4463,0.8975-0.4463,1.665
			c0,0.8145,0.1465,1.3945,0.4395,1.7402s0.6738,0.5186,1.1426,0.5186c0.3457,0,0.6431-0.1094,0.8921-0.3301
			C41.3398,117.9727,41.5186,117.627,41.627,117.1543z"/>
		<path fill="#FFFFFF" d="M49.814,119.5234h-1.415l-0.5625-1.4629h-2.5752l-0.5317,1.4629h-1.3799l2.5093-6.4424h1.3755
			L49.814,119.5234z M47.4189,116.9746l-0.8877-2.3906l-0.8701,2.3906H47.4189z"/>
		<path fill="#FFFFFF" d="M50.5391,119.5234v-6.3896h1.3008v5.3037h3.2344v1.0859H50.5391z"/>
		<path fill="#FFFFFF" d="M55.9619,119.5234v-6.4424h1.3008v6.4424H55.9619z"/>
		<path fill="#FFFFFF" d="M58.4976,113.0811h2.3774c0.5361,0,0.9448,0.041,1.2261,0.123c0.3779,0.1113,0.7017,0.3096,0.9712,0.5928
			c0.2695,0.2852,0.4746,0.6328,0.6152,1.0439c0.1406,0.4121,0.2109,0.9199,0.2109,1.5225c0,0.5313-0.0659,0.9883-0.1978,1.3711
			c-0.1611,0.4697-0.3911,0.8486-0.6899,1.1387c-0.2256,0.2197-0.5303,0.3906-0.9141,0.5137
			c-0.2871,0.0918-0.6709,0.1367-1.1514,0.1367h-2.4478V113.0811z M59.7983,114.1709v4.2666h0.9712
			c0.3633,0,0.6255-0.0195,0.7866-0.0605c0.2109-0.0527,0.3857-0.1426,0.5254-0.2686c0.1387-0.126,0.2524-0.333,0.3403-0.6221
			c0.0879-0.2881,0.1318-0.6816,0.1318-1.1797s-0.0439-0.8799-0.1318-1.1465s-0.2109-0.4746-0.3691-0.625
			c-0.1582-0.1484-0.3589-0.25-0.6021-0.3027c-0.1816-0.041-0.5376-0.0615-1.0679-0.0615H59.7983z"/>
		<path fill="#FFFFFF" d="M70.811,119.5234h-1.415l-0.5625-1.4629h-2.5752l-0.5317,1.4629h-1.3799l2.5093-6.4424h1.3755
			L70.811,119.5234z M68.416,116.9746l-0.8877-2.3906l-0.8701,2.3906H68.416z"/>
		<path fill="#FFFFFF" d="M71.4966,113.0811h2.3774c0.5361,0,0.9448,0.041,1.2261,0.123c0.3779,0.1113,0.7017,0.3096,0.9712,0.5928
			c0.2695,0.2852,0.4746,0.6328,0.6152,1.0439c0.1406,0.4121,0.2109,0.9199,0.2109,1.5225c0,0.5313-0.0659,0.9883-0.1978,1.3711
			c-0.1611,0.4697-0.3911,0.8486-0.6899,1.1387c-0.2256,0.2197-0.5303,0.3906-0.9141,0.5137
			c-0.2871,0.0918-0.6709,0.1367-1.1514,0.1367h-2.4478V113.0811z M72.7974,114.1709v4.2666h0.9712
			c0.3633,0,0.6255-0.0195,0.7866-0.0605c0.2109-0.0527,0.3857-0.1426,0.5254-0.2686c0.1387-0.126,0.2524-0.333,0.3403-0.6221
			c0.0879-0.2881,0.1318-0.6816,0.1318-1.1797s-0.0439-0.8799-0.1318-1.1465s-0.2109-0.4746-0.3691-0.625
			c-0.1582-0.1484-0.3589-0.25-0.6021-0.3027c-0.1816-0.041-0.5376-0.0615-1.0679-0.0615H72.7974z"/>
	</g>
	<g>
		<path fill="#FFFFFF" d="M250.0859,106.3545v-1.085h2.8037v2.5664c-0.2725,0.2637-0.667,0.4961-1.1846,0.6963
			c-0.5176,0.2012-1.041,0.3008-1.5703,0.3008c-0.6738,0-1.2617-0.1406-1.7627-0.4238c-0.501-0.2822-0.8779-0.6865-1.1299-1.2129
			c-0.252-0.5254-0.377-1.0977-0.377-1.7158c0-0.6709,0.1406-1.2666,0.4219-1.7881s0.6924-0.9219,1.2344-1.2002
			c0.4131-0.2139,0.9277-0.3213,1.543-0.3213c0.7988,0,1.4238,0.168,1.873,0.5039c0.4502,0.335,0.7402,0.7988,0.8691,1.3906
			l-1.293,0.2422c-0.0898-0.3164-0.2617-0.5664-0.5117-0.75c-0.25-0.1826-0.5625-0.2744-0.9375-0.2744
			c-0.5684,0-1.0215,0.1807-1.3555,0.54c-0.3359,0.3613-0.5039,0.8955-0.5039,1.6045c0,0.7646,0.1699,1.3379,0.5098,1.7207
			c0.3398,0.3818,0.7852,0.5732,1.3359,0.5732c0.2725,0,0.5449-0.0537,0.8203-0.1602c0.2734-0.1074,0.5078-0.2363,0.7051-0.3887
			v-0.8184H250.0859z"/>
		<path fill="#FFFFFF" d="M254.0898,108.7236v-6.4424h4.7764v1.0898h-3.4756v1.4287h3.2344v1.085h-3.2344v1.7529h3.5986v1.0859
			H254.0898z"/>
		<path fill="#FFFFFF" d="M260.0967,108.7236v-6.4424h2.7373c0.6895,0,1.1895,0.0576,1.501,0.1738
			c0.3125,0.1152,0.5615,0.3213,0.749,0.6172s0.2813,0.6348,0.2813,1.0146c0,0.4844-0.1416,0.8828-0.4258,1.1982
			c-0.2842,0.3145-0.709,0.5137-1.2744,0.5947c0.2813,0.165,0.5127,0.3447,0.6963,0.541s0.4297,0.5449,0.7402,1.0459l0.7871,1.2568
			h-1.5557l-0.9404-1.4023c-0.334-0.5-0.5625-0.8164-0.6855-0.9463c-0.123-0.1309-0.2539-0.2197-0.3906-0.2686
			c-0.1387-0.0479-0.3564-0.0723-0.6553-0.0723h-0.2637v2.6895H260.0967z M261.3975,105.0059h0.9619
			c0.625,0,1.0137-0.0264,1.1699-0.0791c0.1543-0.0527,0.2764-0.1436,0.3643-0.2725s0.1318-0.29,0.1318-0.4834
			c0-0.2168-0.0586-0.3916-0.1738-0.5254c-0.1152-0.1328-0.2793-0.2168-0.4902-0.252c-0.1055-0.0146-0.4219-0.0225-0.9492-0.0225
			h-1.0146V105.0059z"/>
		<path fill="#FFFFFF" d="M266.5918,108.7236v-6.4424h4.7773v1.0898h-3.4766v1.4287h3.2344v1.085h-3.2344v1.7529h3.5996v1.0859
			H266.5918z"/>
		<path fill="#FFFFFF" d="M272.6074,108.7236v-6.4424h1.2656l2.6367,4.3018v-4.3018h1.209v6.4424h-1.3047l-2.5977-4.2012v4.2012
			H272.6074z"/>
		<path fill="#FFFFFF" d="M283.2168,106.3545l1.2607,0.4004c-0.1934,0.7031-0.5146,1.2256-0.9648,1.5664
			c-0.4502,0.3418-1.0205,0.5117-1.7119,0.5117c-0.8555,0-1.5586-0.292-2.1094-0.876c-0.5508-0.585-0.8262-1.3838-0.8262-2.3975
			c0-1.0723,0.2773-1.9053,0.8311-2.498c0.5537-0.5938,1.2822-0.8906,2.1846-0.8906c0.7871,0,1.4277,0.2334,1.9199,0.6992
			c0.293,0.2754,0.5127,0.6709,0.6592,1.1865l-1.2881,0.3076c-0.0762-0.334-0.2344-0.5977-0.4766-0.791
			c-0.2412-0.1934-0.5352-0.29-0.8809-0.29c-0.4775,0-0.8652,0.1709-1.1621,0.5146c-0.2979,0.3418-0.4463,0.8975-0.4463,1.665
			c0,0.8145,0.1465,1.3945,0.4395,1.7402s0.6738,0.5186,1.1426,0.5186c0.3457,0,0.6436-0.1094,0.8916-0.3301
			C282.9297,107.1729,283.1074,106.8271,283.2168,106.3545z"/>
		<path fill="#FFFFFF" d="M285.5547,108.7236v-6.4424h1.3008v6.4424H285.5547z"/>
		<path fill="#FFFFFF" d="M293.9043,108.7236h-1.416l-0.5625-1.4629h-2.5742l-0.5322,1.4629h-1.3799l2.5098-6.4424h1.375
			L293.9043,108.7236z M291.5088,106.1748l-0.8877-2.3906l-0.8701,2.3906H291.5088z"/>
		<path fill="#FFFFFF" d="M296.7559,102.2813h2.377c0.5371,0,0.9453,0.041,1.2266,0.123c0.3779,0.1113,0.7012,0.3096,0.9707,0.5928
			c0.2695,0.2852,0.4746,0.6328,0.6152,1.0439c0.1406,0.4121,0.2109,0.9199,0.2109,1.5225c0,0.5313-0.0654,0.9883-0.1973,1.3711
			c-0.1611,0.4697-0.3906,0.8486-0.6895,1.1387c-0.2266,0.2197-0.5313,0.3906-0.9141,0.5137
			c-0.2871,0.0918-0.6719,0.1367-1.1523,0.1367h-2.4473V102.2813z M298.0566,103.3711v4.2666h0.9707
			c0.3633,0,0.626-0.0195,0.7871-0.0605c0.2109-0.0527,0.3857-0.1426,0.5254-0.2686c0.1387-0.126,0.252-0.333,0.3398-0.6221
			c0.0879-0.2881,0.1328-0.6816,0.1328-1.1797s-0.0449-0.8799-0.1328-1.1465s-0.2109-0.4746-0.3691-0.625
			c-0.1582-0.1484-0.3584-0.25-0.6016-0.3027c-0.1816-0.041-0.5371-0.0615-1.0684-0.0615H298.0566z"/>
		<path fill="#FFFFFF" d="M303.2598,108.7236v-6.4424h4.7773v1.0898h-3.4766v1.4287h3.2344v1.085h-3.2344v1.7529h3.5996v1.0859
			H303.2598z"/>
		<path fill="#FFFFFF" d="M309.2979,108.7236v-6.3896h1.3008v5.3037h3.2344v1.0859H309.2979z"/>
		<path fill="#FFFFFF" d="M255.6719,119.5234v-6.4424h2.0869c0.791,0,1.3066,0.0322,1.5469,0.0967
			c0.3691,0.0967,0.6787,0.3066,0.9268,0.6309c0.25,0.3232,0.374,0.7422,0.374,1.2539c0,0.3965-0.0713,0.7285-0.2158,0.998
			c-0.1426,0.2695-0.3262,0.4814-0.5469,0.6348c-0.2207,0.1543-0.4453,0.2559-0.6738,0.3057
			c-0.3105,0.0615-0.7607,0.0928-1.3496,0.0928h-0.8477v2.4297H255.6719z M256.9727,114.1709v1.8281h0.7109
			c0.5137,0,0.8555-0.0332,1.0293-0.1006c0.1719-0.0674,0.3076-0.1729,0.4063-0.3164c0.0977-0.1436,0.1465-0.3105,0.1465-0.502
			c0-0.2334-0.0684-0.4268-0.2061-0.5801c-0.1377-0.1514-0.3115-0.2471-0.5225-0.2852c-0.1563-0.0293-0.4678-0.0439-0.9365-0.0439
			H256.9727z"/>
		<path fill="#FFFFFF" d="M261.6787,119.5234v-6.4424h2.7373c0.6895,0,1.1895,0.0576,1.501,0.1738
			c0.3125,0.1152,0.5615,0.3213,0.749,0.6172s0.2813,0.6348,0.2813,1.0146c0,0.4844-0.1416,0.8828-0.4258,1.1982
			c-0.2842,0.3145-0.709,0.5137-1.2744,0.5947c0.2813,0.165,0.5127,0.3447,0.6963,0.541s0.4297,0.5449,0.7402,1.0459l0.7871,1.2568
			h-1.5557l-0.9404-1.4023c-0.334-0.5-0.5625-0.8164-0.6855-0.9463c-0.123-0.1309-0.2539-0.2197-0.3906-0.2686
			c-0.1387-0.0479-0.3564-0.0723-0.6553-0.0723h-0.2637v2.6895H261.6787z M262.9795,115.8057h0.9619
			c0.625,0,1.0137-0.0264,1.1699-0.0791c0.1543-0.0527,0.2764-0.1436,0.3643-0.2725s0.1318-0.29,0.1318-0.4834
			c0-0.2168-0.0586-0.3916-0.1738-0.5254c-0.1152-0.1328-0.2793-0.2168-0.4902-0.252c-0.1055-0.0146-0.4219-0.0225-0.9492-0.0225
			h-1.0146V115.8057z"/>
		<path fill="#FFFFFF" d="M267.9102,116.3418c0-0.6563,0.0977-1.207,0.2949-1.6523c0.1465-0.3281,0.3457-0.6221,0.5996-0.8828
			c0.2529-0.2607,0.5313-0.4541,0.832-0.5801c0.4023-0.1699,0.8652-0.2559,1.3887-0.2559c0.9492,0,1.709,0.2949,2.2793,0.8838
			c0.5693,0.5889,0.8545,1.4082,0.8545,2.4561c0,1.041-0.2822,1.8545-0.8486,2.4414c-0.5645,0.5879-1.3203,0.8809-2.2676,0.8809
			c-0.957,0-1.7188-0.292-2.2852-0.876C268.1934,118.1719,267.9102,117.3672,267.9102,116.3418z M269.25,116.2979
			c0,0.7295,0.1689,1.2822,0.5059,1.6592c0.3369,0.376,0.7646,0.5645,1.2832,0.5645s0.9434-0.1865,1.2773-0.5605
			c0.332-0.373,0.498-0.9336,0.498-1.6807c0-0.7383-0.1621-1.2891-0.4863-1.6523c-0.3232-0.3633-0.7529-0.5449-1.2891-0.5449
			s-0.9688,0.1836-1.2969,0.5518C269.4141,115.002,269.25,115.5566,269.25,116.2979z"/>
		<path fill="#FFFFFF" d="M276.8662,119.5234v-2.7109l-2.3604-3.7314h1.5254l1.5156,2.5488l1.4863-2.5488h1.498l-2.3691,3.7393
			v2.7031H276.8662z"/>
		<path fill="#FFFFFF" d="M281.1777,119.5234v-6.4424h4.7764v1.0898h-3.4756v1.4287h3.2344v1.085h-3.2344v1.7529h3.5986v1.0859
			H281.1777z"/>
		<path fill="#FFFFFF" d="M291.3027,117.1543l1.2607,0.4004c-0.1934,0.7031-0.5146,1.2256-0.9648,1.5664
			c-0.4502,0.3418-1.0205,0.5117-1.7119,0.5117c-0.8555,0-1.5586-0.292-2.1094-0.876c-0.5508-0.585-0.8262-1.3838-0.8262-2.3975
			c0-1.0723,0.2773-1.9053,0.8311-2.498c0.5537-0.5938,1.2822-0.8906,2.1846-0.8906c0.7871,0,1.4277,0.2334,1.9199,0.6992
			c0.293,0.2754,0.5127,0.6709,0.6592,1.1865l-1.2881,0.3076c-0.0762-0.334-0.2344-0.5977-0.4766-0.791
			c-0.2412-0.1934-0.5352-0.29-0.8809-0.29c-0.4775,0-0.8652,0.1709-1.1621,0.5146c-0.2979,0.3418-0.4463,0.8975-0.4463,1.665
			c0,0.8145,0.1465,1.3945,0.4395,1.7402s0.6738,0.5186,1.1426,0.5186c0.3457,0,0.6436-0.1094,0.8916-0.3301
			C291.0156,117.9727,291.1934,117.627,291.3027,117.1543z"/>
		<path fill="#FFFFFF" d="M295.1299,119.5234v-5.3525h-1.9111v-1.0898h5.1191v1.0898h-1.9072v5.3525H295.1299z"/>
		<path fill="#FFFFFF" d="M298.751,116.3418c0-0.6563,0.0986-1.207,0.2939-1.6523c0.1465-0.3281,0.3467-0.6221,0.5996-0.8828
			c0.2539-0.2607,0.5313-0.4541,0.834-0.5801c0.4004-0.1699,0.8633-0.2559,1.3887-0.2559c0.9492,0,1.708,0.2949,2.2773,0.8838
			c0.5703,0.5889,0.8555,1.4082,0.8555,2.4561c0,1.041-0.2832,1.8545-0.8477,2.4414c-0.5664,0.5879-1.3223,0.8809-2.2676,0.8809
			c-0.959,0-1.7207-0.292-2.2852-0.876C299.0332,118.1719,298.751,117.3672,298.751,116.3418z M300.0918,116.2979
			c0,0.7295,0.168,1.2822,0.5049,1.6592c0.3369,0.376,0.7646,0.5645,1.2832,0.5645s0.9443-0.1865,1.2764-0.5605
			c0.332-0.373,0.499-0.9336,0.499-1.6807c0-0.7383-0.1621-1.2891-0.4854-1.6523c-0.3242-0.3633-0.7539-0.5449-1.29-0.5449
			s-0.9678,0.1836-1.2959,0.5518C300.2559,115.002,300.0918,115.5566,300.0918,116.2979z"/>
	</g>
	<g>
		<path fill="#FFFFFF" d="M333.9668,108.7236h-1.416l-0.5625-1.4629h-2.5742l-0.5322,1.4629h-1.3799l2.5098-6.4424h1.375
			L333.9668,108.7236z M331.5713,106.1748l-0.8877-2.3906l-0.8701,2.3906H331.5713z"/>
		<path fill="#FFFFFF" d="M334.6523,102.2813h2.377c0.5361,0,0.9453,0.041,1.2266,0.123c0.377,0.1113,0.7012,0.3096,0.9707,0.5928
			c0.2695,0.2852,0.4746,0.6328,0.6152,1.0439c0.1406,0.4121,0.2109,0.9199,0.2109,1.5225c0,0.5313-0.0664,0.9883-0.1973,1.3711
			c-0.1621,0.4697-0.3916,0.8486-0.6904,1.1387c-0.2256,0.2197-0.5303,0.3906-0.9141,0.5137
			c-0.2871,0.0918-0.6709,0.1367-1.1514,0.1367h-2.4473V102.2813z M335.9531,103.3711v4.2666h0.9707
			c0.3633,0,0.625-0.0195,0.7871-0.0605c0.2109-0.0527,0.3848-0.1426,0.5254-0.2686c0.1387-0.126,0.252-0.333,0.3398-0.6221
			c0.0879-0.2881,0.1318-0.6816,0.1318-1.1797s-0.0439-0.8799-0.1318-1.1465s-0.2109-0.4746-0.3691-0.625
			c-0.1582-0.1484-0.3594-0.25-0.6016-0.3027c-0.1816-0.041-0.5381-0.0615-1.0684-0.0615H335.9531z"/>
		<path fill="#FFFFFF" d="M341.1387,108.7236v-6.4424h1.9463l1.1689,4.3945l1.1563-4.3945h1.9512v6.4424h-1.209v-5.0713
			l-1.2793,5.0713h-1.252l-1.2744-5.0713v5.0713H341.1387z"/>
		<path fill="#FFFFFF" d="M348.6133,108.7236v-6.4424h1.3008v6.4424H348.6133z"/>
		<path fill="#FFFFFF" d="M351.166,108.7236v-6.4424h1.2656l2.6367,4.3018v-4.3018h1.209v6.4424h-1.3047l-2.5977-4.2012v4.2012
			H351.166z"/>
		<path fill="#FFFFFF" d="M357.6133,108.7236v-6.4424h1.3008v6.4424H357.6133z"/>
		<path fill="#FFFFFF" d="M359.8242,106.6279l1.2656-0.123c0.0762,0.4248,0.2305,0.7363,0.4629,0.9355s0.5469,0.2988,0.9434,0.2988
			c0.418,0,0.7344-0.0889,0.9473-0.2656c0.2109-0.1777,0.3184-0.3848,0.3184-0.6221c0-0.1523-0.0449-0.2822-0.1348-0.3887
			c-0.0898-0.1074-0.2451-0.2002-0.4678-0.2793c-0.1523-0.0527-0.499-0.1465-1.042-0.2813
			c-0.6973-0.1729-1.1855-0.3848-1.4668-0.6377c-0.3965-0.3535-0.5938-0.7861-0.5938-1.2959c0-0.3281,0.0928-0.6348,0.2793-0.9209
			c0.1855-0.2852,0.4531-0.5029,0.8047-0.6523c0.3496-0.1494,0.7715-0.2246,1.2676-0.2246c0.8086,0,1.416,0.1777,1.8262,0.5322
			c0.4082,0.3545,0.623,0.8281,0.6426,1.4189l-1.3008,0.0576c-0.0547-0.3311-0.1748-0.5693-0.3574-0.7139
			c-0.1836-0.1455-0.458-0.2178-0.8242-0.2178c-0.3779,0-0.6738,0.0781-0.8877,0.2334c-0.1377,0.0996-0.2061,0.2324-0.2061,0.3994
			c0,0.1523,0.0645,0.2832,0.1934,0.3916c0.1641,0.1377,0.5625,0.2813,1.1953,0.4297c0.6328,0.1504,1.0996,0.3047,1.4043,0.4639
			c0.3027,0.1602,0.5391,0.3779,0.7109,0.6553c0.1719,0.2764,0.2578,0.6191,0.2578,1.0254c0,0.3691-0.1035,0.7158-0.3086,1.0371
			c-0.2051,0.3232-0.4941,0.5625-0.8691,0.7188c-0.375,0.1572-0.8428,0.2354-1.4023,0.2354c-0.8145,0-1.4395-0.1885-1.877-0.5645
			C360.1699,107.8965,359.9082,107.3486,359.8242,106.6279z"/>
		<path fill="#FFFFFF" d="M367.6064,108.7236v-5.3525h-1.9111v-1.0898h5.1191v1.0898h-1.9072v5.3525H367.6064z"/>
		<path fill="#FFFFFF" d="M371.6582,108.7236v-6.4424h2.7383c0.6875,0,1.1885,0.0576,1.5,0.1738
			c0.3125,0.1152,0.5625,0.3213,0.75,0.6172s0.2813,0.6348,0.2813,1.0146c0,0.4844-0.1426,0.8828-0.4268,1.1982
			c-0.2842,0.3145-0.709,0.5137-1.2744,0.5947c0.2813,0.165,0.5137,0.3447,0.6963,0.541s0.4307,0.5449,0.7412,1.0459l0.7861,1.2568
			h-1.5557l-0.9404-1.4023c-0.334-0.5-0.5625-0.8164-0.6855-0.9463c-0.123-0.1309-0.2529-0.2197-0.3916-0.2686
			c-0.1367-0.0479-0.3555-0.0723-0.6543-0.0723h-0.2637v2.6895H371.6582z M372.959,105.0059h0.9629
			c0.623,0,1.0137-0.0264,1.168-0.0791c0.1563-0.0527,0.2773-0.1436,0.3652-0.2725s0.1318-0.29,0.1318-0.4834
			c0-0.2168-0.0576-0.3916-0.1738-0.5254c-0.1162-0.1328-0.2783-0.2168-0.4893-0.252c-0.1055-0.0146-0.4219-0.0225-0.9492-0.0225
			h-1.0156V105.0059z"/>
		<path fill="#FFFFFF" d="M383.9629,108.7236h-1.415l-0.5625-1.4629h-2.5752l-0.5313,1.4629h-1.3809l2.5098-6.4424h1.375
			L383.9629,108.7236z M381.5684,106.1748l-0.8887-2.3906l-0.8691,2.3906H381.5684z"/>
		<path fill="#FFFFFF" d="M388.7754,106.3545l1.2607,0.4004c-0.1934,0.7031-0.5146,1.2256-0.9648,1.5664
			c-0.4502,0.3418-1.0205,0.5117-1.7119,0.5117c-0.8555,0-1.5586-0.292-2.1094-0.876c-0.5508-0.585-0.8262-1.3838-0.8262-2.3975
			c0-1.0723,0.2773-1.9053,0.8311-2.498c0.5537-0.5938,1.2822-0.8906,2.1846-0.8906c0.7871,0,1.4277,0.2334,1.9199,0.6992
			c0.293,0.2754,0.5127,0.6709,0.6592,1.1865l-1.2881,0.3076c-0.0762-0.334-0.2344-0.5977-0.4766-0.791
			c-0.2412-0.1934-0.5352-0.29-0.8809-0.29c-0.4775,0-0.8652,0.1709-1.1621,0.5146c-0.2979,0.3418-0.4463,0.8975-0.4463,1.665
			c0,0.8145,0.1465,1.3945,0.4395,1.7402s0.6738,0.5186,1.1426,0.5186c0.3457,0,0.6436-0.1094,0.8916-0.3301
			C388.4883,107.1729,388.666,106.8271,388.7754,106.3545z"/>
		<path fill="#FFFFFF" d="M391.1133,108.7236v-6.4424h1.3008v6.4424H391.1133z"/>
		<path fill="#FFFFFF" d="M393.3887,105.542c0-0.6563,0.0986-1.207,0.2949-1.6523c0.1465-0.3281,0.3457-0.6221,0.5996-0.8828
			s0.5313-0.4541,0.833-0.5801c0.4014-0.1699,0.8643-0.2559,1.3887-0.2559c0.9492,0,1.708,0.2949,2.2783,0.8838
			s0.8555,1.4082,0.8555,2.4561c0,1.041-0.2832,1.8545-0.8486,2.4414c-0.5654,0.5879-1.3213,0.8809-2.2676,0.8809
			c-0.958,0-1.7197-0.292-2.2852-0.876C393.6719,107.3721,393.3887,106.5674,393.3887,105.542z M394.7295,105.498
			c0,0.7295,0.1689,1.2822,0.5049,1.6592c0.3379,0.376,0.7656,0.5645,1.2832,0.5645c0.5195,0,0.9443-0.1865,1.2773-0.5605
			c0.332-0.373,0.498-0.9336,0.498-1.6807c0-0.7383-0.1621-1.2891-0.4854-1.6523s-0.7529-0.5449-1.29-0.5449
			c-0.5352,0-0.9678,0.1836-1.2959,0.5518C394.8936,104.2021,394.7295,104.7568,394.7295,105.498z M395.7139,101.9121l0.6064-1.3135
			h1.3848l-1.209,1.3135H395.7139z"/>
		<path fill="#FFFFFF" d="M400.666,108.7236v-6.4424h1.2656l2.6367,4.3018v-4.3018h1.209v6.4424h-1.3047l-2.5977-4.2012v4.2012
			H400.666z"/>
		<path fill="#FFFFFF" d="M329.1436,113.0811h2.3779c0.5352,0,0.9443,0.041,1.2256,0.123c0.3779,0.1113,0.7021,0.3096,0.9717,0.5928
			c0.2695,0.2852,0.4746,0.6328,0.6152,1.0439c0.1406,0.4121,0.2109,0.9199,0.2109,1.5225c0,0.5313-0.0664,0.9883-0.1982,1.3711
			c-0.1611,0.4697-0.3916,0.8486-0.6904,1.1387c-0.2246,0.2197-0.5293,0.3906-0.9141,0.5137
			c-0.2871,0.0918-0.6699,0.1367-1.1504,0.1367h-2.4482V113.0811z M330.4443,114.1709v4.2666h0.9717
			c0.3633,0,0.625-0.0195,0.7861-0.0605c0.2109-0.0527,0.3857-0.1426,0.5254-0.2686c0.1387-0.126,0.2529-0.333,0.3408-0.6221
			c0.0879-0.2881,0.1309-0.6816,0.1309-1.1797s-0.043-0.8799-0.1309-1.1465s-0.2109-0.4746-0.3691-0.625
			c-0.1582-0.1484-0.3594-0.25-0.6025-0.3027c-0.1816-0.041-0.5381-0.0615-1.0674-0.0615H330.4443z"/>
		<path fill="#FFFFFF" d="M335.6475,119.5234v-6.4424h4.7764v1.0898h-3.4756v1.4287h3.2344v1.085h-3.2344v1.7529h3.5986v1.0859
			H335.6475z"/>
		<path fill="#FFFFFF" d="M344.1855,119.5234v-6.3896h1.3008v5.3037h3.2344v1.0859H344.1855z"/>
		<path fill="#FFFFFF" d="M349.3848,116.3418c0-0.6563,0.0977-1.207,0.2949-1.6523c0.1465-0.3281,0.3457-0.6221,0.5996-0.8828
			c0.2529-0.2607,0.5313-0.4541,0.832-0.5801c0.4023-0.1699,0.8652-0.2559,1.3887-0.2559c0.9492,0,1.709,0.2949,2.2793,0.8838
			c0.5693,0.5889,0.8545,1.4082,0.8545,2.4561c0,1.041-0.2822,1.8545-0.8486,2.4414c-0.5645,0.5879-1.3203,0.8809-2.2676,0.8809
			c-0.957,0-1.7188-0.292-2.2852-0.876C349.668,118.1719,349.3848,117.3672,349.3848,116.3418z M350.7246,116.2979
			c0,0.7295,0.1689,1.2822,0.5059,1.6592c0.3369,0.376,0.7646,0.5645,1.2832,0.5645s0.9434-0.1865,1.2773-0.5605
			c0.332-0.373,0.498-0.9336,0.498-1.6807c0-0.7383-0.1621-1.2891-0.4863-1.6523c-0.3232-0.3633-0.7529-0.5449-1.2891-0.5449
			s-0.9688,0.1836-1.2969,0.5518C350.8887,115.002,350.7246,115.5566,350.7246,116.2979z"/>
		<path fill="#FFFFFF" d="M356.3193,117.4277l1.2656-0.123c0.0762,0.4248,0.2305,0.7363,0.4639,0.9355
			c0.2324,0.1992,0.5469,0.2988,0.9424,0.2988c0.4189,0,0.7344-0.0889,0.9473-0.2656c0.2119-0.1777,0.3184-0.3848,0.3184-0.6221
			c0-0.1523-0.0449-0.2822-0.1338-0.3887c-0.0898-0.1074-0.2461-0.2002-0.4688-0.2793c-0.1523-0.0527-0.499-0.1465-1.041-0.2813
			c-0.6973-0.1729-1.1865-0.3848-1.4678-0.6377c-0.3955-0.3535-0.5928-0.7861-0.5928-1.2959c0-0.3281,0.0918-0.6348,0.2783-0.9209
			c0.1865-0.2852,0.4541-0.5029,0.8047-0.6523c0.3496-0.1494,0.7725-0.2246,1.2676-0.2246c0.8086,0,1.417,0.1777,1.8262,0.5322
			c0.4082,0.3545,0.623,0.8281,0.6436,1.4189l-1.3008,0.0576c-0.0557-0.3311-0.1758-0.5693-0.3584-0.7139
			c-0.1826-0.1455-0.458-0.2178-0.8232-0.2178c-0.3789,0-0.6738,0.0781-0.8887,0.2334c-0.1367,0.0996-0.2061,0.2324-0.2061,0.3994
			c0,0.1523,0.0645,0.2832,0.1934,0.3916c0.1641,0.1377,0.5625,0.2813,1.1953,0.4297c0.6328,0.1504,1.1006,0.3047,1.4043,0.4639
			c0.3027,0.1602,0.54,0.3779,0.7119,0.6553c0.1709,0.2764,0.2568,0.6191,0.2568,1.0254c0,0.3691-0.1025,0.7158-0.3076,1.0371
			c-0.2051,0.3232-0.4951,0.5625-0.8701,0.7188c-0.375,0.1572-0.8428,0.2354-1.4014,0.2354c-0.8145,0-1.4404-0.1885-1.877-0.5645
			C356.665,118.6963,356.4043,118.1484,356.3193,117.4277z"/>
		<path fill="#FFFFFF" d="M365.1563,119.5234v-6.4424h2.7383c0.6885,0,1.1895,0.0576,1.5,0.1738
			c0.3125,0.1152,0.5625,0.3213,0.75,0.6172s0.2813,0.6348,0.2813,1.0146c0,0.4844-0.1426,0.8828-0.4258,1.1982
			c-0.2852,0.3145-0.709,0.5137-1.2754,0.5947c0.2813,0.165,0.5137,0.3447,0.6973,0.541c0.1826,0.1963,0.4297,0.5449,0.7402,1.0459
			l0.7871,1.2568h-1.5566l-0.9395-1.4023c-0.334-0.5-0.5625-0.8164-0.6855-0.9463c-0.123-0.1309-0.2539-0.2197-0.3916-0.2686
			c-0.1377-0.0479-0.3564-0.0723-0.6553-0.0723h-0.2637v2.6895H365.1563z M366.457,115.8057h0.9629
			c0.624,0,1.0137-0.0264,1.1689-0.0791s0.2764-0.1436,0.3643-0.2725s0.1328-0.29,0.1328-0.4834
			c0-0.2168-0.0586-0.3916-0.1738-0.5254c-0.1162-0.1328-0.2793-0.2168-0.4902-0.252c-0.1055-0.0146-0.4219-0.0225-0.9492-0.0225
			h-1.0156V115.8057z"/>
		<path fill="#FFFFFF" d="M371.6123,119.5234v-6.4424h1.3008v6.4424H371.6123z"/>
		<path fill="#FFFFFF" d="M374.1523,119.5234v-6.4424h4.7773v1.0898h-3.4766v1.4287h3.2344v1.085h-3.2344v1.7529h3.5996v1.0859
			H374.1523z"/>
		<path fill="#FFFFFF" d="M379.8262,117.4277l1.2656-0.123c0.0762,0.4248,0.2305,0.7363,0.4629,0.9355s0.5469,0.2988,0.9434,0.2988
			c0.418,0,0.7344-0.0889,0.9473-0.2656c0.2109-0.1777,0.3184-0.3848,0.3184-0.6221c0-0.1523-0.0449-0.2822-0.1348-0.3887
			c-0.0898-0.1074-0.2451-0.2002-0.4678-0.2793c-0.1523-0.0527-0.499-0.1465-1.042-0.2813
			c-0.6973-0.1729-1.1855-0.3848-1.4668-0.6377c-0.3965-0.3535-0.5938-0.7861-0.5938-1.2959c0-0.3281,0.0928-0.6348,0.2793-0.9209
			c0.1855-0.2852,0.4531-0.5029,0.8047-0.6523c0.3496-0.1494,0.7715-0.2246,1.2676-0.2246c0.8086,0,1.416,0.1777,1.8262,0.5322
			c0.4082,0.3545,0.623,0.8281,0.6426,1.4189l-1.3008,0.0576c-0.0547-0.3311-0.1748-0.5693-0.3574-0.7139
			c-0.1836-0.1455-0.458-0.2178-0.8242-0.2178c-0.3779,0-0.6738,0.0781-0.8877,0.2334c-0.1377,0.0996-0.2061,0.2324-0.2061,0.3994
			c0,0.1523,0.0645,0.2832,0.1934,0.3916c0.1641,0.1377,0.5625,0.2813,1.1953,0.4297c0.6328,0.1504,1.0996,0.3047,1.4043,0.4639
			c0.3027,0.1602,0.5391,0.3779,0.7109,0.6553c0.1719,0.2764,0.2578,0.6191,0.2578,1.0254c0,0.3691-0.1035,0.7158-0.3086,1.0371
			c-0.2051,0.3232-0.4941,0.5625-0.8691,0.7188c-0.375,0.1572-0.8428,0.2354-1.4023,0.2354c-0.8145,0-1.4395-0.1885-1.877-0.5645
			C380.1719,118.6963,379.9102,118.1484,379.8262,117.4277z"/>
		<path fill="#FFFFFF" d="M389.1553,117.1543v-1.085h2.8037v2.5664c-0.2725,0.2637-0.668,0.4961-1.1836,0.6963
			c-0.5176,0.2012-1.041,0.3008-1.5723,0.3008c-0.6738,0-1.2607-0.1406-1.7617-0.4238c-0.501-0.2822-0.877-0.6865-1.1289-1.2129
			c-0.252-0.5254-0.3789-1.0977-0.3789-1.7158c0-0.6709,0.1406-1.2666,0.4219-1.7881s0.6934-0.9219,1.2354-1.2002
			c0.4131-0.2139,0.9268-0.3213,1.542-0.3213c0.8008,0,1.4248,0.168,1.875,0.5039c0.4492,0.335,0.7383,0.7988,0.8672,1.3906
			l-1.291,0.2422c-0.0918-0.3164-0.2617-0.5664-0.5117-0.75c-0.252-0.1826-0.5645-0.2744-0.9395-0.2744
			c-0.5684,0-1.0195,0.1807-1.3555,0.54c-0.3359,0.3613-0.5029,0.8955-0.5029,1.6045c0,0.7646,0.1699,1.3379,0.5098,1.7207
			c0.3398,0.3818,0.7852,0.5732,1.3359,0.5732c0.2725,0,0.5459-0.0537,0.8193-0.1602c0.2734-0.1074,0.5098-0.2363,0.7051-0.3887
			v-0.8184H389.1553z"/>
		<path fill="#FFFFFF" d="M392.8945,116.3418c0-0.6563,0.0986-1.207,0.2949-1.6523c0.1465-0.3281,0.3457-0.6221,0.5996-0.8828
			s0.5313-0.4541,0.833-0.5801c0.4014-0.1699,0.8643-0.2559,1.3887-0.2559c0.9492,0,1.708,0.2949,2.2783,0.8838
			s0.8555,1.4082,0.8555,2.4561c0,1.041-0.2832,1.8545-0.8486,2.4414c-0.5654,0.5879-1.3213,0.8809-2.2676,0.8809
			c-0.958,0-1.7197-0.292-2.2852-0.876C393.1777,118.1719,392.8945,117.3672,392.8945,116.3418z M394.2354,116.2979
			c0,0.7295,0.1689,1.2822,0.5049,1.6592c0.3379,0.376,0.7656,0.5645,1.2832,0.5645c0.5195,0,0.9443-0.1865,1.2773-0.5605
			c0.332-0.373,0.498-0.9336,0.498-1.6807c0-0.7383-0.1621-1.2891-0.4854-1.6523s-0.7529-0.5449-1.29-0.5449
			c-0.5352,0-0.9678,0.1836-1.2959,0.5518C394.3994,115.002,394.2354,115.5566,394.2354,116.2979z"/>
		<path fill="#FFFFFF" d="M399.8301,117.4277l1.2656-0.123c0.0762,0.4248,0.2305,0.7363,0.4629,0.9355s0.5469,0.2988,0.9434,0.2988
			c0.418,0,0.7344-0.0889,0.9473-0.2656c0.2109-0.1777,0.3184-0.3848,0.3184-0.6221c0-0.1523-0.0449-0.2822-0.1348-0.3887
			c-0.0898-0.1074-0.2451-0.2002-0.4678-0.2793c-0.1523-0.0527-0.499-0.1465-1.042-0.2813
			c-0.6973-0.1729-1.1855-0.3848-1.4668-0.6377c-0.3965-0.3535-0.5938-0.7861-0.5938-1.2959c0-0.3281,0.0928-0.6348,0.2793-0.9209
			c0.1855-0.2852,0.4531-0.5029,0.8047-0.6523c0.3496-0.1494,0.7715-0.2246,1.2676-0.2246c0.8086,0,1.416,0.1777,1.8262,0.5322
			c0.4082,0.3545,0.623,0.8281,0.6426,1.4189l-1.3008,0.0576c-0.0547-0.3311-0.1748-0.5693-0.3574-0.7139
			c-0.1836-0.1455-0.458-0.2178-0.8242-0.2178c-0.3779,0-0.6738,0.0781-0.8877,0.2334c-0.1377,0.0996-0.2061,0.2324-0.2061,0.3994
			c0,0.1523,0.0645,0.2832,0.1934,0.3916c0.1641,0.1377,0.5625,0.2813,1.1953,0.4297c0.6328,0.1504,1.0996,0.3047,1.4043,0.4639
			c0.3027,0.1602,0.5391,0.3779,0.7109,0.6553c0.1719,0.2764,0.2578,0.6191,0.2578,1.0254c0,0.3691-0.1035,0.7158-0.3086,1.0371
			c-0.2051,0.3232-0.4941,0.5625-0.8691,0.7188c-0.375,0.1572-0.8428,0.2354-1.4023,0.2354c-0.8145,0-1.4395-0.1885-1.877-0.5645
			C400.1758,118.6963,399.9141,118.1484,399.8301,117.4277z"/>
	</g>
	<rect x="88" fill="#75C6F0" width="144" height="48"/>
	<g>
		<path fill="#FFFFFF" d="M112.8516,21.5391h-1.2349v-4.6543c-0.4512,0.4219-0.9829,0.7344-1.5952,0.9365v-1.1201
			c0.3223-0.1055,0.6724-0.3057,1.0503-0.6006c0.3779-0.2939,0.6372-0.6377,0.7778-1.0303h1.002V21.5391z"/>
		<path fill="#FFFFFF" d="M114.9609,21.5391v-1.2344h1.2349v1.2344H114.9609z"/>
		<path fill="#FFFFFF" d="M119.9707,21.5391v-6.4424h4.7769v1.0898h-3.4761v1.4287h3.2344v1.085h-3.2344v1.7529h3.5991v1.0859
			H119.9707z"/>
		<path fill="#FFFFFF" d="M125.644,19.4434l1.2656-0.123c0.0762,0.4248,0.2305,0.7363,0.4639,0.9355
			c0.2324,0.1992,0.5469,0.2988,0.9424,0.2988c0.4189,0,0.7344-0.0889,0.9473-0.2656c0.2119-0.1777,0.3184-0.3848,0.3184-0.6221
			c0-0.1523-0.0449-0.2822-0.1338-0.3887c-0.0898-0.1074-0.2456-0.2002-0.4683-0.2793c-0.1523-0.0527-0.4995-0.1465-1.0415-0.2813
			c-0.6973-0.1729-1.1865-0.3848-1.4678-0.6377c-0.3955-0.3535-0.5933-0.7861-0.5933-1.2959c0-0.3281,0.0928-0.6348,0.2788-0.9209
			c0.186-0.2852,0.4541-0.5029,0.8047-0.6523c0.3496-0.1494,0.7725-0.2246,1.2676-0.2246c0.8086,0,1.417,0.1777,1.8262,0.5322
			c0.4082,0.3545,0.623,0.8281,0.6436,1.4189l-1.3008,0.0576c-0.0557-0.3311-0.1753-0.5693-0.3584-0.7139
			c-0.1831-0.1455-0.4575-0.2178-0.8237-0.2178c-0.3779,0-0.6738,0.0781-0.8877,0.2334c-0.1377,0.0996-0.2065,0.2324-0.2065,0.3994
			c0,0.1523,0.0645,0.2832,0.1934,0.3916c0.1641,0.1377,0.5625,0.2813,1.1953,0.4297c0.6328,0.1504,1.1006,0.3047,1.4043,0.4639
			c0.3027,0.1602,0.54,0.3779,0.7119,0.6553c0.1709,0.2764,0.2568,0.6191,0.2568,1.0254c0,0.3691-0.1025,0.7158-0.3076,1.0371
			c-0.2051,0.3232-0.4951,0.5625-0.8701,0.7188c-0.375,0.1572-0.8423,0.2354-1.4019,0.2354c-0.8145,0-1.4399-0.1885-1.8765-0.5645
			C125.9897,20.7119,125.729,20.1641,125.644,19.4434z"/>
		<path fill="#FFFFFF" d="M131.9766,21.5391v-6.4424h2.0874c0.791,0,1.3066,0.0322,1.5469,0.0967
			c0.3691,0.0967,0.6782,0.3066,0.9272,0.6309c0.249,0.3232,0.3735,0.7422,0.3735,1.2539c0,0.3965-0.0718,0.7285-0.2153,0.998
			s-0.3262,0.4814-0.5474,0.6348c-0.2212,0.1543-0.4458,0.2559-0.6743,0.3057c-0.3105,0.0615-0.7603,0.0928-1.3491,0.0928h-0.8481
			v2.4297H131.9766z M133.2773,16.1865v1.8281h0.7119c0.5127,0,0.8555-0.0332,1.0283-0.1006s0.3081-0.1729,0.4067-0.3164
			c0.0977-0.1436,0.147-0.3105,0.147-0.502c0-0.2334-0.0688-0.4268-0.2065-0.5801c-0.1377-0.1514-0.312-0.2471-0.5229-0.2852
			c-0.1553-0.0293-0.4673-0.0439-0.936-0.0439H133.2773z"/>
		<path fill="#FFFFFF" d="M137.9795,21.5391v-6.4424h4.7769v1.0898h-3.4761v1.4287h3.2344v1.085h-3.2344v1.7529h3.5991v1.0859
			H137.9795z"/>
		<path fill="#FFFFFF" d="M148.1045,19.1699l1.2612,0.4004c-0.1934,0.7031-0.5151,1.2256-0.9648,1.5664
			c-0.4497,0.3418-1.02,0.5117-1.7114,0.5117c-0.8555,0-1.5586-0.292-2.1094-0.876c-0.5508-0.585-0.8262-1.3838-0.8262-2.3975
			c0-1.0723,0.2769-1.9053,0.8306-2.498c0.5537-0.5938,1.2817-0.8906,2.1841-0.8906c0.7881,0,1.4282,0.2334,1.9204,0.6992
			c0.293,0.2754,0.5127,0.6709,0.6592,1.1865l-1.2876,0.3076c-0.0762-0.334-0.2349-0.5977-0.4771-0.791
			c-0.2412-0.1934-0.5352-0.29-0.8809-0.29c-0.4775,0-0.8652,0.1709-1.1621,0.5146c-0.2979,0.3418-0.4463,0.8975-0.4463,1.665
			c0,0.8145,0.1465,1.3945,0.4395,1.7402s0.6738,0.5186,1.1426,0.5186c0.3457,0,0.6431-0.1094,0.8921-0.3301
			C147.8174,19.9883,147.9961,19.6426,148.1045,19.1699z"/>
		<path fill="#FFFFFF" d="M150.4424,21.5391v-6.4424h1.3008v6.4424H150.4424z"/>
		<path fill="#FFFFFF" d="M152.9912,21.5391v-6.4424h4.4165v1.0898h-3.1157v1.5244h2.6895v1.0898h-2.6895v2.7383H152.9912z"/>
		<path fill="#FFFFFF" d="M158.4404,21.5391v-6.4424h1.3008v6.4424H158.4404z"/>
		<path fill="#FFFFFF" d="M165.1025,19.1699l1.2612,0.4004c-0.1934,0.7031-0.5151,1.2256-0.9648,1.5664
			c-0.4497,0.3418-1.02,0.5117-1.7114,0.5117c-0.8555,0-1.5586-0.292-2.1094-0.876c-0.5508-0.585-0.8262-1.3838-0.8262-2.3975
			c0-1.0723,0.2769-1.9053,0.8306-2.498c0.5537-0.5938,1.2817-0.8906,2.1841-0.8906c0.7881,0,1.4282,0.2334,1.9204,0.6992
			c0.293,0.2754,0.5127,0.6709,0.6592,1.1865l-1.2876,0.3076c-0.0762-0.334-0.2349-0.5977-0.4771-0.791
			c-0.2412-0.1934-0.5352-0.29-0.8809-0.29c-0.4775,0-0.8652,0.1709-1.1621,0.5146c-0.2979,0.3418-0.4463,0.8975-0.4463,1.665
			c0,0.8145,0.1465,1.3945,0.4395,1.7402s0.6738,0.5186,1.1426,0.5186c0.3457,0,0.6431-0.1094,0.8921-0.3301
			C164.8154,19.9883,164.9941,19.6426,165.1025,19.1699z"/>
		<path fill="#FFFFFF" d="M173.2896,21.5391h-1.415l-0.5625-1.4629h-2.5752l-0.5317,1.4629h-1.3799l2.5093-6.4424h1.3755
			L173.2896,21.5391z M170.8945,18.9902l-0.8877-2.3906l-0.8701,2.3906H170.8945z"/>
		<path fill="#FFFFFF" d="M178.1016,19.1699l1.2612,0.4004c-0.1934,0.7031-0.5151,1.2256-0.9648,1.5664
			c-0.4497,0.3418-1.02,0.5117-1.7114,0.5117c-0.8555,0-1.5586-0.292-2.1094-0.876c-0.5508-0.585-0.8262-1.3838-0.8262-2.3975
			c0-1.0723,0.2769-1.9053,0.8306-2.498c0.5537-0.5938,1.2817-0.8906,2.1841-0.8906c0.7881,0,1.4282,0.2334,1.9204,0.6992
			c0.293,0.2754,0.5127,0.6709,0.6592,1.1865l-1.2876,0.3076c-0.0762-0.334-0.2349-0.5977-0.4771-0.791
			c-0.2412-0.1934-0.5352-0.29-0.8809-0.29c-0.4775,0-0.8652,0.1709-1.1621,0.5146c-0.2979,0.3418-0.4463,0.8975-0.4463,1.665
			c0,0.8145,0.1465,1.3945,0.4395,1.7402s0.6738,0.5186,1.1426,0.5186c0.3457,0,0.6431-0.1094,0.8921-0.3301
			C177.8145,19.9883,177.9932,19.6426,178.1016,19.1699z"/>
		<path fill="#FFFFFF" d="M180.4395,21.5391v-6.4424h1.3008v6.4424H180.4395z"/>
		<path fill="#FFFFFF" d="M182.7158,18.3574c0-0.6563,0.0981-1.207,0.2944-1.6523c0.1465-0.3281,0.3462-0.6221,0.5996-0.8828
			s0.5313-0.4541,0.833-0.5801c0.4014-0.1699,0.8643-0.2559,1.3887-0.2559c0.9492,0,1.7085,0.2949,2.2783,0.8838
			s0.855,1.4082,0.855,2.4561c0,1.041-0.2827,1.8545-0.8481,2.4414c-0.5654,0.5879-1.3213,0.8809-2.2676,0.8809
			c-0.958,0-1.7197-0.292-2.2852-0.876C182.9985,20.1875,182.7158,19.3828,182.7158,18.3574z M184.0562,18.3135
			c0,0.7295,0.1685,1.2822,0.5054,1.6592c0.3369,0.376,0.7646,0.5645,1.2832,0.5645s0.9438-0.1865,1.2769-0.5605
			c0.332-0.373,0.4985-0.9336,0.4985-1.6807c0-0.7383-0.1621-1.2891-0.4858-1.6523s-0.7534-0.5449-1.2896-0.5449
			s-0.9683,0.1836-1.2964,0.5518C184.2202,17.0176,184.0562,17.5723,184.0562,18.3135z M185.0405,14.7275l0.6064-1.3135h1.3843
			l-1.2085,1.3135H185.0405z"/>
		<path fill="#FFFFFF" d="M189.9932,21.5391v-6.4424h1.2656l2.6367,4.3018v-4.3018h1.2085v6.4424h-1.3052l-2.5972-4.2012v4.2012
			H189.9932z"/>
		<path fill="#FFFFFF" d="M198.9756,15.0967h2.3774c0.5361,0,0.9448,0.041,1.2261,0.123c0.3779,0.1113,0.7017,0.3096,0.9712,0.5928
			c0.2695,0.2852,0.4746,0.6328,0.6152,1.0439c0.1406,0.4121,0.2109,0.9199,0.2109,1.5225c0,0.5313-0.0659,0.9883-0.1978,1.3711
			c-0.1611,0.4697-0.3911,0.8486-0.6899,1.1387c-0.2256,0.2197-0.5303,0.3906-0.9141,0.5137
			c-0.2871,0.0918-0.6709,0.1367-1.1514,0.1367h-2.4478V15.0967z M200.2764,16.1865v4.2666h0.9712
			c0.3633,0,0.6255-0.0195,0.7866-0.0605c0.2109-0.0527,0.3857-0.1426,0.5254-0.2686c0.1387-0.126,0.2524-0.333,0.3403-0.6221
			c0.0879-0.2881,0.1318-0.6816,0.1318-1.1797s-0.0439-0.8799-0.1318-1.1465s-0.2109-0.4746-0.3691-0.625
			c-0.1582-0.1484-0.3589-0.25-0.6021-0.3027c-0.1816-0.041-0.5376-0.0615-1.0679-0.0615H200.2764z"/>
		<path fill="#FFFFFF" d="M205.4795,21.5391v-6.4424h4.7764v1.0898h-3.4756v1.4287h3.2344v1.085h-3.2344v1.7529h3.5986v1.0859
			H205.4795z"/>
		<path fill="#FFFFFF" d="M119.8057,32.3389v-6.4424h2.7378c0.6885,0,1.189,0.0576,1.5005,0.1738
			c0.3125,0.1152,0.562,0.3213,0.7495,0.6172s0.2813,0.6348,0.2813,1.0146c0,0.4844-0.1421,0.8828-0.4263,1.1982
			c-0.2842,0.3145-0.709,0.5137-1.2744,0.5947c0.2813,0.165,0.5132,0.3447,0.6963,0.541s0.4302,0.5449,0.7407,1.0459l0.7866,1.2568
			h-1.5557l-0.9404-1.4023c-0.334-0.5-0.5625-0.8164-0.6855-0.9463c-0.123-0.1309-0.2534-0.2197-0.3911-0.2686
			c-0.1377-0.0479-0.356-0.0723-0.6548-0.0723h-0.2637v2.6895H119.8057z M121.1064,28.6211h0.9624
			c0.624,0,1.0137-0.0264,1.1689-0.0791s0.2769-0.1436,0.3647-0.2725s0.1318-0.29,0.1318-0.4834
			c0-0.2168-0.0581-0.3916-0.1738-0.5254c-0.1157-0.1328-0.2788-0.2168-0.4897-0.252c-0.1055-0.0146-0.4219-0.0225-0.9492-0.0225
			h-1.0151V28.6211z"/>
		<path fill="#FFFFFF" d="M126.3008,32.3389v-6.4424h4.7769v1.0898h-3.4761v1.4287h3.2344V29.5h-3.2344v1.7529h3.5991v1.0859
			H126.3008z"/>
		<path fill="#FFFFFF" d="M137.4893,31.5215c0.3193,0.2285,0.6665,0.4102,1.0415,0.5449l-0.479,0.9189
			c-0.1963-0.0596-0.3882-0.1396-0.5757-0.2422c-0.041-0.0205-0.3296-0.2109-0.8657-0.5713
			c-0.4219,0.1846-0.8892,0.2764-1.4019,0.2764c-0.9902,0-1.7661-0.291-2.3271-0.874s-0.8413-1.4014-0.8413-2.4561
			c0-1.0518,0.2813-1.8701,0.8438-2.4551c0.5625-0.584,1.3257-0.877,2.2896-0.877c0.9551,0,1.7124,0.293,2.272,0.877
			c0.5596,0.585,0.8394,1.4033,0.8394,2.4551c0,0.5566-0.0776,1.0449-0.2329,1.4668
			C137.9346,30.9082,137.7471,31.2197,137.4893,31.5215z M136.4434,30.7881c0.167-0.1963,0.2925-0.4336,0.3755-0.7129
			c0.084-0.2773,0.1255-0.5977,0.1255-0.957c0-0.7441-0.1641-1.3008-0.4922-1.668c-0.3281-0.3682-0.7573-0.5518-1.2876-0.5518
			s-0.96,0.1846-1.29,0.5537c-0.3291,0.3691-0.4941,0.9248-0.4941,1.666c0,0.7529,0.165,1.3154,0.4941,1.6895
			c0.3301,0.373,0.7466,0.5605,1.2505,0.5605c0.1875,0,0.3647-0.0313,0.5317-0.0928c-0.2637-0.1729-0.5317-0.3076-0.8042-0.4043
			l0.3647-0.7432C135.645,30.2754,136.0537,30.4951,136.4434,30.7881z"/>
		<path fill="#FFFFFF" d="M139.2954,25.8965h1.3008v3.4893c0,0.5537,0.0161,0.9131,0.0483,1.0762
			c0.0557,0.2637,0.188,0.4756,0.3975,0.6357c0.2095,0.1592,0.4961,0.2393,0.8594,0.2393c0.3691,0,0.6475-0.0752,0.835-0.2266
			c0.1875-0.1504,0.3003-0.3359,0.3384-0.5557s0.0571-0.585,0.0571-1.0947v-3.5635h1.3008v3.3838
			c0,0.7734-0.0352,1.3203-0.1055,1.6387c-0.0703,0.3203-0.2002,0.5898-0.3887,0.8086c-0.1895,0.2207-0.4419,0.3955-0.7583,0.5254
			c-0.3164,0.1309-0.7295,0.1953-1.2393,0.1953c-0.6152,0-1.082-0.0703-1.3999-0.2129c-0.3179-0.1416-0.5688-0.3262-0.7534-0.5537
			c-0.1846-0.2266-0.3062-0.4648-0.3647-0.7139c-0.085-0.3691-0.1274-0.9141-0.1274-1.6348V25.8965z"/>
		<path fill="#FFFFFF" d="M145.8037,32.3389v-6.4424h4.7769v1.0898h-3.4761v1.4287h3.2344V29.5h-3.2344v1.7529h3.5991v1.0859
			H145.8037z"/>
		<path fill="#FFFFFF" d="M151.811,32.3389v-6.4424h2.7378c0.6885,0,1.189,0.0576,1.5005,0.1738
			c0.3125,0.1152,0.562,0.3213,0.7495,0.6172s0.2813,0.6348,0.2813,1.0146c0,0.4844-0.1421,0.8828-0.4263,1.1982
			c-0.2842,0.3145-0.709,0.5137-1.2744,0.5947c0.2813,0.165,0.5132,0.3447,0.6963,0.541s0.4302,0.5449,0.7407,1.0459l0.7866,1.2568
			h-1.5557l-0.9404-1.4023c-0.334-0.5-0.5625-0.8164-0.6855-0.9463c-0.123-0.1309-0.2534-0.2197-0.3911-0.2686
			c-0.1377-0.0479-0.356-0.0723-0.6548-0.0723h-0.2637v2.6895H151.811z M153.1118,28.6211h0.9624
			c0.624,0,1.0137-0.0264,1.1689-0.0791s0.2769-0.1436,0.3647-0.2725s0.1318-0.29,0.1318-0.4834
			c0-0.2168-0.0581-0.3916-0.1738-0.5254c-0.1157-0.1328-0.2788-0.2168-0.4897-0.252c-0.1055-0.0146-0.4219-0.0225-0.9492-0.0225
			h-1.0151V28.6211z"/>
		<path fill="#FFFFFF" d="M158.2666,32.3389v-6.4424h1.3008v6.4424H158.2666z"/>
		<path fill="#FFFFFF" d="M160.7891,32.3389v-6.4424h1.9468l1.1689,4.3945l1.1558-4.3945h1.9512v6.4424h-1.2085v-5.0713
			l-1.2788,5.0713h-1.2524l-1.2744-5.0713v5.0713H160.7891z"/>
		<path fill="#FFFFFF" d="M168.2642,32.3389v-6.4424h1.3008v6.4424H168.2642z"/>
		<path fill="#FFFFFF" d="M170.8042,32.3389v-6.4424h4.7769v1.0898h-3.4761v1.4287h3.2344V29.5h-3.2344v1.7529h3.5991v1.0859
			H170.8042z"/>
		<path fill="#FFFFFF" d="M176.8203,32.3389v-6.4424h1.2656l2.6367,4.3018v-4.3018h1.2085v6.4424h-1.3052l-2.5972-4.2012v4.2012
			H176.8203z"/>
		<path fill="#FFFFFF" d="M184.7568,32.3389v-5.3525h-1.9116v-1.0898h5.1196v1.0898h-1.9072v5.3525H184.7568z"/>
		<path fill="#FFFFFF" d="M188.3779,29.1572c0-0.6563,0.0981-1.207,0.2944-1.6523c0.1465-0.3281,0.3462-0.6221,0.5996-0.8828
			s0.5313-0.4541,0.833-0.5801c0.4014-0.1699,0.8643-0.2559,1.3887-0.2559c0.9492,0,1.7085,0.2949,2.2783,0.8838
			s0.855,1.4082,0.855,2.4561c0,1.041-0.2827,1.8545-0.8481,2.4414c-0.5654,0.5879-1.3213,0.8809-2.2676,0.8809
			c-0.958,0-1.7197-0.292-2.2852-0.876C188.6606,30.9873,188.3779,30.1826,188.3779,29.1572z M189.7183,29.1133
			c0,0.7295,0.1685,1.2822,0.5054,1.6592c0.3369,0.376,0.7646,0.5645,1.2832,0.5645s0.9438-0.1865,1.2769-0.5605
			c0.332-0.373,0.4985-0.9336,0.4985-1.6807c0-0.7383-0.1621-1.2891-0.4858-1.6523s-0.7534-0.5449-1.2896-0.5449
			s-0.9683,0.1836-1.2964,0.5518C189.8823,27.8174,189.7183,28.3721,189.7183,29.1133z"/>
		<path fill="#FFFFFF" d="M195.3125,30.2432l1.2656-0.123c0.0762,0.4248,0.2305,0.7363,0.4639,0.9355
			c0.2324,0.1992,0.5469,0.2988,0.9424,0.2988c0.4189,0,0.7344-0.0889,0.9473-0.2656c0.2119-0.1777,0.3184-0.3848,0.3184-0.6221
			c0-0.1523-0.0449-0.2822-0.1338-0.3887c-0.0898-0.1074-0.2456-0.2002-0.4683-0.2793c-0.1523-0.0527-0.4995-0.1465-1.0415-0.2813
			c-0.6973-0.1729-1.1865-0.3848-1.4678-0.6377c-0.3955-0.3535-0.5933-0.7861-0.5933-1.2959c0-0.3281,0.0928-0.6348,0.2788-0.9209
			c0.186-0.2852,0.4541-0.5029,0.8047-0.6523c0.3496-0.1494,0.7725-0.2246,1.2676-0.2246c0.8086,0,1.417,0.1777,1.8262,0.5322
			c0.4082,0.3545,0.623,0.8281,0.6436,1.4189l-1.3008,0.0576c-0.0557-0.3311-0.1753-0.5693-0.3584-0.7139
			c-0.1831-0.1455-0.4575-0.2178-0.8237-0.2178c-0.3779,0-0.6738,0.0781-0.8877,0.2334c-0.1377,0.0996-0.2065,0.2324-0.2065,0.3994
			c0,0.1523,0.0645,0.2832,0.1934,0.3916c0.1641,0.1377,0.5625,0.2813,1.1953,0.4297c0.6328,0.1504,1.1006,0.3047,1.4043,0.4639
			c0.3027,0.1602,0.54,0.3779,0.7119,0.6553c0.1709,0.2764,0.2568,0.6191,0.2568,1.0254c0,0.3691-0.1025,0.7158-0.3076,1.0371
			c-0.2051,0.3232-0.4951,0.5625-0.8701,0.7188c-0.375,0.1572-0.8423,0.2354-1.4019,0.2354c-0.8145,0-1.4399-0.1885-1.8765-0.5645
			C195.6582,31.5117,195.3975,30.9639,195.3125,30.2432z"/>
	</g>
	<rect x="88" y="51" fill="#75C6F0" width="144" height="38"/>
	<g>
		<path fill="#FFFFFF" d="M129.8672,71.3926v1.1465h-4.3286c0.0469-0.4336,0.1875-0.8447,0.4219-1.2324
			c0.2344-0.3887,0.6973-0.9033,1.3887-1.5449c0.5566-0.5186,0.8979-0.8701,1.0239-1.0547
			c0.1699-0.2549,0.2549-0.5068,0.2549-0.7559c0-0.2754-0.0742-0.4873-0.2217-0.6348c-0.1484-0.1484-0.3525-0.2227-0.6133-0.2227
			c-0.2578,0-0.4629,0.0781-0.6152,0.2334s-0.2402,0.4131-0.2637,0.7734l-1.2305-0.123c0.0732-0.6797,0.3032-1.167,0.6899-1.4639
			c0.3867-0.2949,0.8701-0.4434,1.4502-0.4434c0.6357,0,1.1353,0.1719,1.4985,0.5137c0.3633,0.3438,0.5449,0.7695,0.5449,1.2793
			c0,0.29-0.0522,0.5664-0.1563,0.8281c-0.104,0.2627-0.2686,0.5371-0.4941,0.8242c-0.1494,0.1904-0.4189,0.4648-0.8086,0.8223
			s-0.6367,0.5947-0.7402,0.7109c-0.1045,0.1182-0.1885,0.2324-0.2529,0.3438H129.8672z"/>
		<path fill="#FFFFFF" d="M130.9658,72.5391v-1.2344h1.2349v1.2344H130.9658z"/>
		<path fill="#FFFFFF" d="M135.9756,72.5391v-6.4424h2.0874c0.791,0,1.3066,0.0322,1.5469,0.0967
			c0.3691,0.0967,0.6782,0.3066,0.9272,0.6309c0.249,0.3232,0.3735,0.7422,0.3735,1.2539c0,0.3965-0.0718,0.7285-0.2153,0.998
			s-0.3262,0.4814-0.5474,0.6348c-0.2212,0.1543-0.4458,0.2559-0.6743,0.3057c-0.3105,0.0615-0.7603,0.0928-1.3491,0.0928h-0.8481
			v2.4297H135.9756z M137.2764,67.1865v1.8281h0.7119c0.5127,0,0.8555-0.0332,1.0283-0.1006s0.3081-0.1729,0.4067-0.3164
			c0.0977-0.1436,0.147-0.3105,0.147-0.502c0-0.2334-0.0688-0.4268-0.2065-0.5801c-0.1377-0.1514-0.312-0.2471-0.5229-0.2852
			c-0.1553-0.0293-0.4673-0.0439-0.936-0.0439H137.2764z"/>
		<path fill="#FFFFFF" d="M142.0137,72.5391v-6.3896h1.3008v5.3037h3.2344v1.0859H142.0137z"/>
		<path fill="#FFFFFF" d="M153.2856,72.5391h-1.415l-0.5625-1.4629h-2.5752l-0.5317,1.4629h-1.3799l2.5093-6.4424h1.3755
			L153.2856,72.5391z M150.8906,69.9902l-0.8877-2.3906l-0.8701,2.3906H150.8906z"/>
		<path fill="#FFFFFF" d="M153.9888,72.5391v-6.4424h1.2656l2.6367,4.3018v-4.3018h1.2085v6.4424h-1.3052l-2.5972-4.2012v4.2012
			H153.9888z"/>
		<path fill="#FFFFFF" d="M160.4751,72.5391v-6.4424h4.7769v1.0898h-3.4761v1.4287h3.2344v1.085h-3.2344v1.7529h3.5991v1.0859
			H160.4751z"/>
		<path fill="#FFFFFF" d="M172.2876,72.5391h-1.415l-0.5625-1.4629h-2.5752l-0.5317,1.4629h-1.3799l2.5093-6.4424h1.3755
			L172.2876,72.5391z M169.8926,69.9902l-0.8877-2.3906l-0.8701,2.3906H169.8926z"/>
		<path fill="#FFFFFF" d="M177.0996,70.1699l1.2612,0.4004c-0.1934,0.7031-0.5151,1.2256-0.9648,1.5664
			c-0.4497,0.3418-1.02,0.5117-1.7114,0.5117c-0.8555,0-1.5586-0.292-2.1094-0.876c-0.5508-0.585-0.8262-1.3838-0.8262-2.3975
			c0-1.0723,0.2769-1.9053,0.8306-2.498c0.5537-0.5938,1.2817-0.8906,2.1841-0.8906c0.7881,0,1.4282,0.2334,1.9204,0.6992
			c0.293,0.2754,0.5127,0.6709,0.6592,1.1865l-1.2876,0.3076c-0.0762-0.334-0.2349-0.5977-0.4771-0.791
			c-0.2412-0.1934-0.5352-0.29-0.8809-0.29c-0.4775,0-0.8652,0.1709-1.1621,0.5146c-0.2979,0.3418-0.4463,0.8975-0.4463,1.665
			c0,0.8145,0.1465,1.3945,0.4395,1.7402s0.6738,0.5186,1.1426,0.5186c0.3457,0,0.6431-0.1094,0.8921-0.3301
			C176.8125,70.9883,176.9912,70.6426,177.0996,70.1699z"/>
		<path fill="#FFFFFF" d="M179.4375,72.5391v-6.4424h1.3008v6.4424H179.4375z"/>
		<path fill="#FFFFFF" d="M181.7139,69.3574c0-0.6563,0.0981-1.207,0.2944-1.6523c0.1465-0.3281,0.3462-0.6221,0.5996-0.8828
			s0.5313-0.4541,0.833-0.5801c0.4014-0.1699,0.8643-0.2559,1.3887-0.2559c0.9492,0,1.7085,0.2949,2.2783,0.8838
			s0.855,1.4082,0.855,2.4561c0,1.041-0.2827,1.8545-0.8481,2.4414c-0.5654,0.5879-1.3213,0.8809-2.2676,0.8809
			c-0.958,0-1.7197-0.292-2.2852-0.876C181.9966,71.1875,181.7139,70.3828,181.7139,69.3574z M183.0542,69.3135
			c0,0.7295,0.1685,1.2822,0.5054,1.6592c0.3369,0.376,0.7646,0.5645,1.2832,0.5645s0.9438-0.1865,1.2769-0.5605
			c0.332-0.373,0.4985-0.9336,0.4985-1.6807c0-0.7383-0.1621-1.2891-0.4858-1.6523s-0.7534-0.5449-1.2896-0.5449
			s-0.9683,0.1836-1.2964,0.5518C183.2183,68.0176,183.0542,68.5723,183.0542,69.3135z M184.0386,65.7275l0.6064-1.3135h1.3843
			l-1.2085,1.3135H184.0386z"/>
		<path fill="#FFFFFF" d="M188.9912,72.5391v-6.4424h1.2656l2.6367,4.3018v-4.3018h1.2085v6.4424h-1.3052l-2.5972-4.2012v4.2012
			H188.9912z"/>
	</g>
	<rect x="88" y="93" fill="#75C6F0" width="144" height="38"/>
	<g>
		<path fill="#FFFFFF" d="M129.1548,112.8301l1.1953-0.1455c0.0381,0.3047,0.1406,0.5381,0.3076,0.6982
			c0.167,0.1621,0.3691,0.2422,0.6064,0.2422c0.2549,0,0.4692-0.0967,0.644-0.29c0.1738-0.1934,0.2612-0.4541,0.2612-0.7822
			c0-0.3105-0.0835-0.5566-0.2505-0.7383s-0.3706-0.2725-0.6108-0.2725c-0.1582,0-0.3472,0.0303-0.5669,0.0928l0.1362-1.0068
			c0.334,0.0088,0.5889-0.0635,0.7646-0.2178c0.1758-0.1533,0.2637-0.3574,0.2637-0.6133c0-0.2158-0.0645-0.3887-0.1934-0.5176
			s-0.3003-0.1934-0.5142-0.1934c-0.2109,0-0.3911,0.0732-0.5405,0.2188c-0.1494,0.1475-0.2402,0.3613-0.2725,0.6426l-1.1382-0.1934
			c0.0791-0.3896,0.1982-0.7012,0.3584-0.9346c0.1592-0.2324,0.3818-0.416,0.668-0.5488c0.2852-0.1338,0.6055-0.2002,0.96-0.2002
			c0.6064,0,1.0928,0.1934,1.459,0.5801c0.3018,0.3164,0.4526,0.6738,0.4526,1.0723c0,0.5654-0.3091,1.0166-0.9272,1.3535
			c0.3691,0.0791,0.6641,0.2568,0.8857,0.5313c0.2207,0.2764,0.3315,0.6084,0.3315,0.998c0,0.5654-0.2065,1.0479-0.6196,1.4453
			c-0.4131,0.3994-0.9272,0.5977-1.5425,0.5977c-0.583,0-1.0664-0.167-1.4502-0.5029
			C129.439,113.8105,129.2163,113.3721,129.1548,112.8301z"/>
		<path fill="#FFFFFF" d="M134.4678,114.5391v-1.2344h1.2349v1.2344H134.4678z"/>
		<path fill="#FFFFFF" d="M139.46,114.5391v-6.4424h1.9468l1.1689,4.3945l1.1558-4.3945h1.9512v6.4424h-1.2085v-5.0713
			l-1.2788,5.0713h-1.2524l-1.2744-5.0713v5.0713H139.46z"/>
		<path fill="#FFFFFF" d="M146.7109,111.3574c0-0.6563,0.0981-1.207,0.2944-1.6523c0.1465-0.3281,0.3462-0.6221,0.5996-0.8828
			s0.5313-0.4541,0.833-0.5801c0.4014-0.1699,0.8643-0.2559,1.3887-0.2559c0.9492,0,1.7085,0.2949,2.2783,0.8838
			s0.855,1.4082,0.855,2.4561c0,1.041-0.2827,1.8545-0.8481,2.4414c-0.5654,0.5879-1.3213,0.8809-2.2676,0.8809
			c-0.958,0-1.7197-0.292-2.2852-0.876C146.9937,113.1875,146.7109,112.3828,146.7109,111.3574z M148.0513,111.3135
			c0,0.7295,0.1685,1.2822,0.5054,1.6592c0.3369,0.376,0.7646,0.5645,1.2832,0.5645s0.9438-0.1865,1.2769-0.5605
			c0.332-0.373,0.4985-0.9336,0.4985-1.6807c0-0.7383-0.1621-1.2891-0.4858-1.6523s-0.7534-0.5449-1.2896-0.5449
			s-0.9683,0.1836-1.2964,0.5518C148.2153,110.0176,148.0513,110.5723,148.0513,111.3135z"/>
		<path fill="#FFFFFF" d="M153.9707,108.0967h2.3774c0.5361,0,0.9448,0.041,1.2261,0.123c0.3779,0.1113,0.7017,0.3096,0.9712,0.5928
			c0.2695,0.2852,0.4746,0.6328,0.6152,1.0439c0.1406,0.4121,0.2109,0.9199,0.2109,1.5225c0,0.5313-0.0659,0.9883-0.1978,1.3711
			c-0.1611,0.4697-0.3911,0.8486-0.6899,1.1387c-0.2256,0.2197-0.5303,0.3906-0.9141,0.5137
			c-0.2871,0.0918-0.6709,0.1367-1.1514,0.1367h-2.4478V108.0967z M155.2715,109.1865v4.2666h0.9712
			c0.3633,0,0.6255-0.0195,0.7866-0.0605c0.2109-0.0527,0.3857-0.1426,0.5254-0.2686c0.1387-0.126,0.2524-0.333,0.3403-0.6221
			c0.0879-0.2881,0.1318-0.6816,0.1318-1.1797s-0.0439-0.8799-0.1318-1.1465s-0.2109-0.4746-0.3691-0.625
			c-0.1582-0.1484-0.3589-0.25-0.6021-0.3027c-0.1816-0.041-0.5376-0.0615-1.0679-0.0615H155.2715z"/>
		<path fill="#FFFFFF" d="M160.4746,114.5391v-6.4424h4.7769v1.0898h-3.4761v1.4287h3.2344v1.085h-3.2344v1.7529h3.5991v1.0859
			H160.4746z"/>
		<path fill="#FFFFFF" d="M166.5127,114.5391v-6.3896h1.3008v5.3037h3.2344v1.0859H166.5127z"/>
		<path fill="#FFFFFF" d="M177.7847,114.5391h-1.415l-0.5625-1.4629h-2.5752l-0.5317,1.4629h-1.3799l2.5093-6.4424h1.3755
			L177.7847,114.5391z M175.3896,111.9902l-0.8877-2.3906l-0.8701,2.3906H175.3896z"/>
		<path fill="#FFFFFF" d="M178.4702,108.0967h2.3774c0.5361,0,0.9448,0.041,1.2261,0.123c0.3779,0.1113,0.7017,0.3096,0.9712,0.5928
			c0.2695,0.2852,0.4746,0.6328,0.6152,1.0439c0.1406,0.4121,0.2109,0.9199,0.2109,1.5225c0,0.5313-0.0659,0.9883-0.1978,1.3711
			c-0.1611,0.4697-0.3911,0.8486-0.6899,1.1387c-0.2256,0.2197-0.5303,0.3906-0.9141,0.5137
			c-0.2871,0.0918-0.6709,0.1367-1.1514,0.1367h-2.4478V108.0967z M179.771,109.1865v4.2666h0.9712
			c0.3633,0,0.6255-0.0195,0.7866-0.0605c0.2109-0.0527,0.3857-0.1426,0.5254-0.2686c0.1387-0.126,0.2524-0.333,0.3403-0.6221
			c0.0879-0.2881,0.1318-0.6816,0.1318-1.1797s-0.0439-0.8799-0.1318-1.1465s-0.2109-0.4746-0.3691-0.625
			c-0.1582-0.1484-0.3589-0.25-0.6021-0.3027c-0.1816-0.041-0.5376-0.0615-1.0679-0.0615H179.771z"/>
		<path fill="#FFFFFF" d="M184.7104,111.3574c0-0.6563,0.0981-1.207,0.2944-1.6523c0.1465-0.3281,0.3462-0.6221,0.5996-0.8828
			s0.5313-0.4541,0.833-0.5801c0.4014-0.1699,0.8643-0.2559,1.3887-0.2559c0.9492,0,1.7085,0.2949,2.2783,0.8838
			s0.855,1.4082,0.855,2.4561c0,1.041-0.2827,1.8545-0.8481,2.4414c-0.5654,0.5879-1.3213,0.8809-2.2676,0.8809
			c-0.958,0-1.7197-0.292-2.2852-0.876C184.9932,113.1875,184.7104,112.3828,184.7104,111.3574z M186.0508,111.3135
			c0,0.7295,0.1685,1.2822,0.5054,1.6592c0.3369,0.376,0.7646,0.5645,1.2832,0.5645s0.9438-0.1865,1.2769-0.5605
			c0.332-0.373,0.4985-0.9336,0.4985-1.6807c0-0.7383-0.1621-1.2891-0.4858-1.6523s-0.7534-0.5449-1.2896-0.5449
			s-0.9683,0.1836-1.2964,0.5518C186.2148,110.0176,186.0508,110.5723,186.0508,111.3135z"/>
	</g>
	<rect x="88" y="135" fill="#75C6F0" width="144" height="38"/>
	<g>
		<path fill="#FFFFFF" d="M126.3691,156.5391v-1.2969h-2.6367v-1.0801l2.7949-4.0918h1.0371v4.0869h0.7998v1.085h-0.7998v1.2969
			H126.3691z M126.3691,154.1572v-2.2021l-1.481,2.2021H126.3691z"/>
		<path fill="#FFFFFF" d="M129.2168,156.5391v-1.2344h1.2349v1.2344H129.2168z"/>
		<path fill="#FFFFFF" d="M134.2222,150.0967h2.3774c0.5361,0,0.9448,0.041,1.2261,0.123c0.3779,0.1113,0.7017,0.3096,0.9712,0.5928
			c0.2695,0.2852,0.4746,0.6328,0.6152,1.0439c0.1406,0.4121,0.2109,0.9199,0.2109,1.5225c0,0.5313-0.0659,0.9883-0.1978,1.3711
			c-0.1611,0.4697-0.3911,0.8486-0.6899,1.1387c-0.2256,0.2197-0.5303,0.3906-0.9141,0.5137
			c-0.2871,0.0918-0.6709,0.1367-1.1514,0.1367h-2.4478V150.0967z M135.5229,151.1865v4.2666h0.9712
			c0.3633,0,0.6255-0.0195,0.7866-0.0605c0.2109-0.0527,0.3857-0.1426,0.5254-0.2686c0.1387-0.126,0.2524-0.333,0.3403-0.6221
			c0.0879-0.2881,0.1318-0.6816,0.1318-1.1797s-0.0439-0.8799-0.1318-1.1465s-0.2109-0.4746-0.3691-0.625
			c-0.1582-0.1484-0.3589-0.25-0.6021-0.3027c-0.1816-0.041-0.5376-0.0615-1.0679-0.0615H135.5229z"/>
		<path fill="#FFFFFF" d="M140.7261,156.5391v-6.4424h4.7769v1.0898h-3.4761v1.4287h3.2344v1.085h-3.2344v1.7529h3.5991v1.0859
			H140.7261z"/>
		<path fill="#FFFFFF" d="M146.3994,154.4434l1.2656-0.123c0.0762,0.4248,0.2305,0.7363,0.4639,0.9355
			c0.2324,0.1992,0.5469,0.2988,0.9424,0.2988c0.4189,0,0.7344-0.0889,0.9473-0.2656c0.2119-0.1777,0.3184-0.3848,0.3184-0.6221
			c0-0.1523-0.0449-0.2822-0.1338-0.3887c-0.0898-0.1074-0.2456-0.2002-0.4683-0.2793c-0.1523-0.0527-0.4995-0.1465-1.0415-0.2813
			c-0.6973-0.1729-1.1865-0.3848-1.4678-0.6377c-0.3955-0.3535-0.5933-0.7861-0.5933-1.2959c0-0.3281,0.0928-0.6348,0.2788-0.9209
			c0.186-0.2852,0.4541-0.5029,0.8047-0.6523c0.3496-0.1494,0.7725-0.2246,1.2676-0.2246c0.8086,0,1.417,0.1777,1.8262,0.5322
			c0.4082,0.3545,0.623,0.8281,0.6436,1.4189l-1.3008,0.0576c-0.0557-0.3311-0.1753-0.5693-0.3584-0.7139
			c-0.1831-0.1455-0.4575-0.2178-0.8237-0.2178c-0.3779,0-0.6738,0.0781-0.8877,0.2334c-0.1377,0.0996-0.2065,0.2324-0.2065,0.3994
			c0,0.1523,0.0645,0.2832,0.1934,0.3916c0.1641,0.1377,0.5625,0.2813,1.1953,0.4297c0.6328,0.1504,1.1006,0.3047,1.4043,0.4639
			c0.3027,0.1602,0.54,0.3779,0.7119,0.6553c0.1709,0.2764,0.2568,0.6191,0.2568,1.0254c0,0.3691-0.1025,0.7158-0.3076,1.0371
			c-0.2051,0.3232-0.4951,0.5625-0.8701,0.7188c-0.375,0.1572-0.8423,0.2354-1.4019,0.2354c-0.8145,0-1.4399-0.1885-1.8765-0.5645
			C146.7451,155.7119,146.4844,155.1641,146.3994,154.4434z"/>
		<path fill="#FFFFFF" d="M158.5415,156.5391h-1.415l-0.5625-1.4629h-2.5752l-0.5317,1.4629h-1.3799l2.5093-6.4424h1.3755
			L158.5415,156.5391z M156.1465,153.9902l-0.8877-2.3906l-0.8701,2.3906H156.1465z"/>
		<path fill="#FFFFFF" d="M159.2358,156.5391v-6.4424h2.7378c0.6885,0,1.189,0.0576,1.5005,0.1738
			c0.3125,0.1152,0.562,0.3213,0.7495,0.6172s0.2813,0.6348,0.2813,1.0146c0,0.4844-0.1421,0.8828-0.4263,1.1982
			c-0.2842,0.3145-0.709,0.5137-1.2744,0.5947c0.2813,0.165,0.5132,0.3447,0.6963,0.541s0.4302,0.5449,0.7407,1.0459l0.7866,1.2568
			h-1.5557l-0.9404-1.4023c-0.334-0.5-0.5625-0.8164-0.6855-0.9463c-0.123-0.1309-0.2534-0.2197-0.3911-0.2686
			c-0.1377-0.0479-0.356-0.0723-0.6548-0.0723h-0.2637v2.6895H159.2358z M160.5366,152.8213h0.9624
			c0.624,0,1.0137-0.0264,1.1689-0.0791s0.2769-0.1436,0.3647-0.2725s0.1318-0.29,0.1318-0.4834
			c0-0.2168-0.0581-0.3916-0.1738-0.5254c-0.1157-0.1328-0.2788-0.2168-0.4897-0.252c-0.1055-0.0146-0.4219-0.0225-0.9492-0.0225
			h-1.0151V152.8213z"/>
		<path fill="#FFFFFF" d="M165.7354,156.5391v-6.4424h2.7378c0.6885,0,1.189,0.0576,1.5005,0.1738
			c0.3125,0.1152,0.562,0.3213,0.7495,0.6172s0.2813,0.6348,0.2813,1.0146c0,0.4844-0.1421,0.8828-0.4263,1.1982
			c-0.2842,0.3145-0.709,0.5137-1.2744,0.5947c0.2813,0.165,0.5132,0.3447,0.6963,0.541s0.4302,0.5449,0.7407,1.0459l0.7866,1.2568
			h-1.5557l-0.9404-1.4023c-0.334-0.5-0.5625-0.8164-0.6855-0.9463c-0.123-0.1309-0.2534-0.2197-0.3911-0.2686
			c-0.1377-0.0479-0.356-0.0723-0.6548-0.0723h-0.2637v2.6895H165.7354z M167.0361,152.8213h0.9624
			c0.624,0,1.0137-0.0264,1.1689-0.0791s0.2769-0.1436,0.3647-0.2725s0.1318-0.29,0.1318-0.4834
			c0-0.2168-0.0581-0.3916-0.1738-0.5254c-0.1157-0.1328-0.2788-0.2168-0.4897-0.252c-0.1055-0.0146-0.4219-0.0225-0.9492-0.0225
			h-1.0151V152.8213z"/>
		<path fill="#FFFFFF" d="M171.9668,153.3574c0-0.6563,0.0981-1.207,0.2944-1.6523c0.1465-0.3281,0.3462-0.6221,0.5996-0.8828
			s0.5313-0.4541,0.833-0.5801c0.4014-0.1699,0.8643-0.2559,1.3887-0.2559c0.9492,0,1.7085,0.2949,2.2783,0.8838
			s0.855,1.4082,0.855,2.4561c0,1.041-0.2827,1.8545-0.8481,2.4414c-0.5654,0.5879-1.3213,0.8809-2.2676,0.8809
			c-0.958,0-1.7197-0.292-2.2852-0.876C172.2495,155.1875,171.9668,154.3828,171.9668,153.3574z M173.3071,153.3135
			c0,0.7295,0.1685,1.2822,0.5054,1.6592c0.3369,0.376,0.7646,0.5645,1.2832,0.5645s0.9438-0.1865,1.2769-0.5605
			c0.332-0.373,0.4985-0.9336,0.4985-1.6807c0-0.7383-0.1621-1.2891-0.4858-1.6523s-0.7534-0.5449-1.2896-0.5449
			s-0.9683,0.1836-1.2964,0.5518C173.4712,152.0176,173.3071,152.5723,173.3071,153.3135z"/>
		<path fill="#FFFFFF" d="M179.2661,156.5391v-6.3896h1.3008v5.3037h3.2344v1.0859H179.2661z"/>
		<path fill="#FFFFFF" d="M184.7637,156.5391v-6.3896h1.3008v5.3037h3.2344v1.0859H184.7637z"/>
		<path fill="#FFFFFF" d="M189.9624,153.3574c0-0.6563,0.0981-1.207,0.2944-1.6523c0.1465-0.3281,0.3462-0.6221,0.5996-0.8828
			s0.5313-0.4541,0.833-0.5801c0.4014-0.1699,0.8643-0.2559,1.3887-0.2559c0.9492,0,1.7085,0.2949,2.2783,0.8838
			s0.855,1.4082,0.855,2.4561c0,1.041-0.2827,1.8545-0.8481,2.4414c-0.5654,0.5879-1.3213,0.8809-2.2676,0.8809
			c-0.958,0-1.7197-0.292-2.2852-0.876C190.2451,155.1875,189.9624,154.3828,189.9624,153.3574z M191.3027,153.3135
			c0,0.7295,0.1685,1.2822,0.5054,1.6592c0.3369,0.376,0.7646,0.5645,1.2832,0.5645s0.9438-0.1865,1.2769-0.5605
			c0.332-0.373,0.4985-0.9336,0.4985-1.6807c0-0.7383-0.1621-1.2891-0.4858-1.6523s-0.7534-0.5449-1.2896-0.5449
			s-0.9683,0.1836-1.2964,0.5518C191.4668,152.0176,191.3027,152.5723,191.3027,153.3135z"/>
	</g>
	<rect x="88" y="177" fill="#75C6F0" width="144" height="38"/>
	<g>
		<path fill="#FFFFFF" d="M121.3022,196.8828l1.2305-0.1279c0.0352,0.2783,0.1392,0.499,0.312,0.6611
			c0.1729,0.1631,0.3721,0.2441,0.5977,0.2441c0.2578,0,0.4761-0.1045,0.6548-0.3145c0.1787-0.209,0.2681-0.5254,0.2681-0.9473
			c0-0.3945-0.0889-0.6914-0.2656-0.8896c-0.1777-0.1973-0.4082-0.2959-0.6924-0.2959c-0.3545,0-0.6724,0.1563-0.9536,0.4697
			l-1.002-0.1455l0.6328-3.3525h3.2651v1.1553h-2.3291l-0.1934,1.0947c0.2754-0.1377,0.5566-0.2061,0.8438-0.2061
			c0.5479,0,1.0122,0.1992,1.3931,0.5977s0.5713,0.915,0.5713,1.5508c0,0.5303-0.1538,1.0039-0.4614,1.4199
			c-0.4189,0.5684-1.0005,0.8516-1.7446,0.8516c-0.5947,0-1.0796-0.1592-1.4546-0.4785S121.3755,197.4219,121.3022,196.8828z"/>
		<path fill="#FFFFFF" d="M126.5537,198.5391v-1.2344h1.2349v1.2344H126.5537z"/>
		<path fill="#FFFFFF" d="M131.5239,198.5391v-6.4424h1.3008v6.4424H131.5239z"/>
		<path fill="#FFFFFF" d="M134.0464,198.5391v-6.4424h1.9468l1.1689,4.3945l1.1558-4.3945h1.9512v6.4424h-1.2085v-5.0713
			l-1.2788,5.0713h-1.2524l-1.2744-5.0713v5.0713H134.0464z"/>
		<path fill="#FFFFFF" d="M141.561,198.5391v-6.4424h2.0874c0.791,0,1.3066,0.0322,1.5469,0.0967
			c0.3691,0.0967,0.6782,0.3066,0.9272,0.6309c0.249,0.3232,0.3735,0.7422,0.3735,1.2539c0,0.3965-0.0718,0.7285-0.2153,0.998
			s-0.3262,0.4814-0.5474,0.6348c-0.2212,0.1543-0.4458,0.2559-0.6743,0.3057c-0.3105,0.0615-0.7603,0.0928-1.3491,0.0928h-0.8481
			v2.4297H141.561z M142.8618,193.1865v1.8281h0.7119c0.5127,0,0.8555-0.0332,1.0283-0.1006s0.3081-0.1729,0.4067-0.3164
			c0.0977-0.1436,0.147-0.3105,0.147-0.502c0-0.2334-0.0688-0.4268-0.2065-0.5801c-0.1377-0.1514-0.312-0.2471-0.5229-0.2852
			c-0.1553-0.0293-0.4673-0.0439-0.936-0.0439H142.8618z"/>
		<path fill="#FFFFFF" d="M147.5991,198.5391v-6.3896h1.3008v5.3037h3.2344v1.0859H147.5991z"/>
		<path fill="#FFFFFF" d="M158.8711,198.5391h-1.415l-0.5625-1.4629h-2.5752l-0.5317,1.4629h-1.3799l2.5093-6.4424h1.3755
			L158.8711,198.5391z M156.4761,195.9902l-0.8877-2.3906l-0.8701,2.3906H156.4761z"/>
		<path fill="#FFFFFF" d="M159.5742,198.5391v-6.4424h1.2656l2.6367,4.3018v-4.3018h1.2085v6.4424h-1.3052l-2.5972-4.2012v4.2012
			H159.5742z"/>
		<path fill="#FFFFFF" d="M167.5107,198.5391v-5.3525h-1.9116v-1.0898h5.1196v1.0898h-1.9072v5.3525H167.5107z"/>
		<path fill="#FFFFFF" d="M176.6997,198.5391h-1.415l-0.5625-1.4629h-2.5752l-0.5317,1.4629h-1.3799l2.5093-6.4424h1.3755
			L176.6997,198.5391z M174.3047,195.9902l-0.8877-2.3906l-0.8701,2.3906H174.3047z"/>
		<path fill="#FFFFFF" d="M181.5117,196.1699l1.2612,0.4004c-0.1934,0.7031-0.5151,1.2256-0.9648,1.5664
			c-0.4497,0.3418-1.02,0.5117-1.7114,0.5117c-0.8555,0-1.5586-0.292-2.1094-0.876c-0.5508-0.585-0.8262-1.3838-0.8262-2.3975
			c0-1.0723,0.2769-1.9053,0.8306-2.498c0.5537-0.5938,1.2817-0.8906,2.1841-0.8906c0.7881,0,1.4282,0.2334,1.9204,0.6992
			c0.293,0.2754,0.5127,0.6709,0.6592,1.1865l-1.2876,0.3076c-0.0762-0.334-0.2349-0.5977-0.4771-0.791
			c-0.2412-0.1934-0.5352-0.29-0.8809-0.29c-0.4775,0-0.8652,0.1709-1.1621,0.5146c-0.2979,0.3418-0.4463,0.8975-0.4463,1.665
			c0,0.8145,0.1465,1.3945,0.4395,1.7402s0.6738,0.5186,1.1426,0.5186c0.3457,0,0.6431-0.1094,0.8921-0.3301
			C181.2246,196.9883,181.4033,196.6426,181.5117,196.1699z"/>
		<path fill="#FFFFFF" d="M183.8496,198.5391v-6.4424h1.3008v6.4424H183.8496z"/>
		<path fill="#FFFFFF" d="M186.126,195.3574c0-0.6563,0.0981-1.207,0.2944-1.6523c0.1465-0.3281,0.3462-0.6221,0.5996-0.8828
			s0.5313-0.4541,0.833-0.5801c0.4014-0.1699,0.8643-0.2559,1.3887-0.2559c0.9492,0,1.7085,0.2949,2.2783,0.8838
			s0.855,1.4082,0.855,2.4561c0,1.041-0.2827,1.8545-0.8481,2.4414c-0.5654,0.5879-1.3213,0.8809-2.2676,0.8809
			c-0.958,0-1.7197-0.292-2.2852-0.876C186.4087,197.1875,186.126,196.3828,186.126,195.3574z M187.4663,195.3135
			c0,0.7295,0.1685,1.2822,0.5054,1.6592c0.3369,0.376,0.7646,0.5645,1.2832,0.5645s0.9438-0.1865,1.2769-0.5605
			c0.332-0.373,0.4985-0.9336,0.4985-1.6807c0-0.7383-0.1621-1.2891-0.4858-1.6523s-0.7534-0.5449-1.2896-0.5449
			s-0.9683,0.1836-1.2964,0.5518C187.6304,194.0176,187.4663,194.5723,187.4663,195.3135z M188.4507,191.7275l0.6064-1.3135h1.3843
			l-1.2085,1.3135H188.4507z"/>
		<path fill="#FFFFFF" d="M193.4033,198.5391v-6.4424h1.2656l2.6367,4.3018v-4.3018h1.2085v6.4424h-1.3052l-2.5972-4.2012v4.2012
			H193.4033z"/>
	</g>
</g>
<g>
</g>
<g>
</g>
<g>
</g>
<g>
</g>
<g>
</g>
<g>
</g>
<g>
</g>
<g>
</g>
<g>
</g>
<g>
</g>
<g>
</g>
<g>
</g>
<g>
</g>
<g>
</g>
<g>
</g>
</svg>
