<?xml version="1.0" encoding="utf-8"?>
<!-- Generator: Adobe Illustrator 16.0.0, SVG Export Plug-In . SVG Version: 6.00 Build 0)  -->
<!DOCTYPE svg PUBLIC "-//W3C//DTD SVG 1.1//EN" "http://www.w3.org/Graphics/SVG/1.1/DTD/svg11.dtd">
<svg version="1.1" id="Capa_1" xmlns="http://www.w3.org/2000/svg" xmlns:xlink="http://www.w3.org/1999/xlink" x="0px" y="0px"
	 width="463px" height="216px" viewBox="0 0 463 216" enable-background="new 0 0 463 216" xml:space="preserve">
<g>
	<path fill="#75C6F0" d="M221.418,77.0776c0,0.5059,0.0391,0.9224,0.0752,0.9224h9.4902c-0.0684,0-0.1162-0.4126-0.1162-0.9224
		c0-5.9287,4.8057-10.4468,10.7344-10.4468c5.9297,0,10.7354,4.3745,10.7354,10.3022c0,0.168-0.0117,0.0669-0.0215,0.0669h-2.2344
		l6.2227,9l7.7773-9h-2.3125c0.0078,0,0.0166,0.2446,0.0166,0.0776c0-11.1475-9.0361-20.1836-20.1836-20.1836
		S221.418,65.9302,221.418,77.0776z"/>
	<path fill="#75C6F0" d="M139.418,36.0776c0,0.5059,0.0391,0.9224,0.0752,0.9224h9.4902c-0.0684,0-0.1162-0.4126-0.1162-0.9224
		c0-5.9287,4.8057-10.4468,10.7344-10.4468c5.9297,0,10.7354,4.3745,10.7354,10.3022c0,0.168-0.0117,0.0669-0.0215,0.0669h-2.2344
		l6.2227,9l7.7773-9h-2.3125c0.0078,0,0.0166,0.2446,0.0166,0.0776c0-11.1475-9.0361-20.1836-20.1836-20.1836
		S139.418,24.9302,139.418,36.0776z"/>
	<path fill="#75C6F0" d="M299.418,118.0781c0,0.5059,0.0391,0.9219,0.0752,0.9219h9.4902c-0.0684,0-0.1162-0.4121-0.1162-0.9219
		c0-5.9297,4.8057-10.4473,10.7344-10.4473c5.9297,0,10.7354,4.374,10.7354,10.3018c0,0.168-0.0117,0.0674-0.0215,0.0674h-2.2344
		l6.2227,9l7.7773-9h-2.3125c0.0078,0,0.0166,0.2441,0.0166,0.0781c0-11.1479-9.0361-20.1841-20.1836-20.1841
		S299.418,106.9302,299.418,118.0781z"/>
	<path fill="#75C6F0" d="M394.418,162.0781c0,0.5059,0.0391,0.9219,0.0752,0.9219h9.4902c-0.0684,0-0.1162-0.4121-0.1162-0.9219
		c0-5.9297,4.8057-10.4473,10.7344-10.4473c5.9297,0,10.7354,4.374,10.7354,10.3018c0,0.168-0.0117,0.0674-0.0215,0.0674h-2.2344
		l6.2227,9l7.7773-9h-2.3125c0.0078,0,0.0166,0.2441,0.0166,0.0781c0-11.1484-9.0361-20.1836-20.1836-20.1836
		S394.418,150.9297,394.418,162.0781z"/>
	<g>
		<rect fill="#75C6F0" width="124" height="48"/>
		<g>
			<path fill="#FFFFFF" d="M14.8506,21.9072h-1.2349v-4.6543c-0.4512,0.4219-0.9829,0.7344-1.5952,0.9365v-1.1201
				c0.3223-0.1055,0.6724-0.3057,1.0503-0.6006c0.3779-0.2939,0.6372-0.6377,0.7778-1.0303h1.002V21.9072z"/>
			<path fill="#FFFFFF" d="M16.96,21.9072v-1.2344h1.2349v1.2344H16.96z"/>
			<path fill="#FFFFFF" d="M21.9697,21.9072v-6.4424h4.7769v1.0898h-3.4761v1.4287h3.2344v1.085h-3.2344v1.7529h3.5991v1.0859
				H21.9697z"/>
			<path fill="#FFFFFF" d="M27.6431,19.8115l1.2656-0.123c0.0762,0.4248,0.2305,0.7363,0.4639,0.9355
				c0.2324,0.1992,0.5469,0.2988,0.9424,0.2988c0.4189,0,0.7344-0.0889,0.9473-0.2656c0.2119-0.1777,0.3184-0.3848,0.3184-0.6221
				c0-0.1523-0.0449-0.2822-0.1338-0.3887c-0.0898-0.1074-0.2456-0.2002-0.4683-0.2793c-0.1523-0.0527-0.4995-0.1465-1.0415-0.2813
				c-0.6973-0.1729-1.1865-0.3848-1.4678-0.6377c-0.3955-0.3535-0.5933-0.7861-0.5933-1.2959c0-0.3281,0.0928-0.6348,0.2788-0.9209
				c0.186-0.2852,0.4541-0.5029,0.8047-0.6523c0.3496-0.1494,0.7725-0.2246,1.2676-0.2246c0.8086,0,1.417,0.1777,1.8262,0.5322
				c0.4082,0.3545,0.623,0.8281,0.6436,1.4189l-1.3008,0.0576c-0.0557-0.3311-0.1753-0.5693-0.3584-0.7139
				c-0.1831-0.1455-0.4575-0.2178-0.8237-0.2178c-0.3779,0-0.6738,0.0781-0.8877,0.2334c-0.1377,0.0996-0.2065,0.2324-0.2065,0.3994
				c0,0.1523,0.0645,0.2832,0.1934,0.3916c0.1641,0.1377,0.5625,0.2813,1.1953,0.4297c0.6328,0.1504,1.1006,0.3047,1.4043,0.4639
				c0.3027,0.1602,0.54,0.3779,0.7119,0.6553c0.1709,0.2764,0.2568,0.6191,0.2568,1.0254c0,0.3691-0.1025,0.7158-0.3076,1.0371
				c-0.2051,0.3232-0.4951,0.5625-0.8701,0.7188c-0.375,0.1572-0.8423,0.2354-1.4019,0.2354c-0.8145,0-1.4399-0.1885-1.8765-0.5645
				C27.9888,21.0801,27.728,20.5322,27.6431,19.8115z"/>
			<path fill="#FFFFFF" d="M33.9756,21.9072v-6.4424h2.0874c0.791,0,1.3066,0.0322,1.5469,0.0967
				c0.3691,0.0967,0.6782,0.3066,0.9272,0.6309c0.249,0.3232,0.3735,0.7422,0.3735,1.2539c0,0.3965-0.0718,0.7285-0.2153,0.998
				s-0.3262,0.4814-0.5474,0.6348c-0.2212,0.1543-0.4458,0.2559-0.6743,0.3057c-0.3105,0.0615-0.7603,0.0928-1.3491,0.0928h-0.8481
				v2.4297H33.9756z M35.2764,16.5547v1.8281h0.7119c0.5127,0,0.8555-0.0332,1.0283-0.1006s0.3081-0.1729,0.4067-0.3164
				c0.0977-0.1436,0.147-0.3105,0.147-0.502c0-0.2334-0.0688-0.4268-0.2065-0.5801c-0.1377-0.1514-0.312-0.2471-0.5229-0.2852
				c-0.1553-0.0293-0.4673-0.0439-0.936-0.0439H35.2764z"/>
			<path fill="#FFFFFF" d="M39.9785,21.9072v-6.4424h4.7769v1.0898h-3.4761v1.4287h3.2344v1.085h-3.2344v1.7529h3.5991v1.0859
				H39.9785z"/>
			<path fill="#FFFFFF" d="M50.1035,19.5381l1.2612,0.4004c-0.1934,0.7031-0.5151,1.2256-0.9648,1.5664
				c-0.4497,0.3418-1.02,0.5117-1.7114,0.5117c-0.8555,0-1.5586-0.292-2.1094-0.876c-0.5508-0.585-0.8262-1.3838-0.8262-2.3975
				c0-1.0723,0.2769-1.9053,0.8306-2.498c0.5537-0.5938,1.2817-0.8906,2.1841-0.8906c0.7881,0,1.4282,0.2334,1.9204,0.6992
				c0.293,0.2754,0.5127,0.6709,0.6592,1.1865l-1.2876,0.3076c-0.0762-0.334-0.2349-0.5977-0.4771-0.791
				c-0.2412-0.1934-0.5352-0.29-0.8809-0.29c-0.4775,0-0.8652,0.1709-1.1621,0.5146c-0.2979,0.3418-0.4463,0.8975-0.4463,1.665
				c0,0.8145,0.1465,1.3945,0.4395,1.7402s0.6738,0.5186,1.1426,0.5186c0.3457,0,0.6431-0.1094,0.8921-0.3301
				C49.8164,20.3564,49.9951,20.0107,50.1035,19.5381z"/>
			<path fill="#FFFFFF" d="M52.4414,21.9072v-6.4424h1.3008v6.4424H52.4414z"/>
			<path fill="#FFFFFF" d="M54.9902,21.9072v-6.4424h4.4165v1.0898H56.291v1.5244h2.6895v1.0898H56.291v2.7383H54.9902z"/>
			<path fill="#FFFFFF" d="M60.4395,21.9072v-6.4424h1.3008v6.4424H60.4395z"/>
			<path fill="#FFFFFF" d="M67.1016,19.5381l1.2612,0.4004c-0.1934,0.7031-0.5151,1.2256-0.9648,1.5664
				c-0.4497,0.3418-1.02,0.5117-1.7114,0.5117c-0.8555,0-1.5586-0.292-2.1094-0.876c-0.5508-0.585-0.8262-1.3838-0.8262-2.3975
				c0-1.0723,0.2769-1.9053,0.8306-2.498c0.5537-0.5938,1.2817-0.8906,2.1841-0.8906c0.7881,0,1.4282,0.2334,1.9204,0.6992
				c0.293,0.2754,0.5127,0.6709,0.6592,1.1865l-1.2876,0.3076c-0.0762-0.334-0.2349-0.5977-0.4771-0.791
				c-0.2412-0.1934-0.5352-0.29-0.8809-0.29c-0.4775,0-0.8652,0.1709-1.1621,0.5146c-0.2979,0.3418-0.4463,0.8975-0.4463,1.665
				c0,0.8145,0.1465,1.3945,0.4395,1.7402s0.6738,0.5186,1.1426,0.5186c0.3457,0,0.6431-0.1094,0.8921-0.3301
				C66.8145,20.3564,66.9932,20.0107,67.1016,19.5381z"/>
			<path fill="#FFFFFF" d="M75.2886,21.9072h-1.415l-0.5625-1.4629h-2.5752l-0.5317,1.4629h-1.3799l2.5093-6.4424h1.3755
				L75.2886,21.9072z M72.8936,19.3584l-0.8877-2.3906l-0.8701,2.3906H72.8936z"/>
			<path fill="#FFFFFF" d="M80.1006,19.5381l1.2612,0.4004c-0.1934,0.7031-0.5151,1.2256-0.9648,1.5664
				c-0.4497,0.3418-1.02,0.5117-1.7114,0.5117c-0.8555,0-1.5586-0.292-2.1094-0.876c-0.5508-0.585-0.8262-1.3838-0.8262-2.3975
				c0-1.0723,0.2769-1.9053,0.8306-2.498c0.5537-0.5938,1.2817-0.8906,2.1841-0.8906c0.7881,0,1.4282,0.2334,1.9204,0.6992
				c0.293,0.2754,0.5127,0.6709,0.6592,1.1865l-1.2876,0.3076c-0.0762-0.334-0.2349-0.5977-0.4771-0.791
				c-0.2412-0.1934-0.5352-0.29-0.8809-0.29c-0.4775,0-0.8652,0.1709-1.1621,0.5146c-0.2979,0.3418-0.4463,0.8975-0.4463,1.665
				c0,0.8145,0.1465,1.3945,0.4395,1.7402s0.6738,0.5186,1.1426,0.5186c0.3457,0,0.6431-0.1094,0.8921-0.3301
				C79.8135,20.3564,79.9922,20.0107,80.1006,19.5381z"/>
			<path fill="#FFFFFF" d="M82.4385,21.9072v-6.4424h1.3008v6.4424H82.4385z"/>
			<path fill="#FFFFFF" d="M84.7148,18.7256c0-0.6563,0.0981-1.207,0.2944-1.6523c0.1465-0.3281,0.3462-0.6221,0.5996-0.8828
				s0.5313-0.4541,0.833-0.5801c0.4014-0.1699,0.8643-0.2559,1.3887-0.2559c0.9492,0,1.7085,0.2949,2.2783,0.8838
				s0.855,1.4082,0.855,2.4561c0,1.041-0.2827,1.8545-0.8481,2.4414c-0.5654,0.5879-1.3213,0.8809-2.2676,0.8809
				c-0.958,0-1.7197-0.292-2.2852-0.876C84.9976,20.5557,84.7148,19.751,84.7148,18.7256z M86.0552,18.6816
				c0,0.7295,0.1685,1.2822,0.5054,1.6592c0.3369,0.376,0.7646,0.5645,1.2832,0.5645s0.9438-0.1865,1.2769-0.5605
				c0.332-0.373,0.4985-0.9336,0.4985-1.6807c0-0.7383-0.1621-1.2891-0.4858-1.6523s-0.7534-0.5449-1.2896-0.5449
				s-0.9683,0.1836-1.2964,0.5518C86.2192,17.3857,86.0552,17.9404,86.0552,18.6816z M87.0396,15.0957l0.6064-1.3135h1.3843
				l-1.2085,1.3135H87.0396z"/>
			<path fill="#FFFFFF" d="M91.9922,21.9072v-6.4424h1.2656l2.6367,4.3018v-4.3018h1.2085v6.4424h-1.3052l-2.5972-4.2012v4.2012
				H91.9922z"/>
			<path fill="#FFFFFF" d="M100.9746,15.4648h2.3774c0.5361,0,0.9448,0.041,1.2261,0.123c0.3779,0.1113,0.7017,0.3096,0.9712,0.5928
				c0.2695,0.2852,0.4746,0.6328,0.6152,1.0439c0.1406,0.4121,0.2109,0.9199,0.2109,1.5225c0,0.5313-0.0659,0.9883-0.1978,1.3711
				c-0.1611,0.4697-0.3911,0.8486-0.6899,1.1387c-0.2256,0.2197-0.5303,0.3906-0.9141,0.5137
				c-0.2871,0.0918-0.6709,0.1367-1.1514,0.1367h-2.4478V15.4648z M102.2754,16.5547v4.2666h0.9712
				c0.3633,0,0.6255-0.0195,0.7866-0.0605c0.2109-0.0527,0.3857-0.1426,0.5254-0.2686c0.1387-0.126,0.2524-0.333,0.3403-0.6221
				c0.0879-0.2881,0.1318-0.6816,0.1318-1.1797s-0.0439-0.8799-0.1318-1.1465s-0.2109-0.4746-0.3691-0.625
				c-0.1582-0.1484-0.3589-0.25-0.6021-0.3027c-0.1816-0.041-0.5376-0.0615-1.0679-0.0615H102.2754z"/>
			<path fill="#FFFFFF" d="M107.4785,21.9072v-6.4424h4.7769v1.0898h-3.4761v1.4287h3.2344v1.085h-3.2344v1.7529h3.5991v1.0859
				H107.4785z"/>
			<path fill="#FFFFFF" d="M21.8047,32.707v-6.4424h2.7378c0.6885,0,1.189,0.0576,1.5005,0.1738
				c0.3125,0.1152,0.562,0.3213,0.7495,0.6172s0.2813,0.6348,0.2813,1.0146c0,0.4844-0.1421,0.8828-0.4263,1.1982
				c-0.2842,0.3145-0.709,0.5137-1.2744,0.5947c0.2813,0.165,0.5132,0.3447,0.6963,0.541s0.4302,0.5449,0.7407,1.0459l0.7866,1.2568
				H26.041l-0.9404-1.4023c-0.334-0.5-0.5625-0.8164-0.6855-0.9463c-0.123-0.1309-0.2534-0.2197-0.3911-0.2686
				c-0.1377-0.0479-0.356-0.0723-0.6548-0.0723h-0.2637v2.6895H21.8047z M23.1055,28.9893h0.9624
				c0.624,0,1.0137-0.0264,1.1689-0.0791s0.2769-0.1436,0.3647-0.2725s0.1318-0.29,0.1318-0.4834
				c0-0.2168-0.0581-0.3916-0.1738-0.5254c-0.1157-0.1328-0.2788-0.2168-0.4897-0.252c-0.1055-0.0146-0.4219-0.0225-0.9492-0.0225
				h-1.0151V28.9893z"/>
			<path fill="#FFFFFF" d="M28.2998,32.707v-6.4424h4.7769v1.0898h-3.4761v1.4287h3.2344v1.085h-3.2344v1.7529h3.5991v1.0859
				H28.2998z"/>
			<path fill="#FFFFFF" d="M39.4883,31.8896c0.3193,0.2285,0.6665,0.4102,1.0415,0.5449l-0.479,0.9189
				c-0.1963-0.0596-0.3882-0.1396-0.5757-0.2422c-0.041-0.0205-0.3296-0.2109-0.8657-0.5713
				c-0.4219,0.1846-0.8892,0.2764-1.4019,0.2764c-0.9902,0-1.7661-0.291-2.3271-0.874s-0.8413-1.4014-0.8413-2.4561
				c0-1.0518,0.2813-1.8701,0.8438-2.4551c0.5625-0.584,1.3257-0.877,2.2896-0.877c0.9551,0,1.7124,0.293,2.272,0.877
				c0.5596,0.585,0.8394,1.4033,0.8394,2.4551c0,0.5566-0.0776,1.0449-0.2329,1.4668
				C39.9336,31.2764,39.7461,31.5879,39.4883,31.8896z M38.4424,31.1563c0.167-0.1963,0.2925-0.4336,0.3755-0.7129
				c0.084-0.2773,0.1255-0.5977,0.1255-0.957c0-0.7441-0.1641-1.3008-0.4922-1.668c-0.3281-0.3682-0.7573-0.5518-1.2876-0.5518
				s-0.96,0.1846-1.29,0.5537c-0.3291,0.3691-0.4941,0.9248-0.4941,1.666c0,0.7529,0.165,1.3154,0.4941,1.6895
				c0.3301,0.373,0.7466,0.5605,1.2505,0.5605c0.1875,0,0.3647-0.0313,0.5317-0.0928c-0.2637-0.1729-0.5317-0.3076-0.8042-0.4043
				l0.3647-0.7432C37.644,30.6436,38.0527,30.8633,38.4424,31.1563z"/>
			<path fill="#FFFFFF" d="M41.2944,26.2646h1.3008v3.4893c0,0.5537,0.0161,0.9131,0.0483,1.0762
				c0.0557,0.2637,0.188,0.4756,0.3975,0.6357c0.2095,0.1592,0.4961,0.2393,0.8594,0.2393c0.3691,0,0.6475-0.0752,0.835-0.2266
				c0.1875-0.1504,0.3003-0.3359,0.3384-0.5557s0.0571-0.585,0.0571-1.0947v-3.5635h1.3008v3.3838
				c0,0.7734-0.0352,1.3203-0.1055,1.6387c-0.0703,0.3203-0.2002,0.5898-0.3887,0.8086c-0.1895,0.2207-0.4419,0.3955-0.7583,0.5254
				c-0.3164,0.1309-0.7295,0.1953-1.2393,0.1953c-0.6152,0-1.082-0.0703-1.3999-0.2129c-0.3179-0.1416-0.5688-0.3262-0.7534-0.5537
				c-0.1846-0.2266-0.3062-0.4648-0.3647-0.7139c-0.085-0.3691-0.1274-0.9141-0.1274-1.6348V26.2646z"/>
			<path fill="#FFFFFF" d="M47.8027,32.707v-6.4424h4.7769v1.0898h-3.4761v1.4287h3.2344v1.085h-3.2344v1.7529h3.5991v1.0859
				H47.8027z"/>
			<path fill="#FFFFFF" d="M53.8101,32.707v-6.4424h2.7378c0.6885,0,1.189,0.0576,1.5005,0.1738
				c0.3125,0.1152,0.562,0.3213,0.7495,0.6172s0.2813,0.6348,0.2813,1.0146c0,0.4844-0.1421,0.8828-0.4263,1.1982
				c-0.2842,0.3145-0.709,0.5137-1.2744,0.5947c0.2813,0.165,0.5132,0.3447,0.6963,0.541s0.4302,0.5449,0.7407,1.0459l0.7866,1.2568
				h-1.5557l-0.9404-1.4023c-0.334-0.5-0.5625-0.8164-0.6855-0.9463c-0.123-0.1309-0.2534-0.2197-0.3911-0.2686
				c-0.1377-0.0479-0.356-0.0723-0.6548-0.0723h-0.2637v2.6895H53.8101z M55.1108,28.9893h0.9624
				c0.624,0,1.0137-0.0264,1.1689-0.0791s0.2769-0.1436,0.3647-0.2725s0.1318-0.29,0.1318-0.4834
				c0-0.2168-0.0581-0.3916-0.1738-0.5254c-0.1157-0.1328-0.2788-0.2168-0.4897-0.252c-0.1055-0.0146-0.4219-0.0225-0.9492-0.0225
				h-1.0151V28.9893z"/>
			<path fill="#FFFFFF" d="M60.2656,32.707v-6.4424h1.3008v6.4424H60.2656z"/>
			<path fill="#FFFFFF" d="M62.7881,32.707v-6.4424h1.9468l1.1689,4.3945l1.1558-4.3945h1.9512v6.4424h-1.2085v-5.0713
				l-1.2788,5.0713H65.271l-1.2744-5.0713v5.0713H62.7881z"/>
			<path fill="#FFFFFF" d="M70.2632,32.707v-6.4424h1.3008v6.4424H70.2632z"/>
			<path fill="#FFFFFF" d="M72.8032,32.707v-6.4424h4.7769v1.0898H74.104v1.4287h3.2344v1.085H74.104v1.7529h3.5991v1.0859H72.8032z
				"/>
			<path fill="#FFFFFF" d="M78.8193,32.707v-6.4424h1.2656l2.6367,4.3018v-4.3018h1.2085v6.4424H82.625l-2.5972-4.2012v4.2012
				H78.8193z"/>
			<path fill="#FFFFFF" d="M86.7559,32.707v-5.3525h-1.9116v-1.0898h5.1196v1.0898h-1.9072v5.3525H86.7559z"/>
			<path fill="#FFFFFF" d="M90.377,29.5254c0-0.6563,0.0981-1.207,0.2944-1.6523c0.1465-0.3281,0.3462-0.6221,0.5996-0.8828
				s0.5313-0.4541,0.833-0.5801c0.4014-0.1699,0.8643-0.2559,1.3887-0.2559c0.9492,0,1.7085,0.2949,2.2783,0.8838
				s0.855,1.4082,0.855,2.4561c0,1.041-0.2827,1.8545-0.8481,2.4414c-0.5654,0.5879-1.3213,0.8809-2.2676,0.8809
				c-0.958,0-1.7197-0.292-2.2852-0.876C90.6597,31.3555,90.377,30.5508,90.377,29.5254z M91.7173,29.4814
				c0,0.7295,0.1685,1.2822,0.5054,1.6592c0.3369,0.376,0.7646,0.5645,1.2832,0.5645s0.9438-0.1865,1.2769-0.5605
				c0.332-0.373,0.4985-0.9336,0.4985-1.6807c0-0.7383-0.1621-1.2891-0.4858-1.6523s-0.7534-0.5449-1.2896-0.5449
				s-0.9683,0.1836-1.2964,0.5518C91.8813,28.1855,91.7173,28.7402,91.7173,29.4814z"/>
			<path fill="#FFFFFF" d="M97.3115,30.6113l1.2656-0.123c0.0762,0.4248,0.2305,0.7363,0.4639,0.9355
				c0.2324,0.1992,0.5469,0.2988,0.9424,0.2988c0.4189,0,0.7344-0.0889,0.9473-0.2656c0.2119-0.1777,0.3184-0.3848,0.3184-0.6221
				c0-0.1523-0.0449-0.2822-0.1338-0.3887c-0.0898-0.1074-0.2456-0.2002-0.4683-0.2793c-0.1523-0.0527-0.4995-0.1465-1.0415-0.2813
				c-0.6973-0.1729-1.1865-0.3848-1.4678-0.6377c-0.3955-0.3535-0.5933-0.7861-0.5933-1.2959c0-0.3281,0.0928-0.6348,0.2788-0.9209
				c0.186-0.2852,0.4541-0.5029,0.8047-0.6523c0.3496-0.1494,0.7725-0.2246,1.2676-0.2246c0.8086,0,1.417,0.1777,1.8262,0.5322
				c0.4082,0.3545,0.623,0.8281,0.6436,1.4189l-1.3008,0.0576c-0.0557-0.3311-0.1753-0.5693-0.3584-0.7139
				c-0.1831-0.1455-0.4575-0.2178-0.8237-0.2178c-0.3779,0-0.6738,0.0781-0.8877,0.2334c-0.1377,0.0996-0.2065,0.2324-0.2065,0.3994
				c0,0.1523,0.0645,0.2832,0.1934,0.3916c0.1641,0.1377,0.5625,0.2813,1.1953,0.4297c0.6328,0.1504,1.1006,0.3047,1.4043,0.4639
				c0.3027,0.1602,0.54,0.3779,0.7119,0.6553c0.1709,0.2764,0.2568,0.6191,0.2568,1.0254c0,0.3691-0.1025,0.7158-0.3076,1.0371
				c-0.2051,0.3232-0.4951,0.5625-0.8701,0.7188c-0.375,0.1572-0.8423,0.2354-1.4019,0.2354c-0.8145,0-1.4399-0.1885-1.8765-0.5645
				C97.6572,31.8799,97.3965,31.332,97.3115,30.6113z"/>
		</g>
	</g>
	<g>
		<rect x="98" y="52" fill="#75C6F0" width="104" height="38"/>
		<g>
			<path fill="#FFFFFF" d="M119.8662,72.7607v1.1465h-4.3286c0.0469-0.4336,0.1875-0.8447,0.4219-1.2324
				c0.2344-0.3887,0.6973-0.9033,1.3887-1.5449c0.5566-0.5186,0.8979-0.8701,1.0239-1.0547
				c0.1699-0.2549,0.2549-0.5068,0.2549-0.7559c0-0.2754-0.0742-0.4873-0.2217-0.6348c-0.1484-0.1484-0.3525-0.2227-0.6133-0.2227
				c-0.2578,0-0.4629,0.0781-0.6152,0.2334s-0.2402,0.4131-0.2637,0.7734l-1.2305-0.123c0.0732-0.6797,0.3032-1.167,0.6899-1.4639
				c0.3867-0.2949,0.8701-0.4434,1.4502-0.4434c0.6357,0,1.1353,0.1719,1.4985,0.5137c0.3633,0.3438,0.5449,0.7695,0.5449,1.2793
				c0,0.29-0.0522,0.5664-0.1563,0.8281c-0.104,0.2627-0.2686,0.5371-0.4941,0.8242c-0.1494,0.1904-0.4189,0.4648-0.8086,0.8223
				s-0.6367,0.5947-0.7402,0.7109c-0.1045,0.1182-0.1885,0.2324-0.2529,0.3438H119.8662z"/>
			<path fill="#FFFFFF" d="M120.9648,73.9072v-1.2344h1.2349v1.2344H120.9648z"/>
			<path fill="#FFFFFF" d="M125.9746,73.9072v-6.4424h2.0874c0.791,0,1.3066,0.0322,1.5469,0.0967
				c0.3691,0.0967,0.6782,0.3066,0.9272,0.6309c0.249,0.3232,0.3735,0.7422,0.3735,1.2539c0,0.3965-0.0718,0.7285-0.2153,0.998
				s-0.3262,0.4814-0.5474,0.6348c-0.2212,0.1543-0.4458,0.2559-0.6743,0.3057c-0.3105,0.0615-0.7603,0.0928-1.3491,0.0928h-0.8481
				v2.4297H125.9746z M127.2754,68.5547v1.8281h0.7119c0.5127,0,0.8555-0.0332,1.0283-0.1006s0.3081-0.1729,0.4067-0.3164
				c0.0977-0.1436,0.147-0.3105,0.147-0.502c0-0.2334-0.0688-0.4268-0.2065-0.5801c-0.1377-0.1514-0.312-0.2471-0.5229-0.2852
				c-0.1553-0.0293-0.4673-0.0439-0.936-0.0439H127.2754z"/>
			<path fill="#FFFFFF" d="M132.0127,73.9072v-6.3896h1.3008v5.3037h3.2344v1.0859H132.0127z"/>
			<path fill="#FFFFFF" d="M143.2847,73.9072h-1.415l-0.5625-1.4629h-2.5752l-0.5317,1.4629h-1.3799l2.5093-6.4424h1.3755
				L143.2847,73.9072z M140.8896,71.3584l-0.8877-2.3906l-0.8701,2.3906H140.8896z"/>
			<path fill="#FFFFFF" d="M143.9878,73.9072v-6.4424h1.2656l2.6367,4.3018v-4.3018h1.2085v6.4424h-1.3052l-2.5972-4.2012v4.2012
				H143.9878z"/>
			<path fill="#FFFFFF" d="M150.4741,73.9072v-6.4424h4.7769v1.0898h-3.4761v1.4287h3.2344v1.085h-3.2344v1.7529h3.5991v1.0859
				H150.4741z"/>
			<path fill="#FFFFFF" d="M162.2866,73.9072h-1.415l-0.5625-1.4629h-2.5752l-0.5317,1.4629h-1.3799l2.5093-6.4424h1.3755
				L162.2866,73.9072z M159.8916,71.3584l-0.8877-2.3906l-0.8701,2.3906H159.8916z"/>
			<path fill="#FFFFFF" d="M167.0986,71.5381l1.2612,0.4004c-0.1934,0.7031-0.5151,1.2256-0.9648,1.5664
				c-0.4497,0.3418-1.02,0.5117-1.7114,0.5117c-0.8555,0-1.5586-0.292-2.1094-0.876c-0.5508-0.585-0.8262-1.3838-0.8262-2.3975
				c0-1.0723,0.2769-1.9053,0.8306-2.498c0.5537-0.5938,1.2817-0.8906,2.1841-0.8906c0.7881,0,1.4282,0.2334,1.9204,0.6992
				c0.293,0.2754,0.5127,0.6709,0.6592,1.1865l-1.2876,0.3076c-0.0762-0.334-0.2349-0.5977-0.4771-0.791
				c-0.2412-0.1934-0.5352-0.29-0.8809-0.29c-0.4775,0-0.8652,0.1709-1.1621,0.5146c-0.2979,0.3418-0.4463,0.8975-0.4463,1.665
				c0,0.8145,0.1465,1.3945,0.4395,1.7402s0.6738,0.5186,1.1426,0.5186c0.3457,0,0.6431-0.1094,0.8921-0.3301
				C166.8115,72.3564,166.9902,72.0107,167.0986,71.5381z"/>
			<path fill="#FFFFFF" d="M169.4365,73.9072v-6.4424h1.3008v6.4424H169.4365z"/>
			<path fill="#FFFFFF" d="M171.7129,70.7256c0-0.6563,0.0981-1.207,0.2944-1.6523c0.1465-0.3281,0.3462-0.6221,0.5996-0.8828
				s0.5313-0.4541,0.833-0.5801c0.4014-0.1699,0.8643-0.2559,1.3887-0.2559c0.9492,0,1.7085,0.2949,2.2783,0.8838
				s0.855,1.4082,0.855,2.4561c0,1.041-0.2827,1.8545-0.8481,2.4414c-0.5654,0.5879-1.3213,0.8809-2.2676,0.8809
				c-0.958,0-1.7197-0.292-2.2852-0.876C171.9956,72.5557,171.7129,71.751,171.7129,70.7256z M173.0532,70.6816
				c0,0.7295,0.1685,1.2822,0.5054,1.6592c0.3369,0.376,0.7646,0.5645,1.2832,0.5645s0.9438-0.1865,1.2769-0.5605
				c0.332-0.373,0.4985-0.9336,0.4985-1.6807c0-0.7383-0.1621-1.2891-0.4858-1.6523s-0.7534-0.5449-1.2896-0.5449
				s-0.9683,0.1836-1.2964,0.5518C173.2173,69.3857,173.0532,69.9404,173.0532,70.6816z M174.0376,67.0957l0.6064-1.3135h1.3843
				l-1.2085,1.3135H174.0376z"/>
			<path fill="#FFFFFF" d="M178.9902,73.9072v-6.4424h1.2656l2.6367,4.3018v-4.3018h1.2085v6.4424h-1.3052l-2.5972-4.2012v4.2012
				H178.9902z"/>
		</g>
	</g>
	<g>
		<rect x="182" y="93" fill="#75C6F0" width="104" height="38"/>
		<g>
			<path fill="#FFFFFF" d="M203.1538,113.1982l1.1953-0.1455c0.0381,0.3047,0.1406,0.5381,0.3076,0.6982
				c0.167,0.1621,0.3691,0.2422,0.6064,0.2422c0.2549,0,0.4692-0.0967,0.644-0.29c0.1738-0.1934,0.2612-0.4541,0.2612-0.7822
				c0-0.3105-0.0835-0.5566-0.2505-0.7383s-0.3706-0.2725-0.6108-0.2725c-0.1582,0-0.3472,0.0303-0.5669,0.0928l0.1362-1.0068
				c0.334,0.0088,0.5889-0.0635,0.7646-0.2178c0.1758-0.1533,0.2637-0.3574,0.2637-0.6133c0-0.2158-0.0645-0.3887-0.1934-0.5176
				s-0.3003-0.1934-0.5142-0.1934c-0.2109,0-0.3911,0.0732-0.5405,0.2188c-0.1494,0.1475-0.2402,0.3613-0.2725,0.6426
				l-1.1382-0.1934c0.0791-0.3896,0.1982-0.7012,0.3584-0.9346c0.1592-0.2324,0.3818-0.416,0.668-0.5488
				c0.2852-0.1338,0.6055-0.2002,0.96-0.2002c0.6064,0,1.0928,0.1934,1.459,0.5801c0.3018,0.3164,0.4526,0.6738,0.4526,1.0723
				c0,0.5654-0.3091,1.0166-0.9272,1.3535c0.3691,0.0791,0.6641,0.2568,0.8857,0.5313c0.2207,0.2764,0.3315,0.6084,0.3315,0.998
				c0,0.5654-0.2065,1.0479-0.6196,1.4453c-0.4131,0.3994-0.9272,0.5977-1.5425,0.5977c-0.583,0-1.0664-0.167-1.4502-0.5029
				C203.438,114.1787,203.2153,113.7402,203.1538,113.1982z"/>
			<path fill="#FFFFFF" d="M208.4668,114.9072v-1.2344h1.2349v1.2344H208.4668z"/>
			<path fill="#FFFFFF" d="M213.459,114.9072v-6.4424h1.9468l1.1689,4.3945l1.1558-4.3945h1.9512v6.4424h-1.2085v-5.0713
				l-1.2788,5.0713h-1.2524l-1.2744-5.0713v5.0713H213.459z"/>
			<path fill="#FFFFFF" d="M220.71,111.7256c0-0.6563,0.0981-1.207,0.2944-1.6523c0.1465-0.3281,0.3462-0.6221,0.5996-0.8828
				s0.5313-0.4541,0.833-0.5801c0.4014-0.1699,0.8643-0.2559,1.3887-0.2559c0.9492,0,1.7085,0.2949,2.2778,0.8838
				c0.5703,0.5889,0.8555,1.4082,0.8555,2.4561c0,1.041-0.2832,1.8545-0.8477,2.4414c-0.5659,0.5879-1.3218,0.8809-2.2681,0.8809
				c-0.958,0-1.7197-0.292-2.2852-0.876C220.9927,113.5557,220.71,112.751,220.71,111.7256z M222.0503,111.6816
				c0,0.7295,0.1685,1.2822,0.5054,1.6592c0.3369,0.376,0.7646,0.5645,1.2832,0.5645s0.9438-0.1865,1.2769-0.5605
				c0.332-0.373,0.4985-0.9336,0.4985-1.6807c0-0.7383-0.1621-1.2891-0.4858-1.6523s-0.7534-0.5449-1.2896-0.5449
				s-0.9683,0.1836-1.2964,0.5518C222.2144,110.3857,222.0503,110.9404,222.0503,111.6816z"/>
			<path fill="#FFFFFF" d="M227.9697,108.4648h2.3779c0.5352,0,0.9443,0.041,1.2256,0.123
				c0.3779,0.1113,0.7021,0.3096,0.9717,0.5928c0.2695,0.2852,0.4746,0.6328,0.6152,1.0439
				c0.1406,0.4121,0.2109,0.9199,0.2109,1.5225c0,0.5313-0.0664,0.9883-0.1982,1.3711c-0.1611,0.4697-0.3916,0.8486-0.6904,1.1387
				c-0.2246,0.2197-0.5293,0.3906-0.9141,0.5137c-0.2871,0.0918-0.6699,0.1367-1.1504,0.1367h-2.4482V108.4648z M229.2705,109.5547
				v4.2666h0.9717c0.3633,0,0.625-0.0195,0.7861-0.0605c0.2109-0.0527,0.3857-0.1426,0.5254-0.2686
				c0.1387-0.126,0.2529-0.333,0.3408-0.6221c0.0879-0.2881,0.1309-0.6816,0.1309-1.1797s-0.043-0.8799-0.1309-1.1465
				s-0.2109-0.4746-0.3691-0.625c-0.1582-0.1484-0.3594-0.25-0.6025-0.3027c-0.1816-0.041-0.5381-0.0615-1.0674-0.0615H229.2705z"/>
			<path fill="#FFFFFF" d="M234.4736,114.9072v-6.4424h4.7764v1.0898h-3.4756v1.4287h3.2344v1.085h-3.2344v1.7529h3.5986v1.0859
				H234.4736z"/>
			<path fill="#FFFFFF" d="M240.5117,114.9072v-6.3896h1.3008v5.3037h3.2344v1.0859H240.5117z"/>
			<path fill="#FFFFFF" d="M251.7832,114.9072h-1.4141l-0.5625-1.4629h-2.5762l-0.5313,1.4629h-1.3799l2.5088-6.4424h1.376
				L251.7832,114.9072z M249.3887,112.3584l-0.8877-2.3906l-0.8701,2.3906H249.3887z"/>
			<path fill="#FFFFFF" d="M252.4688,108.4648h2.3779c0.5361,0,0.9443,0.041,1.2256,0.123
				c0.3789,0.1113,0.7021,0.3096,0.9717,0.5928c0.2695,0.2852,0.4746,0.6328,0.6152,1.0439
				c0.1406,0.4121,0.2109,0.9199,0.2109,1.5225c0,0.5313-0.0654,0.9883-0.1982,1.3711c-0.1602,0.4697-0.3906,0.8486-0.6895,1.1387
				c-0.2256,0.2197-0.5303,0.3906-0.9141,0.5137c-0.2871,0.0918-0.6709,0.1367-1.1514,0.1367h-2.4482V108.4648z M253.7695,109.5547
				v4.2666h0.9717c0.3633,0,0.626-0.0195,0.7861-0.0605c0.2109-0.0527,0.3867-0.1426,0.5254-0.2686s0.2529-0.333,0.3408-0.6221
				c0.0879-0.2881,0.1318-0.6816,0.1318-1.1797s-0.0439-0.8799-0.1318-1.1465s-0.2109-0.4746-0.3691-0.625
				c-0.1582-0.1484-0.3584-0.25-0.6025-0.3027c-0.1816-0.041-0.5371-0.0615-1.0674-0.0615H253.7695z"/>
			<path fill="#FFFFFF" d="M258.709,111.7256c0-0.6563,0.0986-1.207,0.2949-1.6523c0.1465-0.3281,0.3457-0.6221,0.5996-0.8828
				s0.5313-0.4541,0.833-0.5801c0.4014-0.1699,0.8643-0.2559,1.3887-0.2559c0.9492,0,1.708,0.2949,2.2783,0.8838
				s0.8555,1.4082,0.8555,2.4561c0,1.041-0.2832,1.8545-0.8486,2.4414c-0.5654,0.5879-1.3213,0.8809-2.2676,0.8809
				c-0.958,0-1.7197-0.292-2.2852-0.876C258.9922,113.5557,258.709,112.751,258.709,111.7256z M260.0498,111.6816
				c0,0.7295,0.1689,1.2822,0.5049,1.6592c0.3379,0.376,0.7656,0.5645,1.2832,0.5645c0.5195,0,0.9443-0.1865,1.2773-0.5605
				c0.332-0.373,0.498-0.9336,0.498-1.6807c0-0.7383-0.1621-1.2891-0.4854-1.6523s-0.7529-0.5449-1.29-0.5449
				c-0.5352,0-0.9678,0.1836-1.2959,0.5518C260.2139,110.3857,260.0498,110.9404,260.0498,111.6816z"/>
		</g>
	</g>
	<g>
		<rect x="269" y="135" fill="#75C6F0" width="104" height="38"/>
		<g>
			<path fill="#FFFFFF" d="M287.3682,156.9072v-1.2969h-2.6367v-1.0801l2.7949-4.0918h1.0371v4.0869h0.7998v1.085h-0.7998v1.2969
				H287.3682z M287.3682,154.5254v-2.2021l-1.4814,2.2021H287.3682z"/>
			<path fill="#FFFFFF" d="M290.2158,156.9072v-1.2344h1.2354v1.2344H290.2158z"/>
			<path fill="#FFFFFF" d="M295.2207,150.4648h2.3779c0.5361,0,0.9443,0.041,1.2256,0.123
				c0.3789,0.1113,0.7021,0.3096,0.9717,0.5928c0.2695,0.2852,0.4746,0.6328,0.6152,1.0439
				c0.1406,0.4121,0.2109,0.9199,0.2109,1.5225c0,0.5313-0.0654,0.9883-0.1982,1.3711c-0.1602,0.4697-0.3906,0.8486-0.6895,1.1387
				c-0.2256,0.2197-0.5303,0.3906-0.9141,0.5137c-0.2871,0.0918-0.6709,0.1367-1.1514,0.1367h-2.4482V150.4648z M296.5215,151.5547
				v4.2666h0.9717c0.3633,0,0.626-0.0195,0.7861-0.0605c0.2109-0.0527,0.3867-0.1426,0.5254-0.2686s0.2529-0.333,0.3408-0.6221
				c0.0879-0.2881,0.1318-0.6816,0.1318-1.1797s-0.0439-0.8799-0.1318-1.1465s-0.2109-0.4746-0.3691-0.625
				c-0.1582-0.1484-0.3584-0.25-0.6025-0.3027c-0.1816-0.041-0.5371-0.0615-1.0674-0.0615H296.5215z"/>
			<path fill="#FFFFFF" d="M301.7246,156.9072v-6.4424h4.7773v1.0898h-3.4766v1.4287h3.2344v1.085h-3.2344v1.7529h3.5996v1.0859
				H301.7246z"/>
			<path fill="#FFFFFF" d="M307.3984,154.8115l1.2656-0.123c0.0762,0.4248,0.2305,0.7363,0.4639,0.9355
				c0.2324,0.1992,0.5469,0.2988,0.9424,0.2988c0.4189,0,0.7344-0.0889,0.9473-0.2656c0.2119-0.1777,0.3184-0.3848,0.3184-0.6221
				c0-0.1523-0.0449-0.2822-0.1338-0.3887c-0.0898-0.1074-0.2451-0.2002-0.4678-0.2793c-0.1523-0.0527-0.5-0.1465-1.042-0.2813
				c-0.6973-0.1729-1.1865-0.3848-1.4678-0.6377c-0.3955-0.3535-0.5938-0.7861-0.5938-1.2959c0-0.3281,0.0938-0.6348,0.2793-0.9209
				c0.1855-0.2852,0.4541-0.5029,0.8047-0.6523c0.3496-0.1494,0.7725-0.2246,1.2676-0.2246c0.8086,0,1.417,0.1777,1.8262,0.5322
				c0.4082,0.3545,0.623,0.8281,0.6436,1.4189l-1.3008,0.0576c-0.0557-0.3311-0.1748-0.5693-0.3584-0.7139
				c-0.1836-0.1455-0.457-0.2178-0.8242-0.2178c-0.377,0-0.6738,0.0781-0.8867,0.2334c-0.1387,0.0996-0.207,0.2324-0.207,0.3994
				c0,0.1523,0.0645,0.2832,0.1934,0.3916c0.1641,0.1377,0.5625,0.2813,1.1953,0.4297c0.6328,0.1504,1.1006,0.3047,1.4043,0.4639
				c0.3027,0.1602,0.54,0.3779,0.7119,0.6553c0.1709,0.2764,0.2568,0.6191,0.2568,1.0254c0,0.3691-0.1025,0.7158-0.3076,1.0371
				c-0.2051,0.3232-0.4951,0.5625-0.8701,0.7188c-0.375,0.1572-0.8418,0.2354-1.4023,0.2354c-0.8145,0-1.4395-0.1885-1.876-0.5645
				C307.7441,156.0801,307.4834,155.5322,307.3984,154.8115z"/>
			<path fill="#FFFFFF" d="M319.541,156.9072h-1.416l-0.5625-1.4629h-2.5742l-0.5322,1.4629h-1.3799l2.5098-6.4424h1.375
				L319.541,156.9072z M317.1455,154.3584l-0.8877-2.3906l-0.8701,2.3906H317.1455z"/>
			<path fill="#FFFFFF" d="M320.2344,156.9072v-6.4424h2.7383c0.6885,0,1.1895,0.0576,1.5,0.1738
				c0.3125,0.1152,0.5625,0.3213,0.75,0.6172s0.2813,0.6348,0.2813,1.0146c0,0.4844-0.1426,0.8828-0.4258,1.1982
				c-0.2852,0.3145-0.709,0.5137-1.2754,0.5947c0.2813,0.165,0.5137,0.3447,0.6973,0.541c0.1826,0.1963,0.4297,0.5449,0.7402,1.0459
				l0.7871,1.2568h-1.5566l-0.9395-1.4023c-0.334-0.5-0.5625-0.8164-0.6855-0.9463c-0.123-0.1309-0.2539-0.2197-0.3916-0.2686
				c-0.1377-0.0479-0.3564-0.0723-0.6553-0.0723h-0.2637v2.6895H320.2344z M321.5352,153.1895h0.9629
				c0.624,0,1.0137-0.0264,1.1689-0.0791s0.2764-0.1436,0.3643-0.2725s0.1328-0.29,0.1328-0.4834
				c0-0.2168-0.0586-0.3916-0.1738-0.5254c-0.1162-0.1328-0.2793-0.2168-0.4902-0.252c-0.1055-0.0146-0.4219-0.0225-0.9492-0.0225
				h-1.0156V153.1895z"/>
			<path fill="#FFFFFF" d="M326.7344,156.9072v-6.4424h2.7383c0.6875,0,1.1885,0.0576,1.5,0.1738
				c0.3125,0.1152,0.5625,0.3213,0.75,0.6172s0.2813,0.6348,0.2813,1.0146c0,0.4844-0.1426,0.8828-0.4268,1.1982
				c-0.2842,0.3145-0.709,0.5137-1.2744,0.5947c0.2813,0.165,0.5137,0.3447,0.6963,0.541s0.4307,0.5449,0.7412,1.0459l0.7861,1.2568
				h-1.5557l-0.9404-1.4023c-0.334-0.5-0.5625-0.8164-0.6855-0.9463c-0.123-0.1309-0.2529-0.2197-0.3916-0.2686
				c-0.1367-0.0479-0.3555-0.0723-0.6543-0.0723h-0.2637v2.6895H326.7344z M328.0352,153.1895h0.9629
				c0.623,0,1.0137-0.0264,1.168-0.0791c0.1563-0.0527,0.2773-0.1436,0.3652-0.2725s0.1318-0.29,0.1318-0.4834
				c0-0.2168-0.0576-0.3916-0.1738-0.5254c-0.1162-0.1328-0.2783-0.2168-0.4893-0.252c-0.1055-0.0146-0.4219-0.0225-0.9492-0.0225
				h-1.0156V153.1895z"/>
			<path fill="#FFFFFF" d="M332.9658,153.7256c0-0.6563,0.0986-1.207,0.2939-1.6523c0.1465-0.3281,0.3467-0.6221,0.5996-0.8828
				c0.2539-0.2607,0.5313-0.4541,0.834-0.5801c0.4004-0.1699,0.8633-0.2559,1.3887-0.2559c0.9492,0,1.708,0.2949,2.2773,0.8838
				c0.5703,0.5889,0.8555,1.4082,0.8555,2.4561c0,1.041-0.2832,1.8545-0.8477,2.4414c-0.5664,0.5879-1.3223,0.8809-2.2676,0.8809
				c-0.959,0-1.7207-0.292-2.2852-0.876C333.248,155.5557,332.9658,154.751,332.9658,153.7256z M334.3066,153.6816
				c0,0.7295,0.168,1.2822,0.5049,1.6592c0.3369,0.376,0.7646,0.5645,1.2832,0.5645s0.9443-0.1865,1.2764-0.5605
				c0.332-0.373,0.499-0.9336,0.499-1.6807c0-0.7383-0.1621-1.2891-0.4854-1.6523c-0.3242-0.3633-0.7539-0.5449-1.29-0.5449
				s-0.9678,0.1836-1.2959,0.5518C334.4707,152.3857,334.3066,152.9404,334.3066,153.6816z"/>
			<path fill="#FFFFFF" d="M340.2656,156.9072v-6.3896h1.3008v5.3037h3.2344v1.0859H340.2656z"/>
			<path fill="#FFFFFF" d="M345.7627,156.9072v-6.3896h1.3008v5.3037h3.2344v1.0859H345.7627z"/>
			<path fill="#FFFFFF" d="M350.9609,153.7256c0-0.6563,0.0986-1.207,0.2949-1.6523c0.1465-0.3281,0.3457-0.6221,0.5996-0.8828
				s0.5313-0.4541,0.833-0.5801c0.4014-0.1699,0.8643-0.2559,1.3887-0.2559c0.9492,0,1.708,0.2949,2.2783,0.8838
				s0.8555,1.4082,0.8555,2.4561c0,1.041-0.2832,1.8545-0.8486,2.4414c-0.5654,0.5879-1.3213,0.8809-2.2676,0.8809
				c-0.958,0-1.7197-0.292-2.2852-0.876C351.2441,155.5557,350.9609,154.751,350.9609,153.7256z M352.3018,153.6816
				c0,0.7295,0.1689,1.2822,0.5049,1.6592c0.3379,0.376,0.7656,0.5645,1.2832,0.5645c0.5195,0,0.9443-0.1865,1.2773-0.5605
				c0.332-0.373,0.498-0.9336,0.498-1.6807c0-0.7383-0.1621-1.2891-0.4854-1.6523s-0.7529-0.5449-1.29-0.5449
				c-0.5352,0-0.9678,0.1836-1.2959,0.5518C352.4658,152.3857,352.3018,152.9404,352.3018,153.6816z"/>
		</g>
	</g>
	<g>
		<rect x="359" y="178" fill="#75C6F0" width="104" height="38"/>
		<g>
			<path fill="#FFFFFF" d="M372.3008,198.251l1.2305-0.1279c0.0352,0.2783,0.1396,0.499,0.3125,0.6611
				c0.1729,0.1631,0.3721,0.2441,0.5977,0.2441c0.2578,0,0.4766-0.1045,0.6543-0.3145c0.1797-0.209,0.2686-0.5254,0.2686-0.9473
				c0-0.3945-0.0889-0.6914-0.2656-0.8896c-0.1777-0.1973-0.4082-0.2959-0.6924-0.2959c-0.3545,0-0.6719,0.1563-0.9531,0.4697
				l-1.002-0.1455l0.6328-3.3525h3.2646v1.1553h-2.3291l-0.1934,1.0947c0.2754-0.1377,0.5566-0.2061,0.8438-0.2061
				c0.5479,0,1.0117,0.1992,1.3926,0.5977s0.5723,0.915,0.5723,1.5508c0,0.5303-0.1543,1.0039-0.4619,1.4199
				c-0.4189,0.5684-1.001,0.8516-1.7451,0.8516c-0.5938,0-1.0791-0.1592-1.4541-0.4785S372.375,198.79,372.3008,198.251z"/>
			<path fill="#FFFFFF" d="M377.5527,199.9072v-1.2344h1.2344v1.2344H377.5527z"/>
			<path fill="#FFFFFF" d="M382.5234,199.9072v-6.4424h1.3008v6.4424H382.5234z"/>
			<path fill="#FFFFFF" d="M385.0449,199.9072v-6.4424h1.9473l1.1689,4.3945l1.1553-4.3945h1.9512v6.4424h-1.208v-5.0713
				l-1.2783,5.0713h-1.2529l-1.2744-5.0713v5.0713H385.0449z"/>
			<path fill="#FFFFFF" d="M392.5605,199.9072v-6.4424h2.0869c0.791,0,1.3066,0.0322,1.5469,0.0967
				c0.3691,0.0967,0.6787,0.3066,0.9268,0.6309c0.25,0.3232,0.374,0.7422,0.374,1.2539c0,0.3965-0.0713,0.7285-0.2158,0.998
				c-0.1426,0.2695-0.3262,0.4814-0.5469,0.6348c-0.2207,0.1543-0.4453,0.2559-0.6738,0.3057
				c-0.3105,0.0615-0.7607,0.0928-1.3496,0.0928h-0.8477v2.4297H392.5605z M393.8613,194.5547v1.8281h0.7109
				c0.5137,0,0.8555-0.0332,1.0293-0.1006c0.1719-0.0674,0.3076-0.1729,0.4063-0.3164c0.0977-0.1436,0.1465-0.3105,0.1465-0.502
				c0-0.2334-0.0684-0.4268-0.2061-0.5801c-0.1377-0.1514-0.3115-0.2471-0.5225-0.2852c-0.1563-0.0293-0.4678-0.0439-0.9365-0.0439
				H393.8613z"/>
			<path fill="#FFFFFF" d="M398.5977,199.9072v-6.3896h1.3008v5.3037h3.2344v1.0859H398.5977z"/>
			<path fill="#FFFFFF" d="M409.8701,199.9072h-1.415l-0.5625-1.4629h-2.5752l-0.5322,1.4629h-1.3789l2.5088-6.4424h1.376
				L409.8701,199.9072z M407.4746,197.3584l-0.8867-2.3906l-0.8711,2.3906H407.4746z"/>
			<path fill="#FFFFFF" d="M410.5732,199.9072v-6.4424h1.2656l2.6367,4.3018v-4.3018h1.208v6.4424h-1.3047l-2.5977-4.2012v4.2012
				H410.5732z"/>
			<path fill="#FFFFFF" d="M418.5098,199.9072v-5.3525h-1.9121v-1.0898h5.1201v1.0898h-1.9072v5.3525H418.5098z"/>
			<path fill="#FFFFFF" d="M427.6992,199.9072h-1.416l-0.5625-1.4629h-2.5742l-0.5322,1.4629h-1.3799l2.5098-6.4424h1.375
				L427.6992,199.9072z M425.3037,197.3584l-0.8877-2.3906l-0.8701,2.3906H425.3037z"/>
			<path fill="#FFFFFF" d="M432.5107,197.5381l1.2607,0.4004c-0.1934,0.7031-0.5146,1.2256-0.9648,1.5664
				c-0.4492,0.3418-1.0195,0.5117-1.7109,0.5117c-0.8555,0-1.5586-0.292-2.1094-0.876c-0.5508-0.585-0.8262-1.3838-0.8262-2.3975
				c0-1.0723,0.2773-1.9053,0.8301-2.498c0.5547-0.5938,1.2822-0.8906,2.1846-0.8906c0.7881,0,1.4287,0.2334,1.9209,0.6992
				c0.293,0.2754,0.5117,0.6709,0.6582,1.1865l-1.2871,0.3076c-0.0762-0.334-0.2344-0.5977-0.4766-0.791s-0.5352-0.29-0.8809-0.29
				c-0.4785,0-0.8652,0.1709-1.1621,0.5146c-0.2988,0.3418-0.4473,0.8975-0.4473,1.665c0,0.8145,0.1465,1.3945,0.4395,1.7402
				s0.6738,0.5186,1.1426,0.5186c0.3457,0,0.6436-0.1094,0.8926-0.3301C432.2236,198.3564,432.4023,198.0107,432.5107,197.5381z"/>
			<path fill="#FFFFFF" d="M434.8486,199.9072v-6.4424h1.3008v6.4424H434.8486z"/>
			<path fill="#FFFFFF" d="M437.125,196.7256c0-0.6563,0.0977-1.207,0.2949-1.6523c0.1465-0.3281,0.3457-0.6221,0.5996-0.8828
				c0.2529-0.2607,0.5313-0.4541,0.832-0.5801c0.4023-0.1699,0.8652-0.2559,1.3887-0.2559c0.9492,0,1.709,0.2949,2.2793,0.8838
				c0.5693,0.5889,0.8545,1.4082,0.8545,2.4561c0,1.041-0.2822,1.8545-0.8486,2.4414c-0.5645,0.5879-1.3203,0.8809-2.2676,0.8809
				c-0.957,0-1.7188-0.292-2.2852-0.876C437.4082,198.5557,437.125,197.751,437.125,196.7256z M438.4648,196.6816
				c0,0.7295,0.1689,1.2822,0.5059,1.6592c0.3369,0.376,0.7646,0.5645,1.2832,0.5645s0.9434-0.1865,1.2773-0.5605
				c0.332-0.373,0.498-0.9336,0.498-1.6807c0-0.7383-0.1621-1.2891-0.4863-1.6523c-0.3232-0.3633-0.7529-0.5449-1.2891-0.5449
				s-0.9688,0.1836-1.2969,0.5518C438.6289,195.3857,438.4648,195.9404,438.4648,196.6816z M439.4492,193.0957l0.6074-1.3135h1.3838
				l-1.208,1.3135H439.4492z"/>
			<path fill="#FFFFFF" d="M444.4023,199.9072v-6.4424h1.2656l2.6367,4.3018v-4.3018h1.209v6.4424h-1.3057l-2.5967-4.2012v4.2012
				H444.4023z"/>
		</g>
	</g>
</g>
<g>
</g>
<g>
</g>
<g>
</g>
<g>
</g>
<g>
</g>
<g>
</g>
<g>
</g>
<g>
</g>
<g>
</g>
<g>
</g>
<g>
</g>
<g>
</g>
<g>
</g>
<g>
</g>
<g>
</g>
</svg>
