<?xml version="1.0" encoding="utf-8"?>
<!-- Generator: Adobe Illustrator 21.0.0, SVG Export Plug-In . SVG Version: 6.00 Build 0)  -->
<svg version="1.1" id="Capa_1" xmlns="http://www.w3.org/2000/svg" xmlns:xlink="http://www.w3.org/1999/xlink" x="0px" y="0px"
	 viewBox="0 0 424.0918 305.8379" style="enable-background:new 0 0 424.0918 305.8379;" xml:space="preserve">
<style type="text/css">
	.st0{fill:#FFFFFF;stroke:#75C6F0;stroke-width:2;stroke-linecap:round;stroke-linejoin:round;stroke-miterlimit:10;}
	.st1{fill:#75C6F0;}
	.st2{fill:#FFFFFF;}
</style>
<g>
	<g>
		<path class="st0" d="M88.9854,159.0254l29.9951,0.54L60.9238,125.251L1,157.4444l31.9951,0.5752
			c0,0,7.9307,115.1074,166.6074,123.5087l8.2989-17.9804l-5.5127-21.2823C202.3887,242.2656,106.0098,247.3457,88.9854,159.0254z"
			/>
		<path class="st0" d="M220.6084,242.8438l0.2715-27.9991l-47.7959,46.3594l46.7256,43.6338l0.291-21.9961
			c0,0,162.4912-2.1035,171.4912-124.6035L369.0664,131l-33.9746,24.7383C335.0918,155.7383,328.5918,244.2383,220.6084,242.8438z"
			/>
		<path class="st0" d="M335.0918,147.2383h-30l58.6641,33.2646l59.3359-33.2646h-32c0,0-9.999-114.9463-168.8008-120.4941
			l-7.9746,18.1269l5.8945,21.1787C220.2109,66.0498,316.4824,59.2383,335.0918,147.2383z"/>
		<path class="st0" d="M201.0674,62.9942l-0.2715,27.999l47.7959-46.3594L201.8662,1l-0.291,21.9961
			c0,0-156.3613,2.0244-170.8125,117.7354c19.0088-9.4893,30.1611-15.4805,30.1611-15.4805s9.2285,5.4541,27.2373,15.4971
			C93.3438,118.0332,114.8809,61.8809,201.0674,62.9942z"/>
	</g>
	<g>
		<rect x="35.0918" y="59.2383" class="st1" width="135" height="37"/>
		<g>
			<path class="st2" d="M63.0013,78.2795l1.5415,0.4883c-0.2363,0.8594-0.6294,1.498-1.1787,1.915
				c-0.5498,0.417-1.2471,0.626-2.0923,0.626c-1.0454,0-1.9048-0.3574-2.5781-1.0723c-0.6733-0.7139-1.0098-1.6904-1.0098-2.9297
				c0-1.3105,0.3384-2.3281,1.0151-3.0537c0.6768-0.7246,1.5664-1.0869,2.6694-1.0869c0.9634,0,1.7456,0.2842,2.3472,0.8535
				c0.3579,0.3369,0.6265,0.8203,0.8057,1.4502l-1.5737,0.376c-0.0933-0.4082-0.2876-0.7305-0.5825-0.9668
				c-0.2959-0.2363-0.6548-0.3545-1.0771-0.3545c-0.5835,0-1.0571,0.21-1.4209,0.6279c-0.3633,0.4199-0.5449,1.0977-0.5449,2.0361
				c0,0.9951,0.1792,1.7041,0.5371,2.127s0.8237,0.6338,1.3965,0.6338c0.4224,0,0.7861-0.1348,1.0903-0.4023
				C62.6502,79.2776,62.869,78.8557,63.0013,78.2795z"/>
			<path class="st2" d="M65.5848,77.2854c0-0.8018,0.1201-1.4756,0.3599-2.0195c0.1792-0.4014,0.4233-0.7607,0.7334-1.0801
				c0.3096-0.3184,0.6489-0.5547,1.0176-0.709c0.4907-0.207,1.0562-0.3105,1.6973-0.3105c1.1602,0,2.0884,0.3594,2.7852,1.0791
				c0.6963,0.7197,1.0444,1.7207,1.0444,3.0029c0,1.2705-0.3457,2.2656-1.0366,2.9834s-1.6147,1.0771-2.7715,1.0771
				c-1.1709,0-2.1021-0.3574-2.793-1.0723C65.9305,79.5227,65.5848,78.5383,65.5848,77.2854z M67.223,77.2317
				c0,0.8916,0.2061,1.5674,0.6177,2.0273s0.9346,0.6904,1.5684,0.6904s1.1538-0.2285,1.5601-0.6846
				c0.4067-0.457,0.6099-1.1416,0.6099-2.0547c0-0.9023-0.1978-1.5752-0.5933-2.0195c-0.396-0.4443-0.9214-0.666-1.5767-0.666
				s-1.1836,0.2246-1.5845,0.6738S67.223,76.3254,67.223,77.2317z"/>
			<path class="st2" d="M74.4417,81.1741V73.3h2.3794l1.4287,5.3711L79.6624,73.3h2.3848v7.874h-1.4771v-6.1982l-1.563,6.1982
				h-1.5308l-1.5576-6.1982v6.1982H74.4417z"/>
			<path class="st2" d="M83.6156,73.3h1.5898v4.2646c0,0.6768,0.0195,1.1152,0.0591,1.3164c0.0679,0.3223,0.23,0.5801,0.4863,0.7754
				c0.2559,0.1953,0.606,0.293,1.0498,0.293c0.4512,0,0.7915-0.0918,1.0205-0.2764s0.3672-0.4111,0.4136-0.6797
				s0.0698-0.7139,0.0698-1.3369V73.3h1.5898v4.1357c0,0.9453-0.043,1.6133-0.1289,2.0039
				c-0.0859,0.3896-0.2441,0.7188-0.4756,0.9883c-0.2305,0.2676-0.5396,0.4824-0.9263,0.6416s-0.8916,0.2393-1.5146,0.2393
				c-0.752,0-1.3223-0.0869-1.7104-0.2607c-0.3887-0.1738-0.6958-0.3994-0.9214-0.6768s-0.374-0.5684-0.4458-0.873
				c-0.104-0.4512-0.1558-1.1172-0.1558-1.998V73.3z"/>
			<path class="st2" d="M91.5863,81.1741V73.3h1.5469l3.2227,5.2588V73.3h1.4771v7.874h-1.5952l-3.1743-5.1348v5.1348H91.5863z"/>
			<path class="st2" d="M99.4657,81.1741V73.3h1.5898v7.874H99.4657z"/>
			<path class="st2" d="M107.6082,78.2795l1.5415,0.4883c-0.2363,0.8594-0.6294,1.498-1.1787,1.915
				c-0.5498,0.417-1.2471,0.626-2.0923,0.626c-1.0454,0-1.9048-0.3574-2.5781-1.0723c-0.6733-0.7139-1.0098-1.6904-1.0098-2.9297
				c0-1.3105,0.3384-2.3281,1.0151-3.0537c0.6768-0.7246,1.5664-1.0869,2.6694-1.0869c0.9634,0,1.7456,0.2842,2.3472,0.8535
				c0.3579,0.3369,0.6265,0.8203,0.8057,1.4502l-1.5737,0.376c-0.0933-0.4082-0.2876-0.7305-0.5825-0.9668
				c-0.2959-0.2363-0.6548-0.3545-1.0771-0.3545c-0.5835,0-1.0571,0.21-1.4209,0.6279c-0.3633,0.4199-0.5449,1.0977-0.5449,2.0361
				c0,0.9951,0.1792,1.7041,0.5371,2.127s0.8237,0.6338,1.3965,0.6338c0.4224,0,0.7861-0.1348,1.0903-0.4023
				C107.2572,79.2776,107.4759,78.8557,107.6082,78.2795z"/>
			<path class="st2" d="M117.6146,81.1741h-1.7295l-0.6875-1.7891h-3.1475l-0.6499,1.7891h-1.6865l3.0669-7.874h1.6812
				L117.6146,81.1741z M114.6873,78.0588l-1.085-2.9219l-1.0635,2.9219H114.6873z"/>
			<path class="st2" d="M123.4959,78.2795l1.5415,0.4883c-0.2363,0.8594-0.6294,1.498-1.1787,1.915
				c-0.5498,0.417-1.2471,0.626-2.0923,0.626c-1.0454,0-1.9048-0.3574-2.5781-1.0723c-0.6733-0.7139-1.0098-1.6904-1.0098-2.9297
				c0-1.3105,0.3384-2.3281,1.0151-3.0537c0.6768-0.7246,1.5664-1.0869,2.6694-1.0869c0.9634,0,1.7456,0.2842,2.3472,0.8535
				c0.3579,0.3369,0.6265,0.8203,0.8057,1.4502l-1.5737,0.376c-0.0933-0.4082-0.2876-0.7305-0.5825-0.9668
				c-0.2959-0.2363-0.6548-0.3545-1.0771-0.3545c-0.5835,0-1.0571,0.21-1.4209,0.6279c-0.3633,0.4199-0.5449,1.0977-0.5449,2.0361
				c0,0.9951,0.1792,1.7041,0.5371,2.127s0.8237,0.6338,1.3965,0.6338c0.4224,0,0.7861-0.1348,1.0903-0.4023
				C123.1449,79.2776,123.3636,78.8557,123.4959,78.2795z"/>
			<path class="st2" d="M126.3534,81.1741V73.3h1.5898v7.874H126.3534z"/>
			<path class="st2" d="M129.1356,77.2854c0-0.8018,0.1201-1.4756,0.3599-2.0195c0.1792-0.4014,0.4233-0.7607,0.7334-1.0801
				c0.3096-0.3184,0.6489-0.5547,1.0176-0.709c0.4907-0.207,1.0562-0.3105,1.6973-0.3105c1.1602,0,2.0884,0.3594,2.7852,1.0791
				c0.6963,0.7197,1.0444,1.7207,1.0444,3.0029c0,1.2705-0.3457,2.2656-1.0366,2.9834s-1.6147,1.0771-2.7715,1.0771
				c-1.1709,0-2.1021-0.3574-2.793-1.0723C129.4813,79.5227,129.1356,78.5383,129.1356,77.2854z M130.7738,77.2317
				c0,0.8916,0.2061,1.5674,0.6177,2.0273s0.9346,0.6904,1.5684,0.6904s1.1538-0.2285,1.5601-0.6846
				c0.4067-0.457,0.6099-1.1416,0.6099-2.0547c0-0.9023-0.1978-1.5752-0.5933-2.0195c-0.396-0.4443-0.9214-0.666-1.5767-0.666
				s-1.1836,0.2246-1.5845,0.6738S130.7738,76.3254,130.7738,77.2317z M131.9769,72.8489l0.7412-1.6064h1.6919l-1.4771,1.6064
				H131.9769z"/>
			<path class="st2" d="M138.0301,81.1741V73.3h1.5469l3.2227,5.2588V73.3h1.4771v7.874h-1.5952l-3.1743-5.1348v5.1348H138.0301z"/>
		</g>
	</g>
	<g>
		<rect x="37.0918" y="189.2383" class="st1" width="135" height="37"/>
		<g>
			<path class="st2" d="M68.4549,193.3h2.9058c0.6553,0,1.1548,0.0498,1.4985,0.1504c0.4619,0.1357,0.8574,0.3779,1.187,0.7256
				c0.3296,0.3467,0.5801,0.7725,0.752,1.2754s0.2578,1.123,0.2578,1.8613c0,0.6475-0.0806,1.2061-0.2417,1.6758
				c-0.1968,0.5723-0.478,1.0361-0.8433,1.3906c-0.2759,0.2686-0.6479,0.4785-1.1172,0.6289
				c-0.3511,0.1104-0.8198,0.166-1.4072,0.166h-2.9917V193.3z M70.0448,194.6321v5.2158h1.187c0.4438,0,0.7646-0.0254,0.9614-0.0762
				c0.2578-0.0645,0.4717-0.1729,0.6416-0.3271c0.1704-0.1543,0.3091-0.4072,0.4165-0.7598s0.1611-0.834,0.1611-1.4424
				s-0.0537-1.0762-0.1611-1.4023c-0.1074-0.3252-0.2578-0.5801-0.4512-0.7617c-0.1934-0.1836-0.4385-0.3066-0.7358-0.3711
				c-0.2222-0.0498-0.6572-0.0752-1.3052-0.0752H70.0448z"/>
			<path class="st2" d="M76.4041,201.1741V193.3h5.8384v1.332H77.994v1.7451h3.9531v1.3271H77.994v2.1436h4.3989v1.3262H76.4041z"/>
			<path class="st2" d="M83.3382,198.6116l1.5469-0.1504c0.0933,0.5195,0.2822,0.9014,0.5664,1.1445
				c0.2852,0.2432,0.6689,0.3652,1.1523,0.3652c0.5122,0,0.8979-0.1084,1.1572-0.3252c0.2598-0.2168,0.3896-0.4697,0.3896-0.7598
				c0-0.1865-0.0547-0.3447-0.1641-0.4756c-0.1089-0.1309-0.2998-0.2441-0.5718-0.3408c-0.186-0.0645-0.6104-0.1787-1.2729-0.3438
				c-0.8521-0.2109-1.4502-0.4707-1.7939-0.7783c-0.4834-0.4336-0.7251-0.9619-0.7251-1.585c0-0.4014,0.1138-0.7764,0.3413-1.125
				c0.2271-0.3496,0.5547-0.6152,0.9824-0.7979c0.4282-0.1826,0.9448-0.2734,1.5498-0.2734c0.9883,0,1.7324,0.2158,2.2314,0.6494
				c0.5,0.4336,0.7622,1.0117,0.7871,1.7354l-1.5898,0.0693c-0.0679-0.4043-0.2139-0.6953-0.4375-0.873
				c-0.2241-0.1768-0.5596-0.2656-1.0073-0.2656c-0.4619,0-0.8237,0.0947-1.085,0.2842c-0.1685,0.1221-0.2524,0.2852-0.2524,0.4893
				c0,0.1865,0.0786,0.3457,0.2363,0.4775c0.2007,0.1689,0.6875,0.3438,1.4609,0.5273c0.7734,0.1816,1.3457,0.3711,1.7158,0.5664
				c0.3711,0.1953,0.6611,0.4619,0.8701,0.7998c0.21,0.3389,0.3145,0.7568,0.3145,1.2549c0,0.4512-0.1255,0.873-0.376,1.2676
				c-0.2505,0.3936-0.605,0.6865-1.0635,0.8779s-1.0293,0.2871-1.7134,0.2871c-0.9956,0-1.7598-0.2305-2.2935-0.6904
				S83.4422,199.4924,83.3382,198.6116z"/>
			<path class="st2" d="M98.1786,201.1741h-1.7295l-0.6875-1.7891h-3.1475l-0.6499,1.7891h-1.6865l3.0669-7.874h1.6812
				L98.1786,201.1741z M95.2513,198.0588l-1.085-2.9219l-1.0635,2.9219H95.2513z"/>
			<path class="st2" d="M99.0272,201.1741V193.3h3.3462c0.8413,0,1.4526,0.0703,1.8345,0.2119
				c0.3809,0.1416,0.6865,0.3936,0.9155,0.7549s0.3438,0.7754,0.3438,1.2412c0,0.5898-0.1738,1.0781-0.521,1.4629
				s-0.8667,0.6279-1.5576,0.7285c0.3438,0.2002,0.6274,0.4199,0.8516,0.6602c0.2236,0.2402,0.5254,0.666,0.9048,1.2783
				l0.9614,1.5361h-1.9014l-1.1494-1.7129c-0.4082-0.6133-0.6875-0.999-0.8379-1.1582s-0.3096-0.2686-0.478-0.3271
				c-0.1685-0.0596-0.4351-0.0889-0.8003-0.0889h-0.3223v3.2871H99.0272z M100.617,196.6301h1.1763
				c0.7627,0,1.2388-0.0322,1.4287-0.0967s0.3384-0.1758,0.4458-0.333s0.1611-0.3545,0.1611-0.5908
				c0-0.2646-0.0708-0.4785-0.2119-0.6416c-0.1416-0.1631-0.3413-0.2666-0.5991-0.3096c-0.1289-0.0176-0.5156-0.0264-1.1602-0.0264
				h-1.2407V196.6301z"/>
			<path class="st2" d="M106.971,201.1741V193.3h3.3462c0.8413,0,1.4526,0.0703,1.8345,0.2119
				c0.3809,0.1416,0.6865,0.3936,0.9155,0.7549s0.3438,0.7754,0.3438,1.2412c0,0.5898-0.1738,1.0781-0.521,1.4629
				s-0.8667,0.6279-1.5576,0.7285c0.3438,0.2002,0.6274,0.4199,0.8516,0.6602c0.2236,0.2402,0.5254,0.666,0.9048,1.2783
				l0.9614,1.5361h-1.9014l-1.1494-1.7129c-0.4082-0.6133-0.6875-0.999-0.8379-1.1582s-0.3096-0.2686-0.478-0.3271
				c-0.1685-0.0596-0.4351-0.0889-0.8003-0.0889h-0.3223v3.2871H106.971z M108.5609,196.6301h1.1763
				c0.7627,0,1.2388-0.0322,1.4287-0.0967s0.3384-0.1758,0.4458-0.333s0.1611-0.3545,0.1611-0.5908
				c0-0.2646-0.0708-0.4785-0.2119-0.6416c-0.1416-0.1631-0.3413-0.2666-0.5991-0.3096c-0.1289-0.0176-0.5156-0.0264-1.1602-0.0264
				h-1.2407V196.6301z"/>
			<path class="st2" d="M114.5872,197.2854c0-0.8018,0.1201-1.4756,0.3599-2.0195c0.1792-0.4014,0.4233-0.7607,0.7334-1.0801
				c0.3096-0.3184,0.6489-0.5547,1.0176-0.709c0.4907-0.207,1.0562-0.3105,1.6973-0.3105c1.1602,0,2.0884,0.3594,2.7852,1.0791
				c0.6963,0.7197,1.0444,1.7207,1.0444,3.0029c0,1.2705-0.3457,2.2656-1.0366,2.9834s-1.6147,1.0771-2.7715,1.0771
				c-1.1709,0-2.1021-0.3574-2.793-1.0723C114.933,199.5227,114.5872,198.5383,114.5872,197.2854z M116.2254,197.2317
				c0,0.8916,0.2061,1.5674,0.6177,2.0273s0.9346,0.6904,1.5684,0.6904s1.1538-0.2285,1.5601-0.6846
				c0.4067-0.457,0.6099-1.1416,0.6099-2.0547c0-0.9023-0.1978-1.5752-0.5933-2.0195c-0.396-0.4443-0.9214-0.666-1.5767-0.666
				s-1.1836,0.2246-1.5845,0.6738S116.2254,196.3254,116.2254,197.2317z"/>
			<path class="st2" d="M123.5086,201.1741v-7.8096h1.5898v6.4834h3.9531v1.3262H123.5086z"/>
			<path class="st2" d="M130.2279,201.1741v-7.8096h1.5898v6.4834h3.9531v1.3262H130.2279z"/>
			<path class="st2" d="M136.5819,197.2854c0-0.8018,0.1201-1.4756,0.3599-2.0195c0.1792-0.4014,0.4233-0.7607,0.7334-1.0801
				c0.3096-0.3184,0.6489-0.5547,1.0176-0.709c0.4907-0.207,1.0562-0.3105,1.6973-0.3105c1.1602,0,2.0884,0.3594,2.7852,1.0791
				c0.6963,0.7197,1.0444,1.7207,1.0444,3.0029c0,1.2705-0.3457,2.2656-1.0366,2.9834s-1.6147,1.0771-2.7715,1.0771
				c-1.1709,0-2.1021-0.3574-2.793-1.0723C136.9276,199.5227,136.5819,198.5383,136.5819,197.2854z M138.2201,197.2317
				c0,0.8916,0.2061,1.5674,0.6177,2.0273s0.9346,0.6904,1.5684,0.6904s1.1538-0.2285,1.5601-0.6846
				c0.4067-0.457,0.6099-1.1416,0.6099-2.0547c0-0.9023-0.1978-1.5752-0.5933-2.0195c-0.396-0.4443-0.9214-0.666-1.5767-0.666
				s-1.1836,0.2246-1.5845,0.6738S138.2201,196.3254,138.2201,197.2317z"/>
			<path class="st2" d="M75.2762,211.9739v-7.874h5.8384v1.332h-4.2485v1.7451h3.9531v1.3271h-3.9531v2.1436h4.3989v1.3262H75.2762z
				"/>
			<path class="st2" d="M82.6292,211.9739v-7.874h1.5469l3.2227,5.2588v-5.2588h1.4771v7.874h-1.5952l-3.1743-5.1348v5.1348H82.6292
				z"/>
			<path class="st2" d="M92.3294,211.9739v-6.542H89.993v-1.332h6.2573v1.332h-2.3311v6.542H92.3294z"/>
			<path class="st2" d="M97.2816,211.9739v-7.874h3.3462c0.8413,0,1.4526,0.0703,1.8345,0.2119
				c0.3809,0.1416,0.6865,0.3936,0.9155,0.7549s0.3438,0.7754,0.3438,1.2412c0,0.5898-0.1738,1.0781-0.521,1.4629
				s-0.8667,0.6279-1.5576,0.7285c0.3438,0.2002,0.6274,0.4199,0.8516,0.6602c0.2236,0.2402,0.5254,0.666,0.9048,1.2783
				l0.9614,1.5361h-1.9014l-1.1494-1.7129c-0.4082-0.6133-0.6875-0.999-0.8379-1.1582s-0.3096-0.2686-0.478-0.3271
				c-0.1685-0.0596-0.4351-0.0889-0.8003-0.0889h-0.3223v3.2871H97.2816z M98.8714,207.4299h1.1763
				c0.7627,0,1.2388-0.0322,1.4287-0.0967s0.3384-0.1758,0.4458-0.333s0.1611-0.3545,0.1611-0.5908
				c0-0.2646-0.0708-0.4785-0.2119-0.6416c-0.1416-0.1631-0.3413-0.2666-0.5991-0.3096c-0.1289-0.0176-0.5156-0.0264-1.1602-0.0264
				h-1.2407V207.4299z"/>
			<path class="st2" d="M105.2201,211.9739v-7.874h5.8384v1.332h-4.2485v1.7451h3.9531v1.3271h-3.9531v2.1436h4.3989v1.3262
				H105.2201z"/>
			<path class="st2" d="M116.2201,209.0793v-1.3271h3.4268v3.1367c-0.333,0.3223-0.8154,0.6064-1.4478,0.8516
				c-0.6318,0.2451-1.272,0.3682-1.9199,0.3682c-0.8237,0-1.5415-0.1729-2.1538-0.5186s-1.0723-0.8398-1.3804-1.4824
				s-0.4619-1.3418-0.4619-2.0977c0-0.8203,0.1719-1.5488,0.5156-2.1865c0.3438-0.6367,0.8467-1.126,1.5093-1.4658
				c0.5049-0.2617,1.1333-0.3916,1.8853-0.3916c0.9775,0,1.7412,0.2041,2.291,0.6143c0.5493,0.4102,0.9028,0.9766,1.0605,1.7002
				l-1.5791,0.2949c-0.1108-0.3867-0.3193-0.6914-0.626-0.915c-0.3057-0.2236-0.688-0.3359-1.1465-0.3359
				c-0.6948,0-1.2471,0.2197-1.6572,0.6611c-0.4097,0.4395-0.6147,1.0938-0.6147,1.96c0,0.9346,0.2075,1.6357,0.623,2.1025
				c0.4155,0.4678,0.9595,0.7012,1.6328,0.7012c0.333,0,0.667-0.0654,1.0015-0.1963c0.335-0.1309,0.6226-0.2891,0.8623-0.4756
				v-0.998H116.2201z"/>
			<path class="st2" d="M128.2137,211.9739h-1.7295l-0.6875-1.7891h-3.1475l-0.6499,1.7891h-1.6865l3.0669-7.874h1.6812
				L128.2137,211.9739z M125.2865,208.8586l-1.085-2.9219l-1.0635,2.9219H125.2865z"/>
			<path class="st2" d="M133.5741,211.9739v-3.3145l-2.8843-4.5596h1.8638l1.853,3.1152l1.8154-3.1152h1.8315l-2.895,4.5713v3.3027
				H133.5741z"/>
			<path class="st2" d="M45.9608,222.7737v-7.874h3.3462c0.8413,0,1.4526,0.0703,1.8345,0.2119
				c0.3809,0.1416,0.6865,0.3936,0.9155,0.7549s0.3438,0.7754,0.3438,1.2412c0,0.5898-0.1738,1.0781-0.521,1.4629
				s-0.8667,0.6279-1.5576,0.7285c0.3438,0.2002,0.6274,0.4199,0.8516,0.6602c0.2236,0.2402,0.5254,0.666,0.9048,1.2783
				l0.9614,1.5361h-1.9014l-1.1494-1.7129c-0.4082-0.6133-0.6875-0.999-0.8379-1.1582s-0.3096-0.2686-0.478-0.3271
				c-0.1685-0.0596-0.4351-0.0889-0.8003-0.0889h-0.3223v3.2871H45.9608z M47.5506,218.2297h1.1763
				c0.7627,0,1.2388-0.0322,1.4287-0.0967s0.3384-0.1758,0.4458-0.333s0.1611-0.3545,0.1611-0.5908
				c0-0.2646-0.0708-0.4785-0.2119-0.6416c-0.1416-0.1631-0.3413-0.2666-0.5991-0.3096c-0.1289-0.0176-0.5156-0.0264-1.1602-0.0264
				h-1.2407V218.2297z"/>
			<path class="st2" d="M53.8993,222.7737v-7.874h5.8384v1.332h-4.2485v1.7451h3.9531v1.3271h-3.9531v2.1436h4.3989v1.3262H53.8993z
				"/>
			<path class="st2" d="M63.0086,222.7737v-6.542h-2.3364v-1.332h6.2573v1.332h-2.3311v6.542H63.0086z"/>
			<path class="st2" d="M67.9608,222.7737v-7.874h3.3462c0.8413,0,1.4526,0.0703,1.8345,0.2119
				c0.3809,0.1416,0.6865,0.3936,0.9155,0.7549s0.3438,0.7754,0.3438,1.2412c0,0.5898-0.1738,1.0781-0.521,1.4629
				s-0.8667,0.6279-1.5576,0.7285c0.3438,0.2002,0.6274,0.4199,0.8516,0.6602c0.2236,0.2402,0.5254,0.666,0.9048,1.2783
				l0.9614,1.5361h-1.9014l-1.1494-1.7129c-0.4082-0.6133-0.6875-0.999-0.8379-1.1582s-0.3096-0.2686-0.478-0.3271
				c-0.1685-0.0596-0.4351-0.0889-0.8003-0.0889h-0.3223v3.2871H67.9608z M69.5506,218.2297h1.1763
				c0.7627,0,1.2388-0.0322,1.4287-0.0967s0.3384-0.1758,0.4458-0.333s0.1611-0.3545,0.1611-0.5908
				c0-0.2646-0.0708-0.4785-0.2119-0.6416c-0.1416-0.1631-0.3413-0.2666-0.5991-0.3096c-0.1289-0.0176-0.5156-0.0264-1.1602-0.0264
				h-1.2407V218.2297z"/>
			<path class="st2" d="M75.577,218.885c0-0.8018,0.1201-1.4756,0.3599-2.0195c0.1792-0.4014,0.4233-0.7607,0.7334-1.0801
				c0.3096-0.3184,0.6489-0.5547,1.0176-0.709c0.4907-0.207,1.0562-0.3105,1.6973-0.3105c1.1602,0,2.0884,0.3594,2.7852,1.0791
				c0.6963,0.7197,1.0444,1.7207,1.0444,3.0029c0,1.2705-0.3457,2.2656-1.0366,2.9834s-1.6147,1.0771-2.7715,1.0771
				c-1.1709,0-2.1021-0.3574-2.793-1.0723C75.9227,221.1223,75.577,220.1379,75.577,218.885z M77.2152,218.8313
				c0,0.8916,0.2061,1.5674,0.6177,2.0273s0.9346,0.6904,1.5684,0.6904s1.1538-0.2285,1.5601-0.6846
				c0.4067-0.457,0.6099-1.1416,0.6099-2.0547c0-0.9023-0.1978-1.5752-0.5933-2.0195c-0.396-0.4443-0.9214-0.666-1.5767-0.666
				s-1.1836,0.2246-1.5845,0.6738S77.2152,217.925,77.2152,218.8313z"/>
			<path class="st2" d="M91.556,222.7737h-1.7295l-0.6875-1.7891h-3.1475l-0.6499,1.7891h-1.6865l3.0669-7.874h1.6812
				L91.556,222.7737z M88.6288,219.6584l-1.085-2.9219l-1.0635,2.9219H88.6288z"/>
			<path class="st2" d="M92.4422,222.7737v-7.8096h1.5898v6.4834h3.9531v1.3262H92.4422z"/>
			<path class="st2" d="M99.0702,222.7737v-7.874h1.5898v7.874H99.0702z"/>
			<path class="st2" d="M102.1532,222.7737v-7.874h2.3794l1.4287,5.3711l1.4126-5.3711h2.3848v7.874h-1.4771v-6.1982l-1.563,6.1982
				h-1.5308l-1.5576-6.1982v6.1982H102.1532z"/>
			<path class="st2" d="M111.3377,222.7737v-7.874h5.8384v1.332h-4.2485v1.7451h3.9531v1.3271h-3.9531v2.1436h4.3989v1.3262
				H111.3377z"/>
			<path class="st2" d="M118.6908,222.7737v-7.874h1.5469l3.2227,5.2588v-5.2588h1.4771v7.874h-1.5952l-3.1743-5.1348v5.1348
				H118.6908z"/>
			<path class="st2" d="M128.391,222.7737v-6.542h-2.3364v-1.332h6.2573v1.332h-2.3311v6.542H128.391z"/>
			<path class="st2" d="M139.6219,222.7737h-1.7295l-0.6875-1.7891h-3.1475l-0.6499,1.7891h-1.6865l3.0669-7.874h1.6812
				L139.6219,222.7737z M136.6947,219.6584l-1.085-2.9219l-1.0635,2.9219H136.6947z"/>
			<path class="st2" d="M145.5033,219.8792l1.5415,0.4883c-0.2363,0.8594-0.6294,1.498-1.1787,1.915
				c-0.5498,0.417-1.2471,0.626-2.0923,0.626c-1.0454,0-1.9048-0.3574-2.5781-1.0723c-0.6733-0.7139-1.0098-1.6904-1.0098-2.9297
				c0-1.3105,0.3384-2.3281,1.0151-3.0537c0.6768-0.7246,1.5664-1.0869,2.6694-1.0869c0.9634,0,1.7456,0.2842,2.3472,0.8535
				c0.3579,0.3369,0.6265,0.8203,0.8057,1.4502l-1.5737,0.376c-0.0933-0.4082-0.2876-0.7305-0.5825-0.9668
				c-0.2959-0.2363-0.6548-0.3545-1.0771-0.3545c-0.5835,0-1.0571,0.21-1.4209,0.6279c-0.3633,0.4199-0.5449,1.0977-0.5449,2.0361
				c0,0.9951,0.1792,1.7041,0.5371,2.127s0.8237,0.6338,1.3965,0.6338c0.4224,0,0.7861-0.1348,1.0903-0.4023
				C145.1522,220.8772,145.3709,220.4553,145.5033,219.8792z"/>
			<path class="st2" d="M148.3607,222.7737v-7.874h1.5898v7.874H148.3607z"/>
			<path class="st2" d="M151.1429,218.885c0-0.8018,0.1201-1.4756,0.3599-2.0195c0.1792-0.4014,0.4233-0.7607,0.7334-1.0801
				c0.3096-0.3184,0.6489-0.5547,1.0176-0.709c0.4907-0.207,1.0562-0.3105,1.6973-0.3105c1.1602,0,2.0884,0.3594,2.7852,1.0791
				c0.6963,0.7197,1.0444,1.7207,1.0444,3.0029c0,1.2705-0.3457,2.2656-1.0366,2.9834s-1.6147,1.0771-2.7715,1.0771
				c-1.1709,0-2.1021-0.3574-2.793-1.0723C151.4886,221.1223,151.1429,220.1379,151.1429,218.885z M152.7811,218.8313
				c0,0.8916,0.2061,1.5674,0.6177,2.0273s0.9346,0.6904,1.5684,0.6904s1.1538-0.2285,1.5601-0.6846
				c0.4067-0.457,0.6099-1.1416,0.6099-2.0547c0-0.9023-0.1978-1.5752-0.5933-2.0195c-0.396-0.4443-0.9214-0.666-1.5767-0.666
				s-1.1836,0.2246-1.5845,0.6738S152.7811,217.925,152.7811,218.8313z M153.9842,214.4485l0.7412-1.6064h1.6919l-1.4771,1.6064
				H153.9842z"/>
			<path class="st2" d="M160.0374,222.7737v-7.874h1.5469l3.2227,5.2588v-5.2588h1.4771v7.874h-1.5952l-3.1743-5.1348v5.1348
				H160.0374z"/>
		</g>
	</g>
	<g>
		<rect x="248.0918" y="214.2383" class="st1" width="135" height="37"/>
		<g>
			<path class="st2" d="M281.7518,228.2795l1.541,0.4883c-0.2363,0.8594-0.6289,1.498-1.1787,1.915s-1.2471,0.626-2.0918,0.626
				c-1.0459,0-1.9053-0.3574-2.5781-1.0723c-0.6738-0.7139-1.0098-1.6904-1.0098-2.9297c0-1.3105,0.3379-2.3281,1.0146-3.0537
				c0.6768-0.7246,1.5664-1.0869,2.6699-1.0869c0.9629,0,1.7451,0.2842,2.3467,0.8535c0.3584,0.3369,0.627,0.8203,0.8057,1.4502
				l-1.5732,0.376c-0.0938-0.4082-0.2881-0.7305-0.583-0.9668c-0.2959-0.2363-0.6543-0.3545-1.0771-0.3545
				c-0.583,0-1.0566,0.21-1.4209,0.6279c-0.3633,0.4199-0.5449,1.0977-0.5449,2.0361c0,0.9951,0.1797,1.7041,0.5371,2.127
				c0.3584,0.4229,0.8242,0.6338,1.3965,0.6338c0.4229,0,0.7861-0.1348,1.0908-0.4023
				C281.4002,229.2776,281.619,228.8557,281.7518,228.2795z"/>
			<path class="st2" d="M284.3348,227.2854c0-0.8018,0.1201-1.4756,0.3604-2.0195c0.1787-0.4014,0.4229-0.7607,0.7334-1.0801
				c0.3096-0.3184,0.6484-0.5547,1.0176-0.709c0.4902-0.207,1.0557-0.3105,1.6973-0.3105c1.1602,0,2.0879,0.3594,2.7852,1.0791
				c0.6963,0.7197,1.0439,1.7207,1.0439,3.0029c0,1.2705-0.3457,2.2656-1.0361,2.9834c-0.6914,0.7178-1.6152,1.0771-2.7715,1.0771
				c-1.1709,0-2.1025-0.3574-2.793-1.0723C284.6805,229.5227,284.3348,228.5383,284.3348,227.2854z M285.9735,227.2317
				c0,0.8916,0.2061,1.5674,0.6172,2.0273c0.4121,0.46,0.9346,0.6904,1.5684,0.6904s1.1543-0.2285,1.5605-0.6846
				c0.4063-0.457,0.6094-1.1416,0.6094-2.0547c0-0.9023-0.1973-1.5752-0.5928-2.0195c-0.3965-0.4443-0.9219-0.666-1.5771-0.666
				s-1.1836,0.2246-1.584,0.6738C286.1737,225.6477,285.9735,226.3254,285.9735,227.2317z"/>
			<path class="st2" d="M293.2293,231.1741V223.3h1.5469l3.2227,5.2588V223.3h1.4775v7.874h-1.5957l-3.1738-5.1348v5.1348H293.2293z
				"/>
			<path class="st2" d="M302.9295,231.1741v-6.542h-2.3359V223.3h6.2568v1.332h-2.3311v6.542H302.9295z"/>
			<path class="st2" d="M307.8817,231.1741V223.3h3.3467c0.8408,0,1.4521,0.0703,1.834,0.2119
				c0.3809,0.1416,0.6865,0.3936,0.916,0.7549c0.2285,0.3613,0.3438,0.7754,0.3438,1.2412c0,0.5898-0.1738,1.0781-0.5215,1.4629
				c-0.3467,0.3848-0.8662,0.6279-1.5576,0.7285c0.3438,0.2002,0.6279,0.4199,0.8516,0.6602s0.5254,0.666,0.9053,1.2783
				l0.9609,1.5361h-1.9014l-1.1494-1.7129c-0.4082-0.6133-0.6875-0.999-0.8379-1.1582s-0.3096-0.2686-0.4775-0.3271
				c-0.1689-0.0596-0.4355-0.0889-0.8008-0.0889h-0.3223v3.2871H307.8817z M309.4715,226.6301h1.1768
				c0.7627,0,1.2383-0.0322,1.4287-0.0967c0.1895-0.0645,0.3379-0.1758,0.4453-0.333s0.1611-0.3545,0.1611-0.5908
				c0-0.2646-0.0703-0.4785-0.2119-0.6416s-0.3408-0.2666-0.5986-0.3096c-0.1289-0.0176-0.5156-0.0264-1.1602-0.0264h-1.2412
				V226.6301z"/>
			<path class="st2" d="M315.8094,223.3h1.5898v4.2646c0,0.6768,0.0195,1.1152,0.0596,1.3164
				c0.0674,0.3223,0.2295,0.5801,0.4863,0.7754c0.2559,0.1953,0.6055,0.293,1.0498,0.293c0.4512,0,0.791-0.0918,1.0205-0.2764
				c0.2285-0.1846,0.3672-0.4111,0.4131-0.6797c0.0469-0.2686,0.0703-0.7139,0.0703-1.3369V223.3h1.5898v4.1357
				c0,0.9453-0.043,1.6133-0.1289,2.0039c-0.0859,0.3896-0.2441,0.7188-0.4756,0.9883c-0.2305,0.2676-0.54,0.4824-0.9268,0.6416
				s-0.8916,0.2393-1.5146,0.2393c-0.752,0-1.3223-0.0869-1.71-0.2607c-0.3887-0.1738-0.6963-0.3994-0.9219-0.6768
				s-0.374-0.5684-0.4453-0.873c-0.1045-0.4512-0.1563-1.1172-0.1563-1.998V223.3z"/>
			<path class="st2" d="M328.8026,228.2795l1.541,0.4883c-0.2363,0.8594-0.6289,1.498-1.1787,1.915s-1.2471,0.626-2.0918,0.626
				c-1.0459,0-1.9053-0.3574-2.5781-1.0723c-0.6738-0.7139-1.0098-1.6904-1.0098-2.9297c0-1.3105,0.3379-2.3281,1.0146-3.0537
				c0.6768-0.7246,1.5664-1.0869,2.6699-1.0869c0.9629,0,1.7451,0.2842,2.3467,0.8535c0.3584,0.3369,0.627,0.8203,0.8057,1.4502
				l-1.5732,0.376c-0.0938-0.4082-0.2881-0.7305-0.583-0.9668c-0.2959-0.2363-0.6543-0.3545-1.0771-0.3545
				c-0.583,0-1.0566,0.21-1.4209,0.6279c-0.3633,0.4199-0.5449,1.0977-0.5449,2.0361c0,0.9951,0.1797,1.7041,0.5371,2.127
				c0.3584,0.4229,0.8242,0.6338,1.3965,0.6338c0.4229,0,0.7861-0.1348,1.0908-0.4023
				C328.451,229.2776,328.6698,228.8557,328.8026,228.2795z"/>
			<path class="st2" d="M336.7459,228.2795l1.542,0.4883c-0.2363,0.8594-0.6299,1.498-1.1787,1.915
				c-0.5498,0.417-1.2471,0.626-2.0928,0.626c-1.0449,0-1.9043-0.3574-2.5781-1.0723c-0.6729-0.7139-1.0098-1.6904-1.0098-2.9297
				c0-1.3105,0.3389-2.3281,1.0156-3.0537c0.6768-0.7246,1.5664-1.0869,2.6689-1.0869c0.9639,0,1.7461,0.2842,2.3477,0.8535
				c0.3574,0.3369,0.626,0.8203,0.8057,1.4502l-1.5742,0.376c-0.0928-0.4082-0.2871-0.7305-0.582-0.9668
				c-0.2959-0.2363-0.6553-0.3545-1.0771-0.3545c-0.584,0-1.0576,0.21-1.4209,0.6279c-0.3633,0.4199-0.5449,1.0977-0.5449,2.0361
				c0,0.9951,0.1787,1.7041,0.5371,2.127c0.3574,0.4229,0.8232,0.6338,1.3965,0.6338c0.4219,0,0.7861-0.1348,1.0898-0.4023
				C336.3954,229.2776,336.6141,228.8557,336.7459,228.2795z"/>
			<path class="st2" d="M339.6034,231.1741V223.3h1.5898v7.874H339.6034z"/>
			<path class="st2" d="M342.3856,227.2854c0-0.8018,0.1201-1.4756,0.3604-2.0195c0.1787-0.4014,0.4229-0.7607,0.7334-1.0801
				c0.3096-0.3184,0.6484-0.5547,1.0176-0.709c0.4902-0.207,1.0557-0.3105,1.6973-0.3105c1.1602,0,2.0879,0.3594,2.7852,1.0791
				c0.6963,0.7197,1.0439,1.7207,1.0439,3.0029c0,1.2705-0.3457,2.2656-1.0361,2.9834c-0.6914,0.7178-1.6152,1.0771-2.7715,1.0771
				c-1.1709,0-2.1025-0.3574-2.793-1.0723C342.7313,229.5227,342.3856,228.5383,342.3856,227.2854z M344.0243,227.2317
				c0,0.8916,0.2061,1.5674,0.6172,2.0273c0.4121,0.46,0.9346,0.6904,1.5684,0.6904s1.1543-0.2285,1.5605-0.6846
				c0.4063-0.457,0.6094-1.1416,0.6094-2.0547c0-0.9023-0.1973-1.5752-0.5928-2.0195c-0.3965-0.4443-0.9219-0.666-1.5771-0.666
				s-1.1836,0.2246-1.584,0.6738C344.2245,225.6477,344.0243,226.3254,344.0243,227.2317z M345.2274,222.8489l0.7412-1.6064h1.6914
				l-1.4766,1.6064H345.2274z"/>
			<path class="st2" d="M351.2801,231.1741V223.3h1.5469l3.2227,5.2588V223.3h1.4775v7.874h-1.5957l-3.1738-5.1348v5.1348H351.2801z
				"/>
			<path class="st2" d="M273.2352,236.0999h2.9063c0.6553,0,1.1543,0.0498,1.498,0.1504c0.4619,0.1357,0.8574,0.3779,1.1875,0.7256
				c0.3291,0.3467,0.5801,0.7725,0.752,1.2754s0.2578,1.123,0.2578,1.8613c0,0.6475-0.0811,1.2061-0.2422,1.6758
				c-0.1963,0.5723-0.4775,1.0361-0.8428,1.3906c-0.2764,0.2686-0.6484,0.4785-1.1172,0.6289
				c-0.3516,0.1104-0.8203,0.166-1.4072,0.166h-2.9922V236.0999z M274.825,237.4319v5.2158h1.1875
				c0.4434,0,0.7646-0.0254,0.9609-0.0762c0.2578-0.0645,0.4717-0.1729,0.6416-0.3271c0.1709-0.1543,0.3096-0.4072,0.417-0.7598
				s0.1611-0.834,0.1611-1.4424s-0.0537-1.0762-0.1611-1.4023c-0.1074-0.3252-0.2578-0.5801-0.4512-0.7617
				c-0.1934-0.1836-0.4385-0.3066-0.7363-0.3711c-0.2217-0.0498-0.6572-0.0752-1.3047-0.0752H274.825z"/>
			<path class="st2" d="M281.1844,243.9739v-7.874h5.8389v1.332h-4.249v1.7451h3.9531v1.3271h-3.9531v2.1436h4.3994v1.3262H281.1844
				z"/>
			<path class="st2" d="M288.5643,243.9739v-7.8096h1.5898v6.4834h3.9531v1.3262H288.5643z"/>
			<path class="st2" d="M298.0985,243.9739v-7.874h2.5508c0.9668,0,1.5977,0.0391,1.8906,0.1182
				c0.4512,0.1182,0.8291,0.375,1.1338,0.7705c0.3037,0.3955,0.4561,0.9072,0.4561,1.5342c0,0.4824-0.0879,0.8896-0.2627,1.2188
				c-0.1758,0.3291-0.3984,0.5879-0.6689,0.7764c-0.2705,0.1875-0.5449,0.3125-0.8242,0.373
				c-0.3799,0.0752-0.9297,0.1123-1.6494,0.1123h-1.0361v2.9707H298.0985z M299.6883,237.4319v2.2344h0.8701
				c0.626,0,1.0449-0.041,1.2568-0.124c0.2109-0.082,0.377-0.2109,0.4961-0.3867c0.1201-0.1748,0.1807-0.3789,0.1807-0.6113
				c0-0.2871-0.084-0.5234-0.2529-0.709c-0.168-0.1865-0.3809-0.3027-0.6387-0.3496c-0.1904-0.0361-0.5713-0.0537-1.1445-0.0537
				H299.6883z"/>
			<path class="st2" d="M305.4403,243.9739v-7.874h3.3467c0.8408,0,1.4521,0.0703,1.834,0.2119
				c0.3809,0.1416,0.6865,0.3936,0.916,0.7549c0.2285,0.3613,0.3438,0.7754,0.3438,1.2412c0,0.5898-0.1738,1.0781-0.5215,1.4629
				c-0.3467,0.3848-0.8662,0.6279-1.5576,0.7285c0.3438,0.2002,0.6279,0.4199,0.8516,0.6602s0.5254,0.666,0.9053,1.2783
				l0.9609,1.5361h-1.9014l-1.1494-1.7129c-0.4082-0.6133-0.6875-0.999-0.8379-1.1582s-0.3096-0.2686-0.4775-0.3271
				c-0.1689-0.0596-0.4355-0.0889-0.8008-0.0889h-0.3223v3.2871H305.4403z M307.0301,239.4299h1.1768
				c0.7627,0,1.2383-0.0322,1.4287-0.0967c0.1895-0.0645,0.3379-0.1758,0.4453-0.333s0.1611-0.3545,0.1611-0.5908
				c0-0.2646-0.0703-0.4785-0.2119-0.6416s-0.3408-0.2666-0.5986-0.3096c-0.1289-0.0176-0.5156-0.0264-1.1602-0.0264h-1.2412
				V239.4299z"/>
			<path class="st2" d="M313.0565,240.0852c0-0.8018,0.1201-1.4756,0.3604-2.0195c0.1787-0.4014,0.4229-0.7607,0.7334-1.0801
				c0.3096-0.3184,0.6484-0.5547,1.0176-0.709c0.4902-0.207,1.0557-0.3105,1.6973-0.3105c1.1602,0,2.0879,0.3594,2.7852,1.0791
				c0.6963,0.7197,1.0439,1.7207,1.0439,3.0029c0,1.2705-0.3457,2.2656-1.0361,2.9834c-0.6914,0.7178-1.6152,1.0771-2.7715,1.0771
				c-1.1709,0-2.1025-0.3574-2.793-1.0723C313.4022,242.3225,313.0565,241.3381,313.0565,240.0852z M314.6952,240.0315
				c0,0.8916,0.2061,1.5674,0.6172,2.0273c0.4121,0.46,0.9346,0.6904,1.5684,0.6904s1.1543-0.2285,1.5605-0.6846
				c0.4063-0.457,0.6094-1.1416,0.6094-2.0547c0-0.9023-0.1973-1.5752-0.5928-2.0195c-0.3965-0.4443-0.9219-0.666-1.5771-0.666
				s-1.1836,0.2246-1.584,0.6738C314.8954,238.4475,314.6952,239.1252,314.6952,240.0315z"/>
			<path class="st2" d="M323.7079,243.9739v-6.542h-2.3369v-1.332h6.2578v1.332h-2.3311v6.542H323.7079z"/>
			<path class="st2" d="M328.1336,240.0852c0-0.8018,0.1201-1.4756,0.3594-2.0195c0.1797-0.4014,0.4238-0.7607,0.7334-1.0801
				c0.3096-0.3184,0.6494-0.5547,1.0176-0.709c0.4912-0.207,1.0566-0.3105,1.6973-0.3105c1.1602,0,2.0889,0.3594,2.7852,1.0791
				s1.0449,1.7207,1.0449,3.0029c0,1.2705-0.3457,2.2656-1.0371,2.9834c-0.6904,0.7178-1.6143,1.0771-2.7715,1.0771
				c-1.1709,0-2.1016-0.3574-2.793-1.0723C328.4793,242.3225,328.1336,241.3381,328.1336,240.0852z M329.7713,240.0315
				c0,0.8916,0.2061,1.5674,0.6182,2.0273c0.4111,0.46,0.9346,0.6904,1.5684,0.6904s1.1533-0.2285,1.5596-0.6846
				c0.4072-0.457,0.6104-1.1416,0.6104-2.0547c0-0.9023-0.1982-1.5752-0.5938-2.0195s-0.9209-0.666-1.5762-0.666
				s-1.1836,0.2246-1.585,0.6738C329.9725,238.4475,329.7713,239.1252,329.7713,240.0315z"/>
			<path class="st2" d="M338.784,243.9739v-6.542h-2.3359v-1.332h6.2568v1.332h-2.3311v6.542H338.784z"/>
			<path class="st2" d="M343.6825,243.9739v-7.874h1.5898v7.874H343.6825z"/>
			<path class="st2" d="M346.787,243.9739v-7.874h2.5518c0.9668,0,1.5967,0.0391,1.8906,0.1182
				c0.4512,0.1182,0.8291,0.375,1.1328,0.7705c0.3047,0.3955,0.457,0.9072,0.457,1.5342c0,0.4824-0.0879,0.8896-0.2637,1.2188
				c-0.1748,0.3291-0.3984,0.5879-0.668,0.7764c-0.2705,0.1875-0.5459,0.3125-0.8252,0.373
				c-0.3789,0.0752-0.9287,0.1123-1.6484,0.1123h-1.0371v2.9707H346.787z M348.3768,237.4319v2.2344h0.8701
				c0.627,0,1.0459-0.041,1.2568-0.124c0.2119-0.082,0.377-0.2109,0.4971-0.3867c0.1201-0.1748,0.1797-0.3789,0.1797-0.6113
				c0-0.2871-0.084-0.5234-0.252-0.709c-0.1689-0.1865-0.3818-0.3027-0.6396-0.3496c-0.1895-0.0361-0.5713-0.0537-1.1436-0.0537
				H348.3768z"/>
			<path class="st2" d="M353.8016,240.0852c0-0.8018,0.1201-1.4756,0.3604-2.0195c0.1787-0.4014,0.4229-0.7607,0.7334-1.0801
				c0.3096-0.3184,0.6484-0.5547,1.0176-0.709c0.4902-0.207,1.0557-0.3105,1.6973-0.3105c1.1602,0,2.0879,0.3594,2.7852,1.0791
				c0.6963,0.7197,1.0439,1.7207,1.0439,3.0029c0,1.2705-0.3457,2.2656-1.0361,2.9834c-0.6914,0.7178-1.6152,1.0771-2.7715,1.0771
				c-1.1709,0-2.1025-0.3574-2.793-1.0723C354.1473,242.3225,353.8016,241.3381,353.8016,240.0852z M355.4403,240.0315
				c0,0.8916,0.2061,1.5674,0.6172,2.0273c0.4121,0.46,0.9346,0.6904,1.5684,0.6904s1.1543-0.2285,1.5605-0.6846
				c0.4063-0.457,0.6094-1.1416,0.6094-2.0547c0-0.9023-0.1973-1.5752-0.5928-2.0195c-0.3965-0.4443-0.9219-0.666-1.5771-0.666
				s-1.1836,0.2246-1.584,0.6738C355.6405,238.4475,355.4403,239.1252,355.4403,240.0315z"/>
		</g>
	</g>
	<g>
		<rect x="288.0918" y="88.2383" class="st1" width="135" height="37"/>
		<g>
			<path class="st2" d="M325.8573,105.1741V97.3h2.3799l1.4287,5.3711L331.078,97.3h2.3848v7.874h-1.4766v-6.1982l-1.5635,6.1982
				h-1.5303l-1.5576-6.1982v6.1982H325.8573z"/>
			<path class="st2" d="M334.7196,101.2854c0-0.8018,0.1201-1.4756,0.3604-2.0195c0.1787-0.4014,0.4229-0.7607,0.7334-1.0801
				c0.3096-0.3184,0.6484-0.5547,1.0176-0.709c0.4902-0.207,1.0557-0.3105,1.6973-0.3105c1.1602,0,2.0879,0.3594,2.7852,1.0791
				c0.6963,0.7197,1.0439,1.7207,1.0439,3.0029c0,1.2705-0.3457,2.2656-1.0361,2.9834c-0.6914,0.7178-1.6152,1.0771-2.7715,1.0771
				c-1.1709,0-2.1025-0.3574-2.793-1.0723C335.0653,103.5227,334.7196,102.5383,334.7196,101.2854z M336.3582,101.2317
				c0,0.8916,0.2061,1.5674,0.6172,2.0273c0.4121,0.46,0.9346,0.6904,1.5684,0.6904s1.1543-0.2285,1.5605-0.6846
				c0.4063-0.457,0.6094-1.1416,0.6094-2.0547c0-0.9023-0.1973-1.5752-0.5928-2.0195c-0.3965-0.4443-0.9219-0.666-1.5771-0.666
				s-1.1836,0.2246-1.584,0.6738C336.5584,99.6477,336.3582,100.3254,336.3582,101.2317z"/>
			<path class="st2" d="M343.5926,97.3h2.9063c0.6553,0,1.1543,0.0498,1.498,0.1504c0.4619,0.1357,0.8574,0.3779,1.1875,0.7256
				c0.3291,0.3467,0.5801,0.7725,0.752,1.2754s0.2578,1.123,0.2578,1.8613c0,0.6475-0.0811,1.2061-0.2422,1.6758
				c-0.1963,0.5723-0.4775,1.0361-0.8428,1.3906c-0.2764,0.2686-0.6484,0.4785-1.1172,0.6289
				c-0.3516,0.1104-0.8203,0.166-1.4072,0.166h-2.9922V97.3z M345.1825,98.6321v5.2158h1.1875c0.4434,0,0.7646-0.0254,0.9609-0.0762
				c0.2578-0.0645,0.4717-0.1729,0.6416-0.3271c0.1709-0.1543,0.3096-0.4072,0.417-0.7598s0.1611-0.834,0.1611-1.4424
				s-0.0537-1.0762-0.1611-1.4023c-0.1074-0.3252-0.2578-0.5801-0.4512-0.7617c-0.1934-0.1836-0.4385-0.3066-0.7363-0.3711
				c-0.2217-0.0498-0.6572-0.0752-1.3047-0.0752H345.1825z"/>
			<path class="st2" d="M351.5418,105.1741V97.3h5.8389v1.332h-4.249v1.7451h3.9531v1.3271h-3.9531v2.1436h4.3994v1.3262H351.5418z"
				/>
			<path class="st2" d="M358.9217,105.1741v-7.8096h1.5898v6.4834h3.9531v1.3262H358.9217z"/>
			<path class="st2" d="M372.6991,105.1741h-1.7295l-0.6875-1.7891h-3.1475l-0.6504,1.7891h-1.6865l3.0674-7.874h1.6807
				L372.6991,105.1741z M369.7713,102.0588l-1.085-2.9219l-1.0635,2.9219H369.7713z"/>
			<path class="st2" d="M373.537,97.3h2.9053c0.6553,0,1.1553,0.0498,1.499,0.1504c0.4619,0.1357,0.8574,0.3779,1.1865,0.7256
				c0.3301,0.3467,0.5801,0.7725,0.752,1.2754s0.2578,1.123,0.2578,1.8613c0,0.6475-0.0801,1.2061-0.2412,1.6758
				c-0.1973,0.5723-0.4785,1.0361-0.8438,1.3906c-0.2754,0.2686-0.6475,0.4785-1.1172,0.6289
				c-0.3506,0.1104-0.8193,0.166-1.4072,0.166h-2.9912V97.3z M375.1268,98.6321v5.2158h1.1865c0.4443,0,0.7646-0.0254,0.9619-0.0762
				c0.2578-0.0645,0.4717-0.1729,0.6416-0.3271s0.3086-0.4072,0.416-0.7598s0.1611-0.834,0.1611-1.4424
				s-0.0537-1.0762-0.1611-1.4023c-0.1074-0.3252-0.2578-0.5801-0.4512-0.7617c-0.1934-0.1836-0.4385-0.3066-0.7354-0.3711
				c-0.2227-0.0498-0.6572-0.0752-1.3057-0.0752H375.1268z"/>
			<path class="st2" d="M381.1639,101.2854c0-0.8018,0.1201-1.4756,0.3594-2.0195c0.1797-0.4014,0.4238-0.7607,0.7334-1.0801
				c0.3096-0.3184,0.6494-0.5547,1.0176-0.709c0.4912-0.207,1.0566-0.3105,1.6973-0.3105c1.1602,0,2.0889,0.3594,2.7852,1.0791
				s1.0449,1.7207,1.0449,3.0029c0,1.2705-0.3457,2.2656-1.0371,2.9834c-0.6904,0.7178-1.6143,1.0771-2.7715,1.0771
				c-1.1709,0-2.1016-0.3574-2.793-1.0723C381.5096,103.5227,381.1639,102.5383,381.1639,101.2854z M382.8016,101.2317
				c0,0.8916,0.2061,1.5674,0.6182,2.0273c0.4111,0.46,0.9346,0.6904,1.5684,0.6904s1.1533-0.2285,1.5596-0.6846
				c0.4072-0.457,0.6104-1.1416,0.6104-2.0547c0-0.9023-0.1982-1.5752-0.5938-2.0195s-0.9209-0.666-1.5762-0.666
				s-1.1836,0.2246-1.585,0.6738C383.0028,99.6477,382.8016,100.3254,382.8016,101.2317z"/>
			<path class="st2" d="M313.95,110.0999h2.9053c0.6553,0,1.1553,0.0498,1.499,0.1504c0.4619,0.1357,0.8574,0.3779,1.1865,0.7256
				c0.3301,0.3467,0.5801,0.7725,0.752,1.2754s0.2578,1.123,0.2578,1.8613c0,0.6475-0.0801,1.2061-0.2412,1.6758
				c-0.1973,0.5723-0.4785,1.0361-0.8438,1.3906c-0.2754,0.2686-0.6475,0.4785-1.1172,0.6289
				c-0.3506,0.1104-0.8193,0.166-1.4072,0.166H313.95V110.0999z M315.5399,111.4319v5.2158h1.1865
				c0.4443,0,0.7646-0.0254,0.9619-0.0762c0.2578-0.0645,0.4717-0.1729,0.6416-0.3271s0.3086-0.4072,0.416-0.7598
				s0.1611-0.834,0.1611-1.4424s-0.0537-1.0762-0.1611-1.4023c-0.1074-0.3252-0.2578-0.5801-0.4512-0.7617
				c-0.1934-0.1836-0.4385-0.3066-0.7354-0.3711c-0.2227-0.0498-0.6572-0.0752-1.3057-0.0752H315.5399z"/>
			<path class="st2" d="M321.8504,117.9739v-7.874h1.5898v7.874H321.8504z"/>
			<path class="st2" d="M324.5526,115.4114l1.5469-0.1504c0.0928,0.5195,0.2822,0.9014,0.5664,1.1445
				c0.2852,0.2432,0.6689,0.3652,1.1523,0.3652c0.5117,0,0.8975-0.1084,1.1572-0.3252s0.3896-0.4697,0.3896-0.7598
				c0-0.1865-0.0547-0.3447-0.1641-0.4756s-0.2998-0.2441-0.5723-0.3408c-0.1855-0.0645-0.6104-0.1787-1.2725-0.3438
				c-0.8525-0.2109-1.4502-0.4707-1.7939-0.7783c-0.4834-0.4336-0.7256-0.9619-0.7256-1.585c0-0.4014,0.1143-0.7764,0.3418-1.125
				c0.2266-0.3496,0.5547-0.6152,0.9824-0.7979s0.9443-0.2734,1.5498-0.2734c0.9883,0,1.7324,0.2158,2.2314,0.6494
				c0.5,0.4336,0.7617,1.0117,0.7871,1.7354l-1.5898,0.0693c-0.0684-0.4043-0.2139-0.6953-0.4375-0.873
				c-0.2246-0.1768-0.5596-0.2656-1.0078-0.2656c-0.4619,0-0.8232,0.0947-1.085,0.2842c-0.168,0.1221-0.252,0.2852-0.252,0.4893
				c0,0.1865,0.0781,0.3457,0.2363,0.4775c0.2002,0.1689,0.6875,0.3438,1.4609,0.5273c0.7734,0.1816,1.3457,0.3711,1.7158,0.5664
				c0.3711,0.1953,0.6611,0.4619,0.8701,0.7998c0.21,0.3389,0.3145,0.7568,0.3145,1.2549c0,0.4512-0.126,0.873-0.376,1.2676
				c-0.251,0.3936-0.6055,0.6865-1.0635,0.8779c-0.459,0.1914-1.0293,0.2871-1.7139,0.2871c-0.9951,0-1.7598-0.2305-2.293-0.6904
				C324.9745,116.9631,324.6561,116.2922,324.5526,115.4114z"/>
			<path class="st2" d="M332.2918,117.9739v-7.874h5.8389v1.332h-4.249v1.7451h3.9531v1.3271h-3.9531v2.1436h4.3994v1.3262H332.2918
				z"/>
			<path class="st2" d="M339.6454,117.9739v-7.874h1.5469l3.2227,5.2588v-5.2588h1.4766v7.874h-1.5947l-3.1748-5.1348v5.1348
				H339.6454z M341.6219,109.6653h-0.6875c-0.0039-0.083-0.0059-0.1475-0.0059-0.1934c0-0.377,0.0918-0.666,0.2744-0.8682
				s0.417-0.3037,0.7031-0.3037c0.126,0,0.2422,0.0137,0.3496,0.041c0.1074,0.0264,0.3037,0.1035,0.5879,0.2305
				c0.2852,0.127,0.5078,0.1914,0.6689,0.1914c0.1143,0,0.21-0.0361,0.2871-0.1074c0.0771-0.0723,0.126-0.1924,0.1475-0.3604h0.6982
				c-0.0029,0.4834-0.0938,0.8291-0.2705,1.0361c-0.1777,0.208-0.4063,0.3125-0.6855,0.3125c-0.1211,0-0.2412-0.0127-0.3594-0.0381
				c-0.083-0.0215-0.2881-0.0947-0.6182-0.2197c-0.3291-0.126-0.5693-0.1885-0.7197-0.1885c-0.1143,0-0.2041,0.0352-0.2686,0.1045
				C341.659,109.3723,341.6248,109.4934,341.6219,109.6653z"/>
			<path class="st2" d="M347.2508,114.0852c0-0.8018,0.1201-1.4756,0.3594-2.0195c0.1797-0.4014,0.4238-0.7607,0.7334-1.0801
				c0.3096-0.3184,0.6494-0.5547,1.0176-0.709c0.4912-0.207,1.0566-0.3105,1.6973-0.3105c1.1602,0,2.0889,0.3594,2.7852,1.0791
				s1.0449,1.7207,1.0449,3.0029c0,1.2705-0.3457,2.2656-1.0371,2.9834c-0.6904,0.7178-1.6143,1.0771-2.7715,1.0771
				c-1.1709,0-2.1016-0.3574-2.793-1.0723C347.5965,116.3225,347.2508,115.3381,347.2508,114.0852z M348.8885,114.0315
				c0,0.8916,0.2061,1.5674,0.6182,2.0273c0.4111,0.46,0.9346,0.6904,1.5684,0.6904s1.1533-0.2285,1.5596-0.6846
				c0.4072-0.457,0.6104-1.1416,0.6104-2.0547c0-0.9023-0.1982-1.5752-0.5938-2.0195s-0.9209-0.666-1.5762-0.666
				s-1.1836,0.2246-1.585,0.6738C349.0897,112.4475,348.8885,113.1252,348.8885,114.0315z"/>
			<path class="st2" d="M359.1903,117.9739v-7.874h3.3467c0.8408,0,1.4521,0.0703,1.834,0.2119
				c0.3809,0.1416,0.6865,0.3936,0.916,0.7549c0.2285,0.3613,0.3438,0.7754,0.3438,1.2412c0,0.5898-0.1738,1.0781-0.5215,1.4629
				c-0.3467,0.3848-0.8662,0.6279-1.5576,0.7285c0.3438,0.2002,0.6279,0.4199,0.8516,0.6602s0.5254,0.666,0.9053,1.2783
				l0.9609,1.5361h-1.9014l-1.1494-1.7129c-0.4082-0.6133-0.6875-0.999-0.8379-1.1582s-0.3096-0.2686-0.4775-0.3271
				c-0.1689-0.0596-0.4355-0.0889-0.8008-0.0889h-0.3223v3.2871H359.1903z M360.7801,113.4299h1.1768
				c0.7627,0,1.2383-0.0322,1.4287-0.0967c0.1895-0.0645,0.3379-0.1758,0.4453-0.333s0.1611-0.3545,0.1611-0.5908
				c0-0.2646-0.0703-0.4785-0.2119-0.6416s-0.3408-0.2666-0.5986-0.3096c-0.1289-0.0176-0.5156-0.0264-1.1602-0.0264h-1.2412
				V113.4299z"/>
			<path class="st2" d="M374.2293,117.9739h-1.7295l-0.6875-1.7891h-3.1475l-0.6494,1.7891h-1.6865l3.0664-7.874h1.6816
				L374.2293,117.9739z M371.3026,114.8586l-1.085-2.9219l-1.0635,2.9219H371.3026z M369.3045,109.6487l0.7412-1.6064h1.6914
				l-1.4766,1.6064H369.3045z"/>
			<path class="st2" d="M375.0731,117.9739v-7.874h2.5508c0.9668,0,1.5977,0.0391,1.8906,0.1182
				c0.4512,0.1182,0.8291,0.375,1.1338,0.7705c0.3037,0.3955,0.4561,0.9072,0.4561,1.5342c0,0.4824-0.0879,0.8896-0.2627,1.2188
				c-0.1758,0.3291-0.3984,0.5879-0.6689,0.7764c-0.2705,0.1875-0.5449,0.3125-0.8242,0.373
				c-0.3799,0.0752-0.9297,0.1123-1.6494,0.1123h-1.0361v2.9707H375.0731z M376.6629,111.4319v2.2344h0.8701
				c0.626,0,1.0449-0.041,1.2568-0.124c0.2109-0.082,0.377-0.2109,0.4961-0.3867c0.1201-0.1748,0.1807-0.3789,0.1807-0.6113
				c0-0.2871-0.084-0.5234-0.2529-0.709c-0.168-0.1865-0.3809-0.3027-0.6387-0.3496c-0.1904-0.0361-0.5713-0.0537-1.1445-0.0537
				H376.6629z"/>
			<path class="st2" d="M382.3612,117.9739v-7.874h1.5898v7.874H382.3612z"/>
			<path class="st2" d="M385.4608,110.0999h2.9053c0.6553,0,1.1553,0.0498,1.499,0.1504c0.4619,0.1357,0.8574,0.3779,1.1865,0.7256
				c0.3301,0.3467,0.5801,0.7725,0.752,1.2754s0.2578,1.123,0.2578,1.8613c0,0.6475-0.0801,1.2061-0.2412,1.6758
				c-0.1973,0.5723-0.4785,1.0361-0.8438,1.3906c-0.2754,0.2686-0.6475,0.4785-1.1172,0.6289
				c-0.3506,0.1104-0.8193,0.166-1.4072,0.166h-2.9912V110.0999z M387.0506,111.4319v5.2158h1.1865
				c0.4443,0,0.7646-0.0254,0.9619-0.0762c0.2578-0.0645,0.4717-0.1729,0.6416-0.3271s0.3086-0.4072,0.416-0.7598
				s0.1611-0.834,0.1611-1.4424s-0.0537-1.0762-0.1611-1.4023c-0.1074-0.3252-0.2578-0.5801-0.4512-0.7617
				c-0.1934-0.1836-0.4385-0.3066-0.7354-0.3711c-0.2227-0.0498-0.6572-0.0752-1.3057-0.0752H387.0506z"/>
			<path class="st2" d="M393.0877,114.0852c0-0.8018,0.1201-1.4756,0.3594-2.0195c0.1797-0.4014,0.4238-0.7607,0.7334-1.0801
				c0.3096-0.3184,0.6494-0.5547,1.0176-0.709c0.4912-0.207,1.0566-0.3105,1.6973-0.3105c1.1602,0,2.0889,0.3594,2.7852,1.0791
				s1.0449,1.7207,1.0449,3.0029c0,1.2705-0.3457,2.2656-1.0371,2.9834c-0.6904,0.7178-1.6143,1.0771-2.7715,1.0771
				c-1.1709,0-2.1016-0.3574-2.793-1.0723C393.4334,116.3225,393.0877,115.3381,393.0877,114.0852z M394.7254,114.0315
				c0,0.8916,0.2061,1.5674,0.6182,2.0273c0.4111,0.46,0.9346,0.6904,1.5684,0.6904s1.1533-0.2285,1.5596-0.6846
				c0.4072-0.457,0.6104-1.1416,0.6104-2.0547c0-0.9023-0.1982-1.5752-0.5938-2.0195s-0.9209-0.666-1.5762-0.666
				s-1.1836,0.2246-1.585,0.6738C394.9266,112.4475,394.7254,113.1252,394.7254,114.0315z"/>
		</g>
	</g>
	<g>
		<rect x="236.0918" y="36.2383" class="st1" width="135" height="37"/>
		<g>
			<path class="st2" d="M267.0702,59.1741v-7.874h2.5508c0.9668,0,1.5977,0.0391,1.8906,0.1182
				c0.4512,0.1182,0.8291,0.375,1.1338,0.7705c0.3037,0.3955,0.4561,0.9072,0.4561,1.5342c0,0.4824-0.0879,0.8896-0.2627,1.2188
				c-0.1758,0.3291-0.3984,0.5879-0.6689,0.7764c-0.2705,0.1875-0.5449,0.3125-0.8242,0.373
				c-0.3799,0.0752-0.9297,0.1123-1.6494,0.1123H268.66v2.9707H267.0702z M268.66,52.6321v2.2344h0.8701
				c0.626,0,1.0449-0.041,1.2568-0.124c0.2109-0.082,0.377-0.2109,0.4961-0.3867c0.1201-0.1748,0.1807-0.3789,0.1807-0.6113
				c0-0.2871-0.084-0.5234-0.2529-0.709c-0.168-0.1865-0.3809-0.3027-0.6387-0.3496c-0.1904-0.0361-0.5713-0.0537-1.1445-0.0537
				H268.66z"/>
			<path class="st2" d="M274.45,59.1741v-7.8096h1.5898v6.4834h3.9531v1.3262H274.45z"/>
			<path class="st2" d="M288.2264,59.1741h-1.7295l-0.6875-1.7891h-3.1475l-0.6494,1.7891h-1.6865l3.0664-7.874h1.6816
				L288.2264,59.1741z M285.2997,56.0588l-1.085-2.9219l-1.0635,2.9219H285.2997z"/>
			<path class="st2" d="M289.0858,59.1741v-7.874h1.5469l3.2227,5.2588v-5.2588h1.4775v7.874h-1.5957l-3.1738-5.1348v5.1348
				H289.0858z"/>
			<path class="st2" d="M300.075,59.1741v-7.874h3.3467c0.8408,0,1.4521,0.0703,1.834,0.2119
				c0.3809,0.1416,0.6865,0.3936,0.916,0.7549c0.2285,0.3613,0.3438,0.7754,0.3438,1.2412c0,0.5898-0.1738,1.0781-0.5215,1.4629
				c-0.3467,0.3848-0.8662,0.6279-1.5576,0.7285c0.3438,0.2002,0.6279,0.4199,0.8516,0.6602s0.5254,0.666,0.9053,1.2783
				l0.9609,1.5361h-1.9014l-1.1494-1.7129c-0.4082-0.6133-0.6875-0.999-0.8379-1.1582s-0.3096-0.2686-0.4775-0.3271
				c-0.1689-0.0596-0.4355-0.0889-0.8008-0.0889h-0.3223v3.2871H300.075z M301.6649,54.6301h1.1768
				c0.7627,0,1.2383-0.0322,1.4287-0.0967c0.1895-0.0645,0.3379-0.1758,0.4453-0.333s0.1611-0.3545,0.1611-0.5908
				c0-0.2646-0.0703-0.4785-0.2119-0.6416s-0.3408-0.2666-0.5986-0.3096c-0.1289-0.0176-0.5156-0.0264-1.1602-0.0264h-1.2412
				V54.6301z"/>
			<path class="st2" d="M315.1141,59.1741h-1.7295l-0.6875-1.7891h-3.1475l-0.6494,1.7891h-1.6865l3.0664-7.874h1.6816
				L315.1141,59.1741z M312.1873,56.0588l-1.085-2.9219l-1.0635,2.9219H312.1873z M310.1893,50.8489l0.7412-1.6064h1.6914
				l-1.4766,1.6064H310.1893z"/>
			<path class="st2" d="M315.9579,59.1741v-7.874h2.5508c0.9668,0,1.5977,0.0391,1.8906,0.1182
				c0.4512,0.1182,0.8291,0.375,1.1338,0.7705c0.3037,0.3955,0.4561,0.9072,0.4561,1.5342c0,0.4824-0.0879,0.8896-0.2627,1.2188
				c-0.1758,0.3291-0.3984,0.5879-0.6689,0.7764c-0.2705,0.1875-0.5449,0.3125-0.8242,0.373
				c-0.3799,0.0752-0.9297,0.1123-1.6494,0.1123h-1.0361v2.9707H315.9579z M317.5477,52.6321v2.2344h0.8701
				c0.626,0,1.0449-0.041,1.2568-0.124c0.2109-0.082,0.377-0.2109,0.4961-0.3867c0.1201-0.1748,0.1807-0.3789,0.1807-0.6113
				c0-0.2871-0.084-0.5234-0.2529-0.709c-0.168-0.1865-0.3809-0.3027-0.6387-0.3496c-0.1904-0.0361-0.5713-0.0537-1.1445-0.0537
				H317.5477z"/>
			<path class="st2" d="M323.2459,59.1741v-7.874h1.5898v7.874H323.2459z"/>
			<path class="st2" d="M326.3456,51.3001h2.9053c0.6553,0,1.1553,0.0498,1.499,0.1504c0.4619,0.1357,0.8574,0.3779,1.1865,0.7256
				c0.3301,0.3467,0.5801,0.7725,0.752,1.2754s0.2578,1.123,0.2578,1.8613c0,0.6475-0.0801,1.2061-0.2412,1.6758
				c-0.1973,0.5723-0.4785,1.0361-0.8438,1.3906c-0.2754,0.2686-0.6475,0.4785-1.1172,0.6289
				c-0.3506,0.1104-0.8193,0.166-1.4072,0.166h-2.9912V51.3001z M327.9354,52.6321v5.2158h1.1865
				c0.4443,0,0.7646-0.0254,0.9619-0.0762c0.2578-0.0645,0.4717-0.1729,0.6416-0.3271s0.3086-0.4072,0.416-0.7598
				s0.1611-0.834,0.1611-1.4424s-0.0537-1.0762-0.1611-1.4023c-0.1074-0.3252-0.2578-0.5801-0.4512-0.7617
				c-0.1934-0.1836-0.4385-0.3066-0.7354-0.3711c-0.2227-0.0498-0.6572-0.0752-1.3057-0.0752H327.9354z"/>
			<path class="st2" d="M333.9725,55.2854c0-0.8018,0.1201-1.4756,0.3594-2.0195c0.1797-0.4014,0.4238-0.7607,0.7334-1.0801
				c0.3096-0.3184,0.6494-0.5547,1.0176-0.709c0.4912-0.207,1.0566-0.3105,1.6973-0.3105c1.1602,0,2.0889,0.3594,2.7852,1.0791
				s1.0449,1.7207,1.0449,3.0029c0,1.2705-0.3457,2.2656-1.0371,2.9834c-0.6904,0.7178-1.6143,1.0771-2.7715,1.0771
				c-1.1709,0-2.1016-0.3574-2.793-1.0723C334.3182,57.5227,333.9725,56.5383,333.9725,55.2854z M335.6102,55.2317
				c0,0.8916,0.2061,1.5674,0.6182,2.0273c0.4111,0.46,0.9346,0.6904,1.5684,0.6904s1.1533-0.2285,1.5596-0.6846
				c0.4072-0.457,0.6104-1.1416,0.6104-2.0547c0-0.9023-0.1982-1.5752-0.5938-2.0195s-0.9209-0.666-1.5762-0.666
				s-1.1836,0.2246-1.585,0.6738C335.8114,53.6477,335.6102,54.3254,335.6102,55.2317z"/>
		</g>
	</g>
</g>
</svg>
