<?xml version="1.0" encoding="utf-8"?>
<!-- Generator: Adobe Illustrator 16.0.0, SVG Export Plug-In . SVG Version: 6.00 Build 0)  -->
<!DOCTYPE svg PUBLIC "-//W3C//DTD SVG 1.1//EN" "http://www.w3.org/Graphics/SVG/1.1/DTD/svg11.dtd">
<svg version="1.1" id="Capa_1" xmlns="http://www.w3.org/2000/svg" xmlns:xlink="http://www.w3.org/1999/xlink" x="0px" y="0px"
	 width="661px" height="316px" viewBox="0 0 661 316" enable-background="new 0 0 661 316" xml:space="preserve">
<g>
	<path fill="#0071BC" d="M307.2188,204.3887c83.4365-1.6982,92.3623-33.4473,92.3623-35.2305
		c0-8.9902-14.001-32.4551-89.5947-32.4551s-73.248,27.835-73.248,28.8652c0,0.7832,0.1426,5.124,4.2266,9.416l-43.6807-3.1699
		c1.3652,2.2588,3.2275,4.7031,5.7676,7.2031C215.2881,191.0605,243.2598,204.3887,307.2188,204.3887z"/>
	<path fill="#3B86B1" d="M301.9746,220.6016c130.2695-2.2891,135.0918-46.3418,135.0918-51.6953
		c0-12.9063-19.7217-46.3672-131.7832-46.3672s-111.7539,34.5078-111.7539,37.5977c0,0.75,1.4287,13.0293,10.0996,18.8926
		l37.3359-4.0449c-4.084-4.292-4.2266-8.6328-4.2266-9.416c0-1.0303-2.3457-28.8652,73.248-28.8652s89.5947,23.4648,89.5947,32.4551
		c0,1.7832-8.9258,33.5322-92.3623,35.2305c-63.5908,0-91.6084-13.1748-103.9561-25.1631
		c-5.8506,0.5234-33.7188,3.749-44.0537,5.0771C176.7188,202.9424,217.4355,222.0869,301.9746,220.6016z"/>
	<path fill="#00FFFF" d="M302.2422,233.2441c151.4121-2.6475,171.5723-48.041,172.2998-64.0938
		c1.125-24.8174-50.6709-62.6836-175.3721-62.1045c-124.4424,0.5781-151.2734,41.5186-151.2734,50.7939
		c-0.3799,2.8916-0.1865,15.9297,11.3125,26.4629l43.8428-5.2852c-9.0977-6.2471-9.5225-18.1309-9.5225-18.8809
		c0-3.0898-0.3076-37.5977,111.7539-37.5977S437.0664,156,437.0664,168.9063c0,5.3535-4.8223,49.4063-135.0918,51.6953
		c-84.3311,1.4814-125.0547-17.5654-142.6367-36.1611c-8.9629,1.1016-28.9717,3.0674-37.9609,4.251
		C145.6611,210.9834,199.7822,235.0352,302.2422,233.2441z"/>
	<g>
		<path fill="#2E3192" d="M143.9966,181.8555c-0.2866,0-0.5708-0.1221-0.7686-0.3594c-3.7344-4.4814-5.4927-10.8135-5.2266-18.8213
			c0.0186-0.5527,0.4971-0.998,1.0327-0.9658c0.5518,0.0176,0.9844,0.4805,0.9663,1.0322
			c-0.2495,7.5029,1.3535,13.3818,4.7637,17.4736c0.3535,0.4248,0.2964,1.0557-0.1279,1.4092
			C144.4492,181.7793,144.2222,181.8555,143.9966,181.8555z"/>
		<polygon fill="#2E3192" points="134,163 144,163 138.7021,154.6865 		"/>
	</g>
	<g>
		<path fill="#2E3192" d="M190.5107,176.8828c-0.1636,0-0.3291-0.04-0.4824-0.125c-3.4419-1.9004-7.3506-5.333-7.0269-15.083
			c0.0186-0.5518,0.4844-0.999,1.0327-0.9658c0.5518,0.0176,0.9844,0.4805,0.9663,1.0322
			c-0.2861,8.6143,2.8696,11.54,5.9946,13.2666c0.4834,0.2666,0.6592,0.875,0.3921,1.3584
			C191.2046,176.6963,190.8633,176.8828,190.5107,176.8828z"/>
		<polygon fill="#2E3192" points="179,162 189,162 183.7021,153.6865 		"/>
	</g>
	<g>
		<path fill="#2E3192" d="M233.5127,173.4326c-0.0781,0-0.1577-0.0088-0.2368-0.0283l-0.1328-0.0322
			c-3.3281-0.8066-7.4702-1.8105-7.1416-11.6973c0.0186-0.5518,0.4937-0.999,1.0327-0.9658
			c0.5518,0.0176,0.9844,0.4805,0.9663,1.0322c-0.2744,8.2598,2.4541,8.9219,5.6138,9.6875l0.1333,0.0322
			c0.5371,0.1299,0.8662,0.6709,0.7358,1.208C234.3726,173.126,233.9634,173.4326,233.5127,173.4326z"/>
		<polygon fill="#2E3192" points="222,162 232,162 226.7021,153.6865 		"/>
	</g>
	<g>
		<path fill="#2E3192" d="M105.002,185.667c-0.0742,0-0.1499-0.0078-0.2256-0.0254c-0.1348-0.0313-13.4604-3.3418-12.7749-23.9668
			c0.0186-0.5518,0.4839-0.999,1.0327-0.9658c0.5518,0.0176,0.9844,0.4805,0.9663,1.0322
			c-0.6313,18.998,11.1064,21.9238,11.2251,21.9512c0.5381,0.124,0.874,0.6611,0.75,1.1992
			C105.8687,185.3545,105.457,185.667,105.002,185.667z"/>
		<polygon fill="#2E3192" points="88,162 98,162 92.7021,153.6865 		"/>
	</g>
	<polygon fill="#2E3192" points="108.9297,184.7715 110.3154,194.6758 117.8135,188.2773 	"/>
	<polygon fill="#2E3192" points="148.8584,180.959 150.4531,190.832 157.8135,184.2773 	"/>
	<polygon fill="#2E3192" points="182.8584,176.959 184.4531,186.832 191.8135,180.2773 	"/>
	<polygon fill="#2E3192" points="224.8584,171.959 226.4531,181.832 233.8135,175.2773 	"/>
	<path fill="#75C6F0" d="M306.0352,250.1953c-71.8975,0-130.1328-7.7188-173.0879-22.9414
		c-42.9644-15.2266-68.5049-37.1934-75.9131-65.291c-0.1411-0.5342,0.1777-1.0811,0.7119-1.2217
		c0.5381-0.1406,1.0811,0.1787,1.2217,0.7119c7.2295,27.4189,32.3442,48.9238,74.6475,63.915
		c42.7402,15.1475,100.7505,22.8271,172.4199,22.8271c53.9707,0,103.8057-7.9717,140.3223-22.4453
		c37.1729-14.7344,57.6445-35.2432,57.6445-57.75c0-18.1885-19.5244-36.3667-53.5664-49.8003
		C423.6826,107.6421,375.7295,95,299.2109,95c-0.0361,0-0.0728,0-0.1089,0c-73.8716,0-119.7998,12.5005-145.3247,22.9551
		c-29.9302,12.2593-47.7988,28.3374-47.7988,42.9746c0,7.0605,5.25,16.4453,14.0435,25.0859
		c9.3853,9.2227,27.4492,22.3105,60.2114,32.2617c33.248,10.0986,74.2954,14.8037,121.9912,13.9639
		c160.4619-2.8057,170.8633-53.0859,171.3184-63.1367c0.2842-6.2646-2.9678-13.1187-9.4043-19.8218
		c-9.418-9.8096-49.1523-41.7627-164.9639-41.2373c-65.9624,0.3066-102.6704,12.1465-121.8496,22.0249
		c-23.2061,11.9526-28.4287,24.3638-28.4287,27.7695c0,0.0435-0.0029,0.0869-0.0083,0.1299
		c-0.9536,7.2637,2.812,16.4541,10.0723,24.585c12.9893,14.5459,48.8403,38.7109,142.9966,37.0469
		c54.4922-0.957,93.4697-9.208,115.8496-24.5234c17.3799-11.8936,18.2598-23.8877,18.2598-26.1719
		c0-7.1758-6.1299-18.0737-23.335-27.1387c-22.9561-12.0957-59.1064-18.2285-107.4482-18.2285
		c-46.5742,0-79.293,5.8574-97.2476,17.4092c-12.1929,7.8447-13.5073,16.0146-13.5063,19.1631
		c0,4.4521,3.1621,43.2773,112.6895,43.2773c84.0723-1.7109,91.3418-33.9229,91.3623-34.2471
		c0-4.877-4.1836-12.3643-15.9248-18.7021c-15.6563-8.4512-40.1055-12.7363-72.6699-12.7363
		c-42.3525,0-59.7861,8.8008-66.9531,16.1836c-4.9399,5.0889-5.3501,9.7793-5.2974,11.5605c0,0.0098,0.0024,0.1113,0.0024,0.1211
		c0,0.7637,0.1904,4.7744,3.9512,8.7266c0.3804,0.4004,0.3647,1.0332-0.0352,1.4141c-0.4004,0.3799-1.0317,0.3652-1.4141-0.0352
		c-4.1772-4.3906-4.502-8.8447-4.502-10.1055c-0.062-2.0967,0.3882-7.4385,5.8599-13.0747
		c7.436-7.6597,25.3369-16.7905,68.3882-16.7905c32.8994,0,57.6689,4.3657,73.6201,12.9761
		c12.5156,6.7559,16.9746,15.0083,16.9746,20.479c0,1.6543-2.7295,10.1416-15.3408,18.4814
		c-16.7324,11.0645-42.9756,17.0361-78.001,17.749c-111.4917,0-114.71-40.6201-114.71-45.252
		c-0.001-3.5015,1.4028-12.4922,14.4243-20.8701c18.2822-11.7632,51.3652-17.7275,98.3296-17.7275
		c48.6699,0,85.1348,6.2104,108.3809,18.459c17.9922,9.48,24.4023,21.1484,24.4023,28.9082
		c0,5.1484-3.8184,50.3711-136.0742,52.6953c-94.9512,1.6523-131.3057-22.9141-144.5234-37.7148
		c-7.6221-8.5361-11.5708-18.293-10.5718-26.1143c0.1191-10.249,27.3701-51.1465,152.2686-51.7266
		c43.0083-0.1895,80.1948,4.0996,110.4702,12.7773c31.9639,9.1616,48.0664,20.8677,55.9463,29.0747
		c6.8242,7.1079,10.2686,14.4722,9.959,21.2974c-0.4697,10.3652-11.0313,62.2119-173.2813,65.0488
		c-47.9121,0.8301-89.1602-3.8887-122.6074-14.0479c-33.1509-10.0693-51.4873-23.3633-61.0322-32.7432
		c-9.3047-9.1436-14.6416-18.8037-14.6416-26.502c0-15.478,18.333-32.2695,49.041-44.8467C178.709,105.5825,224.9131,93,299.1021,93
		c0.041,0,0.0684,0,0.1089,0c76.833,0,125.0439,12.7183,151.959,23.3389c34.8467,13.7515,54.832,32.5869,54.832,51.6396
		c0,23.3828-20.9199,44.5625-58.9072,59.6201C410.3486,242.1631,360.2529,250.1953,306.0352,250.1953z"/>
	<path fill="#2E3192" d="M255,282c-0.1523,0-0.3071-0.0352-0.4526-0.1084c-0.4922-0.251-0.688-0.8525-0.4375-1.3447l58.333-114.667
		c0.0796-0.1572,0.1992-0.29,0.3467-0.3857l111.3335-72.249c0.4629-0.3003,1.082-0.1689,1.3828,0.2944s0.1689,1.0825-0.2949,1.3833
		l-111.1074,72.1025l-58.2114,114.4277C255.7158,281.8008,255.3647,282,255,282z"/>
	<path fill="#2E3192" d="M16.666,201.667c-0.501,0-0.9336-0.375-0.9922-0.8848c-0.0635-0.5488,0.3296-1.0449,0.8784-1.1084
		l294.4805-34.0811l-90.0386-81.853c-0.4087-0.3711-0.4385-1.0039-0.0669-1.4126c0.3716-0.4072,1.0034-0.439,1.4126-0.0669
		l91.667,83.3325c0.29,0.2637,0.3994,0.6729,0.2793,1.0469c-0.1201,0.373-0.4478,0.6416-0.8374,0.6865l-296.667,34.334
		C16.7432,201.665,16.7041,201.667,16.666,201.667z"/>
	<path fill="#2E3192" d="M487.667,231.333c-0.1143,0-0.2305-0.0195-0.3447-0.0615l-174.333-64
		c-0.5186-0.1904-0.7842-0.7646-0.5942-1.2832c0.1909-0.5186,0.7661-0.7852,1.2837-0.5938l174.333,64
		c0.5186,0.1904,0.7842,0.7646,0.5938,1.2832C488.457,231.082,488.0742,231.333,487.667,231.333z"/>
</g>
<g>
	<g>
		<rect x="251" fill="#75C6F0" width="135" height="74"/>
		<g>
			<path fill="#FFFFFF" d="M281.5063,14.5391V6.665h2.5513c0.9668,0,1.5972,0.0391,1.8906,0.1182
				c0.4512,0.1182,0.8291,0.375,1.1333,0.7705s0.4565,0.9072,0.4565,1.5342c0,0.4824-0.0879,0.8896-0.2632,1.2188
				s-0.3984,0.5879-0.6685,0.7764c-0.2705,0.1875-0.5454,0.3125-0.8247,0.373c-0.3794,0.0752-0.9292,0.1123-1.6489,0.1123h-1.0366
				v2.9707H281.5063z M283.0962,7.9971v2.2344h0.8701c0.6265,0,1.0454-0.041,1.2568-0.124c0.2114-0.082,0.377-0.2109,0.4966-0.3867
				c0.1201-0.1748,0.1802-0.3789,0.1802-0.6113c0-0.2871-0.084-0.5234-0.2524-0.709c-0.1685-0.1865-0.3813-0.3027-0.6392-0.3496
				c-0.1899-0.0361-0.5713-0.0537-1.144-0.0537H283.0962z"/>
			<path fill="#FFFFFF" d="M288.8862,14.5391V6.7295h1.5898v6.4834h3.9531v1.3262H288.8862z"/>
			<path fill="#FFFFFF" d="M302.6631,14.5391h-1.7295l-0.6875-1.7891h-3.1475l-0.6499,1.7891h-1.6865l3.0669-7.874h1.6812
				L302.6631,14.5391z M299.7358,11.4238l-1.085-2.9219l-1.0635,2.9219H299.7358z"/>
			<path fill="#FFFFFF" d="M303.5225,14.5391V6.665h1.5469l3.2227,5.2588V6.665h1.4771v7.874h-1.5952l-3.1743-5.1348v5.1348
				H303.5225z"/>
			<path fill="#FFFFFF" d="M311.4502,14.5391V6.665h5.8384v1.332H313.04v1.7451h3.9531v1.3271H313.04v2.1436h4.3989v1.3262H311.4502
				z"/>
			<path fill="#FFFFFF" d="M325.8877,14.5391h-1.7295l-0.6875-1.7891h-3.1475l-0.6499,1.7891h-1.6865l3.0669-7.874h1.6812
				L325.8877,14.5391z M322.9604,11.4238l-1.085-2.9219l-1.0635,2.9219H322.9604z"/>
			<path fill="#FFFFFF" d="M331.7695,11.6445l1.541,0.4883c-0.2363,0.8594-0.6289,1.498-1.1787,1.915s-1.2471,0.626-2.0928,0.626
				c-1.0449,0-1.9043-0.3574-2.5781-1.0723c-0.6729-0.7139-1.0098-1.6904-1.0098-2.9297c0-1.3105,0.3389-2.3281,1.0156-3.0537
				c0.6768-0.7246,1.5664-1.0869,2.6699-1.0869c0.9629,0,1.7451,0.2842,2.3467,0.8535c0.3584,0.3369,0.626,0.8203,0.8057,1.4502
				l-1.5742,0.376c-0.0928-0.4082-0.2871-0.7305-0.582-0.9668c-0.2959-0.2363-0.6543-0.3545-1.0771-0.3545
				c-0.583,0-1.0576,0.21-1.4209,0.6279c-0.3633,0.4199-0.5449,1.0977-0.5449,2.0361c0,0.9951,0.1797,1.7041,0.5371,2.127
				s0.8242,0.6338,1.3965,0.6338c0.4219,0,0.7861-0.1348,1.0898-0.4023C331.418,12.6426,331.6367,12.2207,331.7695,11.6445z"/>
			<path fill="#FFFFFF" d="M334.627,14.5391V6.665h1.5898v7.874H334.627z"/>
			<path fill="#FFFFFF" d="M337.4082,10.6504c0-0.8018,0.1211-1.4756,0.3604-2.0195c0.1787-0.4014,0.4229-0.7607,0.7334-1.0801
				c0.3096-0.3184,0.6484-0.5547,1.0176-0.709c0.4902-0.207,1.0566-0.3105,1.6973-0.3105c1.1602,0,2.0879,0.3594,2.7852,1.0791
				c0.6963,0.7197,1.0449,1.7207,1.0449,3.0029c0,1.2705-0.3457,2.2656-1.0371,2.9834s-1.6152,1.0771-2.7715,1.0771
				c-1.1709,0-2.1016-0.3574-2.793-1.0723C337.7539,12.8877,337.4082,11.9033,337.4082,10.6504z M339.0469,10.5967
				c0,0.8916,0.2061,1.5674,0.6172,2.0273c0.4121,0.46,0.9355,0.6904,1.5684,0.6904c0.6348,0,1.1543-0.2285,1.5605-0.6846
				c0.4063-0.457,0.6094-1.1416,0.6094-2.0547c0-0.9023-0.1973-1.5752-0.5928-2.0195s-0.9209-0.666-1.5771-0.666
				c-0.6543,0-1.1836,0.2246-1.584,0.6738S339.0469,9.6904,339.0469,10.5967z M340.25,6.2139l0.7412-1.6064h1.6924l-1.4775,1.6064
				H340.25z"/>
			<path fill="#FFFFFF" d="M346.3027,14.5391V6.665h1.5469l3.2227,5.2588V6.665h1.4775v7.874h-1.5947l-3.1748-5.1348v5.1348
				H346.3027z"/>
		</g>
	</g>
	<rect x="255" y="21" fill="#8CCEEA" width="125" height="46"/>
	<g>
		<path fill="#FFFFFF" d="M288.1436,32.7959v-8.5898h6.2109v1.0137h-5.0742v2.6309h4.752v1.0078h-4.752v2.9238h5.2734v1.0137
			H288.1436z"/>
		<path fill="#FFFFFF" d="M295.5674,30.9385l1.043-0.1641c0.0586,0.418,0.2217,0.7383,0.4893,0.9609s0.6416,0.334,1.1221,0.334
			c0.4844,0,0.8438-0.0986,1.0781-0.2959s0.3516-0.4287,0.3516-0.6943c0-0.2383-0.1035-0.4258-0.3105-0.5625
			c-0.1445-0.0938-0.5039-0.2129-1.0781-0.3574c-0.7734-0.1953-1.3096-0.3643-1.6084-0.5068s-0.5254-0.3398-0.6797-0.5918
			s-0.2314-0.5303-0.2314-0.835c0-0.2773,0.0635-0.5342,0.1904-0.7705s0.2998-0.4326,0.5186-0.5889
			c0.1641-0.1211,0.3877-0.2236,0.6709-0.3076s0.5869-0.126,0.9111-0.126c0.4883,0,0.917,0.0703,1.2861,0.2109
			s0.6416,0.3311,0.8174,0.5713s0.2969,0.5615,0.3633,0.9639l-1.0313,0.1406c-0.0469-0.3203-0.1826-0.5703-0.4072-0.75
			s-0.542-0.2695-0.9521-0.2695c-0.4844,0-0.8301,0.0801-1.0371,0.2402s-0.3105,0.3477-0.3105,0.5625
			c0,0.1367,0.043,0.2598,0.1289,0.3691c0.0859,0.1133,0.2207,0.207,0.4043,0.2813c0.1055,0.0391,0.416,0.1289,0.9316,0.2695
			c0.7461,0.1992,1.2666,0.3623,1.5615,0.4893s0.5264,0.3115,0.6943,0.5537s0.252,0.543,0.252,0.9023
			c0,0.3516-0.1025,0.6826-0.3076,0.9932s-0.501,0.5508-0.8877,0.7207s-0.8242,0.2549-1.3125,0.2549
			c-0.8086,0-1.4248-0.168-1.8486-0.5039S295.6846,31.5986,295.5674,30.9385z"/>
		<path fill="#FFFFFF" d="M304.292,31.8525l0.1523,0.9316c-0.2969,0.0625-0.5625,0.0938-0.7969,0.0938
			c-0.3828,0-0.6797-0.0605-0.8906-0.1816s-0.3594-0.2803-0.4453-0.4775s-0.1289-0.6123-0.1289-1.2451v-3.5801h-0.7734v-0.8203
			h0.7734v-1.541l1.0488-0.6328v2.1738h1.0605v0.8203h-1.0605v3.6387c0,0.3008,0.0186,0.4941,0.0557,0.5801
			s0.0977,0.1543,0.1816,0.2051s0.2041,0.0762,0.3604,0.0762C303.9463,31.8936,304.1006,31.8799,304.292,31.8525z"/>
		<path fill="#FFFFFF" d="M305.3291,25.4189v-1.2129h1.0547v1.2129H305.3291z M305.3291,32.7959v-6.2227h1.0547v6.2227H305.3291z"/>
		<path fill="#FFFFFF" d="M307.9893,32.7959v-6.2227h0.9434v0.873c0.1953-0.3047,0.4551-0.5498,0.7793-0.7354
			s0.6934-0.2783,1.1074-0.2783c0.4609,0,0.8389,0.0957,1.1338,0.2871s0.5029,0.459,0.624,0.8027
			c0.4922-0.7266,1.1328-1.0898,1.9219-1.0898c0.6172,0,1.0918,0.1709,1.4238,0.5127s0.498,0.8682,0.498,1.5791v4.2715h-1.0488
			V28.876c0-0.4219-0.0342-0.7256-0.1025-0.9111s-0.1924-0.335-0.3721-0.4482s-0.3906-0.1699-0.6328-0.1699
			c-0.4375,0-0.8008,0.1455-1.0898,0.4365s-0.4336,0.7568-0.4336,1.3975v3.6152h-1.0547v-4.043
			c0-0.4688-0.0859-0.8203-0.2578-1.0547s-0.4531-0.3516-0.8438-0.3516c-0.2969,0-0.5713,0.0781-0.8232,0.2344
			s-0.4346,0.3848-0.5479,0.6855s-0.1699,0.7344-0.1699,1.3008v3.2285H307.9893z"/>
		<path fill="#FFFFFF" d="M322.0459,32.0283c-0.3906,0.332-0.7666,0.5664-1.1279,0.7031s-0.749,0.2051-1.1631,0.2051
			c-0.6836,0-1.209-0.167-1.5762-0.501s-0.5508-0.7607-0.5508-1.2803c0-0.3047,0.0693-0.583,0.208-0.835
			s0.3203-0.4541,0.5449-0.6064s0.4775-0.2676,0.7588-0.3457c0.207-0.0547,0.5195-0.1074,0.9375-0.1582
			c0.8516-0.1016,1.4785-0.2227,1.8809-0.3633c0.0039-0.1445,0.0059-0.2363,0.0059-0.2754c0-0.4297-0.0996-0.7324-0.2988-0.9082
			c-0.2695-0.2383-0.6699-0.3574-1.2012-0.3574c-0.4961,0-0.8623,0.0869-1.0986,0.2607s-0.4111,0.4814-0.5244,0.9229l-1.0313-0.1406
			c0.0938-0.4414,0.248-0.7979,0.4629-1.0693s0.5254-0.4805,0.9316-0.627s0.877-0.2197,1.4121-0.2197
			c0.5313,0,0.9629,0.0625,1.2949,0.1875s0.5762,0.2822,0.7324,0.4717s0.2656,0.4287,0.3281,0.7178
			c0.0352,0.1797,0.0527,0.5039,0.0527,0.9727v1.4063c0,0.9805,0.0225,1.6006,0.0674,1.8604s0.1338,0.5088,0.2666,0.7471h-1.1016
			C322.1475,32.5771,322.0771,32.3213,322.0459,32.0283z M321.958,29.6729c-0.3828,0.1563-0.957,0.2891-1.7227,0.3984
			c-0.4336,0.0625-0.7402,0.1328-0.9199,0.2109s-0.3184,0.1924-0.416,0.3428s-0.1465,0.3174-0.1465,0.501
			c0,0.2813,0.1064,0.5156,0.3193,0.7031s0.5244,0.2813,0.9346,0.2813c0.4063,0,0.7676-0.0889,1.084-0.2666
			s0.5488-0.4209,0.6973-0.7295c0.1133-0.2383,0.1699-0.5898,0.1699-1.0547V29.6729z"/>
		<path fill="#FFFFFF" d="M328.7197,30.5166l1.0371,0.1348c-0.1133,0.7148-0.4033,1.2744-0.8701,1.6787s-1.04,0.6064-1.7197,0.6064
			c-0.8516,0-1.5361-0.2783-2.0537-0.835s-0.7764-1.3545-0.7764-2.3936c0-0.6719,0.1113-1.2598,0.334-1.7637
			s0.5615-0.8818,1.0166-1.1338s0.9502-0.3779,1.4854-0.3779c0.6758,0,1.2285,0.1709,1.6582,0.5127s0.7051,0.8271,0.8262,1.4561
			l-1.0254,0.1582c-0.0977-0.418-0.2705-0.7324-0.5186-0.9434s-0.5479-0.3164-0.8994-0.3164c-0.5313,0-0.9629,0.1904-1.2949,0.5713
			s-0.498,0.9834-0.498,1.8076c0,0.8359,0.1602,1.4434,0.4805,1.8223s0.7383,0.5684,1.2539,0.5684
			c0.4141,0,0.7598-0.127,1.0371-0.3809S328.6455,31.0439,328.7197,30.5166z"/>
		<path fill="#FFFFFF" d="M330.665,25.4189v-1.2129h1.0547v1.2129H330.665z M330.665,32.7959v-6.2227h1.0547v6.2227H330.665z"/>
		<path fill="#FFFFFF" d="M332.9326,29.6846c0-1.1523,0.3203-2.0059,0.9609-2.5605c0.5352-0.4609,1.1875-0.6914,1.957-0.6914
			c0.8555,0,1.5547,0.2803,2.0977,0.8408s0.8145,1.335,0.8145,2.3232c0,0.8008-0.1201,1.4307-0.3604,1.8896
			s-0.5898,0.8154-1.0488,1.0693s-0.96,0.3809-1.5029,0.3809c-0.8711,0-1.5752-0.2793-2.1123-0.8379
			S332.9326,30.7354,332.9326,29.6846z M334.0166,29.6846c0,0.7969,0.1738,1.3936,0.5215,1.79s0.7852,0.5947,1.3125,0.5947
			c0.5234,0,0.959-0.1992,1.3066-0.5977s0.5215-1.0059,0.5215-1.8223c0-0.7695-0.1748-1.3525-0.5244-1.749
			s-0.7842-0.5947-1.3037-0.5947c-0.5273,0-0.9648,0.1973-1.3125,0.5918S334.0166,28.8877,334.0166,29.6846z M335.2646,25.7998
			l0.7793-1.6406h1.3828l-1.2891,1.6406H335.2646z"/>
		<path fill="#FFFFFF" d="M339.999,32.7959v-6.2227h0.9492v0.8848c0.457-0.6836,1.1172-1.0254,1.9805-1.0254
			c0.375,0,0.7197,0.0674,1.0342,0.2021s0.5498,0.3115,0.7061,0.5303s0.2656,0.4785,0.3281,0.7793
			c0.0391,0.1953,0.0586,0.5371,0.0586,1.0254v3.8262h-1.0547v-3.7852c0-0.4297-0.041-0.751-0.123-0.9639
			s-0.2275-0.3828-0.4365-0.5098s-0.4541-0.1904-0.7354-0.1904c-0.4492,0-0.8369,0.1426-1.1631,0.4277s-0.4893,0.8262-0.4893,1.623
			v3.3984H339.999z"/>
		<path fill="#FFFFFF" d="M294.3135,46.7959v-8.5898h1.1367v8.5898H294.3135z"/>
		<path fill="#FFFFFF" d="M299.6221,45.8525l0.1523,0.9316c-0.2969,0.0625-0.5625,0.0938-0.7969,0.0938
			c-0.3828,0-0.6797-0.0605-0.8906-0.1816s-0.3594-0.2803-0.4453-0.4775s-0.1289-0.6123-0.1289-1.2451v-3.5801h-0.7734v-0.8203
			h0.7734v-1.541l1.0488-0.6328v2.1738h1.0605v0.8203h-1.0605v3.6387c0,0.3008,0.0186,0.4941,0.0557,0.5801
			s0.0977,0.1543,0.1816,0.2051s0.2041,0.0762,0.3604,0.0762C299.2764,45.8936,299.4307,45.8799,299.6221,45.8525z"/>
		<path fill="#FFFFFF" d="M300.6592,39.4189v-1.2129h1.0547v1.2129H300.6592z M300.6592,46.7959v-6.2227h1.0547v6.2227H300.6592z"/>
		<path fill="#FFFFFF" d="M303.3193,46.7959v-6.2227h0.9492v0.8848c0.457-0.6836,1.1172-1.0254,1.9805-1.0254
			c0.375,0,0.7197,0.0674,1.0342,0.2021s0.5498,0.3115,0.7061,0.5303s0.2656,0.4785,0.3281,0.7793
			c0.0391,0.1953,0.0586,0.5371,0.0586,1.0254v3.8262h-1.0547v-3.7852c0-0.4297-0.041-0.751-0.123-0.9639
			s-0.2275-0.3828-0.4365-0.5098s-0.4541-0.1904-0.7354-0.1904c-0.4492,0-0.8369,0.1426-1.1631,0.4277s-0.4893,0.8262-0.4893,1.623
			v3.3984H303.3193z"/>
		<path fill="#FFFFFF" d="M314.2529,44.792l1.0898,0.1348c-0.1719,0.6367-0.4902,1.1309-0.9551,1.4824s-1.0586,0.5273-1.7813,0.5273
			c-0.9102,0-1.6318-0.2803-2.165-0.8408s-0.7998-1.3467-0.7998-2.3584c0-1.0469,0.2695-1.8594,0.8086-2.4375
			s1.2383-0.8672,2.0977-0.8672c0.832,0,1.5117,0.2832,2.0391,0.8496s0.791,1.3633,0.791,2.3906
			c0,0.0625-0.002,0.1563-0.0059,0.2813h-4.6406c0.0391,0.6836,0.2324,1.207,0.5801,1.5703s0.7813,0.5449,1.3008,0.5449
			c0.3867,0,0.7168-0.1016,0.9902-0.3047S314.0928,45.2373,314.2529,44.792z M310.79,43.0869h3.4746
			c-0.0469-0.5234-0.1797-0.916-0.3984-1.1777c-0.3359-0.4063-0.7715-0.6094-1.3066-0.6094c-0.4844,0-0.8916,0.1621-1.2217,0.4863
			S310.8252,42.5439,310.79,43.0869z"/>
		<path fill="#FFFFFF" d="M316.6553,46.7959v-6.2227h0.9492v0.9434c0.2422-0.4414,0.4658-0.7324,0.6709-0.873
			s0.4307-0.2109,0.6768-0.2109c0.3555,0,0.7168,0.1133,1.084,0.3398l-0.3633,0.9785c-0.2578-0.1523-0.5156-0.2285-0.7734-0.2285
			c-0.2305,0-0.4375,0.0693-0.6211,0.208s-0.3145,0.3311-0.3926,0.5771c-0.1172,0.375-0.1758,0.7852-0.1758,1.2305v3.2578H316.6553z
			"/>
		<path fill="#FFFFFF" d="M324.7236,46.0283c-0.3906,0.332-0.7666,0.5664-1.1279,0.7031s-0.749,0.2051-1.1631,0.2051
			c-0.6836,0-1.209-0.167-1.5762-0.501s-0.5508-0.7607-0.5508-1.2803c0-0.3047,0.0693-0.583,0.208-0.835
			s0.3203-0.4541,0.5449-0.6064s0.4775-0.2676,0.7588-0.3457c0.207-0.0547,0.5195-0.1074,0.9375-0.1582
			c0.8516-0.1016,1.4785-0.2227,1.8809-0.3633c0.0039-0.1445,0.0059-0.2363,0.0059-0.2754c0-0.4297-0.0996-0.7324-0.2988-0.9082
			c-0.2695-0.2383-0.6699-0.3574-1.2012-0.3574c-0.4961,0-0.8623,0.0869-1.0986,0.2607s-0.4111,0.4814-0.5244,0.9229l-1.0313-0.1406
			c0.0938-0.4414,0.248-0.7979,0.4629-1.0693s0.5254-0.4805,0.9316-0.627s0.877-0.2197,1.4121-0.2197
			c0.5313,0,0.9629,0.0625,1.2949,0.1875s0.5762,0.2822,0.7324,0.4717s0.2656,0.4287,0.3281,0.7178
			c0.0352,0.1797,0.0527,0.5039,0.0527,0.9727v1.4063c0,0.9805,0.0225,1.6006,0.0674,1.8604s0.1338,0.5088,0.2666,0.7471h-1.1016
			C324.8252,46.5771,324.7549,46.3213,324.7236,46.0283z M324.6357,43.6729c-0.3828,0.1563-0.957,0.2891-1.7227,0.3984
			c-0.4336,0.0625-0.7402,0.1328-0.9199,0.2109s-0.3184,0.1924-0.416,0.3428s-0.1465,0.3174-0.1465,0.501
			c0,0.2813,0.1064,0.5156,0.3193,0.7031s0.5244,0.2813,0.9346,0.2813c0.4063,0,0.7676-0.0889,1.084-0.2666
			s0.5488-0.4209,0.6973-0.7295c0.1133-0.2383,0.1699-0.5898,0.1699-1.0547V43.6729z"/>
		<path fill="#FFFFFF" d="M327.3252,46.7959v-6.2227h0.9492v0.9434c0.2422-0.4414,0.4658-0.7324,0.6709-0.873
			s0.4307-0.2109,0.6768-0.2109c0.3555,0,0.7168,0.1133,1.084,0.3398l-0.3633,0.9785c-0.2578-0.1523-0.5156-0.2285-0.7734-0.2285
			c-0.2305,0-0.4375,0.0693-0.6211,0.208s-0.3145,0.3311-0.3926,0.5771c-0.1172,0.375-0.1758,0.7852-0.1758,1.2305v3.2578H327.3252z
			"/>
		<path fill="#FFFFFF" d="M331.3389,39.4189v-1.2129h1.0547v1.2129H331.3389z M331.3389,46.7959v-6.2227h1.0547v6.2227H331.3389z"/>
		<path fill="#FFFFFF" d="M333.6064,43.6846c0-1.1523,0.3203-2.0059,0.9609-2.5605c0.5352-0.4609,1.1875-0.6914,1.957-0.6914
			c0.8555,0,1.5547,0.2803,2.0977,0.8408s0.8145,1.335,0.8145,2.3232c0,0.8008-0.1201,1.4307-0.3604,1.8896
			s-0.5898,0.8154-1.0488,1.0693s-0.96,0.3809-1.5029,0.3809c-0.8711,0-1.5752-0.2793-2.1123-0.8379
			S333.6064,44.7354,333.6064,43.6846z M334.6904,43.6846c0,0.7969,0.1738,1.3936,0.5215,1.79s0.7852,0.5947,1.3125,0.5947
			c0.5234,0,0.959-0.1992,1.3066-0.5977s0.5215-1.0059,0.5215-1.8223c0-0.7695-0.1748-1.3525-0.5244-1.749
			s-0.7842-0.5947-1.3037-0.5947c-0.5273,0-0.9648,0.1973-1.3125,0.5918S334.6904,42.8877,334.6904,43.6846z"/>
		<path fill="#FFFFFF" d="M266.4961,60.7959l3.2988-8.5898h1.2246l3.5156,8.5898h-1.2949l-1.002-2.6016h-3.5918l-0.9434,2.6016
			H266.4961z M268.9746,57.2686h2.9121l-0.8965-2.3789c-0.2734-0.7227-0.4766-1.3164-0.6094-1.7813
			c-0.1094,0.5508-0.2637,1.0977-0.4629,1.6406L268.9746,57.2686z"/>
		<path fill="#FFFFFF" d="M275.3086,60.7959v-6.2227h0.9492v0.8848c0.457-0.6836,1.1172-1.0254,1.9805-1.0254
			c0.375,0,0.7197,0.0674,1.0342,0.2021s0.5498,0.3115,0.7061,0.5303s0.2656,0.4785,0.3281,0.7793
			c0.0391,0.1953,0.0586,0.5371,0.0586,1.0254v3.8262h-1.0547v-3.7852c0-0.4297-0.041-0.751-0.123-0.9639
			s-0.2275-0.3828-0.4365-0.5098s-0.4541-0.1904-0.7354-0.1904c-0.4492,0-0.8369,0.1426-1.1631,0.4277s-0.4893,0.8262-0.4893,1.623
			v3.3984H275.3086z"/>
		<path fill="#FFFFFF" d="M286.043,60.0283c-0.3906,0.332-0.7666,0.5664-1.1279,0.7031s-0.749,0.2051-1.1631,0.2051
			c-0.6836,0-1.209-0.167-1.5762-0.501s-0.5508-0.7607-0.5508-1.2803c0-0.3047,0.0693-0.583,0.208-0.835
			s0.3203-0.4541,0.5449-0.6064s0.4775-0.2676,0.7588-0.3457c0.207-0.0547,0.5195-0.1074,0.9375-0.1582
			c0.8516-0.1016,1.4785-0.2227,1.8809-0.3633c0.0039-0.1445,0.0059-0.2363,0.0059-0.2754c0-0.4297-0.0996-0.7324-0.2988-0.9082
			c-0.2695-0.2383-0.6699-0.3574-1.2012-0.3574c-0.4961,0-0.8623,0.0869-1.0986,0.2607s-0.4111,0.4814-0.5244,0.9229l-1.0313-0.1406
			c0.0938-0.4414,0.248-0.7979,0.4629-1.0693s0.5254-0.4805,0.9316-0.627s0.877-0.2197,1.4121-0.2197
			c0.5313,0,0.9629,0.0625,1.2949,0.1875s0.5762,0.2822,0.7324,0.4717s0.2656,0.4287,0.3281,0.7178
			c0.0352,0.1797,0.0527,0.5039,0.0527,0.9727v1.4063c0,0.9805,0.0225,1.6006,0.0674,1.8604s0.1338,0.5088,0.2666,0.7471h-1.1016
			C286.1445,60.5771,286.0742,60.3213,286.043,60.0283z M285.9551,57.6729c-0.3828,0.1563-0.957,0.2891-1.7227,0.3984
			c-0.4336,0.0625-0.7402,0.1328-0.9199,0.2109s-0.3184,0.1924-0.416,0.3428s-0.1465,0.3174-0.1465,0.501
			c0,0.2813,0.1064,0.5156,0.3193,0.7031s0.5244,0.2813,0.9346,0.2813c0.4063,0,0.7676-0.0889,1.084-0.2666
			s0.5488-0.4209,0.6973-0.7295c0.1133-0.2383,0.1699-0.5898,0.1699-1.0547V57.6729z M283.9043,53.7998l0.7793-1.6406h1.3828
			l-1.2891,1.6406H283.9043z"/>
		<path fill="#FFFFFF" d="M288.6328,60.7959v-8.5898h1.0547v8.5898H288.6328z"/>
		<path fill="#FFFFFF" d="M291.3281,53.4189v-1.2129h1.0547v1.2129H291.3281z M291.3281,60.7959v-6.2227h1.0547v6.2227H291.3281z"/>
		<path fill="#FFFFFF" d="M293.5664,58.9385l1.043-0.1641c0.0586,0.418,0.2217,0.7383,0.4893,0.9609s0.6416,0.334,1.1221,0.334
			c0.4844,0,0.8438-0.0986,1.0781-0.2959s0.3516-0.4287,0.3516-0.6943c0-0.2383-0.1035-0.4258-0.3105-0.5625
			c-0.1445-0.0938-0.5039-0.2129-1.0781-0.3574c-0.7734-0.1953-1.3096-0.3643-1.6084-0.5068s-0.5254-0.3398-0.6797-0.5918
			s-0.2314-0.5303-0.2314-0.835c0-0.2773,0.0635-0.5342,0.1904-0.7705s0.2998-0.4326,0.5186-0.5889
			c0.1641-0.1211,0.3877-0.2236,0.6709-0.3076s0.5869-0.126,0.9111-0.126c0.4883,0,0.917,0.0703,1.2861,0.2109
			s0.6416,0.3311,0.8174,0.5713s0.2969,0.5615,0.3633,0.9639l-1.0313,0.1406c-0.0469-0.3203-0.1826-0.5703-0.4072-0.75
			s-0.542-0.2695-0.9521-0.2695c-0.4844,0-0.8301,0.0801-1.0371,0.2402s-0.3105,0.3477-0.3105,0.5625
			c0,0.1367,0.043,0.2598,0.1289,0.3691c0.0859,0.1133,0.2207,0.207,0.4043,0.2813c0.1055,0.0391,0.416,0.1289,0.9316,0.2695
			c0.7461,0.1992,1.2666,0.3623,1.5615,0.4893s0.5264,0.3115,0.6943,0.5537s0.252,0.543,0.252,0.9023
			c0,0.3516-0.1025,0.6826-0.3076,0.9932s-0.501,0.5508-0.8877,0.7207s-0.8242,0.2549-1.3125,0.2549
			c-0.8086,0-1.4248-0.168-1.8486-0.5039S293.6836,59.5986,293.5664,58.9385z"/>
		<path fill="#FFFFFF" d="M299.9941,53.4189v-1.2129h1.0547v1.2129H299.9941z M299.9941,60.7959v-6.2227h1.0547v6.2227H299.9941z"/>
		<path fill="#FFFFFF" d="M302.2324,58.9385l1.043-0.1641c0.0586,0.418,0.2217,0.7383,0.4893,0.9609s0.6416,0.334,1.1221,0.334
			c0.4844,0,0.8438-0.0986,1.0781-0.2959s0.3516-0.4287,0.3516-0.6943c0-0.2383-0.1035-0.4258-0.3105-0.5625
			c-0.1445-0.0938-0.5039-0.2129-1.0781-0.3574c-0.7734-0.1953-1.3096-0.3643-1.6084-0.5068s-0.5254-0.3398-0.6797-0.5918
			s-0.2314-0.5303-0.2314-0.835c0-0.2773,0.0635-0.5342,0.1904-0.7705s0.2998-0.4326,0.5186-0.5889
			c0.1641-0.1211,0.3877-0.2236,0.6709-0.3076s0.5869-0.126,0.9111-0.126c0.4883,0,0.917,0.0703,1.2861,0.2109
			s0.6416,0.3311,0.8174,0.5713s0.2969,0.5615,0.3633,0.9639l-1.0313,0.1406c-0.0469-0.3203-0.1826-0.5703-0.4072-0.75
			s-0.542-0.2695-0.9521-0.2695c-0.4844,0-0.8301,0.0801-1.0371,0.2402s-0.3105,0.3477-0.3105,0.5625
			c0,0.1367,0.043,0.2598,0.1289,0.3691c0.0859,0.1133,0.2207,0.207,0.4043,0.2813c0.1055,0.0391,0.416,0.1289,0.9316,0.2695
			c0.7461,0.1992,1.2666,0.3623,1.5615,0.4893s0.5264,0.3115,0.6943,0.5537s0.252,0.543,0.252,0.9023
			c0,0.3516-0.1025,0.6826-0.3076,0.9932s-0.501,0.5508-0.8877,0.7207s-0.8242,0.2549-1.3125,0.2549
			c-0.8086,0-1.4248-0.168-1.8486-0.5039S302.3496,59.5986,302.2324,58.9385z"/>
		<path fill="#FFFFFF" d="M316.0254,60.7959v-0.7852c-0.3945,0.6172-0.9746,0.9258-1.7402,0.9258
			c-0.4961,0-0.9521-0.1367-1.3682-0.4102s-0.7383-0.6553-0.9668-1.1455s-0.3428-1.0537-0.3428-1.6904
			c0-0.6211,0.1035-1.1846,0.3105-1.6904s0.5176-0.8936,0.9316-1.1631s0.877-0.4043,1.3887-0.4043
			c0.375,0,0.709,0.0791,1.002,0.2373s0.5313,0.3643,0.7148,0.6182v-3.082h1.0488v8.5898H316.0254z M312.6914,57.6904
			c0,0.7969,0.168,1.3926,0.5039,1.7871s0.7324,0.5918,1.1895,0.5918c0.4609,0,0.8525-0.1885,1.1748-0.5654
			s0.4834-0.9521,0.4834-1.7256c0-0.8516-0.1641-1.4766-0.4922-1.875s-0.7324-0.5977-1.2129-0.5977
			c-0.4688,0-0.8604,0.1914-1.1748,0.5742S312.6914,56.8662,312.6914,57.6904z"/>
		<path fill="#FFFFFF" d="M322.9219,58.792l1.0898,0.1348c-0.1719,0.6367-0.4902,1.1309-0.9551,1.4824s-1.0586,0.5273-1.7813,0.5273
			c-0.9102,0-1.6318-0.2803-2.165-0.8408s-0.7998-1.3467-0.7998-2.3584c0-1.0469,0.2695-1.8594,0.8086-2.4375
			s1.2383-0.8672,2.0977-0.8672c0.832,0,1.5117,0.2832,2.0391,0.8496s0.791,1.3633,0.791,2.3906
			c0,0.0625-0.002,0.1563-0.0059,0.2813h-4.6406c0.0391,0.6836,0.2324,1.207,0.5801,1.5703s0.7813,0.5449,1.3008,0.5449
			c0.3867,0,0.7168-0.1016,0.9902-0.3047S322.7617,59.2373,322.9219,58.792z M319.459,57.0869h3.4746
			c-0.0469-0.5234-0.1797-0.916-0.3984-1.1777c-0.3359-0.4063-0.7715-0.6094-1.3066-0.6094c-0.4844,0-0.8916,0.1621-1.2217,0.4863
			S319.4941,56.5439,319.459,57.0869z"/>
		<path fill="#FFFFFF" d="M328.6582,60.7959v-6.2227h0.9492v0.9434c0.2422-0.4414,0.4658-0.7324,0.6709-0.873
			s0.4307-0.2109,0.6768-0.2109c0.3555,0,0.7168,0.1133,1.084,0.3398l-0.3633,0.9785c-0.2578-0.1523-0.5156-0.2285-0.7734-0.2285
			c-0.2305,0-0.4375,0.0693-0.6211,0.208s-0.3145,0.3311-0.3926,0.5771c-0.1172,0.375-0.1758,0.7852-0.1758,1.2305v3.2578H328.6582z
			"/>
		<path fill="#FFFFFF" d="M332.6719,53.4189v-1.2129h1.0547v1.2129H332.6719z M332.6719,60.7959v-6.2227h1.0547v6.2227H332.6719z"/>
		<path fill="#FFFFFF" d="M339.5918,58.792l1.0898,0.1348c-0.1719,0.6367-0.4902,1.1309-0.9551,1.4824s-1.0586,0.5273-1.7813,0.5273
			c-0.9102,0-1.6318-0.2803-2.165-0.8408s-0.7998-1.3467-0.7998-2.3584c0-1.0469,0.2695-1.8594,0.8086-2.4375
			s1.2383-0.8672,2.0977-0.8672c0.832,0,1.5117,0.2832,2.0391,0.8496s0.791,1.3633,0.791,2.3906
			c0,0.0625-0.002,0.1563-0.0059,0.2813h-4.6406c0.0391,0.6836,0.2324,1.207,0.5801,1.5703s0.7813,0.5449,1.3008,0.5449
			c0.3867,0,0.7168-0.1016,0.9902-0.3047S339.4316,59.2373,339.5918,58.792z M336.1289,57.0869h3.4746
			c-0.0469-0.5234-0.1797-0.916-0.3984-1.1777c-0.3359-0.4063-0.7715-0.6094-1.3066-0.6094c-0.4844,0-0.8916,0.1621-1.2217,0.4863
			S336.1641,56.5439,336.1289,57.0869z"/>
		<path fill="#FFFFFF" d="M341.584,58.9385l1.043-0.1641c0.0586,0.418,0.2217,0.7383,0.4893,0.9609s0.6416,0.334,1.1221,0.334
			c0.4844,0,0.8438-0.0986,1.0781-0.2959s0.3516-0.4287,0.3516-0.6943c0-0.2383-0.1035-0.4258-0.3105-0.5625
			c-0.1445-0.0938-0.5039-0.2129-1.0781-0.3574c-0.7734-0.1953-1.3096-0.3643-1.6084-0.5068s-0.5254-0.3398-0.6797-0.5918
			s-0.2314-0.5303-0.2314-0.835c0-0.2773,0.0635-0.5342,0.1904-0.7705s0.2998-0.4326,0.5186-0.5889
			c0.1641-0.1211,0.3877-0.2236,0.6709-0.3076s0.5869-0.126,0.9111-0.126c0.4883,0,0.917,0.0703,1.2861,0.2109
			s0.6416,0.3311,0.8174,0.5713s0.2969,0.5615,0.3633,0.9639l-1.0313,0.1406c-0.0469-0.3203-0.1826-0.5703-0.4072-0.75
			s-0.542-0.2695-0.9521-0.2695c-0.4844,0-0.8301,0.0801-1.0371,0.2402s-0.3105,0.3477-0.3105,0.5625
			c0,0.1367,0.043,0.2598,0.1289,0.3691c0.0859,0.1133,0.2207,0.207,0.4043,0.2813c0.1055,0.0391,0.416,0.1289,0.9316,0.2695
			c0.7461,0.1992,1.2666,0.3623,1.5615,0.4893s0.5264,0.3115,0.6943,0.5537s0.252,0.543,0.252,0.9023
			c0,0.3516-0.1025,0.6826-0.3076,0.9932s-0.501,0.5508-0.8877,0.7207s-0.8242,0.2549-1.3125,0.2549
			c-0.8086,0-1.4248-0.168-1.8486-0.5039S341.7012,59.5986,341.584,58.9385z"/>
		<path fill="#FFFFFF" d="M347.8125,61.3115l1.0254,0.1523c0.043,0.3164,0.1621,0.5469,0.3574,0.6914
			c0.2617,0.1953,0.6191,0.293,1.0723,0.293c0.4883,0,0.8652-0.0977,1.1309-0.293s0.4453-0.4688,0.5391-0.8203
			c0.0547-0.2148,0.0801-0.666,0.0762-1.3535c-0.4609,0.543-1.0352,0.8145-1.7227,0.8145c-0.8555,0-1.5176-0.3086-1.9863-0.9258
			s-0.7031-1.3574-0.7031-2.2207c0-0.5938,0.1074-1.1416,0.3223-1.6436s0.5264-0.8896,0.9346-1.1631s0.8877-0.4102,1.4385-0.4102
			c0.7344,0,1.3398,0.2969,1.8164,0.8906v-0.75h0.9727v5.3789c0,0.9688-0.0986,1.6553-0.2959,2.0596s-0.5098,0.7236-0.9375,0.958
			s-0.9541,0.3516-1.5791,0.3516c-0.7422,0-1.3418-0.167-1.7988-0.501S347.7969,61.9834,347.8125,61.3115z M348.6855,57.5732
			c0,0.8164,0.1621,1.4121,0.4863,1.7871s0.7305,0.5625,1.2188,0.5625c0.4844,0,0.8906-0.1865,1.2188-0.5596
			s0.4922-0.958,0.4922-1.7549c0-0.7617-0.1689-1.3359-0.5068-1.7227s-0.7451-0.5801-1.2217-0.5801
			c-0.4688,0-0.8672,0.1904-1.1953,0.5713S348.6855,56.8232,348.6855,57.5732z"/>
		<path fill="#FFFFFF" d="M354.2871,57.6846c0-1.1523,0.3203-2.0059,0.9609-2.5605c0.5352-0.4609,1.1875-0.6914,1.957-0.6914
			c0.8555,0,1.5547,0.2803,2.0977,0.8408s0.8145,1.335,0.8145,2.3232c0,0.8008-0.1201,1.4307-0.3604,1.8896
			s-0.5898,0.8154-1.0488,1.0693s-0.96,0.3809-1.5029,0.3809c-0.8711,0-1.5752-0.2793-2.1123-0.8379
			S354.2871,58.7354,354.2871,57.6846z M355.3711,57.6846c0,0.7969,0.1738,1.3936,0.5215,1.79s0.7852,0.5947,1.3125,0.5947
			c0.5234,0,0.959-0.1992,1.3066-0.5977s0.5215-1.0059,0.5215-1.8223c0-0.7695-0.1748-1.3525-0.5244-1.749
			s-0.7842-0.5947-1.3037-0.5947c-0.5273,0-0.9648,0.1973-1.3125,0.5918S355.3711,56.8877,355.3711,57.6846z"/>
		<path fill="#FFFFFF" d="M360.9316,58.9385l1.043-0.1641c0.0586,0.418,0.2217,0.7383,0.4893,0.9609s0.6416,0.334,1.1221,0.334
			c0.4844,0,0.8438-0.0986,1.0781-0.2959s0.3516-0.4287,0.3516-0.6943c0-0.2383-0.1035-0.4258-0.3105-0.5625
			c-0.1445-0.0938-0.5039-0.2129-1.0781-0.3574c-0.7734-0.1953-1.3096-0.3643-1.6084-0.5068s-0.5254-0.3398-0.6797-0.5918
			s-0.2314-0.5303-0.2314-0.835c0-0.2773,0.0635-0.5342,0.1904-0.7705s0.2998-0.4326,0.5186-0.5889
			c0.1641-0.1211,0.3877-0.2236,0.6709-0.3076s0.5869-0.126,0.9111-0.126c0.4883,0,0.917,0.0703,1.2861,0.2109
			s0.6416,0.3311,0.8174,0.5713s0.2969,0.5615,0.3633,0.9639l-1.0313,0.1406c-0.0469-0.3203-0.1826-0.5703-0.4072-0.75
			s-0.542-0.2695-0.9521-0.2695c-0.4844,0-0.8301,0.0801-1.0371,0.2402s-0.3105,0.3477-0.3105,0.5625
			c0,0.1367,0.043,0.2598,0.1289,0.3691c0.0859,0.1133,0.2207,0.207,0.4043,0.2813c0.1055,0.0391,0.416,0.1289,0.9316,0.2695
			c0.7461,0.1992,1.2666,0.3623,1.5615,0.4893s0.5264,0.3115,0.6943,0.5537s0.252,0.543,0.252,0.9023
			c0,0.3516-0.1025,0.6826-0.3076,0.9932s-0.501,0.5508-0.8877,0.7207s-0.8242,0.2549-1.3125,0.2549
			c-0.8086,0-1.4248-0.168-1.8486-0.5039S361.0488,59.5986,360.9316,58.9385z"/>
	</g>
</g>
<g>
	<g>
		<rect x="526" y="125" fill="#75C6F0" width="135" height="61"/>
		<g>
			<path fill="#FFFFFF" d="M560.7656,139.5391v-7.874h2.3789l1.4297,5.3711l1.4121-5.3711h2.3848v7.874h-1.4766v-6.1982
				l-1.5635,6.1982h-1.5303l-1.5586-6.1982v6.1982H560.7656z"/>
			<path fill="#FFFFFF" d="M569.6279,135.6504c0-0.8018,0.1201-1.4756,0.3604-2.0195c0.1787-0.4014,0.4229-0.7607,0.7324-1.0801
				c0.3105-0.3184,0.6494-0.5547,1.0176-0.709c0.4912-0.207,1.0566-0.3105,1.6973-0.3105c1.1602,0,2.0889,0.3594,2.7852,1.0791
				c0.6973,0.7197,1.0449,1.7207,1.0449,3.0029c0,1.2705-0.3457,2.2656-1.0371,2.9834c-0.6904,0.7178-1.6143,1.0771-2.7715,1.0771
				c-1.1699,0-2.1016-0.3574-2.793-1.0723C569.9736,137.8877,569.6279,136.9033,569.6279,135.6504z M571.2656,135.5967
				c0,0.8916,0.207,1.5674,0.6182,2.0273s0.9346,0.6904,1.5684,0.6904s1.1533-0.2285,1.5596-0.6846
				c0.4072-0.457,0.6104-1.1416,0.6104-2.0547c0-0.9023-0.1982-1.5752-0.5928-2.0195c-0.3965-0.4443-0.9219-0.666-1.5771-0.666
				s-1.1836,0.2246-1.585,0.6738C571.4668,134.0127,571.2656,134.6904,571.2656,135.5967z"/>
			<path fill="#FFFFFF" d="M578.501,131.665h2.9053c0.6563,0,1.1553,0.0498,1.499,0.1504c0.4619,0.1357,0.8574,0.3779,1.1865,0.7256
				c0.3301,0.3467,0.5801,0.7725,0.752,1.2754s0.2578,1.123,0.2578,1.8613c0,0.6475-0.0801,1.2061-0.2412,1.6758
				c-0.1963,0.5723-0.4775,1.0361-0.8428,1.3906c-0.2764,0.2686-0.6484,0.4785-1.1172,0.6289
				c-0.3516,0.1104-0.8203,0.166-1.4082,0.166h-2.9912V131.665z M580.0908,132.9971v5.2158h1.1865
				c0.4443,0,0.7656-0.0254,0.9619-0.0762c0.2578-0.0645,0.4717-0.1729,0.6416-0.3271s0.3086-0.4072,0.416-0.7598
				s0.1621-0.834,0.1621-1.4424s-0.0547-1.0762-0.1621-1.4023c-0.1074-0.3252-0.2578-0.5801-0.4512-0.7617
				c-0.1934-0.1836-0.4375-0.3066-0.7354-0.3711c-0.2217-0.0498-0.6572-0.0752-1.3057-0.0752H580.0908z"/>
			<path fill="#FFFFFF" d="M586.4502,139.5391v-7.874h5.8389v1.332h-4.249v1.7451h3.9531v1.3271H588.04v2.1436h4.3994v1.3262
				H586.4502z"/>
			<path fill="#FFFFFF" d="M593.8301,139.5391v-7.8096h1.5898v6.4834h3.9531v1.3262H593.8301z"/>
			<path fill="#FFFFFF" d="M607.6074,139.5391h-1.7305l-0.6875-1.7891h-3.1465l-0.6504,1.7891h-1.6865l3.0674-7.874h1.6807
				L607.6074,139.5391z M604.6797,136.4238l-1.085-2.9219l-1.0635,2.9219H604.6797z"/>
			<path fill="#FFFFFF" d="M608.4453,131.665h2.9053c0.6553,0,1.1553,0.0498,1.499,0.1504
				c0.4609,0.1357,0.8574,0.3779,1.1865,0.7256c0.3291,0.3467,0.5801,0.7725,0.752,1.2754s0.2578,1.123,0.2578,1.8613
				c0,0.6475-0.0811,1.2061-0.2412,1.6758c-0.1973,0.5723-0.4785,1.0361-0.8438,1.3906c-0.2754,0.2686-0.6484,0.4785-1.1172,0.6289
				c-0.3516,0.1104-0.8203,0.166-1.4072,0.166h-2.9912V131.665z M610.0352,132.9971v5.2158h1.1865
				c0.4443,0,0.7646-0.0254,0.9619-0.0762c0.2578-0.0645,0.4707-0.1729,0.6406-0.3271c0.1709-0.1543,0.3096-0.4072,0.417-0.7598
				s0.1611-0.834,0.1611-1.4424s-0.0537-1.0762-0.1611-1.4023c-0.1074-0.3252-0.2578-0.5801-0.4512-0.7617
				c-0.1934-0.1836-0.4385-0.3066-0.7354-0.3711c-0.2227-0.0498-0.6582-0.0752-1.3057-0.0752H610.0352z"/>
			<path fill="#FFFFFF" d="M616.0723,135.6504c0-0.8018,0.1191-1.4756,0.3594-2.0195c0.1797-0.4014,0.4238-0.7607,0.7334-1.0801
				c0.3096-0.3184,0.6494-0.5547,1.0176-0.709c0.4912-0.207,1.0557-0.3105,1.6973-0.3105c1.1602,0,2.0889,0.3594,2.7852,1.0791
				s1.0439,1.7207,1.0439,3.0029c0,1.2705-0.3457,2.2656-1.0361,2.9834s-1.6143,1.0771-2.7715,1.0771
				c-1.1709,0-2.1025-0.3574-2.793-1.0723C616.418,137.8877,616.0723,136.9033,616.0723,135.6504z M617.71,135.5967
				c0,0.8916,0.2061,1.5674,0.6182,2.0273c0.4111,0.46,0.9336,0.6904,1.5684,0.6904c0.6328,0,1.1533-0.2285,1.5596-0.6846
				c0.4072-0.457,0.6104-1.1416,0.6104-2.0547c0-0.9023-0.1982-1.5752-0.5938-2.0195c-0.3965-0.4443-0.9219-0.666-1.5762-0.666
				c-0.6563,0-1.1836,0.2246-1.585,0.6738S617.71,134.6904,617.71,135.5967z"/>
		</g>
	</g>
	<rect x="530" y="146" fill="#8CCEEA" width="125" height="33"/>
	<g>
		<path fill="#FFFFFF" d="M570.8457,157.7959l3.2988-8.5898h1.2246l3.5156,8.5898h-1.2949l-1.002-2.6016h-3.5918l-0.9434,2.6016
			H570.8457z M573.3242,154.2686h2.9121l-0.8965-2.3789c-0.2734-0.7227-0.4766-1.3164-0.6094-1.7813
			c-0.1094,0.5508-0.2637,1.0977-0.4629,1.6406L573.3242,154.2686z"/>
		<path fill="#FFFFFF" d="M579.6582,157.7959v-6.2227h0.9492v0.8848c0.457-0.6836,1.1172-1.0254,1.9805-1.0254
			c0.375,0,0.7197,0.0674,1.0342,0.2021s0.5498,0.3115,0.7061,0.5303s0.2656,0.4785,0.3281,0.7793
			c0.0391,0.1953,0.0586,0.5371,0.0586,1.0254v3.8262h-1.0547v-3.7852c0-0.4297-0.041-0.751-0.123-0.9639
			s-0.2275-0.3828-0.4365-0.5098s-0.4541-0.1904-0.7354-0.1904c-0.4492,0-0.8369,0.1426-1.1631,0.4277s-0.4893,0.8262-0.4893,1.623
			v3.3984H579.6582z"/>
		<path fill="#FFFFFF" d="M590.3926,157.0283c-0.3906,0.332-0.7666,0.5664-1.1279,0.7031s-0.749,0.2051-1.1631,0.2051
			c-0.6836,0-1.209-0.167-1.5762-0.501s-0.5508-0.7607-0.5508-1.2803c0-0.3047,0.0693-0.583,0.208-0.835
			s0.3203-0.4541,0.5449-0.6064s0.4775-0.2676,0.7588-0.3457c0.207-0.0547,0.5195-0.1074,0.9375-0.1582
			c0.8516-0.1016,1.4785-0.2227,1.8809-0.3633c0.0039-0.1445,0.0059-0.2363,0.0059-0.2754c0-0.4297-0.0996-0.7324-0.2988-0.9082
			c-0.2695-0.2383-0.6699-0.3574-1.2012-0.3574c-0.4961,0-0.8623,0.0869-1.0986,0.2607s-0.4111,0.4814-0.5244,0.9229l-1.0313-0.1406
			c0.0938-0.4414,0.248-0.7979,0.4629-1.0693s0.5254-0.4805,0.9316-0.627s0.877-0.2197,1.4121-0.2197
			c0.5313,0,0.9629,0.0625,1.2949,0.1875s0.5762,0.2822,0.7324,0.4717s0.2656,0.4287,0.3281,0.7178
			c0.0352,0.1797,0.0527,0.5039,0.0527,0.9727v1.4063c0,0.9805,0.0225,1.6006,0.0674,1.8604s0.1338,0.5088,0.2666,0.7471h-1.1016
			C590.4941,157.5771,590.4238,157.3213,590.3926,157.0283z M590.3047,154.6729c-0.3828,0.1563-0.957,0.2891-1.7227,0.3984
			c-0.4336,0.0625-0.7402,0.1328-0.9199,0.2109s-0.3184,0.1924-0.416,0.3428s-0.1465,0.3174-0.1465,0.501
			c0,0.2813,0.1064,0.5156,0.3193,0.7031s0.5244,0.2813,0.9346,0.2813c0.4063,0,0.7676-0.0889,1.084-0.2666
			s0.5488-0.4209,0.6973-0.7295c0.1133-0.2383,0.1699-0.5898,0.1699-1.0547V154.6729z M588.2539,150.7998l0.7793-1.6406h1.3828
			l-1.2891,1.6406H588.2539z"/>
		<path fill="#FFFFFF" d="M592.9824,157.7959v-8.5898h1.0547v8.5898H592.9824z"/>
		<path fill="#FFFFFF" d="M595.6777,150.4189v-1.2129h1.0547v1.2129H595.6777z M595.6777,157.7959v-6.2227h1.0547v6.2227H595.6777z"
			/>
		<path fill="#FFFFFF" d="M597.916,155.9385l1.043-0.1641c0.0586,0.418,0.2217,0.7383,0.4893,0.9609s0.6416,0.334,1.1221,0.334
			c0.4844,0,0.8438-0.0986,1.0781-0.2959S602,156.3447,602,156.0791c0-0.2383-0.1035-0.4258-0.3105-0.5625
			c-0.1445-0.0938-0.5039-0.2129-1.0781-0.3574c-0.7734-0.1953-1.3096-0.3643-1.6084-0.5068s-0.5254-0.3398-0.6797-0.5918
			s-0.2314-0.5303-0.2314-0.835c0-0.2773,0.0635-0.5342,0.1904-0.7705s0.2998-0.4326,0.5186-0.5889
			c0.1641-0.1211,0.3877-0.2236,0.6709-0.3076s0.5869-0.126,0.9111-0.126c0.4883,0,0.917,0.0703,1.2861,0.2109
			s0.6416,0.3311,0.8174,0.5713s0.2969,0.5615,0.3633,0.9639l-1.0313,0.1406c-0.0469-0.3203-0.1826-0.5703-0.4072-0.75
			s-0.542-0.2695-0.9521-0.2695c-0.4844,0-0.8301,0.0801-1.0371,0.2402s-0.3105,0.3477-0.3105,0.5625
			c0,0.1367,0.043,0.2598,0.1289,0.3691c0.0859,0.1133,0.2207,0.207,0.4043,0.2813c0.1055,0.0391,0.416,0.1289,0.9316,0.2695
			c0.7461,0.1992,1.2666,0.3623,1.5615,0.4893s0.5264,0.3115,0.6943,0.5537s0.252,0.543,0.252,0.9023
			c0,0.3516-0.1025,0.6826-0.3076,0.9932s-0.501,0.5508-0.8877,0.7207s-0.8242,0.2549-1.3125,0.2549
			c-0.8086,0-1.4248-0.168-1.8486-0.5039S598.0332,156.5986,597.916,155.9385z"/>
		<path fill="#FFFFFF" d="M604.3438,150.4189v-1.2129h1.0547v1.2129H604.3438z M604.3438,157.7959v-6.2227h1.0547v6.2227H604.3438z"
			/>
		<path fill="#FFFFFF" d="M606.582,155.9385l1.043-0.1641c0.0586,0.418,0.2217,0.7383,0.4893,0.9609s0.6416,0.334,1.1221,0.334
			c0.4844,0,0.8438-0.0986,1.0781-0.2959s0.3516-0.4287,0.3516-0.6943c0-0.2383-0.1035-0.4258-0.3105-0.5625
			c-0.1445-0.0938-0.5039-0.2129-1.0781-0.3574c-0.7734-0.1953-1.3096-0.3643-1.6084-0.5068s-0.5254-0.3398-0.6797-0.5918
			s-0.2314-0.5303-0.2314-0.835c0-0.2773,0.0635-0.5342,0.1904-0.7705s0.2998-0.4326,0.5186-0.5889
			c0.1641-0.1211,0.3877-0.2236,0.6709-0.3076s0.5869-0.126,0.9111-0.126c0.4883,0,0.917,0.0703,1.2861,0.2109
			s0.6416,0.3311,0.8174,0.5713s0.2969,0.5615,0.3633,0.9639l-1.0313,0.1406c-0.0469-0.3203-0.1826-0.5703-0.4072-0.75
			s-0.542-0.2695-0.9521-0.2695c-0.4844,0-0.8301,0.0801-1.0371,0.2402s-0.3105,0.3477-0.3105,0.5625
			c0,0.1367,0.043,0.2598,0.1289,0.3691c0.0859,0.1133,0.2207,0.207,0.4043,0.2813c0.1055,0.0391,0.416,0.1289,0.9316,0.2695
			c0.7461,0.1992,1.2666,0.3623,1.5615,0.4893s0.5264,0.3115,0.6943,0.5537s0.252,0.543,0.252,0.9023
			c0,0.3516-0.1025,0.6826-0.3076,0.9932s-0.501,0.5508-0.8877,0.7207s-0.8242,0.2549-1.3125,0.2549
			c-0.8086,0-1.4248-0.168-1.8486-0.5039S606.6992,156.5986,606.582,155.9385z"/>
		<path fill="#FFFFFF" d="M573.7871,171.7959v-8.5898h2.959c0.668,0,1.1777,0.041,1.5293,0.123
			c0.4922,0.1133,0.9121,0.3184,1.2598,0.6152c0.4531,0.3828,0.792,0.8721,1.0166,1.4678s0.3369,1.2764,0.3369,2.042
			c0,0.6523-0.0762,1.2305-0.2285,1.7344s-0.3477,0.9209-0.5859,1.251s-0.499,0.5898-0.7822,0.7793s-0.625,0.333-1.0254,0.4307
			s-0.8604,0.1465-1.3799,0.1465H573.7871z M574.9238,170.7822h1.834c0.5664,0,1.0107-0.0527,1.333-0.1582
			s0.5791-0.2539,0.7705-0.4453c0.2695-0.2695,0.4795-0.6318,0.6299-1.0869s0.2256-1.0068,0.2256-1.6553
			c0-0.8984-0.1475-1.5889-0.4424-2.0713s-0.6533-0.8057-1.0752-0.9697c-0.3047-0.1172-0.7949-0.1758-1.4707-0.1758h-1.8047
			V170.7822z"/>
		<path fill="#FFFFFF" d="M582.3242,164.4189v-1.2129h1.0547v1.2129H582.3242z M582.3242,171.7959v-6.2227h1.0547v6.2227H582.3242z"
			/>
		<path fill="#FFFFFF" d="M584.5625,169.9385l1.043-0.1641c0.0586,0.418,0.2217,0.7383,0.4893,0.9609s0.6416,0.334,1.1221,0.334
			c0.4844,0,0.8438-0.0986,1.0781-0.2959s0.3516-0.4287,0.3516-0.6943c0-0.2383-0.1035-0.4258-0.3105-0.5625
			c-0.1445-0.0938-0.5039-0.2129-1.0781-0.3574c-0.7734-0.1953-1.3096-0.3643-1.6084-0.5068s-0.5254-0.3398-0.6797-0.5918
			s-0.2314-0.5303-0.2314-0.835c0-0.2773,0.0635-0.5342,0.1904-0.7705s0.2998-0.4326,0.5186-0.5889
			c0.1641-0.1211,0.3877-0.2236,0.6709-0.3076s0.5869-0.126,0.9111-0.126c0.4883,0,0.917,0.0703,1.2861,0.2109
			s0.6416,0.3311,0.8174,0.5713s0.2969,0.5615,0.3633,0.9639l-1.0313,0.1406c-0.0469-0.3203-0.1826-0.5703-0.4072-0.75
			s-0.542-0.2695-0.9521-0.2695c-0.4844,0-0.8301,0.0801-1.0371,0.2402s-0.3105,0.3477-0.3105,0.5625
			c0,0.1367,0.043,0.2598,0.1289,0.3691c0.0859,0.1133,0.2207,0.207,0.4043,0.2813c0.1055,0.0391,0.416,0.1289,0.9316,0.2695
			c0.7461,0.1992,1.2666,0.3623,1.5615,0.4893s0.5264,0.3115,0.6943,0.5537s0.252,0.543,0.252,0.9023
			c0,0.3516-0.1025,0.6826-0.3076,0.9932s-0.501,0.5508-0.8877,0.7207s-0.8242,0.2549-1.3125,0.2549
			c-0.8086,0-1.4248-0.168-1.8486-0.5039S584.6797,170.5986,584.5625,169.9385z"/>
		<path fill="#FFFFFF" d="M595.2441,169.792l1.0898,0.1348c-0.1719,0.6367-0.4902,1.1309-0.9551,1.4824
			s-1.0586,0.5273-1.7813,0.5273c-0.9102,0-1.6318-0.2803-2.165-0.8408s-0.7998-1.3467-0.7998-2.3584
			c0-1.0469,0.2695-1.8594,0.8086-2.4375s1.2383-0.8672,2.0977-0.8672c0.832,0,1.5117,0.2832,2.0391,0.8496
			s0.791,1.3633,0.791,2.3906c0,0.0625-0.002,0.1563-0.0059,0.2813h-4.6406c0.0391,0.6836,0.2324,1.207,0.5801,1.5703
			s0.7813,0.5449,1.3008,0.5449c0.3867,0,0.7168-0.1016,0.9902-0.3047S595.084,170.2373,595.2441,169.792z M591.7813,168.0869
			h3.4746c-0.0469-0.5234-0.1797-0.916-0.3984-1.1777c-0.3359-0.4063-0.7715-0.6094-1.3066-0.6094
			c-0.4844,0-0.8916,0.1621-1.2217,0.4863S591.8164,167.5439,591.7813,168.0869z"/>
		<path fill="#FFFFFF" d="M597.6582,171.7959v-6.2227h0.9492v0.8848c0.457-0.6836,1.1172-1.0254,1.9805-1.0254
			c0.375,0,0.7197,0.0674,1.0342,0.2021s0.5498,0.3115,0.7061,0.5303s0.2656,0.4785,0.3281,0.7793
			c0.0391,0.1953,0.0586,0.5371,0.0586,1.0254v3.8262h-1.0547v-3.7852c0-0.4297-0.041-0.751-0.123-0.9639
			s-0.2275-0.3828-0.4365-0.5098s-0.4541-0.1904-0.7354-0.1904c-0.4492,0-0.8369,0.1426-1.1631,0.4277s-0.4893,0.8262-0.4893,1.623
			v3.3984H597.6582z M598.4023,164.6533c-0.0039-0.4063,0.1074-0.7305,0.334-0.9727c0.2227-0.2422,0.5078-0.3633,0.8555-0.3633
			c0.2422,0,0.5723,0.1055,0.9902,0.3164c0.2305,0.1172,0.4141,0.1758,0.5508,0.1758c0.125,0,0.2207-0.0342,0.2871-0.1025
			s0.1133-0.2041,0.1406-0.4072h0.7617c-0.0117,0.4453-0.124,0.7793-0.3369,1.002s-0.4834,0.334-0.8115,0.334
			c-0.2461,0-0.5703-0.1094-0.9727-0.3281c-0.2617-0.1406-0.4531-0.2109-0.5742-0.2109c-0.1328,0-0.2402,0.0469-0.3223,0.1406
			c-0.0859,0.0938-0.127,0.2324-0.123,0.416H598.4023z"/>
		<path fill="#FFFFFF" d="M603.9395,168.6846c0-1.1523,0.3203-2.0059,0.9609-2.5605c0.5352-0.4609,1.1875-0.6914,1.957-0.6914
			c0.8555,0,1.5547,0.2803,2.0977,0.8408s0.8145,1.335,0.8145,2.3232c0,0.8008-0.1201,1.4307-0.3604,1.8896
			s-0.5898,0.8154-1.0488,1.0693s-0.96,0.3809-1.5029,0.3809c-0.8711,0-1.5752-0.2793-2.1123-0.8379
			S603.9395,169.7354,603.9395,168.6846z M605.0234,168.6846c0,0.7969,0.1738,1.3936,0.5215,1.79s0.7852,0.5947,1.3125,0.5947
			c0.5234,0,0.959-0.1992,1.3066-0.5977s0.5215-1.0059,0.5215-1.8223c0-0.7695-0.1748-1.3525-0.5244-1.749
			s-0.7842-0.5947-1.3037-0.5947c-0.5273,0-0.9648,0.1973-1.3125,0.5918S605.0234,167.8877,605.0234,168.6846z"/>
	</g>
</g>
<g>
	<rect y="81" fill="#75C6F0" width="135" height="37"/>
	<g>
		<path fill="#FFFFFF" d="M27.9097,100.041l1.5415,0.4883c-0.2363,0.8594-0.6294,1.498-1.1787,1.915
			c-0.5498,0.417-1.2471,0.626-2.0923,0.626c-1.0454,0-1.9048-0.3574-2.5781-1.0723c-0.6733-0.7139-1.0098-1.6904-1.0098-2.9297
			c0-1.3105,0.3384-2.3281,1.0151-3.0537c0.6768-0.7246,1.5664-1.0869,2.6694-1.0869c0.9634,0,1.7456,0.2842,2.3472,0.8535
			c0.3579,0.3369,0.6265,0.8203,0.8057,1.4502l-1.5737,0.376c-0.0933-0.4082-0.2876-0.7305-0.5825-0.9668
			c-0.2959-0.2363-0.6548-0.3545-1.0771-0.3545c-0.5835,0-1.0571,0.21-1.4209,0.6279c-0.3633,0.4199-0.5449,1.0977-0.5449,2.0361
			c0,0.9951,0.1792,1.7041,0.5371,2.127s0.8237,0.6338,1.3965,0.6338c0.4224,0,0.7861-0.1348,1.0903-0.4023
			C27.5586,101.0391,27.7773,100.6172,27.9097,100.041z"/>
		<path fill="#FFFFFF" d="M30.4932,99.0469c0-0.8018,0.1201-1.4756,0.3599-2.0195c0.1792-0.4014,0.4233-0.7607,0.7334-1.0801
			c0.3096-0.3184,0.6489-0.5547,1.0176-0.709c0.4907-0.207,1.0562-0.3105,1.6973-0.3105c1.1602,0,2.0884,0.3594,2.7852,1.0791
			c0.6963,0.7197,1.0444,1.7207,1.0444,3.0029c0,1.2705-0.3457,2.2656-1.0366,2.9834s-1.6147,1.0771-2.7715,1.0771
			c-1.1709,0-2.1021-0.3574-2.793-1.0723C30.8389,101.2842,30.4932,100.2998,30.4932,99.0469z M32.1313,98.9932
			c0,0.8916,0.2061,1.5674,0.6177,2.0273s0.9346,0.6904,1.5684,0.6904s1.1538-0.2285,1.5601-0.6846
			c0.4067-0.457,0.6099-1.1416,0.6099-2.0547c0-0.9023-0.1978-1.5752-0.5933-2.0195c-0.396-0.4443-0.9214-0.666-1.5767-0.666
			s-1.1836,0.2246-1.5845,0.6738S32.1313,98.0869,32.1313,98.9932z"/>
		<path fill="#FFFFFF" d="M39.3501,102.9355v-7.874h2.3794l1.4287,5.3711l1.4126-5.3711h2.3848v7.874h-1.4771v-6.1982l-1.563,6.1982
			h-1.5308l-1.5576-6.1982v6.1982H39.3501z"/>
		<path fill="#FFFFFF" d="M48.5239,95.0615h1.5898v4.2646c0,0.6768,0.0195,1.1152,0.0591,1.3164
			c0.0679,0.3223,0.23,0.5801,0.4863,0.7754c0.2559,0.1953,0.606,0.293,1.0498,0.293c0.4512,0,0.7915-0.0918,1.0205-0.2764
			s0.3672-0.4111,0.4136-0.6797s0.0698-0.7139,0.0698-1.3369v-4.3564h1.5898v4.1357c0,0.9453-0.043,1.6133-0.1289,2.0039
			c-0.0859,0.3896-0.2441,0.7188-0.4756,0.9883c-0.2305,0.2676-0.5396,0.4824-0.9263,0.6416s-0.8916,0.2393-1.5146,0.2393
			c-0.752,0-1.3223-0.0869-1.7104-0.2607c-0.3887-0.1738-0.6958-0.3994-0.9214-0.6768s-0.374-0.5684-0.4458-0.873
			c-0.104-0.4512-0.1558-1.1172-0.1558-1.998V95.0615z"/>
		<path fill="#FFFFFF" d="M56.4946,102.9355v-7.874h1.5469l3.2227,5.2588v-5.2588h1.4771v7.874H61.146l-3.1743-5.1348v5.1348
			H56.4946z"/>
		<path fill="#FFFFFF" d="M64.374,102.9355v-7.874h1.5898v7.874H64.374z"/>
		<path fill="#FFFFFF" d="M72.5166,100.041l1.5415,0.4883c-0.2363,0.8594-0.6294,1.498-1.1787,1.915
			c-0.5498,0.417-1.2471,0.626-2.0923,0.626c-1.0454,0-1.9048-0.3574-2.5781-1.0723c-0.6733-0.7139-1.0098-1.6904-1.0098-2.9297
			c0-1.3105,0.3384-2.3281,1.0151-3.0537c0.6768-0.7246,1.5664-1.0869,2.6694-1.0869c0.9634,0,1.7456,0.2842,2.3472,0.8535
			c0.3579,0.3369,0.6265,0.8203,0.8057,1.4502l-1.5737,0.376c-0.0933-0.4082-0.2876-0.7305-0.5825-0.9668
			c-0.2959-0.2363-0.6548-0.3545-1.0771-0.3545c-0.5835,0-1.0571,0.21-1.4209,0.6279c-0.3633,0.4199-0.5449,1.0977-0.5449,2.0361
			c0,0.9951,0.1792,1.7041,0.5371,2.127s0.8237,0.6338,1.3965,0.6338c0.4224,0,0.7861-0.1348,1.0903-0.4023
			C72.1655,101.0391,72.3843,100.6172,72.5166,100.041z"/>
		<path fill="#FFFFFF" d="M82.5229,102.9355h-1.7295l-0.6875-1.7891h-3.1475l-0.6499,1.7891h-1.6865l3.0669-7.874h1.6812
			L82.5229,102.9355z M79.5957,99.8203l-1.085-2.9219l-1.0635,2.9219H79.5957z"/>
		<path fill="#FFFFFF" d="M88.4043,100.041l1.5415,0.4883c-0.2363,0.8594-0.6294,1.498-1.1787,1.915
			c-0.5498,0.417-1.2471,0.626-2.0923,0.626c-1.0454,0-1.9048-0.3574-2.5781-1.0723c-0.6733-0.7139-1.0098-1.6904-1.0098-2.9297
			c0-1.3105,0.3384-2.3281,1.0151-3.0537c0.6768-0.7246,1.5664-1.0869,2.6694-1.0869c0.9634,0,1.7456,0.2842,2.3472,0.8535
			c0.3579,0.3369,0.6265,0.8203,0.8057,1.4502l-1.5737,0.376c-0.0933-0.4082-0.2876-0.7305-0.5825-0.9668
			c-0.2959-0.2363-0.6548-0.3545-1.0771-0.3545c-0.5835,0-1.0571,0.21-1.4209,0.6279c-0.3633,0.4199-0.5449,1.0977-0.5449,2.0361
			c0,0.9951,0.1792,1.7041,0.5371,2.127s0.8237,0.6338,1.3965,0.6338c0.4224,0,0.7861-0.1348,1.0903-0.4023
			C88.0532,101.0391,88.272,100.6172,88.4043,100.041z"/>
		<path fill="#FFFFFF" d="M91.2617,102.9355v-7.874h1.5898v7.874H91.2617z"/>
		<path fill="#FFFFFF" d="M94.0439,99.0469c0-0.8018,0.1201-1.4756,0.3599-2.0195c0.1792-0.4014,0.4233-0.7607,0.7334-1.0801
			c0.3096-0.3184,0.6489-0.5547,1.0176-0.709c0.4907-0.207,1.0562-0.3105,1.6973-0.3105c1.1602,0,2.0884,0.3594,2.7852,1.0791
			c0.6963,0.7197,1.0444,1.7207,1.0444,3.0029c0,1.2705-0.3457,2.2656-1.0366,2.9834s-1.6147,1.0771-2.7715,1.0771
			c-1.1709,0-2.1021-0.3574-2.793-1.0723C94.3896,101.2842,94.0439,100.2998,94.0439,99.0469z M95.6821,98.9932
			c0,0.8916,0.2061,1.5674,0.6177,2.0273s0.9346,0.6904,1.5684,0.6904s1.1538-0.2285,1.5601-0.6846
			c0.4067-0.457,0.6099-1.1416,0.6099-2.0547c0-0.9023-0.1978-1.5752-0.5933-2.0195c-0.396-0.4443-0.9214-0.666-1.5767-0.666
			s-1.1836,0.2246-1.5845,0.6738S95.6821,98.0869,95.6821,98.9932z M96.8853,94.6104l0.7412-1.6064h1.6919l-1.4771,1.6064H96.8853z"
			/>
		<path fill="#FFFFFF" d="M102.9385,102.9355v-7.874h1.5469l3.2227,5.2588v-5.2588h1.4771v7.874h-1.5952l-3.1743-5.1348v5.1348
			H102.9385z"/>
	</g>
</g>
<g>
	<g>
		<rect x="21" y="240" fill="#75C6F0" width="135" height="64"/>
		<g>
			<path fill="#FFFFFF" d="M52.4111,246.665h2.9058c0.6553,0,1.1548,0.0498,1.4985,0.1504c0.4619,0.1357,0.8574,0.3779,1.187,0.7256
				c0.3296,0.3467,0.5801,0.7725,0.752,1.2754s0.2578,1.123,0.2578,1.8613c0,0.6475-0.0806,1.2061-0.2417,1.6758
				c-0.1968,0.5723-0.478,1.0361-0.8433,1.3906c-0.2759,0.2686-0.6479,0.4785-1.1172,0.6289
				c-0.3511,0.1104-0.8198,0.166-1.4072,0.166h-2.9917V246.665z M54.001,247.9971v5.2158h1.187
				c0.4438,0,0.7646-0.0254,0.9614-0.0762c0.2578-0.0645,0.4717-0.1729,0.6416-0.3271c0.1704-0.1543,0.3091-0.4072,0.4165-0.7598
				s0.1611-0.834,0.1611-1.4424s-0.0537-1.0762-0.1611-1.4023c-0.1074-0.3252-0.2578-0.5801-0.4512-0.7617
				c-0.1934-0.1836-0.4385-0.3066-0.7358-0.3711c-0.2222-0.0498-0.6572-0.0752-1.3052-0.0752H54.001z"/>
			<path fill="#FFFFFF" d="M60.3604,254.5391v-7.874h5.8384v1.332h-4.2485v1.7451h3.9531v1.3271h-3.9531v2.1436h4.3989v1.3262
				H60.3604z"/>
			<path fill="#FFFFFF" d="M67.2944,251.9766l1.5469-0.1504c0.0933,0.5195,0.2822,0.9014,0.5664,1.1445
				c0.2852,0.2432,0.6689,0.3652,1.1523,0.3652c0.5122,0,0.8979-0.1084,1.1572-0.3252c0.2598-0.2168,0.3896-0.4697,0.3896-0.7598
				c0-0.1865-0.0547-0.3447-0.1641-0.4756c-0.1089-0.1309-0.2998-0.2441-0.5718-0.3408c-0.186-0.0645-0.6104-0.1787-1.2729-0.3438
				c-0.8521-0.2109-1.4502-0.4707-1.7939-0.7783c-0.4834-0.4336-0.7251-0.9619-0.7251-1.585c0-0.4014,0.1138-0.7764,0.3413-1.125
				c0.2271-0.3496,0.5547-0.6152,0.9824-0.7979c0.4282-0.1826,0.9448-0.2734,1.5498-0.2734c0.9883,0,1.7324,0.2158,2.2314,0.6494
				c0.5,0.4336,0.7622,1.0117,0.7871,1.7354l-1.5898,0.0693c-0.0679-0.4043-0.2139-0.6953-0.4375-0.873
				c-0.2241-0.1768-0.5596-0.2656-1.0073-0.2656c-0.4619,0-0.8237,0.0947-1.085,0.2842c-0.1685,0.1221-0.2524,0.2852-0.2524,0.4893
				c0,0.1865,0.0786,0.3457,0.2363,0.4775c0.2007,0.1689,0.6875,0.3438,1.4609,0.5273c0.7734,0.1816,1.3457,0.3711,1.7158,0.5664
				c0.3711,0.1953,0.6611,0.4619,0.8701,0.7998c0.21,0.3389,0.3145,0.7568,0.3145,1.2549c0,0.4512-0.1255,0.873-0.376,1.2676
				c-0.2505,0.3936-0.605,0.6865-1.0635,0.8779s-1.0293,0.2871-1.7134,0.2871c-0.9956,0-1.7598-0.2305-2.2935-0.6904
				S67.3984,252.8574,67.2944,251.9766z"/>
			<path fill="#FFFFFF" d="M75.0342,254.5391v-7.874h2.5513c0.9668,0,1.5972,0.0391,1.8906,0.1182
				c0.4512,0.1182,0.8291,0.375,1.1333,0.7705s0.4565,0.9072,0.4565,1.5342c0,0.4824-0.0879,0.8896-0.2632,1.2188
				s-0.3984,0.5879-0.6685,0.7764c-0.2705,0.1875-0.5454,0.3125-0.8247,0.373c-0.3794,0.0752-0.9292,0.1123-1.6489,0.1123H76.624
				v2.9707H75.0342z M76.624,247.9971v2.2344h0.8701c0.6265,0,1.0454-0.041,1.2568-0.124c0.2114-0.082,0.377-0.2109,0.4966-0.3867
				c0.1201-0.1748,0.1802-0.3789,0.1802-0.6113c0-0.2871-0.084-0.5234-0.2524-0.709c-0.1685-0.1865-0.3813-0.3027-0.6392-0.3496
				c-0.1899-0.0361-0.5713-0.0537-1.144-0.0537H76.624z"/>
			<path fill="#FFFFFF" d="M82.4141,254.5391v-7.8096h1.5898v6.4834h3.9531v1.3262H82.4141z"/>
			<path fill="#FFFFFF" d="M89.042,254.5391v-7.874h1.5898v7.874H89.042z"/>
			<path fill="#FFFFFF" d="M92.1465,254.5391v-7.874h5.8384v1.332h-4.2485v1.7451h3.9531v1.3271h-3.9531v2.1436h4.3989v1.3262
				H92.1465z"/>
			<path fill="#FFFFFF" d="M103.1465,251.6445v-1.3271h3.4268v3.1367c-0.333,0.3223-0.8154,0.6064-1.4478,0.8516
				c-0.6318,0.2451-1.272,0.3682-1.9199,0.3682c-0.8237,0-1.5415-0.1729-2.1538-0.5186s-1.0723-0.8398-1.3804-1.4824
				s-0.4619-1.3418-0.4619-2.0977c0-0.8203,0.1719-1.5488,0.5156-2.1865c0.3438-0.6367,0.8467-1.126,1.5093-1.4658
				c0.5049-0.2617,1.1333-0.3916,1.8853-0.3916c0.9775,0,1.7412,0.2041,2.291,0.6143c0.5493,0.4102,0.9028,0.9766,1.0605,1.7002
				l-1.5791,0.2949c-0.1108-0.3867-0.3193-0.6914-0.626-0.915c-0.3057-0.2236-0.688-0.3359-1.1465-0.3359
				c-0.6948,0-1.2471,0.2197-1.6572,0.6611c-0.4097,0.4395-0.6147,1.0938-0.6147,1.96c0,0.9346,0.2075,1.6357,0.623,2.1025
				c0.4155,0.4678,0.9595,0.7012,1.6328,0.7012c0.333,0,0.667-0.0654,1.0015-0.1963c0.335-0.1309,0.6226-0.2891,0.8623-0.4756
				v-0.998H103.1465z"/>
			<path fill="#FFFFFF" d="M108.0288,246.665h1.5898v4.2646c0,0.6768,0.0195,1.1152,0.0591,1.3164
				c0.0679,0.3223,0.23,0.5801,0.4863,0.7754c0.2559,0.1953,0.606,0.293,1.0498,0.293c0.4512,0,0.7915-0.0918,1.0205-0.2764
				s0.3672-0.4111,0.4136-0.6797s0.0698-0.7139,0.0698-1.3369v-4.3564h1.5898v4.1357c0,0.9453-0.043,1.6133-0.1289,2.0039
				c-0.0859,0.3896-0.2441,0.7188-0.4756,0.9883c-0.2305,0.2676-0.5396,0.4824-0.9263,0.6416s-0.8916,0.2393-1.5146,0.2393
				c-0.752,0-1.3223-0.0869-1.7104-0.2607c-0.3887-0.1738-0.6958-0.3994-0.9214-0.6768s-0.374-0.5684-0.4458-0.873
				c-0.104-0.4512-0.1558-1.1172-0.1558-1.998V246.665z"/>
			<path fill="#FFFFFF" d="M115.9834,254.5391v-7.874h5.8384v1.332h-4.2485v1.7451h3.9531v1.3271h-3.9531v2.1436h4.3989v1.3262
				H115.9834z"/>
		</g>
	</g>
	<rect x="25" y="261" fill="#8CCEEA" width="125" height="36"/>
	<g>
		<path fill="#FFFFFF" d="M66.4727,272.7959v-8.5898h6.2109v1.0137h-5.0742v2.6309h4.752v1.0078h-4.752v2.9238h5.2734v1.0137
			H66.4727z"/>
		<path fill="#FFFFFF" d="M74.3184,272.7959v-6.2227h0.9492v0.8848c0.457-0.6836,1.1172-1.0254,1.9805-1.0254
			c0.375,0,0.7197,0.0674,1.0342,0.2021s0.5498,0.3115,0.7061,0.5303s0.2656,0.4785,0.3281,0.7793
			c0.0391,0.1953,0.0586,0.5371,0.0586,1.0254v3.8262h-1.0547v-3.7852c0-0.4297-0.041-0.751-0.123-0.9639
			s-0.2275-0.3828-0.4365-0.5098s-0.4541-0.1904-0.7354-0.1904c-0.4492,0-0.8369,0.1426-1.1631,0.4277s-0.4893,0.8262-0.4893,1.623
			v3.3984H74.3184z"/>
		<path fill="#FFFFFF" d="M83.2949,271.8525l0.1523,0.9316c-0.2969,0.0625-0.5625,0.0938-0.7969,0.0938
			c-0.3828,0-0.6797-0.0605-0.8906-0.1816s-0.3594-0.2803-0.4453-0.4775s-0.1289-0.6123-0.1289-1.2451v-3.5801h-0.7734v-0.8203
			h0.7734v-1.541l1.0488-0.6328v2.1738h1.0605v0.8203h-1.0605v3.6387c0,0.3008,0.0186,0.4941,0.0557,0.5801
			s0.0977,0.1543,0.1816,0.2051s0.2041,0.0762,0.3604,0.0762C82.9492,271.8936,83.1035,271.8799,83.2949,271.8525z"/>
		<path fill="#FFFFFF" d="M84.3145,272.7959v-6.2227h0.9492v0.9434c0.2422-0.4414,0.4658-0.7324,0.6709-0.873
			s0.4307-0.2109,0.6768-0.2109c0.3555,0,0.7168,0.1133,1.084,0.3398l-0.3633,0.9785c-0.2578-0.1523-0.5156-0.2285-0.7734-0.2285
			c-0.2305,0-0.4375,0.0693-0.6211,0.208s-0.3145,0.3311-0.3926,0.5771c-0.1172,0.375-0.1758,0.7852-0.1758,1.2305v3.2578H84.3145z"
			/>
		<path fill="#FFFFFF" d="M92.582,270.792l1.0898,0.1348c-0.1719,0.6367-0.4902,1.1309-0.9551,1.4824s-1.0586,0.5273-1.7813,0.5273
			c-0.9102,0-1.6318-0.2803-2.165-0.8408s-0.7998-1.3467-0.7998-2.3584c0-1.0469,0.2695-1.8594,0.8086-2.4375
			s1.2383-0.8672,2.0977-0.8672c0.832,0,1.5117,0.2832,2.0391,0.8496s0.791,1.3633,0.791,2.3906
			c0,0.0625-0.002,0.1563-0.0059,0.2813h-4.6406c0.0391,0.6836,0.2324,1.207,0.5801,1.5703s0.7813,0.5449,1.3008,0.5449
			c0.3867,0,0.7168-0.1016,0.9902-0.3047S92.4219,271.2373,92.582,270.792z M89.1191,269.0869h3.4746
			c-0.0469-0.5234-0.1797-0.916-0.3984-1.1777c-0.3359-0.4063-0.7715-0.6094-1.3066-0.6094c-0.4844,0-0.8916,0.1621-1.2217,0.4863
			S89.1543,268.5439,89.1191,269.0869z"/>
		<path fill="#FFFFFF" d="M94.8027,273.3115l1.0254,0.1523c0.043,0.3164,0.1621,0.5469,0.3574,0.6914
			c0.2617,0.1953,0.6191,0.293,1.0723,0.293c0.4883,0,0.8652-0.0977,1.1309-0.293s0.4453-0.4688,0.5391-0.8203
			c0.0547-0.2148,0.0801-0.666,0.0762-1.3535c-0.4609,0.543-1.0352,0.8145-1.7227,0.8145c-0.8555,0-1.5176-0.3086-1.9863-0.9258
			s-0.7031-1.3574-0.7031-2.2207c0-0.5938,0.1074-1.1416,0.3223-1.6436s0.5264-0.8896,0.9346-1.1631s0.8877-0.4102,1.4385-0.4102
			c0.7344,0,1.3398,0.2969,1.8164,0.8906v-0.75h0.9727v5.3789c0,0.9688-0.0986,1.6553-0.2959,2.0596s-0.5098,0.7236-0.9375,0.958
			s-0.9541,0.3516-1.5791,0.3516c-0.7422,0-1.3418-0.167-1.7988-0.501S94.7871,273.9834,94.8027,273.3115z M95.6758,269.5732
			c0,0.8164,0.1621,1.4121,0.4863,1.7871s0.7305,0.5625,1.2188,0.5625c0.4844,0,0.8906-0.1865,1.2188-0.5596
			s0.4922-0.958,0.4922-1.7549c0-0.7617-0.1689-1.3359-0.5068-1.7227s-0.7451-0.5801-1.2217-0.5801
			c-0.4688,0-0.8672,0.1904-1.1953,0.5713S95.6758,268.8232,95.6758,269.5732z"/>
		<path fill="#FFFFFF" d="M105.7305,272.0283c-0.3906,0.332-0.7666,0.5664-1.1279,0.7031s-0.749,0.2051-1.1631,0.2051
			c-0.6836,0-1.209-0.167-1.5762-0.501s-0.5508-0.7607-0.5508-1.2803c0-0.3047,0.0693-0.583,0.208-0.835
			s0.3203-0.4541,0.5449-0.6064s0.4775-0.2676,0.7588-0.3457c0.207-0.0547,0.5195-0.1074,0.9375-0.1582
			c0.8516-0.1016,1.4785-0.2227,1.8809-0.3633c0.0039-0.1445,0.0059-0.2363,0.0059-0.2754c0-0.4297-0.0996-0.7324-0.2988-0.9082
			c-0.2695-0.2383-0.6699-0.3574-1.2012-0.3574c-0.4961,0-0.8623,0.0869-1.0986,0.2607s-0.4111,0.4814-0.5244,0.9229l-1.0313-0.1406
			c0.0938-0.4414,0.248-0.7979,0.4629-1.0693s0.5254-0.4805,0.9316-0.627s0.877-0.2197,1.4121-0.2197
			c0.5313,0,0.9629,0.0625,1.2949,0.1875s0.5762,0.2822,0.7324,0.4717s0.2656,0.4287,0.3281,0.7178
			c0.0352,0.1797,0.0527,0.5039,0.0527,0.9727v1.4063c0,0.9805,0.0225,1.6006,0.0674,1.8604s0.1338,0.5088,0.2666,0.7471h-1.1016
			C105.832,272.5771,105.7617,272.3213,105.7305,272.0283z M105.6426,269.6729c-0.3828,0.1563-0.957,0.2891-1.7227,0.3984
			c-0.4336,0.0625-0.7402,0.1328-0.9199,0.2109s-0.3184,0.1924-0.416,0.3428s-0.1465,0.3174-0.1465,0.501
			c0,0.2813,0.1064,0.5156,0.3193,0.7031s0.5244,0.2813,0.9346,0.2813c0.4063,0,0.7676-0.0889,1.084-0.2666
			s0.5488-0.4209,0.6973-0.7295c0.1133-0.2383,0.1699-0.5898,0.1699-1.0547V269.6729z"/>
		<path fill="#FFFFFF" d="M39.124,286.7959v-8.5898h3.8086c0.7656,0,1.3477,0.0771,1.7461,0.2314s0.7168,0.4268,0.9551,0.8174
			s0.3574,0.8223,0.3574,1.2949c0,0.6094-0.1973,1.123-0.5918,1.541s-1.0039,0.6836-1.8281,0.7969
			c0.3008,0.1445,0.5293,0.2871,0.6855,0.4277c0.332,0.3047,0.6465,0.6855,0.9434,1.1426l1.4941,2.3379h-1.4297l-1.1367-1.7871
			c-0.332-0.5156-0.6055-0.9102-0.8203-1.1836s-0.4072-0.4648-0.5771-0.5742s-0.3428-0.1855-0.5186-0.2285
			c-0.1289-0.0273-0.3398-0.041-0.6328-0.041h-1.3184v3.8145H39.124z M40.2607,281.9971h2.4434
			c0.5195,0,0.9258-0.0537,1.2188-0.1611s0.5156-0.2793,0.668-0.5156s0.2285-0.4932,0.2285-0.7705
			c0-0.4063-0.1475-0.7402-0.4424-1.002s-0.7607-0.3926-1.3975-0.3926h-2.7188V281.9971z"/>
		<path fill="#FFFFFF" d="M51.8975,284.792l1.0898,0.1348c-0.1719,0.6367-0.4902,1.1309-0.9551,1.4824s-1.0586,0.5273-1.7813,0.5273
			c-0.9102,0-1.6318-0.2803-2.165-0.8408s-0.7998-1.3467-0.7998-2.3584c0-1.0469,0.2695-1.8594,0.8086-2.4375
			s1.2383-0.8672,2.0977-0.8672c0.832,0,1.5117,0.2832,2.0391,0.8496s0.791,1.3633,0.791,2.3906
			c0,0.0625-0.002,0.1563-0.0059,0.2813H48.376c0.0391,0.6836,0.2324,1.207,0.5801,1.5703s0.7813,0.5449,1.3008,0.5449
			c0.3867,0,0.7168-0.1016,0.9902-0.3047S51.7373,285.2373,51.8975,284.792z M48.4346,283.0869h3.4746
			c-0.0469-0.5234-0.1797-0.916-0.3984-1.1777c-0.3359-0.4063-0.7715-0.6094-1.3066-0.6094c-0.4844,0-0.8916,0.1621-1.2217,0.4863
			S48.4697,282.5439,48.4346,283.0869z"/>
		<path fill="#FFFFFF" d="M56.6143,285.8525l0.1523,0.9316c-0.2969,0.0625-0.5625,0.0938-0.7969,0.0938
			c-0.3828,0-0.6797-0.0605-0.8906-0.1816s-0.3594-0.2803-0.4453-0.4775s-0.1289-0.6123-0.1289-1.2451v-3.5801h-0.7734v-0.8203
			h0.7734v-1.541l1.0488-0.6328v2.1738h1.0605v0.8203h-1.0605v3.6387c0,0.3008,0.0186,0.4941,0.0557,0.5801
			s0.0977,0.1543,0.1816,0.2051s0.2041,0.0762,0.3604,0.0762C56.2686,285.8936,56.4229,285.8799,56.6143,285.8525z"/>
		<path fill="#FFFFFF" d="M57.6338,286.7959v-6.2227h0.9492v0.9434c0.2422-0.4414,0.4658-0.7324,0.6709-0.873
			s0.4307-0.2109,0.6768-0.2109c0.3555,0,0.7168,0.1133,1.084,0.3398l-0.3633,0.9785c-0.2578-0.1523-0.5156-0.2285-0.7734-0.2285
			c-0.2305,0-0.4375,0.0693-0.6211,0.208s-0.3145,0.3311-0.3926,0.5771c-0.1172,0.375-0.1758,0.7852-0.1758,1.2305v3.2578H57.6338z"
			/>
		<path fill="#FFFFFF" d="M61.249,283.6846c0-1.1523,0.3203-2.0059,0.9609-2.5605c0.5352-0.4609,1.1875-0.6914,1.957-0.6914
			c0.8555,0,1.5547,0.2803,2.0977,0.8408s0.8145,1.335,0.8145,2.3232c0,0.8008-0.1201,1.4307-0.3604,1.8896
			s-0.5898,0.8154-1.0488,1.0693s-0.96,0.3809-1.5029,0.3809c-0.8711,0-1.5752-0.2793-2.1123-0.8379
			S61.249,284.7354,61.249,283.6846z M62.333,283.6846c0,0.7969,0.1738,1.3936,0.5215,1.79s0.7852,0.5947,1.3125,0.5947
			c0.5234,0,0.959-0.1992,1.3066-0.5977s0.5215-1.0059,0.5215-1.8223c0-0.7695-0.1748-1.3525-0.5244-1.749
			s-0.7842-0.5947-1.3037-0.5947c-0.5273,0-0.9648,0.1973-1.3125,0.5918S62.333,282.8877,62.333,283.6846z"/>
		<path fill="#FFFFFF" d="M72.376,286.0283c-0.3906,0.332-0.7666,0.5664-1.1279,0.7031s-0.749,0.2051-1.1631,0.2051
			c-0.6836,0-1.209-0.167-1.5762-0.501s-0.5508-0.7607-0.5508-1.2803c0-0.3047,0.0693-0.583,0.208-0.835
			s0.3203-0.4541,0.5449-0.6064s0.4775-0.2676,0.7588-0.3457c0.207-0.0547,0.5195-0.1074,0.9375-0.1582
			c0.8516-0.1016,1.4785-0.2227,1.8809-0.3633c0.0039-0.1445,0.0059-0.2363,0.0059-0.2754c0-0.4297-0.0996-0.7324-0.2988-0.9082
			c-0.2695-0.2383-0.6699-0.3574-1.2012-0.3574c-0.4961,0-0.8623,0.0869-1.0986,0.2607s-0.4111,0.4814-0.5244,0.9229l-1.0313-0.1406
			c0.0938-0.4414,0.248-0.7979,0.4629-1.0693s0.5254-0.4805,0.9316-0.627s0.877-0.2197,1.4121-0.2197
			c0.5313,0,0.9629,0.0625,1.2949,0.1875s0.5762,0.2822,0.7324,0.4717s0.2656,0.4287,0.3281,0.7178
			c0.0352,0.1797,0.0527,0.5039,0.0527,0.9727v1.4063c0,0.9805,0.0225,1.6006,0.0674,1.8604s0.1338,0.5088,0.2666,0.7471h-1.1016
			C72.4775,286.5771,72.4072,286.3213,72.376,286.0283z M72.2881,283.6729c-0.3828,0.1563-0.957,0.2891-1.7227,0.3984
			c-0.4336,0.0625-0.7402,0.1328-0.9199,0.2109s-0.3184,0.1924-0.416,0.3428s-0.1465,0.3174-0.1465,0.501
			c0,0.2813,0.1064,0.5156,0.3193,0.7031s0.5244,0.2813,0.9346,0.2813c0.4063,0,0.7676-0.0889,1.084-0.2666
			s0.5488-0.4209,0.6973-0.7295c0.1133-0.2383,0.1699-0.5898,0.1699-1.0547V283.6729z"/>
		<path fill="#FFFFFF" d="M74.9658,286.7959v-8.5898h1.0547v8.5898H74.9658z"/>
		<path fill="#FFFFFF" d="M77.6611,279.4189v-1.2129h1.0547v1.2129H77.6611z M77.6611,286.7959v-6.2227h1.0547v6.2227H77.6611z"/>
		<path fill="#FFFFFF" d="M80.3213,286.7959v-6.2227h0.9434v0.873c0.1953-0.3047,0.4551-0.5498,0.7793-0.7354
			s0.6934-0.2783,1.1074-0.2783c0.4609,0,0.8389,0.0957,1.1338,0.2871s0.5029,0.459,0.624,0.8027
			c0.4922-0.7266,1.1328-1.0898,1.9219-1.0898c0.6172,0,1.0918,0.1709,1.4238,0.5127s0.498,0.8682,0.498,1.5791v4.2715h-1.0488
			v-3.9199c0-0.4219-0.0342-0.7256-0.1025-0.9111s-0.1924-0.335-0.3721-0.4482s-0.3906-0.1699-0.6328-0.1699
			c-0.4375,0-0.8008,0.1455-1.0898,0.4365s-0.4336,0.7568-0.4336,1.3975v3.6152h-1.0547v-4.043
			c0-0.4688-0.0859-0.8203-0.2578-1.0547s-0.4531-0.3516-0.8438-0.3516c-0.2969,0-0.5713,0.0781-0.8232,0.2344
			s-0.4346,0.3848-0.5479,0.6855s-0.1699,0.7344-0.1699,1.3008v3.2285H80.3213z"/>
		<path fill="#FFFFFF" d="M94.5771,284.792l1.0898,0.1348c-0.1719,0.6367-0.4902,1.1309-0.9551,1.4824s-1.0586,0.5273-1.7813,0.5273
			c-0.9102,0-1.6318-0.2803-2.165-0.8408s-0.7998-1.3467-0.7998-2.3584c0-1.0469,0.2695-1.8594,0.8086-2.4375
			s1.2383-0.8672,2.0977-0.8672c0.832,0,1.5117,0.2832,2.0391,0.8496s0.791,1.3633,0.791,2.3906
			c0,0.0625-0.002,0.1563-0.0059,0.2813h-4.6406c0.0391,0.6836,0.2324,1.207,0.5801,1.5703s0.7813,0.5449,1.3008,0.5449
			c0.3867,0,0.7168-0.1016,0.9902-0.3047S94.417,285.2373,94.5771,284.792z M91.1143,283.0869h3.4746
			c-0.0469-0.5234-0.1797-0.916-0.3984-1.1777c-0.3359-0.4063-0.7715-0.6094-1.3066-0.6094c-0.4844,0-0.8916,0.1621-1.2217,0.4863
			S91.1494,282.5439,91.1143,283.0869z"/>
		<path fill="#FFFFFF" d="M96.9912,286.7959v-6.2227h0.9492v0.8848c0.457-0.6836,1.1172-1.0254,1.9805-1.0254
			c0.375,0,0.7197,0.0674,1.0342,0.2021s0.5498,0.3115,0.7061,0.5303s0.2656,0.4785,0.3281,0.7793
			c0.0391,0.1953,0.0586,0.5371,0.0586,1.0254v3.8262h-1.0547v-3.7852c0-0.4297-0.041-0.751-0.123-0.9639
			s-0.2275-0.3828-0.4365-0.5098s-0.4541-0.1904-0.7354-0.1904c-0.4492,0-0.8369,0.1426-1.1631,0.4277s-0.4893,0.8262-0.4893,1.623
			v3.3984H96.9912z"/>
		<path fill="#FFFFFF" d="M105.9678,285.8525l0.1523,0.9316c-0.2969,0.0625-0.5625,0.0938-0.7969,0.0938
			c-0.3828,0-0.6797-0.0605-0.8906-0.1816s-0.3594-0.2803-0.4453-0.4775s-0.1289-0.6123-0.1289-1.2451v-3.5801h-0.7734v-0.8203
			h0.7734v-1.541l1.0488-0.6328v2.1738h1.0605v0.8203h-1.0605v3.6387c0,0.3008,0.0186,0.4941,0.0557,0.5801
			s0.0977,0.1543,0.1816,0.2051s0.2041,0.0762,0.3604,0.0762C105.6221,285.8936,105.7764,285.8799,105.9678,285.8525z"/>
		<path fill="#FFFFFF" d="M111.0596,286.0283c-0.3906,0.332-0.7666,0.5664-1.1279,0.7031s-0.749,0.2051-1.1631,0.2051
			c-0.6836,0-1.209-0.167-1.5762-0.501s-0.5508-0.7607-0.5508-1.2803c0-0.3047,0.0693-0.583,0.208-0.835
			s0.3203-0.4541,0.5449-0.6064s0.4775-0.2676,0.7588-0.3457c0.207-0.0547,0.5195-0.1074,0.9375-0.1582
			c0.8516-0.1016,1.4785-0.2227,1.8809-0.3633c0.0039-0.1445,0.0059-0.2363,0.0059-0.2754c0-0.4297-0.0996-0.7324-0.2988-0.9082
			c-0.2695-0.2383-0.6699-0.3574-1.2012-0.3574c-0.4961,0-0.8623,0.0869-1.0986,0.2607s-0.4111,0.4814-0.5244,0.9229l-1.0313-0.1406
			c0.0938-0.4414,0.248-0.7979,0.4629-1.0693s0.5254-0.4805,0.9316-0.627s0.877-0.2197,1.4121-0.2197
			c0.5313,0,0.9629,0.0625,1.2949,0.1875s0.5762,0.2822,0.7324,0.4717s0.2656,0.4287,0.3281,0.7178
			c0.0352,0.1797,0.0527,0.5039,0.0527,0.9727v1.4063c0,0.9805,0.0225,1.6006,0.0674,1.8604s0.1338,0.5088,0.2666,0.7471h-1.1016
			C111.1611,286.5771,111.0908,286.3213,111.0596,286.0283z M110.9717,283.6729c-0.3828,0.1563-0.957,0.2891-1.7227,0.3984
			c-0.4336,0.0625-0.7402,0.1328-0.9199,0.2109s-0.3184,0.1924-0.416,0.3428s-0.1465,0.3174-0.1465,0.501
			c0,0.2813,0.1064,0.5156,0.3193,0.7031s0.5244,0.2813,0.9346,0.2813c0.4063,0,0.7676-0.0889,1.084-0.2666
			s0.5488-0.4209,0.6973-0.7295c0.1133-0.2383,0.1699-0.5898,0.1699-1.0547V283.6729z"/>
		<path fill="#FFFFFF" d="M117.7334,284.5166l1.0371,0.1348c-0.1133,0.7148-0.4033,1.2744-0.8701,1.6787s-1.04,0.6064-1.7197,0.6064
			c-0.8516,0-1.5361-0.2783-2.0537-0.835s-0.7764-1.3545-0.7764-2.3936c0-0.6719,0.1113-1.2598,0.334-1.7637
			s0.5615-0.8818,1.0166-1.1338s0.9502-0.3779,1.4854-0.3779c0.6758,0,1.2285,0.1709,1.6582,0.5127s0.7051,0.8271,0.8262,1.4561
			l-1.0254,0.1582c-0.0977-0.418-0.2705-0.7324-0.5186-0.9434s-0.5479-0.3164-0.8994-0.3164c-0.5313,0-0.9629,0.1904-1.2949,0.5713
			s-0.498,0.9834-0.498,1.8076c0,0.8359,0.1602,1.4434,0.4805,1.8223s0.7383,0.5684,1.2539,0.5684
			c0.4141,0,0.7598-0.127,1.0371-0.3809S117.6592,285.0439,117.7334,284.5166z"/>
		<path fill="#FFFFFF" d="M119.6787,279.4189v-1.2129h1.0547v1.2129H119.6787z M119.6787,286.7959v-6.2227h1.0547v6.2227H119.6787z"
			/>
		<path fill="#FFFFFF" d="M121.9463,283.6846c0-1.1523,0.3203-2.0059,0.9609-2.5605c0.5352-0.4609,1.1875-0.6914,1.957-0.6914
			c0.8555,0,1.5547,0.2803,2.0977,0.8408s0.8145,1.335,0.8145,2.3232c0,0.8008-0.1201,1.4307-0.3604,1.8896
			s-0.5898,0.8154-1.0488,1.0693s-0.96,0.3809-1.5029,0.3809c-0.8711,0-1.5752-0.2793-2.1123-0.8379
			S121.9463,284.7354,121.9463,283.6846z M123.0303,283.6846c0,0.7969,0.1738,1.3936,0.5215,1.79s0.7852,0.5947,1.3125,0.5947
			c0.5234,0,0.959-0.1992,1.3066-0.5977s0.5215-1.0059,0.5215-1.8223c0-0.7695-0.1748-1.3525-0.5244-1.749
			s-0.7842-0.5947-1.3037-0.5947c-0.5273,0-0.9648,0.1973-1.3125,0.5918S123.0303,282.8877,123.0303,283.6846z M124.2783,279.7998
			l0.7793-1.6406h1.3828l-1.2891,1.6406H124.2783z"/>
		<path fill="#FFFFFF" d="M129.0127,286.7959v-6.2227h0.9492v0.8848c0.457-0.6836,1.1172-1.0254,1.9805-1.0254
			c0.375,0,0.7197,0.0674,1.0342,0.2021s0.5498,0.3115,0.7061,0.5303s0.2656,0.4785,0.3281,0.7793
			c0.0391,0.1953,0.0586,0.5371,0.0586,1.0254v3.8262h-1.0547v-3.7852c0-0.4297-0.041-0.751-0.123-0.9639
			s-0.2275-0.3828-0.4365-0.5098s-0.4541-0.1904-0.7354-0.1904c-0.4492,0-0.8369,0.1426-1.1631,0.4277s-0.4893,0.8262-0.4893,1.623
			v3.3984H129.0127z"/>
	</g>
</g>
<g>
	<g>
		<rect x="325" y="255" fill="#75C6F0" width="135" height="61"/>
		<g>
			<path fill="#FFFFFF" d="M351.9902,266.6445l1.542,0.4883c-0.2363,0.8594-0.6299,1.498-1.1787,1.915
				c-0.5498,0.417-1.2471,0.626-2.0918,0.626c-1.0459,0-1.9053-0.3574-2.5781-1.0723c-0.6738-0.7139-1.0098-1.6904-1.0098-2.9297
				c0-1.3105,0.3379-2.3281,1.0146-3.0537c0.6768-0.7246,1.5664-1.0869,2.6689-1.0869c0.9639,0,1.7461,0.2842,2.3477,0.8535
				c0.3574,0.3369,0.627,0.8203,0.8057,1.4502l-1.5732,0.376c-0.0938-0.4082-0.2881-0.7305-0.583-0.9668
				c-0.2959-0.2363-0.6553-0.3545-1.0771-0.3545c-0.584,0-1.0566,0.21-1.4209,0.6279c-0.3633,0.4199-0.5449,1.0977-0.5449,2.0361
				c0,0.9951,0.1787,1.7041,0.5371,2.127s0.8232,0.6338,1.3965,0.6338c0.4229,0,0.7861-0.1348,1.0908-0.4023
				C351.6396,267.6426,351.8584,267.2207,351.9902,266.6445z"/>
			<path fill="#FFFFFF" d="M354.5742,265.6504c0-0.8018,0.1201-1.4756,0.3594-2.0195c0.1797-0.4014,0.4238-0.7607,0.7344-1.0801
				c0.3086-0.3184,0.6484-0.5547,1.0176-0.709c0.4902-0.207,1.0557-0.3105,1.6973-0.3105c1.1602,0,2.0879,0.3594,2.7852,1.0791
				c0.6953,0.7197,1.0439,1.7207,1.0439,3.0029c0,1.2705-0.3457,2.2656-1.0361,2.9834c-0.6914,0.7178-1.6152,1.0771-2.7715,1.0771
				c-1.1719,0-2.1025-0.3574-2.793-1.0723C354.9199,267.8877,354.5742,266.9033,354.5742,265.6504z M356.2129,265.5967
				c0,0.8916,0.2051,1.5674,0.6172,2.0273s0.9346,0.6904,1.5684,0.6904s1.1543-0.2285,1.5605-0.6846
				c0.4063-0.457,0.6094-1.1416,0.6094-2.0547c0-0.9023-0.1973-1.5752-0.5938-2.0195c-0.3955-0.4443-0.9209-0.666-1.5762-0.666
				s-1.1836,0.2246-1.584,0.6738C356.4131,264.0127,356.2129,264.6904,356.2129,265.5967z"/>
			<path fill="#FFFFFF" d="M363.4688,269.5391v-7.874h1.5469l3.2227,5.2588v-5.2588h1.4766v7.874h-1.5947l-3.1748-5.1348v5.1348
				H363.4688z"/>
			<path fill="#FFFFFF" d="M370.9941,266.9766l1.5469-0.1504c0.0928,0.5195,0.2813,0.9014,0.5664,1.1445s0.668,0.3652,1.1523,0.3652
				c0.5117,0,0.8975-0.1084,1.1563-0.3252c0.2598-0.2168,0.3906-0.4697,0.3906-0.7598c0-0.1865-0.0547-0.3447-0.1641-0.4756
				s-0.3008-0.2441-0.5723-0.3408c-0.1855-0.0645-0.6104-0.1787-1.2734-0.3438c-0.8516-0.2109-1.4492-0.4707-1.793-0.7783
				c-0.4844-0.4336-0.7256-0.9619-0.7256-1.585c0-0.4014,0.1143-0.7764,0.3408-1.125c0.2275-0.3496,0.5547-0.6152,0.9824-0.7979
				c0.4287-0.1826,0.9453-0.2734,1.5508-0.2734c0.9883,0,1.7324,0.2158,2.2305,0.6494c0.5,0.4336,0.7627,1.0117,0.7871,1.7354
				l-1.5898,0.0693c-0.0674-0.4043-0.2129-0.6953-0.4375-0.873c-0.2236-0.1768-0.5586-0.2656-1.0068-0.2656
				c-0.4619,0-0.8232,0.0947-1.085,0.2842c-0.168,0.1221-0.252,0.2852-0.252,0.4893c0,0.1865,0.0781,0.3457,0.2363,0.4775
				c0.2002,0.1689,0.6875,0.3438,1.4609,0.5273c0.7734,0.1816,1.3457,0.3711,1.7148,0.5664
				c0.3711,0.1953,0.6621,0.4619,0.8711,0.7998c0.209,0.3389,0.3145,0.7568,0.3145,1.2549c0,0.4512-0.126,0.873-0.377,1.2676
				c-0.25,0.3936-0.6045,0.6865-1.0625,0.8779c-0.459,0.1914-1.0293,0.2871-1.7139,0.2871c-0.9951,0-1.7598-0.2305-2.2939-0.6904
				C371.416,268.5283,371.0977,267.8574,370.9941,266.9766z"/>
			<path fill="#FFFFFF" d="M380.5059,269.5391v-6.542h-2.3359v-1.332h6.2568v1.332h-2.3311v6.542H380.5059z"/>
			<path fill="#FFFFFF" d="M385.458,269.5391v-7.874h3.3467c0.8408,0,1.4521,0.0703,1.834,0.2119
				c0.3809,0.1416,0.6865,0.3936,0.916,0.7549c0.2285,0.3613,0.3438,0.7754,0.3438,1.2412c0,0.5898-0.1738,1.0781-0.5215,1.4629
				s-0.8672,0.6279-1.5576,0.7285c0.3438,0.2002,0.6279,0.4199,0.8516,0.6602s0.5254,0.666,0.9053,1.2783l0.9609,1.5361h-1.9014
				l-1.1494-1.7129c-0.4082-0.6133-0.6875-0.999-0.8379-1.1582s-0.3096-0.2686-0.4785-0.3271
				c-0.168-0.0596-0.4346-0.0889-0.7998-0.0889h-0.3223v3.2871H385.458z M387.0479,264.9951h1.1768
				c0.7617,0,1.2383-0.0322,1.4277-0.0967c0.1904-0.0645,0.3389-0.1758,0.4463-0.333s0.1611-0.3545,0.1611-0.5908
				c0-0.2646-0.0703-0.4785-0.2119-0.6416s-0.3408-0.2666-0.5986-0.3096c-0.1289-0.0176-0.5156-0.0264-1.1602-0.0264h-1.2412
				V264.9951z"/>
			<path fill="#FFFFFF" d="M393.3857,261.665h1.5898v4.2646c0,0.6768,0.0195,1.1152,0.0596,1.3164
				c0.0674,0.3223,0.2295,0.5801,0.4863,0.7754c0.2559,0.1953,0.6055,0.293,1.0488,0.293c0.4512,0,0.792-0.0918,1.0215-0.2764
				c0.2285-0.1846,0.3672-0.4111,0.4131-0.6797s0.0693-0.7139,0.0693-1.3369v-4.3564h1.5898v4.1357
				c0,0.9453-0.043,1.6133-0.1289,2.0039c-0.0859,0.3896-0.2441,0.7188-0.4746,0.9883c-0.2305,0.2676-0.54,0.4824-0.9268,0.6416
				s-0.8916,0.2393-1.5146,0.2393c-0.752,0-1.3223-0.0869-1.7109-0.2607s-0.6953-0.3994-0.9209-0.6768s-0.374-0.5684-0.4463-0.873
				c-0.1035-0.4512-0.1553-1.1172-0.1553-1.998V261.665z"/>
			<path fill="#FFFFFF" d="M406.3789,266.6445l1.541,0.4883c-0.2363,0.8594-0.6289,1.498-1.1787,1.915s-1.2471,0.626-2.0928,0.626
				c-1.0449,0-1.9043-0.3574-2.5781-1.0723c-0.6729-0.7139-1.0098-1.6904-1.0098-2.9297c0-1.3105,0.3389-2.3281,1.0156-3.0537
				c0.6768-0.7246,1.5664-1.0869,2.6699-1.0869c0.9629,0,1.7451,0.2842,2.3467,0.8535c0.3584,0.3369,0.626,0.8203,0.8057,1.4502
				l-1.5742,0.376c-0.0928-0.4082-0.2871-0.7305-0.582-0.9668c-0.2959-0.2363-0.6543-0.3545-1.0771-0.3545
				c-0.583,0-1.0576,0.21-1.4209,0.6279c-0.3633,0.4199-0.5449,1.0977-0.5449,2.0361c0,0.9951,0.1797,1.7041,0.5371,2.127
				s0.8242,0.6338,1.3965,0.6338c0.4219,0,0.7861-0.1348,1.0898-0.4023C406.0273,267.6426,406.2461,267.2207,406.3789,266.6445z"/>
			<path fill="#FFFFFF" d="M414.3223,266.6445l1.541,0.4883c-0.2363,0.8594-0.6289,1.498-1.1777,1.915
				c-0.5508,0.417-1.248,0.626-2.0928,0.626c-1.0459,0-1.9053-0.3574-2.5781-1.0723c-0.6729-0.7139-1.0098-1.6904-1.0098-2.9297
				c0-1.3105,0.3389-2.3281,1.0146-3.0537c0.6777-0.7246,1.5664-1.0869,2.6699-1.0869c0.9629,0,1.7461,0.2842,2.3477,0.8535
				c0.3574,0.3369,0.626,0.8203,0.8047,1.4502l-1.5732,0.376c-0.0928-0.4082-0.2881-0.7305-0.583-0.9668
				s-0.6543-0.3545-1.0762-0.3545c-0.584,0-1.0576,0.21-1.4219,0.6279c-0.3633,0.4199-0.5449,1.0977-0.5449,2.0361
				c0,0.9951,0.1797,1.7041,0.5371,2.127c0.3584,0.4229,0.8242,0.6338,1.3965,0.6338c0.4229,0,0.7871-0.1348,1.0908-0.4023
				C413.9707,267.6426,414.1895,267.2207,414.3223,266.6445z"/>
			<path fill="#FFFFFF" d="M417.1797,269.5391v-7.874h1.5898v7.874H417.1797z"/>
			<path fill="#FFFFFF" d="M419.9619,265.6504c0-0.8018,0.1201-1.4756,0.3604-2.0195c0.1787-0.4014,0.4229-0.7607,0.7324-1.0801
				c0.3105-0.3184,0.6494-0.5547,1.0176-0.709c0.4912-0.207,1.0566-0.3105,1.6973-0.3105c1.1602,0,2.0889,0.3594,2.7852,1.0791
				c0.6973,0.7197,1.0449,1.7207,1.0449,3.0029c0,1.2705-0.3457,2.2656-1.0371,2.9834c-0.6904,0.7178-1.6143,1.0771-2.7715,1.0771
				c-1.1699,0-2.1016-0.3574-2.793-1.0723C420.3076,267.8877,419.9619,266.9033,419.9619,265.6504z M421.5996,265.5967
				c0,0.8916,0.207,1.5674,0.6182,2.0273s0.9346,0.6904,1.5684,0.6904s1.1533-0.2285,1.5596-0.6846
				c0.4072-0.457,0.6104-1.1416,0.6104-2.0547c0-0.9023-0.1982-1.5752-0.5928-2.0195c-0.3965-0.4443-0.9219-0.666-1.5771-0.666
				s-1.1836,0.2246-1.585,0.6738C421.8008,264.0127,421.5996,264.6904,421.5996,265.5967z M422.8027,261.2139l0.7422-1.6064h1.6914
				l-1.4766,1.6064H422.8027z"/>
			<path fill="#FFFFFF" d="M428.8564,269.5391v-7.874h1.5469l3.2227,5.2588v-5.2588h1.4775v7.874h-1.5957l-3.1738-5.1348v5.1348
				H428.8564z"/>
		</g>
	</g>
	<rect x="329" y="276" fill="#8CCEEA" width="125" height="33"/>
	<g>
		<path fill="#FFFFFF" d="M378.5791,284.7842l1.1367,0.2871c-0.2383,0.9336-0.667,1.6455-1.2861,2.1357s-1.376,0.7354-2.2705,0.7354
			c-0.9258,0-1.6787-0.1885-2.2588-0.5654s-1.0215-0.9229-1.3242-1.6377s-0.4541-1.4824-0.4541-2.3027
			c0-0.8945,0.1709-1.6748,0.5127-2.3408s0.8281-1.1719,1.459-1.5176s1.3252-0.5186,2.083-0.5186
			c0.8594,0,1.582,0.2188,2.168,0.6563s0.9941,1.0527,1.2246,1.8457l-1.1191,0.2637c-0.1992-0.625-0.4883-1.0801-0.8672-1.3652
			s-0.8555-0.4277-1.4297-0.4277c-0.6602,0-1.2119,0.1582-1.6553,0.4746s-0.7549,0.7412-0.9346,1.2744s-0.2695,1.083-0.2695,1.6494
			c0,0.7305,0.1064,1.3682,0.3193,1.9131s0.5439,0.9521,0.9932,1.2217s0.9355,0.4043,1.459,0.4043
			c0.6367,0,1.1758-0.1836,1.6172-0.5508S378.4229,285.5068,378.5791,284.7842z"/>
		<path fill="#FFFFFF" d="M380.5889,284.6846c0-1.1523,0.3203-2.0059,0.9609-2.5605c0.5352-0.4609,1.1875-0.6914,1.957-0.6914
			c0.8555,0,1.5547,0.2803,2.0977,0.8408s0.8145,1.335,0.8145,2.3232c0,0.8008-0.1201,1.4307-0.3604,1.8896
			s-0.5898,0.8154-1.0488,1.0693s-0.96,0.3809-1.5029,0.3809c-0.8711,0-1.5752-0.2793-2.1123-0.8379
			S380.5889,285.7354,380.5889,284.6846z M381.6729,284.6846c0,0.7969,0.1738,1.3936,0.5215,1.79s0.7852,0.5947,1.3125,0.5947
			c0.5234,0,0.959-0.1992,1.3066-0.5977s0.5215-1.0059,0.5215-1.8223c0-0.7695-0.1748-1.3525-0.5244-1.749
			s-0.7842-0.5947-1.3037-0.5947c-0.5273,0-0.9648,0.1973-1.3125,0.5918S381.6729,283.8877,381.6729,284.6846z M382.9209,280.7998
			l0.7793-1.6406h1.3828l-1.2891,1.6406H382.9209z"/>
		<path fill="#FFFFFF" d="M391.6924,287.7959v-0.7852c-0.3945,0.6172-0.9746,0.9258-1.7402,0.9258
			c-0.4961,0-0.9521-0.1367-1.3682-0.4102s-0.7383-0.6553-0.9668-1.1455s-0.3428-1.0537-0.3428-1.6904
			c0-0.6211,0.1035-1.1846,0.3105-1.6904s0.5176-0.8936,0.9316-1.1631s0.877-0.4043,1.3887-0.4043
			c0.375,0,0.709,0.0791,1.002,0.2373s0.5313,0.3643,0.7148,0.6182v-3.082h1.0488v8.5898H391.6924z M388.3584,284.6904
			c0,0.7969,0.168,1.3926,0.5039,1.7871s0.7324,0.5918,1.1895,0.5918c0.4609,0,0.8525-0.1885,1.1748-0.5654
			s0.4834-0.9521,0.4834-1.7256c0-0.8516-0.1641-1.4766-0.4922-1.875s-0.7324-0.5977-1.2129-0.5977
			c-0.4688,0-0.8604,0.1914-1.1748,0.5742S388.3584,283.8662,388.3584,284.6904z"/>
		<path fill="#FFFFFF" d="M394.335,280.4189v-1.2129h1.0547v1.2129H394.335z M394.335,287.7959v-6.2227h1.0547v6.2227H394.335z"/>
		<path fill="#FFFFFF" d="M396.8018,288.3115l1.0254,0.1523c0.043,0.3164,0.1621,0.5469,0.3574,0.6914
			c0.2617,0.1953,0.6191,0.293,1.0723,0.293c0.4883,0,0.8652-0.0977,1.1309-0.293s0.4453-0.4688,0.5391-0.8203
			c0.0547-0.2148,0.0801-0.666,0.0762-1.3535c-0.4609,0.543-1.0352,0.8145-1.7227,0.8145c-0.8555,0-1.5176-0.3086-1.9863-0.9258
			s-0.7031-1.3574-0.7031-2.2207c0-0.5938,0.1074-1.1416,0.3223-1.6436s0.5264-0.8896,0.9346-1.1631s0.8877-0.4102,1.4385-0.4102
			c0.7344,0,1.3398,0.2969,1.8164,0.8906v-0.75h0.9727v5.3789c0,0.9688-0.0986,1.6553-0.2959,2.0596s-0.5098,0.7236-0.9375,0.958
			s-0.9541,0.3516-1.5791,0.3516c-0.7422,0-1.3418-0.167-1.7988-0.501S396.7861,288.9834,396.8018,288.3115z M397.6748,284.5732
			c0,0.8164,0.1621,1.4121,0.4863,1.7871s0.7305,0.5625,1.2188,0.5625c0.4844,0,0.8906-0.1865,1.2188-0.5596
			s0.4922-0.958,0.4922-1.7549c0-0.7617-0.1689-1.3359-0.5068-1.7227s-0.7451-0.5801-1.2217-0.5801
			c-0.4688,0-0.8672,0.1904-1.1953,0.5713S397.6748,283.8232,397.6748,284.5732z"/>
		<path fill="#FFFFFF" d="M403.2764,284.6846c0-1.1523,0.3203-2.0059,0.9609-2.5605c0.5352-0.4609,1.1875-0.6914,1.957-0.6914
			c0.8555,0,1.5547,0.2803,2.0977,0.8408s0.8145,1.335,0.8145,2.3232c0,0.8008-0.1201,1.4307-0.3604,1.8896
			s-0.5898,0.8154-1.0488,1.0693s-0.96,0.3809-1.5029,0.3809c-0.8711,0-1.5752-0.2793-2.1123-0.8379
			S403.2764,285.7354,403.2764,284.6846z M404.3604,284.6846c0,0.7969,0.1738,1.3936,0.5215,1.79s0.7852,0.5947,1.3125,0.5947
			c0.5234,0,0.959-0.1992,1.3066-0.5977s0.5215-1.0059,0.5215-1.8223c0-0.7695-0.1748-1.3525-0.5244-1.749
			s-0.7842-0.5947-1.3037-0.5947c-0.5273,0-0.9648,0.1973-1.3125,0.5918S404.3604,283.8877,404.3604,284.6846z"/>
		<path fill="#FFFFFF" d="M372.1162,301.7959v-8.5898h3.2402c0.5703,0,1.0059,0.0273,1.3066,0.082
			c0.4219,0.0703,0.7754,0.2041,1.0605,0.4014s0.5146,0.4736,0.6885,0.8291s0.2607,0.7461,0.2607,1.1719
			c0,0.7305-0.2324,1.3486-0.6973,1.8545s-1.3047,0.7588-2.5195,0.7588h-2.2031v3.4922H372.1162z M373.2529,297.29h2.2207
			c0.7344,0,1.2559-0.1367,1.5645-0.4102s0.4629-0.6582,0.4629-1.1543c0-0.3594-0.0908-0.667-0.2725-0.9229
			s-0.4209-0.4248-0.7178-0.5068c-0.1914-0.0508-0.5449-0.0762-1.0605-0.0762h-2.1973V297.29z"/>
		<path fill="#FFFFFF" d="M379.9736,301.7959v-6.2227h0.9492v0.9434c0.2422-0.4414,0.4658-0.7324,0.6709-0.873
			s0.4307-0.2109,0.6768-0.2109c0.3555,0,0.7168,0.1133,1.084,0.3398l-0.3633,0.9785c-0.2578-0.1523-0.5156-0.2285-0.7734-0.2285
			c-0.2305,0-0.4375,0.0693-0.6211,0.208s-0.3145,0.3311-0.3926,0.5771c-0.1172,0.375-0.1758,0.7852-0.1758,1.2305v3.2578H379.9736z
			"/>
		<path fill="#FFFFFF" d="M388.0596,301.7959v-0.9141c-0.4844,0.7031-1.1426,1.0547-1.9746,1.0547
			c-0.3672,0-0.71-0.0703-1.0283-0.2109s-0.5547-0.3174-0.709-0.5303s-0.2627-0.4736-0.3252-0.7822
			c-0.043-0.207-0.0645-0.5352-0.0645-0.9844v-3.8555h1.0547v3.4512c0,0.5508,0.0215,0.9219,0.0645,1.1133
			c0.0664,0.2773,0.207,0.4951,0.4219,0.6533s0.4805,0.2373,0.7969,0.2373s0.6133-0.0811,0.8906-0.2432s0.4736-0.3828,0.5889-0.6621
			s0.1729-0.6846,0.1729-1.2158v-3.334h1.0547v6.2227H388.0596z"/>
		<path fill="#FFFFFF" d="M394.915,299.792l1.0898,0.1348c-0.1719,0.6367-0.4902,1.1309-0.9551,1.4824s-1.0586,0.5273-1.7813,0.5273
			c-0.9102,0-1.6318-0.2803-2.165-0.8408s-0.7998-1.3467-0.7998-2.3584c0-1.0469,0.2695-1.8594,0.8086-2.4375
			s1.2383-0.8672,2.0977-0.8672c0.832,0,1.5117,0.2832,2.0391,0.8496s0.791,1.3633,0.791,2.3906
			c0,0.0625-0.002,0.1563-0.0059,0.2813h-4.6406c0.0391,0.6836,0.2324,1.207,0.5801,1.5703s0.7813,0.5449,1.3008,0.5449
			c0.3867,0,0.7168-0.1016,0.9902-0.3047S394.7549,300.2373,394.915,299.792z M391.4521,298.0869h3.4746
			c-0.0469-0.5234-0.1797-0.916-0.3984-1.1777c-0.3359-0.4063-0.7715-0.6094-1.3066-0.6094c-0.4844,0-0.8916,0.1621-1.2217,0.4863
			S391.4873,297.5439,391.4521,298.0869z"/>
		<path fill="#FFFFFF" d="M398.3018,301.7959h-0.9785v-8.5898h1.0547v3.0645c0.4453-0.5586,1.0137-0.8379,1.7051-0.8379
			c0.3828,0,0.7451,0.0771,1.0869,0.2314s0.623,0.3711,0.8438,0.6504s0.3936,0.6162,0.5186,1.0107s0.1875,0.8164,0.1875,1.2656
			c0,1.0664-0.2637,1.8906-0.791,2.4727s-1.1602,0.873-1.8984,0.873c-0.7344,0-1.3105-0.3066-1.7285-0.9199V301.7959z
			 M398.29,298.6377c0,0.7461,0.1016,1.2852,0.3047,1.6172c0.332,0.543,0.7813,0.8145,1.3477,0.8145
			c0.4609,0,0.8594-0.2002,1.1953-0.6006s0.5039-0.9971,0.5039-1.79c0-0.8125-0.1611-1.4121-0.4834-1.7988
			s-0.7119-0.5801-1.1689-0.5801c-0.4609,0-0.8594,0.2002-1.1953,0.6006S398.29,297.8799,398.29,298.6377z"/>
		<path fill="#FFFFFF" d="M408.0635,301.0283c-0.3906,0.332-0.7666,0.5664-1.1279,0.7031s-0.749,0.2051-1.1631,0.2051
			c-0.6836,0-1.209-0.167-1.5762-0.501s-0.5508-0.7607-0.5508-1.2803c0-0.3047,0.0693-0.583,0.208-0.835
			s0.3203-0.4541,0.5449-0.6064s0.4775-0.2676,0.7588-0.3457c0.207-0.0547,0.5195-0.1074,0.9375-0.1582
			c0.8516-0.1016,1.4785-0.2227,1.8809-0.3633c0.0039-0.1445,0.0059-0.2363,0.0059-0.2754c0-0.4297-0.0996-0.7324-0.2988-0.9082
			c-0.2695-0.2383-0.6699-0.3574-1.2012-0.3574c-0.4961,0-0.8623,0.0869-1.0986,0.2607s-0.4111,0.4814-0.5244,0.9229l-1.0313-0.1406
			c0.0938-0.4414,0.248-0.7979,0.4629-1.0693s0.5254-0.4805,0.9316-0.627s0.877-0.2197,1.4121-0.2197
			c0.5313,0,0.9629,0.0625,1.2949,0.1875s0.5762,0.2822,0.7324,0.4717s0.2656,0.4287,0.3281,0.7178
			c0.0352,0.1797,0.0527,0.5039,0.0527,0.9727v1.4063c0,0.9805,0.0225,1.6006,0.0674,1.8604s0.1338,0.5088,0.2666,0.7471h-1.1016
			C408.165,301.5771,408.0947,301.3213,408.0635,301.0283z M407.9756,298.6729c-0.3828,0.1563-0.957,0.2891-1.7227,0.3984
			c-0.4336,0.0625-0.7402,0.1328-0.9199,0.2109s-0.3184,0.1924-0.416,0.3428s-0.1465,0.3174-0.1465,0.501
			c0,0.2813,0.1064,0.5156,0.3193,0.7031s0.5244,0.2813,0.9346,0.2813c0.4063,0,0.7676-0.0889,1.084-0.2666
			s0.5488-0.4209,0.6973-0.7295c0.1133-0.2383,0.1699-0.5898,0.1699-1.0547V298.6729z"/>
	</g>
</g>
<g>
	<path fill="#FFFFFF" d="M236.5454,186.4395v-7.874h1.5898v7.874H236.5454z"/>
	<path fill="#FFFFFF" d="M239.666,186.4395v-7.874h1.5469l3.2227,5.2588v-5.2588h1.4771v7.874h-1.5952l-3.1743-5.1348v5.1348
		H239.666z"/>
	<path fill="#FFFFFF" d="M247.5454,186.4395v-7.874h1.5898v7.874H247.5454z"/>
	<path fill="#FFFFFF" d="M255.688,183.5449l1.5415,0.4883c-0.2363,0.8594-0.6294,1.498-1.1787,1.915
		c-0.5498,0.417-1.2471,0.626-2.0923,0.626c-1.0454,0-1.9048-0.3574-2.5781-1.0723c-0.6733-0.7139-1.0098-1.6904-1.0098-2.9297
		c0-1.3105,0.3384-2.3281,1.0151-3.0537c0.6768-0.7246,1.5664-1.0869,2.6694-1.0869c0.9634,0,1.7456,0.2842,2.3472,0.8535
		c0.3579,0.3369,0.6265,0.8203,0.8057,1.4502l-1.5737,0.376c-0.0933-0.4082-0.2876-0.7305-0.5825-0.9668
		c-0.2959-0.2363-0.6548-0.3545-1.0771-0.3545c-0.5835,0-1.0571,0.21-1.4209,0.6279c-0.3633,0.4199-0.5449,1.0977-0.5449,2.0361
		c0,0.9951,0.1792,1.7041,0.5371,2.127s0.8237,0.6338,1.3965,0.6338c0.4224,0,0.7861-0.1348,1.0903-0.4023
		C255.3369,184.543,255.5557,184.1211,255.688,183.5449z"/>
	<path fill="#FFFFFF" d="M258.5454,186.4395v-7.874h1.5898v7.874H258.5454z"/>
	<path fill="#FFFFFF" d="M261.3276,182.5508c0-0.8018,0.1201-1.4756,0.3599-2.0195c0.1792-0.4014,0.4233-0.7607,0.7334-1.0801
		c0.3096-0.3184,0.6489-0.5547,1.0176-0.709c0.4907-0.207,1.0562-0.3105,1.6973-0.3105c1.1602,0,2.0884,0.3594,2.7852,1.0791
		c0.6963,0.7197,1.0444,1.7207,1.0444,3.0029c0,1.2705-0.3457,2.2656-1.0366,2.9834s-1.6147,1.0771-2.7715,1.0771
		c-1.1709,0-2.1021-0.3574-2.793-1.0723C261.6733,184.7881,261.3276,183.8037,261.3276,182.5508z M262.9658,182.4971
		c0,0.8916,0.2061,1.5674,0.6177,2.0273s0.9346,0.6904,1.5684,0.6904s1.1538-0.2285,1.5601-0.6846
		c0.4067-0.457,0.6099-1.1416,0.6099-2.0547c0-0.9023-0.1978-1.5752-0.5933-2.0195c-0.396-0.4443-0.9214-0.666-1.5767-0.666
		s-1.1836,0.2246-1.5845,0.6738S262.9658,181.5908,262.9658,182.4971z"/>
</g>
<g>
</g>
<g>
</g>
<g>
</g>
<g>
</g>
<g>
</g>
<g>
</g>
<g>
</g>
<g>
</g>
<g>
</g>
<g>
</g>
<g>
</g>
<g>
</g>
<g>
</g>
<g>
</g>
<g>
</g>
</svg>
