<?xml version="1.0" encoding="utf-8"?>
<!-- Generator: Adobe Illustrator 19.0.0, SVG Export Plug-In . SVG Version: 6.00 Build 0)  -->
<svg version="1.1" id="Capa_1" xmlns="http://www.w3.org/2000/svg" xmlns:xlink="http://www.w3.org/1999/xlink" x="0px" y="0px"
	 viewBox="0 0 362.7 281.7" style="enable-background:new 0 0 362.7 281.7;" xml:space="preserve">
<style type="text/css">
	.st0{fill-rule:evenodd;clip-rule:evenodd;fill:#4C6173;}
	.st1{fill-rule:evenodd;clip-rule:evenodd;fill:#27557D;}
	.st2{fill-rule:evenodd;clip-rule:evenodd;fill:#688096;}
	.st3{fill-rule:evenodd;clip-rule:evenodd;fill:#FFFFFF;}
	.st4{fill-rule:evenodd;clip-rule:evenodd;fill:#D1A886;}
	.st5{fill-rule:evenodd;clip-rule:evenodd;fill:#FCB024;}
	.st6{fill-rule:evenodd;clip-rule:evenodd;fill:#CCCCCC;}
	.st7{fill-rule:evenodd;clip-rule:evenodd;fill:#3F73A1;}
	.st8{fill-rule:evenodd;clip-rule:evenodd;fill:#F2CAA9;}
	.st9{fill-rule:evenodd;clip-rule:evenodd;fill:#B55C46;}
	.st10{fill-rule:evenodd;clip-rule:evenodd;fill:#93B9DB;}
	.st11{fill-rule:evenodd;clip-rule:evenodd;fill:#BA9D3F;}
	.st12{fill-rule:evenodd;clip-rule:evenodd;fill:#5A8FBD;}
	.st13{fill-rule:evenodd;clip-rule:evenodd;fill:#FC8D25;}
	.st14{fill-rule:evenodd;clip-rule:evenodd;fill:#6F7478;}
	.st15{fill-rule:evenodd;clip-rule:evenodd;fill:#969DA3;}
	.st16{fill-rule:evenodd;clip-rule:evenodd;fill:#6B451D;}
	.st17{fill-rule:evenodd;clip-rule:evenodd;fill:#3B1911;}
	.st18{fill-rule:evenodd;clip-rule:evenodd;fill:#6E4D28;}
	.st19{fill-rule:evenodd;clip-rule:evenodd;fill:#57291E;}
	.st20{fill-rule:evenodd;clip-rule:evenodd;fill:#FFB269;}
</style>
<g id="XMLID_6890_">
	<g id="XMLID_8056_">
		<path id="XMLID_8092_" class="st0" d="M192.9,68.7c9.1-2.2,21.8-7.3,23.4,0c2,8.8,4.4,29.5,6.9,49.7c0.5,4.3-5,6.6-6.4,7
			c-6.2,1.9-11.5,2.5-18.4,3.4L192.9,68.7C192.8,68.8,192.9,68.7,192.9,68.7z"/>
		<path id="XMLID_8091_" class="st0" d="M165.2,68.7c-11.5-2.7-20.6-9.1-22.6-0.1c-2.1,9.4-4.4,30.2-6.8,49.5
			c-0.6,5,4.5,7.1,6.2,7.5c6,1.5,11.1,2.3,17.7,3.2L165.2,68.7C165.3,68.8,165.2,68.7,165.2,68.7z"/>
		<path id="XMLID_8090_" class="st1" d="M156.3,127.6l-0.3,0.7c14.2,1.8,31.6,1.8,45.8,0.1c-0.1-0.3-0.3-0.6-0.4-0.8H156.3z"/>
		<path id="XMLID_8089_" class="st2" d="M150.6,127.5c3.1-9.1-4-51.5-8-59.3c2.3-8,23.2-9.8,28.8-14.3c2.6,2.3,4.5,2.9,7.5,2.9
			c3,0,5-0.6,7.6-2.9c4.1,3.4,25.8,6,29.5,14c-4.2,8.9-11.9,51.5-8.6,59.6C193.4,130.2,165.1,130.4,150.6,127.5z"/>
		<polygon id="XMLID_8088_" class="st3" points="164.8,57.8 164.1,75.6 179,113.5 193.7,75.6 192.8,57.3 186.6,53.9 171.4,53.9 		
			"/>
		<rect id="XMLID_8087_" x="171.4" y="47.7" class="st4" width="14.9" height="15.4"/>
		<path id="XMLID_8086_" class="st5" d="M181.4,72.7l1-2.2l-3.5-8.5l-3.5,8.4l1.1,2.3C178.2,72.7,179.8,72.7,181.4,72.7z"/>
		<polygon id="XMLID_8085_" class="st6" points="171.4,53.9 178.9,62 173.6,76.3 166.9,56.9 		"/>
		<polygon id="XMLID_8084_" class="st1" points="167,56.5 178.9,113.7 159.3,82.3 161.9,76.8 156.2,72.4 163.9,58.2 		"/>
		<polygon id="XMLID_8083_" class="st6" points="186.6,53.9 178.9,62 184.3,76.3 191,56.8 		"/>
		<polygon id="XMLID_8082_" class="st5" points="176.6,78 181.4,78 183.9,102.2 178.9,113.7 174.1,102.2 		"/>
		<polygon id="XMLID_8081_" class="st3" points="171.4,53.9 178.9,62 173.5,72.8 166.9,56.9 		"/>
		<polygon id="XMLID_8080_" class="st7" points="167,56.5 178.9,113.7 161.2,79.8 164.1,75.6 158.4,71.2 163.9,58.2 		"/>
		<polygon id="XMLID_8079_" class="st1" points="191.2,56.4 178.9,113.7 198.6,82.3 196,76.8 201.6,72.4 195.6,58.4 		"/>
		<polygon id="XMLID_8078_" class="st7" points="191.2,56.4 178.9,113.7 196.7,79.8 193.7,75.6 199.4,71.2 195.6,58.4 		"/>
		<polygon id="XMLID_8077_" class="st3" points="186.6,53.9 178.9,62 184.4,72.8 191,56.8 		"/>
		<path id="XMLID_8076_" class="st5" d="M176.6,72.3h4.8c1.1,2.2,1,4.2,0,6.1h-4.8C175.6,76.5,175.5,74.5,176.6,72.3z"/>
		<path id="XMLID_8075_" class="st1" d="M178.3,129.7c0.1-4.2,0.4-9.2,1-16.7c0.5,7.5,0.9,12.5,1,16.7
			C179.6,129.7,178.9,129.7,178.3,129.7z"/>
		<polygon id="XMLID_8074_" class="st3" points="162.5,58.2 164.4,75.3 179.2,113 193.9,75.3 195.7,58.2 188.6,53.7 169.6,53.7 		
			"/>
		<rect id="XMLID_8073_" x="169.6" y="47.6" class="st4" width="18.8" height="15.4"/>
		<path id="XMLID_8072_" class="st8" d="M179.1,56.6c7.4,0,14.3-8.5,17.9-18.9c0.2,0.2,0.5,0.4,0.7,0.4c1.5,0.2,3.2-2.5,3.8-6.2
			c0.6-3.7-0.1-6.8-1.6-7.1c-0.1,0-0.2,0-0.3,0C200.4,11.9,195,0,179.1,0c-15.9,0-21.3,11.9-20.5,24.8c-0.2,0-0.3-0.1-0.5,0
			c-1.5,0.2-2.2,3.4-1.6,7.1c0.6,3.7,2.3,6.4,3.8,6.2c0.3-0.1,0.6-0.2,0.8-0.5C164.8,48,171.7,56.6,179.1,56.6z"/>
		<path id="XMLID_8071_" class="st9" d="M199.7,24.8C200.4,11.9,195,0,179.1,0c-15.9,0-21.3,11.9-20.5,24.8c1.3,0.3,2.6,2.7,3.2,5.7
			c1,0.7,1.8,0.3,1.8-2.3c0-7.7,0.9-14.5,6-16.1c4.8-1.5,5.9,1.8,9.5,1.8c3.7,0,4.8-3.2,9.5-1.8c4.9,1.4,6,8.4,6,16.1
			c0,2.5,0.7,3,1.7,2.4C196.9,27.4,198.3,25,199.7,24.8z"/>
		<path id="XMLID_8070_" class="st10" d="M181.6,72.4l1-2.2l-3.5-8.5l-3.4,8.3l1.1,2.3C178.4,72.4,180,72.4,181.6,72.4z"/>
		<polygon id="XMLID_8069_" class="st6" points="169.6,53.7 179.1,61.8 173.8,76 165.2,56.6 		"/>
		<polygon id="XMLID_8068_" class="st0" points="165.2,56.6 179.1,113.2 159.6,82 162.1,76.5 156.5,72.1 162.5,58.2 		"/>
		<polygon id="XMLID_8067_" class="st6" points="188.6,53.7 179.1,61.8 184.5,76 193.1,56.6 		"/>
		<polygon id="XMLID_8066_" class="st10" points="176.8,77.7 181.6,77.7 184.1,101.8 179.1,113.2 174.4,101.8 		"/>
		<path id="XMLID_8065_" class="st9" d="M196.2,12.1c-2.1,4.1-19,14-25.9,14.6c3.1-2.9,10.3-11.3,9.4-11.8c-1-0.5-12,8.1-17.8,10
			C160.7,0.2,178.6,0.9,196.2,12.1z"/>
		<path id="XMLID_8064_" class="st9" d="M186.6,8c0.9,4.1,6.8,16.3,9.8,16.8C199.3,25.4,199.5-2.7,186.6,8z"/>
		<polygon id="XMLID_8063_" class="st3" points="169.6,53.7 179.1,61.8 173.7,72.5 165.2,56.6 		"/>
		<polygon id="XMLID_8062_" class="st2" points="165.2,56.6 179.1,113.2 161.5,79.5 164.4,75.3 158.7,70.9 162.5,58.2 		"/>
		<polygon id="XMLID_8061_" class="st0" points="193.1,56.6 179.1,113.2 198.7,82 196.1,76.5 201.7,72.1 195.7,58.2 		"/>
		<polygon id="XMLID_8060_" class="st2" points="193.1,56.6 179.1,113.2 196.8,79.5 193.9,75.3 199.5,70.9 195.7,58.2 		"/>
		<polygon id="XMLID_8059_" class="st3" points="188.6,53.7 179.1,61.8 184.6,72.5 193.1,56.6 		"/>
		<path id="XMLID_8058_" class="st10" d="M176.8,72h4.8c1.1,2.2,1,4.2,0,6.1h-4.8C175.8,76.2,175.7,74.2,176.8,72z"/>
		<path id="XMLID_8057_" class="st1" d="M177.9,129.7c0.8,0,1.6,0,2.4,0c0.3-4.1-0.6-14.9-1.2-16.7
			C178.5,114.5,177.6,125.4,177.9,129.7z"/>
	</g>
	<g id="XMLID_8031_">
		<path id="XMLID_8055_" class="st7" d="M52.1,70.7c8.8-2.1,14.9-7.9,16.5-0.8c1.9,8.5,6.2,30.3,8.6,49.8c0.5,4.2-0.6,5.5-2,5.9
			c-6,1.8-11.2,2.4-17.8,3.3L52.1,70.7C52,70.7,52.1,70.7,52.1,70.7z"/>
		<path id="XMLID_8054_" class="st11" d="M64.3,40.7C64,64.9,46.7,74.6,38.5,74.6s-27.3-6.4-27.4-31.1C11.1,26.9,13.6-4.8,48,5.6
			C59.5,5,64.6,16.4,64.3,40.7z"/>
		<path id="XMLID_8053_" class="st7" d="M25.3,70.7C14.2,68,10.5,62.2,8.5,70.9c-2,9.2-6,30.2-8.4,48.9c-0.6,4.8,1,5.5,2.7,5.9
			c5.8,1.5,10.7,2.2,17.1,3.1L25.3,70.7C25.3,70.7,25.3,70.7,25.3,70.7z"/>
		<path id="XMLID_8052_" class="st1" d="M16.6,127.7l-0.3,0.7c13.7,1.7,30.6,1.8,44.3,0.1c-0.1-0.3-0.2-0.5-0.4-0.8H16.6z"/>
		<path id="XMLID_8051_" class="st12" d="M15.9,128.3c3.9-11.2,1.6-14.5-3.5-26.8C7.2,89.1,17.8,82.4,9.9,67
			c7-4.5,15.9-6.3,21.3-10.7c2.6,2.3,4.4,2.8,7.3,2.8c2.9,0,4.8-0.6,7.4-2.8c4,3.3,14.2,6,21.5,10.7C60,82.8,70.1,85.5,65,101.6
			c-3.9,12.3-10,13-4.3,26.9C46.7,130.2,29.7,130.1,15.9,128.3z"/>
		<polygon id="XMLID_8050_" class="st3" points="24.9,60.1 24.2,77.3 38.7,114 52.9,77.3 52,59.6 46,56.3 31.3,56.3 		"/>
		<rect id="XMLID_8049_" x="31.3" y="50.3" class="st4" width="14.4" height="14.9"/>
		<path id="XMLID_8048_" class="st8" d="M38.6,59.1c7.2,0,13.9-8.3,17.5-18.4c0.2,0.2,0.4,0.3,0.7,0.4c1.4,0.2,3.1-2.5,3.7-6
			c0.6-3.6-0.1-6.7-1.5-6.9c-0.1,0-0.2,0-0.3,0C59.3,15.6,54.1,4,38.6,4c-15.5,0-20.7,11.6-20,24.2c-0.2,0-0.3,0-0.5,0
			c-1.4,0.2-2.1,3.3-1.5,6.9c0.6,3.6,2.2,6.3,3.7,6c0.3-0.1,0.6-0.2,0.8-0.5C24.6,50.8,31.3,59.1,38.6,59.1z"/>
		<path id="XMLID_8047_" class="st13" d="M41,74.5l1-2.1l-3.4-8.2l-3.3,8.1l1.1,2.3C37.8,74.5,39.4,74.5,41,74.5z"/>
		<polygon id="XMLID_8046_" class="st6" points="31.3,56.3 38.6,64.1 33.4,78 27,59.2 		"/>
		<polygon id="XMLID_8045_" class="st7" points="27,58.8 38.6,114.2 19.5,83.8 22,78.5 16.6,74.2 24,60.5 		"/>
		<polygon id="XMLID_8044_" class="st6" points="46,56.3 38.6,64.1 43.8,78 50.3,59.1 		"/>
		<polygon id="XMLID_8043_" class="st13" points="36.3,79.7 41,79.7 43.4,103.1 38.6,114.2 33.9,103.1 		"/>
		<polygon id="XMLID_8042_" class="st3" points="31.3,56.3 38.6,64.1 33.3,74.6 27,59.2 		"/>
		<polygon id="XMLID_8041_" class="st12" points="27,58.8 38.6,114.2 21.4,81.4 24.2,77.3 18.7,73 24,60.5 		"/>
		<polygon id="XMLID_8040_" class="st7" points="50.4,58.7 38.6,114.2 57.6,83.8 55.1,78.5 60.5,74.2 54.7,60.7 		"/>
		<polygon id="XMLID_8039_" class="st12" points="50.4,58.7 38.6,114.2 55.8,81.4 52.9,77.3 58.4,73 54.7,60.7 		"/>
		<polygon id="XMLID_8038_" class="st3" points="46,56.3 38.6,64.1 43.9,74.6 50.3,59.1 		"/>
		<path id="XMLID_8037_" class="st13" d="M36.3,74.1H41c1,2.2,1,4.1,0,5.9h-4.7C35.3,78.2,35.3,76.3,36.3,74.1z"/>
		<path id="XMLID_8036_" class="st7" d="M37.9,129.7c0.1-4.1,0.4-8.9,0.9-16.1c0.5,7.2,0.8,12.1,1,16.1
			C39.2,129.7,38.5,129.7,37.9,129.7z"/>
		<path id="XMLID_8035_" class="st8" d="M58.9,30.4c1.4,0.3,2,3,1.3,5.9c-0.7,2.9-2.3,5.1-3.7,4.8c-1.4-0.3-2-2.9-1.3-5.9
			C55.9,32.2,57.5,30.1,58.9,30.4z"/>
		<path id="XMLID_8034_" class="st11" d="M58.8,28.2C59.6,15.6,54.3,4,38.5,4C22.7,4,17.4,15.6,18.1,28.2c1.3,0.3,2.6,2.6,3.2,5.6
			c1,0.7,1.8,0.3,1.8-2.2c0-7.5,0.9-14.1,5.9-15.7c4.8-1.5,5.8,1.8,9.4,1.8c3.6,0,4.8-3.1,9.4-1.8c4.8,1.4,5.9,8.2,5.9,15.7
			c0,2.4,0.7,2.9,1.7,2.3C56.1,30.7,57.5,28.3,58.8,28.2z"/>
		<path id="XMLID_8033_" class="st11" d="M57.6,10.5c-0.9,7-34.8,22.8-43.5,24C11.4-1.7,33.6,18.2,35.8,10.8
			C36.3,9.1,58,12,57.6,10.5z"/>
		<path id="XMLID_8032_" class="st11" d="M41.8,4.7c-0.6,7.1,11.1,27.6,19.3,30.7c3.1-25.9-3.6-24.5-8.2-26.6
			C51.3,8,41.1,6.1,41.8,4.7z"/>
	</g>
	<g id="XMLID_7991_">
		<path id="XMLID_8030_" class="st14" d="M118.6,117.6c10.3-2.4,24.5-8.3,26.4,0c2.2,9.9,4.9,33.2,7.8,55.9c0.6,4.9-5.7,7.4-7.2,7.9
			c-7,2.1-13,2.8-20.7,3.8L118.6,117.6C118.5,117.6,118.6,117.6,118.6,117.6z"/>
		<path id="XMLID_8029_" class="st14" d="M87.4,117.6c-13-3.1-23.2-10.3-25.5-0.1c-2.4,10.6-5,34-7.7,55.8c-0.7,5.6,5.1,8,7,8.5
			c6.7,1.7,12.5,2.6,19.9,3.6L87.4,117.6C87.5,117.6,87.4,117.6,87.4,117.6z"/>
		<path id="XMLID_8028_" class="st1" d="M77.3,184l-0.3,0.8c16,2,35.6,2.1,51.6,0.1c-0.1-0.3-0.3-0.6-0.4-0.9H77.3z"/>
		<path id="XMLID_8027_" class="st15" d="M70.9,183.8c3.5-10.2-4.5-58-9-66.8c2.5-9,26.2-11,32.5-16.1c3,2.6,5.1,3.2,8.5,3.2
			c3.4,0,5.6-0.7,8.6-3.3c4.7,3.8,29,6.8,33.2,15.8c-4.7,10.1-13.5,58-9.7,67.2C119.1,186.9,87.3,187.1,70.9,183.8z"/>
		<polygon id="XMLID_8026_" class="st3" points="86.9,105.3 86.2,125.3 103,168 119.6,125.3 118.5,104.7 111.5,100.8 94.4,100.9 		
			"/>
		<rect id="XMLID_8025_" x="94.4" y="93.9" class="st4" width="16.8" height="17.4"/>
		<path id="XMLID_8024_" class="st5" d="M105.7,122l1.2-2.5l-4-9.6l-3.9,9.4l1.2,2.6C102,122,103.8,122,105.7,122z"/>
		<polygon id="XMLID_8023_" class="st6" points="94.4,100.9 102.9,110 96.8,126.2 89.4,104.3 		"/>
		<polygon id="XMLID_8022_" class="st6" points="111.5,100.8 102.9,110 108.9,126.2 116.5,104.2 		"/>
		<polygon id="XMLID_8019_" class="st5" points="100.2,128.1 105.7,128.1 108.5,155.3 102.9,168.2 97.5,155.3 		"/>
		<polygon id="XMLID_8017_" class="st3" points="94.4,100.9 102.9,110 96.7,122.2 89.4,104.3 		"/>
		<polygon id="XMLID_8015_" class="st7" points="89.4,103.8 102.9,168.2 82.9,130.1 86.2,125.3 79.8,120.4 85.9,105.8 		"/>
		<polygon id="XMLID_8014_" class="st7" points="116.7,103.7 102.9,168.2 122.9,130.1 119.6,125.3 126,120.4 121.7,106 		"/>
		<polygon id="XMLID_8013_" class="st3" points="111.5,100.8 102.9,110 109,122.2 116.5,104.2 		"/>
		<path id="XMLID_8012_" class="st5" d="M100.2,121.6h5.4c1.2,2.5,1.1,4.7,0,6.9h-5.4C99.1,126.3,99,124.1,100.2,121.6z"/>
		<path id="XMLID_8011_" class="st1" d="M102.1,186.3c0.1-4.7,0.5-10.3,1.1-18.8c0.6,8.4,1,14,1.1,18.8
			C103.6,186.3,102.8,186.3,102.1,186.3z"/>
		<polygon id="XMLID_8010_" class="st3" points="84.4,105.8 86.5,125 103.2,167.5 119.7,125 121.8,105.8 113.8,100.6 92.4,100.6 		
			"/>
		<rect id="XMLID_8009_" x="92.4" y="93.7" class="st4" width="21.2" height="17.3"/>
		<path id="XMLID_8008_" class="st8" d="M103.1,103.9c8.4,0,16.1-9.6,20.2-21.3c0.2,0.2,0.5,0.4,0.8,0.5c1.7,0.3,3.6-2.9,4.3-7
			c0.7-4.1-0.1-7.7-1.8-8c-0.1,0-0.2,0-0.4,0c0.8-14.5-5.2-28-23.1-28c-18,0-24,13.4-23.1,28c-0.2,0-0.4-0.1-0.5,0
			c-1.7,0.3-2.5,3.9-1.8,8c0.7,4.1,2.6,7.3,4.3,7c0.4-0.1,0.7-0.3,0.9-0.6C86.9,94.3,94.7,103.9,103.1,103.9z"/>
		<path id="XMLID_8007_" class="st16" d="M126.2,68.1c0.8-14.5-5.2-28-23.1-28c-18,0-24,13.4-23.1,28c1.5,0.4,3,3,3.6,6.5
			c1.2,0.8,2,0.3,2-2.6c0-8.6,1.1-16.3,6.7-18.1c5.4-1.7,6.6,2.1,10.7,2.1c4.1,0,5.4-3.6,10.7-2.1c5.5,1.6,6.7,9.5,6.7,18.1
			c0,2.8,0.8,3.3,1.9,2.7C123.1,71.1,124.7,68.3,126.2,68.1z"/>
		<path id="XMLID_8006_" class="st1" d="M105.9,121.7l1.2-2.5l-3.9-9.5l-3.9,9.4l1.2,2.6C102.3,121.7,104.1,121.7,105.9,121.7z"/>
		<polygon id="XMLID_8005_" class="st6" points="92.4,100.6 103.1,109.8 97.1,125.8 87.4,104 		"/>
		<polygon id="XMLID_8004_" class="st14" points="87.4,104 103.1,167.7 81,132.5 83.9,126.4 77.6,121.4 84.4,105.8 		"/>
		<polygon id="XMLID_8003_" class="st6" points="113.8,100.6 103.1,109.8 109.1,125.8 118.8,104 		"/>
		<polygon id="XMLID_8002_" class="st1" points="100.4,127.7 105.9,127.7 108.7,154.8 103.1,167.7 97.7,154.8 		"/>
		<polygon id="XMLID_8001_" class="st3" points="92.4,100.6 103.1,109.8 96.9,121.9 87.4,104 		"/>
		<polygon id="XMLID_8000_" class="st15" points="87.4,104 103.1,167.7 83.2,129.7 86.5,125 80.1,120.1 84.4,105.8 		"/>
		<polygon id="XMLID_7999_" class="st14" points="118.8,104 103.1,167.7 125.1,132.5 122.2,126.4 128.5,121.4 121.8,105.8 		"/>
		<polygon id="XMLID_7995_" class="st15" points="118.8,104 103.1,167.7 123,129.7 119.7,125 126.1,120.1 121.8,105.8 		"/>
		<polygon id="XMLID_7994_" class="st3" points="113.8,100.6 103.1,109.8 109.2,121.9 118.8,104 		"/>
		<path id="XMLID_7993_" class="st1" d="M100.4,121.3h5.4c1.2,2.5,1.1,4.7,0,6.8h-5.4C99.3,126,99.2,123.8,100.4,121.3z"/>
		<path id="XMLID_7992_" class="st14" d="M101.7,186.3c0.9,0,1.8,0,2.7,0c0.3-4.6-0.7-16.8-1.3-18.8
			C102.4,169.2,101.4,181.5,101.7,186.3z"/>
	</g>
	<g id="XMLID_7532_">
		<path id="XMLID_7990_" class="st1" d="M332.3,68.7c9.1-2.2,21.8-7.3,23.4,0c2,8.8,4.4,29.5,6.9,49.7c0.5,4.3-5,6.6-6.4,7
			c-6.2,1.9-11.5,2.5-18.4,3.4L332.3,68.7C332.3,68.8,332.3,68.7,332.3,68.7z"/>
		<path id="XMLID_7989_" class="st1" d="M304.7,68.7c-11.5-2.7-20.6-9.1-22.6-0.1c-2.1,9.4-4.4,30.2-6.8,49.5
			c-0.6,5,4.5,7.1,6.2,7.5c6,1.5,11.1,2.3,17.7,3.2L304.7,68.7C304.7,68.8,304.7,68.7,304.7,68.7z"/>
		<path id="XMLID_7988_" class="st1" d="M295.7,127.6l-0.3,0.7c14.2,1.8,31.6,1.8,45.8,0.1c-0.1-0.3-0.3-0.6-0.4-0.8H295.7z"/>
		<path id="XMLID_7952_" class="st7" d="M290,127.5c3.1-9.1-4-51.5-8-59.3c2.3-8,23.2-9.8,28.8-14.3c2.6,2.3,4.5,2.9,7.5,2.9
			c3,0,5-0.6,7.6-2.9c4.1,3.4,25.8,6,29.5,14c-4.2,8.9-11.9,51.5-8.6,59.6C332.8,130.2,304.5,130.4,290,127.5z"/>
		<polygon id="XMLID_7951_" class="st3" points="304.2,57.8 303.6,75.6 318.5,113.5 333.2,75.6 332.3,57.3 326,53.9 310.9,53.9 		
			"/>
		<rect id="XMLID_7942_" x="310.9" y="47.7" class="st4" width="14.9" height="15.4"/>
		<path id="XMLID_7624_" class="st5" d="M320.9,72.7l1-2.2l-3.5-8.5l-3.5,8.4l1.1,2.3C317.6,72.7,319.3,72.7,320.9,72.7z"/>
		<polygon id="XMLID_7622_" class="st6" points="310.9,53.9 318.4,62 313,76.3 306.4,56.9 		"/>
		<polygon id="XMLID_7612_" class="st1" points="306.4,56.5 318.4,113.7 298.7,82.3 301.3,76.8 295.7,72.4 303.3,58.2 		"/>
		<polygon id="XMLID_7610_" class="st6" points="326,53.9 318.4,62 323.8,76.3 330.5,56.8 		"/>
		<polygon id="XMLID_7608_" class="st5" points="316,78 320.9,78 323.4,102.2 318.4,113.7 313.6,102.2 		"/>
		<polygon id="XMLID_7600_" class="st3" points="310.9,53.9 318.4,62 312.9,72.8 306.4,56.9 		"/>
		<polygon id="XMLID_7599_" class="st7" points="306.4,56.5 318.4,113.7 300.6,79.8 303.6,75.6 297.9,71.2 303.3,58.2 		"/>
		<polygon id="XMLID_7598_" class="st1" points="330.6,56.4 318.4,113.7 338.1,82.3 335.5,76.8 341.1,72.4 335.1,58.4 		"/>
		<polygon id="XMLID_7596_" class="st7" points="330.6,56.4 318.4,113.7 336.1,79.8 333.2,75.6 338.9,71.2 335.1,58.4 		"/>
		<polygon id="XMLID_7595_" class="st3" points="326,53.9 318.4,62 323.9,72.8 330.5,56.8 		"/>
		<path id="XMLID_7594_" class="st5" d="M316,72.3h4.8c1.1,2.2,1,4.2,0,6.1H316C315,76.5,315,74.5,316,72.3z"/>
		<path id="XMLID_7593_" class="st1" d="M317.7,129.7c0.1-4.2,0.4-9.2,1-16.7c0.5,7.5,0.9,12.5,1,16.7
			C319,129.7,318.4,129.7,317.7,129.7z"/>
		<polygon id="XMLID_7592_" class="st3" points="302,58.2 303.8,75.3 318.7,113 333.3,75.3 335.2,58.2 328.1,53.7 309.1,53.7 		"/>
		<rect id="XMLID_7591_" x="309.1" y="47.6" class="st4" width="18.8" height="15.4"/>
		<path id="XMLID_7590_" class="st8" d="M318.6,56.6c7.4,0,14.3-8.5,17.9-18.9c0.2,0.2,0.5,0.4,0.7,0.4c1.5,0.2,3.2-2.5,3.8-6.2
			c0.6-3.7-0.1-6.8-1.6-7.1c-0.1,0-0.2,0-0.3,0C339.8,11.9,334.5,0,318.6,0c-15.9,0-21.3,11.9-20.5,24.8c-0.2,0-0.3-0.1-0.5,0
			c-1.5,0.2-2.2,3.4-1.6,7.1c0.6,3.7,2.3,6.4,3.8,6.2c0.3-0.1,0.6-0.2,0.8-0.5C304.2,48,311.1,56.6,318.6,56.6z"/>
		<path id="XMLID_7589_" class="st17" d="M339.1,24.8C339.8,11.9,334.5,0,318.6,0c-15.9,0-21.3,11.9-20.5,24.8
			c1.3,0.3,2.6,2.7,3.2,5.7c1,0.7,1.8,0.3,1.8-2.3c0-7.7,0.9-14.5,6-16.1c4.8-1.5,5.9,1.8,9.5,1.8c3.7,0,4.8-3.2,9.5-1.8
			c4.9,1.4,6,8.4,6,16.1c0,2.5,0.7,3,1.7,2.4C336.3,27.4,337.8,25,339.1,24.8z"/>
		<path id="XMLID_7588_" class="st13" d="M321,72.4l1-2.2l-3.5-8.5l-3.4,8.3l1.1,2.3C317.8,72.4,319.4,72.4,321,72.4z"/>
		<polygon id="XMLID_7587_" class="st6" points="309.1,53.7 318.6,61.8 313.2,76 304.6,56.6 		"/>
		<polygon id="XMLID_7586_" class="st1" points="304.6,56.6 318.6,113.2 299,82 301.6,76.5 296,72.1 302,58.2 		"/>
		<polygon id="XMLID_7585_" class="st6" points="328.1,53.7 318.6,61.8 323.9,76 332.5,56.6 		"/>
		<polygon id="XMLID_7542_" class="st13" points="316.2,77.7 321,77.7 323.5,101.8 318.6,113.2 313.8,101.8 		"/>
		<path id="XMLID_7541_" class="st17" d="M332.9,8.4c-2.1,4.1-21.4,7.5-28.2,8.1C297.8,17,302.9-2.3,332.9,8.4z"/>
		<path id="XMLID_7540_" class="st17" d="M323.1,8.4c0.9,4.1,11.2,13.1,14.2,13.6C340.2,22.6,336-2.3,323.1,8.4z"/>
		<polygon id="XMLID_7539_" class="st3" points="309.1,53.7 318.6,61.8 313.1,72.5 304.6,56.6 		"/>
		<polygon id="XMLID_7538_" class="st7" points="304.6,56.6 318.6,113.2 300.9,79.5 303.8,75.3 298.2,70.9 302,58.2 		"/>
		<polygon id="XMLID_7537_" class="st1" points="332.5,56.6 318.6,113.2 338.1,82 335.6,76.5 341.2,72.1 335.2,58.2 		"/>
		<polygon id="XMLID_7536_" class="st7" points="332.5,56.6 318.6,113.2 336.2,79.5 333.3,75.3 339,70.9 335.2,58.2 		"/>
		<polygon id="XMLID_7535_" class="st3" points="328.1,53.7 318.6,61.8 324,72.5 332.5,56.6 		"/>
		<path id="XMLID_7534_" class="st13" d="M316.2,72h4.8c1.1,2.2,1,4.2,0,6.1h-4.8C315.3,76.2,315.2,74.2,316.2,72z"/>
		<path id="XMLID_7533_" class="st1" d="M317.4,129.7c0.8,0,1.6,0,2.4,0c0.3-4.1-0.6-14.9-1.2-16.7
			C318,114.5,317.1,125.4,317.4,129.7z"/>
	</g>
	<g id="XMLID_7506_">
		<path id="XMLID_7531_" class="st0" d="M261.8,119.5c10-2.4,16.9-9,18.7-0.9c2.2,9.6,7,34.3,9.8,56.4c0.6,4.8-0.7,6.2-2.2,6.7
			c-6.8,2.1-12.6,2.7-20.1,3.7L261.8,119.5C261.8,119.5,261.8,119.5,261.8,119.5z"/>
		<path id="XMLID_7530_" class="st18" d="M274.2,85c-6.1,29.1-18.4,81-27.7,81c-9.3,0-27.4-55.8-31-77.3
			c-3.1-18.5,2.8-54.7,41.7-42.9C270.2,45.1,279.5,59.7,274.2,85z"/>
		<path id="XMLID_7529_" class="st0" d="M231.5,119.5c-12.6-3-16.8-9.6-19,0.3c-2.3,10.4-6.8,34.1-9.5,55.3c-0.7,5.4,1.2,6.2,3,6.7
			c6.5,1.7,12.1,2.5,19.4,3.5L231.5,119.5C231.5,119.5,231.5,119.5,231.5,119.5z"/>
		<path id="XMLID_7528_" class="st1" d="M221.7,184l-0.3,0.8c15.5,2,34.6,2,50.2,0.1c-0.1-0.3-0.3-0.6-0.4-0.9H221.7z"/>
		<path id="XMLID_7527_" class="st2" d="M220.9,184.8c4.4-12.7,1.9-16.4-3.9-30.3c-5.9-14.1,6.1-21.7-2.8-39.1
			c7.9-5,18-7.1,24.1-12.1c2.9,2.6,5,3.1,8.3,3.1c3.3,0,5.5-0.7,8.4-3.2c4.5,3.7,16.1,6.8,24.4,12.2c-8.5,17.9,3,20.9-2.8,39.1
			c-4.4,13.9-11.4,14.7-4.9,30.5C255.8,186.8,236.5,186.8,220.9,184.8z"/>
		<polygon id="XMLID_7526_" class="st3" points="231,107.5 230.3,127 246.6,168.5 262.8,127 261.8,106.9 254.9,103.2 238.3,103.3 		
			"/>
		<rect id="XMLID_7525_" x="238.3" y="96.4" class="st4" width="16.3" height="16.9"/>
		<path id="XMLID_7524_" class="st8" d="M246.5,106.4c8.2,0,15.8-9.4,19.8-20.8c0.2,0.2,0.5,0.4,0.8,0.4c1.6,0.3,3.5-2.8,4.2-6.8
			c0.7-4-0.1-7.5-1.7-7.8c-0.1,0-0.2,0-0.3,0C270,57.2,264.1,44,246.5,44c-17.6,0-23.4,13.1-22.6,27.4c-0.2,0-0.4-0.1-0.5,0
			c-1.6,0.3-2.4,3.8-1.7,7.8c0.7,4,2.5,7.1,4.2,6.8c0.3-0.1,0.7-0.3,0.9-0.6C230.7,96.9,238.3,106.4,246.5,106.4z"/>
		<path id="XMLID_7523_" class="st10" d="M249.2,123.8l1.1-2.4l-3.8-9.3l-3.8,9.2l1.2,2.6C245.7,123.8,247.5,123.8,249.2,123.8z"/>
		<polygon id="XMLID_7522_" class="st6" points="238.3,103.3 246.5,112.1 240.6,127.8 233.4,106.5 		"/>
		<polygon id="XMLID_7521_" class="st0" points="233.4,106.1 246.5,168.7 225,134.3 227.8,128.3 221.7,123.4 230,108 		"/>
		<polygon id="XMLID_7520_" class="st6" points="254.9,103.2 246.5,112.1 252.4,127.8 259.8,106.4 		"/>
		<polygon id="XMLID_7519_" class="st10" points="244,129.6 249.2,129.6 252,156.1 246.5,168.7 241.3,156.1 		"/>
		<polygon id="XMLID_7518_" class="st3" points="238.3,103.2 246.5,112.1 240.5,123.9 233.4,106.5 		"/>
		<polygon id="XMLID_7517_" class="st2" points="233.4,106.1 246.5,168.7 227.1,131.6 230.3,127 224.1,122.2 230,108 		"/>
		<polygon id="XMLID_7516_" class="st0" points="259.9,105.9 246.5,168.7 268.1,134.3 265.3,128.3 271.4,123.4 264.8,108.2 		"/>
		<polygon id="XMLID_7515_" class="st2" points="259.9,105.9 246.5,168.7 266,131.6 262.8,127 269,122.2 264.8,108.2 		"/>
		<polygon id="XMLID_7514_" class="st3" points="254.9,103.2 246.5,112.1 252.5,123.9 259.8,106.4 		"/>
		<path id="XMLID_7513_" class="st10" d="M244,123.4h5.3c1.2,2.4,1.1,4.6,0,6.7H244C242.9,128,242.8,125.8,244,123.4z"/>
		<path id="XMLID_7512_" class="st0" d="M245.8,186.3c0.1-4.6,0.5-10.1,1-18.3c0.6,8.2,0.9,13.7,1.1,18.3
			C247.2,186.3,246.5,186.3,245.8,186.3z"/>
		
			<ellipse id="XMLID_7511_" transform="matrix(0.2169 -0.9762 0.9762 0.2169 132.0175 324.431)" class="st8" cx="268.2" cy="79.9" rx="6.2" ry="2.9"/>
		<path id="XMLID_7510_" class="st18" d="M269.5,71.4c0.8-14.2-5.2-27.3-23-27.3c-17.9,0-23.9,13.1-23,27.4c1.4,0.4,3,3,3.6,6.3
			c1.2,0.8,2,0.3,2-2.5c0-8.5,1.1-15.9,6.7-17.7c5.4-1.7,6.6,2,10.7,2c4.1,0,5.4-3.5,10.7-2c5.5,1.5,6.7,9.3,6.7,17.7
			c0,2.7,0.8,3.3,1.9,2.6C266.3,74.2,268,71.5,269.5,71.4z"/>
		<path id="XMLID_7509_" class="st18" d="M262.7,48.8c1.1,8-11.4,25.3-20.5,29.3c5.8-3.2,9.6-15.2,8.2-23.9
			C250.1,52.2,263.7,50.4,262.7,48.8z"/>
		<path id="XMLID_7508_" class="st18" d="M256.7,49.9c-1.1,8-28,32.8-37.9,34.1c-3.1-41,22.1-24,24.6-32.2
			C244,49.8,257.2,51.6,256.7,49.9z"/>
		<path id="XMLID_7507_" class="st18" d="M250.2,44.8c-0.6,8,12.5,36.7,21.9,40.2c3.5-29.3-4.1-33.1-9.3-35.5
			C260.9,48.6,249.3,46.4,250.2,44.8z"/>
	</g>
	<g id="XMLID_6891_">
		<path id="XMLID_7505_" class="st1" d="M199.1,192.3c13.3-3.2,31.9-10.7,34.3,0.1c2.9,12.8,6.4,43.2,10.2,72.8
			c0.8,6.4-7.4,9.7-9.4,10.3c-9.1,2.7-16.9,3.6-26.9,5L199.1,192.3C199.1,192.3,199.1,192.3,199.1,192.3z"/>
		<path id="XMLID_7504_" class="st1" d="M158.6,192.3c-16.8-4-30.2-13.4-33.2-0.2c-3.1,13.9-6.5,44.2-10,72.5
			c-0.9,7.3,6.7,10.4,9.1,11c8.7,2.3,16.2,3.4,25.9,4.7L158.6,192.3C158.6,192.3,158.6,192.3,158.6,192.3z"/>
		<path id="XMLID_7503_" class="st1" d="M145.5,278.7l-0.4,1c20.8,2.6,46.3,2.7,67.1,0.1c-0.2-0.4-0.4-0.8-0.6-1.2H145.5z"/>
		<path id="XMLID_7502_" class="st7" d="M137.1,278.5c4.6-13.3-5.9-75.4-11.7-86.8c3.3-11.7,34-14.3,42.2-21c3.9,3.4,6.6,4.2,11,4.2
			c4.4,0,7.3-0.9,11.2-4.3c6.1,4.9,37.8,8.8,43.2,20.5c-6.2,13.1-17.5,75.4-12.6,87.4C199.8,282.5,158.4,282.7,137.1,278.5z"/>
		<polygon id="XMLID_7497_" class="st3" points="157.9,176.3 157,202.4 178.8,257.9 200.4,202.4 199,175.5 189.9,170.5 167.6,170.6 
					"/>
		<rect id="XMLID_7495_" x="167.6" y="161.5" class="st4" width="21.8" height="22.6"/>
		<path id="XMLID_7494_" class="st5" d="M182.3,198.1l1.5-3.2l-5.1-12.5l-5.1,12.3l1.6,3.4C177.6,198.1,179.9,198.1,182.3,198.1z"/>
		<polygon id="XMLID_7483_" class="st6" points="167.6,170.6 178.7,182.4 170.8,203.4 161.1,175 		"/>
		<polygon id="XMLID_7481_" class="st1" points="161.2,174.4 178.7,258.2 149.8,212.2 153.6,204.2 145.4,197.6 156.6,176.9 		"/>
		<polygon id="XMLID_7442_" class="st6" points="189.9,170.5 178.7,182.4 186.5,203.4 196.4,174.8 		"/>
		<polygon id="XMLID_7441_" class="st5" points="175.2,205.9 182.3,205.9 186,241.3 178.7,258.2 171.7,241.3 		"/>
		<polygon id="XMLID_7440_" class="st3" points="167.6,170.6 178.7,182.4 170.6,198.2 161.1,175 		"/>
		<polygon id="XMLID_7439_" class="st7" points="161.2,174.4 178.7,258.2 152.7,208.5 157,202.4 148.6,195.9 156.6,176.9 		"/>
		<polygon id="XMLID_7438_" class="st1" points="196.6,174.2 178.7,258.2 207.5,212.2 203.7,204.2 211.9,197.6 203.1,177.2 		"/>
		<polygon id="XMLID_7437_" class="st7" points="196.6,174.2 178.7,258.2 204.7,208.5 200.4,202.4 208.7,195.9 203.1,177.2 		"/>
		<polygon id="XMLID_7436_" class="st3" points="189.9,170.5 178.7,182.4 186.7,198.2 196.4,174.8 		"/>
		<path id="XMLID_6945_" class="st5" d="M175.2,197.5h7.1c1.6,3.3,1.5,6.1,0,8.9h-7.1C173.8,203.6,173.7,200.8,175.2,197.5z"/>
		<path id="XMLID_6944_" class="st1" d="M177.7,281.7c0.2-6.1,0.7-13.5,1.4-24.4c0.8,11,1.3,18.3,1.5,24.4
			C179.6,281.7,178.6,281.7,177.7,281.7z"/>
		<polygon id="XMLID_6943_" class="st3" points="154.6,176.9 157.4,202 179.1,257.2 200.6,202 203.3,176.9 192.9,170.3 165,170.3 		
			"/>
		<rect id="XMLID_6942_" x="165" y="161.3" class="st4" width="27.6" height="22.5"/>
		<path id="XMLID_6941_" class="st8" d="M179,174.5c10.9,0,21-12.4,26.3-27.7c0.3,0.3,0.7,0.5,1,0.6c2.2,0.4,4.6-3.7,5.5-9.1
			c0.9-5.4-0.1-10-2.3-10.4c-0.2,0-0.3,0-0.5,0c1.1-18.9-6.8-36.4-30.1-36.4c-23.4,0-31.2,17.5-30.1,36.4c-0.2-0.1-0.5-0.1-0.7,0
			c-2.2,0.4-3.2,5-2.3,10.4c0.9,5.4,3.4,9.4,5.5,9.1c0.5-0.1,0.9-0.4,1.2-0.8C157.9,162,168,174.5,179,174.5z"/>
		<path id="XMLID_6940_" class="st19" d="M209.1,127.9c1.1-18.9-6.8-36.4-30.1-36.4c-23.4,0-31.2,17.5-30.1,36.4
			c1.9,0.5,3.9,3.9,4.7,8.4c1.5,1,2.6,0.4,2.6-3.4c0-11.2,1.4-21.2,8.8-23.6c7-2.3,8.6,2.7,13.9,2.7c5.4,0,7.1-4.7,13.9-2.7
			c7.1,2,8.8,12.3,8.8,23.6c0,3.7,1,4.4,2.4,3.5C205,131.8,207.1,128.1,209.1,127.9z"/>
		<path id="XMLID_6939_" class="st20" d="M182.6,197.7l1.5-3.2l-5.1-12.4l-5,12.2l1.6,3.4C177.9,197.7,180.2,197.7,182.6,197.7z"/>
		<polygon id="XMLID_6936_" class="st6" points="165,170.3 179,182.1 171.1,203 158.5,174.6 		"/>
		<polygon id="XMLID_6935_" class="st1" points="158.5,174.6 179,257.5 150.3,211.7 154,203.8 145.9,197.2 154.6,176.9 		"/>
		<polygon id="XMLID_6934_" class="st6" points="192.9,170.3 179,182.1 186.8,203 199.4,174.6 		"/>
		<polygon id="XMLID_6932_" class="st20" points="175.5,205.5 182.6,205.5 186.2,240.7 179,257.5 172,240.7 		"/>
		<path id="XMLID_6931_" class="st19" d="M200,103.9c-3,6-33.4,23.3-43.4,24.1C146.5,128.7,156,88.3,200,103.9z"/>
		<path id="XMLID_6930_" class="st19" d="M185.5,103.9c1.3,6,14.4,23.3,18.7,24.1C208.6,128.7,204.5,88.3,185.5,103.9z"/>
		<polygon id="XMLID_6915_" class="st3" points="165,170.3 179,182.1 171,197.9 158.5,174.6 		"/>
		<polygon id="XMLID_6913_" class="st7" points="158.5,174.6 179,257.5 153.1,208.1 157.4,202 149.1,195.5 154.6,176.9 		"/>
		<polygon id="XMLID_6910_" class="st1" points="199.4,174.6 179,257.5 207.6,211.7 203.9,203.8 212.1,197.2 203.3,176.9 		"/>
		<polygon id="XMLID_6900_" class="st7" points="199.4,174.6 179,257.5 204.8,208.1 200.6,202 208.8,195.5 203.3,176.9 		"/>
		<polygon id="XMLID_6898_" class="st3" points="192.9,170.3 179,182.1 186.9,197.9 199.4,174.6 		"/>
		<path id="XMLID_6896_" class="st20" d="M175.5,197.1h7c1.6,3.3,1.4,6.1,0,8.9h-7C174.1,203.2,174,200.4,175.5,197.1z"/>
		<path id="XMLID_6893_" class="st1" d="M177.2,281.7c1.2,0,2.3,0,3.5,0c0.4-5.9-0.8-21.8-1.7-24.4
			C178,259.4,176.8,275.4,177.2,281.7z"/>
	</g>
</g>
</svg>
