<?xml version="1.0" encoding="utf-8"?>
<!-- Generator: Adobe Illustrator 19.0.0, SVG Export Plug-In . SVG Version: 6.00 Build 0)  -->
<svg version="1.1" id="Capa_1" xmlns="http://www.w3.org/2000/svg" xmlns:xlink="http://www.w3.org/1999/xlink" x="0px" y="0px"
	 viewBox="0 0 185.9 231" style="enable-background:new 0 0 185.9 231;" xml:space="preserve">
<style type="text/css">
	.st0{fill:#FFFFFF;stroke:#1A1A1A;stroke-miterlimit:10;}
	.st1{fill:#FF6D3B;}
	.st2{fill:#CCCBCA;}
	.st3{fill:#E6E5E5;}
	.st4{fill:#526677;}
	.st5{fill:#D9D8D7;}
	.st6{fill:#2B4457;}
	.st7{fill:#FFD55C;}
</style>
<g id="XMLID_5595_">
	<path id="XMLID_5640_" class="st0" d="M185.4,0.5v212.2c0,9.8-8,17.8-17.8,17.8H35.5V0.5H185.4z"/>
	<g id="XMLID_5597_">
		<g id="XMLID_5632_">
			<g id="XMLID_5637_">
				<rect id="XMLID_5639_" x="51.8" y="202" class="st1" width="18.2" height="3.9"/>
				<rect id="XMLID_5638_" x="73.6" y="202" class="st2" width="95.5" height="3.9"/>
			</g>
			<g id="XMLID_5633_">
				<polygon id="XMLID_5636_" class="st1" points="157.6,161.4 152.1,162.8 146.5,169.2 140.9,169.8 135.4,174 129.8,171.6 
					123.3,166.7 118.7,172.7 113.1,174.8 107.6,172.2 102,174.5 96.4,175.5 90.9,181.8 85.3,184.7 79.8,180.7 74.2,179.3 
					68.6,185.1 63.1,183.9 57.5,187.2 51.8,188.1 51.8,195.4 169.2,195.4 169.2,154 163.2,156.4 				"/>
				<polygon id="XMLID_5635_" class="st3" points="157.6,170.3 152.1,171.3 146.5,176 140.9,176.5 135.4,179.6 129.8,177.8 
					123.3,174.2 118.7,178.6 113.1,180.2 107.6,178.2 102,179.9 96.4,180.7 90.9,185.4 85.3,187.5 79.8,184.5 74.2,183.5 
					68.6,187.8 63.1,186.9 57.5,189.3 51.8,190 51.8,195.4 169.2,195.4 169.2,164.8 163.2,166.6 				"/>
				<polygon id="XMLID_5634_" class="st4" points="157.6,185.7 152.1,186.1 146.5,188 140.9,188.1 135.4,189.3 129.8,188.7 
					123.3,187.2 118.7,189 113.1,189.6 107.6,188.8 102,189.5 96.4,189.8 90.9,191.6 85.3,192.4 79.8,191.2 74.2,190.8 68.6,192.5 
					63.1,192.1 57.5,193.1 51.8,193.4 51.8,195.4 169.2,195.4 169.2,183.6 163.2,184.3 				"/>
			</g>
		</g>
		<g id="XMLID_5605_">
			<g id="XMLID_5627_">
				<rect id="XMLID_5631_" x="57" y="86.6" class="st2" width="18.7" height="18"/>
				<rect id="XMLID_5630_" x="82.5" y="86.6" class="st2" width="18.7" height="12.4"/>
				<rect id="XMLID_5629_" x="108.1" y="86.6" class="st2" width="18.7" height="10.3"/>
				<rect id="XMLID_5628_" x="133.6" y="86.6" class="st2" width="18.7" height="16.5"/>
			</g>
			<rect id="XMLID_5626_" x="57" y="36.8" class="st5" width="3.4" height="49.3"/>
			<rect id="XMLID_5625_" x="62.1" y="17.8" class="st1" width="3.4" height="68.3"/>
			<rect id="XMLID_5624_" x="67.2" y="43.2" class="st6" width="3.4" height="42.8"/>
			<rect id="XMLID_5623_" x="72.3" y="29.1" class="st7" width="3.4" height="56.9"/>
			<rect id="XMLID_5622_" x="82.5" y="72" class="st5" width="3.4" height="14"/>
			<rect id="XMLID_5621_" x="87.6" y="54.2" class="st1" width="3.4" height="31.9"/>
			<rect id="XMLID_5620_" x="92.7" y="60.1" class="st6" width="3.4" height="25.9"/>
			<rect id="XMLID_5619_" x="97.8" y="39" class="st7" width="3.4" height="47"/>
			<rect id="XMLID_5618_" x="108.1" y="69.3" class="st5" width="3.4" height="16.8"/>
			<rect id="XMLID_5617_" x="113.2" y="72.3" class="st1" width="3.4" height="13.8"/>
			<rect id="XMLID_5616_" x="118.2" y="46.9" class="st6" width="3.4" height="39.1"/>
			<rect id="XMLID_5615_" x="123.3" y="58.8" class="st7" width="3.4" height="27.2"/>
			<rect id="XMLID_5614_" x="133.6" y="23.3" class="st5" width="3.4" height="62.8"/>
			<rect id="XMLID_5613_" x="138.7" y="43" class="st1" width="3.4" height="43"/>
			<rect id="XMLID_5612_" x="143.8" y="62" class="st6" width="3.4" height="24"/>
			<rect id="XMLID_5611_" x="148.9" y="33" class="st7" width="3.4" height="53"/>
			<path id="XMLID_5610_" class="st6" d="M166.4,33.3c-1.5,0-2.8,1.3-2.8,2.8c0,1.6,1.3,2.8,2.8,2.8c1.5,0,2.8-1.2,2.8-2.8
				C169.2,34.6,167.9,33.3,166.4,33.3z"/>
			<path id="XMLID_5609_" class="st1" d="M166.4,49.1c-1.5,0-2.8,1.2-2.8,2.8c0,1.5,1.3,2.8,2.8,2.8c1.5,0,2.8-1.3,2.8-2.8
				C169.2,50.4,167.9,49.1,166.4,49.1z"/>
			<path id="XMLID_5608_" class="st5" d="M166.4,64.9c-1.5,0-2.8,1.2-2.8,2.8c0,1.5,1.3,2.8,2.8,2.8c1.5,0,2.8-1.2,2.8-2.8
				C169.2,66.2,167.9,64.9,166.4,64.9z"/>
			<path id="XMLID_5607_" class="st7" d="M166.4,80.7c-1.5,0-2.8,1.3-2.8,2.8c0,1.5,1.3,2.8,2.8,2.8c1.5,0,2.8-1.3,2.8-2.8
				C169.2,82,167.9,80.7,166.4,80.7z"/>
			<polygon id="XMLID_5606_" class="st4" points="53.7,86 53.7,14.5 51.8,14.5 51.8,15.1 53.2,15.1 53.2,24.7 51.8,24.7 51.8,25.3 
				53.2,25.3 53.2,34.9 51.8,34.9 51.8,35.5 53.2,35.5 53.2,45.2 51.8,45.2 51.8,45.8 53.2,45.8 53.2,55.4 51.8,55.4 51.8,56 
				53.2,56 53.2,65.6 51.8,65.6 51.8,66.2 53.2,66.2 53.2,75.8 51.8,75.8 51.8,76.4 53.2,76.4 53.2,86.6 157.8,86.6 157.8,86 			"/>
		</g>
		<g id="XMLID_5598_">
			<rect id="XMLID_5604_" x="51.8" y="117.8" class="st2" width="33.5" height="11"/>
			<rect id="XMLID_5603_" x="91.3" y="117.8" class="st2" width="77.8" height="11"/>
			<g id="XMLID_5599_">
				<rect id="XMLID_5602_" x="51.8" y="135.9" class="st4" width="117.4" height="2.3"/>
				<rect id="XMLID_5601_" x="51.8" y="141.6" class="st2" width="117.4" height="2.3"/>
				<rect id="XMLID_5600_" x="51.8" y="147.3" class="st2" width="58.7" height="2.3"/>
			</g>
		</g>
	</g>
	<path id="XMLID_5596_" class="st2" d="M17.8,230.5c-9.8,0-17.8-8-17.8-17.8h149.9c0,9.8,8,17.8,17.8,17.8H17.8z"/>
</g>
</svg>
