<?xml version="1.0" encoding="utf-8"?>
<!-- Generator: Adobe Illustrator 19.0.0, SVG Export Plug-In . SVG Version: 6.00 Build 0)  -->
<svg version="1.1" id="Capa_1" xmlns="http://www.w3.org/2000/svg" xmlns:xlink="http://www.w3.org/1999/xlink" x="0px" y="0px"
	 viewBox="-459 261 40 40" style="enable-background:new -459 261 40 40;" xml:space="preserve">
<style type="text/css">
	.st0{fill:#F9F19D;}
	.st1{fill:#7F634D;}
</style>
<rect id="XMLID_2220_" x="-459" y="261" class="st0" width="40" height="40"/>
<g id="XMLID_2221_">
	<g id="XMLID_2226_">
		<path id="XMLID_2227_" class="st1" d="M-430.1,280.3l-8.5-7c-0.4-0.3-1-0.3-1.3,0l-8.5,7c-0.2,0.2-0.4,0.5-0.4,0.8v10.5
			c0,0.6,0.5,1.1,1.1,1.1h16.9c0.6,0,1.1-0.5,1.1-1.1v-10.5C-429.7,280.8-429.9,280.5-430.1,280.3L-430.1,280.3z M-438.1,290.5h-2.2
			v-5.9h2.2V290.5z M-431.9,290.5h-4.1v-6.9c0-0.6-0.5-1.1-1.1-1.1h-4.4c-0.6,0-1.1,0.5-1.1,1.1v6.9h-4.2v-9l7.4-6.1l7.4,6.1v9
			H-431.9z"/>
		<path id="XMLID_2232_" class="st1" d="M-427.2,278.1c-2.4-1.9-4.6-3.7-7-5.7c-0.7-0.6-1.5-1.3-2.2-1.9c-0.7-0.6-1.5-1.2-2.1-1.8
			c-0.4-0.4-1-0.4-1.4,0c-0.7,0.6-1.4,1.2-2.1,1.8s-1.5,1.2-2.2,1.9c-2.4,2-4.6,3.8-7,5.7c-0.5,0.4-0.5,1-0.2,1.5
			c0.4,0.5,1,0.5,1.5,0.2c2.4-1.9,4.6-3.7,7-5.7l0,0c0.7-0.6,1.4-1.2,2.1-1.8c0.5-0.4,1-0.8,1.5-1.3c0.5,0.4,1,0.8,1.5,1.3
			c0.7,0.6,1.5,1.2,2.1,1.8l0,0c2.4,2,4.7,3.8,7,5.7c0.2,0.2,0.4,0.2,0.7,0.2s0.6-0.1,0.8-0.4C-426.7,279.2-426.7,278.5-427.2,278.1
			L-427.2,278.1z"/>
	</g>
</g>
</svg>
