<?xml version="1.0" encoding="utf-8"?>
<!-- Generator: Adobe Illustrator 21.0.0, SVG Export Plug-In . SVG Version: 6.00 Build 0)  -->
<svg version="1.1" id="Capa_1" xmlns="http://www.w3.org/2000/svg" xmlns:xlink="http://www.w3.org/1999/xlink" x="0px" y="0px"
	 viewBox="0 0 104 38" style="enable-background:new 0 0 104 38;" xml:space="preserve">
<style type="text/css">
	.st0{fill:#75C6F0;}
	.st1{fill:#FFFFFF;}
</style>
<g>
	<rect class="st0" width="104" height="38"/>
	<g>
		<path class="st1" d="M21.1548,19.8301l1.1953-0.1455c0.0381,0.3047,0.1406,0.5381,0.3076,0.6982
			c0.167,0.1621,0.3691,0.2422,0.6064,0.2422c0.2549,0,0.4692-0.0967,0.644-0.29c0.1738-0.1934,0.2612-0.4541,0.2612-0.7822
			c0-0.3105-0.0835-0.5566-0.2505-0.7383s-0.3706-0.2725-0.6108-0.2725c-0.1582,0-0.3472,0.0303-0.5669,0.0928l0.1362-1.0068
			c0.334,0.0088,0.5889-0.0635,0.7646-0.2178c0.1758-0.1533,0.2637-0.3574,0.2637-0.6133c0-0.2158-0.0645-0.3887-0.1934-0.5176
			s-0.3003-0.1934-0.5142-0.1934c-0.2109,0-0.3911,0.0732-0.5405,0.2188c-0.1494,0.1475-0.2402,0.3613-0.2725,0.6426l-1.1382-0.1934
			c0.0791-0.3896,0.1982-0.7012,0.3584-0.9346c0.1592-0.2324,0.3818-0.416,0.668-0.5488c0.2852-0.1338,0.6055-0.2002,0.96-0.2002
			c0.6064,0,1.0928,0.1934,1.459,0.5801c0.3018,0.3164,0.4526,0.6738,0.4526,1.0723c0,0.5654-0.3091,1.0166-0.9272,1.3535
			c0.3691,0.0791,0.6641,0.2568,0.8857,0.5313c0.2207,0.2764,0.3315,0.6084,0.3315,0.998c0,0.5654-0.2065,1.0479-0.6196,1.4453
			c-0.4131,0.3994-0.9272,0.5977-1.5425,0.5977c-0.583,0-1.0664-0.167-1.4502-0.5029
			C21.439,20.8105,21.2163,20.3721,21.1548,19.8301z"/>
		<path class="st1" d="M26.4678,21.5391v-1.2344h1.2349v1.2344H26.4678z"/>
		<path class="st1" d="M31.46,21.5391v-6.4424h1.9468l1.1689,4.3945l1.1558-4.3945h1.9512v6.4424h-1.2085v-5.0713l-1.2788,5.0713
			h-1.2524l-1.2744-5.0713v5.0713H31.46z"/>
		<path class="st1" d="M38.7109,18.3574c0-0.6563,0.0981-1.207,0.2944-1.6523c0.1465-0.3281,0.3462-0.6221,0.5996-0.8828
			s0.5313-0.4541,0.833-0.5801c0.4014-0.1699,0.8643-0.2559,1.3887-0.2559c0.9492,0,1.7085,0.2949,2.2783,0.8838
			s0.855,1.4082,0.855,2.4561c0,1.041-0.2827,1.8545-0.8481,2.4414c-0.5654,0.5879-1.3213,0.8809-2.2676,0.8809
			c-0.958,0-1.7197-0.292-2.2852-0.876C38.9937,20.1875,38.7109,19.3828,38.7109,18.3574z M40.0513,18.3135
			c0,0.7295,0.1685,1.2822,0.5054,1.6592c0.3369,0.376,0.7646,0.5645,1.2832,0.5645s0.9438-0.1865,1.2769-0.5605
			c0.332-0.373,0.4985-0.9336,0.4985-1.6807c0-0.7383-0.1621-1.2891-0.4858-1.6523s-0.7534-0.5449-1.2896-0.5449
			s-0.9683,0.1836-1.2964,0.5518C40.2153,17.0176,40.0513,17.5723,40.0513,18.3135z"/>
		<path class="st1" d="M45.9707,15.0967h2.3774c0.5361,0,0.9448,0.041,1.2261,0.123c0.3779,0.1113,0.7012,0.3096,0.9707,0.5928
			c0.2695,0.2852,0.4746,0.6328,0.6152,1.0439c0.1406,0.4121,0.2109,0.9199,0.2109,1.5225c0,0.5313-0.0654,0.9883-0.1973,1.3711
			c-0.1611,0.4697-0.3906,0.8486-0.6895,1.1387c-0.2266,0.2197-0.5308,0.3906-0.9146,0.5137
			c-0.2871,0.0918-0.6709,0.1367-1.1514,0.1367h-2.4478V15.0967z M47.2715,16.1865v4.2666h0.9712
			c0.3633,0,0.6255-0.0195,0.7866-0.0605c0.2109-0.0527,0.3857-0.1426,0.5254-0.2686c0.1387-0.126,0.2524-0.333,0.3403-0.6221
			c0.0879-0.2881,0.1323-0.6816,0.1323-1.1797s-0.0444-0.8799-0.1323-1.1465s-0.2109-0.4746-0.3691-0.625
			c-0.1582-0.1484-0.3589-0.25-0.6021-0.3027c-0.1816-0.041-0.5376-0.0615-1.0679-0.0615H47.2715z"/>
		<path class="st1" d="M52.4746,21.5391v-6.4424h4.7773v1.0898h-3.4766v1.4287h3.2344v1.085h-3.2344v1.7529h3.5996v1.0859H52.4746z"
			/>
		<path class="st1" d="M58.5127,21.5391v-6.3896h1.3008v5.3037h3.2344v1.0859H58.5127z"/>
		<path class="st1" d="M69.7852,21.5391h-1.416l-0.5625-1.4629h-2.5742l-0.5322,1.4629h-1.3799l2.5098-6.4424h1.375L69.7852,21.5391
			z M67.3896,18.9902l-0.8877-2.3906l-0.8701,2.3906H67.3896z"/>
		<path class="st1" d="M70.4707,15.0967h2.377c0.5361,0,0.9453,0.041,1.2266,0.123c0.377,0.1113,0.7012,0.3096,0.9707,0.5928
			c0.2695,0.2852,0.4746,0.6328,0.6152,1.0439c0.1406,0.4121,0.2109,0.9199,0.2109,1.5225c0,0.5313-0.0664,0.9883-0.1973,1.3711
			c-0.1621,0.4697-0.3916,0.8486-0.6904,1.1387c-0.2256,0.2197-0.5303,0.3906-0.9141,0.5137
			c-0.2871,0.0918-0.6709,0.1367-1.1514,0.1367h-2.4473V15.0967z M71.7715,16.1865v4.2666h0.9707
			c0.3633,0,0.625-0.0195,0.7871-0.0605c0.2109-0.0527,0.3848-0.1426,0.5254-0.2686c0.1387-0.126,0.252-0.333,0.3398-0.6221
			c0.0879-0.2881,0.1318-0.6816,0.1318-1.1797s-0.0439-0.8799-0.1318-1.1465s-0.2109-0.4746-0.3691-0.625
			c-0.1582-0.1484-0.3594-0.25-0.6016-0.3027c-0.1816-0.041-0.5381-0.0615-1.0684-0.0615H71.7715z"/>
		<path class="st1" d="M76.7109,18.3574c0-0.6563,0.0977-1.207,0.2939-1.6523c0.1465-0.3281,0.3467-0.6221,0.5996-0.8828
			s0.5313-0.4541,0.833-0.5801c0.4014-0.1699,0.8643-0.2559,1.3887-0.2559c0.9492,0,1.709,0.2949,2.2783,0.8838
			s0.8545,1.4082,0.8545,2.4561c0,1.041-0.2822,1.8545-0.8477,2.4414c-0.5654,0.5879-1.3213,0.8809-2.2676,0.8809
			c-0.958,0-1.7197-0.292-2.2852-0.876C76.9932,20.1875,76.7109,19.3828,76.7109,18.3574z M78.0508,18.3135
			c0,0.7295,0.168,1.2822,0.5059,1.6592c0.3359,0.376,0.7637,0.5645,1.2832,0.5645c0.5176,0,0.9434-0.1865,1.2764-0.5605
			c0.332-0.373,0.499-0.9336,0.499-1.6807c0-0.7383-0.1621-1.2891-0.4863-1.6523s-0.7539-0.5449-1.2891-0.5449
			c-0.5371,0-0.9688,0.1836-1.2969,0.5518C78.2148,17.0176,78.0508,17.5723,78.0508,18.3135z"/>
	</g>
</g>
</svg>
