<?xml version="1.0" encoding="utf-8"?>
<!-- Generator: Adobe Illustrator 21.0.0, SVG Export Plug-In . SVG Version: 6.00 Build 0)  -->
<svg version="1.1" id="Capa_1" xmlns="http://www.w3.org/2000/svg" xmlns:xlink="http://www.w3.org/1999/xlink" x="0px" y="0px"
	 viewBox="0 0 104 38" style="enable-background:new 0 0 104 38;" xml:space="preserve">
<style type="text/css">
	.st0{fill:#75C6F0;}
	.st1{fill:#FFFFFF;}
</style>
<g>
	<rect class="st0" width="104" height="38"/>
	<g>
		<path class="st1" d="M18.3691,21.5391v-1.2969h-2.6367v-1.0801l2.7949-4.0918h1.0371v4.0869h0.7998v1.085h-0.7998v1.2969H18.3691z
			 M18.3691,19.1572v-2.2021l-1.4805,2.2021H18.3691z"/>
		<path class="st1" d="M21.2168,21.5391v-1.2344h1.2344v1.2344H21.2168z"/>
		<path class="st1" d="M26.2227,15.0967h2.377c0.5361,0,0.9453,0.041,1.2266,0.123c0.377,0.1113,0.7012,0.3096,0.9707,0.5928
			c0.2695,0.2852,0.4746,0.6328,0.6152,1.0439c0.1406,0.4121,0.2109,0.9199,0.2109,1.5225c0,0.5313-0.0664,0.9883-0.1973,1.3711
			c-0.1621,0.4697-0.3916,0.8486-0.6904,1.1387c-0.2256,0.2197-0.5303,0.3906-0.9141,0.5137
			c-0.2871,0.0918-0.6709,0.1367-1.1514,0.1367h-2.4473V15.0967z M27.5234,16.1865v4.2666h0.9707
			c0.3633,0,0.625-0.0195,0.7871-0.0605c0.2109-0.0527,0.3848-0.1426,0.5254-0.2686c0.1387-0.126,0.252-0.333,0.3398-0.6221
			c0.0879-0.2881,0.1318-0.6816,0.1318-1.1797s-0.0439-0.8799-0.1318-1.1465s-0.2109-0.4746-0.3691-0.625
			c-0.1582-0.1484-0.3594-0.25-0.6016-0.3027c-0.1816-0.041-0.5381-0.0615-1.0684-0.0615H27.5234z"/>
		<path class="st1" d="M32.7266,21.5391v-6.4424h4.7764v1.0898h-3.4756v1.4287h3.2344v1.085h-3.2344v1.7529h3.5986v1.0859H32.7266z"
			/>
		<path class="st1" d="M38.3994,19.4434l1.2656-0.123c0.0762,0.4248,0.2305,0.7363,0.4639,0.9355
			c0.2324,0.1992,0.5469,0.2988,0.9424,0.2988c0.4189,0,0.7344-0.0889,0.9473-0.2656c0.2119-0.1777,0.3184-0.3848,0.3184-0.6221
			c0-0.1523-0.0449-0.2822-0.1338-0.3887c-0.0898-0.1074-0.2461-0.2002-0.4688-0.2793c-0.1523-0.0527-0.499-0.1465-1.041-0.2813
			c-0.6973-0.1729-1.1865-0.3848-1.4678-0.6377c-0.3955-0.3535-0.5928-0.7861-0.5928-1.2959c0-0.3281,0.0918-0.6348,0.2783-0.9209
			c0.1865-0.2852,0.4541-0.5029,0.8047-0.6523c0.3496-0.1494,0.7725-0.2246,1.2676-0.2246c0.8086,0,1.417,0.1777,1.8262,0.5322
			c0.4082,0.3545,0.623,0.8281,0.6436,1.4189l-1.3008,0.0576c-0.0557-0.3311-0.1758-0.5693-0.3584-0.7139
			c-0.1826-0.1455-0.458-0.2178-0.8232-0.2178c-0.3789,0-0.6738,0.0781-0.8887,0.2334c-0.1367,0.0996-0.2061,0.2324-0.2061,0.3994
			c0,0.1523,0.0645,0.2832,0.1934,0.3916c0.1641,0.1377,0.5625,0.2813,1.1953,0.4297c0.6328,0.1504,1.1006,0.3047,1.4043,0.4639
			c0.3027,0.1602,0.54,0.3779,0.7119,0.6553c0.1709,0.2764,0.2568,0.6191,0.2568,1.0254c0,0.3691-0.1025,0.7158-0.3076,1.0371
			c-0.2051,0.3232-0.4951,0.5625-0.8701,0.7188c-0.375,0.1572-0.8428,0.2354-1.4014,0.2354c-0.8145,0-1.4404-0.1885-1.877-0.5645
			C38.7451,20.7119,38.4844,20.1641,38.3994,19.4434z"/>
		<path class="st1" d="M50.541,21.5391H49.127l-0.5625-1.4629h-2.5762l-0.5313,1.4629h-1.3799l2.5088-6.4424h1.376L50.541,21.5391z
			 M48.1465,18.9902l-0.8877-2.3906l-0.8701,2.3906H48.1465z"/>
		<path class="st1" d="M51.2363,21.5391v-6.4424h2.7373c0.6885,0,1.1885,0.0576,1.501,0.1738
			c0.3125,0.1152,0.5615,0.3213,0.749,0.6172s0.2813,0.6348,0.2813,1.0146c0,0.4844-0.1416,0.8828-0.4268,1.1982
			c-0.2832,0.3145-0.709,0.5137-1.2734,0.5947c0.2813,0.165,0.5127,0.3447,0.6953,0.541c0.1836,0.1963,0.4307,0.5449,0.7412,1.0459
			l0.7861,1.2568h-1.5547l-0.9414-1.4023c-0.334-0.5-0.5625-0.8164-0.6855-0.9463c-0.123-0.1309-0.2529-0.2197-0.3906-0.2686
			c-0.1377-0.0479-0.3555-0.0723-0.6543-0.0723h-0.2637v2.6895H51.2363z M52.5371,17.8213h0.9619
			c0.624,0,1.0137-0.0264,1.1689-0.0791s0.2773-0.1436,0.3652-0.2725s0.1309-0.29,0.1309-0.4834
			c0-0.2168-0.0576-0.3916-0.1738-0.5254c-0.1152-0.1328-0.2783-0.2168-0.4893-0.252c-0.1055-0.0146-0.4219-0.0225-0.9492-0.0225
			h-1.0146V17.8213z"/>
		<path class="st1" d="M57.7354,21.5391v-6.4424h2.7373c0.6895,0,1.1895,0.0576,1.501,0.1738
			c0.3125,0.1152,0.5615,0.3213,0.749,0.6172s0.2813,0.6348,0.2813,1.0146c0,0.4844-0.1416,0.8828-0.4258,1.1982
			c-0.2842,0.3145-0.709,0.5137-1.2744,0.5947c0.2813,0.165,0.5127,0.3447,0.6963,0.541s0.4297,0.5449,0.7402,1.0459l0.7871,1.2568
			h-1.5557l-0.9404-1.4023c-0.334-0.5-0.5625-0.8164-0.6855-0.9463c-0.123-0.1309-0.2539-0.2197-0.3906-0.2686
			c-0.1387-0.0479-0.3564-0.0723-0.6553-0.0723h-0.2637v2.6895H57.7354z M59.0361,17.8213h0.9619
			c0.625,0,1.0137-0.0264,1.1699-0.0791c0.1543-0.0527,0.2764-0.1436,0.3643-0.2725s0.1318-0.29,0.1318-0.4834
			c0-0.2168-0.0586-0.3916-0.1738-0.5254C61.375,16.3281,61.2109,16.2441,61,16.209c-0.1055-0.0146-0.4219-0.0225-0.9492-0.0225
			h-1.0146V17.8213z"/>
		<path class="st1" d="M63.9668,18.3574c0-0.6563,0.0977-1.207,0.2949-1.6523c0.1465-0.3281,0.3457-0.6221,0.5996-0.8828
			c0.2529-0.2607,0.5313-0.4541,0.832-0.5801c0.4023-0.1699,0.8652-0.2559,1.3887-0.2559c0.9492,0,1.709,0.2949,2.2793,0.8838
			c0.5693,0.5889,0.8545,1.4082,0.8545,2.4561c0,1.041-0.2822,1.8545-0.8486,2.4414c-0.5645,0.5879-1.3203,0.8809-2.2676,0.8809
			c-0.957,0-1.7188-0.292-2.2852-0.876C64.25,20.1875,63.9668,19.3828,63.9668,18.3574z M65.3066,18.3135
			c0,0.7295,0.1689,1.2822,0.5059,1.6592c0.3369,0.376,0.7646,0.5645,1.2832,0.5645s0.9434-0.1865,1.2773-0.5605
			c0.332-0.373,0.498-0.9336,0.498-1.6807c0-0.7383-0.1621-1.2891-0.4863-1.6523c-0.3232-0.3633-0.7529-0.5449-1.2891-0.5449
			s-0.9688,0.1836-1.2969,0.5518C65.4707,17.0176,65.3066,17.5723,65.3066,18.3135z"/>
		<path class="st1" d="M71.2656,21.5391v-6.3896h1.3008v5.3037h3.2344v1.0859H71.2656z"/>
		<path class="st1" d="M76.7637,21.5391v-6.3896h1.3008v5.3037h3.2344v1.0859H76.7637z"/>
		<path class="st1" d="M81.9629,18.3574c0-0.6563,0.0977-1.207,0.2939-1.6523c0.1465-0.3281,0.3467-0.6221,0.5996-0.8828
			s0.5313-0.4541,0.833-0.5801c0.4014-0.1699,0.8643-0.2559,1.3887-0.2559c0.9492,0,1.709,0.2949,2.2783,0.8838
			s0.8545,1.4082,0.8545,2.4561c0,1.041-0.2822,1.8545-0.8477,2.4414c-0.5654,0.5879-1.3213,0.8809-2.2676,0.8809
			c-0.958,0-1.7197-0.292-2.2852-0.876C82.2451,20.1875,81.9629,19.3828,81.9629,18.3574z M83.3027,18.3135
			c0,0.7295,0.168,1.2822,0.5059,1.6592c0.3359,0.376,0.7637,0.5645,1.2832,0.5645c0.5176,0,0.9434-0.1865,1.2764-0.5605
			c0.332-0.373,0.499-0.9336,0.499-1.6807c0-0.7383-0.1621-1.2891-0.4863-1.6523s-0.7539-0.5449-1.2891-0.5449
			c-0.5371,0-0.9688,0.1836-1.2969,0.5518C83.4668,17.0176,83.3027,17.5723,83.3027,18.3135z"/>
	</g>
</g>
</svg>
