<?xml version="1.0" encoding="utf-8"?>
<!-- Generator: Adobe Illustrator 21.0.0, SVG Export Plug-In . SVG Version: 6.00 Build 0)  -->
<svg version="1.1" id="Capa_1" xmlns="http://www.w3.org/2000/svg" xmlns:xlink="http://www.w3.org/1999/xlink" x="0px" y="0px"
	 viewBox="0 0 110.9503 167.2219" style="enable-background:new 0 0 110.9503 167.2219;" xml:space="preserve">
<style type="text/css">
	.st0{fill:#8DD7F7;}
	.st1{opacity:0.39;}
	.st2{fill:#3CA5CB;}
	.st3{fill:#FFFFFF;}
	.st4{fill:#42210B;}
</style>
<g>
	<polygon class="st0" points="82.7207,52.4694 110.9503,52.4694 82.7207,24.2397 	"/>
	<polygon class="st1" points="82.7207,52.4694 110.9503,52.4694 82.7207,24.2397 	"/>
	<g>
		<polygon class="st0" points="82.7207,24.2397 82.7207,52.4694 110.9503,52.4694 110.9503,167.2219 0,167.2219 0,24.2397 		"/>
	</g>
</g>
<g id="XMLID_9595_">
	<path id="XMLID_14030_" class="st2" d="M25.6395,104.1488c-1.5844,0-2.8681-1.2837-2.8681-2.8681V49.915
		c0-1.5844,1.2837-2.8681,2.8681-2.8681c1.5844,0,2.8681,1.2837,2.8681,2.8681v51.3657
		C28.5076,102.865,27.2239,104.1488,25.6395,104.1488z"/>
	<path id="XMLID_14029_" class="st2" d="M71.8389,100.4761H31.3758v-9.6016h40.4632c1.4131,0,2.5587,1.1456,2.5587,2.5587v4.4842
		C74.3976,99.3305,73.252,100.4761,71.8389,100.4761z"/>
	<path id="XMLID_13728_" class="st2" d="M61.3701,77.49H31.3758v9.6014h29.9944c1.413,0,2.5586-1.1456,2.5586-2.5586v-4.4843
		C63.9287,78.6354,62.7831,77.49,61.3701,77.49z M61.0606,84.2233H34.2439V80.358h26.8167V84.2233z"/>
	<path id="XMLID_10588_" class="st2" d="M74.3976,71.1482v-4.4843c0-1.413-1.1456-2.5586-2.5587-2.5586H31.3758v9.6014h40.4632
		C73.252,73.7068,74.3976,72.5612,74.3976,71.1482z M71.5295,70.8387H34.2439v-3.8652h37.2856V70.8387z"/>
	<path id="XMLID_9694_" class="st2" d="M56.5423,60.3223H31.3758v-9.6016h25.1666c1.413,0,2.5586,1.1456,2.5586,2.5587v4.4842
		C59.1009,59.1767,57.9553,60.3223,56.5423,60.3223z"/>
</g>
<rect x="20.205" y="135.4697" class="st3" width="77.4409" height="8.7742"/>
<rect x="20.5558" y="119.4475" class="st3" width="77.441" height="8.774"/>
<g>
	<g>
		<path class="st4" d="M8.0602,12.377V0.208h9.0234v2.0586h-6.5664v2.6982h6.1094v2.0498h-6.1094v3.3115h6.7988v2.0508H8.0602z"/>
		<path class="st4" d="M19.3835,12.377V0.208h2.332V12.377H19.3835z"/>
		<path class="st4" d="M25.8493,6.251l-2.1162-0.3818c0.2383-0.8525,0.6475-1.4834,1.2285-1.8926s1.4443-0.6143,2.5898-0.6143
			c1.04,0,1.8154,0.123,2.3242,0.3691s0.8672,0.5596,1.0752,0.9385c0.207,0.3789,0.3105,1.0742,0.3105,2.0879L31.237,9.4805
			c0,0.7744,0.0371,1.3457,0.1123,1.7139c0.0742,0.3682,0.2139,0.7617,0.4189,1.1826h-2.3076
			c-0.0605-0.1553-0.1357-0.3848-0.2246-0.6895c-0.0381-0.1377-0.0664-0.2295-0.082-0.2734
			c-0.3984,0.3877-0.8252,0.6777-1.2793,0.8711c-0.4531,0.1943-0.9375,0.291-1.4521,0.291c-0.9072,0-1.623-0.2461-2.1455-0.7383
			c-0.5234-0.4932-0.7852-1.1152-0.7852-1.8682c0-0.498,0.1191-0.9424,0.3574-1.332c0.2383-0.3906,0.5713-0.6895,1-0.8965
			c0.4287-0.208,1.0479-0.3887,1.8555-0.5439c1.0898-0.2051,1.8457-0.3955,2.2656-0.5723V6.3926c0-0.4492-0.1104-0.7686-0.332-0.959
			c-0.2207-0.1914-0.6387-0.2871-1.2529-0.2871c-0.415,0-0.7393,0.082-0.9717,0.2451S25.9938,5.8418,25.8493,6.251z M28.9704,8.1436
			C28.6715,8.2432,28.1989,8.3623,27.5514,8.5c-0.6475,0.1387-1.0713,0.2744-1.2705,0.4072
			c-0.3037,0.2158-0.4561,0.4893-0.4561,0.8213c0,0.3271,0.1221,0.6094,0.3652,0.8477c0.2432,0.2373,0.5537,0.3564,0.9297,0.3564
			c0.4209,0,0.8213-0.1387,1.2041-0.415c0.2813-0.21,0.4668-0.4678,0.5557-0.7715c0.0605-0.1992,0.0908-0.5791,0.0908-1.1377V8.1436
			z"/>
		<path class="st4" d="M33.4616,12.377V0.208h2.332v4.3828c0.7197-0.8193,1.5713-1.2285,2.5566-1.2285
			c1.0732,0,1.9619,0.3887,2.6641,1.166c0.7031,0.7773,1.0547,1.8945,1.0547,3.3496c0,1.5049-0.3584,2.665-1.0752,3.4775
			c-0.7168,0.8145-1.5869,1.2207-2.6104,1.2207c-0.5039,0-1-0.126-1.4902-0.3779c-0.4893-0.252-0.9111-0.624-1.2656-1.1162v1.2949
			H33.4616z M35.777,7.7783c0,0.9131,0.1436,1.5879,0.4316,2.0254c0.4043,0.6201,0.9404,0.9297,1.6104,0.9297
			c0.5146,0,0.9531-0.2197,1.3154-0.6602c0.3623-0.4395,0.5439-1.1328,0.5439-2.0791c0-1.0068-0.1826-1.7334-0.5479-2.1787
			s-0.833-0.6689-1.4033-0.6689c-0.5586,0-1.0234,0.2178-1.3945,0.6523C35.9626,6.2334,35.777,6.8926,35.777,7.7783z"/>
		<path class="st4" d="M43.4049,7.8447c0-0.7744,0.1904-1.5244,0.5732-2.249c0.3809-0.7256,0.9219-1.2793,1.6221-1.6602
			c0.7002-0.3828,1.4814-0.5732,2.3447-0.5732c1.334,0,2.4268,0.4326,3.2793,1.2988s1.2783,1.9609,1.2783,3.2832
			c0,1.334-0.4307,2.4395-1.291,3.3164s-1.9434,1.3154-3.249,1.3154c-0.8086,0-1.5791-0.1826-2.3125-0.5479
			s-1.291-0.9004-1.6719-1.6064C43.5954,9.7168,43.4049,8.8574,43.4049,7.8447z M45.7956,7.9688c0,0.875,0.208,1.5449,0.6221,2.0098
			c0.416,0.4648,0.9277,0.6973,1.5361,0.6973s1.1191-0.2324,1.5313-0.6973s0.6182-1.1406,0.6182-2.0254
			c0-0.8633-0.2061-1.5273-0.6182-1.9922s-0.9229-0.6973-1.5313-0.6973s-1.1201,0.2324-1.5361,0.6973
			C46.0036,6.4258,45.7956,7.0947,45.7956,7.9688z"/>
		<path class="st4" d="M56.5622,12.377h-2.332V3.5615h2.166v1.2529c0.3711-0.5918,0.7041-0.9814,1-1.1699
			s0.6328-0.2822,1.0088-0.2822c0.5313,0,1.043,0.1465,1.5361,0.4404l-0.7227,2.0332c-0.3926-0.2549-0.7578-0.3818-1.0957-0.3818
			c-0.3262,0-0.6035,0.0898-0.8301,0.2695s-0.4053,0.5049-0.5352,0.9756s-0.1953,1.4551-0.1953,2.9551V12.377z"/>
		<path class="st4" d="M62.6872,6.251L60.571,5.8691c0.2383-0.8525,0.6475-1.4834,1.2285-1.8926s1.4443-0.6143,2.5898-0.6143
			c1.04,0,1.8154,0.123,2.3242,0.3691s0.8672,0.5596,1.0752,0.9385c0.207,0.3789,0.3105,1.0742,0.3105,2.0879l-0.0244,2.7227
			c0,0.7744,0.0371,1.3457,0.1123,1.7139c0.0742,0.3682,0.2139,0.7617,0.4189,1.1826h-2.3076
			c-0.0605-0.1553-0.1357-0.3848-0.2246-0.6895c-0.0381-0.1377-0.0664-0.2295-0.082-0.2734
			c-0.3984,0.3877-0.8252,0.6777-1.2793,0.8711c-0.4531,0.1943-0.9375,0.291-1.4522,0.291c-0.9072,0-1.623-0.2461-2.1455-0.7383
			c-0.5234-0.4932-0.7852-1.1152-0.7852-1.8682c0-0.498,0.1191-0.9424,0.3574-1.332c0.2383-0.3906,0.5713-0.6895,1-0.8965
			c0.4287-0.208,1.0479-0.3887,1.8555-0.5439c1.0898-0.2051,1.8457-0.3955,2.2656-0.5723V6.3926c0-0.4492-0.1104-0.7686-0.332-0.959
			c-0.2207-0.1914-0.6387-0.2871-1.2529-0.2871c-0.415,0-0.7393,0.082-0.9717,0.2451S62.8317,5.8418,62.6872,6.251z M65.8083,8.1436
			C65.5094,8.2432,65.0368,8.3623,64.3893,8.5c-0.6475,0.1387-1.0713,0.2744-1.2705,0.4072
			c-0.3037,0.2158-0.4561,0.4893-0.4561,0.8213c0,0.3271,0.1221,0.6094,0.3652,0.8477c0.2432,0.2373,0.5537,0.3564,0.9297,0.3564
			c0.4209,0,0.8213-0.1387,1.2041-0.415c0.2813-0.21,0.4668-0.4678,0.5557-0.7715c0.0605-0.1992,0.0908-0.5791,0.0908-1.1377V8.1436
			z"/>
		<path class="st4" d="M78.0856,6.168l-2.2988,0.415c-0.0771-0.459-0.2529-0.8057-0.5273-1.0381
			c-0.2734-0.2324-0.6289-0.3477-1.0664-0.3477c-0.5811,0-1.0449,0.2002-1.3906,0.6016s-0.5186,1.0723-0.5186,2.0127
			c0,1.0459,0.1758,1.7842,0.5273,2.2158s0.8232,0.6484,1.415,0.6484c0.4424,0,0.8047-0.126,1.0879-0.3779
			c0.2813-0.252,0.4805-0.6846,0.5977-1.2998l2.291,0.3906c-0.2383,1.0518-0.6953,1.8457-1.3701,2.3828
			c-0.6748,0.5361-1.5801,0.8047-2.7139,0.8047c-1.29,0-2.3174-0.4063-3.084-1.2207c-0.7666-0.8125-1.1504-1.9395-1.1504-3.3779
			c0-1.4551,0.3848-2.5889,1.1543-3.3994s1.8096-1.2158,3.1211-1.2158c1.0732,0,1.9268,0.2314,2.5605,0.6934
			S77.8092,5.2217,78.0856,6.168z"/>
		<path class="st4" d="M79.8551,2.3662V0.208h2.332v2.1582H79.8551z M79.8551,12.377V3.5615h2.332v8.8154H79.8551z"/>
		<path class="st4" d="M84.0378,7.8447c0-0.7744,0.1904-1.5244,0.5732-2.249c0.3809-0.7256,0.9219-1.2793,1.6221-1.6602
			c0.7002-0.3828,1.4814-0.5732,2.3447-0.5732c1.334,0,2.4268,0.4326,3.2793,1.2988s1.2783,1.9609,1.2783,3.2832
			c0,1.334-0.4307,2.4395-1.291,3.3164s-1.9434,1.3154-3.249,1.3154c-0.8086,0-1.5791-0.1826-2.3125-0.5479
			s-1.291-0.9004-1.6719-1.6064C84.2282,9.7168,84.0378,8.8574,84.0378,7.8447z M86.4284,7.9688c0,0.875,0.208,1.5449,0.6221,2.0098
			c0.416,0.4648,0.9277,0.6973,1.5361,0.6973s1.1191-0.2324,1.5313-0.6973s0.6182-1.1406,0.6182-2.0254
			c0-0.8633-0.2061-1.5273-0.6182-1.9922s-0.9229-0.6973-1.5313-0.6973s-1.1201,0.2324-1.5361,0.6973
			C86.6364,6.4258,86.4284,7.0947,86.4284,7.9688z M87.4079,2.4824L88.5534,0h2.6143l-2.2822,2.4824H87.4079z"/>
		<path class="st4" d="M102.9801,12.377h-2.332v-4.499c0-0.9521-0.0498-1.5674-0.1494-1.8467s-0.2617-0.4971-0.4854-0.6523
			c-0.2246-0.1543-0.4941-0.2324-0.8096-0.2324c-0.4043,0-0.7666,0.1113-1.0869,0.332c-0.3213,0.2217-0.541,0.5156-0.6602,0.8809
			s-0.1787,1.04-0.1787,2.0254v3.9922h-2.333V3.5615h2.167v1.2949c0.7695-0.9961,1.7373-1.4941,2.9053-1.4941
			c0.5146,0,0.9854,0.0928,1.4111,0.2783s0.748,0.4219,0.9668,0.709c0.2188,0.2881,0.3711,0.6152,0.457,0.9805
			s0.1279,0.8877,0.1279,1.5684V12.377z"/>
	</g>
</g>
</svg>
