<?xml version="1.0" encoding="utf-8"?>
<!-- Generator: Adobe Illustrator 21.0.0, SVG Export Plug-In . SVG Version: 6.00 Build 0)  -->
<svg version="1.1" id="Capa_1" xmlns="http://www.w3.org/2000/svg" xmlns:xlink="http://www.w3.org/1999/xlink" x="0px" y="0px"
	 viewBox="0 0 104 38" style="enable-background:new 0 0 104 38;" xml:space="preserve">
<style type="text/css">
	.st0{fill:#75C6F0;}
	.st1{fill:#FFFFFF;}
</style>
<g>
	<rect class="st0" width="104" height="38"/>
	<g>
		<path class="st1" d="M21.8672,20.3926v1.1465h-4.3286c0.0469-0.4336,0.1875-0.8447,0.4219-1.2324
			c0.2344-0.3887,0.6973-0.9033,1.3887-1.5449c0.5566-0.5186,0.8979-0.8701,1.0239-1.0547
			c0.1699-0.2549,0.2549-0.5068,0.2549-0.7559c0-0.2754-0.0742-0.4873-0.2217-0.6348c-0.1484-0.1484-0.3525-0.2227-0.6133-0.2227
			c-0.2578,0-0.4629,0.0781-0.6152,0.2334s-0.2402,0.4131-0.2637,0.7734l-1.2305-0.123c0.0732-0.6797,0.3032-1.167,0.6899-1.4639
			c0.3867-0.2949,0.8701-0.4434,1.4502-0.4434c0.6357,0,1.1353,0.1719,1.4985,0.5137c0.3633,0.3438,0.5449,0.7695,0.5449,1.2793
			c0,0.29-0.0522,0.5664-0.1563,0.8281c-0.104,0.2627-0.2686,0.5371-0.4941,0.8242c-0.1494,0.1904-0.4189,0.4648-0.8086,0.8223
			s-0.6367,0.5947-0.7402,0.7109c-0.1045,0.1182-0.1885,0.2324-0.2529,0.3438H21.8672z"/>
		<path class="st1" d="M22.9658,21.5391v-1.2344h1.2349v1.2344H22.9658z"/>
		<path class="st1" d="M27.9756,21.5391v-6.4424h2.0874c0.791,0,1.3066,0.0322,1.5469,0.0967
			c0.3691,0.0967,0.6782,0.3066,0.9272,0.6309c0.249,0.3232,0.3735,0.7422,0.3735,1.2539c0,0.3965-0.0718,0.7285-0.2153,0.998
			s-0.3262,0.4814-0.5474,0.6348c-0.2212,0.1543-0.4458,0.2559-0.6743,0.3057c-0.3105,0.0615-0.7603,0.0928-1.3491,0.0928h-0.8481
			v2.4297H27.9756z M29.2764,16.1865v1.8281h0.7119c0.5127,0,0.8555-0.0332,1.0283-0.1006s0.3081-0.1729,0.4067-0.3164
			c0.0977-0.1436,0.147-0.3105,0.147-0.502c0-0.2334-0.0688-0.4268-0.2065-0.5801c-0.1377-0.1514-0.312-0.2471-0.5229-0.2852
			c-0.1553-0.0293-0.4673-0.0439-0.936-0.0439H29.2764z"/>
		<path class="st1" d="M34.0137,21.5391v-6.3896h1.3008v5.3037h3.2344v1.0859H34.0137z"/>
		<path class="st1" d="M45.2856,21.5391h-1.415l-0.5625-1.4629h-2.5752l-0.5317,1.4629h-1.3799l2.5093-6.4424h1.3755
			L45.2856,21.5391z M42.8906,18.9902l-0.8877-2.3906l-0.8701,2.3906H42.8906z"/>
		<path class="st1" d="M45.9888,21.5391v-6.4424h1.2656l2.6367,4.3018v-4.3018h1.2085v6.4424h-1.3052l-2.5972-4.2012v4.2012H45.9888
			z"/>
		<path class="st1" d="M52.4751,21.5391v-6.4424h4.7769v1.0898h-3.4761v1.4287h3.2344v1.085h-3.2344v1.7529h3.5991v1.0859H52.4751z"
			/>
		<path class="st1" d="M64.2876,21.5391h-1.415l-0.5625-1.4629h-2.5752l-0.5317,1.4629h-1.3799l2.5093-6.4424h1.3755
			L64.2876,21.5391z M61.8926,18.9902l-0.8877-2.3906l-0.8701,2.3906H61.8926z"/>
		<path class="st1" d="M69.0996,19.1699l1.2612,0.4004c-0.1934,0.7031-0.5151,1.2256-0.9648,1.5664
			c-0.4497,0.3418-1.02,0.5117-1.7114,0.5117c-0.8555,0-1.5586-0.292-2.1094-0.876c-0.5508-0.585-0.8262-1.3838-0.8262-2.3975
			c0-1.0723,0.2769-1.9053,0.8306-2.498c0.5537-0.5938,1.2817-0.8906,2.1841-0.8906c0.7881,0,1.4282,0.2334,1.9204,0.6992
			c0.293,0.2754,0.5127,0.6709,0.6592,1.1865l-1.2876,0.3076c-0.0762-0.334-0.2349-0.5977-0.4771-0.791
			c-0.2412-0.1934-0.5352-0.29-0.8809-0.29c-0.4775,0-0.8652,0.1709-1.1621,0.5146c-0.2979,0.3418-0.4463,0.8975-0.4463,1.665
			c0,0.8145,0.1465,1.3945,0.4395,1.7402s0.6738,0.5186,1.1426,0.5186c0.3457,0,0.6431-0.1094,0.8921-0.3301
			C68.8125,19.9883,68.9912,19.6426,69.0996,19.1699z"/>
		<path class="st1" d="M71.4375,21.5391v-6.4424h1.3008v6.4424H71.4375z"/>
		<path class="st1" d="M73.7139,18.3574c0-0.6563,0.0981-1.207,0.2944-1.6523c0.1465-0.3281,0.3462-0.6221,0.5996-0.8828
			s0.5313-0.4541,0.833-0.5801c0.4014-0.1699,0.8643-0.2559,1.3887-0.2559c0.9492,0,1.7085,0.2949,2.2783,0.8838
			s0.855,1.4082,0.855,2.4561c0,1.041-0.2827,1.8545-0.8481,2.4414c-0.5654,0.5879-1.3213,0.8809-2.2676,0.8809
			c-0.958,0-1.7197-0.292-2.2852-0.876C73.9966,20.1875,73.7139,19.3828,73.7139,18.3574z M75.0542,18.3135
			c0,0.7295,0.1685,1.2822,0.5054,1.6592c0.3369,0.376,0.7646,0.5645,1.2832,0.5645s0.9438-0.1865,1.2769-0.5605
			c0.332-0.373,0.4985-0.9336,0.4985-1.6807c0-0.7383-0.1621-1.2891-0.4858-1.6523s-0.7534-0.5449-1.2896-0.5449
			s-0.9683,0.1836-1.2964,0.5518C75.2183,17.0176,75.0542,17.5723,75.0542,18.3135z M76.0386,14.7275l0.6064-1.3135h1.3843
			l-1.2085,1.3135H76.0386z"/>
		<path class="st1" d="M80.9912,21.5391v-6.4424h1.2656l2.6367,4.3018v-4.3018h1.2085v6.4424h-1.3052l-2.5972-4.2012v4.2012H80.9912
			z"/>
	</g>
</g>
</svg>
