<?xml version="1.0" encoding="utf-8"?>
<!-- Generator: Adobe Illustrator 16.0.0, SVG Export Plug-In . SVG Version: 6.00 Build 0)  -->
<!DOCTYPE svg PUBLIC "-//W3C//DTD SVG 1.1//EN" "http://www.w3.org/Graphics/SVG/1.1/DTD/svg11.dtd">
<svg version="1.1" id="Capa_1" xmlns="http://www.w3.org/2000/svg" xmlns:xlink="http://www.w3.org/1999/xlink" x="0px" y="0px"
	 width="16.5449px" height="135.6611px" viewBox="0 0 16.5449 135.6611" enable-background="new 0 0 16.5449 135.6611"
	 xml:space="preserve">
<g id="XMLID_9504_">
	<path id="XMLID_9505_" fill="#FFDC3C" stroke="#42210B" stroke-miterlimit="10" d="M8.2568,0.5718
		c4.2939,0.6025,7.7783,4.8477,7.7881,9.4814s-3.4629,7.8994-7.7578,7.2959C3.9961,16.7466,0.5088,12.5034,0.5,7.8687
		C0.4902,3.2339,3.9629-0.0317,8.2568,0.5718L8.2568,0.5718z"/>
</g>
<path id="XMLID_9521_" fill="#42210B" d="M8.0352,135.1279l1.3018-0.0098l0.0039,0.5352l-1.3018,0.0078L8.0352,135.1279z
	 M7.9795,127.3174l1.3018-0.0098l0.0273,3.9063l-1.3008,0.0078L7.9795,127.3174z M7.9238,119.5068l1.3018-0.0098l0.0273,3.9063
	l-1.3018,0.0078L7.9238,119.5068z M7.8672,111.6963l1.3018-0.0078l0.0283,3.9043l-1.3018,0.0098L7.8672,111.6963z M7.8115,103.8857
	l1.3018-0.0078l0.0283,3.9043l-1.3018,0.0098L7.8115,103.8857z M7.7559,96.0771l1.3018-0.0098l0.0273,3.9043l-1.3018,0.0098
	L7.7559,96.0771z M7.6992,88.2666l1.3027-0.0098l0.0273,3.9063l-1.3018,0.0078L7.6992,88.2666z M7.6436,80.4561l1.3018-0.0098
	l0.0283,3.9063l-1.3018,0.0078L7.6436,80.4561z M7.5879,72.6455l1.3018-0.0078L8.918,76.542l-1.3018,0.0098L7.5879,72.6455z
	 M7.5322,64.8354l1.3018-0.0088l0.0273,3.9048l-1.3018,0.0098L7.5322,64.8354z M7.4756,57.0249l1.3018-0.0088l0.0283,3.9053
	l-1.3018,0.0088L7.4756,57.0249z M7.4199,49.2153l1.3018-0.0088L8.75,53.1118l-1.3018,0.0088L7.4199,49.2153z M7.3643,41.4048
	L8.666,41.396l0.0273,3.9053l-1.3008,0.0088L7.3643,41.4048z M7.3086,33.5952l1.3008-0.0098l0.0283,3.9053l-1.3018,0.0088
	L7.3086,33.5952z"/>
<g>
</g>
<g>
</g>
<g>
</g>
<g>
</g>
<g>
</g>
<g>
</g>
<g>
</g>
<g>
</g>
<g>
</g>
<g>
</g>
<g>
</g>
<g>
</g>
<g>
</g>
<g>
</g>
<g>
</g>
</svg>
