<?xml version="1.0" encoding="utf-8"?>
<!-- Generator: Adobe Illustrator 16.0.0, SVG Export Plug-In . SVG Version: 6.00 Build 0)  -->
<!DOCTYPE svg PUBLIC "-//W3C//DTD SVG 1.1//EN" "http://www.w3.org/Graphics/SVG/1.1/DTD/svg11.dtd">
<svg version="1.1" id="Capa_1" xmlns="http://www.w3.org/2000/svg" xmlns:xlink="http://www.w3.org/1999/xlink" x="0px" y="0px"
	 width="40.5454px" height="74.8569px" viewBox="0 0 40.5454 74.8569" enable-background="new 0 0 40.5454 74.8569"
	 xml:space="preserve">
<g id="XMLID_9444_">
	<polygon id="XMLID_9445_" fill="#006496" points="29.4546,71.312 30.3804,70.98 29.6187,16.0918 28.3159,16.1045 29.0698,69.939 
		5.6904,66.4858 5.5,67.7749 	"/>
	<g id="XMLID_9446_">
		<path id="XMLID_9447_" fill="#FFDC3C" stroke="#42210B" stroke-miterlimit="10" d="M29.2612,0.5996
			c5.9473,0.8359,10.7715,6.7139,10.7832,13.1289c0.0137,6.416-4.7949,10.9385-10.7402,10.1035
			c-5.9434-0.8359-10.7715-6.7129-10.7832-13.1289C18.5073,4.2881,23.3179-0.2363,29.2612,0.5996L29.2612,0.5996z"/>
	</g>
	<g id="XMLID_9448_">
		<path id="XMLID_9449_" fill="#58595B" stroke="#42210B" stroke-miterlimit="10" d="M7.6611,58.8022
			c3.9639,0.5566,7.1816,4.4746,7.1885,8.752c0.0088,4.2773-3.1963,7.293-7.1602,6.7363C3.7275,73.7339,0.5078,69.8159,0.5,65.5366
			C0.4912,61.2612,3.6982,58.2456,7.6611,58.8022L7.6611,58.8022z"/>
	</g>
</g>
<g>
</g>
<g>
</g>
<g>
</g>
<g>
</g>
<g>
</g>
<g>
</g>
<g>
</g>
<g>
</g>
<g>
</g>
<g>
</g>
<g>
</g>
<g>
</g>
<g>
</g>
<g>
</g>
<g>
</g>
</svg>
