<?xml version="1.0" encoding="utf-8"?>
<!-- Generator: Adobe Illustrator 21.0.0, SVG Export Plug-In . SVG Version: 6.00 Build 0)  -->
<svg version="1.1" id="Capa_1" xmlns="http://www.w3.org/2000/svg" xmlns:xlink="http://www.w3.org/1999/xlink" x="0px" y="0px"
	 viewBox="0 0 104 38" style="enable-background:new 0 0 104 38;" xml:space="preserve">
<style type="text/css">
	.st0{fill:#75C6F0;}
	.st1{fill:#FFFFFF;}
</style>
<g>
	<rect class="st0" width="104" height="38"/>
	<g>
		<path class="st1" d="M13.3027,19.8828l1.2305-0.1279c0.0352,0.2783,0.1387,0.499,0.3115,0.6611
			c0.1729,0.1631,0.3721,0.2441,0.5977,0.2441c0.2578,0,0.4756-0.1045,0.6553-0.3145c0.1777-0.209,0.2676-0.5254,0.2676-0.9473
			c0-0.3945-0.0889-0.6914-0.2656-0.8896c-0.1777-0.1973-0.4082-0.2959-0.6924-0.2959c-0.3545,0-0.6729,0.1563-0.9541,0.4697
			l-1.002-0.1455l0.6328-3.3525h3.2656v1.1553h-2.3291l-0.1934,1.0947c0.2754-0.1377,0.5566-0.2061,0.8438-0.2061
			c0.5479,0,1.0127,0.1992,1.3936,0.5977s0.5703,0.915,0.5703,1.5508c0,0.5303-0.1533,1.0039-0.4609,1.4199
			c-0.4189,0.5684-1,0.8516-1.7441,0.8516c-0.5957,0-1.0801-0.1592-1.4551-0.4785S13.375,20.4219,13.3027,19.8828z"/>
		<path class="st1" d="M18.5537,21.5391v-1.2344h1.2354v1.2344H18.5537z"/>
		<path class="st1" d="M23.5234,21.5391v-6.4424h1.3008v6.4424H23.5234z"/>
		<path class="st1" d="M26.0469,21.5391v-6.4424h1.9463l1.1689,4.3945l1.1563-4.3945h1.9512v6.4424h-1.209v-5.0713l-1.2793,5.0713
			h-1.252l-1.2744-5.0713v5.0713H26.0469z"/>
		<path class="st1" d="M33.5605,21.5391v-6.4424h2.0879c0.791,0,1.3066,0.0322,1.5469,0.0967
			C37.5645,15.29,37.873,15.5,38.123,15.8242c0.248,0.3232,0.373,0.7422,0.373,1.2539c0,0.3965-0.0723,0.7285-0.2148,0.998
			c-0.1445,0.2695-0.3262,0.4814-0.5479,0.6348c-0.2217,0.1543-0.4463,0.2559-0.6748,0.3057
			c-0.3105,0.0615-0.7598,0.0928-1.3486,0.0928h-0.8486v2.4297H33.5605z M34.8613,16.1865v1.8281h0.7129
			c0.5117,0,0.8555-0.0332,1.0273-0.1006c0.1738-0.0674,0.3086-0.1729,0.4072-0.3164c0.0977-0.1436,0.1475-0.3105,0.1475-0.502
			c0-0.2334-0.0693-0.4268-0.207-0.5801c-0.1377-0.1514-0.3125-0.2471-0.5234-0.2852c-0.1543-0.0293-0.4668-0.0439-0.9355-0.0439
			H34.8613z"/>
		<path class="st1" d="M39.5996,21.5391v-6.3896h1.3008v5.3037h3.2344v1.0859H39.5996z"/>
		<path class="st1" d="M50.8711,21.5391h-1.415l-0.5625-1.4629h-2.5752l-0.5313,1.4629h-1.3809l2.5098-6.4424h1.375L50.8711,21.5391
			z M48.4766,18.9902l-0.8887-2.3906l-0.8691,2.3906H48.4766z"/>
		<path class="st1" d="M51.5742,21.5391v-6.4424h1.2656l2.6367,4.3018v-4.3018h1.209v6.4424h-1.3057l-2.5967-4.2012v4.2012H51.5742z
			"/>
		<path class="st1" d="M59.5107,21.5391v-5.3525h-1.9111v-1.0898h5.1191v1.0898h-1.9072v5.3525H59.5107z"/>
		<path class="st1" d="M68.6992,21.5391h-1.4141l-0.5625-1.4629h-2.5762l-0.5313,1.4629h-1.3799l2.5088-6.4424h1.376
			L68.6992,21.5391z M66.3047,18.9902l-0.8877-2.3906l-0.8701,2.3906H66.3047z"/>
		<path class="st1" d="M73.5117,19.1699l1.2617,0.4004c-0.1934,0.7031-0.5156,1.2256-0.9648,1.5664
			c-0.4502,0.3418-1.0205,0.5117-1.7119,0.5117c-0.8555,0-1.5586-0.292-2.1094-0.876c-0.5508-0.585-0.8262-1.3838-0.8262-2.3975
			c0-1.0723,0.2764-1.9053,0.8311-2.498c0.5527-0.5938,1.2813-0.8906,2.1836-0.8906c0.7881,0,1.4277,0.2334,1.9199,0.6992
			c0.293,0.2754,0.5137,0.6709,0.6602,1.1865l-1.2881,0.3076c-0.0762-0.334-0.2354-0.5977-0.4775-0.791
			c-0.2402-0.1934-0.5352-0.29-0.8809-0.29c-0.4766,0-0.8652,0.1709-1.1621,0.5146c-0.2969,0.3418-0.4453,0.8975-0.4453,1.665
			c0,0.8145,0.1465,1.3945,0.4395,1.7402s0.6738,0.5186,1.1426,0.5186c0.3457,0,0.6426-0.1094,0.8916-0.3301
			C73.2246,19.9883,73.4033,19.6426,73.5117,19.1699z"/>
		<path class="st1" d="M75.8496,21.5391v-6.4424h1.3008v6.4424H75.8496z"/>
		<path class="st1" d="M78.126,18.3574c0-0.6563,0.0986-1.207,0.2939-1.6523c0.1465-0.3281,0.3467-0.6221,0.5996-0.8828
			c0.2539-0.2607,0.5313-0.4541,0.834-0.5801c0.4004-0.1699,0.8633-0.2559,1.3887-0.2559c0.9492,0,1.708,0.2949,2.2773,0.8838
			c0.5703,0.5889,0.8555,1.4082,0.8555,2.4561c0,1.041-0.2832,1.8545-0.8477,2.4414c-0.5664,0.5879-1.3223,0.8809-2.2676,0.8809
			c-0.959,0-1.7207-0.292-2.2852-0.876C78.4082,20.1875,78.126,19.3828,78.126,18.3574z M79.4668,18.3135
			c0,0.7295,0.168,1.2822,0.5049,1.6592c0.3369,0.376,0.7646,0.5645,1.2832,0.5645s0.9443-0.1865,1.2764-0.5605
			c0.332-0.373,0.499-0.9336,0.499-1.6807c0-0.7383-0.1621-1.2891-0.4854-1.6523c-0.3242-0.3633-0.7539-0.5449-1.29-0.5449
			s-0.9678,0.1836-1.2959,0.5518C79.6309,17.0176,79.4668,17.5723,79.4668,18.3135z M80.4512,14.7275l0.6055-1.3135h1.3848
			l-1.209,1.3135H80.4512z"/>
		<path class="st1" d="M85.4033,21.5391v-6.4424h1.2656l2.6367,4.3018v-4.3018h1.208v6.4424H89.209l-2.5977-4.2012v4.2012H85.4033z"
			/>
	</g>
</g>
</svg>
