<?xml version="1.0" encoding="utf-8"?>
<!-- Generator: Adobe Illustrator 21.0.0, SVG Export Plug-In . SVG Version: 6.00 Build 0)  -->
<svg version="1.1" id="Capa_1" xmlns="http://www.w3.org/2000/svg" xmlns:xlink="http://www.w3.org/1999/xlink" x="0px" y="0px"
	 viewBox="0 0 124 48" style="enable-background:new 0 0 124 48;" xml:space="preserve">
<style type="text/css">
	.st0{fill:#75C6F0;}
	.st1{fill:#FFFFFF;}
</style>
<g>
	<rect class="st0" width="124" height="48"/>
	<g>
		<path class="st1" d="M14.8516,21.5391h-1.2349v-4.6543c-0.4512,0.4219-0.9829,0.7344-1.5952,0.9365v-1.1201
			c0.3223-0.1055,0.6724-0.3057,1.0503-0.6006c0.3779-0.2939,0.6372-0.6377,0.7778-1.0303h1.002V21.5391z"/>
		<path class="st1" d="M16.9609,21.5391v-1.2344h1.2349v1.2344H16.9609z"/>
		<path class="st1" d="M21.9707,21.5391v-6.4424h4.7769v1.0898h-3.4761v1.4287h3.2344v1.085h-3.2344v1.7529h3.5991v1.0859H21.9707z"
			/>
		<path class="st1" d="M27.644,19.4434l1.2656-0.123c0.0762,0.4248,0.2305,0.7363,0.4639,0.9355
			c0.2324,0.1992,0.5469,0.2988,0.9424,0.2988c0.4189,0,0.7344-0.0889,0.9473-0.2656c0.2119-0.1777,0.3184-0.3848,0.3184-0.6221
			c0-0.1523-0.0449-0.2822-0.1338-0.3887c-0.0898-0.1074-0.2456-0.2002-0.4683-0.2793c-0.1523-0.0527-0.4995-0.1465-1.0415-0.2813
			c-0.6973-0.1729-1.1865-0.3848-1.4678-0.6377c-0.3955-0.3535-0.5933-0.7861-0.5933-1.2959c0-0.3281,0.0928-0.6348,0.2788-0.9209
			c0.186-0.2852,0.4541-0.5029,0.8047-0.6523c0.3496-0.1494,0.7725-0.2246,1.2676-0.2246c0.8086,0,1.417,0.1777,1.8262,0.5322
			c0.4082,0.3545,0.623,0.8281,0.6436,1.4189l-1.3008,0.0576c-0.0557-0.3311-0.1753-0.5693-0.3584-0.7139
			c-0.1831-0.1455-0.4575-0.2178-0.8237-0.2178c-0.3779,0-0.6738,0.0781-0.8877,0.2334c-0.1377,0.0996-0.2065,0.2324-0.2065,0.3994
			c0,0.1523,0.0645,0.2832,0.1934,0.3916c0.1641,0.1377,0.5625,0.2813,1.1953,0.4297c0.6328,0.1504,1.1006,0.3047,1.4043,0.4639
			c0.3027,0.1602,0.54,0.3779,0.7119,0.6553c0.1709,0.2764,0.2568,0.6191,0.2568,1.0254c0,0.3691-0.1025,0.7158-0.3076,1.0371
			c-0.2051,0.3232-0.4951,0.5625-0.8701,0.7188c-0.375,0.1572-0.8423,0.2354-1.4019,0.2354c-0.8145,0-1.4399-0.1885-1.8765-0.5645
			C27.9897,20.7119,27.729,20.1641,27.644,19.4434z"/>
		<path class="st1" d="M33.9766,21.5391v-6.4424h2.0874c0.791,0,1.3066,0.0322,1.5469,0.0967
			C37.98,15.29,38.2891,15.5,38.5381,15.8242c0.249,0.3232,0.3735,0.7422,0.3735,1.2539c0,0.3965-0.0718,0.7285-0.2153,0.998
			s-0.3262,0.4814-0.5474,0.6348c-0.2212,0.1543-0.4458,0.2559-0.6743,0.3057c-0.3105,0.0615-0.7603,0.0928-1.3491,0.0928h-0.8481
			v2.4297H33.9766z M35.2773,16.1865v1.8281h0.7119c0.5127,0,0.8555-0.0332,1.0283-0.1006s0.3081-0.1729,0.4067-0.3164
			c0.0977-0.1436,0.147-0.3105,0.147-0.502c0-0.2334-0.0688-0.4268-0.2065-0.5801c-0.1377-0.1514-0.312-0.2471-0.5229-0.2852
			c-0.1553-0.0293-0.4673-0.0439-0.936-0.0439H35.2773z"/>
		<path class="st1" d="M39.9795,21.5391v-6.4424h4.7769v1.0898h-3.4761v1.4287h3.2344v1.085h-3.2344v1.7529h3.5991v1.0859H39.9795z"
			/>
		<path class="st1" d="M50.1045,19.1699l1.2612,0.4004c-0.1934,0.7031-0.5151,1.2256-0.9648,1.5664
			c-0.4497,0.3418-1.02,0.5117-1.7114,0.5117c-0.8555,0-1.5586-0.292-2.1094-0.876c-0.5508-0.585-0.8262-1.3838-0.8262-2.3975
			c0-1.0723,0.2769-1.9053,0.8306-2.498c0.5537-0.5938,1.2817-0.8906,2.1841-0.8906c0.7881,0,1.4282,0.2334,1.9204,0.6992
			c0.293,0.2754,0.5127,0.6709,0.6592,1.1865l-1.2876,0.3076c-0.0762-0.334-0.2349-0.5977-0.4771-0.791
			c-0.2412-0.1934-0.5352-0.29-0.8809-0.29c-0.4775,0-0.8652,0.1709-1.1621,0.5146c-0.2979,0.3418-0.4463,0.8975-0.4463,1.665
			c0,0.8145,0.1465,1.3945,0.4395,1.7402s0.6738,0.5186,1.1426,0.5186c0.3457,0,0.6431-0.1094,0.8921-0.3301
			C49.8174,19.9883,49.9961,19.6426,50.1045,19.1699z"/>
		<path class="st1" d="M52.4424,21.5391v-6.4424h1.3008v6.4424H52.4424z"/>
		<path class="st1" d="M54.9912,21.5391v-6.4424h4.4165v1.0898H56.292v1.5244h2.6895v1.0898H56.292v2.7383H54.9912z"/>
		<path class="st1" d="M60.4404,21.5391v-6.4424h1.3008v6.4424H60.4404z"/>
		<path class="st1" d="M67.1025,19.1699l1.2612,0.4004c-0.1934,0.7031-0.5151,1.2256-0.9648,1.5664
			c-0.4497,0.3418-1.02,0.5117-1.7114,0.5117c-0.8555,0-1.5586-0.292-2.1094-0.876c-0.5508-0.585-0.8262-1.3838-0.8262-2.3975
			c0-1.0723,0.2769-1.9053,0.8306-2.498c0.5537-0.5938,1.2817-0.8906,2.1841-0.8906c0.7881,0,1.4282,0.2334,1.9204,0.6992
			c0.293,0.2754,0.5127,0.6709,0.6592,1.1865l-1.2876,0.3076c-0.0762-0.334-0.2349-0.5977-0.4771-0.791
			c-0.2412-0.1934-0.5352-0.29-0.8809-0.29c-0.4775,0-0.8652,0.1709-1.1621,0.5146c-0.2979,0.3418-0.4463,0.8975-0.4463,1.665
			c0,0.8145,0.1465,1.3945,0.4395,1.7402s0.6738,0.5186,1.1426,0.5186c0.3457,0,0.6431-0.1094,0.8921-0.3301
			C66.8154,19.9883,66.9941,19.6426,67.1025,19.1699z"/>
		<path class="st1" d="M75.2896,21.5391h-1.415l-0.5625-1.4629h-2.5752l-0.5317,1.4629h-1.3799l2.5093-6.4424H72.71L75.2896,21.5391
			z M72.8945,18.9902l-0.8877-2.3906l-0.8701,2.3906H72.8945z"/>
		<path class="st1" d="M80.1016,19.1699l1.2612,0.4004c-0.1934,0.7031-0.5151,1.2256-0.9648,1.5664
			c-0.4497,0.3418-1.02,0.5117-1.7114,0.5117c-0.8555,0-1.5586-0.292-2.1094-0.876c-0.5508-0.585-0.8262-1.3838-0.8262-2.3975
			c0-1.0723,0.2769-1.9053,0.8306-2.498c0.5537-0.5938,1.2817-0.8906,2.1841-0.8906c0.7881,0,1.4282,0.2334,1.9204,0.6992
			c0.293,0.2754,0.5127,0.6709,0.6592,1.1865l-1.2876,0.3076c-0.0762-0.334-0.2349-0.5977-0.4771-0.791
			c-0.2412-0.1934-0.5352-0.29-0.8809-0.29c-0.4775,0-0.8652,0.1709-1.1621,0.5146c-0.2979,0.3418-0.4463,0.8975-0.4463,1.665
			c0,0.8145,0.1465,1.3945,0.4395,1.7402s0.6738,0.5186,1.1426,0.5186c0.3457,0,0.6431-0.1094,0.8921-0.3301
			C79.8145,19.9883,79.9932,19.6426,80.1016,19.1699z"/>
		<path class="st1" d="M82.4395,21.5391v-6.4424h1.3008v6.4424H82.4395z"/>
		<path class="st1" d="M84.7158,18.3574c0-0.6563,0.0981-1.207,0.2944-1.6523c0.1465-0.3281,0.3462-0.6221,0.5996-0.8828
			s0.5313-0.4541,0.833-0.5801c0.4014-0.1699,0.8643-0.2559,1.3887-0.2559c0.9492,0,1.7085,0.2949,2.2783,0.8838
			s0.855,1.4082,0.855,2.4561c0,1.041-0.2827,1.8545-0.8481,2.4414c-0.5654,0.5879-1.3213,0.8809-2.2676,0.8809
			c-0.958,0-1.7197-0.292-2.2852-0.876C84.9985,20.1875,84.7158,19.3828,84.7158,18.3574z M86.0562,18.3135
			c0,0.7295,0.1685,1.2822,0.5054,1.6592c0.3369,0.376,0.7646,0.5645,1.2832,0.5645s0.9438-0.1865,1.2769-0.5605
			c0.332-0.373,0.4985-0.9336,0.4985-1.6807c0-0.7383-0.1621-1.2891-0.4858-1.6523s-0.7534-0.5449-1.2896-0.5449
			s-0.9683,0.1836-1.2964,0.5518C86.2202,17.0176,86.0562,17.5723,86.0562,18.3135z M87.0405,14.7275l0.6064-1.3135h1.3843
			l-1.2085,1.3135H87.0405z"/>
		<path class="st1" d="M91.9932,21.5391v-6.4424h1.2656l2.6367,4.3018v-4.3018h1.2085v6.4424h-1.3052l-2.5972-4.2012v4.2012H91.9932
			z"/>
		<path class="st1" d="M100.9756,15.0967h2.3774c0.5361,0,0.9448,0.041,1.2261,0.123c0.3779,0.1113,0.7017,0.3096,0.9712,0.5928
			c0.2695,0.2852,0.4746,0.6328,0.6152,1.0439c0.1406,0.4121,0.2109,0.9199,0.2109,1.5225c0,0.5313-0.0659,0.9883-0.1978,1.3711
			c-0.1611,0.4697-0.3911,0.8486-0.6899,1.1387c-0.2256,0.2197-0.5303,0.3906-0.9141,0.5137
			c-0.2871,0.0918-0.6709,0.1367-1.1514,0.1367h-2.4478V15.0967z M102.2764,16.1865v4.2666h0.9712
			c0.3633,0,0.6255-0.0195,0.7866-0.0605c0.2109-0.0527,0.3857-0.1426,0.5254-0.2686c0.1387-0.126,0.2524-0.333,0.3403-0.6221
			c0.0879-0.2881,0.1318-0.6816,0.1318-1.1797s-0.0439-0.8799-0.1318-1.1465s-0.2109-0.4746-0.3691-0.625
			c-0.1582-0.1484-0.3589-0.25-0.6021-0.3027c-0.1816-0.041-0.5376-0.0615-1.0679-0.0615H102.2764z"/>
		<path class="st1" d="M107.4795,21.5391v-6.4424h4.7769v1.0898h-3.4761v1.4287h3.2344v1.085h-3.2344v1.7529h3.5991v1.0859H107.4795
			z"/>
		<path class="st1" d="M21.8057,32.3389v-6.4424h2.7378c0.6885,0,1.189,0.0576,1.5005,0.1738
			c0.3125,0.1152,0.562,0.3213,0.7495,0.6172s0.2813,0.6348,0.2813,1.0146c0,0.4844-0.1421,0.8828-0.4263,1.1982
			c-0.2842,0.3145-0.709,0.5137-1.2744,0.5947c0.2813,0.165,0.5132,0.3447,0.6963,0.541s0.4302,0.5449,0.7407,1.0459l0.7866,1.2568
			H26.042l-0.9404-1.4023c-0.334-0.5-0.5625-0.8164-0.6855-0.9463c-0.123-0.1309-0.2534-0.2197-0.3911-0.2686
			c-0.1377-0.0479-0.356-0.0723-0.6548-0.0723h-0.2637v2.6895H21.8057z M23.1064,28.6211h0.9624
			c0.624,0,1.0137-0.0264,1.1689-0.0791s0.2769-0.1436,0.3647-0.2725s0.1318-0.29,0.1318-0.4834
			c0-0.2168-0.0581-0.3916-0.1738-0.5254c-0.1157-0.1328-0.2788-0.2168-0.4897-0.252c-0.1055-0.0146-0.4219-0.0225-0.9492-0.0225
			h-1.0151V28.6211z"/>
		<path class="st1" d="M28.3008,32.3389v-6.4424h4.7769v1.0898h-3.4761v1.4287h3.2344V29.5h-3.2344v1.7529h3.5991v1.0859H28.3008z"
			/>
		<path class="st1" d="M39.4893,31.5215c0.3193,0.2285,0.6665,0.4102,1.0415,0.5449l-0.479,0.9189
			c-0.1963-0.0596-0.3882-0.1396-0.5757-0.2422c-0.041-0.0205-0.3296-0.2109-0.8657-0.5713
			c-0.4219,0.1846-0.8892,0.2764-1.4019,0.2764c-0.9902,0-1.7661-0.291-2.3271-0.874S34.04,30.1729,34.04,29.1182
			c0-1.0518,0.2813-1.8701,0.8438-2.4551c0.5625-0.584,1.3257-0.877,2.2896-0.877c0.9551,0,1.7124,0.293,2.272,0.877
			c0.5596,0.585,0.8394,1.4033,0.8394,2.4551c0,0.5566-0.0776,1.0449-0.2329,1.4668
			C39.9346,30.9082,39.7471,31.2197,39.4893,31.5215z M38.4434,30.7881c0.167-0.1963,0.2925-0.4336,0.3755-0.7129
			c0.084-0.2773,0.1255-0.5977,0.1255-0.957c0-0.7441-0.1641-1.3008-0.4922-1.668c-0.3281-0.3682-0.7573-0.5518-1.2876-0.5518
			s-0.96,0.1846-1.29,0.5537c-0.3291,0.3691-0.4941,0.9248-0.4941,1.666c0,0.7529,0.165,1.3154,0.4941,1.6895
			c0.3301,0.373,0.7466,0.5605,1.2505,0.5605c0.1875,0,0.3647-0.0313,0.5317-0.0928c-0.2637-0.1729-0.5317-0.3076-0.8042-0.4043
			l0.3647-0.7432C37.645,30.2754,38.0537,30.4951,38.4434,30.7881z"/>
		<path class="st1" d="M41.2954,25.8965h1.3008v3.4893c0,0.5537,0.0161,0.9131,0.0483,1.0762
			c0.0557,0.2637,0.188,0.4756,0.3975,0.6357c0.2095,0.1592,0.4961,0.2393,0.8594,0.2393c0.3691,0,0.6475-0.0752,0.835-0.2266
			c0.1875-0.1504,0.3003-0.3359,0.3384-0.5557s0.0571-0.585,0.0571-1.0947v-3.5635h1.3008v3.3838
			c0,0.7734-0.0352,1.3203-0.1055,1.6387c-0.0703,0.3203-0.2002,0.5898-0.3887,0.8086c-0.1895,0.2207-0.4419,0.3955-0.7583,0.5254
			c-0.3164,0.1309-0.7295,0.1953-1.2393,0.1953c-0.6152,0-1.082-0.0703-1.3999-0.2129c-0.3179-0.1416-0.5688-0.3262-0.7534-0.5537
			c-0.1846-0.2266-0.3062-0.4648-0.3647-0.7139c-0.085-0.3691-0.1274-0.9141-0.1274-1.6348V25.8965z"/>
		<path class="st1" d="M47.8037,32.3389v-6.4424h4.7769v1.0898h-3.4761v1.4287h3.2344V29.5h-3.2344v1.7529h3.5991v1.0859H47.8037z"
			/>
		<path class="st1" d="M53.811,32.3389v-6.4424h2.7378c0.6885,0,1.189,0.0576,1.5005,0.1738
			c0.3125,0.1152,0.562,0.3213,0.7495,0.6172s0.2813,0.6348,0.2813,1.0146c0,0.4844-0.1421,0.8828-0.4263,1.1982
			c-0.2842,0.3145-0.709,0.5137-1.2744,0.5947c0.2813,0.165,0.5132,0.3447,0.6963,0.541s0.4302,0.5449,0.7407,1.0459l0.7866,1.2568
			h-1.5557l-0.9404-1.4023c-0.334-0.5-0.5625-0.8164-0.6855-0.9463c-0.123-0.1309-0.2534-0.2197-0.3911-0.2686
			c-0.1377-0.0479-0.356-0.0723-0.6548-0.0723h-0.2637v2.6895H53.811z M55.1118,28.6211h0.9624c0.624,0,1.0137-0.0264,1.1689-0.0791
			s0.2769-0.1436,0.3647-0.2725s0.1318-0.29,0.1318-0.4834c0-0.2168-0.0581-0.3916-0.1738-0.5254
			c-0.1157-0.1328-0.2788-0.2168-0.4897-0.252c-0.1055-0.0146-0.4219-0.0225-0.9492-0.0225h-1.0151V28.6211z"/>
		<path class="st1" d="M60.2666,32.3389v-6.4424h1.3008v6.4424H60.2666z"/>
		<path class="st1" d="M62.7891,32.3389v-6.4424h1.9468l1.1689,4.3945l1.1558-4.3945h1.9512v6.4424h-1.2085v-5.0713l-1.2788,5.0713
			H65.272l-1.2744-5.0713v5.0713H62.7891z"/>
		<path class="st1" d="M70.2642,32.3389v-6.4424h1.3008v6.4424H70.2642z"/>
		<path class="st1" d="M72.8042,32.3389v-6.4424h4.7769v1.0898H74.105v1.4287h3.2344V29.5H74.105v1.7529h3.5991v1.0859H72.8042z"/>
		<path class="st1" d="M78.8203,32.3389v-6.4424h1.2656l2.6367,4.3018v-4.3018h1.2085v6.4424H82.626l-2.5972-4.2012v4.2012H78.8203z
			"/>
		<path class="st1" d="M86.7568,32.3389v-5.3525h-1.9116v-1.0898h5.1196v1.0898h-1.9072v5.3525H86.7568z"/>
		<path class="st1" d="M90.3779,29.1572c0-0.6563,0.0981-1.207,0.2944-1.6523c0.1465-0.3281,0.3462-0.6221,0.5996-0.8828
			s0.5313-0.4541,0.833-0.5801c0.4014-0.1699,0.8643-0.2559,1.3887-0.2559c0.9492,0,1.7085,0.2949,2.2783,0.8838
			s0.855,1.4082,0.855,2.4561c0,1.041-0.2827,1.8545-0.8481,2.4414c-0.5654,0.5879-1.3213,0.8809-2.2676,0.8809
			c-0.958,0-1.7197-0.292-2.2852-0.876C90.6606,30.9873,90.3779,30.1826,90.3779,29.1572z M91.7183,29.1133
			c0,0.7295,0.1685,1.2822,0.5054,1.6592c0.3369,0.376,0.7646,0.5645,1.2832,0.5645s0.9438-0.1865,1.2769-0.5605
			c0.332-0.373,0.4985-0.9336,0.4985-1.6807c0-0.7383-0.1621-1.2891-0.4858-1.6523s-0.7534-0.5449-1.2896-0.5449
			s-0.9683,0.1836-1.2964,0.5518C91.8823,27.8174,91.7183,28.3721,91.7183,29.1133z"/>
		<path class="st1" d="M97.3125,30.2432l1.2656-0.123c0.0762,0.4248,0.2305,0.7363,0.4639,0.9355
			c0.2324,0.1992,0.5469,0.2988,0.9424,0.2988c0.4189,0,0.7344-0.0889,0.9473-0.2656c0.2119-0.1777,0.3184-0.3848,0.3184-0.6221
			c0-0.1523-0.0449-0.2822-0.1338-0.3887c-0.0898-0.1074-0.2456-0.2002-0.4683-0.2793c-0.1523-0.0527-0.4995-0.1465-1.0415-0.2813
			c-0.6973-0.1729-1.1865-0.3848-1.4678-0.6377c-0.3955-0.3535-0.5933-0.7861-0.5933-1.2959c0-0.3281,0.0928-0.6348,0.2788-0.9209
			c0.186-0.2852,0.4541-0.5029,0.8047-0.6523c0.3496-0.1494,0.7725-0.2246,1.2676-0.2246c0.8086,0,1.417,0.1777,1.8262,0.5322
			c0.4082,0.3545,0.623,0.8281,0.6436,1.4189l-1.3008,0.0576c-0.0557-0.3311-0.1753-0.5693-0.3584-0.7139
			c-0.1831-0.1455-0.4575-0.2178-0.8237-0.2178c-0.3779,0-0.6738,0.0781-0.8877,0.2334c-0.1377,0.0996-0.2065,0.2324-0.2065,0.3994
			c0,0.1523,0.0645,0.2832,0.1934,0.3916c0.1641,0.1377,0.5625,0.2813,1.1953,0.4297c0.6328,0.1504,1.1006,0.3047,1.4043,0.4639
			c0.3027,0.1602,0.54,0.3779,0.7119,0.6553c0.1709,0.2764,0.2568,0.6191,0.2568,1.0254c0,0.3691-0.1025,0.7158-0.3076,1.0371
			c-0.2051,0.3232-0.4951,0.5625-0.8701,0.7188c-0.375,0.1572-0.8423,0.2354-1.4019,0.2354c-0.8145,0-1.4399-0.1885-1.8765-0.5645
			C97.6582,31.5117,97.3975,30.9639,97.3125,30.2432z"/>
	</g>
</g>
</svg>
