<?xml version="1.0" encoding="utf-8"?>
<!-- Generator: Adobe Illustrator 21.0.0, SVG Export Plug-In . SVG Version: 6.00 Build 0)  -->
<svg version="1.1" id="Capa_1" xmlns="http://www.w3.org/2000/svg" xmlns:xlink="http://www.w3.org/1999/xlink" x="0px" y="0px"
	 viewBox="0 0 110.9505 167.2218" style="enable-background:new 0 0 110.9505 167.2218;" xml:space="preserve">
<style type="text/css">
	.st0{fill:#8DD7F7;}
	.st1{fill:#FFFFFF;}
	.st2{fill:#3CA5CB;}
	.st3{fill:#42210B;}
</style>
<g>
	<g>
		<g>
			<polygon class="st0" points="82.7207,167.2218 110.9505,167.2218 110.9505,138.9921 110.9505,24.2396 0,24.2396 0,167.2218 			
				"/>
		</g>
	</g>
	<g>
		<polygon class="st1" points="88.5968,81.1035 86.3079,81.1035 86.3079,71.6417 56.5265,71.6417 56.5265,69.3528 88.5968,69.3528 
					"/>
	</g>
	<g>
		<rect x="47.7654" y="101.3973" class="st1" width="39.6868" height="2.2889"/>
	</g>
	<rect x="15.3525" y="120.4711" class="st1" width="77.441" height="8.7742"/>
	<rect x="15.7035" y="136.4933" class="st1" width="77.4409" height="8.7742"/>
	<g id="XMLID_577_">
		<path id="XMLID_8775_" class="st1" d="M54.4189,81.1036h10.8684c-1.582-8.8991-8.6196-15.9257-17.5218-17.507v10.8413
			C50.8543,75.5609,53.2914,78.0186,54.4189,81.1036z"/>
		<path id="XMLID_579_" class="st2" d="M54.4189,83.3567c-0.9462,0-1.7916-0.5911-2.1164-1.4797
			c-0.9085-2.486-2.8428-4.4257-5.3068-5.3216c-0.8905-0.3237-1.4834-1.17-1.4834-2.1176v-6.1171
			c-1.378-0.3048-2.8047-0.4775-4.273-0.4775c-10.914,0-19.7933,8.8794-19.7933,19.7933c0,10.914,8.8793,19.7933,19.7933,19.7933
			c10.9139,0,19.7932-8.8793,19.7932-19.7933c0-1.4707-0.1733-2.8997-0.479-4.2799H54.4189z M41.2393,95.4128
			c-4.2879,0-7.7762-3.4884-7.7762-7.7762s3.4884-7.7762,7.7762-7.7762s7.7762,3.4884,7.7762,7.7762
			S45.5272,95.4128,41.2393,95.4128z"/>
	</g>
	<g>
		<g>
			<path class="st3" d="M15.8556,7.9023l2.3818,0.7559c-0.3652,1.3281-0.9727,2.3145-1.8223,2.959
				c-0.8496,0.6445-1.9268,0.9668-3.2334,0.9668c-1.6152,0-2.9434-0.5518-3.9844-1.6553c-1.04-1.1045-1.5605-2.6133-1.5605-4.5283
				c0-2.0254,0.5234-3.5986,1.5693-4.7188C10.2521,0.5605,11.6271,0,13.3322,0c1.4883,0,2.6973,0.4404,3.627,1.3203
				c0.5537,0.5205,0.9688,1.2676,1.2451,2.2412l-2.4326,0.5811c-0.1436-0.6309-0.4434-1.1289-0.9004-1.4941
				c-0.4561-0.3652-1.0107-0.5479-1.6641-0.5479c-0.9023,0-1.6338,0.3232-2.1953,0.9717c-0.5615,0.6465-0.8428,1.6953-0.8428,3.1455
				c0,1.5381,0.2764,2.6338,0.8301,3.2871s1.2725,0.9795,2.1582,0.9795c0.6533,0,1.2148-0.207,1.6846-0.623
				C15.3127,9.4473,15.6506,8.7939,15.8556,7.9023z"/>
			<path class="st3" d="M19.7902,7.8447c0-0.7744,0.1904-1.5244,0.5732-2.249c0.3809-0.7256,0.9219-1.2793,1.6221-1.6602
				c0.7002-0.3828,1.4814-0.5732,2.3447-0.5732c1.334,0,2.4268,0.4326,3.2793,1.2988s1.2783,1.9609,1.2783,3.2832
				c0,1.334-0.4307,2.4395-1.291,3.3164s-1.9434,1.3154-3.249,1.3154c-0.8086,0-1.5791-0.1826-2.3125-0.5479
				s-1.291-0.9004-1.6719-1.6064C19.9806,9.7168,19.7902,8.8574,19.7902,7.8447z M22.1808,7.9688
				c0,0.875,0.208,1.5449,0.6221,2.0098c0.416,0.4648,0.9277,0.6973,1.5361,0.6973s1.1191-0.2324,1.5313-0.6973
				s0.6182-1.1406,0.6182-2.0254c0-0.8633-0.2061-1.5273-0.6182-1.9922s-0.9229-0.6973-1.5313-0.6973s-1.1201,0.2324-1.5361,0.6973
				C22.3889,6.4258,22.1808,7.0947,22.1808,7.9688z"/>
			<path class="st3" d="M38.7316,12.377h-2.332v-4.499c0-0.9521-0.0498-1.5674-0.1494-1.8467s-0.2617-0.4971-0.4854-0.6523
				c-0.2246-0.1543-0.4941-0.2324-0.8096-0.2324c-0.4043,0-0.7666,0.1113-1.0869,0.332c-0.3213,0.2217-0.541,0.5156-0.6602,0.8809
				s-0.1787,1.04-0.1787,2.0254v3.9922h-2.333V3.5615h2.167v1.2949c0.7695-0.9961,1.7373-1.4941,2.9053-1.4941
				c0.5146,0,0.9854,0.0928,1.4111,0.2783s0.748,0.4219,0.9668,0.709c0.2188,0.2881,0.3711,0.6152,0.457,0.9805
				s0.1279,0.8877,0.1279,1.5684V12.377z"/>
			<path class="st3" d="M48.7834,6.168l-2.2988,0.415c-0.0771-0.459-0.2529-0.8057-0.5273-1.0381
				c-0.2734-0.2324-0.6289-0.3477-1.0664-0.3477c-0.5811,0-1.0449,0.2002-1.3906,0.6016s-0.5186,1.0723-0.5186,2.0127
				c0,1.0459,0.1758,1.7842,0.5273,2.2158s0.8232,0.6484,1.415,0.6484c0.4424,0,0.8047-0.126,1.0879-0.3779
				c0.2813-0.252,0.4805-0.6846,0.5977-1.2998l2.291,0.3906c-0.2383,1.0518-0.6953,1.8457-1.3701,2.3828
				c-0.6748,0.5361-1.5801,0.8047-2.7139,0.8047c-1.29,0-2.3174-0.4063-3.084-1.2207c-0.7666-0.8125-1.1504-1.9395-1.1504-3.3779
				c0-1.4551,0.3848-2.5889,1.1543-3.3994s1.8096-1.2158,3.1211-1.2158c1.0732,0,1.9268,0.2314,2.5605,0.6934
				S48.507,5.2217,48.7834,6.168z"/>
			<path class="st3" d="M55.6574,9.5713l2.3242,0.3896c-0.2988,0.8525-0.7705,1.502-1.415,1.9473s-1.4512,0.668-2.4199,0.668
				c-1.5332,0-2.667-0.501-3.4033-1.502c-0.5811-0.8027-0.8721-1.8154-0.8721-3.0391c0-1.4609,0.3828-2.6045,1.1465-3.4316
				s1.7285-1.2412,2.8965-1.2412c1.3115,0,2.3467,0.4326,3.1045,1.2988s1.1201,2.1934,1.0869,3.9805h-5.8438
				c0.0176,0.6914,0.2051,1.2295,0.5645,1.6143c0.3604,0.3848,0.8086,0.5771,1.3457,0.5771c0.3652,0,0.6719-0.0996,0.9209-0.2988
				S55.5305,10.0137,55.6574,9.5713z M55.7902,7.2139c-0.0166-0.6748-0.1904-1.1885-0.5225-1.54s-0.7363-0.5273-1.2129-0.5273
				c-0.5088,0-0.9297,0.1855-1.2617,0.5566s-0.4951,0.874-0.4893,1.5107H55.7902z"/>
			<path class="st3" d="M59.9416,3.5615h2.1738v1.2949c0.2832-0.4424,0.6641-0.8027,1.1465-1.0791
				c0.4805-0.2764,1.0146-0.415,1.6016-0.415c1.0234,0,1.8926,0.4014,2.6064,1.2041c0.7139,0.8018,1.0713,1.9199,1.0713,3.3535
				c0,1.4717-0.3604,2.6152-1.0801,3.4316c-0.7188,0.8164-1.5908,1.2246-2.6143,1.2246c-0.4873,0-0.9287-0.0967-1.3242-0.291
				c-0.3955-0.1934-0.8115-0.5254-1.249-0.9961v4.4414h-2.332V3.5615z M62.2482,7.8203c0,0.9902,0.1973,1.7217,0.5898,2.1953
				c0.3926,0.4727,0.8711,0.709,1.4355,0.709c0.543,0,0.9941-0.2168,1.3535-0.6514s0.5391-1.1465,0.5391-2.1377
				c0-0.9238-0.1846-1.6094-0.5557-2.0586c-0.3711-0.4473-0.8301-0.6719-1.3779-0.6719c-0.5703,0-1.043,0.2197-1.4199,0.6602
				C62.4367,6.3047,62.2482,6.957,62.2482,7.8203z"/>
			<path class="st3" d="M78.0773,6.168l-2.2988,0.415c-0.0771-0.459-0.2529-0.8057-0.5273-1.0381
				c-0.2734-0.2324-0.6289-0.3477-1.0664-0.3477c-0.5811,0-1.0449,0.2002-1.3906,0.6016s-0.5186,1.0723-0.5186,2.0127
				c0,1.0459,0.1758,1.7842,0.5273,2.2158s0.8232,0.6484,1.415,0.6484c0.4424,0,0.8047-0.126,1.0879-0.3779
				c0.2813-0.252,0.4805-0.6846,0.5977-1.2998l2.291,0.3906c-0.2383,1.0518-0.6953,1.8457-1.3701,2.3828
				c-0.6748,0.5361-1.5801,0.8047-2.7139,0.8047c-1.29,0-2.3174-0.4063-3.084-1.2207c-0.7666-0.8125-1.1504-1.9395-1.1504-3.3779
				c0-1.4551,0.3848-2.5889,1.1543-3.3994s1.8096-1.2158,3.1211-1.2158c1.0732,0,1.9268,0.2314,2.5605,0.6934
				S77.801,5.2217,78.0773,6.168z"/>
			<path class="st3" d="M79.8459,2.3662V0.208h2.332v2.1582H79.8459z M79.8459,12.377V3.5615h2.332v8.8154H79.8459z"/>
			<path class="st3" d="M84.0295,7.8447c0-0.7744,0.1904-1.5244,0.5732-2.249c0.3809-0.7256,0.9219-1.2793,1.6221-1.6602
				c0.7002-0.3828,1.4814-0.5732,2.3447-0.5732c1.334,0,2.4268,0.4326,3.2793,1.2988s1.2783,1.9609,1.2783,3.2832
				c0,1.334-0.4307,2.4395-1.291,3.3164s-1.9434,1.3154-3.249,1.3154c-0.8086,0-1.5791-0.1826-2.3125-0.5479
				s-1.291-0.9004-1.6719-1.6064C84.2199,9.7168,84.0295,8.8574,84.0295,7.8447z M86.4201,7.9688
				c0,0.875,0.208,1.5449,0.6221,2.0098c0.416,0.4648,0.9277,0.6973,1.5361,0.6973s1.1191-0.2324,1.5313-0.6973
				s0.6182-1.1406,0.6182-2.0254c0-0.8633-0.2061-1.5273-0.6182-1.9922s-0.9229-0.6973-1.5313-0.6973s-1.1201,0.2324-1.5361,0.6973
				C86.6281,6.4258,86.4201,7.0947,86.4201,7.9688z M87.3996,2.4824L88.5451,0h2.6143l-2.2822,2.4824H87.3996z"/>
			<path class="st3" d="M102.9709,12.377h-2.332v-4.499c0-0.9521-0.0498-1.5674-0.1494-1.8467s-0.2617-0.4971-0.4854-0.6523
				c-0.2246-0.1543-0.4941-0.2324-0.8096-0.2324c-0.4043,0-0.7666,0.1113-1.0869,0.332c-0.3213,0.2217-0.541,0.5156-0.6602,0.8809
				s-0.1787,1.04-0.1787,2.0254v3.9922h-2.333V3.5615h2.167v1.2949c0.7695-0.9961,1.7373-1.4941,2.9053-1.4941
				c0.5146,0,0.9854,0.0928,1.4111,0.2783s0.748,0.4219,0.9668,0.709c0.2188,0.2881,0.3711,0.6152,0.457,0.9805
				s0.1279,0.8877,0.1279,1.5684V12.377z"/>
		</g>
	</g>
</g>
</svg>
