<?xml version="1.0" encoding="utf-8"?>
<!-- Generator: Adobe Illustrator 19.0.0, SVG Export Plug-In . SVG Version: 6.00 Build 0)  -->
<svg version="1.1" id="Capa_1" xmlns="http://www.w3.org/2000/svg" xmlns:xlink="http://www.w3.org/1999/xlink" x="0px" y="0px"
	 viewBox="-220.3 288.4 107.6 102.3" style="enable-background:new -220.3 288.4 107.6 102.3;" xml:space="preserve">
<style type="text/css">
	.st0{fill:url(#XMLID_2_);}
	.st1{fill:#2F2622;}
</style>
<g id="XMLID_1533_">
	<radialGradient id="XMLID_2_" cx="-166.4406" cy="339.5441" r="52.4977" gradientUnits="userSpaceOnUse">
		<stop  offset="0" style="stop-color:#FFD564"/>
		<stop  offset="5.630332e-002" style="stop-color:#FED157"/>
		<stop  offset="0.1957" style="stop-color:#FDC83B"/>
		<stop  offset="0.347" style="stop-color:#FCC126"/>
		<stop  offset="0.5142" style="stop-color:#FBBC17"/>
		<stop  offset="0.7093" style="stop-color:#FAB90E"/>
		<stop  offset="1" style="stop-color:#FAB80B"/>
	</radialGradient>
	<ellipse id="XMLID_1829_" class="st0" cx="-166.4" cy="339.5" rx="53.8" ry="51.1"/>
	<g id="XMLID_1784_">
		<path id="XMLID_1785_" class="st1" d="M-123.8,358.2l-5-6.2c-0.4-0.5-0.9-0.4-0.9-0.4l-5.5,0.1c-0.9-0.6-1.5-1.3-1.7-2.1
			c-0.1-0.6,0.1-1.1,0.1-1.1l0,0c0.4-1,0.4-1.8,0-2.5c-0.6-1-1.8-1.3-1.9-1.3c-1.6-0.6-2.2-1.5-2.2-1.5l0,0l0,0
			c-0.7-0.7-1.5-1.1-2.3-1.4c-0.6-0.2-1.3-0.3-1.9-0.3c-0.6,0-1.2,0.2-1.5,0.3l0.2-2.4l3,0.1l0-0.1l0.1,0l0,0.1l0.6,0
			c0.6-0.1,0.7-1.8,0.7-1.8l0.7-25.6c0-1.4-1.5-1.7-1.5-1.7l-1,0l0,0.1l-0.1,0l0-0.1l-51.8-0.2l0,0.1l-0.2,0l0-0.1
			c-2.4,0-2.3,1.9-2.3,1.9l0,25.9c0,1.5,1.3,1.5,1.3,1.5l0-0.1l0.1,0l0,0.1l5.2,0l-0.1,5l-4.1,0c-1.4,0-2,0.7-2,0.7l-6.9,11
			c-1.2,1.3-0.6,4.4-0.6,4.4l68.3-0.1c0.1-1.8-0.4-4.1-0.4-4.1l-5.3-11.5c-0.7-0.9-1.2-0.8-1.2-0.8l-3.2,0l0.1-1.7
			c0.2-0.1,0.8-0.4,1.6-0.4c1.3-0.1,2.6,0.5,3.8,1.5c0.1,0.2,0.8,1.1,2.5,1.7l0,0l0,0c0,0,1.1,0.2,1.6,1.1c0.3,0.5,0.3,1.2,0,2.1
			c0,0.1-0.2,0.6-0.1,1.3c0.1,0.4,0.3,0.9,0.6,1.3c0.2,0.3,0.5,0.5,0.8,0.8l-0.1,0c-0.3,0-0.5,0.3-0.5,0.3l-0.3,2.7
			c-0.1,0.5,0.2,0.7,0.2,0.7l3.8,5.4c0.5,0.6,1.4,0.7,1.4,0.7l7.2-0.1c0.5,0,0.6-0.6,0.6-0.6V359
			C-123.7,358.5-123.8,358.2-123.8,358.2z M-142.9,325c0,0.1-0.1,0.1-0.1,0.1h-21c-0.1,0-0.1,0-0.1-0.1v-0.1c0-0.1,0.1-0.1,0.1-0.1
			h21C-142.9,324.8-142.9,324.8-142.9,325L-142.9,325z M-142.9,323.7c0,0.1-0.1,0.1-0.1,0.1h-21c-0.1,0-0.1,0-0.1-0.1v-0.1
			c0-0.1,0.1-0.1,0.1-0.1h21C-142.9,323.6-142.9,323.6-142.9,323.7L-142.9,323.7z M-142.9,322.5c0,0.1-0.1,0.1-0.1,0.1h-21
			c-0.1,0-0.1,0-0.1-0.1v-0.1c0-0.1,0.1-0.1,0.1-0.1h21C-142.9,322.4-142.9,322.4-142.9,322.5L-142.9,322.5z M-142.9,321.3
			c0,0.1-0.1,0.1-0.1,0.1h-21c-0.1,0-0.1,0-0.1-0.1v-0.1c0-0.1,0.1-0.1,0.1-0.1h21C-142.9,321.1-142.9,321.2-142.9,321.3
			L-142.9,321.3z M-142.9,319.9c0,0.1-0.1,0.1-0.1,0.1h-21c-0.1,0-0.1,0-0.1-0.1v-0.1c0-0.1,0.1-0.1,0.1-0.1h21
			C-142.9,319.8-142.9,319.8-142.9,319.9L-142.9,319.9z M-142.9,318.7c0,0.1-0.1,0.1-0.1,0.1h-21c-0.1,0-0.1,0-0.1-0.1v-0.1
			c0-0.1,0.1-0.1,0.1-0.1h21C-142.9,318.5-142.9,318.6-142.9,318.7L-142.9,318.7z M-142.9,317.5c0,0.1-0.1,0.1-0.1,0.1h-21
			c-0.1,0-0.1,0-0.1-0.1v-0.1c0-0.1,0.1-0.1,0.1-0.1h21C-142.9,317.3-142.9,317.4-142.9,317.5L-142.9,317.5z M-142.9,316.3
			c0,0.1-0.1,0.1-0.1,0.1h-21c-0.1,0-0.1,0-0.1-0.1v-0.1c0-0.1,0.1-0.1,0.1-0.1h21C-142.9,316.1-142.9,316.1-142.9,316.3
			L-142.9,316.3z M-142.9,314.9c0,0.1-0.1,0.1-0.1,0.1h-21c-0.1,0-0.1,0-0.1-0.1v-0.1c0-0.1,0.1-0.1,0.1-0.1h21
			C-142.9,314.7-142.9,314.8-142.9,314.9L-142.9,314.9z M-142.9,313.7c0,0.1-0.1,0.1-0.1,0.1h-21c-0.1,0-0.1,0-0.1-0.1v-0.1
			c0-0.1,0.1-0.1,0.1-0.1h21C-142.9,313.5-142.9,313.5-142.9,313.7L-142.9,313.7z M-197.1,311.2c0,0,0.1,0,0.2,0h54
			c0.1,0,0.2,0,0.2,0v0.1c0,0-0.1,0-0.2,0h-54c-0.1,0-0.2,0-0.2,0V311.2z M-197.2,312.3c0,0,0.1,0,0.2,0h54c0.1,0,0.2,0,0.2,0v0.1
			c0,0-0.1,0-0.2,0h-54c-0.1,0-0.2,0-0.2,0V312.3z M-196,324.6h-1.1c-0.1,0-0.1,0-0.1-0.1c0-0.1,0-0.1,0.1-0.1h1.1
			c0.1,0,0.1,0,0.1,0.1C-195.9,324.5-196,324.6-196,324.6z M-196,323.4h-1.1c-0.1,0-0.1,0-0.1-0.1c0-0.1,0-0.1,0.1-0.1h1.1
			c0.1,0,0.1,0,0.1,0.1C-195.9,323.3-196,323.4-196,323.4z M-196,322.2h-1.1c-0.1,0-0.1,0-0.1-0.1c0-0.1,0-0.1,0.1-0.1h1.1
			c0.1,0,0.1,0,0.1,0.1C-195.9,322.1-196,322.2-196,322.2z M-196,321h-1.1c-0.1,0-0.1,0-0.1-0.1c0-0.1,0-0.1,0.1-0.1h1.1
			c0.1,0,0.1,0,0.1,0.1C-195.9,320.9-196,321-196,321z M-196,319.8h-1.1c-0.1,0-0.1,0-0.1-0.1c0-0.1,0-0.1,0.1-0.1h1.1
			c0.1,0,0.1,0,0.1,0.1C-195.9,319.7-196,319.8-196,319.8z M-196,318.6h-1.1c-0.1,0-0.1,0-0.1-0.1c0-0.1,0-0.1,0.1-0.1h1.1
			c0.1,0,0.1,0,0.1,0.1C-195.9,318.5-196,318.6-196,318.6z M-196,317.3h-1.1c-0.1,0-0.1,0-0.1-0.1c0-0.1,0-0.1,0.1-0.1h1.1
			c0.1,0,0.1,0,0.1,0.1C-195.9,317.3-196,317.3-196,317.3z M-196,316.2h-1.1c-0.1,0-0.1,0-0.1-0.1c0-0.1,0-0.1,0.1-0.1h1.1
			c0.1,0,0.1,0,0.1,0.1C-195.9,316.1-196,316.2-196,316.2z M-196,315h-1.1c-0.1,0-0.1,0-0.1-0.1c0-0.1,0-0.1,0.1-0.1h1.1
			c0.1,0,0.1,0,0.1,0.1C-195.9,314.9-196,315-196,315z M-196,313.8h-1.1c-0.1,0-0.1,0-0.1-0.1c0-0.1,0-0.1,0.1-0.1h1.1
			c0.1,0,0.1,0,0.1,0.1C-195.9,313.7-196,313.8-196,313.8z M-192.7,334.3c0,0-0.8,0.1-0.9-0.8c0,0-0.5-14.8,0-18.2
			c0,0,0-0.8,0.7-0.8c0,0,24.1-0.4,26.5,0c0,0,0.7-0.1,0.8,0.9c0,0,0,16-0.3,18.5c0,0,0,0.8-0.7,0.9
			C-166.6,334.7-190,334.5-192.7,334.3z M-162.9,352l-0.1,1.7h-33.2l0.6-1.7h-2.3l3.4-6l0.5-1c0.6,0.1,1.3,0,1.3,0l0.4,1h0.1l0.2-1
			c0.4,0.1,1.4,0,1.4,0l0.3,0.9h0.1l0.4-0.9c0.4,0.1,1.4,0,1.4,0l0.3,1l0.1,0l0.4-1c0.5,0,1.5,0,1.5,0l0.3,1l0.1,0l0.4-1.1
			c0.6,0.1,1.5,0,1.5,0l0.4,1h0.1l0.4-1.1c0.5,0.1,1.4,0,1.4,0l0.4,1.1h0.2l0.4-1.1c0.4,0.1,1.5,0,1.5,0l0.4,1.1h0.1l0.2-1.1
			c0.7,0.1,1.5,0,1.5,0l0.4,1.1h0.1l0.3-1.1c0.9,0.1,1.5,0,1.5,0l0.4,1.1l0.2,0l0.3-1.1c0.9,0.1,1.5,0,1.5,0l0.4,1h0.1l0.3-1.1
			c1.1,0.1,1.5,0,1.5,0l0.4,1l0.1,0l0.4-1.1c0.5,0.1,1.4,0,1.4,0l0.4,1.1l0.1,0l0.3-1.1c0.6,0.1,1.5,0,1.5,0l0.4,1.1h0.1l0.4-1.2
			c1.5,0.2,2.7,0.1,2.7,0.1c-0.1,0.1,0.4,1.1,0.4,1.1l0.3,0l0.5,6L-162.9,352z M-156.9,331.2l0-0.7c0,0,0-0.2,0.3-0.2l7.9,0.1
			c0,0,0.2,0,0.2-0.2l0-0.4c0,0,0-0.3,0.3-0.3l3.1,0.1c0,0,0.3,0,0.3,0.3l0,2.2c0,0-0.1,0.3-0.3,0.3l-3.1-0.1c0,0-0.3,0-0.3-0.3
			l0-0.3c0,0,0-0.3-0.4-0.2l-7.8-0.2C-156.7,331.3-156.9,331.4-156.9,331.2z M-153.1,340.4v1.6h-1.6v-1.6H-153.1z M-146.8,344.6
			l0.4,1.4l0.2,0l2.8,7.3l-11.1,0.1l-1.5-7.6h0.1l0.4-1.1c0,0,1.1,0.1,1.5,0l0.4,1.2l0.1,0l0.4-1.1c0,0,0.9,0.1,1.5,0l0.4,1.2l0.2,0
			l0.4-1.2c0,0,1.2,0,1.5-0.1l0.4,1.3h0.2l0.4-1.2C-148.2,344.7-147,344.7-146.8,344.6z"/>
	</g>
</g>
</svg>
