<?xml version="1.0" encoding="utf-8"?>
<!-- Generator: Adobe Illustrator 21.0.0, SVG Export Plug-In . SVG Version: 6.00 Build 0)  -->
<svg version="1.1" id="Capa_1" xmlns="http://www.w3.org/2000/svg" xmlns:xlink="http://www.w3.org/1999/xlink" x="0px" y="0px"
	 viewBox="0 0 110.9503 167.2215" style="enable-background:new 0 0 110.9503 167.2215;" xml:space="preserve">
<style type="text/css">
	.st0{fill:#8DD7F7;}
	.st1{opacity:0.39;}
	.st2{fill:#FFFFFF;}
	.st3{fill:#42210B;}
</style>
<g>
	<g>
		<polygon class="st0" points="82.7207,52.4689 110.9503,52.4689 82.7207,24.2392 		"/>
		<polygon class="st1" points="82.7207,52.4689 110.9503,52.4689 82.7207,24.2392 		"/>
		<g>
			<polygon class="st0" points="82.7207,24.2392 82.7207,52.4689 110.9503,52.4689 110.9503,167.2215 0,167.2215 0,24.2392 			"/>
		</g>
	</g>
	<g>
		<path class="st2" d="M92.2549,69.0563l-11.434-12.0916H26.577v89.5478h65.6959L92.2549,69.0563z M85.7754,74.225v65.8602h-52.841
			V63.392h42.6014v10.8244L85.7754,74.225z"/>
		<rect x="35.655" y="85.4501" class="st2" width="31.7409" height="4.6957"/>
		<polygon class="st2" points="78.048,89.6838 74.9097,86.5451 76.1435,85.3101 78.048,87.2149 81.8519,83.411 81.8519,82.8289 
			71.9131,82.8289 71.9131,92.7671 81.8519,92.7671 81.8519,85.8802 		"/>
		<rect x="35.655" y="100.1692" class="st2" width="31.7409" height="4.6957"/>
		<polygon class="st2" points="71.9131,97.5481 71.9131,107.4862 81.8519,107.4862 81.8519,98.1301 81.8519,97.5481 		"/>
		<rect x="35.655" y="115.4302" class="st2" width="31.7409" height="4.6956"/>
		<rect x="71.9131" y="112.809" class="st2" width="9.9388" height="9.9381"/>
	</g>
	<g>
		<g>
			<path class="st3" d="M16.9391,12.377V2.2666h-3.6113V0.208h9.6699v2.0586h-3.6016V12.377H16.9391z"/>
			<path class="st3" d="M25.862,12.377H23.53V3.5615h2.166v1.2529c0.3711-0.5918,0.7041-0.9814,1-1.1699
				s0.6328-0.2822,1.0088-0.2822c0.5313,0,1.043,0.1465,1.5361,0.4404l-0.7227,2.0332c-0.3926-0.2549-0.7578-0.3818-1.0957-0.3818
				c-0.3262,0-0.6035,0.0898-0.8301,0.2695s-0.4053,0.5049-0.5352,0.9756S25.862,8.1543,25.862,9.6543V12.377z"/>
			<path class="st3" d="M31.987,6.251l-2.1162-0.3818c0.2383-0.8525,0.6475-1.4834,1.2285-1.8926s1.4443-0.6143,2.5898-0.6143
				c1.04,0,1.8154,0.123,2.3242,0.3691s0.8672,0.5596,1.0752,0.9385c0.207,0.3789,0.3105,1.0742,0.3105,2.0879l-0.0244,2.7227
				c0,0.7744,0.0371,1.3457,0.1123,1.7139c0.0742,0.3682,0.2139,0.7617,0.4189,1.1826h-2.3076
				c-0.0605-0.1553-0.1357-0.3848-0.2246-0.6895c-0.0381-0.1377-0.0664-0.2295-0.082-0.2734
				c-0.3984,0.3877-0.8252,0.6777-1.2793,0.8711c-0.4531,0.1943-0.9375,0.291-1.4521,0.291c-0.9072,0-1.623-0.2461-2.1455-0.7383
				c-0.5234-0.4932-0.7852-1.1152-0.7852-1.8682c0-0.498,0.1191-0.9424,0.3574-1.332c0.2383-0.3906,0.5713-0.6895,1-0.8965
				c0.4287-0.208,1.0478-0.3887,1.8555-0.5439c1.0898-0.2051,1.8457-0.3955,2.2656-0.5723V6.3926
				c0-0.4492-0.1104-0.7686-0.332-0.959c-0.2207-0.1914-0.6387-0.2871-1.2529-0.2871c-0.415,0-0.7393,0.082-0.9717,0.2451
				S32.1315,5.8418,31.987,6.251z M35.1081,8.1436C34.8092,8.2432,34.3366,8.3623,33.6891,8.5
				c-0.6475,0.1387-1.0713,0.2744-1.2705,0.4072c-0.3037,0.2158-0.4561,0.4893-0.4561,0.8213c0,0.3271,0.1221,0.6094,0.3652,0.8477
				c0.2432,0.2373,0.5537,0.3564,0.9297,0.3564c0.4209,0,0.8213-0.1387,1.2041-0.415c0.2813-0.21,0.4668-0.4678,0.5557-0.7715
				c0.0605-0.1992,0.0908-0.5791,0.0908-1.1377V8.1436z"/>
			<path class="st3" d="M47.7174,12.377h-2.332v-4.499c0-0.9521-0.0498-1.5674-0.1494-1.8467s-0.2617-0.4971-0.4854-0.6523
				c-0.2246-0.1543-0.4941-0.2324-0.8096-0.2324c-0.4043,0-0.7666,0.1113-1.0869,0.332c-0.3213,0.2217-0.541,0.5156-0.6602,0.8809
				s-0.1787,1.04-0.1787,2.0254v3.9922h-2.333V3.5615h2.167v1.2949c0.7695-0.9961,1.7373-1.4941,2.9053-1.4941
				c0.5146,0,0.9854,0.0928,1.4111,0.2783s0.748,0.4219,0.9668,0.709c0.2188,0.2881,0.3711,0.6152,0.457,0.9805
				s0.1279,0.8877,0.1279,1.5684V12.377z"/>
			<path class="st3" d="M49.2624,9.8613l2.3408-0.3564c0.0996,0.4541,0.3018,0.7979,0.6064,1.0332
				c0.3037,0.2354,0.7305,0.3525,1.2773,0.3525c0.6035,0,1.0576-0.1104,1.3613-0.332c0.2051-0.1543,0.3076-0.3623,0.3076-0.6221
				c0-0.1768-0.0557-0.3232-0.166-0.4404c-0.1162-0.1104-0.376-0.2129-0.7803-0.3066c-1.8818-0.415-3.0742-0.7939-3.5781-1.1367
				c-0.6973-0.4766-1.0449-1.1377-1.0449-1.9844c0-0.7637,0.3008-1.4053,0.9043-1.9258s1.5381-0.7803,2.8057-0.7803
				c1.2061,0,2.1025,0.1963,2.6895,0.5889c0.5869,0.3936,0.9902,0.9746,1.2119,1.7441l-2.1992,0.4063
				c-0.0947-0.3428-0.2734-0.6055-0.5361-0.7891c-0.2627-0.1816-0.6377-0.2734-1.124-0.2734c-0.6152,0-1.0547,0.0859-1.3203,0.2578
				c-0.1768,0.1211-0.2656,0.2793-0.2656,0.4727c0,0.166,0.0771,0.3066,0.2324,0.4238c0.21,0.1543,0.9365,0.373,2.1787,0.6553
				s2.1104,0.6279,2.6025,1.0381c0.4873,0.4141,0.7305,0.9932,0.7305,1.7344c0,0.8076-0.3379,1.502-1.0127,2.084
				c-0.6748,0.5801-1.6738,0.8711-2.9971,0.8711c-1.2002,0-2.1504-0.2432-2.8506-0.7305S49.4782,10.6973,49.2624,9.8613z"/>
			<path class="st3" d="M59.5387,2.3662V0.208h2.332v2.1582H59.5387z M59.5387,12.377V3.5615h2.332v8.8154H59.5387z"/>
			<path class="st3" d="M71.9479,6.168l-2.2988,0.415c-0.0771-0.459-0.2529-0.8057-0.5273-1.0381
				c-0.2734-0.2324-0.6289-0.3477-1.0664-0.3477c-0.5811,0-1.0449,0.2002-1.3906,0.6016s-0.5186,1.0723-0.5186,2.0127
				c0,1.0459,0.1758,1.7842,0.5273,2.2158s0.8232,0.6484,1.415,0.6484c0.4424,0,0.8047-0.126,1.0879-0.3779
				c0.2813-0.252,0.4805-0.6846,0.5977-1.2998l2.291,0.3906c-0.2383,1.0518-0.6953,1.8457-1.3701,2.3828
				c-0.6748,0.5361-1.5801,0.8047-2.7139,0.8047c-1.29,0-2.3174-0.4063-3.084-1.2207c-0.7666-0.8125-1.1504-1.9395-1.1504-3.3779
				c0-1.4551,0.3848-2.5889,1.1543-3.3994s1.8096-1.2158,3.1211-1.2158c1.0732,0,1.9268,0.2314,2.5605,0.6934
				S71.6716,5.2217,71.9479,6.168z"/>
			<path class="st3" d="M73.7165,2.3662V0.208h2.332v2.1582H73.7165z M73.7165,12.377V3.5615h2.332v8.8154H73.7165z"/>
			<path class="st3" d="M77.9001,7.8447c0-0.7744,0.1904-1.5244,0.5732-2.249c0.3809-0.7256,0.9219-1.2793,1.6221-1.6602
				c0.7002-0.3828,1.4814-0.5732,2.3447-0.5732c1.334,0,2.4268,0.4326,3.2793,1.2988s1.2783,1.9609,1.2783,3.2832
				c0,1.334-0.4307,2.4395-1.291,3.3164s-1.9434,1.3154-3.249,1.3154c-0.8086,0-1.5791-0.1826-2.3125-0.5479
				s-1.291-0.9004-1.6719-1.6064C78.0905,9.7168,77.9001,8.8574,77.9001,7.8447z M80.2907,7.9688
				c0,0.875,0.208,1.5449,0.6221,2.0098c0.416,0.4648,0.9277,0.6973,1.5361,0.6973s1.1191-0.2324,1.5313-0.6973
				s0.6182-1.1406,0.6182-2.0254c0-0.8633-0.2061-1.5273-0.6182-1.9922s-0.9229-0.6973-1.5313-0.6973s-1.1201,0.2324-1.5361,0.6973
				C80.4987,6.4258,80.2907,7.0947,80.2907,7.9688z M81.2702,2.4824L82.4157,0H85.03l-2.2822,2.4824H81.2702z"/>
			<path class="st3" d="M96.8415,12.377h-2.332v-4.499c0-0.9521-0.0498-1.5674-0.1494-1.8467s-0.2617-0.4971-0.4854-0.6523
				c-0.2246-0.1543-0.4941-0.2324-0.8096-0.2324c-0.4043,0-0.7666,0.1113-1.0869,0.332c-0.3213,0.2217-0.541,0.5156-0.6602,0.8809
				s-0.1787,1.04-0.1787,2.0254v3.9922h-2.333V3.5615h2.167v1.2949c0.7695-0.9961,1.7373-1.4941,2.9053-1.4941
				c0.5146,0,0.9854,0.0928,1.4111,0.2783s0.748,0.4219,0.9668,0.709c0.2188,0.2881,0.3711,0.6152,0.457,0.9805
				s0.1279,0.8877,0.1279,1.5684V12.377z"/>
		</g>
	</g>
</g>
</svg>
