<?xml version="1.0" encoding="utf-8"?>
<!-- Generator: Adobe Illustrator 21.0.0, SVG Export Plug-In . SVG Version: 6.00 Build 0)  -->
<svg version="1.1" id="Capa_1" xmlns="http://www.w3.org/2000/svg" xmlns:xlink="http://www.w3.org/1999/xlink" x="0px" y="0px"
	 viewBox="0 0 110.9503 167.2215" style="enable-background:new 0 0 110.9503 167.2215;" xml:space="preserve">
<style type="text/css">
	.st0{fill:#8DD7F7;}
	.st1{fill:#3CA5CB;}
	.st2{fill:#FFFFFF;}
	.st3{fill:#42210B;}
</style>
<g>
	<g>
		<g>
			<polygon class="st0" points="82.7207,167.2215 110.9503,167.2215 110.9503,138.9918 110.9503,24.2392 0,24.2392 0,167.2215 			
				"/>
		</g>
	</g>
	<g id="XMLID_9432_">
		<path id="XMLID_9567_" class="st1" d="M72.909,63.8329c-2.5839-8.3587-10.3626-14.2151-19.2879-14.2151
			c-11.1427,0-20.2066,9.0639-20.2066,20.2056c0,0.5398,0.0246,1.0842,0.0692,1.6306c-5.4517,1.2685-9.5267,6.1694-9.5267,12.0033
			c0,6.48,5.0026,11.8894,11.5764,12.3196h11.2834v-4.8513c-0.9818-0.0379-1.897-0.3601-2.6926-0.8658
			c-0.922-0.586-1.6782-1.4269-2.117-2.4858c-0.8443-2.0386-0.3817-4.3641,1.1784-5.9244l10.9456-10.9456
			c1.0268-1.0266,2.392-1.5921,3.8438-1.5921c1.4524,0,2.8176,0.5656,3.8441,1.5924L72.764,81.6497
			c1.5604,1.5603,2.0229,3.8857,1.1784,5.9243c-0.406,0.9801-1.0742,1.7913-1.902,2.3716
			c-0.8383,0.5875-1.8404,0.9385-2.9067,0.9798v4.8514h1.8283c8.8404,0,16.0313-7.1908,16.0313-16.0301
			C86.9934,71.5669,80.8351,64.7974,72.909,63.8329z"/>
		<path id="XMLID_9563_" class="st2" d="M70.7705,86.26c0.3099-0.7484,0.1386-1.6097-0.4342-2.1825L59.3914,73.1318
			c-0.3754-0.3756-0.885-0.5868-1.4162-0.5868c-0.5311,0-1.0406,0.2112-1.416,0.5866L45.6136,84.0773
			c-0.5728,0.5728-0.7442,1.4343-0.4342,2.1827c0.31,0.7482,1.0402,1.2363,1.8504,1.2363h3.2205v17.7377
			c0,1.1063,0.8966,2.0028,2.0028,2.0028h11.4445c1.1062,0,2.0028-0.8965,2.0028-2.0028V87.4963h3.2198
			C69.73,87.4963,70.4605,87.0084,70.7705,86.26z"/>
	</g>
	<rect x="16.5792" y="119.2729" class="st2" width="77.441" height="8.774"/>
	<rect x="16.9302" y="135.2952" class="st2" width="46.9223" height="8.7742"/>
</g>
<g>
	<g>
		<path class="st3" d="M9.7174,7.9023l2.3818,0.7559c-0.3652,1.3281-0.9727,2.3145-1.8223,2.959S8.3502,12.584,7.0436,12.584
			c-1.6152,0-2.9434-0.5518-3.9844-1.6553c-1.04-1.1045-1.5605-2.6133-1.5605-4.5283c0-2.0254,0.5234-3.5986,1.5693-4.7188
			C4.1139,0.5605,5.4889,0,7.194,0c1.4883,0,2.6973,0.4404,3.627,1.3203c0.5537,0.5205,0.9688,1.2676,1.2451,2.2412L9.6334,4.1426
			C9.4899,3.5117,9.1901,3.0137,8.733,2.6484C8.277,2.2832,7.7223,2.1006,7.069,2.1006c-0.9023,0-1.6338,0.3232-2.1953,0.9717
			C4.3121,3.7188,4.0309,4.7676,4.0309,6.2178c0,1.5381,0.2764,2.6338,0.8301,3.2871s1.2725,0.9795,2.1582,0.9795
			c0.6533,0,1.2148-0.207,1.6846-0.623C9.1745,9.4473,9.5123,8.7939,9.7174,7.9023z"/>
		<path class="st3" d="M13.652,7.8447c0-0.7744,0.1904-1.5244,0.5732-2.249c0.3809-0.7256,0.9219-1.2793,1.6221-1.6602
			c0.7002-0.3828,1.4814-0.5732,2.3447-0.5732c1.334,0,2.4268,0.4326,3.2793,1.2988s1.2783,1.9609,1.2783,3.2832
			c0,1.334-0.4307,2.4395-1.291,3.3164s-1.9434,1.3154-3.249,1.3154c-0.8086,0-1.5791-0.1826-2.3125-0.5479
			c-0.7334-0.3652-1.291-0.9004-1.6719-1.6064C13.8424,9.7168,13.652,8.8574,13.652,7.8447z M16.0426,7.9688
			c0,0.875,0.208,1.5449,0.6221,2.0098c0.416,0.4648,0.9277,0.6973,1.5361,0.6973s1.1191-0.2324,1.5313-0.6973
			s0.6182-1.1406,0.6182-2.0254c0-0.8633-0.2061-1.5273-0.6182-1.9922s-0.9229-0.6973-1.5313-0.6973s-1.1201,0.2324-1.5361,0.6973
			C16.2506,6.4258,16.0426,7.0947,16.0426,7.9688z"/>
		<path class="st3" d="M32.5934,12.377h-2.332v-4.499c0-0.9521-0.0498-1.5674-0.1494-1.8467s-0.2617-0.4971-0.4854-0.6523
			c-0.2246-0.1543-0.4941-0.2324-0.8096-0.2324c-0.4043,0-0.7666,0.1113-1.0869,0.332c-0.3213,0.2217-0.541,0.5156-0.6602,0.8809
			s-0.1787,1.04-0.1787,2.0254v3.9922h-2.333V3.5615h2.167v1.2949c0.7695-0.9961,1.7373-1.4941,2.9053-1.4941
			c0.5146,0,0.9854,0.0928,1.4111,0.2783s0.748,0.4219,0.9668,0.709c0.2188,0.2881,0.3711,0.6152,0.457,0.9805
			s0.1279,0.8877,0.1279,1.5684V12.377z"/>
		<path class="st3" d="M34.1373,9.8613l2.3408-0.3564c0.0996,0.4541,0.3018,0.7979,0.6064,1.0332
			c0.3037,0.2354,0.7305,0.3525,1.2773,0.3525c0.6035,0,1.0576-0.1104,1.3613-0.332c0.2051-0.1543,0.3076-0.3623,0.3076-0.6221
			c0-0.1768-0.0557-0.3232-0.166-0.4404c-0.1162-0.1104-0.376-0.2129-0.7803-0.3066c-1.8818-0.415-3.0742-0.7939-3.5781-1.1367
			c-0.6973-0.4766-1.0449-1.1377-1.0449-1.9844c0-0.7637,0.3008-1.4053,0.9043-1.9258s1.5381-0.7803,2.8057-0.7803
			c1.2061,0,2.1025,0.1963,2.6895,0.5889c0.5869,0.3936,0.9902,0.9746,1.2119,1.7441l-2.1992,0.4063
			c-0.0947-0.3428-0.2734-0.6055-0.5361-0.7891c-0.2627-0.1816-0.6377-0.2734-1.124-0.2734c-0.6152,0-1.0547,0.0859-1.3203,0.2578
			c-0.1768,0.1211-0.2656,0.2793-0.2656,0.4727c0,0.166,0.0771,0.3066,0.2324,0.4238c0.21,0.1543,0.9365,0.373,2.1787,0.6553
			s2.1104,0.6279,2.6025,1.0381c0.4873,0.4141,0.7305,0.9932,0.7305,1.7344c0,0.8076-0.3379,1.502-1.0127,2.084
			c-0.6748,0.5801-1.6738,0.8711-2.9971,0.8711c-1.2002,0-2.1504-0.2432-2.8506-0.7305S34.3532,10.6973,34.1373,9.8613z"/>
		<path class="st3" d="M48.4567,3.5615v1.8594h-1.5938v3.5527c0,0.7197,0.0156,1.1387,0.0459,1.2578s0.0996,0.2168,0.207,0.2939
			c0.1084,0.0781,0.2393,0.1172,0.3945,0.1172c0.2158,0,0.5283-0.0752,0.9375-0.2246l0.1992,1.8096
			c-0.542,0.2324-1.1563,0.3486-1.8418,0.3486c-0.4209,0-0.7998-0.0703-1.1377-0.2119c-0.3379-0.1406-0.585-0.3232-0.7432-0.5479
			c-0.1572-0.2236-0.2666-0.5273-0.3281-0.9082c-0.0488-0.2715-0.0742-0.8193-0.0742-1.6445V5.4209h-1.0703V3.5615h1.0703v-1.751
			l2.3408-1.3613v3.1123H48.4567z"/>
		<path class="st3" d="M52.3082,12.377h-2.332V3.5615h2.166v1.2529c0.3711-0.5918,0.7041-0.9814,1-1.1699
			s0.6328-0.2822,1.0088-0.2822c0.5313,0,1.043,0.1465,1.5361,0.4404l-0.7227,2.0332c-0.3926-0.2549-0.7578-0.3818-1.0957-0.3818
			c-0.3262,0-0.6035,0.0898-0.8301,0.2695s-0.4053,0.5049-0.5352,0.9756s-0.1953,1.4551-0.1953,2.9551V12.377z"/>
		<path class="st3" d="M62.4933,12.377v-1.3203c-0.3203,0.4707-0.7422,0.8418-1.2656,1.1133
			c-0.5234,0.2705-1.0747,0.4063-1.6558,0.4063c-0.5918,0-1.123-0.1299-1.5938-0.3906c-0.4707-0.2598-0.8105-0.625-1.0205-1.0957
			c-0.2109-0.4697-0.3164-1.1201-0.3164-1.9502V3.5615h2.333v4.0508c0,1.2393,0.043,1.999,0.1289,2.2783s0.2422,0.501,0.4688,0.6641
			s0.5146,0.2451,0.8628,0.2451c0.3984,0,0.7559-0.1094,1.0723-0.3281c0.3145-0.2188,0.5313-0.4893,0.6465-0.8135
			c0.1172-0.3232,0.1738-1.1162,0.1738-2.3779V3.5615h2.334v8.8154H62.4933z"/>
		<path class="st3" d="M74.7609,6.168l-2.2988,0.415c-0.0762-0.459-0.252-0.8057-0.5273-1.0381
			c-0.2734-0.2324-0.6289-0.3477-1.0664-0.3477c-0.5801,0-1.0449,0.2002-1.3906,0.6016s-0.5176,1.0723-0.5176,2.0127
			c0,1.0459,0.1758,1.7842,0.5273,2.2158s0.8223,0.6484,1.4141,0.6484c0.4434,0,0.8047-0.126,1.0879-0.3779
			c0.2813-0.252,0.4805-0.6846,0.5977-1.2998l2.291,0.3906c-0.2383,1.0518-0.6953,1.8457-1.3691,2.3828
			c-0.6758,0.5361-1.5801,0.8047-2.7148,0.8047c-1.2891,0-2.3164-0.4063-3.084-1.2207c-0.7656-0.8125-1.1504-1.9395-1.1504-3.3779
			c0-1.4551,0.3848-2.5889,1.1543-3.3994s1.8105-1.2158,3.1211-1.2158c1.0742,0,1.9277,0.2314,2.5605,0.6934
			C74.0304,4.5176,74.4855,5.2217,74.7609,6.168z"/>
		<path class="st3" d="M84.216,6.168l-2.2988,0.415c-0.0781-0.459-0.2539-0.8057-0.5273-1.0381s-0.6289-0.3477-1.0664-0.3477
			c-0.582,0-1.0449,0.2002-1.3906,0.6016s-0.5195,1.0723-0.5195,2.0127c0,1.0459,0.1758,1.7842,0.5273,2.2158
			s0.8242,0.6484,1.416,0.6484c0.4414,0,0.8047-0.126,1.0879-0.3779c0.2813-0.252,0.4805-0.6846,0.5977-1.2998l2.291,0.3906
			c-0.2383,1.0518-0.6953,1.8457-1.3711,2.3828c-0.6738,0.5361-1.5801,0.8047-2.7129,0.8047c-1.291,0-2.3184-0.4063-3.084-1.2207
			c-0.7676-0.8125-1.1504-1.9395-1.1504-3.3779c0-1.4551,0.3848-2.5889,1.1543-3.3994s1.8086-1.2158,3.1211-1.2158
			c1.0723,0,1.9258,0.2314,2.5605,0.6934C83.4835,4.5176,83.9386,5.2217,84.216,6.168z"/>
		<path class="st3" d="M85.9855,2.3662V0.208h2.332v2.1582H85.9855z M85.9855,12.377V3.5615h2.332v8.8154H85.9855z"/>
		<path class="st3" d="M90.1671,7.8447c0-0.7744,0.1914-1.5244,0.5742-2.249c0.3809-0.7256,0.9219-1.2793,1.6211-1.6602
			c0.7012-0.3828,1.4824-0.5732,2.3457-0.5732c1.334,0,2.4258,0.4326,3.2793,1.2988c0.8516,0.8662,1.2773,1.9609,1.2773,3.2832
			c0,1.334-0.4297,2.4395-1.291,3.3164c-0.8594,0.877-1.9434,1.3154-3.248,1.3154c-0.8086,0-1.5801-0.1826-2.3125-0.5479
			c-0.7344-0.3652-1.291-0.9004-1.6719-1.6064C90.3585,9.7168,90.1671,8.8574,90.1671,7.8447z M92.5578,7.9688
			c0,0.875,0.209,1.5449,0.623,2.0098c0.416,0.4648,0.9277,0.6973,1.5352,0.6973c0.6094,0,1.1191-0.2324,1.5313-0.6973
			s0.6191-1.1406,0.6191-2.0254c0-0.8633-0.207-1.5273-0.6191-1.9922s-0.9219-0.6973-1.5313-0.6973
			c-0.6074,0-1.1191,0.2324-1.5352,0.6973C92.7667,6.4258,92.5578,7.0947,92.5578,7.9688z M93.5382,2.4824L94.6828,0h2.6152
			l-2.2832,2.4824H93.5382z"/>
		<path class="st3" d="M109.1105,12.377h-2.332v-4.499c0-0.9521-0.0508-1.5674-0.1504-1.8467s-0.2617-0.4971-0.4844-0.6523
			c-0.2246-0.1543-0.4941-0.2324-0.8105-0.2324c-0.4043,0-0.7656,0.1113-1.0859,0.332c-0.3223,0.2217-0.541,0.5156-0.6602,0.8809
			s-0.1797,1.04-0.1797,2.0254v3.9922h-2.332V3.5615h2.166v1.2949c0.7695-0.9961,1.7383-1.4941,2.9063-1.4941
			c0.5137,0,0.9844,0.0928,1.4102,0.2783s0.748,0.4219,0.9668,0.709c0.2188,0.2881,0.3711,0.6152,0.457,0.9805
			s0.1289,0.8877,0.1289,1.5684V12.377z"/>
	</g>
</g>
</svg>
