<?xml version="1.0" encoding="utf-8"?>
<!-- Generator: Adobe Illustrator 19.0.0, SVG Export Plug-In . SVG Version: 6.00 Build 0)  -->
<svg version="1.1" id="Capa_1" xmlns="http://www.w3.org/2000/svg" xmlns:xlink="http://www.w3.org/1999/xlink" x="0px" y="0px"
	 viewBox="-193.7 308 55.6 64.1" style="enable-background:new -193.7 308 55.6 64.1;" xml:space="preserve">
<style type="text/css">
	.st0{fill:#F49B28;}
	.st1{fill:#F8AF4A;}
</style>
<g id="XMLID_1517_">
	<path id="XMLID_1896_" class="st0" d="M-159.8,318.7c0.4-2.6,1.8-5.8,4.5-7.8c3.6-2.7-2.4-2.5-6.5-2c-4.1,0.5-13.1-1.8-15-0.2
		c-1.9,1.6-1.2,4.1,1,5.5c1.3,0.8,2.8,3,3.8,4.7c-12.4,4.2-21.6,20.8-21.6,40.6c0,2.5,0.2,5,0.4,7.4c0.5,1.6,2.2,5.5,6.4,5.5
		c5.4,0,41.2,0,41.2,0s5.9-0.2,7.1-4.8c0.1-0.6,0.1-1.1,0.2-1.7c0-0.3,0-0.5,0.1-0.7c0.2-1.9,0.3-3.8,0.3-5.7
		C-138.1,339.4-147.3,322.9-159.8,318.7z M-158.4,357.2c-1.7,1.6-3.8,2.5-6.5,2.6v3.6h-2.2v-3.6c-1.9-0.2-3.4-0.6-4.6-1.2
		c-1.2-0.6-2.2-1.5-3.1-2.8c-0.9-1.3-1.4-2.8-1.5-4.7l3.8-0.7c0.3,1.9,0.8,3.3,1.6,4.2c1.1,1.3,2.3,2,3.8,2.1v-11.3
		c-1.6-0.3-3.2-0.8-4.8-1.7c-1.2-0.6-2.1-1.5-2.8-2.6c-0.7-1.1-1-2.4-1-3.8c0-2.5,1-4.6,2.9-6.1c1.3-1.1,3.2-1.7,5.7-1.9v-1.7h2.2
		v1.7c2.2,0.2,3.9,0.8,5.2,1.8c1.7,1.3,2.7,3.1,3,5.3l-3.9,0.5c-0.2-1.4-0.7-2.5-1.4-3.2c-0.7-0.7-1.7-1.2-2.9-1.5v10.2
		c1.9,0.4,3.2,0.8,3.8,1c1.2,0.5,2.1,1.1,2.9,1.8c0.7,0.7,1.3,1.5,1.7,2.5c0.4,1,0.6,2,0.6,3.1
		C-155.9,353.5-156.8,355.6-158.4,357.2z"/>
	<path id="XMLID_1868_" class="st1" d="M-164.9,346.1v10.8c1.5-0.2,2.7-0.8,3.7-1.8c1-1,1.4-2.3,1.4-3.8c0-1.3-0.3-2.3-1-3.1
		C-161.5,347.4-162.9,346.7-164.9,346.1z"/>
	<path id="XMLID_1520_" class="st1" d="M-171.9,337.2c0,1.2,0.4,2.2,1.1,3c0.7,0.8,1.9,1.5,3.7,2v-9.8c-1.5,0.2-2.6,0.8-3.5,1.7
		C-171.5,334.9-171.9,336-171.9,337.2z"/>
</g>
</svg>
