<?xml version="1.0" encoding="utf-8"?>
<!-- Generator: Adobe Illustrator 19.0.0, SVG Export Plug-In . SVG Version: 6.00 Build 0)  -->
<svg version="1.1" id="Capa_1" xmlns="http://www.w3.org/2000/svg" xmlns:xlink="http://www.w3.org/1999/xlink" x="0px" y="0px"
	 viewBox="-220.3 288.5 103.3 103.3" style="enable-background:new -220.3 288.5 103.3 103.3;" xml:space="preserve">
<style type="text/css">
	.st0{clip-path:url(#XMLID_4_);}
	.st1{fill:#69C1BD;}
	.st2{fill:#48908A;}
	.st3{fill:#FFFFFF;}
</style>
<g id="XMLID_1914_">
	<defs>
		<circle id="XMLID_1913_" cx="-168.7" cy="340.1" r="51.6"/>
	</defs>
	<clipPath id="XMLID_4_">
		<use xlink:href="#XMLID_1913_"  style="overflow:visible;"/>
	</clipPath>
	<g id="XMLID_1915_" class="st0">
		<rect id="XMLID_1912_" x="-223.6" y="282" class="st1" width="109.8" height="109.8"/>
		<polygon id="XMLID_1911_" class="st2" points="-207.6,368 -185.4,396.4 -120.1,385.7 -109,348 -144.4,317.2 -152.8,327.6 
			-169,317.2 -186.5,336.8 -174.3,348.5 		"/>
		<g id="XMLID_1916_">
			<path id="XMLID_1910_" class="st3" d="M-182.2,338.2c4,0.6,8.2-0.9,11-3.8c2.8-2.9,4.1-7.2,3.3-11.2c-1.1-6.7-8.4-11.6-15.1-10
				c-4.1,0.8-7.7,3.8-9.2,7.7c-1.3,3.2-1.2,7,0.4,10.1C-190.1,334.9-186.4,337.6-182.2,338.2z"/>
			<g id="XMLID_1917_">
				<path id="XMLID_1909_" class="st3" d="M-151.5,335.3c3.1,0.5,6.5-0.7,8.7-3c2.2-2.3,3.2-5.7,2.6-8.9c-0.9-5.3-6.6-9.1-11.9-7.9
					c-3.2,0.6-6.1,3-7.3,6.1c-1,2.6-0.9,5.5,0.3,8C-157.7,332.7-154.7,334.9-151.5,335.3z"/>
				<path id="XMLID_1899_" class="st3" d="M-133.2,342.1c-3.6-0.8-7.2-1.4-10.8-2.2c-2,3-9.7,3-11.7,0c-3.6,0.7-7.2,1.4-10.8,2.2
					c-0.2,0.5-0.3,1-0.5,1.5c3.1,0.6,6.3,1.2,9.4,1.9c1.3,4.4,2.6,8.8,3.9,13.2c11,0,22.7,0,25.4,0
					C-129.9,353.3-131.5,347.7-133.2,342.1z"/>
				<path id="XMLID_1512_" class="st3" d="M-159.1,346.8c-3.1-0.7-6.3-1.3-9.4-1.9c-1.4-0.3-2.9-0.6-4.3-0.9
					c-2.6,3.7-12.3,3.8-14.9,0c-4.6,0.9-9.2,1.8-13.7,2.8c-2.1,7.1-4.2,14.1-6.2,21.2c11.7,0,49.2,0,54.8,0
					c-0.8-2.6-1.5-5.3-2.3-7.9C-156.5,355.7-157.8,351.2-159.1,346.8z"/>
			</g>
		</g>
	</g>
</g>
</svg>
