<?xml version="1.0" encoding="utf-8"?>
<!-- Generator: Adobe Illustrator 16.0.0, SVG Export Plug-In . SVG Version: 6.00 Build 0)  -->
<!DOCTYPE svg PUBLIC "-//W3C//DTD SVG 1.1//EN" "http://www.w3.org/Graphics/SVG/1.1/DTD/svg11.dtd">
<svg version="1.1" id="Capa_1" xmlns="http://www.w3.org/2000/svg" xmlns:xlink="http://www.w3.org/1999/xlink" x="0px" y="0px"
	 width="64.6294px" height="115.7847px" viewBox="0 0 64.6294 115.7847" enable-background="new 0 0 64.6294 115.7847"
	 xml:space="preserve">
<g id="XMLID_9450_">
	<path id="XMLID_9455_" fill="#42210B" d="M6.0303,107.7563l1.3018-0.0088l0.0039,0.5352l-1.3018,0.0078L6.0303,107.7563z
		 M5.9746,99.9468l1.3018-0.0088l0.0273,3.9043l-1.3018,0.0088L5.9746,99.9468z M5.918,92.1362l1.3018-0.0078l0.0283,3.9043
		l-1.3018,0.0098L5.918,92.1362z M5.8623,84.3257l1.3018-0.0088l0.0283,3.9053L5.8906,88.231L5.8623,84.3257z M5.8066,76.5161
		l1.3018-0.0088l0.0273,3.9043L5.834,80.4214L5.8066,76.5161z M5.751,68.7056l1.3008-0.0088l0.0283,3.9053l-1.3018,0.0088
		L5.751,68.7056z M5.6943,60.896l1.3018-0.0098l0.0283,3.9063l-1.3018,0.0078L5.6943,60.896z M5.6387,53.0854l1.3018-0.0098
		l0.0273,3.9063L5.667,56.9897L5.6387,53.0854z M5.583,45.2749l1.3018-0.0088l0.0273,3.9053l-1.3018,0.0088L5.583,45.2749z
		 M5.5264,37.4644l1.3027-0.0078l0.0273,3.9043l-1.3018,0.0098L5.5264,37.4644z M5.4707,29.6538l1.3018-0.0078l0.0283,3.9043
		L5.499,33.5601L5.4707,29.6538z M5.415,21.8452l1.3018-0.0098l0.0273,3.9053l-1.3018,0.0088L5.415,21.8452z M5.3594,14.0347
		l1.3018-0.0098l0.0273,3.9063L5.3867,17.939L5.3594,14.0347z M52.4458,9.7134l0.1797-1.2891l3.8672,0.5439l-0.1797,1.2891
		L52.4458,9.7134z M5.3027,6.2241l1.3018-0.0098l0.0283,3.9063l-1.3018,0.0078L5.3027,6.2241z M44.7114,8.6265l0.1797-1.2891
		l3.8672,0.543l-0.1797,1.2891L44.7114,8.6265z M36.9751,7.5386l0.1816-1.2891l3.8672,0.5449l-0.1797,1.2891L36.9751,7.5386z
		 M29.2407,6.4526l0.1816-1.2891l3.8672,0.543l-0.1816,1.2891L29.2407,6.4526z M21.5068,5.3647l0.1807-1.2891l3.8672,0.5439
		L25.374,5.9087L21.5068,5.3647z M13.7734,4.2788l0.1807-1.2891l3.8672,0.543l-0.1807,1.2891L13.7734,4.2788z M6.0391,3.1909
		l0.1807-1.2891l3.8672,0.5439L9.9063,3.7349L6.0391,3.1909z"/>
	<g id="XMLID_9498_">
		<path id="XMLID_9499_" fill="#58595B" stroke="#42210B" stroke-miterlimit="10" d="M6.4678,102.3228
			c3.3027,0.4639,5.9834,3.7295,5.9902,7.2939s-2.6641,6.0762-5.9678,5.6133c-3.3018-0.4648-5.9834-3.7285-5.9902-7.2949
			C0.4932,104.3706,3.165,101.8589,6.4678,102.3228L6.4678,102.3228z"/>
	</g>
	<g id="XMLID_9500_">
		<path id="XMLID_9501_" fill="#FFDC3C" stroke="#42210B" stroke-miterlimit="10" d="M56.3423,0.5718
			c4.293,0.6035,7.7773,4.8486,7.7871,9.4824s-3.4629,7.9004-7.7578,7.2969c-4.291-0.6035-7.7773-4.8477-7.7871-9.4824
			C48.5747,3.2349,52.0474-0.0317,56.3423,0.5718L56.3423,0.5718z"/>
	</g>
</g>
<g>
</g>
<g>
</g>
<g>
</g>
<g>
</g>
<g>
</g>
<g>
</g>
<g>
</g>
<g>
</g>
<g>
</g>
<g>
</g>
<g>
</g>
<g>
</g>
<g>
</g>
<g>
</g>
<g>
</g>
</svg>
