<?xml version="1.0" encoding="utf-8"?>
<!-- Generator: Adobe Illustrator 16.0.0, SVG Export Plug-In . SVG Version: 6.00 Build 0)  -->
<!DOCTYPE svg PUBLIC "-//W3C//DTD SVG 1.1//EN" "http://www.w3.org/Graphics/SVG/1.1/DTD/svg11.dtd">
<svg version="1.1" id="Capa_1" xmlns="http://www.w3.org/2000/svg" xmlns:xlink="http://www.w3.org/1999/xlink" x="0px" y="0px"
	 width="69.5586px" height="128.7173px" viewBox="0 0 69.5586 128.7173" enable-background="new 0 0 69.5586 128.7173"
	 xml:space="preserve">
<g id="XMLID_9385_">
	<polygon id="XMLID_9386_" fill="#006496" points="14.0073,32.0449 15.3091,32.0361 15.8774,111.6118 52.584,116.7739 
		52.4033,118.063 15.1895,112.8306 15.2402,112.4712 14.582,112.4771 	"/>
	<g id="XMLID_9390_">
		<path id="XMLID_9391_" fill="#FFDC3C" d="M60.5723,109.2739c4.9561,0.6992,8.9775,5.5957,8.9863,10.9414
			c0.0107,5.3496-3.9971,9.1152-8.9521,8.4199c-4.9492-0.6973-8.9746-5.5938-8.9834-10.9395
			C51.6123,112.3501,55.6211,108.5806,60.5723,109.2739L60.5723,109.2739z"/>
	</g>
	<g id="XMLID_9392_">
		<g id="XMLID_9393_">
			<path id="XMLID_9394_" fill="#007896" d="M14.9165,0.1377c8.2578,1.1621,14.9609,9.3252,14.9761,18.2344
				c0.0181,8.9131-6.6597,15.1943-14.918,14.0332C6.7222,31.2441,0.0151,23.084,0,14.1719
				C-0.0181,5.2617,6.6621-1.0215,14.9165,0.1377L14.9165,0.1377z"/>
		</g>
		<g id="XMLID_9395_">
			<g id="XMLID_9396_" enable-background="new    ">
				<defs>
					<polygon id="XMLID_9407_" enable-background="new    " points="24.7861,44.4336 24.7163,6.9121 4.5405,4.0752 4.6104,41.5977 
											"/>
				</defs>
				<clipPath id="XMLID_2_">
					<use xlink:href="#XMLID_9407_"  overflow="visible"/>
				</clipPath>
				<g id="XMLID_9397_" clip-path="url(#XMLID_2_)">
					<path id="XMLID_9398_" fill="#D2F0FF" d="M18.8726,42.2529l-8.4272-1.1846l-0.001-1.001l8.4258,1.1836L18.8726,42.2529
						L18.8726,42.2529z M18.8687,40.1592l-8.4272-1.1846l-0.001-0.9902l8.4258,1.1846L18.8687,40.1592L18.8687,40.1592z
						 M18.8633,38.0664l-8.4253-1.1836l-0.0015-0.9912l8.4258,1.1846L18.8633,38.0664L18.8633,38.0664z M18.8599,35.9844
						l-8.4258-1.1846l-0.0015-1.001l8.4258,1.1836L18.8599,35.9844L18.8599,35.9844z M15.7363,32.6641l-1.9907-0.2793
						c-0.0801-4.3105-1.3208-9.1533-2.1279-11.877c0.3545,0.1855,0.7192,0.3379,1.0537,0.4297
						c0.0625,0.0186,0.1206,0.0313,0.1753,0.0391c0.3179,0.0449,0.5098-0.0918,0.731-0.3398l0.1553-0.2148l0.1055-0.1309
						l0.0728,0.0322c0.1255,0.0967,0.25,0.3057,0.3657,0.5127c0.1045,0.1836,0.2188,0.3809,0.355,0.5234
						c0.1665,0.1689,0.3862,0.3809,0.606,0.4102l0.1768-0.0195c0.3013-0.1152,0.3003-0.6104,0.29-1.084
						c0-0.1348-0.0015-0.2598,0.0088-0.3691c0.0308-0.5596,0.1045-0.6836,0.145-0.7119c0.0176-0.0107,0.0405-0.0127,0.0659-0.0088
						c0.1411,0.0205,0.3779,0.21,0.519,0.3164l0.1665,0.1348c0.46,0.335,0.8667,0.7188,1.2949,1.1162
						C17.1064,23.5859,15.8027,28.2285,15.7363,32.6641L15.7363,32.6641z M17.895,32.9678l-1.4697-0.2061
						c0.0752-4.209,1.2876-8.6406,2.0645-11.0859l0.2505,0.2373l0.2593-0.3799c-0.1245-0.1074-0.2388-0.2119-0.3545-0.3301
						c0.2998-0.8809,0.498-1.4043,0.5083-1.4258l-0.647-0.3721c0,0.0225-0.187,0.4805-0.4463,1.2646
						c-0.3862-0.3574-0.7827-0.7285-1.2319-1.0508l-0.146-0.1094c-0.21-0.168-0.4907-0.3926-0.7651-0.4307
						c-0.1045-0.0146-0.21-0.001-0.3091,0.0537c-0.3125,0.1699-0.3433,0.751-0.3521,1.0527
						c-0.0103,0.1348-0.0103,0.2813-0.0103,0.416c0.0015,0.2031,0.0112,0.5635-0.0405,0.6689
						c-0.0103-0.0234-0.1045-0.0703-0.272-0.251c-0.0942-0.0928-0.1768-0.25-0.2822-0.4121
						c-0.1465-0.2676-0.3027-0.5254-0.5327-0.6934c-0.1084-0.0762-0.2021-0.1143-0.2837-0.125
						c-0.2554-0.0371-0.4004,0.1758-0.4878,0.3086l-0.1235,0.1738c-0.1577,0.1758-0.2363,0.2266-0.3726,0.207
						c-0.0342-0.0049-0.0737-0.0137-0.1167-0.0273c-0.3979-0.1133-0.856-0.3232-1.3159-0.5791
						c-0.2935-0.9404-0.4932-1.5088-0.5034-1.5342l-0.6343,0.1924c0,0.0117,0.1045,0.2959,0.2607,0.7803
						c-0.3018-0.2012-0.5732-0.418-0.792-0.6182l-0.2593,0.3799c0.3325,0.2949,0.7817,0.6387,1.2725,0.9443
						c0.7764,2.4941,2.2026,7.7012,2.2856,12.2695l-1.3047-0.1826c-0.1421-3.4629-1.543-5.7412-2.9121-7.9473
						c-0.8062-1.3164-1.6523-2.6855-2.2285-4.3086l-0.0215-0.0479c-0.6904-1.5264-1.0376-3.1045-1.04-4.6924
						c-0.0098-5.4248,4.0693-9.2617,9.0845-8.5566c5.0264,0.707,9.1221,5.6924,9.1309,11.1172
						c0.0078,4.1523-1.5088,6.1895-2.9761,8.168C19.418,27.6572,18.0146,29.542,17.895,32.9678L17.895,32.9678z M14.6226,5.4922
						C9.0649,4.7109,4.5498,8.9609,4.561,14.9697c0.0024,1.7568,0.3799,3.4971,1.1455,5.1689
						c0.6177,1.7402,1.4858,3.1563,2.3428,4.5254c1.3906,2.2656,2.7192,4.4102,2.7256,7.832l0.0015,0.1914
						c-0.8457,0.252-1.438,1.0703-1.4355,2.1055l0.0088,4.9746c0.0024,1.3721,1.0464,2.6445,2.3203,2.8223l5.9746,0.8398
						c1.2725,0.1797,2.3125-0.7988,2.3096-2.1719l-0.0088-4.9746c-0.001-0.8789-0.4424-1.7168-1.0781-2.2451l-0.001-0.4053
						c-0.0063-3.4219,1.3042-5.1953,2.709-7.0674c1.5483-2.0889,3.1704-4.2588,3.1611-8.7588
						C24.7251,11.7969,20.1816,6.2734,14.6226,5.4922L14.6226,5.4922z"/>
					<path id="XMLID_9406_" fill="#D2F0FF" d="M14.7104,7.3496l0.0015,1.002c-2.1055-0.2959-7.5679,0.5352-7.5537,7.8379
						L6.23,16.0596C6.2148,7.9453,12.3535,7.0195,14.7104,7.3496L14.7104,7.3496z"/>
				</g>
			</g>
		</g>
	</g>
</g>
<g>
</g>
<g>
</g>
<g>
</g>
<g>
</g>
<g>
</g>
<g>
</g>
<g>
</g>
<g>
</g>
<g>
</g>
<g>
</g>
<g>
</g>
<g>
</g>
<g>
</g>
<g>
</g>
<g>
</g>
</svg>
