<?xml version="1.0" encoding="utf-8"?>
<!-- Generator: Adobe Illustrator 16.0.0, SVG Export Plug-In . SVG Version: 6.00 Build 0)  -->
<!DOCTYPE svg PUBLIC "-//W3C//DTD SVG 1.1//EN" "http://www.w3.org/Graphics/SVG/1.1/DTD/svg11.dtd">
<svg version="1.1" id="Capa_1" xmlns="http://www.w3.org/2000/svg" xmlns:xlink="http://www.w3.org/1999/xlink" x="0px" y="0px"
	 width="184.4897px" height="62.3657px" viewBox="0 0 184.4897 62.3657" enable-background="new 0 0 184.4897 62.3657"
	 xml:space="preserve">
<g id="XMLID_8853_">
	<g id="XMLID_8854_">
		
			<rect id="XMLID_8855_" x="167.7949" y="47.551" transform="matrix(-0.1395 0.9902 -0.9902 -0.1395 240.6463 -110.7579)" fill="#42210B" width="1.3018" height="3.2544"/>
		<path id="XMLID_8856_" fill="#42210B" d="M154.144,47.8267l0.1816-1.2891l6.2988,0.8848l-0.1816,1.2891L154.144,47.8267z
			 M141.5444,46.0552l0.1816-1.2891l6.2988,0.8848l-0.1816,1.2891L141.5444,46.0552z M128.9429,44.2856l0.1816-1.291l6.3008,0.8867
			l-0.1816,1.2891L128.9429,44.2856z M116.3433,42.5142l0.1816-1.2891l6.3008,0.8848l-0.1816,1.2891L116.3433,42.5142z
			 M103.7437,40.7427l0.1816-1.2891l6.3008,0.8848l-0.1816,1.2891L103.7437,40.7427z M91.144,38.9712l0.1807-1.2891l6.2998,0.8867
			l-0.1797,1.2891L91.144,38.9712z M78.5454,37.2017l0.1802-1.2891l6.3003,0.8848l-0.1802,1.2891L78.5454,37.2017z M65.9463,35.4302
			l0.1807-1.2891l6.2988,0.8848l-0.1807,1.2891L65.9463,35.4302z M53.3457,33.6606l0.1807-1.291l6.3003,0.8867l-0.1807,1.2891
			L53.3457,33.6606z M40.7466,31.8872l0.1807-1.2886l6.2988,0.8857l-0.1807,1.2896L40.7466,31.8872z"/>
		
			<rect id="XMLID_8867_" x="32.2745" y="28.5047" transform="matrix(-0.1388 0.9903 -0.9903 -0.1388 67.3354 1.7074)" fill="#42210B" width="1.3017" height="3.2544"/>
	</g>
	<g id="XMLID_8868_">
		<g id="XMLID_8869_">
			<path id="XMLID_8870_" fill="#007896" d="M29.2939,20.8623c4.9556,0.6973,8.9766,5.5947,8.9854,10.9409
				c0.0103,5.3477-3.9956,9.1172-8.9497,8.4199c-4.9536-0.6973-8.9761-5.5938-8.9873-10.9399
				C20.332,23.9375,24.3403,20.166,29.2939,20.8623L29.2939,20.8623z"/>
		</g>
		<path id="XMLID_8871_" fill="#D2F0FF" d="M23.2266,28.1484l0.0903-0.0254l-0.0825,0.0811l9.3091,4.3394l-4.3384-9.3081
			l-0.0283,0.0283l0.0024-0.0068L4.9224,0L0,4.9219L23.2266,28.1484z M24.8765,27.916l3.0371-3.0391l2.2808,4.8887l-0.4287,0.4277
			L24.8765,27.916z M24.8184,26.6201L1.9985,3.7969L3.7974,1.998l22.8223,22.8223L24.8184,26.6201z"/>
	</g>
</g>
<g id="XMLID_9502_">
	<path id="XMLID_9503_" fill="#FFDC3C" stroke="#42210B" stroke-miterlimit="10" d="M176.2026,45.0161
		c4.293,0.6035,7.7773,4.8477,7.7871,9.4805c0.0098,4.6348-3.4629,7.9004-7.7578,7.2969c-4.291-0.6016-7.7773-4.8457-7.7871-9.4805
		S171.9077,44.4126,176.2026,45.0161L176.2026,45.0161z"/>
</g>
<g>
</g>
<g>
</g>
<g>
</g>
<g>
</g>
<g>
</g>
<g>
</g>
<g>
</g>
<g>
</g>
<g>
</g>
<g>
</g>
<g>
</g>
<g>
</g>
<g>
</g>
<g>
</g>
<g>
</g>
</svg>
