<?xml version="1.0" encoding="utf-8"?>
<!-- Generator: Adobe Illustrator 16.0.0, SVG Export Plug-In . SVG Version: 6.00 Build 0)  -->
<!DOCTYPE svg PUBLIC "-//W3C//DTD SVG 1.1//EN" "http://www.w3.org/Graphics/SVG/1.1/DTD/svg11.dtd">
<svg version="1.1" id="Capa_1" xmlns="http://www.w3.org/2000/svg" xmlns:xlink="http://www.w3.org/1999/xlink" x="0px" y="0px"
	 width="110.3262px" height="117.1548px" viewBox="0 0 110.3262 117.1548" enable-background="new 0 0 110.3262 117.1548"
	 xml:space="preserve">
<g id="XMLID_9506_">
	<path id="XMLID_9507_" fill="#06728E" d="M0.0308,98.7007c-0.2734,1.9355,1.3145,3.7617,3.5425,4.0742l102.0049,14.334
		c2.2295,0.3164,4.2559-1.002,4.5264-2.9395l0,0c0.2734-1.9375-1.3115-3.7617-3.54-4.0762L4.5586,95.7593
		C2.3306,95.4468,0.3027,96.7612,0.0308,98.7007L0.0308,98.7007z"/>
	<g id="XMLID_9508_">
		<path id="XMLID_9509_" fill="#D54A00" d="M19.7905,8.208l-3.3149,3.1172l71.2461,86.7212l3.3164-3.1133l-0.0029-0.002
			L19.7905,8.208L19.7905,8.208z M28.5151,0l-3.314,3.1182l71.2451,86.7192l0.0068,0.0098l3.3076-3.1113L28.5151,0L28.5151,0z"/>
		<polygon id="XMLID_9512_" fill="#E66400" points="25.2012,3.1182 96.4463,89.8374 91.0352,94.9312 19.7905,8.208 25.2012,3.1182 
					"/>
		<path id="XMLID_9513_" fill="#FAE1B4" d="M91.0381,94.9331l-3.3164,3.1133l16.1338,10.3828l0.9502-0.8945L91.0381,94.9331
			L91.0381,94.9331z M99.7607,86.7358l-3.3076,3.1113l9.9004,16.2305l0.9473-0.8945L99.7607,86.7358L99.7607,86.7358z"/>
		<polygon id="XMLID_9516_" fill="#FAF0C8" points="96.4463,89.8374 96.4531,89.8472 106.3535,106.0776 104.8057,107.5347 
			91.0381,94.9331 91.0352,94.9312 96.4463,89.8374 		"/>
		<polygon id="XMLID_9520_" fill="#D54A00" points="107.3047,105.1812 110.3262,112.5894 103.8486,108.4312 103.8555,108.4292 
			104.8057,107.5347 106.3535,106.0776 107.3008,105.1831 107.3047,105.1812 		"/>
	</g>
</g>
<g>
</g>
<g>
</g>
<g>
</g>
<g>
</g>
<g>
</g>
<g>
</g>
<g>
</g>
<g>
</g>
<g>
</g>
<g>
</g>
<g>
</g>
<g>
</g>
<g>
</g>
<g>
</g>
<g>
</g>
</svg>
