<?xml version="1.0" encoding="utf-8"?>
<!-- Generator: Adobe Illustrator 21.0.0, SVG Export Plug-In . SVG Version: 6.00 Build 0)  -->
<svg version="1.1" id="Capa_1" xmlns="http://www.w3.org/2000/svg" xmlns:xlink="http://www.w3.org/1999/xlink" x="0px" y="0px"
	 viewBox="0 0 192.8 115" style="enable-background:new 0 0 192.8 115;" xml:space="preserve">
<style type="text/css">
	.st0{fill-rule:evenodd;clip-rule:evenodd;fill:#FFFFFF;}
	.st1{fill-rule:evenodd;clip-rule:evenodd;fill:#1D1D1B;}
	.st2{fill-rule:evenodd;clip-rule:evenodd;fill:#0072BA;}
</style>
<g>
	<polygon class="st0" points="0,0 192.8,0 192.8,115 0,115 0,0 	"/>
	<path class="st1" d="M18,95.9c0,1-0.1,1.1-1,1.1v0.5h3.5V97c-1,0-1.1-0.1-1.1-1v-2.7h0.8c1.4,0,2.2-0.3,2.8-0.7
		c0.6-0.5,0.8-1.2,0.8-2c0-0.9-0.3-1.5-0.9-2c-0.5-0.4-1.2-0.6-2.5-0.6H17v0.5c1,0,1,0.1,1,1V95.9L18,95.9z M20.2,88.5
		c0.8,0,1.3,0.1,1.6,0.5c0.4,0.3,0.6,0.8,0.6,1.5c0,0.8-0.3,1.3-0.6,1.6c-0.4,0.4-1,0.5-1.6,0.5h-0.8v-3.4c0-0.6,0.1-0.7,0.3-0.7
		H20.2L20.2,88.5z"/>
	<path class="st1" d="M26.5,92.7l-0.1-0.8l-0.1-0.1c-0.6,0.3-1.2,0.5-1.7,0.6v0.3c0.6,0,0.6,0.1,0.6,0.8v2.7c0,0.8-0.1,0.8-0.6,0.8
		v0.4h2.7v-0.4c-0.7,0-0.8-0.1-0.8-0.8v-2.8c0.4-0.6,0.7-1,1-1c0.2,0,0.3,0.1,0.4,0.5c0.1,0.3,0.3,0.5,0.5,0.5
		c0.3,0,0.5-0.3,0.5-0.6c0-0.3-0.1-0.5-0.3-0.6c-0.2-0.2-0.4-0.3-0.7-0.3C27.4,91.8,27,92.1,26.5,92.7L26.5,92.7L26.5,92.7z"/>
	<path class="st1" d="M32.6,97.6c1,0,1.7-0.2,2.3-0.7c0.5-0.5,0.8-1.2,0.8-2.2c0-1-0.3-1.7-0.9-2.2c-0.6-0.5-1.3-0.6-2.3-0.6
		c-1,0-1.7,0.2-2.2,0.6c-0.6,0.5-0.9,1.2-0.9,2.2c0,1,0.3,1.7,0.9,2.2C30.9,97.4,31.7,97.6,32.6,97.6L32.6,97.6L32.6,97.6z
		 M32.6,92.2c0.5,0,1,0.2,1.2,0.5c0.3,0.5,0.5,1,0.5,1.9c0,1-0.2,1.5-0.5,1.9c-0.3,0.3-0.7,0.5-1.2,0.5c-0.5,0-1-0.2-1.2-0.5
		c-0.3-0.4-0.5-1-0.5-1.9c0-0.9,0.2-1.5,0.5-1.9C31.6,92.4,32.1,92.2,32.6,92.2L32.6,92.2L32.6,92.2z"/>
	<path class="st1" d="M38.1,89.5c-0.5,0-0.8,0.3-0.8,0.8c0,0.5,0.3,0.8,0.8,0.8c0.4,0,0.8-0.3,0.8-0.8
		C38.8,89.8,38.5,89.5,38.1,89.5L38.1,89.5L38.1,89.5z M37.5,97.2c0,1-0.1,1.7-0.3,2.1c-0.2,0.5-0.5,0.6-0.7,0.6
		c-0.3,0-0.5-0.1-0.6-0.5c-0.2-0.4-0.3-0.6-0.7-0.6c-0.2,0-0.4,0.2-0.4,0.5c0,0.3,0.2,0.5,0.5,0.7c0.3,0.2,0.7,0.3,1.3,0.3
		c0.7,0,1.3-0.3,1.7-0.8c0.4-0.6,0.6-1.4,0.6-2.6v-5.1l-0.2-0.1c-0.6,0.3-1.2,0.5-1.9,0.6v0.3c0.8,0,0.8,0.1,0.8,0.8L37.5,97.2
		L37.5,97.2z"/>
	<path class="st1" d="M45.5,94.7c0-0.9-0.3-1.6-0.7-2.1c-0.5-0.5-1.1-0.8-1.9-0.8c-0.8,0-1.4,0.3-1.9,0.7c-0.5,0.5-0.8,1.2-0.8,2.1
		c0,1,0.3,1.7,0.7,2.1c0.6,0.6,1.3,0.8,2.2,0.8c0.6,0,1.2-0.2,1.6-0.5c0.4-0.3,0.6-0.5,0.8-0.9L45.1,96c-0.2,0.3-0.4,0.5-0.6,0.7
		c-0.4,0.2-0.8,0.3-1.2,0.3c-0.6,0-1-0.3-1.4-0.7c-0.3-0.5-0.4-1-0.4-1.7L45.5,94.7L45.5,94.7z M41.6,94.2c0-0.6,0.2-1.2,0.4-1.4
		c0.3-0.3,0.6-0.5,1-0.5c0.5,0,0.7,0.2,0.9,0.5c0.3,0.4,0.3,1,0.3,1.5H41.6L41.6,94.2z"/>
	<path class="st1" d="M51.2,96.1c-0.3,0.3-0.5,0.5-0.7,0.7c-0.3,0.2-0.6,0.3-1,0.3c-0.5,0-1-0.3-1.3-0.7c-0.3-0.4-0.4-1-0.4-1.7
		c0-0.9,0.2-1.4,0.5-1.8c0.3-0.5,0.7-0.6,1.1-0.6c0.5,0,0.8,0.3,0.9,0.6c0.1,0.2,0.2,0.3,0.4,0.5c0.1,0.1,0.2,0.1,0.3,0.1
		c0.3,0,0.5-0.2,0.5-0.5c0-0.3-0.2-0.5-0.5-0.7c-0.3-0.3-0.9-0.5-1.6-0.5c-0.8,0-1.6,0.2-2.1,0.8c-0.5,0.5-0.8,1.2-0.8,2.1
		c0,0.9,0.3,1.7,0.8,2.3c0.5,0.4,1.1,0.6,2,0.6c0.6,0,1-0.1,1.4-0.4c0.4-0.2,0.7-0.5,0.9-0.8L51.2,96.1L51.2,96.1z"/>
	<path class="st1" d="M52.2,92.4H53V96c0,1.2,0.8,1.5,1.6,1.5c0.7,0,1.2-0.2,1.7-0.5L56,96.7c-0.3,0.2-0.6,0.3-1,0.3
		c-0.5,0-0.8-0.3-0.8-1v-3.6h1.7V92h-1.7v-1.7h-0.4c-0.3,1.2-0.7,1.7-1.7,1.7L52.2,92.4L52.2,92.4z"/>
	<path class="st1" d="M69.1,87.9l-3,7.7H66l-3.2-7.7h-2.4v0.5c0.9,0,1,0.1,1,1v6.5c0,1-0.1,1-1,1v0.5h2.6v-0.5c-0.9,0-1-0.1-1-1
		v-6.4l0,0l3.3,8.1H66l3.2-8h0.1V96c0,0.9-0.1,1-1,1v0.5h3.4V97c-1,0-1-0.1-1-1v-6.5c0-0.9,0.1-1,1-1V88L69.1,87.9L69.1,87.9z"/>
	<path class="st1" d="M77.1,93.6c0-0.5-0.1-1-0.5-1.3c-0.3-0.4-0.8-0.5-1.7-0.5c-0.8,0-1.2,0.1-1.5,0.3c-0.5,0.3-0.7,0.6-0.7,0.9
		c0,0.3,0.1,0.5,0.5,0.5c0.4,0,0.5-0.1,0.6-0.4c0.1-0.3,0.2-0.5,0.3-0.6c0.2-0.1,0.4-0.3,0.8-0.3c0.3,0,0.6,0.1,0.7,0.3
		c0.1,0.2,0.2,0.5,0.2,0.8V94L75,94.1c-0.8,0.2-1.4,0.5-1.8,0.7c-0.6,0.3-0.8,0.8-0.8,1.4c0,0.5,0.2,0.8,0.5,1.1
		c0.3,0.3,0.7,0.3,1.1,0.3c0.9,0,1.4-0.3,1.7-0.6h0.1c0.1,0.4,0.5,0.6,1,0.6c0.4,0,0.7-0.1,1-0.1L77.8,97c-0.1,0.1-0.3,0.1-0.3,0.1
		c-0.3,0-0.4-0.2-0.4-0.8L77.1,93.6L77.1,93.6z M75.7,96.4c-0.3,0.3-0.6,0.5-1.1,0.5c-0.3,0-0.5-0.1-0.6-0.3
		c-0.1-0.2-0.3-0.4-0.3-0.7c0-0.5,0.3-0.8,0.7-1c0.3-0.3,0.8-0.5,1.3-0.6V96.4L75.7,96.4z"/>
	<path class="st1" d="M84.2,93.6c0-0.7-0.2-1.2-0.5-1.4c-0.3-0.3-0.7-0.4-1.3-0.4c-0.8,0-1.4,0.4-1.9,1h-0.1v-0.9l-0.2-0.1
		c-0.5,0.3-1.2,0.5-1.8,0.6v0.3c0.7,0,0.8,0.1,0.8,0.8v2.6c0,0.8-0.1,0.9-0.8,0.9v0.4H81v-0.4c-0.6,0-0.6-0.1-0.6-0.8v-2.8
		c0.5-0.6,1-1,1.5-1c0.3,0,0.5,0.1,0.6,0.3c0.3,0.2,0.3,0.6,0.3,1v2.5c0,0.8-0.1,0.8-0.6,0.8v0.4h2.4v-0.4c-0.5,0-0.6-0.1-0.6-0.8
		V93.6L84.2,93.6z"/>
	<path class="st1" d="M90,93.6c0-0.5-0.1-1-0.4-1.3c-0.4-0.4-0.8-0.5-1.7-0.5c-0.8,0-1.3,0.1-1.6,0.3c-0.4,0.3-0.6,0.6-0.6,0.9
		c0,0.3,0.1,0.5,0.5,0.5c0.3,0,0.5-0.1,0.6-0.4c0.1-0.3,0.2-0.5,0.4-0.6c0.2-0.1,0.4-0.3,0.7-0.3c0.4,0,0.6,0.1,0.8,0.3
		c0.1,0.2,0.2,0.5,0.2,0.8V94L88,94.1c-0.8,0.2-1.4,0.5-1.8,0.7c-0.6,0.3-0.8,0.8-0.8,1.4c0,0.5,0.3,0.8,0.5,1.1
		c0.3,0.3,0.8,0.3,1.2,0.3c0.8,0,1.4-0.3,1.7-0.6h0.1c0.1,0.4,0.4,0.6,1,0.6c0.5,0,0.7-0.1,1-0.1L90.7,97c-0.1,0.1-0.2,0.1-0.3,0.1
		c-0.3,0-0.4-0.2-0.4-0.8L90,93.6L90,93.6z M88.7,96.4c-0.3,0.3-0.6,0.5-1.1,0.5c-0.3,0-0.5-0.1-0.6-0.3c-0.2-0.2-0.3-0.4-0.3-0.7
		c0-0.5,0.3-0.8,0.6-1c0.4-0.3,0.9-0.5,1.4-0.6V96.4L88.7,96.4z"/>
	<path class="st1" d="M93.6,96.7c-0.7,0-1-0.1-1-0.5c0-0.3,0.2-0.5,0.5-0.6c0.4,0.2,0.8,0.3,1.3,0.3c1.4,0,2.5-0.7,2.5-2.1
		c0-0.5-0.2-1-0.6-1.3l1.2,0.1V92l-1.7,0.2c-0.4-0.2-0.9-0.3-1.5-0.3c-1.5,0-2.6,0.7-2.6,2c0,0.7,0.4,1.3,1,1.7
		c-0.5,0.3-0.9,0.6-0.9,1.1c0,0.5,0.5,0.8,0.9,0.9c-0.6,0.3-1.4,0.8-1.4,1.5c0,1,1.2,1.4,2.9,1.4c1.9,0,3.3-0.9,3.3-2.1
		c0-0.8-0.6-1.5-2.5-1.5L93.6,96.7L93.6,96.7z M94.3,95.4c-0.8,0-1.3-0.6-1.3-1.6c0-0.8,0.5-1.5,1.2-1.5c0.8,0,1.3,0.7,1.3,1.5
		C95.5,94.8,95.1,95.4,94.3,95.4L94.3,95.4L94.3,95.4z M94.7,97.8c1.3,0,1.6,0.5,1.6,0.9c0,0.6-0.8,1.3-2.2,1.3
		c-1.1,0-1.8-0.5-1.8-1.1c0-0.5,0.3-0.8,0.8-1.2L94.7,97.8L94.7,97.8z"/>
	<path class="st1" d="M103.4,94.7c0-0.9-0.3-1.6-0.7-2.1c-0.5-0.5-1.1-0.8-1.9-0.8c-0.8,0-1.4,0.3-1.9,0.7c-0.5,0.5-0.8,1.2-0.8,2.1
		c0,1,0.3,1.7,0.7,2.1c0.5,0.6,1.3,0.8,2.2,0.8c0.6,0,1.2-0.2,1.6-0.5c0.4-0.3,0.6-0.5,0.8-0.9L103,96c-0.2,0.3-0.4,0.5-0.6,0.7
		c-0.4,0.2-0.8,0.3-1.2,0.3c-0.6,0-1-0.3-1.4-0.7c-0.3-0.5-0.4-1-0.4-1.7L103.4,94.7L103.4,94.7z M99.5,94.2c0-0.6,0.2-1.2,0.4-1.4
		c0.3-0.3,0.6-0.5,1-0.5c0.4,0,0.7,0.2,0.9,0.5c0.3,0.4,0.3,1,0.3,1.5H99.5L99.5,94.2z"/>
	<path class="st1" d="M113,93.7c0-0.7-0.1-1.1-0.4-1.4c-0.3-0.3-0.7-0.5-1.2-0.5c-0.8,0-1.4,0.5-1.8,1h-0.1
		c-0.1-0.3-0.3-0.5-0.5-0.7c-0.3-0.1-0.6-0.3-1.1-0.3c-0.7,0-1.3,0.5-1.7,0.9h-0.1v-0.8l-0.2-0.1c-0.5,0.3-1.2,0.5-1.7,0.5v0.4
		c0.6,0,0.7,0.1,0.7,0.8v2.6c0,0.8-0.1,0.8-0.7,0.8v0.4h2.6v-0.4c-0.5,0-0.6-0.1-0.6-0.8v-2.9c0.5-0.6,0.8-1,1.3-1
		c0.3,0,0.5,0.1,0.6,0.3c0.1,0.3,0.2,0.6,0.2,1.1v2.4c0,0.7-0.1,0.8-0.6,0.8v0.4h2.4v-0.4c-0.5,0-0.6-0.1-0.6-0.8v-3
		c0.4-0.6,0.8-0.9,1.3-0.9c0.3,0,0.5,0.1,0.6,0.4c0.1,0.3,0.2,0.6,0.2,1v2.4c0,0.7-0.1,0.8-0.6,0.8v0.4h2.4v-0.4
		c-0.5,0-0.6-0.1-0.6-0.8V93.7L113,93.7z"/>
	<path class="st1" d="M119.6,94.7c0-0.9-0.3-1.6-0.7-2.1c-0.5-0.5-1.1-0.8-1.9-0.8c-0.8,0-1.5,0.3-1.9,0.7c-0.5,0.5-0.8,1.2-0.8,2.1
		c0,1,0.3,1.7,0.7,2.1c0.5,0.6,1.3,0.8,2.2,0.8c0.6,0,1.2-0.2,1.5-0.5c0.4-0.3,0.7-0.5,0.9-0.9l-0.4-0.2c-0.2,0.3-0.5,0.5-0.7,0.7
		c-0.3,0.2-0.7,0.3-1.1,0.3c-0.6,0-1-0.3-1.4-0.7c-0.3-0.5-0.4-1-0.4-1.7L119.6,94.7L119.6,94.7z M115.7,94.2c0-0.6,0.1-1.2,0.4-1.4
		c0.3-0.3,0.6-0.5,1-0.5c0.4,0,0.7,0.2,0.9,0.5c0.2,0.4,0.3,1,0.3,1.5H115.7L115.7,94.2z"/>
	<path class="st1" d="M126.2,93.6c0-0.7-0.2-1.2-0.5-1.4c-0.3-0.3-0.7-0.4-1.3-0.4c-0.7,0-1.4,0.4-1.9,1l0,0l-0.1-0.9l-0.2-0.1
		c-0.5,0.3-1.2,0.5-1.7,0.6v0.3c0.6,0,0.7,0.1,0.7,0.8v2.6c0,0.8-0.1,0.9-0.7,0.9v0.4h2.6v-0.4c-0.6,0-0.6-0.1-0.6-0.8v-2.8
		c0.5-0.6,1-1,1.5-1c0.3,0,0.5,0.1,0.6,0.3c0.3,0.2,0.3,0.6,0.3,1v2.5c0,0.8-0.1,0.8-0.6,0.8v0.4h2.4v-0.4c-0.5,0-0.6-0.1-0.6-0.8
		V93.6L126.2,93.6z"/>
	<path class="st1" d="M127.3,92.4h0.8V96c0,1.2,0.8,1.5,1.7,1.5c0.7,0,1.2-0.2,1.6-0.5l-0.2-0.4c-0.3,0.2-0.6,0.3-1,0.3
		c-0.5,0-0.7-0.3-0.7-1v-3.6h1.6V92h-1.6v-1.7H129c-0.3,1.2-0.7,1.7-1.7,1.7V92.4L127.3,92.4z"/>
	<path class="st1" d="M136.5,95.9c0,1-0.1,1-1,1v0.5h3.4v-0.5c-0.9,0-1-0.1-1-1v-6.4c0-1,0.1-1,1-1v-0.5h-3.3v0.5
		c0.8,0,0.9,0.1,0.9,1V95.9L136.5,95.9z"/>
	<path class="st1" d="M145.3,93.6c0-0.7-0.2-1.2-0.5-1.4c-0.3-0.3-0.8-0.4-1.4-0.4c-0.7,0-1.4,0.4-1.9,1l0,0l-0.1-0.9l-0.1-0.1
		c-0.6,0.3-1.2,0.5-1.8,0.6v0.3c0.6,0,0.7,0.1,0.7,0.8v2.6c0,0.8-0.1,0.9-0.7,0.9v0.4h2.6v-0.4c-0.5,0-0.6-0.1-0.6-0.8v-2.8
		c0.5-0.6,1-1,1.5-1c0.3,0,0.5,0.1,0.7,0.3c0.2,0.2,0.3,0.6,0.3,1v2.5c0,0.8,0,0.8-0.6,0.8v0.4h2.5v-0.4c-0.6,0-0.6-0.1-0.6-0.8
		V93.6L145.3,93.6z"/>
	<path class="st1" d="M150.5,93.3c-0.1-0.6-0.2-0.9-0.2-1.2c-0.4-0.2-0.9-0.3-1.5-0.3c-0.7,0-1.2,0.1-1.5,0.4
		c-0.5,0.3-0.6,0.6-0.6,1c0,0.4,0.1,0.6,0.3,0.9c0.3,0.3,0.7,0.5,1.2,0.8c0.6,0.3,0.9,0.5,1.1,0.6c0.2,0.2,0.3,0.4,0.3,0.6
		c0,0.3-0.1,0.5-0.3,0.6c-0.2,0.2-0.5,0.3-0.8,0.3c-0.7,0-1.2-0.3-1.4-1.3l-0.5,0.1c0.1,0.5,0.2,0.9,0.3,1.4c0.5,0.2,1,0.3,1.8,0.3
		c0.8,0,1.4-0.2,1.7-0.5c0.4-0.3,0.6-0.7,0.6-1.2c0-0.4-0.2-0.7-0.5-1c-0.2-0.3-0.5-0.5-0.9-0.7c-0.3-0.2-0.8-0.4-1.2-0.6
		c-0.3-0.2-0.5-0.5-0.5-0.7c0-0.2,0.1-0.4,0.3-0.5c0.2-0.1,0.5-0.2,0.7-0.2c0.6,0,1,0.3,1.2,1.2L150.5,93.3L150.5,93.3z"/>
	<path class="st1" d="M151.4,92.4h0.8V96c0,1.2,0.8,1.5,1.6,1.5c0.7,0,1.2-0.2,1.7-0.5l-0.3-0.4c-0.3,0.2-0.6,0.3-1,0.3
		c-0.5,0-0.8-0.3-0.8-1v-3.6h1.7V92h-1.7v-1.7h-0.4c-0.3,1.2-0.7,1.7-1.7,1.7V92.4L151.4,92.4z"/>
	<path class="st1" d="M157.4,89.5c-0.5,0-0.8,0.3-0.8,0.8c0,0.5,0.3,0.8,0.8,0.8c0.4,0,0.8-0.3,0.8-0.8
		C158.2,89.8,157.8,89.5,157.4,89.5L157.4,89.5L157.4,89.5z M158.1,91.9l-0.2-0.1c-0.6,0.3-1.2,0.5-1.9,0.5v0.3
		c0.8,0,0.8,0.1,0.8,0.8v2.6c0,0.8,0,0.9-0.8,0.9v0.4h2.8v-0.4c-0.6,0-0.7-0.1-0.7-0.9V91.9L158.1,91.9z"/>
	<path class="st1" d="M159.4,92.4h0.8V96c0,1.2,0.8,1.5,1.7,1.5c0.7,0,1.2-0.2,1.6-0.5l-0.3-0.4c-0.3,0.2-0.6,0.3-1,0.3
		c-0.5,0-0.8-0.3-0.8-1v-3.6h1.7V92h-1.7v-1.7h-0.4c-0.3,1.2-0.7,1.7-1.7,1.7V92.4L159.4,92.4z"/>
	<path class="st1" d="M170.5,97.1c-0.6,0-0.7-0.1-0.7-0.9v-4.3l-0.2-0.1c-0.6,0.3-1.2,0.5-1.7,0.5v0.4c0.6,0,0.6,0.1,0.6,0.8
		l0.1,2.6c-0.5,0.5-1,0.8-1.5,0.8c-0.3,0-0.6-0.1-0.8-0.4c-0.2-0.3-0.3-0.6-0.3-1.2v-3.4l-0.2-0.1c-0.6,0.3-1.2,0.5-1.8,0.6l0.1,0.3
		c0.6,0,0.6,0.1,0.6,0.8v2c0,0.8,0.2,1.4,0.5,1.7c0.3,0.3,0.8,0.4,1.4,0.4c0.9,0,1.5-0.4,2-0.8h0.1l0.1,0.8l0.1,0.1
		c0.3-0.1,0.6-0.1,0.9-0.1c0.3-0.1,0.6-0.1,0.8-0.1L170.5,97.1L170.5,97.1z"/>
	<path class="st1" d="M171.1,92.4h0.8V96c0,1.2,0.8,1.5,1.7,1.5c0.7,0,1.2-0.2,1.6-0.5l-0.3-0.4c-0.3,0.2-0.6,0.3-1,0.3
		c-0.5,0-0.7-0.3-0.7-1v-3.6h1.6V92h-1.6v-1.7h-0.5c-0.3,1.2-0.7,1.7-1.7,1.7V92.4L171.1,92.4z"/>
	<path class="st1" d="M181,94.7c0-0.9-0.3-1.6-0.7-2.1c-0.5-0.5-1.1-0.8-1.9-0.8c-0.8,0-1.5,0.3-1.9,0.7c-0.5,0.5-0.8,1.2-0.8,2.1
		c0,1,0.3,1.7,0.7,2.1c0.5,0.6,1.3,0.8,2.2,0.8c0.6,0,1.2-0.2,1.5-0.5c0.4-0.3,0.7-0.5,0.9-0.9l-0.4-0.2c-0.2,0.3-0.5,0.5-0.7,0.7
		c-0.3,0.2-0.7,0.3-1.1,0.3c-0.6,0-1-0.3-1.4-0.7c-0.3-0.5-0.4-1-0.4-1.7L181,94.7L181,94.7z M177.1,94.2c0-0.6,0.1-1.2,0.4-1.4
		c0.3-0.3,0.6-0.5,0.9-0.5c0.5,0,0.7,0.2,1,0.5c0.2,0.4,0.3,1,0.3,1.5H177.1L177.1,94.2z"/>
	<path class="st2" d="M42.6,46.4l-2.8-0.1v15.3l11.5-0.1h0.2c0,0,0.1,0,0.3-0.1c1.7-0.4,14.1-3.5,14.6-20.3c0,0,1.4-15.6-14.9-21.5
		l-3-0.8l-3.4-0.6H15.9v61.5h20V35.6l7.4,0.1c0,0,0.4,0.1,0.6,0.2c1.6,0.8,6.4,6.7-0.5,10.2c-0.1,0.1-0.3,0.1-0.4,0.2L42.6,46.4
		L42.6,46.4z"/>
	<polygon class="st2" points="70,18.3 83.5,18.3 70.1,38.8 70,18.3 	"/>
	<polygon class="st2" points="87.6,55.5 87.6,79.8 72,79.8 87.6,55.5 	"/>
	<polygon class="st2" points="123.3,55.5 123.3,79.8 107.5,79.8 123.3,55.5 	"/>
	<polygon class="st2" points="110.1,18.3 110.1,35.2 121.4,18.3 110.1,18.3 	"/>
	<polygon class="st2" points="146.8,79.8 168.6,79.8 168.6,18.3 146.8,18.3 146.8,79.8 	"/>
	<polygon class="st2" points="171.1,74.7 171.1,75.3 172.9,75.3 172.9,79.8 173.6,79.8 173.6,75.3 175.3,75.3 175.3,74.7 
		171.1,74.7 	"/>
	<polygon class="st2" points="176,74.7 176,79.8 176.6,79.8 176.6,75.5 178,79.8 178.7,79.8 180.2,75.5 180.2,79.8 180.9,79.8 
		180.9,74.7 179.9,74.7 178.4,79.1 176.9,74.7 176,74.7 	"/>
</g>
</svg>
