<?xml version="1.0" encoding="utf-8"?>
<!-- Generator: Adobe Illustrator 19.0.0, SVG Export Plug-In . SVG Version: 6.00 Build 0)  -->
<svg version="1.1" id="Capa_1" xmlns="http://www.w3.org/2000/svg" xmlns:xlink="http://www.w3.org/1999/xlink" x="0px" y="0px"
	 viewBox="0 0 257.4 192.8" style="enable-background:new 0 0 257.4 192.8;" xml:space="preserve">
<style type="text/css">
	.st0{fill-rule:evenodd;clip-rule:evenodd;fill:#FFFFFF;}
	.st1{fill-rule:evenodd;clip-rule:evenodd;fill:#1D1D1B;}
</style>
<g id="XMLID_17138_">
	<polygon id="XMLID_17925_" class="st0" points="0,0 257.4,0 257.4,192.8 0,192.8 0,0 	"/>
	<path id="XMLID_17920_" class="st1" d="M154,95h-0.8v-3.8h1.4c1,0,1.6,0.3,1.6,1.1c0,0.7-0.4,0.9-0.9,1l1,1.7h-1l-0.9-1.6H154V95
		L154,95z M154.8,92.7c0.4,0,0.6-0.1,0.6-0.5c0-0.4-0.4-0.4-0.7-0.4H154v0.9H154.8L154.8,92.7z M154.6,96.6c-1.9,0-3.5-1.3-3.5-3.5
		c0-2.2,1.7-3.5,3.5-3.5c1.9,0,3.5,1.3,3.5,3.5C158.1,95.3,156.5,96.6,154.6,96.6L154.6,96.6z M154.6,90.4c-1.4,0-2.5,1.1-2.5,2.7
		c0,1.6,1.1,2.7,2.5,2.7v0c1.4,0,2.5-1.1,2.5-2.7C157.1,91.5,156,90.4,154.6,90.4L154.6,90.4z"/>
	<path id="XMLID_17916_" class="st1" d="M159,68.8c0,16-12.9,28.9-28.9,28.9c-16,0-28.9-12.9-28.9-28.9c0-16,12.9-28.9,28.9-28.9
		C146,39.9,159,52.9,159,68.8L159,68.8z M130.1,42.8c-14.4,0-26,11.6-26,26c0,14.4,11.6,26,26,26c14.4,0,26-11.6,26-26
		C156.1,54.5,144.4,42.8,130.1,42.8L130.1,42.8z"/>
	<path id="XMLID_17910_" class="st1" d="M141.9,56.9h-7.3l0-11.4h-4.4c-1.6,3.1-6.1,5.4-11.5,5.7l0,0v2.5h5.7v3.2h-6.4
		c-6.7,0-12.1,5.4-12.1,12.1c0,6.7,5.4,12.1,12.1,12.1h6.4v0.6c0,3.3-2.7,5.9-5.9,5.9v2.5h22.1v-2.5c-3.3,0-5.9-2.7-5.9-5.9l0-0.6
		h7.2c6.7,0,12.1-5.4,12.1-12.1C154,62.3,148.6,56.9,141.9,56.9L141.9,56.9z M115.9,69c0-4.8,3.9-8.7,8.7-8.7v17.5
		C119.7,77.7,115.9,73.8,115.9,69L115.9,69z M134.7,77.7L134.7,77.7l-0.1-17.5h0.1c4.8,0,8.7,3.9,8.7,8.7
		C143.5,73.8,139.5,77.7,134.7,77.7L134.7,77.7z"/>
	<path id="XMLID_17907_" class="st1" d="M37,102.2c3-2.3,6.7-3.4,10.9-3.4c2.2,0,5.3,0.4,7.2,1c0.5,0.1,0.8,0.2,1.1,0.2
		c0,0.9,0.2,3.5,0.6,6c-0.2,0.3-0.8,0.3-1.1,0.1c-0.6-2.8-2.4-5.9-8.3-5.9c-6.2,0-11.5,3.9-11.5,12.3c0,8.5,5.4,13.2,12,13.2
		c5.2,0,7.5-3.4,8.5-5.8c0.3-0.2,0.9-0.1,1.1,0.2c-0.3,2.1-1.3,4.8-1.9,5.6c-0.5,0.1-1,0.2-1.4,0.4c-0.9,0.3-3.8,0.9-6.4,0.9
		c-3.6,0-7.1-0.7-10.1-2.7c-3.2-2.2-5.8-5.9-5.8-11.2C31.9,108.4,34,104.6,37,102.2L37,102.2z"/>
	<path id="XMLID_17904_" class="st1" d="M61.8,116.3c0-6.1,4.6-10.7,10.8-10.7c7,0,10.6,5.1,10.6,10.4c0,6.1-4.7,10.6-10.6,10.6
		C65.9,126.6,61.8,121.8,61.8,116.3L61.8,116.3z M80.1,117c0-5-2.2-10.4-8-10.4c-3.2,0-7.3,2.2-7.3,8.8c0,4.5,2.2,10.3,8.2,10.3
		C76.7,125.7,80.1,122.9,80.1,117L80.1,117z"/>
	<path id="XMLID_17903_" class="st1" d="M97.9,118c0.7,1.4,1.4,2.8,2.1,4.2h0.1c0.8-1.4,1.6-3,2.3-4.6l2.9-5.8
		c1.4-2.8,2.2-4.4,2.3-5.8c1,0.1,1.7,0.1,2.3,0.1c0.8,0,1.8,0,2.7-0.1c0.2,0.1,0.2,0.6,0,0.8l-0.6,0.1c-1.9,0.2-2.2,0.8-2.1,2.9
		c0.1,3.2,0.1,8.8,0.3,13.2c0.1,1.5,0.1,2.3,1.5,2.5l1,0.1c0.2,0.2,0.2,0.6-0.1,0.8c-1.2-0.1-2.5-0.1-3.6-0.1c-1.1,0-2.4,0-3.7,0.1
		c-0.2-0.2-0.2-0.6-0.1-0.8l0.9-0.1c1.5-0.2,1.5-0.6,1.5-2.6l-0.1-12.7h-0.1c-0.2,0.3-1.4,2.8-2,4l-2.7,5.3
		c-1.4,2.7-2.7,5.5-3.3,6.9c-0.1,0.1-0.2,0.1-0.3,0.1c-0.1,0-0.2,0-0.3-0.1c-0.5-1.6-2-4.6-2.7-6.1l-2.7-5.9c-0.6-1.4-1.3-3-1.9-4.4
		h-0.1c-0.1,1.9-0.2,3.6-0.3,5.4c-0.1,1.9-0.2,4.6-0.2,7.1c0,2.3,0.2,2.7,1.4,2.8l1.2,0.1c0.2,0.2,0.2,0.7,0,0.8
		c-1-0.1-2.2-0.1-3.4-0.1c-1,0-2.1,0-3.1,0.1c-0.2-0.2-0.2-0.6-0.1-0.8l0.7-0.1c1.3-0.2,1.7-0.4,1.9-2.5c0.2-2,0.3-3.7,0.5-6.7
		c0.2-2.5,0.3-5.1,0.3-6.8c0.1-1.9-0.2-2.3-2-2.6l-0.5-0.1c-0.2-0.2-0.1-0.6,0.1-0.8c0.9,0.1,1.6,0.1,2.4,0.1c0.7,0,1.5,0,2.5-0.1
		c-0.1,1.2,0.6,3.1,1.6,5L97.9,118L97.9,118z"/>
	<path id="XMLID_17902_" class="st1" d="M121.4,121.6c0,3.2,0.1,3.6,2,3.8l0.8,0.1c0.2,0.2,0.1,0.7-0.1,0.8c-1.7-0.1-2.7-0.1-4-0.1
		c-1.3,0-2.4,0-3.7,0.1c-0.2-0.1-0.2-0.6-0.1-0.8l0.6-0.1c1.8-0.2,1.8-0.6,1.8-3.8v-11.2c0-2.6-0.1-3.1-1.4-3.3l-1.1-0.1
		c-0.2-0.2-0.2-0.6,0.1-0.8c1.6-0.2,3.5-0.2,6-0.2s4.4,0.3,5.8,1.2c1.4,0.9,2.4,2.5,2.4,4.6c0,2.8-1.7,4.2-3,4.8
		c-1.3,0.6-3,0.9-4.2,0.9c-0.2-0.1-0.2-0.5,0-0.6c3.3-0.6,4.5-2.5,4.5-5.1c0-2.9-1.7-4.9-4.9-4.9c-1.6,0-1.6,0.1-1.6,1.1V121.6
		L121.4,121.6z"/>
	<path id="XMLID_17901_" class="st1" d="M151.7,113.7c0-1.9-0.1-5.4-0.6-6.3c-0.2-0.4-0.8-0.6-1.5-0.6l-0.8-0.1
		c-0.2-0.2-0.1-0.6,0.1-0.7c1.2,0.1,2.3,0.1,3.5,0.1c1.3,0,2.1,0,3.2-0.1c0.2,0.2,0.2,0.5,0.1,0.7l-0.7,0.1
		c-0.8,0.1-1.4,0.3-1.5,0.7c-0.5,1-0.4,4.5-0.4,6.2v3.4c0,2.6-0.4,5.4-2.1,7.3c-1.3,1.4-3.6,2.2-5.8,2.2c-2.1,0-4.2-0.4-5.7-1.7
		c-1.6-1.3-2.4-3.6-2.4-7.2v-7.2c0-3.2-0.1-3.7-1.8-3.8l-0.8-0.1c-0.2-0.1-0.1-0.6,0.1-0.7c1.5,0.1,2.6,0.1,3.8,0.1
		c1.2,0,2.2,0,3.7-0.1c0.2,0.1,0.2,0.6,0.1,0.7l-0.7,0.1c-1.8,0.2-1.8,0.7-1.8,3.8v6.6c0,4.9,1.5,8.1,6.2,8.1c4.4,0,6.1-3.5,6.1-8.1
		V113.7L151.7,113.7z"/>
	<path id="XMLID_17900_" class="st1" d="M168.6,121.6c0,3.2,0.1,3.6,1.8,3.8l1,0.1c0.2,0.1,0.1,0.7-0.1,0.8c-1.7-0.1-2.8-0.1-4-0.1
		c-1.2,0-2.3,0-4.2,0.1c-0.2-0.1-0.2-0.6,0-0.8l1.1-0.1c1.7-0.2,1.9-0.6,1.9-3.8V108c0-0.9,0-1-0.9-1h-1.7c-1.3,0-3,0.1-3.7,0.8
		c-0.7,0.7-1,1.3-1.4,2.1c-0.2,0.2-0.7,0-0.8-0.2c0.5-1.4,0.9-3.3,1.2-4.5c0.1-0.1,0.5-0.1,0.6,0c0.2,1,1.2,0.9,2.6,0.9h12.3
		c1.6,0,1.9-0.1,2.4-0.9c0.2-0.1,0.5,0,0.5,0.1c-0.3,1.2-0.5,3.7-0.5,4.6c-0.1,0.2-0.6,0.2-0.8,0.1c-0.1-0.8-0.3-1.9-0.8-2.2
		c-0.7-0.5-1.9-0.8-3.5-0.8h-2.2c-0.9,0-0.9,0-0.9,1V121.6L168.6,121.6z"/>
	<path id="XMLID_17899_" class="st1" d="M182.9,110.6c0-3.2-0.1-3.6-1.9-3.8l-0.5-0.1c-0.2-0.1-0.1-0.7,0.1-0.8
		c1.3,0.1,2.3,0.1,3.6,0.1h5.7c1.9,0,3.7,0,4.1-0.1c0.2,0.5,0.4,2.7,0.5,4c-0.1,0.2-0.6,0.2-0.8,0.1c-0.5-1.4-0.7-2.5-2.3-2.9
		c-0.6-0.2-1.6-0.2-3-0.2h-2.2c-0.9,0-0.9,0.1-0.9,1.2v6.1c0,0.9,0.1,0.9,1,0.9h1.8c1.3,0,2.2-0.1,2.6-0.2c0.4-0.1,0.6-0.3,0.7-1.1
		l0.2-1.2c0.2-0.2,0.7-0.2,0.8,0c0,0.7-0.1,1.9-0.1,3.1c0,1.1,0.1,2.3,0.1,2.9c-0.1,0.2-0.6,0.2-0.8,0l-0.3-1.2
		c-0.1-0.5-0.3-1-0.9-1.2c-0.4-0.1-1.2-0.2-2.3-0.2h-1.8c-0.9,0-1,0-1,0.8v4.3c0,1.6,0.1,2.6,0.6,3.2c0.4,0.4,1,0.7,3.7,0.7
		c2.3,0,3.2-0.1,3.9-0.5c0.5-0.3,1.4-1.4,2.2-3c0.2-0.2,0.6-0.1,0.8,0.2c-0.2,1.1-1,3.4-1.4,4.2c-2.7-0.1-5.4-0.1-8.1-0.1h-2.7
		c-1.3,0-2.3,0-4.1,0.1c-0.2-0.1-0.2-0.6-0.1-0.8l1-0.1c1.7-0.2,1.9-0.6,1.9-3.8V110.6L182.9,110.6z"/>
	<path id="XMLID_17896_" class="st1" d="M202.2,110.7c0-2.9-0.1-3.4-1.3-3.6l-1-0.1c-0.2-0.2-0.2-0.6,0-0.8c1.7-0.2,3.8-0.2,6.8-0.2
		c1.9,0,3.7,0.2,5.1,0.9c1.5,0.8,2.5,2.1,2.5,4.3c0,2.9-2.3,4.5-3.8,5.1c-0.2,0.2,0,0.5,0.2,0.7c2.4,3.9,4,6.4,6.1,8.1
		c0.5,0.5,1.3,0.8,2.1,0.9c0.2,0.1,0.2,0.3,0,0.4c-0.3,0.1-0.8,0.2-1.3,0.2c-2.6,0-4.1-0.8-6.3-3.8c-0.8-1.1-2-3.2-3-4.6
		c-0.5-0.7-0.9-1-2.2-1c-1.4,0-1.4,0-1.4,0.7v3.8c0,3.2,0.1,3.6,1.8,3.8l0.6,0.1c0.2,0.2,0.1,0.7-0.1,0.8c-1.4-0.1-2.4-0.1-3.6-0.1
		c-1.3,0-2.4,0-3.8,0.1c-0.2-0.1-0.2-0.5-0.1-0.8l0.8-0.1c1.8-0.2,1.8-0.6,1.8-3.8V110.7L202.2,110.7z M204.7,115c0,0.5,0,0.9,0.1,1
		c0.1,0.1,0.5,0.2,2.1,0.2c1.1,0,2.3-0.1,3.1-0.8c0.8-0.6,1.5-1.7,1.5-3.8c0-2.4-1.5-4.7-4.9-4.7c-1.9,0-2,0.1-2,1V115L204.7,115z"
		/>
	<path id="XMLID_17895_" class="st1" d="M68.3,152.8c-2.6,0-4.2-0.8-4.7-1.1c-0.4-0.7-0.8-2.8-0.8-4.3c0.2-0.2,0.6-0.3,0.7-0.1
		c0.5,1.6,1.7,4.5,5.2,4.5c2.6,0,3.8-1.7,3.8-3.5c0-1.3-0.3-2.8-2.5-4.3l-2.9-1.9c-1.5-1-3.3-2.7-3.3-5.2c0-2.9,2.3-5.2,6.2-5.2
		c0.9,0,2,0.2,2.8,0.4c0.4,0.1,0.8,0.2,1.1,0.2c0.3,0.7,0.5,2.4,0.5,3.7c-0.1,0.2-0.6,0.3-0.8,0.1c-0.4-1.5-1.2-3.4-4.1-3.4
		c-3,0-3.6,2-3.6,3.4c0,1.8,1.5,3,2.6,3.7l2.4,1.5c1.9,1.2,3.8,2.9,3.8,5.8C74.8,150.5,72.2,152.8,68.3,152.8L68.3,152.8z"/>
	<path id="XMLID_17892_" class="st1" d="M79.3,142.5c0-6.1,4.6-10.7,10.8-10.7c7,0,10.6,5.1,10.6,10.4c0,6.1-4.7,10.6-10.6,10.6
		C83.3,152.8,79.3,148,79.3,142.5L79.3,142.5z M97.6,143.1c0-5-2.2-10.4-8-10.4c-3.2,0-7.3,2.2-7.3,8.8c0,4.5,2.2,10.3,8.2,10.3
		C94.1,151.9,97.6,149.1,97.6,143.1L97.6,143.1z"/>
	<path id="XMLID_17891_" class="st1" d="M108.7,134.4c2.2-1.7,5-2.6,8.2-2.6c1.6,0,4,0.3,5.4,0.7c0.4,0.1,0.6,0.2,0.9,0.1
		c0,0.7,0.2,2.6,0.4,4.5c-0.2,0.2-0.6,0.2-0.8,0.1c-0.5-2.1-1.8-4.4-6.2-4.4c-4.7,0-8.6,3-8.6,9.2c0,6.4,4,9.9,9,9.9
		c3.9,0,5.7-2.6,6.4-4.3c0.2-0.2,0.7-0.1,0.8,0.1c-0.2,1.6-1,3.6-1.5,4.2c-0.4,0.1-0.7,0.2-1.1,0.3c-0.7,0.2-2.9,0.7-4.8,0.7
		c-2.7,0-5.4-0.5-7.6-2c-2.4-1.7-4.3-4.4-4.3-8.4C104.9,139,106.4,136.1,108.7,134.4L108.7,134.4z"/>
	<path id="XMLID_17889_" class="st1" d="M130.1,136.9c0-3.2-0.1-3.7-1.9-3.9l-0.8-0.1c-0.2-0.1-0.1-0.7,0.1-0.8
		c1.5,0.1,2.6,0.1,3.8,0.1c1.2,0,2.2,0,3.8-0.1c0.2,0.1,0.2,0.6,0.1,0.8l-0.8,0.1c-1.8,0.2-1.9,0.7-1.9,3.9v10.8
		c0,3.2,0.1,3.6,1.9,3.9l0.8,0.1c0.2,0.1,0.1,0.7-0.1,0.8c-1.5-0.1-2.6-0.1-3.8-0.1c-1.3,0-2.3,0-3.8,0.1c-0.2-0.1-0.2-0.6-0.1-0.8
		l0.8-0.1c1.8-0.2,1.9-0.6,1.9-3.9V136.9L130.1,136.9z"/>
	<path id="XMLID_17887_" class="st1" d="M141.9,136.8c0-3.2-0.1-3.6-1.9-3.8l-0.5-0.1c-0.2-0.1-0.1-0.7,0.1-0.8
		c1.3,0.1,2.3,0.1,3.6,0.1h5.7c1.9,0,3.7,0,4.1-0.1c0.2,0.5,0.4,2.7,0.5,4c-0.1,0.2-0.6,0.2-0.8,0.1c-0.5-1.4-0.7-2.5-2.3-2.9
		c-0.6-0.2-1.6-0.2-3-0.2h-2.2c-0.9,0-0.9,0.1-0.9,1.2v6.1c0,0.9,0.1,0.9,1,0.9h1.8c1.3,0,2.2-0.1,2.6-0.2c0.4-0.1,0.6-0.3,0.7-1.1
		l0.2-1.2c0.2-0.2,0.7-0.2,0.8,0c0,0.7-0.1,1.9-0.1,3.1c0,1.1,0.1,2.3,0.1,2.9c-0.1,0.2-0.6,0.2-0.8,0l-0.3-1.2
		c-0.1-0.5-0.3-1-0.9-1.2c-0.4-0.1-1.2-0.2-2.3-0.2h-1.8c-0.9,0-1,0-1,0.8v4.3c0,1.6,0.1,2.6,0.6,3.2c0.4,0.4,1,0.7,3.7,0.7
		c2.3,0,3.2-0.1,3.9-0.5c0.5-0.3,1.4-1.4,2.2-3c0.2-0.2,0.6-0.1,0.8,0.2c-0.2,1.1-1,3.4-1.4,4.2c-2.7-0.1-5.4-0.1-8.1-0.1h-2.7
		c-1.3,0-2.3,0-4.1,0.1c-0.2-0.1-0.2-0.6-0.1-0.8l1-0.1c1.7-0.2,1.9-0.6,1.9-3.8V136.8L141.9,136.8z"/>
	<path id="XMLID_17886_" class="st1" d="M168.5,147.8c0,3.2,0.1,3.6,1.8,3.8l1,0.1c0.2,0.1,0.1,0.7-0.1,0.8c-1.7-0.1-2.8-0.1-4-0.1
		c-1.2,0-2.3,0-4.2,0.1c-0.2-0.1-0.2-0.6,0-0.8l1.1-0.1c1.7-0.2,1.9-0.6,1.9-3.8v-13.6c0-0.9,0-1-0.9-1h-1.7c-1.3,0-3,0.1-3.7,0.8
		c-0.7,0.7-1,1.3-1.4,2.1c-0.2,0.2-0.7,0-0.8-0.2c0.5-1.4,0.9-3.3,1.2-4.5c0.1-0.1,0.5-0.1,0.6,0c0.2,1,1.2,0.9,2.6,0.9h12.3
		c1.6,0,1.9-0.1,2.4-0.9c0.2-0.1,0.5,0,0.5,0.1c-0.3,1.2-0.5,3.7-0.5,4.6c-0.1,0.2-0.6,0.2-0.8,0.1c-0.1-0.8-0.3-1.9-0.8-2.2
		c-0.7-0.5-1.9-0.8-3.5-0.8h-2.2c-0.9,0-0.9,0-0.9,1V147.8L168.5,147.8z"/>
	<path id="XMLID_17885_" class="st1" d="M190,147.7c0,3.3,0.2,3.7,1.8,3.9l1.2,0.1c0.2,0.2,0.1,0.7-0.1,0.8
		c-1.9-0.1-2.9-0.1-4.1-0.1c-1.3,0-2.4,0-4,0.1c-0.2-0.1-0.2-0.6-0.1-0.8l0.9-0.1c1.8-0.2,1.8-0.6,1.8-3.9v-1.6c0-1.7-0.1-2.1-1-3.8
		l-3.6-7c-1-2-1.5-2.2-2.4-2.3l-0.9-0.2c-0.2-0.2-0.2-0.6,0.1-0.8c1,0.1,2.1,0.1,3.5,0.1c1.4,0,2.5,0,3.3-0.1
		c0.3,0.1,0.3,0.6,0.1,0.8l-0.4,0.1c-1.1,0.2-1.3,0.3-1.3,0.5c0,0.3,0.8,2,0.9,2.3c1.1,2.2,2.2,4.7,3.4,6.7c0.9-1.6,1.9-3.4,2.9-5.1
		c0.9-1.6,2-3.6,2-4c0-0.2-0.5-0.4-1.3-0.5l-0.5-0.1c-0.2-0.2-0.2-0.6,0.1-0.8c1.1,0.1,2,0.1,2.9,0.1c0.9,0,1.8,0,2.8-0.1
		c0.2,0.2,0.3,0.6,0.1,0.8l-0.9,0.2c-1.6,0.2-2.5,2.2-4,4.8l-1.9,3.3c-1.4,2.3-1.4,2.6-1.4,4.9V147.7L190,147.7z"/>
	<path id="XMLID_17884_" class="st1" d="M68.7,87.7c0-0.9-0.1-1-1.2-1v-0.5h3.9v0.5c-1.1,0-1.2,0.1-1.2,1v6.5c0,0.9,0.1,1,1.2,1v0.5
		h-3.9v-0.5c1.1,0,1.2-0.1,1.2-1V87.7L68.7,87.7z"/>
	<path id="XMLID_17883_" class="st1" d="M73.7,95.8v-0.5c1,0,1.1-0.1,1.1-1v-6.5c0-0.9-0.1-1-1.1-1v-0.5H80l0.4,2.1h-0.6
		c-0.3-1.4-0.5-1.5-1.2-1.5h-1.8c-0.4,0-0.5,0.1-0.5,0.6v3h1.6c0.6,0,0.7-0.1,0.7-1.3h0.6v3.3h-0.6c0-1.3-0.1-1.3-0.7-1.3h-1.6v3.5
		c0,0.5,0.1,0.6,0.4,0.6h2.2c0.7,0,0.9-0.1,1.2-1.6h0.6l-0.4,2.2H73.7L73.7,95.8z"/>
	<path id="XMLID_17882_" class="st1" d="M82.9,95.8v-0.5c1,0,1.1-0.1,1.1-1v-6.5c0-0.9-0.1-1-1.1-1v-0.5h6.3l0.4,2.1h-0.6
		c-0.3-1.4-0.5-1.5-1.2-1.5h-1.8c-0.4,0-0.5,0.1-0.5,0.6v3H87c0.6,0,0.7-0.1,0.7-1.3h0.6v3.3h-0.6c0-1.3-0.1-1.3-0.7-1.3h-1.6v3.5
		c0,0.5,0.1,0.6,0.4,0.6H88c0.7,0,0.9-0.1,1.2-1.6h0.6l-0.4,2.2H82.9L82.9,95.8z"/>
	<path id="XMLID_17869_" class="st1" d="M92.1,95.8v-0.5c1,0,1.1-0.1,1.1-1v-6.5c0-0.9-0.1-1-1.1-1v-0.5h6.3l0.4,2.1h-0.6
		c-0.3-1.4-0.5-1.5-1.2-1.5h-1.8c-0.4,0-0.5,0.1-0.5,0.6v3h1.6c0.6,0,0.7-0.1,0.7-1.3h0.6v3.3h-0.6c0-1.3-0.1-1.3-0.7-1.3h-1.6v3.5
		c0,0.5,0.1,0.6,0.4,0.6h2.2c0.7,0,0.9-0.1,1.2-1.6h0.6l-0.4,2.2H92.1L92.1,95.8z"/>
</g>
</svg>
