<?xml version="1.0" encoding="utf-8"?>
<!-- Generator: Adobe Illustrator 19.0.0, SVG Export Plug-In . SVG Version: 6.00 Build 0)  -->
<svg version="1.1" id="Capa_1" xmlns="http://www.w3.org/2000/svg" xmlns:xlink="http://www.w3.org/1999/xlink" x="0px" y="0px"
	 viewBox="-542 576.3647 233.6 125.7352" style="enable-background:new -542 576.3647 233.6 125.7352;" xml:space="preserve">
<style type="text/css">
	.st0{fill:#FFFFFF;}
	.st1{fill:#F9F19D;enable-background:new    ;}
</style>
<g id="XMLID_2281_">
	<path class="st0" d="M-425.2,576.9c-43.4,0-83.7,13.5-116.8,36.6v88.6h233.6v-88.6C-341.5,590.4-381.8,576.9-425.2,576.9z"/>
</g>
<g id="XMLID_3467_">
	<path id="XMLID_3468_" d="M-426,607.7c4.5,0,8.2,3.7,8.2,8.3s-3.7,8.3-8.2,8.3s-8.2-3.7-8.2-8.3
		C-434.2,611.4-430.6,607.7-426,607.7"/>
	<path id="XMLID_3469_" d="M-456,634.4L-456,634.4v0.3c0,0.4,0.2,0.7,0.7,1c0.5,0.2,1.2,0.3,2.3,0.3c0.8,0,1.4-0.1,1.8-0.3
		c0.4-0.2,0.7-0.4,0.7-0.7c0-0.5-0.9-0.8-2.6-1.1c-0.2,0-0.4-0.1-0.5-0.1s-0.3,0-0.5-0.1c-2.8-0.5-4.5-0.9-5.3-1.5
		c-0.4-0.3-0.7-0.6-0.9-0.9c-0.2-0.4-0.3-0.8-0.3-1.2c0-1.1,0.6-1.9,1.9-2.5c1.3-0.6,3.1-0.8,5.6-0.8c2.4,0,4.2,0.3,5.4,0.8
		s1.7,1.4,1.7,2.4v0.1h-4.6l0,0c0-0.4-0.2-0.7-0.7-0.9c-0.5-0.2-1.1-0.3-2-0.3c-0.7,0-1.2,0.1-1.6,0.2c-0.4,0.1-0.6,0.3-0.6,0.6
		c0,0.5,1,0.8,3,1.2c0.4,0.1,0.7,0.1,0.9,0.1c1.4,0.2,2.4,0.4,3,0.6s1.1,0.4,1.6,0.6c0.5,0.3,0.9,0.6,1.1,1c0.3,0.4,0.4,0.9,0.4,1.3
		c0,1.1-0.7,2-2.1,2.6c-1.4,0.6-3.4,0.9-6,0.9s-4.4-0.3-5.6-0.9c-1.2-0.6-1.7-1.5-1.7-2.8v-0.2h4.9C-456,634.1-456,634.4-456,634.4z
		 M-443.4,638v-11h13.1v2.4h-8.2v1.7h7.5v2.3h-7.5v2.1h8.5v2.4h-13.4V638z M-428,638v-11h6.2l6.6,7.4V627h4.7v11h-6.4l-6.4-7.4v7.4
		H-428z M-397.8,633.6l-2.3-4l-2.5,4H-397.8z M-405.3,638h-4.9l7.6-11h5.4l7.2,11h-5.5l-1.1-2h-7.6L-405.3,638z"/>
	<path id="XMLID_3475_" d="M-450,676.6l-4.4-4.1l13.4-23.1c0.7-1.3-0.2-2.8-1.6-2.8h-21.9v-5.8h35.1L-450,676.6z"/>
	<path id="XMLID_3476_" d="M-402.5,676.6l4.4-4.1l-13.3-23.1c-0.7-1.3,0.2-2.8,1.6-2.8h21.8v-5.8h-35.1L-402.5,676.6z"/>
	<path id="XMLID_3477_" d="M-426.3,646.9L-426.3,646.9l19.8,32.6l-5.3,2.7l-12.8-21.4c-0.8-1.3-2.6-1.3-3.3,0
		c-4.3,7.2-12.7,21.4-12.7,21.4l-5.1-2.5C-445.6,679.7-427.3,648.7-426.3,646.9"/>
</g>
<path id="XMLID_3489_" class="st1" d="M-423.1,576.5c-46.6-2.1-108.5,20.9-117.8,24.4c-0.6,0.2-1,0.7-1.1,1.4v11.8
	c0-0.6,0.3-1.2,0.8-1.5c33-22.7,72.9-36,116-36c0.8,0,1.7,0,2.5,0C-422.8,576.5-422.9,576.5-423.1,576.5z"/>
<path id="XMLID_3492_" class="st1" d="M-427.6,576.5c46.6-2.1,108.6,20.9,117.8,24.4c0.6,0.2,1,0.7,1.1,1.4v11.8
	c0-0.6-0.3-1.2-0.8-1.5c-33-22.7-72.9-36-116-36c-0.8,0-1.7,0-2.5,0C-427.9,576.5-427.7,576.5-427.6,576.5z"/>
</svg>
