<?xml version="1.0" encoding="utf-8"?>
<!-- Generator: Adobe Illustrator 16.0.0, SVG Export Plug-In . SVG Version: 6.00 Build 0)  -->
<!DOCTYPE svg PUBLIC "-//W3C//DTD SVG 1.1//EN" "http://www.w3.org/Graphics/SVG/1.1/DTD/svg11.dtd">
<svg version="1.1" id="Capa_1" xmlns="http://www.w3.org/2000/svg" xmlns:xlink="http://www.w3.org/1999/xlink" x="0px" y="0px"
	 width="21.4707px" height="28.7637px" viewBox="0 0 21.4707 28.7637" enable-background="new 0 0 21.4707 28.7637"
	 xml:space="preserve">
<path id="XMLID_4732_" fill="#FFFFFF" stroke="#3B86B1" stroke-width="1.7139" stroke-miterlimit="10" d="M17.1025,27.9072
	c1.9385,0,3.5107-1.5723,3.5107-3.5107v-8.9775c0-2.6162-2.1211-4.7373-4.7383-4.7373l-4.7988-0.0088V3.6543
	c0-1.4814-1.1523-2.7432-2.6328-2.7959c-1.5537-0.0557-2.832,1.1885-2.832,2.7305v12.2627l-0.7168-1.4941
	c-0.3906-0.8154-1.127-1.2783-1.8877-1.2783c-0.3496,0-0.7041,0.0986-1.0322,0.3037c-1.042,0.6533-1.4238,2.1465-0.8516,3.3369
	c0,0,2.3633,5.5352,4.0518,9.1602c0.5762,1.2373,1.8174,2.0273,3.1816,2.0273H17.1025z M17.1025,27.9072"/>
<g>
</g>
<g>
</g>
<g>
</g>
<g>
</g>
<g>
</g>
<g>
</g>
</svg>
