<?xml version="1.0" encoding="utf-8"?>
<!-- Generator: Adobe Illustrator 16.0.0, SVG Export Plug-In . SVG Version: 6.00 Build 0)  -->
<!DOCTYPE svg PUBLIC "-//W3C//DTD SVG 1.1//EN" "http://www.w3.org/Graphics/SVG/1.1/DTD/svg11.dtd">
<svg version="1.1" id="Capa_1" xmlns="http://www.w3.org/2000/svg" xmlns:xlink="http://www.w3.org/1999/xlink" x="0px" y="0px"
	 width="211.5845px" height="90.498px" viewBox="0 0 211.5845 90.498" enable-background="new 0 0 211.5845 90.498"
	 xml:space="preserve">
<g>
	<path id="XMLID_1_" fill="#FFFFFF" d="M198.0845,88.998H13.5c-6.6001,0-12-5.4004-12-12V13.5c0-6.5996,5.3999-12,12-12h184.5845
		c6.5996,0,12,5.4004,12,12v63.498C210.0845,83.5977,204.6841,88.998,198.0845,88.998z"/>
	<path fill="#603813" d="M198.1323,90.498h-11.9541c-0.8281,0-1.5-0.6719-1.5-1.5s0.6719-1.5,1.5-1.5h11.9063
		c0.8281,0,1.5234,0.6719,1.5234,1.5S198.9604,90.498,198.1323,90.498z M174.272,90.498h-11.9063c-0.8281,0-1.5-0.6719-1.5-1.5
		s0.6719-1.5,1.5-1.5h11.9063c0.8281,0,1.5,0.6719,1.5,1.5S175.1001,90.498,174.272,90.498z M150.4595,90.498h-11.9063
		c-0.8281,0-1.5-0.6719-1.5-1.5s0.6719-1.5,1.5-1.5h11.9063c0.8281,0,1.5,0.6719,1.5,1.5S151.2876,90.498,150.4595,90.498z
		 M126.6479,90.498h-11.9063c-0.8281,0-1.5-0.6719-1.5-1.5s0.6719-1.5,1.5-1.5h11.9063c0.8281,0,1.5,0.6719,1.5,1.5
		S127.4761,90.498,126.6479,90.498z M102.8354,90.498H90.9292c-0.8286,0-1.5-0.6719-1.5-1.5s0.6714-1.5,1.5-1.5h11.9063
		c0.8281,0,1.5,0.6719,1.5,1.5S103.6636,90.498,102.8354,90.498z M79.0229,90.498H67.1167c-0.8286,0-1.5-0.6719-1.5-1.5
		s0.6714-1.5,1.5-1.5h11.9063c0.8286,0,1.5,0.6719,1.5,1.5S79.8516,90.498,79.0229,90.498z M55.2104,90.498H43.3042
		c-0.8286,0-1.5-0.6719-1.5-1.5s0.6714-1.5,1.5-1.5h11.9063c0.8286,0,1.5,0.6719,1.5,1.5S56.0391,90.498,55.2104,90.498z
		 M31.3984,90.498H19.4922c-0.8286,0-1.5-0.6719-1.5-1.5s0.6714-1.5,1.5-1.5h11.9063c0.8286,0,1.5,0.6719,1.5,1.5
		S32.2271,90.498,31.3984,90.498z M7.8252,89.0635c-0.2407,0-0.4854-0.0576-0.7119-0.1807
		c-4.0361-2.1826-6.6772-6.1953-7.0649-10.7334c-0.0703-0.8252,0.5415-1.5518,1.3667-1.6221
		c0.832-0.0791,1.5518,0.541,1.6226,1.3662c0.3013,3.5283,2.3584,6.6504,5.5024,8.3506c0.729,0.3936,1,1.3037,0.606,2.0332
		C8.8745,88.7793,8.3584,89.0635,7.8252,89.0635z M208.1499,85.0107c-0.2803,0-0.5635-0.0781-0.8164-0.2422
		c-0.6943-0.4512-0.8916-1.3809-0.4404-2.0752c1.1064-1.7021,1.6914-3.6719,1.6914-5.6953v-5.0156c0-0.8281,0.6719-1.5,1.5-1.5
		s1.5,0.6719,1.5,1.5v5.0156c0,2.6055-0.752,5.1396-2.1758,7.3301C209.1216,84.7705,208.6401,85.0107,208.1499,85.0107z
		 M1.5,67.6162c-0.8286,0-1.5-0.6719-1.5-1.5V54.21c0-0.8281,0.6714-1.5,1.5-1.5S3,53.3818,3,54.21v11.9063
		C3,66.9443,2.3286,67.6162,1.5,67.6162z M210.0845,61.5762c-0.8281,0-1.5-0.6719-1.5-1.5V48.1699c0-0.8281,0.6719-1.5,1.5-1.5
		s1.5,0.6719,1.5,1.5v11.9063C211.5845,60.9043,210.9126,61.5762,210.0845,61.5762z M1.5,43.8042c-0.8286,0-1.5-0.6714-1.5-1.5
		V30.3979c0-0.8286,0.6714-1.5,1.5-1.5s1.5,0.6714,1.5,1.5v11.9063C3,43.1328,2.3286,43.8042,1.5,43.8042z M210.0845,37.7642
		c-0.8281,0-1.5-0.6714-1.5-1.5V24.3579c0-0.8286,0.6719-1.5,1.5-1.5s1.5,0.6714,1.5,1.5v11.9063
		C211.5845,37.0928,210.9126,37.7642,210.0845,37.7642z M1.5,19.9917c-0.8286,0-1.5-0.6714-1.5-1.5V13.5
		c0-2.6162,0.7578-5.1587,2.1909-7.3525c0.4526-0.6929,1.3838-0.8887,2.0762-0.4355C4.9609,6.165,5.1558,7.0947,4.7026,7.7881
		C3.5889,9.4932,3,11.4683,3,13.5v4.9917C3,19.3203,2.3286,19.9917,1.5,19.9917z M210.0376,13.9536
		c-0.7695,0-1.4238-0.5884-1.4922-1.3691c-0.3086-3.5278-2.3721-6.6455-5.5195-8.3398c-0.7295-0.3926-1.0029-1.3022-0.6094-2.0317
		c0.3926-0.7295,1.3018-1.0015,2.0313-0.6099c4.04,2.1748,6.6895,6.1821,7.0859,10.7197c0.0723,0.8252-0.5381,1.5527-1.3633,1.625
		C210.1255,13.9517,210.0815,13.9536,210.0376,13.9536z M192.0688,3h-11.9063c-0.8281,0-1.5-0.6714-1.5-1.5s0.6719-1.5,1.5-1.5
		h11.9063c0.8281,0,1.5,0.6714,1.5,1.5S192.897,3,192.0688,3z M168.2563,3h-11.9063c-0.8281,0-1.5-0.6714-1.5-1.5
		s0.6719-1.5,1.5-1.5h11.9063c0.8281,0,1.5,0.6714,1.5,1.5S169.0845,3,168.2563,3z M144.4438,3h-11.9063
		c-0.8281,0-1.5-0.6714-1.5-1.5s0.6719-1.5,1.5-1.5h11.9063c0.8281,0,1.5,0.6714,1.5,1.5S145.272,3,144.4438,3z M120.6313,3
		h-11.9063c-0.8281,0-1.5-0.6714-1.5-1.5s0.6719-1.5,1.5-1.5h11.9063c0.8281,0,1.5,0.6714,1.5,1.5S121.4595,3,120.6313,3z
		 M96.8193,3H84.9131c-0.8286,0-1.5-0.6714-1.5-1.5s0.6714-1.5,1.5-1.5h11.9063c0.8286,0,1.5,0.6714,1.5,1.5S97.6479,3,96.8193,3z
		 M73.0068,3H61.1006c-0.8286,0-1.5-0.6714-1.5-1.5s0.6714-1.5,1.5-1.5h11.9063c0.8286,0,1.5,0.6714,1.5,1.5S73.8354,3,73.0068,3z
		 M49.1943,3H37.2886c-0.8286,0-1.5-0.6714-1.5-1.5S36.46,0,37.2886,0h11.9058c0.8286,0,1.5,0.6714,1.5,1.5S50.0229,3,49.1943,3z
		 M25.3823,3H13.5c-0.8286,0-1.5122-0.6714-1.5122-1.5S12.6475,0,13.4761,0h11.9063c0.8286,0,1.5,0.6714,1.5,1.5
		S26.2109,3,25.3823,3z"/>
</g>
<g>
</g>
<g>
</g>
<g>
</g>
<g>
</g>
<g>
</g>
<g>
</g>
<g>
</g>
<g>
</g>
<g>
</g>
<g>
</g>
<g>
</g>
<g>
</g>
<g>
</g>
<g>
</g>
<g>
</g>
</svg>
