<?xml version="1.0" encoding="utf-8"?>
<!-- Generator: Adobe Illustrator 19.0.0, SVG Export Plug-In . SVG Version: 6.00 Build 0)  -->
<svg version="1.1" id="Capa_1" xmlns="http://www.w3.org/2000/svg" xmlns:xlink="http://www.w3.org/1999/xlink" x="0px" y="0px"
	 viewBox="-261.8 99.5 167.7 533" style="enable-background:new -261.8 99.5 167.7 533;" xml:space="preserve">
<style type="text/css">
	.st0{fill:#EABA96;stroke:#E0AA86;stroke-miterlimit:10;}
	.st1{fill:#E0AA86;}
	.st2{stroke:#000000;stroke-width:0.75;stroke-linecap:square;stroke-linejoin:bevel;stroke-miterlimit:10;}
	.st3{fill:#0F1C3F;stroke:#182951;stroke-miterlimit:10;}
	.st4{fill:#132354;stroke:#3F6093;stroke-miterlimit:10;}
	.st5{fill:#0F1C3F;}
	.st6{fill:none;stroke:#3F6093;stroke-miterlimit:10;}
	.st7{fill:none;stroke:#3F6093;stroke-width:0.75;stroke-linecap:round;stroke-linejoin:round;}
	.st8{fill:none;stroke:#3F6093;stroke-width:0.75;stroke-linecap:round;stroke-linejoin:round;stroke-dasharray:1.0038,1.0038;}
	
		.st9{fill:none;stroke:#3F6093;stroke-width:0.75;stroke-linecap:round;stroke-linejoin:round;stroke-miterlimit:10;stroke-dasharray:1;}
	.st10{fill:none;stroke:#E0AA86;stroke-miterlimit:10;}
	.st11{fill:#8A0A8E;stroke:#AC34B2;stroke-miterlimit:10;}
	.st12{fill:#680B6D;}
	.st13{fill:#EABA96;stroke:#E0AA86;stroke-width:0.5;stroke-miterlimit:10;}
	.st14{fill:#DBA682;}
	.st15{fill:#810C87;}
	.st16{fill:#EAEAEA;stroke:#FFFFFF;stroke-width:0.25;stroke-miterlimit:10;}
	.st17{fill:#D8D8D8;}
	.st18{fill:#959DA0;stroke:#959DA0;stroke-width:0.5;stroke-miterlimit:10;}
	.st19{fill:none;stroke:#959DA0;stroke-width:0.5;stroke-miterlimit:10;}
	.st20{fill:#282828;stroke:#000000;stroke-width:0.75;stroke-miterlimit:10;}
	.st21{fill:#B7896A;}
	.st22{fill:#DDAC8A;}
	.st23{stroke:#000000;stroke-miterlimit:10;}
	.st24{fill:#C1A578;}
	.st25{stroke:#000000;stroke-width:0.25;stroke-linecap:round;stroke-linejoin:round;stroke-miterlimit:10;}
	.st26{fill:#FFFFFF;stroke:#000000;stroke-width:0.25;stroke-linecap:round;stroke-linejoin:round;stroke-miterlimit:10;}
	.st27{fill:#70582D;}
	.st28{fill:#FFFFFF;}
	.st29{stroke:#000000;stroke-linecap:round;stroke-linejoin:round;stroke-miterlimit:10;}
	.st30{fill:#9E3025;stroke:#4C2311;stroke-width:0.25;stroke-miterlimit:10;}
	.st31{fill:#871D08;stroke:#4C2311;stroke-width:0.25;stroke-miterlimit:10;}
	.st32{fill:none;stroke:#D8A27D;stroke-width:0.75;stroke-miterlimit:10;}
	.st33{fill:#AC34B2;stroke:#AC34B2;stroke-width:0.5;stroke-miterlimit:10;}
	.st34{fill:#A5ABAD;stroke:#959DA0;stroke-width:0.5;stroke-miterlimit:10;}
	.st35{fill:#B1BABC;}
	.st36{opacity:0.33;fill:#FFFFFF;}
	.st37{fill:none;stroke:#000000;stroke-width:1.5;stroke-linecap:round;stroke-linejoin:round;stroke-miterlimit:10;}
</style>
<g id="XMLID_12007_">
	<path id="XMLID_12008_" class="st0" d="M-253.6,607.6c0,0,9.8-5.4,19.2-8.6c0,0,6.7-1.7,7.7-3.9v-11.4l14.8-1.9
		c0,0-2.2,12.1-1.7,20.5l0.3,4.3l-5.4,3.5l-7.2,1.4l-7.3,2.3c0,0-7.1,2.7-7.4,2.8s-9.5,0.8-9.5,0.8l-4.8-2.7c0,0-0.6-2.9-0.6-3.2
		C-255.3,611.4-253.6,607.6-253.6,607.6z"/>
	<path id="XMLID_12009_" class="st0" d="M-218.5,596.4c0,0,2,2.7-0.8,4.7"/>
	<path id="XMLID_12010_" class="st0" d="M-126.9,617.2c0,0-8.7-7.1-17.4-11.7c0,0-6.4-2.8-6.9-5.2l2-11.3l-14.3-4.4
		c0,0,0,12.3-1.9,20.5l-1.1,4.2l4.7,4.4l6.9,2.7l6.8,3.5c0,0,6.5,3.9,6.8,4c0.2,0.1,9.2,2.4,9.2,2.4l5.2-1.8c0,0,1.1-2.8,1.1-3
		C-125.8,621.2-126.9,617.2-126.9,617.2z"/>
	<path id="XMLID_12011_" class="st0" d="M-159.5,600.1c0,0-2.4,2.3,0,4.8"/>
	<path id="XMLID_12012_" class="st1" d="M-226.7,589.8l13.7-0.9l-0.6,3.9c0,0-6-3.9-10.9,0c0,0,0.9,3.9-2.9,4.8
		c0,0-27.8,10.5-23.7,13.8c0,0,1.9,3.2,10,3.6c0,0-6.8,3.3-12-2.2c0,0-3-3.1,0.9-5.9c0,0,15.4-8.6,22.5-10.6
		C-229.9,596.4-226.5,595.4-226.7,589.8z"/>
	<path id="XMLID_12013_" class="st2" d="M-212.8,608.5c-3.2,5.3-8,5.5-8,5.5c-9.8,0.9-14.9,4.7-14.9,4.7l-3.7,1.9
		c-10,3.9-18.1-0.7-18.1-0.7c-2.7-1.2-3.7-2.7-3.9-4.1l0,0v2.5c0,0,2.1,5.3,15.2,5.1c0,0,5.6-0.2,11.1-3.7c0,0,2.7-1.9,6.5-3.2
		c1.9-0.7,5.7-1.1,7.9-1.3c2.6-0.2,5.9-1.3,7.8-4.6V608.5z"/>
	<path id="XMLID_12014_" class="st3" d="M-253.6,607.6c0,0-5,2.1-6.6,4.6c0,0-3.9,4.7,2.7,7.6c0,0,8,4.6,18.1,0.7l3.7-1.9
		c0,0,6.2-4.6,14.3-4.6c0,0,5.4-0.3,8.3-5.5l-0.1-5.6c0,0-1.1,7-13,7.3c0,0-4.9,0-10.6,3.6c0,0-9.7,5.6-16.6-0.8
		C-255.4,610.9-253.6,607.6-253.6,607.6z"/>
	<path id="XMLID_12015_" class="st1" d="M-151.3,598c0,0-5.4-3.6-10.4,1.2c0,0-2.2,5-1.3,8.9c0,0,1.5,4.3,8.8,6c0,0,6.4,1.4,7.8,4.1
		h-4.1l-10-2.1l-4.5-3.4l-0.9-7.1c0,0,1.7-7.4,1.8-11.7c0.1-4.3,0,0,0,0l13.6,0.7L-151.3,598z"/>
	<path id="XMLID_12016_" class="st2" d="M-167.2,611.1c2.4,6.4,9.2,7.2,9.2,7.2c7.7,1.9,11.6,6.7,11.6,6.7l3.3,2.5
		c9.2,5.5,17.9,2.4,17.9,2.4c2.9-0.7,4.1-2,4.5-3.3l0,0l-0.4,2.5c0,0-2.9,4.9-15.9,2.4c0,0-4-0.9-8.3-3.9c-0.7-0.5-2.5-2.3-3.5-3.2
		c-1.7-1.6-4.9-4-9.9-4.9c0,0-7.1-0.5-8.9-6.3L-167.2,611.1z"/>
	<path id="XMLID_12017_" class="st3" d="M-126.9,617.2c0,0,4.5,3,5.8,5.6c0,0,3,5.3-4,7c0,0-8.7,3.1-17.9-2.4l-3.3-2.5
		c0,0-3.6-5.3-12.2-6.8c0,0-7.6-1-8.3-7.1l1.1-5.5c0,0-0.1,7.1,11.5,9.4c0,0,4.9,0.9,9.8,5.3c0,0,8.6,7.2,16.5,2
		C-125.7,620.7-126.9,617.2-126.9,617.2z"/>
	<path id="Pantalon" class="st4" d="M-201,356.6c0,0-17.4,56.6-17.1,99.9c0,0-3.3,10.8-1.5,18.1c0,0-12.9,67.1-7.6,114.8l14.7-1
		c0,0,24.1-82.8,24.4-104.5c0,0,21.4-55.1,24.7-85c0,0,3,80.5,5.3,95.1c0,0-1.3,3.3,0,6.5c0,0-10.4,23.8-7.4,93.7l17.4,0.9
		l17.7-77.5c0,0,8.3-7.3,6.5-25.4c0,0,12.1-46.3,12.1-73.5c0,0,3.9-42.7-6-64.8l-46.3-5.7L-201,356.6z"/>
	<path id="XMLID_12018_" class="st5" d="M-205.6,375.2c0,0,15.2-11.5,90.5-12.9c0,0-2.8-9.5-5.6-14c-2.9-4.5-1.7,0-1.7,0l-77.1,3.1
		C-199.5,351.4-201.2,359.8-205.6,375.2z"/>
	<path id="XMLID_12019_" class="st5" d="M-162.1,382.3l-1.4,16.6c0,0,4.1,87.1,5.7,95.1c0,0-1,3.4,0,6.7c0,0-10.6,27.3-7.3,93.1
		l16.4,0.9l4-16.4c0,0-17.1,11.5-17.1-9c0,0,0.6-24.3,11.6-70.5c0,0-2.8-3.5-0.8-8.4L-162.1,382.3z"/>
	<path id="XMLID_12020_" class="st5" d="M-205.6,375.2c0,0-14.3,59.3-11.4,81.2c0,0-3.8,9.8-1.8,18.3c0,0-7.3,42.1-8.6,71.2
		c-0.8,16.1,0.8,42.9,0.8,42.9l13.7-0.9l5.8-20.9c0,0-11.4-1.5-11.4-10.9c0,0-15.1-1.8,5.7-75.6c0,0-3.5-6.2-0.8-13.9
		c0,0,0.6-51.9,8-73.3c7.4-21.4,0,0,0,0s12.1-1.7,15.8-23.8c3.8-22.1,0,0,0,0l-9-7.4L-205.6,375.2z"/>
	<path id="XMLID_12021_" class="st6" d="M-161.8,360.5c0,0-0.5,7.6,0,16.6"/>
	<g id="XMLID_12027_">
		<g>
			<path class="st7" d="M-188.2,359c0,0,0,0.2,0,0.5"/>
			<path class="st8" d="M-188.3,360.5c-0.6,6.1-3.8,29.1-20.1,33.8"/>
			<path class="st7" d="M-208.8,394.5c-0.2,0-0.3,0.1-0.5,0.1"/>
		</g>
	</g>
	<path id="XMLID_12028_" class="st9" d="M-127.7,356.9c0,0-1.5,23.7,17.4,35.9"/>
	<path id="XMLID_12029_" class="st0" d="M-128.6,259.5c0,0,3.5-11.3,17.4-8.1c0,0,12.8,41.8,12.6,52.1c0,0,2.8,4.8,2.3,10.8
		c0,0,2.3,19.1-4,58.4v4.8c0,0,5.8,15.6-4.8,42c0,0-1.8,7.5-3.5,5.7c0,0-3.4-0.1,0.3-10.4l-3.6,8.1c0,0-0.8,6.7-3.4,5
		c0,0-2.8-1.8,0.9-16.6c0,0,0.9-9.4,0.3-12.5l-1.2,0.8c0,0-3.2,14.5-8.6,12.3c0,0-2.5-0.9,1.4-7.7c0,0,1-5,1.5-13
		c0,0,0.1-7.9,7.2-13c0,0,3.1-2,0.7-20.5c0,0-2.5-30.6-0.4-43.9C-113.7,314-127.4,271.9-128.6,259.5z"/>
	<path id="XMLID_12030_" class="st10" d="M-108.4,399.4l-1.3,11.3c0,0-1.9,9.7-2.4,12.2"/>
	<path id="XMLID_12031_" class="st10" d="M-108.4,414.8l3.4-7.8c0,0,0.7-3.3,1.1-8.1"/>
	<path id="XMLID_12032_" class="st1" d="M-109.3,256.8c0,0-12.6,0.8-14,8.4l8.1,37.2c0,0,1.7,6.4,1.1,10.1l-12.6-40.8l-8.7-15.8
		l13.6-3.8l9.5-0.9L-109.3,256.8z"/>
	<path id="XMLID_12033_" class="st11" d="M-109.9,247.6c0,0,9.9,34,12.6,54.2c0,0,2.9,3.7,2.2,12.3l-0.8,12.5c0,0-10,4.2-19.1-1.4
		c0,0-0.9-5.8,0-11.6l-13.5-41.9l-3.8-15.1"/>
	<path id="XMLID_12034_" class="st12" d="M-130.8,256.8l5.6,23.8l10.5,32.4c0,0-0.7,5.9-0.3,6.2c0,0,5.3,2.7,12.1,2.3
		c6.9-0.4,0,0,0,0s-11.7-3.8-9.5-8.3c0,0-5.8-26.8-10.1-34.3c0,0,4-7.9,1.7-15C-120.7,263.9-124.6,252.2-130.8,256.8z"/>
	<path id="XMLID_12035_" class="st1" d="M-113.9,329.1c0,0,0.1,23.7,1.4,31.6c0,0-0.4-20.8,2.3-24.5c0,0,4.3-6.4,13.6-0.7l0.3-5.6
		C-96.4,329.9-106.1,333.3-113.9,329.1"/>
	<path id="Cuello_3_" class="st13" d="M-177.4,204.8l-1.3,15c0,0-3.6,7.1-11.4,7.7l19.6,18.9l28.3-23.6c0,0-6.4-0.2-7.6-4.9
		l-2.2-19.2L-177.4,204.8z"/>
	<path id="Sombra_cuello_2_" class="st14" d="M-151,209.3c0,0-21.3-1.3-27.7,10.5l1.4-15l25.1-6.1L-151,209.3z"/>
	<g id="XMLID_12036_">
		<path id="XMLID_12037_" class="st11" d="M-132,224.5C-131.7,224.6-131.6,224.6-132,224.5L-132,224.5z"/>
		<path id="XMLID_12038_" class="st11" d="M-109.3,251.2c0,0-1.8-19.7-16.5-24.9c0,0-2.9-1.1-6.4-1.8c0.1,0,0.2,0,0.2,0
			c-0.1,0-0.1,0-0.2,0c-1.3-0.3-2.6-0.5-3.9-0.6l0,0l0,0l0,0l0,0c-10-1.4-10.9-6.1-10.9-6.1c1.2-5-1.5-3.9-1.5-3.9
			c1.6-4.4,0-4.6,0-4.6c-10.7,7.2-29.5,3.7-29.5,3.7c-5-1.5-3.1,3.9-3.1,3.9c-1.6,2.7,0.7,2.6,0.7,2.6c-2.7,2.6-0.7,3-0.7,3
			c-3.1,3.9-12.3,5.9-12.3,5.9l0,0c-4.3,0-11.2,1-14.9,6.9c0,0-5.4,9.7-6.8,18.4c0,0,3.5,5.6,17,5.8c0,0-7.9,14,3.5,23.4l6,27.3
			c0,0-9.9,36.5-15.6,45.3c0,0,15.1,5.3,43.2,4.7c0,0,20.1,1.9,45.2-7.2c0,0-17-34.5-17.2-40.5l1.1-24.8c0,0,10.2-6.8,9.3-22.1
			c0,0-0.6-3.5-3.8-9.2"/>
	</g>
	<path id="XMLID_12039_" class="st15" d="M-174.1,292.2c0,0-2.3-12.3,2.5-19.5c0,0-1.3-7.9,4.9-10.2l6.2-2.4l1.3-11.4l7.5,2.5v31
		l-4,27.4h17.6l2.6,4.5c0,0-22.1,6.9-35.4,1.3C-170.9,315.5-178,306-174.1,292.2z"/>
	<path id="sombra_camisa" class="st12" d="M-196.3,258.2l-1.2,1.5c0,0-8.8,13.8,3.5,23.4l6,27.3c0,0-11.5,41.1-15.6,45.3
		c0,0,45.5,11.5,82.9-1.3c0,0-71.2,8.6-61.8-7.5c0,0-14.7-8.8,5.8-34.1l-12.4-29.5C-189.1,283.3-202.4,275.8-196.3,258.2z"/>
	<path id="XMLID_12040_" class="st16" d="M-155,248.7c0,0-11.2,52.9-12.4,58.1l-0.8,3.8c0,0,5.5,4.4,33.5,0c0,0-3-1.2,3.9-29.9
		c0,0-2.8,12.1,7.5-30.4C-123.3,250.2-128.6,251.3-155,248.7z"/>
	<path id="XMLID_12041_" class="st17" d="M-154,248.8c0,0-9.7,53.1-6.9,55.1c0,0-10.3,7,24.3,7c0,0-23.8,4.1-31.6-0.3l13.2-61.9
		L-154,248.8z"/>
	<path id="Brazo_izq" class="st0" d="M-213.7,254.5c0,0-7.9,28.8-11.1,52.8c0,0-5.2,11.1,2.3,10.2c0,0,35.1,0.8,57.3-14.8
		c0,0,14.9,0.8,25.7-11.1c0,0,5.5-8.4,3.2-13.9l2.3-1.8c0,0,2.3-1.2,1.2-3.9c0,0-0.5-2.3-9.1,4c0,0-6.9,3.4-8.9,4.9
		c0,0-11.7,4.7-10.2-2c0,0,0.3-3.9,1-6.2c0,0,3.1-6.5,0-6.7c0,0-1.1-1.3-4.1,5.2l-3.2,5.4c-0.7,0-5.1,12.9-4.2,15.8
		c0,0-29.4,3.5-36.4,8.4c0,0,7.3-32.2,9.6-41.4C-198.1,259.3-207.9,254.5-213.7,254.5z"/>
	<path id="XMLID_12042_" class="st1" d="M-215,259.5c0,0,7.6,2.2,10.8,6.7c1.5,2.1-3.4,34.6-3.4,34.6l2.9-1.7l7.9-37.7l-17.2-5.5
		L-215,259.5z"/>
	<path id="XMLID_12043_" class="st1" d="M-226.1,311c0,0-0.5,4.6,3,4.9c0,0,33.5,0.5,56.7-14.1c0,0,16.1-0.6,26.9-10.2
		c0,0-7.7,10.7-25.7,11.1c0,0-16.1,13.9-57.3,14.8C-222.4,317.5-227.9,318.4-226.1,311z"/>
	<path id="dedo_izq1" class="st10" d="M-136.1,277.8l-9.1,7.4c0,0-2.8,1.7-6.5,1.5"/>
	<path id="dedo_izq2" class="st10" d="M-135.6,280l-6.1,7.1c0,0-3,4.2-7.1,4.2"/>
	<path id="dedo_izq3" class="st10" d="M-135.9,283.7l-4.6,6.5c0,0-2.1,3.1-6.7,5"/>
	<path id="XMLID_12044_" class="st11" d="M-214.6,252c0,0-8.9,35.6-11.2,52.7c0,0-4.9,14.8,3.4,12.9s0,0,0,0s11.1,1.6,22.7-1.4
		c0,0-4.3-11.9,0-19.6l-5.1,2.5l9.3-42.2"/>
	<circle id="XMLID_12045_" class="st18" cx="-165" cy="256" r="0.7"/>
	<path id="XMLID_12046_" class="st15" d="M-181.5,226c0,0,14.1,10.9,37.3-0.6c0,0,7.6-2.7,4.1,4.3c0,0-7.4,7.4-15.2,7.5
		c0,0,15.5,0.3,3,3.6c0,0-7.5,3.2-7.7,5.6c0,0-3.1-7.1-8-7.3c0,0-14-2.9-2.6-3.4C-170.6,235.6-182,231.4-181.5,226z"/>
	<path id="XMLID_12047_" class="st15" d="M-180.8,222.6c0,0-0.8,2.9-12.4,6.6c0,0-8.4-1.2-14.6,5.9c0,0-5.2,9.7-6.9,18.8l-6.1,25.8
		c0,0-4.9,23-4.7,25c0,0-3.3,10.5,0.2,12.3c0,0,1,1.2,6.6-0.6l0.4,0.4l-2.5,0.7c0,0,13.1,0.9,20.8-1.4c0,0-1.7-3.1-1.8-5.8
		c0,0-9.4,5.5-12.7,1.7c0,0-12.7,5.7-8.5-4.3l12.7-55.6c0,0-0.7-17.1,16.2-21C-194.2,231-183.1,227.7-180.8,222.6"/>
	<path id="XMLID_12048_" class="st19" d="M-181.8,223.5c0,0,3.9,6.6,19,14.7c0,0,15.7-7.8,17.1-18.2"/>
	<path id="XMLID_12049_" class="st18" d="M-162.5,240.6h-0.5c-0.1,0-0.3-0.1-0.3-0.3V238c0-0.1,0.1-0.3,0.3-0.3h0.5
		c0.1,0,0.3,0.1,0.3,0.3v2.3C-162.3,240.5-162.4,240.6-162.5,240.6z"/>
	<path id="XMLID_12050_" class="st19" d="M-162.8,240.6c0,0,0.4,19.5,3.7,25.1"/>
	<path id="XMLID_12051_" class="st19" d="M-162.8,240.6c0,0-0.1,11.9-2.2,15.5"/>
	<path id="XMLID_12052_" class="st20" d="M-184.5,108.4l-32.5,35.3c0,0-4.8,26.4,14.4,39.1c0,0-2.7-2.1-2.6-4.8c0,0,1.8,3.8,6.1,5.4
		c0,0-1.5-2.1-0.9-3.5c0,0,1.6,3.5,7.9,5.5L-184.5,108.4z"/>
	<path id="Cara_6_" class="st13" d="M-195.9,160.9c0,0,0.8,10.6,3.3,21.9c0,0,3.2,9.8,12.1,18.5c0,0,4.2,6.9,11.3,6.8
		c0,0,7.5,1.2,13.9-6.8c0,0,12.9-7.8,15.4-23.4l3-21.7l-2.5-18.8l-7.8-14.9l-1.5-6.2l-14.9,4.2l-24.6,9.8l-8.5,9.4L-195.9,160.9z"/>
	<path id="Sombra_cara_10_" class="st1" d="M-150.6,130.7c0,0-10.8,11.4-25.3,10.6c0,0-7.7-1.7-14.2,7.4c0,0-4,6.5-0.5,13.4
		c0,0-5.7,8.3,1.9,25.1c0,0,5.2,8.6,8.4,11.6c0,0,9.4,14.2,23.5,4.2c0,0-12.3,12.9-23.5-1.8c0,0-10.2-8.3-14.1-23
		c0,0-3.5-8.7-3.7-11l-6.8-5.6l1.4-9.4c0,0,3.3-2.2,3.7-2.4c0.4-0.2,1.7,2.6,1.7,2.6s1.5,2.5,1.6,1.7c0.1-0.8,4.6-15.3,4.8-15.8
		c0.1-0.5,13.1-7.7,13.1-7.7l9.1-2.7l10.5-4.7l8-3.2l6.5,9.9C-144.6,129.9-148.9,129-150.6,130.7z"/>
	<path id="sombra_oreja_izq_5_" class="st21" d="M-199.9,156.6c0,0,0.3,3,2.5,5.6c0,0,1.8-0.2,0.7,1.7c0,0-0.7,1.7-2.1-1.3
		C-198.8,162.5-200.1,160.9-199.9,156.6z"/>
	<path id="barbilla_6_" class="st22" d="M-168.9,199.4c0,0,3.6,2.6,6.1-0.7C-162.8,198.7-164.9,199.8-168.9,199.4z"/>
	<path id="oreja_der_6_" class="st13" d="M-142,185.4c-0.7,0.6,4-7,4.7-14.7c0,0,2.5,4.2,5.3,0c0,0,6.1-9.1,4.2-16.2
		c0,0-3.2-9-6-4.4l-3.2,6"/>
	<path id="Sobra_oreja_der_6_" class="st21" d="M-132.4,157.3c0,0,0.9,7-1.5,9.8c0,0-2.1,0.1-1.6-2c0,0,0.4-0.9,0.8-0.8
		C-134.7,164.3-132.5,163-132.4,157.3z"/>
	<path id="cabello_11_" class="st20" d="M-198.3,124.5c0,0,7.9-9.1,17.3-10.6c0,0-11.9,6.2-11.9,16.1c0,0-10,12.6-1.2,31.4
		c0,0-6.9-18.3,15.8-25.5c0,0,20.5,0,26.4-13.1c0,0-0.7,5.7,4.7,5.4c0,0-2.5,11.9,6.4,14.6c0,0,7.4,12.1,0,24c0,0,4.4-2.7,6.4-14.1
		c0,0,5.7-5.1,5.5,6.4c0,0,0.1,12.8-6.5,13.6c0,0-0.2,2.8-2.7,5.7c0,0,2.5,0.5,1.2,3c0,0,3.7-1.2,4.2-4.2c0,0,1.5,2.2,1,4.2
		c0,0,3-2.7,1.7-8.4c0,0,1.7,1.2,1.2,5.7c0,0,2.5-4,2.5-8.9c-1.6,6.3-0.1,7.2-2.1,11.6c0,0,15.7,2,16.4-25.9c0,0-4.2-40.5-35.3-42.5
		c0,0-3-26.9-43.5-3.2C-190.7,109.7-198.3,115.6-198.3,124.5z"/>
	<path id="mechon_izq_6_" class="st23" d="M-190.7,109.7c0,0-40,19-21.2,56.8c0,0-1.2-6.4,3.5-14.1c0,0-1.9,21.8,17,26.9
		c0,0-5.3-3.8-5.1-10.4c0,0-7.8-4.9-7.3-11.8c0,0,0.5-8.2,5.5-4.7c0,0,2,8.9,4.2,8.9c0,0-8.8-14.8,1.2-31.4c0,0-1.4-8.3,11.9-16.1
		c0,0-10,1.6-17.3,10.6C-198.3,124.5-199.7,118.1-190.7,109.7z"/>
	<path id="sombra_cabello_der_6_" class="st23" d="M-147.2,112.9c0,0,29.2,0,35.3,42.5c0,0,0.6,24.7-16.4,25.9c0,0,2.4-4.1,2.1-11.6
		c0,0,4.6,0.7,5.3,4.8C-120.9,174.5-101.5,137.5-147.2,112.9z"/>
	<path id="sombra_cabello_der_2_6_" class="st23" d="M-137.1,171.2c0,0,0.5,2.7-2.5,10c0,0,4.1-2.3,2.8,0.1c0,0,3.6-1.4,4.2-4.2
		c0,0,1.9,1.8,1,4.2c0,0,3-3.3,1.7-8.4c0,0,2.2,1.2,1.2,5.7c0,0,3.5-6.5,2.4-10.8c0,0-0.4,2-1.3,2.7c-0.9,0.6-2.3-0.1-1.9-2.2
		c0,0,1.6-11.5,0.5-13.7c0,0,0.8,4.2,0,8.5C-130.1,168.9-133.1,175-137.1,171.2z"/>
	<g id="ojo_der_11_">
		<path id="parpado_der_6_" class="st24" d="M-163.7,157c0,0,1.2-6.4,7.6-8c0,0,7.3-1.8,9.2,4.5l-0.4,1.5c0,0-2.7-3.2-7.4-3
			C-154.7,151.9-161.8,153.2-163.7,157z"/>
		<path id="pestaña_der_6_" class="st25" d="M-163.1,157.6l-0.6,0.4v-1c0,0,3.7-5,9-5.1c0,0,4.6-0.3,7.2,2.6c0,0,0.9,0.3,1.8-0.8
			c0,0-0.6,2-2.1,1.9L-163.1,157.6z"/>
		<path id="XMLID_12054_" class="st26" d="M-163.1,157.6c0,0-0.3,4.4,7,5.6c0,0,6.3,1.8,8.4-7.5
			C-147.7,155.7-153.4,147.6-163.1,157.6z"/>
		<circle id="XMLID_12055_" class="st27" cx="-155.9" cy="157.8" r="3.3"/>
		<circle id="XMLID_12056_" cx="-155.8" cy="158.3" r="2"/>
		<circle id="XMLID_12057_" class="st28" cx="-157.4" cy="157.2" r="0.7"/>
		<circle id="XMLID_12058_" class="st28" cx="-158.4" cy="156.1" r="0.5"/>
		<path id="ceja_der_6_" class="st29" d="M-163.7,149.8V148c0,0,8-8.5,18-1.6C-145.6,146.4-156.1,142.1-163.7,149.8z"/>
	</g>
	<g id="Ojo_izq_6_">
		<path id="parpado_izq_6_" class="st24" d="M-176,156.9c0,0-1.1-5.9-7-7.4c0,0-6.8-1.7-8.5,4.1l0.4,1.4c0,0,2.5-3,6.8-2.8
			C-184.3,152.2-177.7,153.4-176,156.9z"/>
		<path id="pestaña_izq_6_" class="st25" d="M-176.5,157.5l0.5,0.4v-0.9c0,0-3.4-4.6-8.3-4.7c0,0-4.3-0.3-6.6,2.4
			c0,0-0.8,0.3-1.7-0.7c0,0,0.5,1.8,1.9,1.8L-176.5,157.5z"/>
		<path id="cuenca_izq_6_" class="st26" d="M-176.5,157.5c0,0,0.3,4-6.5,5.2c0,0-5.8,1.7-7.7-6.9
			C-190.7,155.7-185.5,148.3-176.5,157.5z"/>
		<circle id="iris_izq_6_" class="st27" cx="-184.8" cy="157.7" r="3"/>
		<circle id="pupila_izq_6_" cx="-184.8" cy="158" r="1.9"/>
		<circle id="brillo_1_izq_6_" class="st28" cx="-186.1" cy="156.9" r="0.7"/>
		<circle id="brillo_2_izq_6_" class="st28" cx="-187.1" cy="155.7" r="0.4"/>
		<path id="ceja_izq_6_" class="st29" d="M-175.3,148.7v-1.8c0,0-7.4-8.5-16.7-1.6C-191.9,145.3-182.3,141.1-175.3,148.7z"/>
	</g>
	<g id="Boca_2_">
		<path id="XMLID_12059_" class="st30" d="M-177.4,189.1c0,0,1.5,3.8,8.1,4.3c0,0,11.6,0.9,13.6-7.9l-12.4,0.9L-177.4,189.1z"/>
		<path id="XMLID_12060_" class="st31" d="M-178,189c0,0,2.6-1.7,3.9-3.8c0,0,2.5-2.8,5.3,0c0,0,1.4-2.4,3.4-2.4
			c2.2,0,4.7,4.1,9.7,2.8c0,0-4.9,4.6-12.2,2.6C-167.9,188.1-173,189.9-178,189z"/>
		<path id="XMLID_12061_" class="st31" d="M-157.1,186.6c0,0,1.9-1.2,3.5-2.3"/>
	</g>
	<path id="Nariz_6_" class="st32" d="M-173.1,154.5c0,0,1.6,13.4-1.5,18.1c0,0-1.9,6.4,8.3,3.2"/>
	<path id="sombra_seno_izq" class="st12" d="M-189.1,283.3c0,0-12.5-8.8-6.4-26.5l-2.1,2.9c0,0-8.8,13.8,3.5,23.4l0.8,3.5h5.6
		L-189.1,283.3z"/>
	<path id="XMLID_12053_" class="st12" d="M-181.1,217c0,0,12.5,3.2,27.9-1.8C-153.2,215.3-164.6,222.5-181.1,217"/>
	<path id="XMLID_12062_" class="st12" d="M-180.8,222.6c0,0,6,5.7,31.5,0.7c0,0-26.9,2.8-31-3.2C-180.2,220.1-182.7,222-180.8,222.6
		z"/>
	<path id="XMLID_12063_" class="st12" d="M-149,214.5c0,0-4.8,7.2-23.9,6.2c0,0,11.9,3.5,24.2-4.5c0,0,1.5-2,1.7-0.7
		C-147,215.5-146.9,213.2-149,214.5"/>
	<path id="XMLID_12064_" class="st12" d="M-181.1,215.3c0,0-0.7-2.6,2.4-1.9c0,0,20.4,3.8,30.2-3.6c0,0-5.7,8.3-29.5,5.5
		C-178,215.3-179.4,212.1-181.1,215.3z"/>
	<path id="XMLID_12065_" class="st33" d="M-116.5,319.2c0,0,12,4.6,22,0.8l-0.6,9.5c0,0-12.5,4.6-21.4-1.9V319.2z"/>
	<path id="puño_mang_izq" class="st33" d="M-201,296c0,0-4,10.7,1.2,20.8l8.5-1.7c0,0-4.7-11.4-1.6-19.9L-201,296z"/>
	<g id="XMLID_12066_">
		<circle id="XMLID_12067_" class="st34" cx="-198.3" cy="166.1" r="1.6"/>
		<path id="XMLID_12068_" class="st35" d="M-198.4,165.1c0,0,1.1,0.3,0.9,1.7c0,0,0.6-0.9,0.1-1.6
			C-197.4,165.3-197.7,164.8-198.4,165.1z"/>
	</g>
	<g id="XMLID_12069_">
		<circle id="XMLID_12070_" class="st34" cx="-135" cy="170.5" r="1.6"/>
		<path id="XMLID_12071_" class="st35" d="M-135,169.5c0,0,1.1,0.3,0.9,1.7c0,0,0.6-0.9,0.1-1.6C-134,169.6-134.3,169.2-135,169.5z"
			/>
	</g>
	<path id="XMLID_12072_" class="st36" d="M-135.5,155.1L-135.5,155.1l-8.2,0.9l-0.6-3l-0.6,0.1c-12-9.7-24.1,2-24.1,2l0.3,2.4
		l-3.2,0.2l0.3-2.4c0,0-12.2-11.7-24.1-2l-0.6-0.1l-0.7,4.8l0.4,0.2c0,0,1,9.6,8,9.5c0,0,10.6,1.6,13.6-3.9c0,0,1.8-3.1,1.6-6.1
		c0,0,0.8-0.9,1.4,0l3.2-0.2c0.6-0.9,1.4,0,1.4,0c-0.2,3,1.6,6.1,1.6,6.1c3.1,5.5,13.6,3.9,13.6,3.9c7,0.1,8-9.5,8-9.5l0.4-0.2
		l-0.1-1.8L-135.5,155.1z"/>
	<path id="XMLID_12073_" class="st37" d="M-135.3,155.1L-135.3,155.1l-8.2,0.9l-0.6-3l-0.6,0.1c-12-9.7-24.1,2-24.1,2l0.3,2.4
		l-3.2,0.2l0.3-2.4c0,0-12.2-11.7-24.1-2l-0.6-0.1l-0.7,4.8l0.4,0.2c0,0,1,9.6,8,9.5c0,0,10.6,1.6,13.6-3.9c0,0,1.8-3.1,1.6-6.1
		c0,0,0.8-0.9,1.4,0l3.2-0.2c0.6-0.9,1.4,0,1.4,0c-0.2,3,1.6,6.1,1.6,6.1c3.1,5.5,13.6,3.9,13.6,3.9c7,0.1,8-9.5,8-9.5l0.4-0.2
		l-0.1-1.8L-135.3,155.1z"/>
</g>
</svg>
