<?xml version="1.0" encoding="utf-8"?>
<!-- Generator: Adobe Illustrator 16.0.0, SVG Export Plug-In . SVG Version: 6.00 Build 0)  -->
<!DOCTYPE svg PUBLIC "-//W3C//DTD SVG 1.1//EN" "http://www.w3.org/Graphics/SVG/1.1/DTD/svg11.dtd">
<svg version="1.1" id="Capa_1" xmlns="http://www.w3.org/2000/svg" xmlns:xlink="http://www.w3.org/1999/xlink" x="0px" y="0px"
	 width="41.627px" height="46.584px" viewBox="0 0 41.627 46.584" enable-background="new 0 0 41.627 46.584" xml:space="preserve">
<path id="XMLID_4739_" fill="#FFFFFF" stroke="#FFFFFF" stroke-width="0.115" stroke-miterlimit="10" d="M27.9619,20.8164
	c0,3.9512-3.2021,7.1543-7.1543,7.1543c-3.9512,0-7.1543-3.2031-7.1543-7.1543s3.2031-7.1543,7.1543-7.1543
	C24.7598,13.6621,27.9619,16.8652,27.9619,20.8164L27.9619,20.8164z M27.9619,20.8164"/>
<path id="XMLID_4735_" fill="#3B86B1" d="M20.8027,29.3379c-1.9131,0-3.7939-0.6572-5.2949-1.8496
	c-3.6787-2.9229-4.2939-8.293-1.3711-11.9717c1.626-2.0469,4.0596-3.2207,6.6758-3.2207c1.9141,0,3.7949,0.6572,5.2959,1.8496
	c3.6787,2.9229,4.2939,8.293,1.3711,11.9717C25.8525,28.1641,23.4199,29.3379,20.8027,29.3379L20.8027,29.3379z M20.8125,15.0283
	c-1.7783,0-3.4326,0.7979-4.5371,2.1875c-1.9854,2.499-1.5674,6.1475,0.9316,8.1338c1.0352,0.8213,2.2783,1.2559,3.5957,1.2559
	c1.7783,0,3.4326-0.7969,4.5371-2.1875c1.9854-2.499,1.5684-6.1475-0.9316-8.1328C23.374,15.4629,22.1309,15.0283,20.8125,15.0283
	L20.8125,15.0283z M20.8125,15.0283"/>
<g>
</g>
<g>
</g>
<g>
</g>
<g>
</g>
<g>
</g>
<g>
</g>
</svg>
