<?xml version="1.0" encoding="utf-8"?>
<!-- Generator: Adobe Illustrator 19.0.0, SVG Export Plug-In . SVG Version: 6.00 Build 0)  -->
<svg version="1.1" id="Capa_1" xmlns="http://www.w3.org/2000/svg" xmlns:xlink="http://www.w3.org/1999/xlink" x="0px" y="0px"
	 viewBox="0 0 205.6 35" style="enable-background:new 0 0 205.6 35;" xml:space="preserve">
<style type="text/css">
	.st0{fill:#42210B;stroke:#42210B;stroke-miterlimit:10;}
	.st1{fill:#42210B;}
</style>
<polygon id="XMLID_4977_" class="st0" points="17,7.8 18.4,12.4 23.5,12.5 19.5,15.4 21,20.2 17.1,17.3 13,20.2 14.5,15.6 
	10.4,12.5 15.3,12.6 "/>
<g id="XMLID_109_">
	<path id="XMLID_110_" class="st1" d="M40.3,14.9v-10h7.2v1.2h-5.9v3.1h5.5v1.2h-5.5v3.4h6.2v1.2H40.3z"/>
	<path id="XMLID_112_" class="st1" d="M49,12.7l1.2-0.2c0.1,0.5,0.3,0.9,0.6,1.1s0.7,0.4,1.3,0.4c0.6,0,1-0.1,1.3-0.3
		c0.3-0.2,0.4-0.5,0.4-0.8c0-0.3-0.1-0.5-0.4-0.7c-0.2-0.1-0.6-0.2-1.3-0.4c-0.9-0.2-1.5-0.4-1.9-0.6c-0.3-0.2-0.6-0.4-0.8-0.7
		c-0.2-0.3-0.3-0.6-0.3-1c0-0.3,0.1-0.6,0.2-0.9C49.6,8.4,49.8,8.2,50,8c0.2-0.1,0.5-0.3,0.8-0.4c0.3-0.1,0.7-0.1,1.1-0.1
		c0.6,0,1.1,0.1,1.5,0.2s0.7,0.4,1,0.7c0.2,0.3,0.3,0.7,0.4,1.1l-1.2,0.2c-0.1-0.4-0.2-0.7-0.5-0.9s-0.6-0.3-1.1-0.3
		c-0.6,0-1,0.1-1.2,0.3s-0.4,0.4-0.4,0.7c0,0.2,0.1,0.3,0.2,0.4c0.1,0.1,0.3,0.2,0.5,0.3c0.1,0,0.5,0.2,1.1,0.3
		c0.9,0.2,1.5,0.4,1.8,0.6c0.3,0.1,0.6,0.4,0.8,0.6s0.3,0.6,0.3,1.1c0,0.4-0.1,0.8-0.4,1.2c-0.2,0.4-0.6,0.6-1,0.8
		c-0.5,0.2-1,0.3-1.5,0.3c-0.9,0-1.7-0.2-2.2-0.6S49.1,13.5,49,12.7z"/>
	<path id="XMLID_114_" class="st1" d="M56.5,17.7v-10h1.1v0.9c0.3-0.4,0.6-0.6,0.9-0.8c0.3-0.2,0.7-0.3,1.2-0.3
		c0.6,0,1.2,0.2,1.6,0.5c0.5,0.3,0.8,0.8,1.1,1.3c0.2,0.6,0.4,1.2,0.4,1.9c0,0.7-0.1,1.4-0.4,2c-0.3,0.6-0.7,1-1.2,1.4
		c-0.5,0.3-1,0.5-1.6,0.5c-0.4,0-0.8-0.1-1.1-0.3s-0.6-0.4-0.8-0.7v3.5H56.5z M57.6,11.3c0,0.9,0.2,1.6,0.6,2.1s0.8,0.7,1.4,0.7
		c0.5,0,1-0.2,1.4-0.7c0.4-0.5,0.6-1.2,0.6-2.2c0-0.9-0.2-1.6-0.6-2.1s-0.8-0.7-1.4-0.7c-0.5,0-1,0.2-1.4,0.7
		C57.8,9.7,57.6,10.4,57.6,11.3z"/>
	<path id="XMLID_117_" class="st1" d="M69.2,12.6l1.3,0.2c-0.2,0.7-0.6,1.3-1.1,1.7s-1.2,0.6-2.1,0.6c-1.1,0-1.9-0.3-2.5-1
		c-0.6-0.7-0.9-1.6-0.9-2.8c0-1.2,0.3-2.2,0.9-2.8s1.4-1,2.4-1c1,0,1.8,0.3,2.4,1s0.9,1.6,0.9,2.8c0,0.1,0,0.2,0,0.3h-5.4
		c0,0.8,0.3,1.4,0.7,1.8s0.9,0.6,1.5,0.6c0.5,0,0.8-0.1,1.2-0.4S69,13.1,69.2,12.6z M65.2,10.6h4.1C69.2,10,69,9.5,68.8,9.2
		c-0.4-0.5-0.9-0.7-1.5-0.7c-0.6,0-1,0.2-1.4,0.6S65.2,9.9,65.2,10.6z"/>
	<path id="XMLID_120_" class="st1" d="M76.8,12.2l1.2,0.2c-0.1,0.8-0.5,1.5-1,2c-0.5,0.5-1.2,0.7-2,0.7c-1,0-1.8-0.3-2.4-1
		c-0.6-0.6-0.9-1.6-0.9-2.8c0-0.8,0.1-1.5,0.4-2.1s0.7-1,1.2-1.3c0.5-0.3,1.1-0.4,1.7-0.4c0.8,0,1.4,0.2,1.9,0.6
		c0.5,0.4,0.8,1,1,1.7L76.7,10c-0.1-0.5-0.3-0.9-0.6-1.1s-0.6-0.4-1-0.4c-0.6,0-1.1,0.2-1.5,0.7c-0.4,0.4-0.6,1.1-0.6,2.1
		c0,1,0.2,1.7,0.6,2.1s0.9,0.7,1.5,0.7c0.5,0,0.9-0.1,1.2-0.4S76.7,12.9,76.8,12.2z"/>
	<path id="XMLID_122_" class="st1" d="M79,6.3V4.9h1.2v1.4H79z M79,14.9V7.6h1.2v7.3H79z"/>
	<path id="XMLID_125_" class="st1" d="M82.4,14.9V8.6h-1.1v-1h1.1V6.9c0-0.5,0-0.8,0.1-1.1c0.1-0.3,0.3-0.6,0.6-0.8
		c0.3-0.2,0.7-0.3,1.3-0.3c0.3,0,0.7,0,1.1,0.1l-0.2,1.1c-0.3,0-0.5-0.1-0.7-0.1c-0.4,0-0.6,0.1-0.8,0.2S83.7,6.5,83.7,7v0.7h1.4v1
		h-1.4v6.3H82.4z"/>
	<path id="XMLID_127_" class="st1" d="M86,6.3V4.9h1.2v1.4H86z M86,14.9V7.6h1.2v7.3H86z"/>
	<path id="XMLID_130_" class="st1" d="M93.9,12.2l1.2,0.2c-0.1,0.8-0.5,1.5-1,2c-0.5,0.5-1.2,0.7-2,0.7c-1,0-1.8-0.3-2.4-1
		c-0.6-0.6-0.9-1.6-0.9-2.8c0-0.8,0.1-1.5,0.4-2.1s0.7-1,1.2-1.3c0.5-0.3,1.1-0.4,1.7-0.4c0.8,0,1.4,0.2,1.9,0.6
		c0.5,0.4,0.8,1,1,1.7L93.8,10c-0.1-0.5-0.3-0.9-0.6-1.1s-0.6-0.4-1-0.4c-0.6,0-1.1,0.2-1.5,0.7c-0.4,0.4-0.6,1.1-0.6,2.1
		c0,1,0.2,1.7,0.6,2.1s0.9,0.7,1.5,0.7c0.5,0,0.9-0.1,1.2-0.4S93.8,12.9,93.9,12.2z"/>
	<path id="XMLID_132_" class="st1" d="M100.9,14c-0.5,0.4-0.9,0.7-1.3,0.8s-0.9,0.2-1.4,0.2c-0.8,0-1.4-0.2-1.8-0.6
		c-0.4-0.4-0.6-0.9-0.6-1.5c0-0.4,0.1-0.7,0.2-1c0.2-0.3,0.4-0.5,0.6-0.7s0.6-0.3,0.9-0.4c0.2-0.1,0.6-0.1,1.1-0.2
		c1-0.1,1.7-0.3,2.2-0.4c0-0.2,0-0.3,0-0.3c0-0.5-0.1-0.9-0.3-1.1c-0.3-0.3-0.8-0.4-1.4-0.4c-0.6,0-1,0.1-1.3,0.3
		c-0.3,0.2-0.5,0.6-0.6,1.1l-1.2-0.2c0.1-0.5,0.3-0.9,0.5-1.2c0.3-0.3,0.6-0.6,1.1-0.7c0.5-0.2,1-0.3,1.6-0.3c0.6,0,1.1,0.1,1.5,0.2
		s0.7,0.3,0.9,0.6c0.2,0.2,0.3,0.5,0.4,0.8c0,0.2,0.1,0.6,0.1,1.1v1.6c0,1.1,0,1.9,0.1,2.2c0.1,0.3,0.2,0.6,0.3,0.9h-1.3
		C101,14.6,100.9,14.3,100.9,14z M100.8,11.3c-0.4,0.2-1.1,0.3-2,0.5c-0.5,0.1-0.9,0.2-1.1,0.2s-0.4,0.2-0.5,0.4
		C97.1,12.5,97,12.7,97,13c0,0.3,0.1,0.6,0.4,0.8s0.6,0.3,1.1,0.3c0.5,0,0.9-0.1,1.3-0.3c0.4-0.2,0.6-0.5,0.8-0.9
		c0.1-0.3,0.2-0.7,0.2-1.2V11.3z"/>
	<path id="XMLID_135_" class="st1" d="M108.7,12.2l1.2,0.2c-0.1,0.8-0.5,1.5-1,2c-0.5,0.5-1.2,0.7-2,0.7c-1,0-1.8-0.3-2.4-1
		c-0.6-0.6-0.9-1.6-0.9-2.8c0-0.8,0.1-1.5,0.4-2.1s0.7-1,1.2-1.3c0.5-0.3,1.1-0.4,1.7-0.4c0.8,0,1.4,0.2,1.9,0.6
		c0.5,0.4,0.8,1,1,1.7l-1.2,0.2c-0.1-0.5-0.3-0.9-0.6-1.1c-0.3-0.2-0.6-0.4-1-0.4c-0.6,0-1.1,0.2-1.5,0.7c-0.4,0.4-0.6,1.1-0.6,2.1
		c0,1,0.2,1.7,0.6,2.1s0.9,0.7,1.5,0.7c0.5,0,0.9-0.1,1.2-0.4S108.6,12.9,108.7,12.2z"/>
	<path id="XMLID_137_" class="st1" d="M110.9,6.3V4.9h1.2v1.4H110.9z M110.9,14.9V7.6h1.2v7.3H110.9z"/>
	<path id="XMLID_140_" class="st1" d="M113.6,11.3c0-1.3,0.4-2.3,1.1-3c0.6-0.5,1.4-0.8,2.3-0.8c1,0,1.8,0.3,2.4,1
		c0.6,0.7,1,1.6,1,2.7c0,0.9-0.1,1.7-0.4,2.2c-0.3,0.5-0.7,1-1.2,1.2c-0.5,0.3-1.1,0.4-1.8,0.4c-1,0-1.8-0.3-2.5-1
		C113.9,13.4,113.6,12.5,113.6,11.3z M114.9,11.3c0,0.9,0.2,1.6,0.6,2.1c0.4,0.5,0.9,0.7,1.5,0.7c0.6,0,1.1-0.2,1.5-0.7
		s0.6-1.2,0.6-2.1c0-0.9-0.2-1.6-0.6-2c-0.4-0.5-0.9-0.7-1.5-0.7c-0.6,0-1.1,0.2-1.5,0.7S114.9,10.3,114.9,11.3z M116.3,6.7l0.9-1.9
		h1.6l-1.5,1.9H116.3z"/>
	<path id="XMLID_144_" class="st1" d="M121.8,14.9V7.6h1.1v1c0.5-0.8,1.3-1.2,2.3-1.2c0.4,0,0.8,0.1,1.2,0.2
		c0.4,0.2,0.6,0.4,0.8,0.6s0.3,0.6,0.4,0.9c0,0.2,0.1,0.6,0.1,1.2v4.5h-1.2v-4.4c0-0.5,0-0.9-0.1-1.1c-0.1-0.2-0.3-0.4-0.5-0.6
		c-0.2-0.1-0.5-0.2-0.9-0.2c-0.5,0-1,0.2-1.4,0.5c-0.4,0.3-0.6,1-0.6,1.9v4H121.8z"/>
	<path id="XMLID_146_" class="st1" d="M138.2,14.9V14c-0.5,0.7-1.1,1.1-2,1.1c-0.6,0-1.1-0.2-1.6-0.5c-0.5-0.3-0.9-0.8-1.1-1.3
		c-0.3-0.6-0.4-1.2-0.4-2c0-0.7,0.1-1.4,0.4-2c0.2-0.6,0.6-1,1.1-1.4c0.5-0.3,1-0.5,1.6-0.5c0.4,0,0.8,0.1,1.2,0.3
		c0.3,0.2,0.6,0.4,0.8,0.7V4.9h1.2v10H138.2z M134.3,11.3c0,0.9,0.2,1.6,0.6,2.1s0.9,0.7,1.4,0.7c0.5,0,1-0.2,1.4-0.7
		c0.4-0.4,0.6-1.1,0.6-2c0-1-0.2-1.7-0.6-2.2s-0.9-0.7-1.4-0.7c-0.5,0-1,0.2-1.4,0.7C134.5,9.6,134.3,10.3,134.3,11.3z"/>
	<path id="XMLID_149_" class="st1" d="M146.3,12.6l1.3,0.2c-0.2,0.7-0.6,1.3-1.1,1.7s-1.2,0.6-2.1,0.6c-1.1,0-1.9-0.3-2.5-1
		c-0.6-0.7-0.9-1.6-0.9-2.8c0-1.2,0.3-2.2,0.9-2.8s1.4-1,2.4-1c1,0,1.8,0.3,2.4,1s0.9,1.6,0.9,2.8c0,0.1,0,0.2,0,0.3h-5.4
		c0,0.8,0.3,1.4,0.7,1.8s0.9,0.6,1.5,0.6c0.5,0,0.8-0.1,1.2-0.4S146.1,13.1,146.3,12.6z M142.2,10.6h4.1c-0.1-0.6-0.2-1.1-0.5-1.4
		c-0.4-0.5-0.9-0.7-1.5-0.7c-0.6,0-1,0.2-1.4,0.6C142.5,9.4,142.3,9.9,142.2,10.6z"/>
	<path id="XMLID_152_" class="st1" d="M40.1,28.9v-7.3h1.1v1.1c0.3-0.5,0.5-0.9,0.8-1s0.5-0.2,0.8-0.2c0.4,0,0.8,0.1,1.3,0.4
		L43.6,23c-0.3-0.2-0.6-0.3-0.9-0.3c-0.3,0-0.5,0.1-0.7,0.2c-0.2,0.2-0.4,0.4-0.5,0.7c-0.1,0.4-0.2,0.9-0.2,1.4v3.8H40.1z"/>
	<path id="XMLID_154_" class="st1" d="M49.8,26.6l1.3,0.2c-0.2,0.7-0.6,1.3-1.1,1.7s-1.2,0.6-2.1,0.6c-1.1,0-1.9-0.3-2.5-1
		c-0.6-0.7-0.9-1.6-0.9-2.8c0-1.2,0.3-2.2,0.9-2.8s1.4-1,2.4-1c1,0,1.8,0.3,2.4,1s0.9,1.6,0.9,2.8c0,0.1,0,0.2,0,0.3h-5.4
		c0,0.8,0.3,1.4,0.7,1.8s0.9,0.6,1.5,0.6c0.5,0,0.8-0.1,1.2-0.4S49.6,27.1,49.8,26.6z M45.7,24.6h4.1c-0.1-0.6-0.2-1.1-0.5-1.4
		c-0.4-0.5-0.9-0.7-1.5-0.7c-0.6,0-1,0.2-1.4,0.6S45.8,23.9,45.7,24.6z"/>
	<path id="XMLID_157_" class="st1" d="M57.2,31.7v-3.6c-0.2,0.3-0.5,0.5-0.8,0.7s-0.7,0.3-1.1,0.3c-0.9,0-1.6-0.3-2.2-1
		s-0.9-1.6-0.9-2.8c0-0.7,0.1-1.4,0.4-2s0.6-1,1.1-1.3c0.5-0.3,1-0.4,1.6-0.4c0.9,0,1.6,0.4,2.1,1.1v-1h1.1v10H57.2z M53.4,25.2
		c0,0.9,0.2,1.6,0.6,2.1c0.4,0.5,0.9,0.7,1.4,0.7c0.5,0,1-0.2,1.4-0.7c0.4-0.4,0.6-1.1,0.6-2c0-1-0.2-1.7-0.6-2.2s-0.9-0.7-1.4-0.7
		c-0.5,0-1,0.2-1.4,0.7C53.6,23.6,53.4,24.3,53.4,25.2z"/>
	<path id="XMLID_160_" class="st1" d="M65.1,28.9v-1.1c-0.6,0.8-1.3,1.2-2.3,1.2c-0.4,0-0.8-0.1-1.2-0.2s-0.6-0.4-0.8-0.6
		c-0.2-0.2-0.3-0.6-0.4-0.9c-0.1-0.2-0.1-0.6-0.1-1.1v-4.5h1.2v4c0,0.6,0,1.1,0.1,1.3c0.1,0.3,0.2,0.6,0.5,0.8
		c0.3,0.2,0.6,0.3,0.9,0.3s0.7-0.1,1-0.3c0.3-0.2,0.6-0.4,0.7-0.8c0.1-0.3,0.2-0.8,0.2-1.4v-3.9h1.2v7.3H65.1z"/>
	<path id="XMLID_162_" class="st1" d="M73.1,26.6l1.3,0.2c-0.2,0.7-0.6,1.3-1.1,1.7s-1.2,0.6-2.1,0.6c-1.1,0-1.9-0.3-2.5-1
		c-0.6-0.7-0.9-1.6-0.9-2.8c0-1.2,0.3-2.2,0.9-2.8s1.4-1,2.4-1c1,0,1.8,0.3,2.4,1s0.9,1.6,0.9,2.8c0,0.1,0,0.2,0,0.3H69
		c0,0.8,0.3,1.4,0.7,1.8s0.9,0.6,1.5,0.6c0.5,0,0.8-0.1,1.2-0.4S72.9,27.1,73.1,26.6z M69.1,24.6h4.1c-0.1-0.6-0.2-1.1-0.5-1.4
		c-0.4-0.5-0.9-0.7-1.5-0.7c-0.6,0-1,0.2-1.4,0.6S69.1,23.9,69.1,24.6z"/>
	<path id="XMLID_165_" class="st1" d="M75.9,28.9v-7.3H77v1.1c0.3-0.5,0.5-0.9,0.8-1s0.5-0.2,0.8-0.2c0.4,0,0.8,0.1,1.3,0.4L79.4,23
		c-0.3-0.2-0.6-0.3-0.9-0.3c-0.3,0-0.5,0.1-0.7,0.2c-0.2,0.2-0.4,0.4-0.5,0.7c-0.1,0.4-0.2,0.9-0.2,1.4v3.8H75.9z"/>
	<path id="XMLID_167_" class="st1" d="M80.6,20.3v-1.4h1.2v1.4H80.6z M80.6,28.9v-7.3h1.2v7.3H80.6z"/>
	<path id="XMLID_170_" class="st1" d="M83.7,28.9v-7.3h1.1v1c0.2-0.4,0.5-0.6,0.9-0.9c0.4-0.2,0.8-0.3,1.3-0.3c0.5,0,1,0.1,1.3,0.3
		s0.6,0.5,0.7,0.9c0.6-0.8,1.3-1.3,2.2-1.3c0.7,0,1.3,0.2,1.7,0.6c0.4,0.4,0.6,1,0.6,1.8v5h-1.2v-4.6c0-0.5,0-0.8-0.1-1.1
		c-0.1-0.2-0.2-0.4-0.4-0.5s-0.5-0.2-0.7-0.2c-0.5,0-0.9,0.2-1.3,0.5c-0.3,0.3-0.5,0.9-0.5,1.6v4.2H88v-4.7c0-0.5-0.1-1-0.3-1.2
		s-0.5-0.4-1-0.4c-0.3,0-0.7,0.1-1,0.3s-0.5,0.4-0.6,0.8s-0.2,0.9-0.2,1.5v3.8H83.7z"/>
	<path id="XMLID_172_" class="st1" d="M95.4,20.3v-1.4h1.2v1.4H95.4z M95.4,28.9v-7.3h1.2v7.3H95.4z"/>
	<path id="XMLID_175_" class="st1" d="M103.5,26.6l1.3,0.2c-0.2,0.7-0.6,1.3-1.1,1.7c-0.5,0.4-1.2,0.6-2.1,0.6c-1.1,0-1.9-0.3-2.5-1
		c-0.6-0.7-0.9-1.6-0.9-2.8c0-1.2,0.3-2.2,0.9-2.8s1.4-1,2.4-1c1,0,1.8,0.3,2.4,1s0.9,1.6,0.9,2.8c0,0.1,0,0.2,0,0.3h-5.4
		c0,0.8,0.3,1.4,0.7,1.8s0.9,0.6,1.5,0.6c0.5,0,0.8-0.1,1.2-0.4S103.3,27.1,103.5,26.6z M99.4,24.6h4.1c-0.1-0.6-0.2-1.1-0.5-1.4
		c-0.4-0.5-0.9-0.7-1.5-0.7c-0.6,0-1,0.2-1.4,0.6S99.5,23.9,99.4,24.6z"/>
	<path id="XMLID_178_" class="st1" d="M106.3,28.9v-7.3h1.1v1c0.5-0.8,1.3-1.2,2.3-1.2c0.4,0,0.8,0.1,1.2,0.2
		c0.4,0.2,0.6,0.4,0.8,0.6s0.3,0.6,0.4,0.9c0,0.2,0.1,0.6,0.1,1.2v4.5h-1.2v-4.4c0-0.5,0-0.9-0.1-1.1c-0.1-0.2-0.3-0.4-0.5-0.6
		c-0.2-0.1-0.5-0.2-0.9-0.2c-0.5,0-1,0.2-1.4,0.5c-0.4,0.3-0.6,1-0.6,1.9v4H106.3z"/>
	<path id="XMLID_180_" class="st1" d="M116.7,27.8l0.2,1.1c-0.3,0.1-0.7,0.1-0.9,0.1c-0.4,0-0.8-0.1-1-0.2s-0.4-0.3-0.5-0.6
		c-0.1-0.2-0.2-0.7-0.2-1.5v-4.2h-0.9v-1h0.9v-1.8l1.2-0.7v2.5h1.2v1h-1.2v4.2c0,0.4,0,0.6,0.1,0.7c0,0.1,0.1,0.2,0.2,0.2
		c0.1,0.1,0.2,0.1,0.4,0.1C116.3,27.8,116.5,27.8,116.7,27.8z"/>
	<path id="XMLID_182_" class="st1" d="M117.5,25.3c0-1.3,0.4-2.3,1.1-3c0.6-0.5,1.4-0.8,2.3-0.8c1,0,1.8,0.3,2.4,1
		c0.6,0.7,1,1.6,1,2.7c0,0.9-0.1,1.7-0.4,2.2c-0.3,0.5-0.7,1-1.2,1.2c-0.5,0.3-1.1,0.4-1.8,0.4c-1,0-1.8-0.3-2.5-1
		C117.8,27.4,117.5,26.5,117.5,25.3z M118.8,25.3c0,0.9,0.2,1.6,0.6,2.1c0.4,0.5,0.9,0.7,1.5,0.7c0.6,0,1.1-0.2,1.5-0.7
		s0.6-1.2,0.6-2.1c0-0.9-0.2-1.6-0.6-2c-0.4-0.5-0.9-0.7-1.5-0.7c-0.6,0-1.1,0.2-1.5,0.7S118.8,24.3,118.8,25.3z"/>
	<path id="XMLID_185_" class="st1" d="M125.2,26.7l1.2-0.2c0.1,0.5,0.3,0.9,0.6,1.1c0.3,0.3,0.7,0.4,1.3,0.4c0.6,0,1-0.1,1.3-0.3
		c0.3-0.2,0.4-0.5,0.4-0.8c0-0.3-0.1-0.5-0.4-0.7c-0.2-0.1-0.6-0.2-1.3-0.4c-0.9-0.2-1.5-0.4-1.9-0.6c-0.3-0.2-0.6-0.4-0.8-0.7
		c-0.2-0.3-0.3-0.6-0.3-1c0-0.3,0.1-0.6,0.2-0.9c0.1-0.3,0.3-0.5,0.6-0.7c0.2-0.1,0.5-0.3,0.8-0.4c0.3-0.1,0.7-0.1,1.1-0.1
		c0.6,0,1.1,0.1,1.5,0.2c0.4,0.2,0.7,0.4,1,0.7c0.2,0.3,0.3,0.7,0.4,1.1l-1.2,0.2c-0.1-0.4-0.2-0.7-0.5-0.9
		c-0.3-0.2-0.6-0.3-1.1-0.3c-0.6,0-1,0.1-1.2,0.3s-0.4,0.4-0.4,0.7c0,0.2,0.1,0.3,0.2,0.4c0.1,0.1,0.3,0.2,0.5,0.3
		c0.1,0,0.5,0.2,1.1,0.3c0.9,0.2,1.5,0.4,1.8,0.6c0.3,0.1,0.6,0.4,0.8,0.6s0.3,0.6,0.3,1.1c0,0.4-0.1,0.8-0.4,1.2
		c-0.2,0.4-0.6,0.6-1,0.8c-0.5,0.2-1,0.3-1.5,0.3c-0.9,0-1.7-0.2-2.2-0.6C125.7,28.1,125.4,27.5,125.2,26.7z"/>
</g>
</svg>
