<?xml version="1.0" encoding="utf-8"?>
<!-- Generator: Adobe Illustrator 21.0.0, SVG Export Plug-In . SVG Version: 6.00 Build 0)  -->
<svg version="1.1" id="Capa_1" xmlns="http://www.w3.org/2000/svg" xmlns:xlink="http://www.w3.org/1999/xlink" x="0px" y="0px"
	 viewBox="0 0 205.6377 26" style="enable-background:new 0 0 205.6377 26;" xml:space="preserve">
<style type="text/css">
	.st0{fill:#42210B;}
	.st1{fill:#42210B;stroke:#42210B;stroke-miterlimit:10;}
</style>
<g>
	<polygon id="XMLID_7_" class="st0" points="17.0088,7.5117 18.3877,12.1846 23.5186,12.2617 19.5362,15.0967 20.9912,19.9199 
		17.0879,17.0127 12.9512,19.9199 14.4815,15.3271 10.4248,12.2617 15.3242,12.3389 	"/>
	<path class="st1" d="M21.9073,21.2256l-4.8276-3.5957l-5.0825,3.5718l1.8965-5.6919l-4.9917-3.772l6.0693,0.0952l2.0776-5.9531
		l1.7144,5.8101l6.2876,0.0947l-4.9321,3.5112L21.9073,21.2256z M11.9478,12.7856l3.1216,2.3589l-1.1641,3.4937l3.1909-2.2427
		l2.979,2.2188l-1.1216-3.7168l3.0327-2.1587l-3.9741-0.0596l-1.0435-3.5356l-1.2915,3.7012L11.9478,12.7856z"/>
</g>
<rect y="25.1328" class="st0" width="205.6377" height="1"/>
<g>
	<path class="st0" d="M40.2471,20.6338V10.6123h1.9961l2.3721,7.0957c0.2188,0.6611,0.3784,1.1553,0.4785,1.4834
		c0.1138-0.3643,0.2915-0.9004,0.5332-1.6064l2.3994-6.9727h1.7842v10.0215h-1.2783v-8.3877l-2.9121,8.3877h-1.1963l-2.8984-8.5313
		v8.5313H40.2471z"/>
	<path class="st0" d="M51.335,17.0039c0-1.3447,0.3735-2.3398,1.1211-2.9873c0.6245-0.5381,1.3853-0.8066,2.2832-0.8066
		c0.998,0,1.814,0.3271,2.4473,0.9805c0.6333,0.6543,0.9502,1.5576,0.9502,2.7109c0,0.9346-0.1401,1.6689-0.4204,2.2051
		c-0.2803,0.5352-0.688,0.9512-1.2236,1.2471s-1.1201,0.4443-1.7534,0.4443c-1.0161,0-1.8379-0.3262-2.4644-0.9775
		S51.335,18.2295,51.335,17.0039z M52.5996,17.0039c0,0.9297,0.2026,1.626,0.6084,2.0889c0.4058,0.4619,0.916,0.6934,1.5313,0.6934
		c0.6108,0,1.1187-0.2324,1.5244-0.6973s0.6084-1.1738,0.6084-2.126c0-0.8975-0.2041-1.5781-0.6118-2.04
		c-0.4077-0.4629-0.915-0.6943-1.521-0.6943c-0.6152,0-1.1255,0.2305-1.5313,0.6904S52.5996,16.0742,52.5996,17.0039z"/>
	<path class="st0" d="M64.2891,20.6338v-0.916c-0.4605,0.7197-1.1372,1.0801-2.0303,1.0801c-0.5786,0-1.1108-0.1592-1.5962-0.4785
		s-0.8613-0.7646-1.1279-1.3359c-0.2666-0.5723-0.3999-1.2295-0.3999-1.9727c0-0.7246,0.1206-1.3818,0.3623-1.9727
		c0.2417-0.5898,0.604-1.042,1.0869-1.3564s1.023-0.4717,1.6201-0.4717c0.4375,0,0.8271,0.0918,1.1689,0.2773
		c0.3418,0.1836,0.6196,0.4248,0.834,0.7207v-3.5957h1.2236v10.0215H64.2891z M60.3994,17.0107c0,0.9297,0.1958,1.625,0.5879,2.085
		s0.8545,0.6904,1.3877,0.6904c0.5376,0,0.9946-0.2197,1.3706-0.6602c0.376-0.4395,0.564-1.1104,0.564-2.0127
		c0-0.9932-0.1914-1.7227-0.5742-2.1875s-0.8545-0.6973-1.415-0.6973c-0.5469,0-1.0039,0.2236-1.3706,0.6699
		S60.3994,16.0488,60.3994,17.0107z"/>
	<path class="st0" d="M72.335,18.2959l1.2715,0.1572c-0.2007,0.7432-0.5718,1.3193-1.1143,1.7295s-1.2349,0.6152-2.0781,0.6152
		c-1.062,0-1.9038-0.3271-2.5259-0.9805c-0.6221-0.6543-0.9331-1.5713-0.9331-2.752c0-1.2217,0.3145-2.1689,0.9434-2.8438
		s1.4448-1.0117,2.4473-1.0117c0.9707,0,1.7637,0.3301,2.3789,0.9912s0.9229,1.5908,0.9229,2.7891
		c0,0.0732-0.0024,0.1826-0.0068,0.3281h-5.4141c0.0454,0.7979,0.271,1.4082,0.6768,1.832s0.9116,0.6357,1.5176,0.6357
		c0.4512,0,0.8364-0.1182,1.1553-0.3555S72.148,18.8154,72.335,18.2959z M68.295,16.3066h4.0537
		c-0.0547-0.6104-0.2095-1.0684-0.4648-1.374c-0.3921-0.4736-0.8999-0.7109-1.5244-0.7109c-0.5649,0-1.04,0.1895-1.4253,0.5674
		S68.336,15.6729,68.295,16.3066z"/>
	<path class="st0" d="M75.1241,20.6338V10.6123h1.2305v10.0215H75.1241z"/>
	<path class="st0" d="M77.8037,17.0039c0-1.3447,0.3735-2.3398,1.1211-2.9873c0.6245-0.5381,1.3853-0.8066,2.2832-0.8066
		c0.998,0,1.814,0.3271,2.4473,0.9805c0.6333,0.6543,0.9502,1.5576,0.9502,2.7109c0,0.9346-0.1401,1.6689-0.4204,2.2051
		c-0.2803,0.5352-0.688,0.9512-1.2236,1.2471s-1.1201,0.4443-1.7534,0.4443c-1.0161,0-1.8379-0.3262-2.4644-0.9775
		S77.8037,18.2295,77.8037,17.0039z M79.0684,17.0039c0,0.9297,0.2026,1.626,0.6084,2.0889
		c0.4058,0.4619,0.916,0.6934,1.5313,0.6934c0.6108,0,1.1187-0.2324,1.5244-0.6973s0.6084-1.1738,0.6084-2.126
		c0-0.8975-0.2041-1.5781-0.6118-2.04c-0.4077-0.4629-0.915-0.6943-1.521-0.6943c-0.6152,0-1.1255,0.2305-1.5313,0.6904
		S79.0684,16.0742,79.0684,17.0039z"/>
	<path class="st0" d="M94.9073,18.2959l1.2715,0.1572c-0.2007,0.7432-0.5718,1.3193-1.1143,1.7295s-1.2349,0.6152-2.0781,0.6152
		c-1.062,0-1.9038-0.3271-2.5259-0.9805c-0.6221-0.6543-0.9331-1.5713-0.9331-2.752c0-1.2217,0.3145-2.1689,0.9434-2.8438
		S91.9156,13.21,92.918,13.21c0.9707,0,1.7637,0.3301,2.3789,0.9912s0.9229,1.5908,0.9229,2.7891
		c0,0.0732-0.0024,0.1826-0.0068,0.3281h-5.4141c0.0454,0.7979,0.271,1.4082,0.6768,1.832s0.9116,0.6357,1.5176,0.6357
		c0.4512,0,0.8364-0.1182,1.1553-0.3555S94.7202,18.8154,94.9073,18.2959z M90.8672,16.3066h4.0537
		c-0.0547-0.6104-0.2095-1.0684-0.4648-1.374c-0.3921-0.4736-0.8999-0.7109-1.5244-0.7109c-0.5649,0-1.04,0.1895-1.4253,0.5674
		S90.9082,15.6729,90.8672,16.3066z"/>
	<path class="st0" d="M97.7237,20.6338V13.374h1.1074v1.0322c0.5332-0.7979,1.3032-1.1963,2.3105-1.1963
		c0.4375,0,0.8398,0.0781,1.2065,0.2363c0.3667,0.1563,0.6416,0.3633,0.8237,0.6182s0.3101,0.5586,0.3828,0.9092
		c0.0454,0.2275,0.0684,0.627,0.0684,1.1963v4.4639h-1.2305v-4.416c0-0.501-0.0479-0.876-0.1436-1.125
		c-0.0957-0.248-0.2656-0.4463-0.5093-0.5938c-0.2437-0.1484-0.5298-0.2227-0.8579-0.2227c-0.5239,0-0.9766,0.166-1.3569,0.499
		s-0.5708,0.9639-0.5708,1.8936v3.9648h-1.2303V20.6338z"/>
	<path class="st0" d="M114.1367,17.9746l1.21,0.1572c-0.1318,0.834-0.4707,1.4863-1.0146,1.959
		c-0.5449,0.4707-1.2139,0.707-2.0068,0.707c-0.9932,0-1.792-0.3242-2.3955-0.9746c-0.6045-0.6484-0.9063-1.5801-0.9063-2.792
		c0-0.7842,0.1299-1.4697,0.3896-2.0576s0.6553-1.0293,1.1865-1.3223c0.5303-0.2949,1.1074-0.4414,1.7324-0.4414
		c0.7891,0,1.4336,0.1992,1.9346,0.5977c0.501,0.3994,0.8232,0.9658,0.9639,1.6992l-1.1963,0.1846
		c-0.1143-0.4873-0.3154-0.8545-0.6045-1.1006c-0.29-0.2461-0.6396-0.3691-1.0498-0.3691c-0.6201,0-1.124,0.2227-1.5107,0.666
		c-0.3867,0.4453-0.5811,1.1475-0.5811,2.1094c0,0.9756,0.1865,1.6836,0.5605,2.126s0.8613,0.6631,1.4629,0.6631
		c0.4834,0,0.8857-0.1484,1.21-0.4443S114.0508,18.5898,114.1367,17.9746z"/>
	<path class="st0" d="M121.1367,19.7383c-0.4551,0.3877-0.8945,0.6611-1.3164,0.8203c-0.4209,0.1592-0.873,0.2393-1.3564,0.2393
		c-0.7979,0-1.4111-0.1953-1.8389-0.584c-0.4277-0.3906-0.6426-0.8877-0.6426-1.4941c0-0.3555,0.0811-0.6797,0.2422-0.9746
		c0.1621-0.293,0.374-0.5293,0.6367-0.707c0.2617-0.1777,0.5566-0.3125,0.8848-0.4033c0.2422-0.0635,0.6055-0.125,1.0938-0.1846
		c0.9941-0.1182,1.7246-0.2598,2.1943-0.4238c0.0049-0.1689,0.0068-0.2754,0.0068-0.3213c0-0.501-0.1162-0.8545-0.3486-1.0596
		c-0.3145-0.2783-0.7822-0.417-1.4014-0.417c-0.5781,0-1.0059,0.1016-1.2813,0.3037c-0.2764,0.2031-0.4805,0.5625-0.6123,1.0771
		l-1.2031-0.1641c0.1094-0.5146,0.29-0.9307,0.54-1.2471c0.25-0.3174,0.6133-0.5605,1.0869-0.7324
		c0.4736-0.1699,1.0225-0.2559,1.6475-0.2559c0.6191,0,1.123,0.0732,1.5107,0.2188s0.6729,0.3291,0.8545,0.5508
		c0.1816,0.2207,0.3105,0.5,0.3828,0.8369c0.041,0.21,0.0615,0.5879,0.0615,1.1348v1.6406c0,1.1436,0.0264,1.8672,0.0791,2.1709
		c0.0518,0.3027,0.1563,0.5928,0.3105,0.8711h-1.2852C121.2559,20.3789,121.1739,20.0801,121.1367,19.7383z M121.0342,16.9902
		c-0.4463,0.1826-1.1162,0.3369-2.0098,0.4648c-0.5059,0.0732-0.8643,0.1553-1.0732,0.2461s-0.3711,0.2246-0.4854,0.3994
		c-0.1143,0.1758-0.1709,0.3711-0.1709,0.585c0,0.3281,0.124,0.6016,0.373,0.8203c0.248,0.2188,0.6113,0.3281,1.0898,0.3281
		c0.4746,0,0.8955-0.1035,1.2646-0.3115c0.3691-0.207,0.6396-0.4902,0.8135-0.8506c0.1328-0.2783,0.1982-0.6885,0.1982-1.2305
		v-0.4511H121.0342z"/>
	<path class="st0" d="M123.6934,18.4668l1.2168-0.1914c0.0684,0.4873,0.2588,0.8613,0.5703,1.1211
		c0.3125,0.2598,0.749,0.3896,1.3096,0.3896c0.5654,0,0.9844-0.1152,1.2578-0.3457c0.2734-0.2295,0.4102-0.5,0.4102-0.8096
		c0-0.2783-0.1201-0.4971-0.3623-0.6563c-0.168-0.1094-0.5879-0.248-1.2578-0.417c-0.9023-0.2275-1.5273-0.4248-1.877-0.5918
		c-0.3477-0.166-0.6123-0.3965-0.793-0.6895c-0.1797-0.2949-0.2695-0.6191-0.2695-0.9746c0-0.3232,0.0742-0.623,0.2227-0.8984
		c0.1475-0.2764,0.3496-0.5049,0.6045-0.6875c0.1914-0.1416,0.4521-0.2607,0.7822-0.3594c0.3311-0.0977,0.6855-0.1465,1.0635-0.1465
		c0.5693,0,1.0693,0.082,1.501,0.2461c0.4297,0.1641,0.748,0.3867,0.9531,0.666c0.2051,0.2813,0.3457,0.6553,0.4238,1.125
		l-1.2031,0.1641c-0.0547-0.374-0.2129-0.665-0.4746-0.875c-0.2627-0.21-0.6328-0.3145-1.1113-0.3145
		c-0.5645,0-0.9688,0.0938-1.21,0.2803s-0.3623,0.4053-0.3623,0.6563c0,0.1592,0.0508,0.3027,0.1504,0.4307
		c0.0996,0.1318,0.2578,0.2412,0.4717,0.3281c0.123,0.0459,0.4854,0.1504,1.0869,0.3145c0.8711,0.2324,1.4775,0.4229,1.8223,0.5703
		c0.3438,0.1484,0.6133,0.3643,0.8096,0.6465s0.2939,0.6338,0.2939,1.0527c0,0.4102-0.1191,0.7969-0.3594,1.1582
		c-0.2383,0.3633-0.584,0.6426-1.0352,0.8418c-0.4512,0.1973-0.9609,0.2969-1.5313,0.2969c-0.9434,0-1.6621-0.1963-2.1563-0.5879
		C124.1455,19.8184,123.8301,19.2373,123.6934,18.4668z"/>
	<path class="st0" d="M135.9229,17.9746l1.21,0.1572c-0.1328,0.834-0.4707,1.4863-1.0156,1.959
		c-0.5439,0.4707-1.2129,0.707-2.0059,0.707c-0.9941,0-1.792-0.3242-2.3965-0.9746c-0.6035-0.6484-0.9053-1.5801-0.9053-2.792
		c0-0.7842,0.1299-1.4697,0.3896-2.0576s0.6553-1.0293,1.1855-1.3223c0.5313-0.2949,1.1094-0.4414,1.7334-0.4414
		c0.7881,0,1.4326,0.1992,1.9346,0.5977c0.502,0.3994,0.8223,0.9658,0.9639,1.6992l-1.1963,0.1846
		c-0.1133-0.4873-0.3154-0.8545-0.6055-1.1006c-0.2891-0.2461-0.6387-0.3691-1.0488-0.3691c-0.6191,0-1.123,0.2227-1.5107,0.666
		c-0.3877,0.4453-0.5811,1.1475-0.5811,2.1094c0,0.9756,0.1875,1.6836,0.5605,2.126s0.8613,0.6631,1.4629,0.6631
		c0.4824,0,0.8867-0.1484,1.21-0.4443S135.836,18.5898,135.9229,17.9746z"/>
	<path class="st0" d="M142.9229,19.7383c-0.4561,0.3877-0.8945,0.6611-1.3154,0.8203c-0.4219,0.1592-0.875,0.2393-1.3574,0.2393
		c-0.7969,0-1.4102-0.1953-1.8389-0.584c-0.4287-0.3906-0.6426-0.8877-0.6426-1.4941c0-0.3555,0.0811-0.6797,0.2432-0.9746
		c0.1611-0.293,0.373-0.5293,0.6348-0.707c0.2627-0.1777,0.5576-0.3125,0.8857-0.4033c0.2412-0.0635,0.6064-0.125,1.0938-0.1846
		c0.9932-0.1182,1.7256-0.2598,2.1943-0.4238c0.0039-0.1689,0.0068-0.2754,0.0068-0.3213c0-0.501-0.1162-0.8545-0.3486-1.0596
		c-0.3145-0.2783-0.7813-0.417-1.4014-0.417c-0.5791,0-1.0059,0.1016-1.2822,0.3037c-0.2754,0.2031-0.4785,0.5625-0.6113,1.0771
		l-1.2031-0.1641c0.1094-0.5146,0.2891-0.9307,0.54-1.2471c0.251-0.3174,0.6123-0.5605,1.0869-0.7324
		c0.4746-0.1699,1.0234-0.2559,1.6475-0.2559c0.6201,0,1.124,0.0732,1.5107,0.2188s0.6719,0.3291,0.8545,0.5508
		c0.1826,0.2207,0.3096,0.5,0.3828,0.8369c0.041,0.21,0.0615,0.5879,0.0615,1.1348v1.6406c0,1.1436,0.0264,1.8672,0.0781,2.1709
		c0.0527,0.3027,0.1563,0.5928,0.3115,0.8711h-1.2852C143.041,20.3789,142.959,20.0801,142.9229,19.7383z M142.8203,16.9902
		c-0.4473,0.1826-1.1172,0.3369-2.0098,0.4648c-0.5059,0.0732-0.8633,0.1553-1.0732,0.2461s-0.3721,0.2246-0.4854,0.3994
		c-0.1133,0.1758-0.1709,0.3711-0.1709,0.585c0,0.3281,0.124,0.6016,0.3721,0.8203c0.249,0.2188,0.6123,0.3281,1.0908,0.3281
		c0.4736,0,0.8955-0.1035,1.2646-0.3115c0.3691-0.207,0.6406-0.4902,0.8135-0.8506c0.1318-0.2783,0.1982-0.6885,0.1982-1.2305
		L142.8203,16.9902L142.8203,16.9902z"/>
	<path class="st0" d="M150.6817,20.6338v-0.916c-0.4609,0.7197-1.1367,1.0801-2.0303,1.0801c-0.5791,0-1.1104-0.1592-1.5967-0.4785
		c-0.4844-0.3193-0.8613-0.7646-1.127-1.3359c-0.2676-0.5723-0.4004-1.2295-0.4004-1.9727c0-0.7246,0.1211-1.3818,0.3623-1.9727
		c0.2412-0.5898,0.6045-1.042,1.0869-1.3564S148,13.21,148.5967,13.21c0.4375,0,0.8271,0.0918,1.1689,0.2773
		c0.3418,0.1836,0.6191,0.4248,0.834,0.7207v-3.5957h1.2236v10.0215H150.6817z M146.792,17.0107c0,0.9297,0.1963,1.625,0.5879,2.085
		s0.8545,0.6904,1.3877,0.6904c0.5371,0,0.9941-0.2197,1.3711-0.6602c0.375-0.4395,0.5635-1.1104,0.5635-2.0127
		c0-0.9932-0.1914-1.7227-0.5742-2.1875s-0.8545-0.6973-1.415-0.6973c-0.5469,0-1.0039,0.2236-1.3711,0.6699
		C146.9756,15.3447,146.792,16.0488,146.792,17.0107z"/>
	<path class="st0" d="M158.4951,19.7383c-0.4561,0.3877-0.8945,0.6611-1.3154,0.8203c-0.4219,0.1592-0.875,0.2393-1.3574,0.2393
		c-0.7969,0-1.4102-0.1953-1.8389-0.584c-0.4287-0.3906-0.6426-0.8877-0.6426-1.4941c0-0.3555,0.0811-0.6797,0.2432-0.9746
		c0.1611-0.293,0.373-0.5293,0.6348-0.707c0.2627-0.1777,0.5576-0.3125,0.8857-0.4033c0.2412-0.0635,0.6064-0.125,1.0938-0.1846
		c0.9932-0.1182,1.7256-0.2598,2.1943-0.4238c0.0039-0.1689,0.0068-0.2754,0.0068-0.3213c0-0.501-0.1162-0.8545-0.3486-1.0596
		c-0.3145-0.2783-0.7813-0.417-1.4014-0.417c-0.5791,0-1.0059,0.1016-1.2822,0.3037c-0.2754,0.2031-0.4785,0.5625-0.6113,1.0771
		l-1.2031-0.1641c0.1094-0.5146,0.2891-0.9307,0.54-1.2471c0.251-0.3174,0.6123-0.5605,1.0869-0.7324
		c0.4746-0.1699,1.0234-0.2559,1.6475-0.2559c0.6201,0,1.124,0.0732,1.5107,0.2188s0.6719,0.3291,0.8545,0.5508
		c0.1826,0.2207,0.3096,0.5,0.3828,0.8369c0.041,0.21,0.0615,0.5879,0.0615,1.1348v1.6406c0,1.1436,0.0264,1.8672,0.0781,2.1709
		c0.0527,0.3027,0.1563,0.5928,0.3115,0.8711h-1.2852C158.6133,20.3789,158.5313,20.0801,158.4951,19.7383z M158.3926,16.9902
		c-0.4473,0.1826-1.1172,0.3369-2.0098,0.4648c-0.5059,0.0732-0.8633,0.1553-1.0732,0.2461s-0.3721,0.2246-0.4854,0.3994
		c-0.1133,0.1758-0.1709,0.3711-0.1709,0.585c0,0.3281,0.124,0.6016,0.3721,0.8203c0.249,0.2188,0.6123,0.3281,1.0908,0.3281
		c0.4736,0,0.8955-0.1035,1.2646-0.3115c0.3691-0.207,0.6406-0.4902,0.8135-0.8506c0.1318-0.2783,0.1982-0.6885,0.1982-1.2305
		L158.3926,16.9902L158.3926,16.9902z"/>
</g>
</svg>
