<?xml version="1.0" encoding="utf-8"?>
<!-- Generator: Adobe Illustrator 19.0.0, SVG Export Plug-In . SVG Version: 6.00 Build 0)  -->
<svg version="1.1" id="Capa_1" xmlns="http://www.w3.org/2000/svg" xmlns:xlink="http://www.w3.org/1999/xlink" x="0px" y="0px"
	 viewBox="-646 555.9 205.6 34" style="enable-background:new -646 555.9 205.6 34;" xml:space="preserve">
<style type="text/css">
	.st0{fill:#FFFFFF;}
	.st1{fill:#FFFFFF;stroke:#FFFFFF;stroke-miterlimit:10;}
</style>
<polygon id="XMLID_1777_" class="st0" points="-629,565.3 -627.7,570 -622.5,570.1 -626.5,572.9 -625,577.7 -629,574.8 
	-633.1,577.7 -631.6,573.1 -635.6,570.1 -630.7,570.1 "/>
<line id="XMLID_651_" class="st1" x1="-646" y1="589.4" x2="-440.4" y2="589.4"/>
<g>
	<path class="st0" d="M-598.2,571.4c0.6,0.4,1.2,0.7,1.7,0.9l-0.4,0.9c-0.7-0.3-1.4-0.7-2.2-1.2c-0.7,0.4-1.6,0.6-2.5,0.6
		c-0.9,0-1.7-0.2-2.5-0.7c-0.8-0.5-1.3-1.1-1.7-1.8c-0.4-0.8-0.6-1.7-0.6-2.7s0.2-1.9,0.6-2.7c0.4-0.8,1-1.4,1.7-1.9
		c0.7-0.4,1.6-0.6,2.5-0.6c0.9,0,1.8,0.2,2.5,0.7c0.7,0.4,1.3,1.1,1.7,1.8c0.4,0.8,0.6,1.7,0.6,2.7c0,0.8-0.1,1.6-0.4,2.2
		C-597.3,570.3-597.7,570.9-598.2,571.4z M-601.1,569.7c0.8,0.2,1.4,0.5,1.9,1c0.8-0.7,1.2-1.8,1.2-3.2c0-0.8-0.1-1.5-0.4-2.1
		c-0.3-0.6-0.7-1.1-1.2-1.4s-1.1-0.5-1.8-0.5c-1,0-1.8,0.3-2.5,1c-0.7,0.7-1,1.7-1,3s0.3,2.3,1,3c0.6,0.7,1.5,1,2.5,1
		c0.5,0,0.9-0.1,1.3-0.3c-0.4-0.3-0.9-0.5-1.3-0.6L-601.1,569.7z"/>
	<path class="st0" d="M-590.3,572.4v-1.1c-0.6,0.8-1.3,1.2-2.3,1.2c-0.4,0-0.8-0.1-1.2-0.2c-0.4-0.2-0.6-0.4-0.8-0.6
		c-0.2-0.2-0.3-0.6-0.4-0.9c-0.1-0.2-0.1-0.6-0.1-1.1v-4.5h1.2v4c0,0.6,0,1.1,0.1,1.3c0.1,0.3,0.2,0.6,0.5,0.8s0.6,0.3,0.9,0.3
		s0.7-0.1,1-0.3c0.3-0.2,0.6-0.4,0.7-0.8c0.1-0.3,0.2-0.8,0.2-1.4v-3.9h1.2v7.3L-590.3,572.4L-590.3,572.4z"/>
	<path class="st0" d="M-582.3,570.1l1.3,0.2c-0.2,0.7-0.6,1.3-1.1,1.7s-1.2,0.6-2.1,0.6c-1.1,0-1.9-0.3-2.5-1s-0.9-1.6-0.9-2.8
		c0-1.2,0.3-2.2,0.9-2.8s1.4-1,2.4-1s1.8,0.3,2.4,1s0.9,1.6,0.9,2.8c0,0.1,0,0.2,0,0.3h-5.4c0,0.8,0.3,1.4,0.7,1.8
		c0.4,0.4,0.9,0.6,1.5,0.6c0.5,0,0.8-0.1,1.2-0.4C-582.6,570.8-582.4,570.6-582.3,570.1z M-586.3,568.1h4.1
		c-0.1-0.6-0.2-1.1-0.5-1.4c-0.4-0.5-0.9-0.7-1.5-0.7c-0.6,0-1,0.2-1.4,0.6C-586,567-586.3,567.5-586.3,568.1z M-585,564.3l0.9-1.9
		h1.6l-1.5,1.9H-585z"/>
	<path class="st0" d="M-570.6,570.1l1.3,0.2c-0.2,0.7-0.6,1.3-1.1,1.7s-1.2,0.6-2.1,0.6c-1.1,0-1.9-0.3-2.5-1
		c-0.6-0.7-0.9-1.6-0.9-2.8c0-1.2,0.3-2.2,0.9-2.8s1.4-1,2.4-1s1.8,0.3,2.4,1c0.6,0.7,0.9,1.6,0.9,2.8c0,0.1,0,0.2,0,0.3h-5.4
		c0,0.8,0.3,1.4,0.7,1.8c0.4,0.4,0.9,0.6,1.5,0.6c0.5,0,0.8-0.1,1.2-0.4C-570.9,570.8-570.8,570.6-570.6,570.1z M-574.6,568.1h4.1
		c-0.1-0.6-0.2-1.1-0.5-1.4c-0.4-0.5-0.9-0.7-1.5-0.7s-1,0.2-1.4,0.6C-574.4,567-574.6,567.5-574.6,568.1z"/>
	<path class="st0" d="M-568.3,570.3l1.2-0.2c0.1,0.5,0.3,0.9,0.6,1.1c0.3,0.3,0.7,0.4,1.3,0.4c0.6,0,1-0.1,1.3-0.3
		c0.3-0.2,0.4-0.5,0.4-0.8s-0.1-0.5-0.4-0.7c-0.2-0.1-0.6-0.2-1.3-0.4c-0.9-0.2-1.5-0.4-1.9-0.6c-0.3-0.2-0.6-0.4-0.8-0.7
		c-0.2-0.3-0.3-0.6-0.3-1c0-0.3,0.1-0.6,0.2-0.9s0.3-0.5,0.6-0.7c0.2-0.1,0.5-0.3,0.8-0.4c0.3-0.1,0.7-0.1,1.1-0.1
		c0.6,0,1.1,0.1,1.5,0.2c0.4,0.2,0.7,0.4,1,0.7c0.2,0.3,0.3,0.7,0.4,1.1l-1.2,0.2c-0.1-0.4-0.2-0.7-0.5-0.9
		c-0.3-0.2-0.6-0.3-1.1-0.3c-0.6,0-1,0.1-1.2,0.3c-0.2,0.2-0.4,0.4-0.4,0.7c0,0.2,0,0.3,0.2,0.4c0.1,0.1,0.3,0.2,0.5,0.3
		c0.1,0,0.5,0.2,1.1,0.3c0.9,0.2,1.5,0.4,1.8,0.6c0.3,0.1,0.6,0.4,0.8,0.6s0.3,0.6,0.3,1.1c0,0.4-0.1,0.8-0.4,1.2
		c-0.2,0.4-0.6,0.6-1,0.8c-0.5,0.2-1,0.3-1.5,0.3c-0.9,0-1.7-0.2-2.2-0.6C-567.8,571.6-568.1,571-568.3,570.3z"/>
	<path class="st0" d="M-551.9,570.1l1.3,0.2c-0.2,0.7-0.6,1.3-1.1,1.7s-1.2,0.6-2.1,0.6c-1.1,0-1.9-0.3-2.5-1
		c-0.6-0.7-0.9-1.6-0.9-2.8c0-1.2,0.3-2.2,0.9-2.8c0.6-0.6,1.4-1,2.4-1s1.8,0.3,2.4,1s0.9,1.6,0.9,2.8c0,0.1,0,0.2,0,0.3h-5.4
		c0,0.8,0.3,1.4,0.7,1.8c0.4,0.4,0.9,0.6,1.5,0.6c0.5,0,0.8-0.1,1.2-0.4C-552.2,570.8-552.1,570.6-551.9,570.1z M-556,568.1h4.1
		c-0.1-0.6-0.2-1.1-0.5-1.4c-0.4-0.5-0.9-0.7-1.5-0.7c-0.6,0-1,0.2-1.4,0.6C-555.7,567-555.9,567.5-556,568.1z"/>
	<path class="st0" d="M-549.1,572.4v-10h1.2v10H-549.1z"/>
	<path class="st0" d="M-542.1,575.2v-10h1.1v0.9c0.3-0.4,0.6-0.6,0.9-0.8c0.3-0.2,0.7-0.3,1.2-0.3c0.6,0,1.2,0.2,1.6,0.5
		c0.4,0.3,0.8,0.8,1.1,1.3c0.2,0.6,0.4,1.2,0.4,1.9s-0.1,1.4-0.4,2c-0.3,0.6-0.7,1-1.2,1.4c-0.5,0.3-1,0.5-1.6,0.5
		c-0.4,0-0.8-0.1-1.1-0.3c-0.3-0.2-0.6-0.4-0.8-0.7v3.5h-1.2V575.2z M-541,568.8c0,0.9,0.2,1.6,0.6,2.1c0.4,0.5,0.8,0.7,1.4,0.7
		c0.5,0,1-0.2,1.4-0.7c0.4-0.5,0.6-1.2,0.6-2.2c0-0.9-0.2-1.6-0.6-2.1c-0.4-0.5-0.8-0.7-1.4-0.7c-0.5,0-1,0.2-1.4,0.7
		C-540.8,567.2-541,567.9-541,568.8z"/>
	<path class="st0" d="M-534.3,572.4v-7.3h1.1v1.1c0.3-0.5,0.5-0.9,0.8-1c0.2-0.2,0.5-0.2,0.8-0.2c0.4,0,0.8,0.1,1.3,0.4l-0.4,1.1
		c-0.3-0.2-0.6-0.3-0.9-0.3s-0.5,0.1-0.7,0.2c-0.2,0.2-0.4,0.4-0.5,0.7c-0.1,0.4-0.2,0.9-0.2,1.4v3.8L-534.3,572.4L-534.3,572.4z"/>
	<path class="st0" d="M-530.1,568.8c0-1.3,0.4-2.3,1.1-3c0.6-0.5,1.4-0.8,2.3-0.8c1,0,1.8,0.3,2.4,1c0.6,0.7,1,1.6,1,2.7
		c0,0.9-0.1,1.7-0.4,2.2s-0.7,1-1.2,1.2c-0.5,0.3-1.1,0.4-1.8,0.4c-1,0-1.8-0.3-2.5-1C-529.8,571-530.1,570-530.1,568.8z
		 M-528.8,568.8c0,0.9,0.2,1.6,0.6,2.1c0.4,0.5,0.9,0.7,1.5,0.7c0.6,0,1.1-0.2,1.5-0.7c0.4-0.5,0.6-1.2,0.6-2.1c0-0.9-0.2-1.6-0.6-2
		c-0.4-0.5-0.9-0.7-1.5-0.7c-0.6,0-1.1,0.2-1.5,0.7C-528.6,567.3-528.8,567.9-528.8,568.8z"/>
	<path class="st0" d="M-517.1,569.8l1.2,0.2c-0.1,0.8-0.5,1.5-1,2s-1.2,0.7-2,0.7c-1,0-1.8-0.3-2.4-1c-0.6-0.6-0.9-1.6-0.9-2.8
		c0-0.8,0.1-1.5,0.4-2.1c0.3-0.6,0.7-1,1.2-1.3s1.1-0.4,1.7-0.4c0.8,0,1.4,0.2,1.9,0.6c0.5,0.4,0.8,1,1,1.7l-1.2,0.2
		c-0.1-0.5-0.3-0.9-0.6-1.1c-0.3-0.2-0.6-0.4-1-0.4c-0.6,0-1.1,0.2-1.5,0.7c-0.4,0.4-0.6,1.1-0.6,2.1s0.2,1.7,0.6,2.1
		c0.4,0.4,0.9,0.7,1.5,0.7c0.5,0,0.9-0.1,1.2-0.4S-517.2,570.4-517.1,569.8z"/>
	<path class="st0" d="M-509.9,570.1l1.3,0.2c-0.2,0.7-0.6,1.3-1.1,1.7s-1.2,0.6-2.1,0.6c-1.1,0-1.9-0.3-2.5-1
		c-0.6-0.7-0.9-1.6-0.9-2.8c0-1.2,0.3-2.2,0.9-2.8c0.6-0.6,1.4-1,2.4-1s1.8,0.3,2.4,1c0.6,0.7,0.9,1.6,0.9,2.8c0,0.1,0,0.2,0,0.3
		h-5.4c0,0.8,0.3,1.4,0.7,1.8c0.4,0.4,0.9,0.6,1.5,0.6c0.5,0,0.8-0.1,1.2-0.4C-510.2,570.8-510.1,570.6-509.9,570.1z M-513.9,568.1
		h4.1c-0.1-0.6-0.2-1.1-0.5-1.4c-0.4-0.5-0.9-0.7-1.5-0.7c-0.6,0-1,0.2-1.4,0.6C-513.7,567-513.9,567.5-513.9,568.1z"/>
	<path class="st0" d="M-507.6,570.3l1.2-0.2c0.1,0.5,0.3,0.9,0.6,1.1c0.3,0.3,0.7,0.4,1.3,0.4s1-0.1,1.3-0.3
		c0.3-0.2,0.4-0.5,0.4-0.8s-0.1-0.5-0.4-0.7c-0.2-0.1-0.6-0.2-1.3-0.4c-0.9-0.2-1.5-0.4-1.9-0.6c-0.3-0.2-0.6-0.4-0.8-0.7
		c-0.2-0.3-0.3-0.6-0.3-1c0-0.3,0.1-0.6,0.2-0.9c0.1-0.3,0.3-0.5,0.6-0.7c0.2-0.1,0.5-0.3,0.8-0.4c0.3-0.1,0.7-0.1,1.1-0.1
		c0.6,0,1.1,0.1,1.5,0.2c0.4,0.2,0.7,0.4,1,0.7c0.2,0.3,0.3,0.7,0.4,1.1l-1.2,0.2c-0.1-0.4-0.2-0.7-0.5-0.9
		c-0.3-0.2-0.6-0.3-1.1-0.3c-0.6,0-1,0.1-1.2,0.3c-0.2,0.2-0.4,0.4-0.4,0.7c0,0.2,0.1,0.3,0.2,0.4c0.1,0.1,0.3,0.2,0.5,0.3
		c0.1,0,0.5,0.2,1.1,0.3c0.9,0.2,1.5,0.4,1.8,0.6c0.3,0.1,0.6,0.4,0.8,0.6s0.3,0.6,0.3,1.1c0,0.4-0.1,0.8-0.4,1.2
		c-0.2,0.4-0.6,0.6-1,0.8c-0.5,0.2-1,0.3-1.5,0.3c-0.9,0-1.7-0.2-2.2-0.6C-507.1,571.6-507.4,571-507.6,570.3z"/>
	<path class="st0" d="M-500.5,568.8c0-1.3,0.4-2.3,1.1-3c0.6-0.5,1.4-0.8,2.3-0.8c1,0,1.8,0.3,2.4,1c0.6,0.7,1,1.6,1,2.7
		c0,0.9-0.1,1.7-0.4,2.2c-0.3,0.5-0.7,1-1.2,1.2c-0.5,0.3-1.1,0.4-1.8,0.4c-1,0-1.8-0.3-2.5-1C-500.2,571-500.5,570-500.5,568.8z
		 M-499.3,568.8c0,0.9,0.2,1.6,0.6,2.1c0.4,0.5,0.9,0.7,1.5,0.7c0.6,0,1.1-0.2,1.5-0.7c0.4-0.5,0.6-1.2,0.6-2.1c0-0.9-0.2-1.6-0.6-2
		c-0.4-0.5-0.9-0.7-1.5-0.7c-0.6,0-1.1,0.2-1.5,0.7C-499.1,567.3-499.3,567.9-499.3,568.8z"/>
	<path class="st0" d="M-601.2,586.4v-0.9c-0.5,0.7-1.1,1.1-2,1.1c-0.6,0-1.1-0.2-1.6-0.5s-0.9-0.8-1.1-1.3c-0.3-0.6-0.4-1.2-0.4-2
		c0-0.7,0.1-1.4,0.4-2c0.2-0.6,0.6-1,1.1-1.4c0.5-0.4,1-0.5,1.6-0.5c0.4,0,0.8,0.1,1.2,0.3c0.3,0.2,0.6,0.4,0.8,0.7v-3.6h1.2v10
		L-601.2,586.4L-601.2,586.4z M-605.1,582.8c0,0.9,0.2,1.6,0.6,2.1s0.9,0.7,1.4,0.7s1-0.2,1.4-0.7c0.4-0.4,0.6-1.1,0.6-2
		c0-1-0.2-1.7-0.6-2.2s-0.9-0.7-1.4-0.7s-1,0.2-1.4,0.7C-604.9,581.1-605.1,581.8-605.1,582.8z"/>
	<path class="st0" d="M-593.2,584.1l1.3,0.2c-0.2,0.7-0.6,1.3-1.1,1.7s-1.2,0.6-2.1,0.6c-1.1,0-1.9-0.3-2.5-1
		c-0.6-0.7-0.9-1.6-0.9-2.8c0-1.2,0.3-2.2,0.9-2.8c0.6-0.6,1.4-1,2.4-1s1.8,0.3,2.4,1c0.6,0.7,0.9,1.6,0.9,2.8c0,0.1,0,0.2,0,0.3
		h-5.4c0,0.8,0.3,1.4,0.7,1.8c0.4,0.4,0.9,0.6,1.5,0.6c0.5,0,0.8-0.1,1.2-0.4S-593.3,584.6-593.2,584.1z M-597.2,582.1h4.1
		c-0.1-0.6-0.2-1.1-0.5-1.4c-0.4-0.5-0.9-0.7-1.5-0.7c-0.6,0-1,0.2-1.4,0.6C-596.9,581-597.2,581.5-597.2,582.1z"/>
	<path class="st0" d="M-590.4,586.4v-10h1.2v10H-590.4z"/>
	<path class="st0" d="M-583.8,584.3l1.2-0.2c0.1,0.5,0.3,0.9,0.6,1.1c0.3,0.3,0.7,0.4,1.3,0.4c0.6,0,1-0.1,1.3-0.3
		c0.3-0.2,0.4-0.5,0.4-0.8s-0.1-0.5-0.4-0.7c-0.2-0.1-0.6-0.2-1.3-0.4c-0.9-0.2-1.5-0.4-1.9-0.6c-0.3-0.2-0.6-0.4-0.8-0.7
		c-0.2-0.3-0.3-0.6-0.3-1c0-0.3,0.1-0.6,0.2-0.9s0.3-0.5,0.6-0.7c0.2-0.1,0.5-0.3,0.8-0.4c0.3-0.1,0.7-0.1,1.1-0.1
		c0.6,0,1.1,0.1,1.5,0.2c0.4,0.2,0.7,0.4,1,0.7c0.2,0.3,0.3,0.7,0.4,1.1l-1.2,0.2c-0.1-0.4-0.2-0.7-0.5-0.9
		c-0.3-0.2-0.6-0.3-1.1-0.3c-0.6,0-1,0.1-1.2,0.3c-0.2,0.2-0.4,0.4-0.4,0.7c0,0.2,0.1,0.3,0.2,0.4c0.1,0.1,0.3,0.2,0.5,0.3
		c0.1,0,0.5,0.2,1.1,0.3c0.9,0.2,1.5,0.4,1.8,0.6c0.3,0.1,0.6,0.4,0.8,0.6s0.3,0.6,0.3,1.1c0,0.4-0.1,0.8-0.4,1.2
		c-0.2,0.4-0.6,0.6-1,0.8c-0.5,0.2-1,0.3-1.5,0.3c-0.9,0-1.7-0.2-2.2-0.6C-583.4,585.6-583.7,585-583.8,584.3z"/>
	<path class="st0" d="M-576.8,582.8c0-1.3,0.4-2.3,1.1-3c0.6-0.5,1.4-0.8,2.3-0.8c1,0,1.8,0.3,2.4,1s1,1.6,1,2.7
		c0,0.9-0.1,1.7-0.4,2.2c-0.3,0.5-0.7,1-1.2,1.2c-0.5,0.3-1.1,0.4-1.8,0.4c-1,0-1.8-0.3-2.5-1C-576.5,585-576.8,584-576.8,582.8z
		 M-575.5,582.8c0,0.9,0.2,1.6,0.6,2.1c0.4,0.5,0.9,0.7,1.5,0.7c0.6,0,1.1-0.2,1.5-0.7c0.4-0.5,0.6-1.2,0.6-2.1c0-0.9-0.2-1.6-0.6-2
		c-0.4-0.5-0.9-0.7-1.5-0.7c-0.6,0-1.1,0.2-1.5,0.7C-575.3,581.3-575.5,581.9-575.5,582.8z"/>
	<path class="st0" d="M-568.3,586.4v-6.3h-1.1v-1h1.1v-0.8c0-0.5,0-0.8,0.1-1.1c0.1-0.3,0.3-0.6,0.6-0.8c0.3-0.2,0.7-0.3,1.3-0.3
		c0.3,0,0.7,0,1.1,0.1l-0.2,1.1c-0.3,0-0.5-0.1-0.7-0.1c-0.4,0-0.6,0.1-0.8,0.2c-0.2,0.1-0.2,0.5-0.2,0.9v0.7h1.4v1h-1.4v6.3
		L-568.3,586.4L-568.3,586.4z"/>
	<path class="st0" d="M-562,585.3l0.2,1.1c-0.3,0.1-0.7,0.1-0.9,0.1c-0.4,0-0.8-0.1-1-0.2c-0.2-0.1-0.4-0.3-0.5-0.6
		c-0.1-0.2-0.2-0.7-0.2-1.5V580h-0.9v-1h0.9v-1.8l1.2-0.7v2.5h1.2v1h-1.2v4.2c0,0.4,0,0.6,0.1,0.7c0,0.1,0.1,0.2,0.2,0.2
		c0.1,0.1,0.2,0.1,0.4,0.1C-562.4,585.4-562.2,585.4-562,585.3z"/>
	<path class="st0" d="M-559.4,586.4l-2.2-7.3h1.3l1.2,4.2l0.4,1.6c0-0.1,0.1-0.6,0.4-1.5l1.2-4.3h1.3l1.1,4.2l0.4,1.4l0.4-1.4
		l1.2-4.2h1.2l-2.3,7.3h-1.3l-1.2-4.3l-0.3-1.2l-1.5,5.6h-1.3V586.4z"/>
	<path class="st0" d="M-545.9,585.5c-0.5,0.4-0.9,0.7-1.3,0.8c-0.4,0.2-0.9,0.2-1.4,0.2c-0.8,0-1.4-0.2-1.8-0.6
		c-0.4-0.4-0.6-0.9-0.6-1.5c0-0.4,0.1-0.7,0.2-1c0.2-0.3,0.4-0.5,0.6-0.7c0.3-0.2,0.6-0.3,0.9-0.4c0.2-0.1,0.6-0.1,1.1-0.2
		c1-0.1,1.7-0.3,2.2-0.4c0-0.2,0-0.3,0-0.3c0-0.5-0.1-0.9-0.3-1.1c-0.3-0.3-0.8-0.4-1.4-0.4c-0.6,0-1,0.1-1.3,0.3s-0.5,0.6-0.6,1.1
		l-1.2-0.2c0.1-0.5,0.3-0.9,0.5-1.2c0.3-0.3,0.6-0.6,1.1-0.7c0.5-0.2,1-0.3,1.6-0.3c0.6,0,1.1,0.1,1.5,0.2c0.4,0.1,0.7,0.3,0.9,0.6
		c0.2,0.2,0.3,0.5,0.4,0.8c0,0.2,0.1,0.6,0.1,1.1v1.6c0,1.1,0,1.9,0.1,2.2c0.1,0.3,0.2,0.6,0.3,0.9h-1.3
		C-545.8,586.2-545.9,585.9-545.9,585.5z M-546,582.8c-0.4,0.2-1.1,0.3-2,0.5c-0.5,0.1-0.9,0.2-1.1,0.2c-0.2,0-0.4,0.2-0.5,0.4
		c-0.1,0.2-0.2,0.4-0.2,0.6c0,0.3,0.1,0.6,0.4,0.8c0.2,0.2,0.6,0.3,1.1,0.3s0.9-0.1,1.3-0.3s0.6-0.5,0.8-0.9
		c0.1-0.3,0.2-0.7,0.2-1.2V582.8z"/>
	<path class="st0" d="M-542.9,586.4v-7.3h1.1v1.1c0.3-0.5,0.5-0.9,0.8-1c0.2-0.2,0.5-0.2,0.8-0.2c0.4,0,0.8,0.1,1.3,0.4l-0.4,1.1
		c-0.3-0.2-0.6-0.3-0.9-0.3c-0.3,0-0.5,0.1-0.7,0.2c-0.2,0.2-0.4,0.4-0.5,0.7c-0.1,0.4-0.2,0.9-0.2,1.4v3.8L-542.9,586.4
		L-542.9,586.4z"/>
	<path class="st0" d="M-533.2,584.1l1.3,0.2c-0.2,0.7-0.6,1.3-1.1,1.7s-1.2,0.6-2.1,0.6c-1.1,0-1.9-0.3-2.5-1
		c-0.6-0.7-0.9-1.6-0.9-2.8c0-1.2,0.3-2.2,0.9-2.8c0.6-0.6,1.4-1,2.4-1s1.8,0.3,2.4,1c0.6,0.7,0.9,1.6,0.9,2.8c0,0.1,0,0.2,0,0.3
		h-5.4c0,0.8,0.3,1.4,0.7,1.8c0.4,0.4,0.9,0.6,1.5,0.6c0.5,0,0.8-0.1,1.2-0.4S-533.4,584.6-533.2,584.1z M-537.3,582.1h4.1
		c-0.1-0.6-0.2-1.1-0.5-1.4c-0.4-0.5-0.9-0.7-1.5-0.7c-0.6,0-1,0.2-1.4,0.6C-537,581-537.2,581.5-537.3,582.1z"/>
</g>
</svg>
