<?xml version="1.0" encoding="utf-8"?>
<!-- Generator: Adobe Illustrator 21.0.0, SVG Export Plug-In . SVG Version: 6.00 Build 0)  -->
<svg version="1.1" id="Capa_1" xmlns="http://www.w3.org/2000/svg" xmlns:xlink="http://www.w3.org/1999/xlink" x="0px" y="0px"
	 viewBox="0 0 205.6377 32" style="enable-background:new 0 0 205.6377 32;" xml:space="preserve">
<style type="text/css">
	.st0{fill:#42210B;stroke:#42210B;stroke-miterlimit:10;}
	.st1{fill:#42210B;}
</style>
<g>
	<polygon id="XMLID_5_" class="st0" points="18.0088,10.5938 19.3877,15.2666 24.5186,15.3438 20.5362,18.1787 21.9912,23.002 
		18.0879,20.0947 13.9512,23.002 15.4815,18.4092 11.4248,15.3438 16.3242,15.4209 	"/>
	<path class="st1" d="M22.9073,24.3076l-4.8276-3.5957l-5.0825,3.5718l1.8965-5.6919l-4.9917-3.772l6.0693,0.0952l2.0776-5.9531
		l1.7144,5.8101l6.2876,0.0947l-4.9321,3.5112L22.9073,24.3076z M12.9478,15.8677l3.1216,2.3589l-1.1641,3.4937l3.1909-2.2427
		l2.979,2.2188l-1.1216-3.7168l3.0327-2.1587l-3.9741-0.0596l-1.0435-3.5356l-1.2915,3.7012L12.9478,15.8677z"/>
</g>
<rect x="1" y="31.125" class="st1" width="205.6377" height="1"/>
<g>
	<path class="st1" d="M40.4087,13.4395V3.418h1.9961l2.3721,7.0957c0.2188,0.6611,0.3784,1.1553,0.4785,1.4834
		c0.1138-0.3643,0.2915-0.9004,0.5332-1.6064L48.188,3.418h1.7842v10.0215h-1.2783V5.0518l-2.9121,8.3877h-1.1963L41.687,4.9082
		v8.5313C41.687,13.4395,40.4087,13.4395,40.4087,13.4395z"/>
	<path class="st1" d="M51.4966,9.8096c0-1.3447,0.3735-2.3398,1.1211-2.9873c0.6245-0.5381,1.3853-0.8066,2.2832-0.8066
		c0.998,0,1.814,0.3271,2.4473,0.9805c0.6333,0.6543,0.9502,1.5576,0.9502,2.7109c0,0.9346-0.1401,1.6689-0.4204,2.2051
		c-0.2803,0.5352-0.688,0.9512-1.2236,1.2471s-1.1201,0.4443-1.7534,0.4443c-1.0161,0-1.8379-0.3262-2.4644-0.9775
		S51.4966,11.0352,51.4966,9.8096z M52.7613,9.8096c0,0.9297,0.2026,1.626,0.6084,2.0889c0.4058,0.4619,0.916,0.6934,1.5313,0.6934
		c0.6108,0,1.1187-0.2324,1.5244-0.6973s0.6084-1.1738,0.6084-2.126c0-0.8975-0.2041-1.5781-0.6118-2.04
		c-0.4077-0.4629-0.915-0.6943-1.521-0.6943c-0.6152,0-1.1255,0.2305-1.5313,0.6904C52.9639,8.1846,52.7613,8.8799,52.7613,9.8096z"
		/>
	<path class="st1" d="M64.4507,13.4395v-0.916c-0.4605,0.7197-1.1372,1.0801-2.0303,1.0801c-0.5786,0-1.1108-0.1592-1.5962-0.4785
		s-0.8613-0.7646-1.1279-1.3359c-0.2666-0.5723-0.3999-1.2295-0.3999-1.9727c0-0.7246,0.1206-1.3818,0.3623-1.9727
		c0.2417-0.5898,0.604-1.042,1.0869-1.3564s1.0229-0.4717,1.6201-0.4717c0.4375,0,0.8271,0.0918,1.1689,0.2773
		c0.3418,0.1836,0.6196,0.4248,0.834,0.7207V3.418h1.2236v10.0215H64.4507z M60.5611,9.8164c0,0.9297,0.1958,1.625,0.5879,2.085
		s0.8545,0.6904,1.3877,0.6904c0.5376,0,0.9946-0.2197,1.3706-0.6602c0.376-0.4395,0.564-1.1104,0.564-2.0127
		c0-0.9932-0.1914-1.7227-0.5742-2.1875s-0.8545-0.6973-1.415-0.6973c-0.5469,0-1.0039,0.2236-1.3706,0.6699
		C60.7448,8.1503,60.5611,8.8545,60.5611,9.8164z"/>
	<path class="st1" d="M72.4966,11.1016l1.2715,0.1572c-0.2007,0.7432-0.5718,1.3193-1.1143,1.7295s-1.2349,0.6152-2.0781,0.6152
		c-1.062,0-1.9038-0.3271-2.5259-0.9805c-0.6221-0.6543-0.9331-1.5713-0.9331-2.752c0-1.2217,0.3145-2.1689,0.9434-2.8438
		s1.4448-1.0117,2.4473-1.0117c0.9707,0,1.7637,0.3301,2.3789,0.9912s0.9229,1.5908,0.9229,2.7891
		c0,0.0732-0.0024,0.1826-0.0068,0.3281h-5.4141c0.0454,0.7979,0.271,1.4082,0.6768,1.832s0.9116,0.6357,1.5176,0.6357
		c0.4512,0,0.8364-0.1182,1.1553-0.3555S72.3096,11.6211,72.4966,11.1016z M68.4566,9.1123h4.0537
		c-0.0547-0.6104-0.2095-1.0684-0.4648-1.374c-0.3921-0.4736-0.8999-0.7109-1.5244-0.7109c-0.5649,0-1.04,0.1895-1.4253,0.5674
		S68.4976,8.4785,68.4566,9.1123z"/>
	<path class="st1" d="M75.2857,13.4395V3.418h1.2305v10.0215H75.2857z"/>
	<path class="st1" d="M77.9654,9.8096c0-1.3447,0.3735-2.3398,1.1211-2.9873c0.6245-0.5381,1.3853-0.8066,2.2832-0.8066
		c0.998,0,1.814,0.3271,2.4473,0.9805c0.6333,0.6543,0.9502,1.5576,0.9502,2.7109c0,0.9346-0.1401,1.6689-0.4204,2.2051
		c-0.2803,0.5352-0.688,0.9512-1.2236,1.2471s-1.1201,0.4443-1.7534,0.4443c-1.0161,0-1.8379-0.3262-2.4644-0.9775
		S77.9654,11.0352,77.9654,9.8096z M79.23,9.8096c0,0.9297,0.2026,1.626,0.6084,2.0889c0.4058,0.4619,0.916,0.6934,1.5313,0.6934
		c0.6108,0,1.1187-0.2324,1.5244-0.6973s0.6084-1.1738,0.6084-2.126c0-0.8975-0.2041-1.5781-0.6118-2.04
		c-0.4077-0.4629-0.915-0.6943-1.521-0.6943c-0.6152,0-1.1255,0.2305-1.5313,0.6904C79.4326,8.1846,79.23,8.8799,79.23,9.8096z"/>
	<path class="st1" d="M95.0689,11.1016l1.2715,0.1572c-0.2007,0.7432-0.5718,1.3193-1.1143,1.7295s-1.2349,0.6152-2.0781,0.6152
		c-1.062,0-1.9038-0.3271-2.5259-0.9805C90,11.9688,89.689,11.0518,89.689,9.8711c0-1.2217,0.3145-2.1689,0.9434-2.8438
		s1.4448-1.0117,2.4473-1.0117c0.9707,0,1.7637,0.3301,2.3789,0.9912s0.9229,1.5908,0.9229,2.7891
		c0,0.0732-0.0024,0.1826-0.0068,0.3281h-5.4141c0.0454,0.7979,0.271,1.4082,0.6768,1.832s0.9116,0.6357,1.5176,0.6357
		c0.4512,0,0.8364-0.1182,1.1553-0.3555S94.8819,11.6211,95.0689,11.1016z M91.0288,9.1123h4.0537
		c-0.0547-0.6104-0.2095-1.0684-0.4648-1.374c-0.3921-0.4736-0.8999-0.7109-1.5244-0.7109c-0.5649,0-1.04,0.1895-1.4253,0.5674
		S91.0699,8.4785,91.0288,9.1123z"/>
	<path class="st1" d="M99.9019,13.4395l-2.7617-7.2598h1.2988l1.5586,4.3477c0.1685,0.4697,0.3237,0.957,0.4648,1.4629
		c0.1094-0.3828,0.2622-0.8428,0.458-1.3809l1.6133-4.4297h1.2646l-2.748,7.2598H99.9019z"/>
	<path class="st1" d="M104.4273,9.8096c0-1.3447,0.3735-2.3398,1.1216-2.9873c0.624-0.5381,1.3848-0.8066,2.2832-0.8066
		c0.998,0,1.8135,0.3271,2.4473,0.9805c0.6328,0.6543,0.9492,1.5576,0.9492,2.7109c0,0.9346-0.1396,1.6689-0.4199,2.2051
		c-0.2803,0.5352-0.6875,0.9512-1.2236,1.2471s-1.1201,0.4443-1.7529,0.4443c-1.0166,0-1.8379-0.3262-2.4648-0.9775
		C104.7408,11.9746,104.4273,11.0352,104.4273,9.8096z M105.6914,9.8096c0,0.9297,0.2031,1.626,0.6094,2.0889
		c0.4053,0.4619,0.916,0.6934,1.5313,0.6934c0.6104,0,1.1182-0.2324,1.5234-0.6973c0.4063-0.4648,0.6094-1.1738,0.6094-2.126
		c0-0.8975-0.2051-1.5781-0.6123-2.04c-0.4072-0.4629-0.915-0.6943-1.5205-0.6943c-0.6152,0-1.126,0.2305-1.5313,0.6904
		C105.8946,8.1846,105.6914,8.8799,105.6914,9.8096z"/>
	<path class="st1" d="M112.6446,13.4395V3.418h1.2305v10.0215H112.6446z"/>
	<path class="st1" d="M120.5391,13.4395V12.373c-0.5645,0.8203-1.332,1.2305-2.3027,1.2305c-0.4287,0-0.8281-0.082-1.2002-0.2461
		s-0.6475-0.3701-0.8271-0.6191c-0.1797-0.248-0.3066-0.5518-0.3789-0.9121c-0.0508-0.2412-0.0762-0.624-0.0762-1.1484v-4.498
		h1.2305v4.0264c0,0.6426,0.0254,1.0752,0.0762,1.2988c0.0771,0.3232,0.2412,0.5771,0.4922,0.7627
		c0.25,0.1836,0.5605,0.2764,0.9297,0.2764s0.7148-0.0947,1.0391-0.2842c0.3232-0.1885,0.5527-0.4463,0.6865-0.7715
		c0.1338-0.3262,0.2021-0.7988,0.2021-1.4189V6.1797h1.2305v7.2598H120.5391z"/>
	<path class="st1" d="M128.3047,10.7803l1.2109,0.1572c-0.1328,0.834-0.4707,1.4863-1.0156,1.959
		c-0.5449,0.4707-1.2129,0.707-2.0059,0.707c-0.9941,0-1.793-0.3242-2.3965-0.9746c-0.6035-0.6484-0.9063-1.5801-0.9063-2.792
		c0-0.7842,0.1309-1.4697,0.3906-2.0576s0.6543-1.0293,1.1855-1.3223c0.5313-0.2949,1.1084-0.4414,1.7324-0.4414
		c0.7891,0,1.4336,0.1992,1.9355,0.5977c0.501,0.3994,0.8223,0.9658,0.9629,1.6992l-1.1953,0.1846
		c-0.1143-0.4873-0.3164-0.8545-0.6055-1.1006s-0.6387-0.3691-1.0488-0.3691c-0.6201,0-1.124,0.2227-1.5117,0.666
		c-0.3867,0.4453-0.5801,1.1475-0.5801,2.1094c0,0.9756,0.1865,1.6836,0.5605,2.126c0.373,0.4424,0.8613,0.6631,1.4629,0.6631
		c0.4824,0,0.8857-0.1484,1.209-0.4443C128.0137,11.8516,128.2188,11.3955,128.3047,10.7803z"/>
	<path class="st1" d="M130.5742,4.833V3.418h1.2305v1.415H130.5742z M130.5742,13.4395V6.1797h1.2305v7.2598H130.5742z"/>
	<path class="st1" d="M133.2207,9.8096c0-1.3447,0.373-2.3398,1.1211-2.9873c0.624-0.5381,1.3848-0.8066,2.2832-0.8066
		c0.998,0,1.8135,0.3271,2.4473,0.9805c0.6328,0.6543,0.9492,1.5576,0.9492,2.7109c0,0.9346-0.1396,1.6689-0.4199,2.2051
		c-0.2803,0.5352-0.6875,0.9512-1.2236,1.2471s-1.1201,0.4443-1.7529,0.4443c-1.0166,0-1.8379-0.3262-2.4648-0.9775
		S133.2207,11.0352,133.2207,9.8096z M134.4844,9.8096c0,0.9297,0.2031,1.626,0.6094,2.0889
		c0.4053,0.4619,0.916,0.6934,1.5313,0.6934c0.6104,0,1.1182-0.2324,1.5234-0.6973c0.4063-0.4648,0.6094-1.1738,0.6094-2.126
		c0-0.8975-0.2051-1.5781-0.6123-2.04c-0.4072-0.4629-0.915-0.6943-1.5205-0.6943c-0.6152,0-1.126,0.2305-1.5313,0.6904
		C134.6875,8.1846,134.4844,8.8799,134.4844,9.8096z M135.9414,5.2773l0.9082-1.9141h1.6133l-1.5039,1.9141H135.9414z"/>
	<path class="st1" d="M141.4649,13.4395V6.1797h1.1074v1.0322c0.5332-0.7979,1.3027-1.1963,2.3105-1.1963
		c0.4375,0,0.8398,0.0781,1.2061,0.2363c0.3662,0.1563,0.6416,0.3633,0.8232,0.6182c0.1826,0.2549,0.3105,0.5586,0.3828,0.9092
		c0.0459,0.2275,0.0684,0.627,0.0684,1.1963v4.4639h-1.2305v-4.416c0-0.501-0.0469-0.876-0.1426-1.125
		c-0.0957-0.248-0.2656-0.4463-0.5098-0.5938c-0.2441-0.1484-0.5293-0.2227-0.8574-0.2227c-0.5244,0-0.9766,0.166-1.3574,0.499
		s-0.5703,0.9639-0.5703,1.8936v3.9648h-1.2304V13.4395z"/>
	<path class="st1" d="M157.8496,13.4395v-0.916c-0.46,0.7197-1.1367,1.0801-2.0293,1.0801c-0.5791,0-1.1113-0.1592-1.5967-0.4785
		s-0.8613-0.7646-1.1279-1.3359c-0.2666-0.5723-0.4004-1.2295-0.4004-1.9727c0-0.7246,0.1211-1.3818,0.3633-1.9727
		c0.2412-0.5898,0.6035-1.042,1.0859-1.3564c0.4834-0.3145,1.0234-0.4717,1.6211-0.4717c0.4375,0,0.8262,0.0918,1.168,0.2773
		c0.3418,0.1836,0.6201,0.4248,0.834,0.7207V3.418h1.2246v10.0215H157.8496z M153.961,9.8164c0,0.9297,0.1953,1.625,0.5879,2.085
		c0.3916,0.46,0.8535,0.6904,1.3867,0.6904c0.5381,0,0.9951-0.2197,1.3711-0.6602c0.376-0.4395,0.5645-1.1104,0.5645-2.0127
		c0-0.9932-0.1914-1.7227-0.5742-2.1875s-0.8555-0.6973-1.416-0.6973c-0.5469,0-1.0039,0.2236-1.3701,0.6699
		C154.1447,8.1503,153.961,8.8545,153.961,9.8164z"/>
	<path class="st1" d="M165.8965,11.1016l1.2715,0.1572c-0.2012,0.7432-0.5723,1.3193-1.1152,1.7295
		c-0.542,0.4102-1.2344,0.6152-2.0781,0.6152c-1.0615,0-1.9033-0.3271-2.5254-0.9805c-0.6221-0.6543-0.9336-1.5713-0.9336-2.752
		c0-1.2217,0.3145-2.1689,0.9434-2.8438s1.4453-1.0117,2.4473-1.0117c0.9707,0,1.7637,0.3301,2.3789,0.9912
		s0.9238,1.5908,0.9238,2.7891c0,0.0732-0.0029,0.1826-0.0078,0.3281h-5.4141c0.0459,0.7979,0.2715,1.4082,0.6777,1.832
		c0.4053,0.4238,0.9111,0.6357,1.5176,0.6357c0.4512,0,0.8359-0.1182,1.1543-0.3555
		C165.4561,11.999,165.709,11.6211,165.8965,11.1016z M161.8555,9.1123h4.0547c-0.0547-0.6104-0.21-1.0684-0.4648-1.374
		c-0.3926-0.4736-0.9004-0.7109-1.5254-0.7109c-0.5645,0-1.0391,0.1895-1.4248,0.5674S161.8965,8.4785,161.8555,9.1123z"/>
	<path class="st1" d="M40.2925,30.2217v-10.042h1.1211v0.9434c0.2642-0.3691,0.563-0.6465,0.8955-0.8301
		c0.3325-0.1855,0.7358-0.2773,1.21-0.2773c0.6196,0,1.1665,0.1592,1.6406,0.4785s0.8315,0.7695,1.0732,1.3496
		c0.2417,0.582,0.3623,1.2188,0.3623,1.9111c0,0.7432-0.1333,1.4111-0.3999,2.0068c-0.2666,0.5938-0.6538,1.0498-1.1621,1.3672
		c-0.5083,0.3164-1.0425,0.4746-1.603,0.4746c-0.4102,0-0.7783-0.0869-1.104-0.2598s-0.5938-0.3916-0.8032-0.6563v3.5342
		L40.2925,30.2217L40.2925,30.2217z M41.4068,23.8506c0,0.9346,0.189,1.625,0.5674,2.0713s0.8364,0.6699,1.374,0.6699
		c0.5469,0,1.0151-0.2314,1.4048-0.6934c0.3896-0.4629,0.5845-1.1797,0.5845-2.1504c0-0.9248-0.1904-1.6182-0.5708-2.0781
		s-0.835-0.6904-1.3638-0.6904c-0.5239,0-0.9878,0.2451-1.3911,0.7354C41.6084,22.2041,41.4068,22.916,41.4068,23.8506z"/>
	<path class="st1" d="M48.065,27.4395v-7.2598h1.1074v1.1006c0.2827-0.5146,0.5435-0.8545,0.7827-1.0186
		s0.5024-0.2461,0.7896-0.2461c0.4146,0,0.8364,0.1318,1.2646,0.3965l-0.4238,1.1416c-0.3008-0.1777-0.6016-0.2666-0.9023-0.2666
		c-0.269,0-0.5103,0.0811-0.7246,0.2422c-0.2144,0.1621-0.3667,0.3867-0.458,0.6738c-0.1367,0.4375-0.2051,0.916-0.2051,1.4355
		v3.8008H48.065V27.4395z"/>
	<path class="st1" d="M52.2827,23.8096c0-1.3447,0.3735-2.3398,1.1211-2.9873c0.6245-0.5381,1.3853-0.8066,2.2832-0.8066
		c0.998,0,1.814,0.3271,2.4473,0.9805c0.6333,0.6543,0.9502,1.5576,0.9502,2.7109c0,0.9346-0.1401,1.6689-0.4204,2.2051
		c-0.2803,0.5352-0.688,0.9512-1.2236,1.2471s-1.1201,0.4443-1.7534,0.4443c-1.0161,0-1.8379-0.3262-2.4644-0.9775
		S52.2827,25.0352,52.2827,23.8096z M53.5474,23.8096c0,0.9297,0.2026,1.626,0.6084,2.0889
		c0.4058,0.4619,0.916,0.6934,1.5313,0.6934c0.6108,0,1.1187-0.2324,1.5244-0.6973s0.6084-1.1738,0.6084-2.126
		c0-0.8975-0.2041-1.5781-0.6118-2.04c-0.4077-0.4629-0.915-0.6943-1.521-0.6943c-0.6152,0-1.1255,0.2305-1.5313,0.6904
		S53.5474,22.8799,53.5474,23.8096z"/>
	<path class="st1" d="M63.2134,26.3389l0.1777,1.0869c-0.3462,0.0732-0.6563,0.1094-0.9297,0.1094
		c-0.4468,0-0.793-0.0703-1.0391-0.2119s-0.4194-0.3271-0.5195-0.5576c-0.1001-0.2295-0.1504-0.7139-0.1504-1.4521v-4.1768h-0.9023
		v-0.957h0.9023v-1.7979l1.2236-0.7383v2.5361h1.2373v0.957H61.976v4.2451c0,0.3506,0.0215,0.5762,0.0649,0.6768
		s0.1138,0.1797,0.2119,0.2393s0.2383,0.0889,0.4204,0.0889C62.8101,26.3867,62.9903,26.3711,63.2134,26.3389z"/>
	<path class="st1" d="M63.9585,23.8096c0-1.3447,0.3735-2.3398,1.1211-2.9873c0.6245-0.5381,1.3853-0.8066,2.2832-0.8066
		c0.998,0,1.814,0.3271,2.4473,0.9805c0.6333,0.6543,0.9502,1.5576,0.9502,2.7109c0,0.9346-0.1401,1.6689-0.4204,2.2051
		c-0.2803,0.5352-0.688,0.9512-1.2236,1.2471s-1.1201,0.4443-1.7534,0.4443c-1.0161,0-1.8379-0.3262-2.4644-0.9775
		S63.9585,25.0352,63.9585,23.8096z M65.2232,23.8096c0,0.9297,0.2026,1.626,0.6084,2.0889
		c0.4058,0.4619,0.916,0.6934,1.5313,0.6934c0.6108,0,1.1187-0.2324,1.5244-0.6973s0.6084-1.1738,0.6084-2.126
		c0-0.8975-0.2041-1.5781-0.6118-2.04c-0.4077-0.4629-0.915-0.6943-1.521-0.6943c-0.6152,0-1.1255,0.2305-1.5313,0.6904
		S65.2232,22.8799,65.2232,23.8096z"/>
	<path class="st1" d="M74.8892,26.3389l0.1777,1.0869c-0.3462,0.0732-0.6563,0.1094-0.9297,0.1094
		c-0.4468,0-0.793-0.0703-1.0391-0.2119s-0.4194-0.3271-0.5195-0.5576c-0.1001-0.2295-0.1504-0.7139-0.1504-1.4521v-4.1768h-0.9023
		v-0.957h0.9023v-1.7979l1.2236-0.7383v2.5361h1.2373v0.957h-1.2373v4.2451c0,0.3506,0.0215,0.5762,0.0649,0.6768
		s0.1138,0.1797,0.2119,0.2393s0.2383,0.0889,0.4204,0.0889C74.4859,26.3867,74.666,26.3711,74.8892,26.3389z"/>
	<path class="st1" d="M76.0992,18.833v-1.415h1.2305v1.415H76.0992z M76.0992,27.4395v-7.2598h1.2305v7.2598H76.0992z"/>
	<path class="st1" d="M79.2027,30.2217v-10.042h1.1211v0.9434c0.2642-0.3691,0.563-0.6465,0.8955-0.8301
		c0.3325-0.1855,0.7358-0.2773,1.21-0.2773c0.6196,0,1.1665,0.1592,1.6406,0.4785s0.8315,0.7695,1.0732,1.3496
		c0.2417,0.582,0.3623,1.2188,0.3623,1.9111c0,0.7432-0.1333,1.4111-0.3999,2.0068c-0.2666,0.5938-0.6538,1.0498-1.1621,1.3672
		c-0.5083,0.3164-1.0425,0.4746-1.603,0.4746c-0.4102,0-0.7783-0.0869-1.104-0.2598s-0.5938-0.3916-0.8032-0.6563v3.5342
		L79.2027,30.2217L79.2027,30.2217z M80.3169,23.8506c0,0.9346,0.189,1.625,0.5674,2.0713s0.8364,0.6699,1.374,0.6699
		c0.5469,0,1.0151-0.2314,1.4048-0.6934c0.3896-0.4629,0.5845-1.1797,0.5845-2.1504c0-0.9248-0.1904-1.6182-0.5708-2.0781
		s-0.835-0.6904-1.3638-0.6904c-0.5239,0-0.9878,0.2451-1.3911,0.7354C80.5186,22.2041,80.3169,22.916,80.3169,23.8506z"/>
	<path class="st1" d="M86.5308,23.8096c0-1.3447,0.3735-2.3398,1.1211-2.9873c0.6245-0.5381,1.3853-0.8066,2.2832-0.8066
		c0.998,0,1.814,0.3271,2.4473,0.9805c0.6333,0.6543,0.9502,1.5576,0.9502,2.7109c0,0.9346-0.1401,1.6689-0.4204,2.2051
		c-0.2803,0.5352-0.688,0.9512-1.2236,1.2471s-1.1201,0.4443-1.7534,0.4443c-1.0161,0-1.8379-0.3262-2.4644-0.9775
		S86.5308,25.0352,86.5308,23.8096z M87.7954,23.8096c0,0.9297,0.2026,1.626,0.6084,2.0889
		c0.4058,0.4619,0.916,0.6934,1.5313,0.6934c0.6108,0,1.1187-0.2324,1.5244-0.6973s0.6084-1.1738,0.6084-2.126
		c0-0.8975-0.2041-1.5781-0.6118-2.04c-0.4077-0.4629-0.915-0.6943-1.521-0.6943c-0.6152,0-1.1255,0.2305-1.5313,0.6904
		S87.7954,22.8799,87.7954,23.8096z"/>
	<path class="st1" d="M94.2827,25.2725l1.2168-0.1914c0.0684,0.4873,0.2588,0.8613,0.5708,1.1211s0.7485,0.3896,1.3091,0.3896
		c0.5649,0,0.9844-0.1152,1.2578-0.3457c0.2734-0.2295,0.4102-0.5,0.4102-0.8096c0-0.2783-0.1206-0.4971-0.3623-0.6563
		c-0.1685-0.1094-0.5879-0.248-1.2578-0.417c-0.9023-0.2275-1.5278-0.4248-1.8765-0.5918c-0.3486-0.166-0.6128-0.3965-0.793-0.6895
		c-0.1802-0.2949-0.27-0.6191-0.27-0.9746c0-0.3232,0.0742-0.623,0.2222-0.8984c0.1479-0.2764,0.3496-0.5049,0.605-0.6875
		c0.1914-0.1416,0.4521-0.2607,0.7827-0.3594c0.3306-0.0977,0.6846-0.1465,1.063-0.1465c0.5698,0,1.0698,0.082,1.5005,0.2461
		s0.7485,0.3867,0.9536,0.666c0.2051,0.2813,0.3462,0.6553,0.4238,1.125l-1.2031,0.1641c-0.0547-0.374-0.2129-0.665-0.4751-0.875
		s-0.6323-0.3145-1.1108-0.3145c-0.5649,0-0.9683,0.0938-1.21,0.2803s-0.3623,0.4053-0.3623,0.6563
		c0,0.1592,0.0503,0.3027,0.1504,0.4307c0.1001,0.1318,0.2573,0.2412,0.4717,0.3281c0.123,0.0459,0.4854,0.1504,1.0869,0.3145
		c0.8706,0.2324,1.4775,0.4229,1.8218,0.5703c0.3442,0.1484,0.6143,0.3643,0.8101,0.6465s0.2939,0.6338,0.2939,1.0527
		c0,0.4102-0.1196,0.7969-0.3589,1.1582c-0.2393,0.3633-0.5845,0.6426-1.0356,0.8418c-0.4512,0.1973-0.9614,0.2969-1.5313,0.2969
		c-0.9434,0-1.6621-0.1963-2.1567-0.5879S94.4195,26.043,94.2827,25.2725z"/>
</g>
</svg>
