<?xml version="1.0" encoding="utf-8"?>
<!-- Generator: Adobe Illustrator 21.0.0, SVG Export Plug-In . SVG Version: 6.00 Build 0)  -->
<svg version="1.1" id="Capa_1" xmlns="http://www.w3.org/2000/svg" xmlns:xlink="http://www.w3.org/1999/xlink" x="0px" y="0px"
	 viewBox="0 0 205.6377 35" style="enable-background:new 0 0 205.6377 35;" xml:space="preserve">
<style type="text/css">
	.st0{fill:#42210B;}
	.st1{fill:#42210B;stroke:#42210B;stroke-miterlimit:10;}
</style>
<g>
	<polygon id="XMLID_3_" class="st0" points="18.0088,6.2637 19.3877,10.9365 24.5186,11.0137 20.5362,13.8486 21.9912,18.6719 
		18.0879,15.7637 13.9512,18.6719 15.4815,14.0791 11.4248,11.0137 16.3242,11.0908 	"/>
	<path class="st1" d="M22.9077,19.9785l-4.8281-3.5977l-5.0825,3.5732l1.8965-5.6924l-4.9917-3.7725l6.0693,0.0957l2.0776-5.9531
		l1.7144,5.8105l6.2876,0.0947l-4.9321,3.5107L22.9077,19.9785z M12.9478,11.5381l3.1216,2.3584l-1.1641,3.4932l3.1909-2.2432
		l2.9785,2.2188l-1.1211-3.7158l3.0327-2.1592l-3.9741-0.0596l-1.0435-3.5352l-1.2915,3.7012L12.9478,11.5381z"/>
</g>
<rect x="1" y="33.5" class="st0" width="205.6377" height="1"/>
<g>
	<path class="st0" d="M39.606,14.1094V4.0879h1.9961l2.3721,7.0957c0.2188,0.6611,0.3784,1.1553,0.4785,1.4834
		c0.1138-0.3643,0.2915-0.9004,0.5332-1.6064l2.3994-6.9727h1.7842v10.0215h-1.2783V5.7217l-2.9121,8.3877h-1.1963l-2.8984-8.5313
		v8.5313H39.606z"/>
	<path class="st0" d="M50.6939,10.4795c0-1.3447,0.3735-2.3398,1.1211-2.9873c0.6245-0.5381,1.3853-0.8066,2.2832-0.8066
		c0.998,0,1.814,0.3271,2.4473,0.9805c0.6333,0.6543,0.9502,1.5576,0.9502,2.7109c0,0.9346-0.1401,1.6689-0.4204,2.2051
		c-0.2803,0.5352-0.688,0.9512-1.2236,1.2471s-1.1201,0.4443-1.7534,0.4443c-1.0161,0-1.8379-0.3262-2.4644-0.9775
		S50.6939,11.7051,50.6939,10.4795z M51.9585,10.4795c0,0.9297,0.2026,1.626,0.6084,2.0889
		c0.4058,0.4619,0.916,0.6934,1.5313,0.6934c0.6108,0,1.1187-0.2324,1.5244-0.6973s0.6084-1.1738,0.6084-2.126
		c0-0.8975-0.2041-1.5781-0.6118-2.04c-0.4077-0.4629-0.915-0.6943-1.521-0.6943c-0.6152,0-1.1255,0.2305-1.5313,0.6904
		C52.1611,8.8545,51.9585,9.5498,51.9585,10.4795z"/>
	<path class="st0" d="M63.648,14.1094v-0.916c-0.4604,0.7197-1.1372,1.0801-2.0303,1.0801c-0.5786,0-1.1108-0.1592-1.5962-0.4785
		s-0.8613-0.7646-1.1279-1.3359c-0.2666-0.5723-0.3999-1.2295-0.3999-1.9727c0-0.7246,0.1206-1.3818,0.3623-1.9727
		c0.2417-0.5898,0.604-1.042,1.0869-1.3564s1.0229-0.4717,1.6201-0.4717c0.4375,0,0.8271,0.0918,1.1689,0.2773
		c0.3418,0.1836,0.6196,0.4248,0.834,0.7207V4.0879h1.2236v10.0215H63.648z M59.7583,10.4863c0,0.9297,0.1958,1.625,0.5879,2.085
		s0.8545,0.6904,1.3877,0.6904c0.5376,0,0.9946-0.2197,1.3706-0.6602c0.376-0.4395,0.564-1.1104,0.564-2.0127
		c0-0.9932-0.1914-1.7227-0.5742-2.1875s-0.8545-0.6973-1.415-0.6973c-0.5469,0-1.0039,0.2236-1.3706,0.6699
		C59.942,8.8202,59.7583,9.5244,59.7583,10.4863z"/>
	<path class="st0" d="M71.6939,11.7715l1.2715,0.1572c-0.2007,0.7432-0.5718,1.3193-1.1143,1.7295s-1.2349,0.6152-2.0781,0.6152
		c-1.062,0-1.9038-0.3271-2.5259-0.9805c-0.6221-0.6543-0.9331-1.5713-0.9331-2.752c0-1.2217,0.3145-2.1689,0.9434-2.8438
		s1.4448-1.0117,2.4473-1.0117c0.9707,0,1.7637,0.3301,2.3789,0.9912s0.9229,1.5908,0.9229,2.7891
		c0,0.0732-0.0024,0.1826-0.0068,0.3281h-5.4141c0.0454,0.7979,0.271,1.4082,0.6768,1.832s0.9116,0.6357,1.5176,0.6357
		c0.4512,0,0.8364-0.1182,1.1553-0.3555S71.5069,12.291,71.6939,11.7715z M67.6538,9.7822h4.0537
		c-0.0547-0.6104-0.2095-1.0684-0.4648-1.374c-0.3921-0.4736-0.8999-0.7109-1.5244-0.7109c-0.5649,0-1.04,0.1895-1.4253,0.5674
		C67.9077,8.6426,67.6949,9.1484,67.6538,9.7822z"/>
	<path class="st0" d="M74.4829,14.1094V4.0879h1.2305v10.0215H74.4829z"/>
	<path class="st0" d="M77.1626,10.4795c0-1.3447,0.3735-2.3398,1.1211-2.9873c0.6245-0.5381,1.3853-0.8066,2.2832-0.8066
		c0.998,0,1.814,0.3271,2.4473,0.9805c0.6333,0.6543,0.9502,1.5576,0.9502,2.7109c0,0.9346-0.1401,1.6689-0.4204,2.2051
		c-0.2803,0.5352-0.688,0.9512-1.2236,1.2471s-1.1201,0.4443-1.7534,0.4443c-1.0161,0-1.8379-0.3262-2.4644-0.9775
		S77.1626,11.7051,77.1626,10.4795z M78.4273,10.4795c0,0.9297,0.2026,1.626,0.6084,2.0889
		c0.4058,0.4619,0.916,0.6934,1.5313,0.6934c0.6108,0,1.1187-0.2324,1.5244-0.6973s0.6084-1.1738,0.6084-2.126
		c0-0.8975-0.2041-1.5781-0.6118-2.04c-0.4077-0.4629-0.915-0.6943-1.521-0.6943c-0.6152,0-1.1255,0.2305-1.5313,0.6904
		C78.6299,8.8545,78.4273,9.5498,78.4273,10.4795z"/>
	<path class="st0" d="M90.4312,14.1094h-1.1416V4.0879h1.2305v3.5752c0.5195-0.6514,1.1826-0.9775,1.9893-0.9775
		c0.4468,0,0.8691,0.0898,1.2681,0.2695c0.3989,0.1807,0.7271,0.4336,0.9844,0.7598c0.2573,0.3252,0.459,0.7188,0.605,1.1787
		s0.2188,0.9521,0.2188,1.4766c0,1.2441-0.3076,2.2061-0.9229,2.8848s-1.3535,1.0186-2.2148,1.0186
		c-0.8569,0-1.5288-0.3574-2.0166-1.0732v0.909H90.4312z M90.4175,10.4248c0,0.8701,0.1187,1.499,0.3555,1.8867
		c0.3872,0.6338,0.9116,0.9502,1.5723,0.9502c0.5376,0,1.0024-0.2334,1.3945-0.7012c0.3921-0.4668,0.5879-1.1631,0.5879-2.0879
		c0-0.9482-0.188-1.6475-0.564-2.0986s-0.8306-0.6768-1.3638-0.6768c-0.5376,0-1.0024,0.2334-1.3945,0.7012
		C90.6133,8.8652,90.4175,9.541,90.4175,10.4248z"/>
	<path class="st0" d="M101.8199,13.2139c-0.4556,0.3877-0.8945,0.6611-1.3159,0.8203s-0.874,0.2393-1.3569,0.2393
		c-0.7974,0-1.4106-0.1953-1.8389-0.584c-0.4282-0.3906-0.6426-0.8877-0.6426-1.4941c0-0.3555,0.0811-0.6797,0.2427-0.9746
		c0.1616-0.293,0.3735-0.5293,0.6357-0.707s0.5571-0.3125,0.8853-0.4033c0.2417-0.0635,0.606-0.125,1.0938-0.1846
		c0.9937-0.1182,1.7251-0.2598,2.1943-0.4238c0.0044-0.1689,0.0068-0.2754,0.0068-0.3213c0-0.501-0.1162-0.8545-0.3486-1.0596
		c-0.3145-0.2783-0.7817-0.417-1.4014-0.417c-0.5786,0-1.0059,0.1016-1.2817,0.3037C98.4166,8.211,98.213,8.5704,98.0807,9.085
		l-1.2031-0.1641c0.1094-0.5146,0.2896-0.9307,0.54-1.2471c0.2505-0.3174,0.6128-0.5605,1.0869-0.7324
		c0.4741-0.1699,1.0229-0.2559,1.6475-0.2559c0.6196,0,1.1235,0.0732,1.5107,0.2188s0.6724,0.3291,0.8545,0.5508
		c0.1821,0.2207,0.3101,0.5,0.3828,0.8369c0.041,0.21,0.0615,0.5879,0.0615,1.1348v1.6406c0,1.1436,0.0264,1.8672,0.0786,2.1709
		c0.0522,0.3027,0.1563,0.5928,0.311,0.8711h-1.2852C101.9385,13.8545,101.8565,13.5557,101.8199,13.2139z M101.7173,10.4658
		c-0.4468,0.1826-1.1167,0.3369-2.0098,0.4648c-0.5059,0.0732-0.8638,0.1553-1.0732,0.2461s-0.3716,0.2246-0.4854,0.3994
		c-0.1138,0.1758-0.1709,0.3711-0.1709,0.585c0,0.3281,0.124,0.6016,0.3726,0.8203s0.6118,0.3281,1.0903,0.3281
		c0.4741,0,0.8955-0.1035,1.2646-0.3115c0.3691-0.207,0.6401-0.4902,0.8135-0.8506c0.1323-0.2783,0.1982-0.6885,0.1982-1.2305
		L101.7173,10.4658L101.7173,10.4658z"/>
	<path class="st0" d="M104.3765,11.9424l1.2173-0.1914c0.0684,0.4873,0.2578,0.8613,0.5703,1.1211s0.748,0.3896,1.3086,0.3896
		c0.5654,0,0.9844-0.1152,1.2578-0.3457c0.2734-0.2295,0.4102-0.5,0.4102-0.8096c0-0.2783-0.1201-0.4971-0.3613-0.6563
		c-0.1689-0.1094-0.5879-0.248-1.2578-0.417c-0.9023-0.2275-1.5283-0.4248-1.877-0.5918c-0.3486-0.166-0.6133-0.3965-0.793-0.6895
		c-0.1802-0.2949-0.27-0.6191-0.27-0.9746c0-0.3232,0.0742-0.623,0.2222-0.8984c0.1479-0.2764,0.3496-0.5049,0.6045-0.6875
		c0.1914-0.1416,0.4531-0.2607,0.7832-0.3594c0.3301-0.0977,0.6846-0.1465,1.0625-0.1465c0.5703,0,1.0703,0.082,1.501,0.2461
		s0.749,0.3867,0.9541,0.666c0.2051,0.2813,0.3457,0.6553,0.4238,1.125l-1.2031,0.1641c-0.0547-0.374-0.2129-0.665-0.4756-0.875
		s-0.6318-0.3145-1.1104-0.3145c-0.5654,0-0.9688,0.0938-1.2109,0.2803c-0.2412,0.1865-0.3613,0.4053-0.3613,0.6563
		c0,0.1592,0.0498,0.3027,0.1504,0.4307c0.0996,0.1318,0.2568,0.2412,0.4707,0.3281c0.123,0.0459,0.4863,0.1504,1.0879,0.3145
		c0.8701,0.2324,1.4766,0.4229,1.8213,0.5703c0.3447,0.1484,0.6143,0.3643,0.8096,0.6465c0.1963,0.2822,0.2949,0.6338,0.2949,1.0527
		c0,0.4102-0.1201,0.7969-0.3594,1.1582c-0.2393,0.3633-0.584,0.6426-1.0352,0.8418c-0.4512,0.1973-0.9619,0.2969-1.5313,0.2969
		c-0.9434,0-1.6621-0.1963-2.1572-0.5879C104.8286,13.2939,104.5132,12.7129,104.3765,11.9424z"/>
	<path class="st0" d="M116.6055,13.2139c-0.4551,0.3877-0.8945,0.6611-1.3154,0.8203s-0.874,0.2393-1.3564,0.2393
		c-0.7979,0-1.4111-0.1953-1.8398-0.584c-0.4277-0.3906-0.6426-0.8877-0.6426-1.4941c0-0.3555,0.082-0.6797,0.2432-0.9746
		c0.1611-0.293,0.374-0.5293,0.6357-0.707s0.5566-0.3125,0.8848-0.4033c0.2422-0.0635,0.6064-0.125,1.0938-0.1846
		c0.9941-0.1182,1.7256-0.2598,2.1953-0.4238c0.0039-0.1689,0.0059-0.2754,0.0059-0.3213c0-0.501-0.1152-0.8545-0.3477-1.0596
		c-0.3145-0.2783-0.7822-0.417-1.4023-0.417c-0.5781,0-1.0059,0.1016-1.2813,0.3037c-0.2754,0.2031-0.4795,0.5625-0.6113,1.0771
		l-1.2031-0.1641c0.1094-0.5146,0.2891-0.9307,0.5391-1.2471c0.251-0.3174,0.6133-0.5605,1.0879-0.7324
		c0.4736-0.1699,1.0225-0.2559,1.6465-0.2559c0.6201,0,1.124,0.0732,1.5117,0.2188c0.3867,0.1455,0.6719,0.3291,0.8535,0.5508
		c0.1826,0.2207,0.3105,0.5,0.3828,0.8369c0.041,0.21,0.0625,0.5879,0.0625,1.1348v1.6406c0,1.1436,0.0254,1.8672,0.0781,2.1709
		c0.0527,0.3027,0.1563,0.5928,0.3105,0.8711h-1.2852C116.7246,13.8545,116.6426,13.5557,116.6055,13.2139z M116.5039,10.4658
		c-0.4473,0.1826-1.1172,0.3369-2.0098,0.4648c-0.5059,0.0732-0.8643,0.1553-1.0742,0.2461
		c-0.209,0.0908-0.3711,0.2246-0.4844,0.3994c-0.1143,0.1758-0.1719,0.3711-0.1719,0.585c0,0.3281,0.125,0.6016,0.373,0.8203
		s0.6113,0.3281,1.0898,0.3281c0.4746,0,0.8965-0.1035,1.2656-0.3115c0.3691-0.207,0.6396-0.4902,0.8125-0.8506
		c0.1328-0.2783,0.1992-0.6885,0.1992-1.2305v-0.4511H116.5039z"/>
	<path class="st0" d="M124.3653,14.1094v-0.916c-0.4609,0.7197-1.1377,1.0801-2.0313,1.0801c-0.5781,0-1.1104-0.1592-1.5957-0.4785
		s-0.8613-0.7646-1.1279-1.3359c-0.2666-0.5723-0.3994-1.2295-0.3994-1.9727c0-0.7246,0.1201-1.3818,0.3613-1.9727
		c0.2422-0.5898,0.6045-1.042,1.0879-1.3564c0.4824-0.3145,1.0225-0.4717,1.6191-0.4717c0.4375,0,0.8281,0.0918,1.1699,0.2773
		c0.3418,0.1836,0.6191,0.4248,0.834,0.7207V4.0879h1.2227v10.0215H124.3653z M120.4746,10.4863c0,0.9297,0.1963,1.625,0.5879,2.085
		c0.3926,0.46,0.8555,0.6904,1.3887,0.6904c0.5371,0,0.9941-0.2197,1.3701-0.6602c0.376-0.4395,0.5635-1.1104,0.5635-2.0127
		c0-0.9932-0.1914-1.7227-0.5742-2.1875s-0.8535-0.6973-1.4141-0.6973c-0.5469,0-1.0039,0.2236-1.3711,0.6699
		C120.6582,8.8202,120.4746,9.5244,120.4746,10.4863z"/>
	<path class="st0" d="M126.9825,10.4795c0-1.3447,0.374-2.3398,1.1211-2.9873c0.625-0.5381,1.3857-0.8066,2.2832-0.8066
		c0.998,0,1.8145,0.3271,2.4473,0.9805c0.6338,0.6543,0.9512,1.5576,0.9512,2.7109c0,0.9346-0.1406,1.6689-0.4209,2.2051
		c-0.2803,0.5352-0.6885,0.9512-1.2236,1.2471s-1.1201,0.4443-1.7539,0.4443c-1.0156,0-1.8379-0.3262-2.4639-0.9775
		S126.9825,11.7051,126.9825,10.4795z M128.2481,10.4795c0,0.9297,0.2021,1.626,0.6074,2.0889
		c0.4063,0.4619,0.916,0.6934,1.5313,0.6934c0.6113,0,1.1191-0.2324,1.5254-0.6973c0.4053-0.4648,0.6074-1.1738,0.6074-2.126
		c0-0.8975-0.2031-1.5781-0.6113-2.04c-0.4082-0.4629-0.915-0.6943-1.5215-0.6943c-0.6152,0-1.125,0.2305-1.5313,0.6904
		C128.4502,8.8545,128.2481,9.5498,128.2481,10.4795z"/>
	<path class="st0" d="M44.4595,25.7715l1.2715,0.1572c-0.2007,0.7432-0.5718,1.3193-1.1143,1.7295s-1.2349,0.6152-2.0781,0.6152
		c-1.062,0-1.9038-0.3271-2.5259-0.9805c-0.6221-0.6543-0.9331-1.5713-0.9331-2.752c0-1.2217,0.3145-2.1689,0.9434-2.8438
		s1.4448-1.0117,2.4473-1.0117c0.9707,0,1.7637,0.3301,2.3789,0.9912s0.9229,1.5908,0.9229,2.7891
		c0,0.0732-0.0024,0.1826-0.0068,0.3281h-5.4141c0.0454,0.7979,0.271,1.4082,0.6768,1.832s0.9116,0.6357,1.5176,0.6357
		c0.4512,0,0.8364-0.1182,1.1553-0.3555S44.2725,26.291,44.4595,25.7715z M40.4195,23.7822h4.0537
		c-0.0547-0.6104-0.2095-1.0684-0.4648-1.374c-0.3921-0.4736-0.8999-0.7109-1.5244-0.7109c-0.5649,0-1.04,0.1895-1.4253,0.5674
		S40.4605,23.1484,40.4195,23.7822z"/>
	<path class="st0" d="M47.2759,28.1094v-7.2598h1.1074v1.0322c0.5332-0.7979,1.3032-1.1963,2.3105-1.1963
		c0.4375,0,0.8398,0.0781,1.2065,0.2363c0.3667,0.1563,0.6416,0.3633,0.8237,0.6182s0.3101,0.5586,0.3828,0.9092
		c0.0454,0.2275,0.0684,0.627,0.0684,1.1963v4.4639h-1.2305v-4.416c0-0.501-0.0479-0.876-0.1436-1.125
		c-0.0957-0.248-0.2656-0.4463-0.5093-0.5938c-0.2437-0.1484-0.5298-0.2227-0.8579-0.2227c-0.5239,0-0.9766,0.166-1.3569,0.499
		s-0.5708,0.9639-0.5708,1.8936v3.9648L47.2759,28.1094L47.2759,28.1094z"/>
	<path class="st0" d="M63.689,25.4502l1.21,0.1572c-0.1323,0.834-0.4707,1.4863-1.0151,1.959
		c-0.5444,0.4707-1.2134,0.707-2.0063,0.707c-0.9937,0-1.792-0.3242-2.396-0.9746c-0.604-0.6484-0.9058-1.5801-0.9058-2.792
		c0-0.7842,0.1299-1.4697,0.3896-2.0576s0.6553-1.0293,1.186-1.3223c0.5308-0.2949,1.1084-0.4414,1.7329-0.4414
		c0.7886,0,1.4331,0.1992,1.9346,0.5977c0.5015,0.3994,0.8228,0.9658,0.9639,1.6992l-1.1963,0.1846
		c-0.1138-0.4873-0.3154-0.8545-0.605-1.1006s-0.6392-0.3691-1.0493-0.3691c-0.6196,0-1.1235,0.2227-1.5107,0.666
		c-0.3872,0.4453-0.5811,1.1475-0.5811,2.1094c0,0.9756,0.187,1.6836,0.5605,2.126s0.8613,0.6631,1.4629,0.6631
		c0.4829,0,0.8862-0.1484,1.21-0.4443S63.6026,26.0654,63.689,25.4502z"/>
	<path class="st0" d="M65.4937,24.4795c0-1.3447,0.3735-2.3398,1.1211-2.9873c0.6245-0.5381,1.3853-0.8066,2.2832-0.8066
		c0.998,0,1.814,0.3271,2.4473,0.9805c0.6333,0.6543,0.9502,1.5576,0.9502,2.7109c0,0.9346-0.1401,1.6689-0.4204,2.2051
		c-0.2803,0.5352-0.688,0.9512-1.2236,1.2471s-1.1201,0.4443-1.7534,0.4443c-1.0161,0-1.8379-0.3262-2.4644-0.9775
		S65.4937,25.7051,65.4937,24.4795z M66.7583,24.4795c0,0.9297,0.2026,1.626,0.6084,2.0889
		c0.4058,0.4619,0.916,0.6934,1.5313,0.6934c0.6108,0,1.1187-0.2324,1.5244-0.6973s0.6084-1.1738,0.6084-2.126
		c0-0.8975-0.2041-1.5781-0.6118-2.04c-0.4077-0.4629-0.915-0.6943-1.521-0.6943c-0.6152,0-1.1255,0.2305-1.5313,0.6904
		S66.7583,23.5498,66.7583,24.4795z"/>
	<path class="st0" d="M73.7378,28.1094v-7.2598h1.1006v1.0186c0.228-0.3555,0.5308-0.6416,0.9092-0.8584
		c0.3784-0.2158,0.8091-0.3242,1.292-0.3242c0.5376,0,0.9785,0.1113,1.3228,0.335s0.5869,0.5352,0.728,0.9365
		c0.5742-0.8477,1.3218-1.2715,2.2422-1.2715c0.7202,0,1.2739,0.1992,1.6611,0.5977c0.3872,0.3994,0.5811,1.0137,0.5811,1.8428
		v4.9834h-1.2236v-4.5732c0-0.4922-0.04-0.8467-0.1196-1.0635c-0.0796-0.2158-0.2246-0.3906-0.4341-0.5225
		s-0.4556-0.1982-0.7383-0.1982c-0.5103,0-0.9341,0.1699-1.2715,0.5098c-0.3374,0.3389-0.5059,0.8828-0.5059,1.6299v4.2178h-1.2305
		v-4.7168c0-0.5469-0.1001-0.957-0.3008-1.2305s-0.5288-0.4102-0.9844-0.4102c-0.3462,0-0.6665,0.0908-0.9604,0.2734
		s-0.5068,0.4492-0.6392,0.7998s-0.1982,0.8564-0.1982,1.5176v3.7666h-1.2305V28.1094z"/>
	<path class="st0" d="M85.3999,30.8916v-10.042h1.1211v0.9434c0.2642-0.3691,0.563-0.6465,0.8955-0.8301
		c0.3325-0.1855,0.7358-0.2773,1.21-0.2773c0.6196,0,1.1665,0.1592,1.6406,0.4785s0.8315,0.7695,1.0732,1.3496
		c0.2417,0.582,0.3623,1.2188,0.3623,1.9111c0,0.7432-0.1333,1.4111-0.3999,2.0068c-0.2666,0.5938-0.6538,1.0498-1.1621,1.3672
		c-0.5083,0.3164-1.0425,0.4746-1.603,0.4746c-0.4102,0-0.7783-0.0869-1.104-0.2598s-0.5938-0.3916-0.8032-0.6563v3.5342
		L85.3999,30.8916L85.3999,30.8916z M86.5142,24.5205c0,0.9346,0.189,1.625,0.5674,2.0713s0.8364,0.6699,1.374,0.6699
		c0.5469,0,1.0151-0.2314,1.4048-0.6934c0.3896-0.4629,0.5845-1.1797,0.5845-2.1504c0-0.9248-0.1904-1.6182-0.5708-2.0781
		s-0.835-0.6904-1.3638-0.6904c-0.5239,0-0.9878,0.2451-1.3911,0.7354C86.7159,22.874,86.5142,23.5859,86.5142,24.5205z"/>
	<path class="st0" d="M92.7281,24.4795c0-1.3447,0.3735-2.3398,1.1211-2.9873c0.6245-0.5381,1.3853-0.8066,2.2832-0.8066
		c0.998,0,1.814,0.3271,2.4473,0.9805c0.6333,0.6543,0.9502,1.5576,0.9502,2.7109c0,0.9346-0.1401,1.6689-0.4204,2.2051
		c-0.2803,0.5352-0.688,0.9512-1.2236,1.2471s-1.1201,0.4443-1.7534,0.4443c-1.0161,0-1.8379-0.3262-2.4644-0.9775
		S92.7281,25.7051,92.7281,24.4795z M93.9927,24.4795c0,0.9297,0.2026,1.626,0.6084,2.0889
		c0.4058,0.4619,0.916,0.6934,1.5313,0.6934c0.6108,0,1.1187-0.2324,1.5244-0.6973s0.6084-1.1738,0.6084-2.126
		c0-0.8975-0.2041-1.5781-0.6118-2.04c-0.4077-0.4629-0.915-0.6943-1.521-0.6943c-0.6152,0-1.1255,0.2305-1.5313,0.6904
		S93.9927,23.5498,93.9927,24.4795z"/>
	<path class="st0" d="M100.9722,28.1094v-7.2598h1.1074v1.0322c0.5332-0.7979,1.3032-1.1963,2.3105-1.1963
		c0.4375,0,0.8403,0.0781,1.2065,0.2363c0.3662,0.1563,0.6416,0.3633,0.8232,0.6182c0.1826,0.2549,0.3105,0.5586,0.3828,0.9092
		c0.0459,0.2275,0.0684,0.627,0.0684,1.1963v4.4639h-1.2305v-4.416c0-0.501-0.0469-0.876-0.1426-1.125
		c-0.0957-0.248-0.2656-0.4463-0.5098-0.5938c-0.2437-0.1484-0.5298-0.2227-0.8579-0.2227c-0.5239,0-0.9766,0.166-1.3569,0.499
		s-0.5708,0.9639-0.5708,1.8936v3.9648L100.9722,28.1094L100.9722,28.1094z"/>
	<path class="st0" d="M113.7285,25.7715L115,25.9287c-0.2012,0.7432-0.5723,1.3193-1.1152,1.7295
		c-0.542,0.4102-1.2344,0.6152-2.0781,0.6152c-1.0615,0-1.9033-0.3271-2.5254-0.9805c-0.6221-0.6543-0.9336-1.5713-0.9336-2.752
		c0-1.2217,0.3145-2.1689,0.9434-2.8438s1.4453-1.0117,2.4473-1.0117c0.9707,0,1.7637,0.3301,2.3789,0.9912
		s0.9238,1.5908,0.9238,2.7891c0,0.0732-0.0029,0.1826-0.0078,0.3281h-5.4141c0.0459,0.7979,0.2715,1.4082,0.6777,1.832
		c0.4053,0.4238,0.9111,0.6357,1.5176,0.6357c0.4512,0,0.8359-0.1182,1.1543-0.3555
		C113.2881,26.6689,113.541,26.291,113.7285,25.7715z M109.6875,23.7822h4.0547c-0.0547-0.6104-0.21-1.0684-0.4648-1.374
		c-0.3926-0.4736-0.9004-0.7109-1.5254-0.7109c-0.5645,0-1.0391,0.1895-1.4248,0.5674S109.7285,23.1484,109.6875,23.7822z"/>
	<path class="st0" d="M116.545,28.1094v-7.2598h1.1074v1.0322c0.5332-0.7979,1.3027-1.1963,2.3105-1.1963
		c0.4375,0,0.8398,0.0781,1.2061,0.2363c0.3662,0.1563,0.6416,0.3633,0.8232,0.6182c0.1826,0.2549,0.3105,0.5586,0.3828,0.9092
		c0.0459,0.2275,0.0684,0.627,0.0684,1.1963v4.4639h-1.2305v-4.416c0-0.501-0.0469-0.876-0.1426-1.125
		c-0.0957-0.248-0.2656-0.4463-0.5098-0.5938c-0.2441-0.1484-0.5293-0.2227-0.8574-0.2227c-0.5244,0-0.9766,0.166-1.3574,0.499
		s-0.5703,0.9639-0.5703,1.8936v3.9648L116.545,28.1094L116.545,28.1094z"/>
	<path class="st0" d="M127.0176,27.0088l0.1777,1.0869c-0.3467,0.0732-0.6563,0.1094-0.9297,0.1094
		c-0.4473,0-0.793-0.0703-1.0391-0.2119s-0.4199-0.3271-0.5195-0.5576c-0.1006-0.2295-0.1504-0.7139-0.1504-1.4521v-4.1768h-0.9023
		v-0.957h0.9023v-1.7979l1.2227-0.7383v2.5361h1.2383v0.957h-1.2383v4.2451c0,0.3506,0.0215,0.5762,0.0654,0.6768
		s0.1143,0.1797,0.2119,0.2393s0.2383,0.0889,0.4199,0.0889C126.6133,27.0566,126.794,27.041,127.0176,27.0088z"/>
	<path class="st0" d="M133.1895,25.7715l1.2715,0.1572c-0.2002,0.7432-0.5713,1.3193-1.1133,1.7295
		c-0.543,0.4102-1.2354,0.6152-2.0781,0.6152c-1.0625,0-1.9043-0.3271-2.5264-0.9805c-0.6221-0.6543-0.9326-1.5713-0.9326-2.752
		c0-1.2217,0.3145-2.1689,0.9434-2.8438s1.4443-1.0117,2.4473-1.0117c0.9707,0,1.7637,0.3301,2.3789,0.9912
		s0.9219,1.5908,0.9219,2.7891c0,0.0732-0.002,0.1826-0.0059,0.3281h-5.4141c0.0449,0.7979,0.2705,1.4082,0.6758,1.832
		c0.4063,0.4238,0.9121,0.6357,1.5176,0.6357c0.4512,0,0.8369-0.1182,1.1563-0.3555C132.75,26.6689,133.003,26.291,133.1895,25.7715
		z M129.1504,23.7822h4.0527c-0.0547-0.6104-0.209-1.0684-0.4648-1.374c-0.3916-0.4736-0.8994-0.7109-1.5234-0.7109
		c-0.5654,0-1.041,0.1895-1.4258,0.5674S129.1914,23.1484,129.1504,23.7822z"/>
	<path class="st0" d="M135.5137,25.9424l1.2168-0.1914c0.0684,0.4873,0.2598,0.8613,0.5713,1.1211s0.749,0.3896,1.3096,0.3896
		c0.5645,0,0.9844-0.1152,1.2578-0.3457c0.2734-0.2295,0.4102-0.5,0.4102-0.8096c0-0.2783-0.1211-0.4971-0.3633-0.6563
		c-0.168-0.1094-0.5879-0.248-1.2578-0.417c-0.9023-0.2275-1.5273-0.4248-1.876-0.5918c-0.3486-0.166-0.6123-0.3965-0.793-0.6895
		c-0.1807-0.2949-0.2705-0.6191-0.2705-0.9746c0-0.3232,0.0742-0.623,0.2227-0.8984c0.1484-0.2764,0.3496-0.5049,0.6055-0.6875
		c0.1914-0.1416,0.4512-0.2607,0.7822-0.3594c0.3311-0.0977,0.6846-0.1465,1.0635-0.1465c0.5693,0,1.0693,0.082,1.5,0.2461
		s0.748,0.3867,0.9531,0.666c0.2051,0.2813,0.3467,0.6553,0.4238,1.125l-1.2031,0.1641c-0.0547-0.374-0.2129-0.665-0.4746-0.875
		s-0.6328-0.3145-1.1113-0.3145c-0.5645,0-0.9678,0.0938-1.209,0.2803c-0.2422,0.1865-0.3633,0.4053-0.3633,0.6563
		c0,0.1592,0.0508,0.3027,0.1504,0.4307c0.1006,0.1318,0.2578,0.2412,0.4727,0.3281c0.123,0.0459,0.4844,0.1504,1.0859,0.3145
		c0.8711,0.2324,1.4785,0.4229,1.8223,0.5703c0.3438,0.1484,0.6143,0.3643,0.8105,0.6465c0.1953,0.2822,0.293,0.6338,0.293,1.0527
		c0,0.4102-0.1191,0.7969-0.3584,1.1582c-0.2393,0.3633-0.585,0.6426-1.0361,0.8418c-0.4512,0.1973-0.9609,0.2969-1.5313,0.2969
		c-0.9434,0-1.6621-0.1963-2.1563-0.5879S135.6504,26.7129,135.5137,25.9424z"/>
</g>
</svg>
