<?xml version="1.0" encoding="utf-8"?>
<!-- Generator: Adobe Illustrator 21.0.0, SVG Export Plug-In . SVG Version: 6.00 Build 0)  -->
<svg version="1.1" id="Capa_1" xmlns="http://www.w3.org/2000/svg" xmlns:xlink="http://www.w3.org/1999/xlink" x="0px" y="0px"
	 viewBox="0 0 205.6377 22" style="enable-background:new 0 0 205.6377 22;" xml:space="preserve">
<style type="text/css">
	.st0{fill-rule:evenodd;clip-rule:evenodd;fill:#FFFFFF;}
	.st1{fill:#FFFFFF;}
</style>
<g>
	<polygon id="XMLID_6_" class="st0" points="17.0088,5.0459 18.3877,9.7178 23.5186,9.7959 19.5362,12.6309 20.9912,17.4541 
		17.0879,14.5459 12.9512,17.4541 14.4815,12.8613 10.4248,9.7959 15.3242,9.8721 	"/>
	<path class="st1" d="M21.9077,18.7603l-4.8281-3.5972l-5.0825,3.5732l1.8965-5.6924L8.9024,9.272l6.0688,0.0947l2.0776-5.9521
		l1.7144,5.8091l6.2871,0.0957l-4.9316,3.5107L21.9077,18.7603z M11.9473,10.3198l3.1221,2.3589l-1.1641,3.4932l3.1909-2.2432
		l2.9785,2.2192l-1.1211-3.7163l3.0332-2.1592l-3.9746-0.0605l-1.0435-3.5347l-1.2915,3.7002L11.9473,10.3198z"/>
</g>
<rect x="0" y="20.8232" class="st1" width="205.6377" height="1"/>
<g>
	<g>
		<path class="st1" d="M38.6055,14.6528V4.6313h1.9961l2.3721,7.0957c0.2188,0.6611,0.3784,1.1553,0.4785,1.4834
			c0.1138-0.3643,0.2915-0.9004,0.5332-1.6064l2.3994-6.9727h1.7842v10.0215h-1.2783V6.2651l-2.9121,8.3877h-1.1963l-2.8984-8.5313
			v8.5313H38.6055z"/>
		<path class="st1" d="M49.6934,11.0229c0-1.3447,0.3735-2.3398,1.1211-2.9873c0.6245-0.5381,1.3853-0.8066,2.2832-0.8066
			c0.998,0,1.814,0.3271,2.4473,0.9805c0.6333,0.6543,0.9502,1.5576,0.9502,2.7109c0,0.9346-0.1401,1.6689-0.4204,2.2051
			c-0.2803,0.5352-0.688,0.9512-1.2236,1.2471s-1.1201,0.4443-1.7534,0.4443c-1.0161,0-1.8379-0.3262-2.4644-0.9775
			S49.6934,12.2485,49.6934,11.0229z M50.958,11.0229c0,0.9297,0.2026,1.626,0.6084,2.0889
			c0.4058,0.4619,0.916,0.6934,1.5313,0.6934c0.6108,0,1.1187-0.2324,1.5244-0.6973s0.6084-1.1738,0.6084-2.126
			c0-0.8975-0.2041-1.5781-0.6118-2.04c-0.4077-0.4629-0.915-0.6943-1.521-0.6943c-0.6152,0-1.1255,0.2305-1.5313,0.6904
			S50.958,10.0933,50.958,11.0229z"/>
		<path class="st1" d="M62.6475,14.6528v-0.916c-0.4604,0.7197-1.1372,1.0801-2.0303,1.0801c-0.5786,0-1.1108-0.1592-1.5962-0.4785
			s-0.8613-0.7646-1.1279-1.3359c-0.2666-0.5723-0.3999-1.2295-0.3999-1.9727c0-0.7246,0.1206-1.3818,0.3623-1.9727
			c0.2417-0.5898,0.604-1.042,1.0869-1.3564s1.0229-0.4717,1.6201-0.4717c0.4375,0,0.8271,0.0918,1.1689,0.2773
			c0.3418,0.1836,0.6196,0.4248,0.834,0.7207V4.6313h1.2236v10.0215H62.6475z M58.7578,11.0298c0,0.9297,0.1958,1.625,0.5879,2.085
			s0.8545,0.6904,1.3877,0.6904c0.5376,0,0.9946-0.2197,1.3706-0.6602c0.376-0.4395,0.564-1.1104,0.564-2.0127
			c0-0.9932-0.1914-1.7227-0.5742-2.1875s-0.8545-0.6973-1.415-0.6973c-0.5469,0-1.0039,0.2236-1.3706,0.6699
			S58.7578,10.0679,58.7578,11.0298z"/>
		<path class="st1" d="M70.6934,12.3149l1.2715,0.1572c-0.2007,0.7432-0.5718,1.3193-1.1143,1.7295s-1.2349,0.6152-2.0781,0.6152
			c-1.062,0-1.9038-0.3271-2.5259-0.9805c-0.6221-0.6543-0.9331-1.5713-0.9331-2.752c0-1.2217,0.3145-2.1689,0.9434-2.8438
			s1.4448-1.0117,2.4473-1.0117c0.9707,0,1.7637,0.3301,2.3789,0.9912s0.9229,1.5908,0.9229,2.7891
			c0,0.0732-0.0024,0.1826-0.0068,0.3281H66.585c0.0454,0.7979,0.271,1.4082,0.6768,1.832s0.9116,0.6357,1.5176,0.6357
			c0.4512,0,0.8364-0.1182,1.1553-0.3555S70.5064,12.8345,70.6934,12.3149z M66.6534,10.3257h4.0537
			c-0.0547-0.6104-0.2095-1.0684-0.4648-1.374c-0.3921-0.4736-0.8999-0.7109-1.5244-0.7109c-0.5649,0-1.04,0.1895-1.4253,0.5674
			S66.6944,9.6919,66.6534,10.3257z"/>
		<path class="st1" d="M73.4825,14.6528V4.6313h1.2305v10.0215H73.4825z"/>
		<path class="st1" d="M76.1621,11.0229c0-1.3447,0.3735-2.3398,1.1211-2.9873c0.6245-0.5381,1.3853-0.8066,2.2832-0.8066
			c0.998,0,1.814,0.3271,2.4473,0.9805c0.6333,0.6543,0.9502,1.5576,0.9502,2.7109c0,0.9346-0.1401,1.6689-0.4204,2.2051
			c-0.2803,0.5352-0.688,0.9512-1.2236,1.2471s-1.1201,0.4443-1.7534,0.4443c-1.0161,0-1.8379-0.3262-2.4644-0.9775
			S76.1621,12.2485,76.1621,11.0229z M77.4268,11.0229c0,0.9297,0.2026,1.626,0.6084,2.0889
			c0.4058,0.4619,0.916,0.6934,1.5313,0.6934c0.6108,0,1.1187-0.2324,1.5244-0.6973s0.6084-1.1738,0.6084-2.126
			c0-0.8975-0.2041-1.5781-0.6118-2.04c-0.4077-0.4629-0.915-0.6943-1.521-0.6943c-0.6152,0-1.1255,0.2305-1.5313,0.6904
			S77.4268,10.0933,77.4268,11.0229z"/>
		<path class="st1" d="M83.9141,12.4858l1.2168-0.1914c0.0684,0.4873,0.2588,0.8613,0.5708,1.1211s0.7485,0.3896,1.3091,0.3896
			c0.5649,0,0.9844-0.1152,1.2578-0.3457c0.2734-0.2295,0.4102-0.5,0.4102-0.8096c0-0.2783-0.1206-0.4971-0.3623-0.6563
			c-0.1685-0.1094-0.5879-0.248-1.2578-0.417c-0.9023-0.2275-1.5278-0.4248-1.8765-0.5918c-0.3486-0.166-0.6128-0.3965-0.793-0.6895
			c-0.1802-0.2949-0.27-0.6191-0.27-0.9746c0-0.3232,0.0742-0.623,0.2222-0.8984c0.1479-0.2764,0.3496-0.5049,0.605-0.6875
			c0.1914-0.1416,0.4521-0.2607,0.7827-0.3594c0.3306-0.0977,0.6846-0.1465,1.063-0.1465c0.5698,0,1.0698,0.082,1.5005,0.2461
			s0.7485,0.3867,0.9536,0.666c0.2051,0.2813,0.3462,0.6553,0.4238,1.125l-1.2031,0.1641c-0.0547-0.374-0.2129-0.665-0.4751-0.875
			s-0.6323-0.3145-1.1108-0.3145c-0.5649,0-0.9683,0.0938-1.21,0.2803s-0.3623,0.4053-0.3623,0.6563
			c0,0.1592,0.0503,0.3027,0.1504,0.4307c0.1001,0.1318,0.2573,0.2412,0.4717,0.3281c0.123,0.0459,0.4854,0.1504,1.0869,0.3145
			c0.8706,0.2324,1.4775,0.4229,1.8218,0.5703c0.3442,0.1484,0.6143,0.3643,0.8101,0.6465s0.2939,0.6338,0.2939,1.0527
			c0,0.4102-0.1196,0.7969-0.3589,1.1582C89.3452,14.0415,89,14.3208,88.5489,14.52c-0.4512,0.1973-0.9614,0.2969-1.5313,0.2969
			c-0.9434,0-1.6621-0.1963-2.1567-0.5879S84.0508,13.2563,83.9141,12.4858z"/>
		<path class="st1" d="M95.3028,6.0464v-1.415h1.2305v1.415H95.3028z M95.3028,14.6528V7.3931h1.2305v7.2598H95.3028z"/>
		<path class="st1" d="M98.4063,14.6528V7.3931h1.1074v1.0322c0.5332-0.7979,1.3032-1.1963,2.3105-1.1963
			c0.4375,0,0.8398,0.0781,1.2065,0.2363c0.3667,0.1563,0.6416,0.3633,0.8237,0.6182c0.1826,0.2549,0.3096,0.5586,0.3828,0.9092
			c0.0459,0.2275,0.0684,0.627,0.0684,1.1963v4.4639h-1.2305v-4.416c0-0.501-0.0479-0.876-0.1436-1.125
			c-0.0957-0.248-0.2656-0.4463-0.5093-0.5938c-0.2437-0.1484-0.5298-0.2227-0.8579-0.2227c-0.5239,0-0.9766,0.166-1.3569,0.499
			s-0.5708,0.9639-0.5708,1.8936v3.9648H98.4063z"/>
		<path class="st1" d="M110.9297,11.9937l1.21,0.1572c-0.1318,0.834-0.4707,1.4863-1.0146,1.959
			c-0.5449,0.4707-1.2139,0.707-2.0068,0.707c-0.9932,0-1.792-0.3242-2.3955-0.9746c-0.6045-0.6484-0.9063-1.5801-0.9063-2.792
			c0-0.7842,0.1299-1.4697,0.3896-2.0576s0.6553-1.0293,1.1865-1.3223c0.5303-0.2949,1.1074-0.4414,1.7324-0.4414
			c0.7891,0,1.4336,0.1992,1.9346,0.5977c0.501,0.3994,0.8232,0.9658,0.9639,1.6992l-1.1963,0.1846
			c-0.1143-0.4873-0.3154-0.8545-0.6045-1.1006c-0.29-0.2461-0.6396-0.3691-1.0498-0.3691c-0.6201,0-1.124,0.2227-1.5107,0.666
			c-0.3867,0.4453-0.5811,1.1475-0.5811,2.1094c0,0.9756,0.1865,1.6836,0.5605,2.126s0.8613,0.6631,1.4629,0.6631
			c0.4834,0,0.8857-0.1484,1.21-0.4443S110.8438,12.6089,110.9297,11.9937z"/>
		<path class="st1" d="M113.1787,14.6528V7.3931h1.1074v1.1006c0.2822-0.5146,0.5439-0.8545,0.7822-1.0186
			c0.2402-0.1641,0.5029-0.2461,0.79-0.2461c0.415,0,0.8369,0.1318,1.2646,0.3965l-0.4238,1.1416
			c-0.3008-0.1777-0.6016-0.2666-0.9023-0.2666c-0.2695,0-0.5098,0.0811-0.7246,0.2422c-0.2148,0.1621-0.3672,0.3867-0.458,0.6738
			c-0.1367,0.4375-0.2051,0.916-0.2051,1.4355v3.8008H113.1787z"/>
		<path class="st1" d="M122.8242,12.3149l1.2715,0.1572c-0.2012,0.7432-0.5723,1.3193-1.1143,1.7295s-1.2354,0.6152-2.0781,0.6152
			c-1.0615,0-1.9033-0.3271-2.5264-0.9805c-0.6211-0.6543-0.9326-1.5713-0.9326-2.752c0-1.2217,0.3145-2.1689,0.9434-2.8438
			s1.4443-1.0117,2.4473-1.0117c0.9707,0,1.7637,0.3301,2.3789,0.9912s0.9229,1.5908,0.9229,2.7891
			c0,0.0732-0.002,0.1826-0.0068,0.3281h-5.4141c0.0459,0.7979,0.2705,1.4082,0.6768,1.832s0.9121,0.6357,1.5176,0.6357
			c0.4512,0,0.8359-0.1182,1.1553-0.3555S122.6367,12.8345,122.8242,12.3149z M118.7842,10.3257h4.0537
			c-0.0547-0.6104-0.209-1.0684-0.4648-1.374c-0.3926-0.4736-0.9004-0.7109-1.5244-0.7109c-0.5654,0-1.04,0.1895-1.4248,0.5674
			C119.0381,9.186,118.8252,9.6919,118.7842,10.3257z"/>
		<path class="st1" d="M125.6407,14.6528V7.3931h1.1006v1.0186c0.2275-0.3555,0.5303-0.6416,0.9092-0.8584
			c0.3789-0.2158,0.8086-0.3242,1.292-0.3242c0.5381,0,0.9785,0.1113,1.3232,0.335c0.3438,0.2236,0.5859,0.5352,0.7275,0.9365
			c0.5742-0.8477,1.3213-1.2715,2.2422-1.2715c0.7197,0,1.2744,0.1992,1.6611,0.5977c0.3867,0.3994,0.5811,1.0137,0.5811,1.8428
			v4.9834h-1.2236v-4.5732c0-0.4922-0.04-0.8467-0.1191-1.0635c-0.0801-0.2158-0.2246-0.3906-0.4346-0.5225
			s-0.4561-0.1982-0.7383-0.1982c-0.5107,0-0.9346,0.1699-1.2715,0.5098c-0.3369,0.3389-0.5059,0.8828-0.5059,1.6299v4.2178h-1.2305
			V9.936c0-0.5469-0.1006-0.957-0.3008-1.2305s-0.5283-0.4102-0.9844-0.4102c-0.3467,0-0.667,0.0908-0.96,0.2734
			c-0.2949,0.1826-0.5078,0.4492-0.6396,0.7998s-0.1982,0.8564-0.1982,1.5176v3.7666H125.6407z"/>
		<path class="st1" d="M142.2725,12.3149l1.2715,0.1572c-0.2002,0.7432-0.5713,1.3193-1.1143,1.7295s-1.2344,0.6152-2.0781,0.6152
			c-1.0625,0-1.9043-0.3271-2.5254-0.9805c-0.623-0.6543-0.9336-1.5713-0.9336-2.752c0-1.2217,0.3145-2.1689,0.9434-2.8438
			s1.4453-1.0117,2.4473-1.0117c0.9707,0,1.7637,0.3301,2.3789,0.9912s0.9229,1.5908,0.9229,2.7891
			c0,0.0732-0.0029,0.1826-0.0068,0.3281h-5.4141c0.0449,0.7979,0.2715,1.4082,0.6768,1.832s0.9111,0.6357,1.5176,0.6357
			c0.4512,0,0.8369-0.1182,1.1553-0.3555S142.086,12.8345,142.2725,12.3149z M138.2325,10.3257h4.0537
			c-0.0547-0.6104-0.21-1.0684-0.4648-1.374c-0.3916-0.4736-0.8994-0.7109-1.5244-0.7109c-0.5645,0-1.04,0.1895-1.4258,0.5674
			C138.4864,9.186,138.2735,9.6919,138.2325,10.3257z"/>
		<path class="st1" d="M145.0889,14.6528V7.3931h1.1074v1.0322c0.5332-0.7979,1.3037-1.1963,2.3105-1.1963
			c0.4375,0,0.8398,0.0781,1.2061,0.2363c0.3672,0.1563,0.6426,0.3633,0.8242,0.6182s0.3105,0.5586,0.3828,0.9092
			c0.0449,0.2275,0.0684,0.627,0.0684,1.1963v4.4639h-1.2305v-4.416c0-0.501-0.0479-0.876-0.1436-1.125
			c-0.0957-0.248-0.2656-0.4463-0.5088-0.5938c-0.2441-0.1484-0.5303-0.2227-0.8584-0.2227c-0.5244,0-0.9766,0.166-1.3564,0.499
			c-0.3809,0.333-0.5713,0.9639-0.5713,1.8936v3.9648H145.0889z"/>
		<path class="st1" d="M155.5616,13.5522l0.1777,1.0869c-0.3467,0.0732-0.6563,0.1094-0.9297,0.1094
			c-0.4463,0-0.793-0.0703-1.0391-0.2119s-0.4189-0.3271-0.5195-0.5576c-0.1006-0.2295-0.1504-0.7139-0.1504-1.4521V8.3501h-0.9023
			v-0.957h0.9023V5.5952l1.2236-0.7383v2.5361h1.2373v0.957h-1.2373v4.2451c0,0.3506,0.0215,0.5762,0.0645,0.6768
			c0.0439,0.1006,0.1143,0.1797,0.2129,0.2393c0.0977,0.0596,0.2383,0.0889,0.4199,0.0889
			C155.1582,13.6001,155.3379,13.5845,155.5616,13.5522z"/>
		<path class="st1" d="M161.502,13.7573c-0.4551,0.3877-0.8945,0.6611-1.3164,0.8203c-0.4209,0.1592-0.873,0.2393-1.3564,0.2393
			c-0.7979,0-1.4111-0.1953-1.8389-0.584c-0.4277-0.3906-0.6426-0.8877-0.6426-1.4941c0-0.3555,0.0811-0.6797,0.2422-0.9746
			c0.1621-0.293,0.374-0.5293,0.6367-0.707c0.2617-0.1777,0.5566-0.3125,0.8848-0.4033c0.2422-0.0635,0.6055-0.125,1.0938-0.1846
			c0.9941-0.1182,1.7246-0.2598,2.1943-0.4238c0.0049-0.1689,0.0068-0.2754,0.0068-0.3213c0-0.501-0.1162-0.8545-0.3486-1.0596
			c-0.3145-0.2783-0.7822-0.417-1.4014-0.417c-0.5781,0-1.0059,0.1016-1.2813,0.3037c-0.2764,0.2031-0.4805,0.5625-0.6123,1.0771
			l-1.2031-0.1641c0.1094-0.5146,0.29-0.9307,0.54-1.2471c0.25-0.3174,0.6133-0.5605,1.0869-0.7324
			c0.4736-0.1699,1.0225-0.2559,1.6475-0.2559c0.6191,0,1.123,0.0732,1.5107,0.2188s0.6729,0.3291,0.8545,0.5508
			c0.1816,0.2207,0.3105,0.5,0.3828,0.8369c0.041,0.21,0.0615,0.5879,0.0615,1.1348v1.6406c0,1.1436,0.0264,1.8672,0.0791,2.1709
			c0.0518,0.3027,0.1563,0.5928,0.3105,0.8711h-1.2852C161.6211,14.3979,161.5391,14.0991,161.502,13.7573z M161.3994,11.0093
			c-0.4463,0.1826-1.1162,0.3369-2.0098,0.4648c-0.5059,0.0732-0.8643,0.1553-1.0732,0.2461s-0.3711,0.2246-0.4854,0.3994
			c-0.1143,0.1758-0.1709,0.3711-0.1709,0.585c0,0.3281,0.124,0.6016,0.373,0.8203c0.248,0.2188,0.6113,0.3281,1.0898,0.3281
			c0.4746,0,0.8955-0.1035,1.2646-0.3115c0.3691-0.207,0.6396-0.4902,0.8135-0.8506c0.1328-0.2783,0.1982-0.6885,0.1982-1.2305
			V11.0093z"/>
		<path class="st1" d="M164.5235,14.6528V4.6313h1.2305v10.0215H164.5235z"/>
		<path class="st1" d="M172.6309,12.3149l1.2715,0.1572c-0.2012,0.7432-0.5723,1.3193-1.1143,1.7295s-1.2354,0.6152-2.0781,0.6152
			c-1.0615,0-1.9033-0.3271-2.5264-0.9805c-0.6211-0.6543-0.9326-1.5713-0.9326-2.752c0-1.2217,0.3145-2.1689,0.9434-2.8438
			s1.4443-1.0117,2.4473-1.0117c0.9707,0,1.7637,0.3301,2.3789,0.9912s0.9229,1.5908,0.9229,2.7891
			c0,0.0732-0.002,0.1826-0.0068,0.3281h-5.4141c0.0459,0.7979,0.2705,1.4082,0.6768,1.832s0.9121,0.6357,1.5176,0.6357
			c0.4512,0,0.8359-0.1182,1.1553-0.3555S172.4434,12.8345,172.6309,12.3149z M168.5909,10.3257h4.0537
			c-0.0547-0.6104-0.209-1.0684-0.4648-1.374c-0.3926-0.4736-0.9004-0.7109-1.5244-0.7109c-0.5654,0-1.04,0.1895-1.4248,0.5674
			C168.8448,9.186,168.6319,9.6919,168.5909,10.3257z"/>
		<path class="st1" d="M174.9551,12.4858l1.2168-0.1914c0.0684,0.4873,0.2588,0.8613,0.5703,1.1211
			c0.3125,0.2598,0.749,0.3896,1.3096,0.3896c0.5654,0,0.9844-0.1152,1.2578-0.3457c0.2734-0.2295,0.4102-0.5,0.4102-0.8096
			c0-0.2783-0.1201-0.4971-0.3623-0.6563c-0.168-0.1094-0.5879-0.248-1.2578-0.417c-0.9023-0.2275-1.5273-0.4248-1.877-0.5918
			c-0.3477-0.166-0.6123-0.3965-0.793-0.6895c-0.1797-0.2949-0.2695-0.6191-0.2695-0.9746c0-0.3232,0.0742-0.623,0.2227-0.8984
			c0.1475-0.2764,0.3496-0.5049,0.6045-0.6875c0.1914-0.1416,0.4521-0.2607,0.7822-0.3594
			c0.3311-0.0977,0.6855-0.1465,1.0635-0.1465c0.5693,0,1.0693,0.082,1.501,0.2461c0.4297,0.1641,0.748,0.3867,0.9531,0.666
			c0.2051,0.2813,0.3457,0.6553,0.4238,1.125l-1.2031,0.1641c-0.0547-0.374-0.2129-0.665-0.4746-0.875
			c-0.2627-0.21-0.6328-0.3145-1.1113-0.3145c-0.5645,0-0.9688,0.0938-1.21,0.2803s-0.3623,0.4053-0.3623,0.6563
			c0,0.1592,0.0508,0.3027,0.1504,0.4307c0.0996,0.1318,0.2578,0.2412,0.4717,0.3281c0.123,0.0459,0.4854,0.1504,1.0869,0.3145
			c0.8711,0.2324,1.4775,0.4229,1.8223,0.5703c0.3438,0.1484,0.6133,0.3643,0.8096,0.6465s0.2939,0.6338,0.2939,1.0527
			c0,0.4102-0.1191,0.7969-0.3594,1.1582c-0.2383,0.3633-0.584,0.6426-1.0352,0.8418c-0.4512,0.1973-0.9609,0.2969-1.5313,0.2969
			c-0.9434,0-1.6621-0.1963-2.1563-0.5879C175.4073,13.8374,175.0918,13.2563,174.9551,12.4858z"/>
	</g>
</g>
</svg>
