<?xml version="1.0" encoding="utf-8"?>
<!-- Generator: Adobe Illustrator 21.0.0, SVG Export Plug-In . SVG Version: 6.00 Build 0)  -->
<svg version="1.1" id="Capa_1" xmlns="http://www.w3.org/2000/svg" xmlns:xlink="http://www.w3.org/1999/xlink" x="0px" y="0px"
	 viewBox="0 0 205.6377 23" style="enable-background:new 0 0 205.6377 23;" xml:space="preserve">
<style type="text/css">
	.st0{fill:#42210B;stroke:#42210B;stroke-miterlimit:10;}
	.st1{fill:#42210B;}
</style>
<g>
	<polygon id="XMLID_2_" class="st0" points="18.0088,3.7158 19.3877,8.3877 24.5186,8.4658 20.5362,11.3008 21.9912,16.125 
		18.0879,13.2158 13.9512,16.125 15.4815,11.5313 11.4248,8.4658 16.3242,8.543 	"/>
	<path class="st1" d="M22.9077,17.4316l-4.8281-3.5986l-5.0825,3.5742l1.8965-5.6934L9.9019,7.9414l6.0693,0.0957l2.0771-5.9531
		l1.7148,5.8096l6.2871,0.0957L21.1187,11.5L22.9077,17.4316z M12.9478,8.9902l3.1216,2.3584l-1.1641,3.4941l3.1909-2.2441
		l2.9785,2.2197l-1.1211-3.7168l3.0332-2.1592l-3.9746-0.0605l-1.043-3.5342l-1.292,3.7012L12.9478,8.9902z"/>
</g>
<rect x="1" y="22.4932" class="st1" width="205.6377" height="1"/>
<g>
	<path class="st1" d="M39.6055,16.3223V6.3008h1.9961l2.3721,7.0957c0.2188,0.6611,0.3784,1.1553,0.4785,1.4834
		c0.1138-0.3643,0.2915-0.9004,0.5332-1.6064l2.3994-6.9727h1.7842v10.0215h-1.2783V7.9346l-2.9121,8.3877h-1.1963L40.8838,7.791
		v8.5313H39.6055z"/>
	<path class="st1" d="M50.6934,12.6924c0-1.3447,0.3735-2.3398,1.1211-2.9873c0.6245-0.5381,1.3853-0.8066,2.2832-0.8066
		c0.998,0,1.814,0.3271,2.4473,0.9805c0.6333,0.6543,0.9502,1.5576,0.9502,2.7109c0,0.9346-0.1401,1.6689-0.4204,2.2051
		c-0.2803,0.5352-0.688,0.9512-1.2236,1.2471s-1.1201,0.4443-1.7534,0.4443c-1.0161,0-1.8379-0.3262-2.4644-0.9775
		S50.6934,13.918,50.6934,12.6924z M51.958,12.6924c0,0.9297,0.2026,1.626,0.6084,2.0889c0.4058,0.4619,0.916,0.6934,1.5313,0.6934
		c0.6108,0,1.1187-0.2324,1.5244-0.6973s0.6084-1.1738,0.6084-2.126c0-0.8975-0.2041-1.5781-0.6118-2.04
		c-0.4077-0.4629-0.915-0.6943-1.521-0.6943c-0.6152,0-1.1255,0.2305-1.5313,0.6904S51.958,11.7627,51.958,12.6924z"/>
	<path class="st1" d="M63.6475,16.3223v-0.916c-0.4604,0.7197-1.1372,1.0801-2.0303,1.0801c-0.5786,0-1.1108-0.1592-1.5962-0.4785
		s-0.8613-0.7646-1.1279-1.3359c-0.2666-0.5723-0.3999-1.2295-0.3999-1.9727c0-0.7246,0.1206-1.3818,0.3623-1.9727
		c0.2417-0.5898,0.604-1.042,1.0869-1.3564s1.0229-0.4717,1.6201-0.4717c0.4375,0,0.8271,0.0918,1.1689,0.2773
		c0.3418,0.1836,0.6196,0.4248,0.834,0.7207V6.3008h1.2236v10.0215H63.6475z M59.7578,12.6992c0,0.9297,0.1958,1.625,0.5879,2.085
		s0.8545,0.6904,1.3877,0.6904c0.5376,0,0.9946-0.2197,1.3706-0.6602c0.376-0.4395,0.564-1.1104,0.564-2.0127
		c0-0.9932-0.1914-1.7227-0.5742-2.1875s-0.8545-0.6973-1.415-0.6973c-0.5469,0-1.0039,0.2236-1.3706,0.6699
		S59.7578,11.7373,59.7578,12.6992z"/>
	<path class="st1" d="M71.6934,13.9844l1.2715,0.1572c-0.2007,0.7432-0.5718,1.3193-1.1143,1.7295s-1.2349,0.6152-2.0781,0.6152
		c-1.062,0-1.9038-0.3271-2.5259-0.9805c-0.6221-0.6543-0.9331-1.5713-0.9331-2.752c0-1.2217,0.3145-2.1689,0.9434-2.8438
		s1.4448-1.0117,2.4473-1.0117c0.9707,0,1.7637,0.3301,2.3789,0.9912s0.9229,1.5908,0.9229,2.7891
		c0,0.0732-0.0024,0.1826-0.0068,0.3281H67.585c0.0454,0.7979,0.271,1.4082,0.6768,1.832s0.9116,0.6357,1.5176,0.6357
		c0.4512,0,0.8364-0.1182,1.1553-0.3555S71.5064,14.5039,71.6934,13.9844z M67.6534,11.9951h4.0537
		c-0.0547-0.6104-0.2095-1.0684-0.4648-1.374c-0.3921-0.4736-0.8999-0.7109-1.5244-0.7109c-0.5649,0-1.04,0.1895-1.4253,0.5674
		S67.6944,11.3613,67.6534,11.9951z"/>
	<path class="st1" d="M74.4825,16.3223V6.3008h1.2305v10.0215H74.4825z"/>
	<path class="st1" d="M77.1621,12.6924c0-1.3447,0.3735-2.3398,1.1211-2.9873c0.6245-0.5381,1.3853-0.8066,2.2832-0.8066
		c0.998,0,1.814,0.3271,2.4473,0.9805c0.6333,0.6543,0.9502,1.5576,0.9502,2.7109c0,0.9346-0.1401,1.6689-0.4204,2.2051
		c-0.2803,0.5352-0.688,0.9512-1.2236,1.2471s-1.1201,0.4443-1.7534,0.4443c-1.0161,0-1.8379-0.3262-2.4644-0.9775
		S77.1621,13.918,77.1621,12.6924z M78.4268,12.6924c0,0.9297,0.2026,1.626,0.6084,2.0889c0.4058,0.4619,0.916,0.6934,1.5313,0.6934
		c0.6108,0,1.1187-0.2324,1.5244-0.6973s0.6084-1.1738,0.6084-2.126c0-0.8975-0.2041-1.5781-0.6118-2.04
		c-0.4077-0.4629-0.915-0.6943-1.521-0.6943c-0.6152,0-1.1255,0.2305-1.5313,0.6904S78.4268,11.7627,78.4268,12.6924z"/>
	<path class="st1" d="M96.0293,8.8986h1.3262v3.1922c0,1.0068-0.1138,1.8066-0.3418,2.3994s-0.6392,1.0742-1.2339,1.4453
		c-0.5947,0.3721-1.375,0.5576-2.3413,0.5576c-0.939,0-1.7065-0.1621-2.3037-0.4854s-1.0229-0.792-1.2783-1.4043
		c-0.2554-0.6133-0.3828-1.4512-0.3828-2.5127V8.8985h1.3262v3.1854c0,0.8701,0.0811,1.5117,0.2427,1.9238
		c0.1616,0.4131,0.4399,0.7305,0.834,0.9541s0.876,0.335,1.4458,0.335c0.9751,0,1.6704-0.2207,2.085-0.6631
		s0.6221-1.292,0.6221-2.5498V8.8986H96.0293z"/>
	<path class="st1" d="M99.4063,16.3223V9.0625h1.1074v1.0322c0.5332-0.7979,1.3032-1.1963,2.3105-1.1963
		c0.4375,0,0.8398,0.0781,1.2065,0.2363c0.3667,0.1563,0.6416,0.3633,0.8237,0.6182c0.1826,0.2549,0.3096,0.5586,0.3828,0.9092
		c0.0459,0.2275,0.0684,0.627,0.0684,1.1963v4.4639h-1.2305v-4.416c0-0.501-0.0479-0.876-0.1436-1.125
		c-0.0957-0.248-0.2656-0.4463-0.5093-0.5938c-0.2437-0.1484-0.5298-0.2227-0.8579-0.2227c-0.5239,0-0.9766,0.166-1.3569,0.499
		s-0.5708,0.9639-0.5708,1.8936v3.9648h-1.2303L99.4063,16.3223L99.4063,16.3223z"/>
	<path class="st1" d="M107.1992,7.7158v-1.415h1.2305v1.415H107.1992z M107.1992,16.3223V9.0625h1.2305v7.2598H107.1992z"/>
	<path class="st1" d="M110.5967,16.3223v-6.3027h-1.0869v-0.957h1.0869V8.29c0-0.4873,0.0439-0.8496,0.1299-1.0869
		c0.1191-0.3193,0.3271-0.5781,0.625-0.7754c0.2988-0.1992,0.7168-0.2979,1.2549-0.2979c0.3467,0,0.7295,0.041,1.1484,0.123
		l-0.1846,1.0732c-0.2559-0.0459-0.4961-0.0684-0.7246-0.0684c-0.373,0-0.6387,0.0801-0.793,0.2393s-0.2324,0.458-0.2324,0.8955
		v0.6699h1.415v0.957h-1.415v6.3027h-1.2236C110.5967,16.322,110.5967,16.3223,110.5967,16.3223z"/>
	<path class="st1" d="M114.1992,7.7158v-1.415h1.2305v1.415H114.1992z M114.1992,16.3223V9.0625h1.2305v7.2598H114.1992z"/>
	<path class="st1" d="M122.0401,13.6631l1.21,0.1572c-0.1328,0.834-0.4707,1.4863-1.0156,1.959
		c-0.5439,0.4707-1.2129,0.707-2.0059,0.707c-0.9941,0-1.792-0.3242-2.3965-0.9746c-0.6035-0.6484-0.9053-1.5801-0.9053-2.792
		c0-0.7842,0.1299-1.4697,0.3896-2.0576s0.6553-1.0293,1.1855-1.3223c0.5313-0.2949,1.1094-0.4414,1.7334-0.4414
		c0.7881,0,1.4326,0.1992,1.9346,0.5977c0.502,0.3994,0.8223,0.9658,0.9639,1.6992l-1.1963,0.1846
		c-0.1133-0.4873-0.3154-0.8545-0.6055-1.1006c-0.2891-0.2461-0.6387-0.3691-1.0488-0.3691c-0.6191,0-1.123,0.2227-1.5107,0.666
		c-0.3877,0.4453-0.5811,1.1475-0.5811,2.1094c0,0.9756,0.1875,1.6836,0.5605,2.126s0.8613,0.6631,1.4629,0.6631
		c0.4824,0,0.8867-0.1484,1.21-0.4443S121.9532,14.2783,122.0401,13.6631z"/>
	<path class="st1" d="M129.0401,15.4268c-0.4561,0.3877-0.8945,0.6611-1.3154,0.8203c-0.4219,0.1592-0.875,0.2393-1.3574,0.2393
		c-0.7969,0-1.4102-0.1953-1.8389-0.584c-0.4287-0.3906-0.6426-0.8877-0.6426-1.4941c0-0.3555,0.0811-0.6797,0.2432-0.9746
		c0.1611-0.293,0.373-0.5293,0.6348-0.707c0.2627-0.1777,0.5576-0.3125,0.8857-0.4033c0.2412-0.0635,0.6064-0.125,1.0938-0.1846
		c0.9932-0.1182,1.7256-0.2598,2.1943-0.4238c0.0039-0.1689,0.0068-0.2754,0.0068-0.3213c0-0.501-0.1162-0.8545-0.3486-1.0596
		c-0.3145-0.2783-0.7813-0.417-1.4014-0.417c-0.5791,0-1.0059,0.1016-1.2822,0.3037c-0.2754,0.2031-0.4785,0.5625-0.6113,1.0771
		l-1.2031-0.1641c0.1094-0.5146,0.2891-0.9307,0.54-1.2471c0.251-0.3174,0.6123-0.5605,1.0869-0.7324
		c0.4746-0.1699,1.0234-0.2559,1.6475-0.2559c0.6201,0,1.124,0.0732,1.5107,0.2188s0.6719,0.3291,0.8545,0.5508
		c0.1826,0.2207,0.3096,0.5,0.3828,0.8369c0.041,0.21,0.0615,0.5879,0.0615,1.1348v1.6406c0,1.1436,0.0264,1.8672,0.0781,2.1709
		c0.0527,0.3027,0.1563,0.5928,0.3115,0.8711h-1.2852C129.1582,16.0674,129.0762,15.7686,129.0401,15.4268z M128.9375,12.6787
		c-0.4473,0.1826-1.1172,0.3369-2.0098,0.4648c-0.5059,0.0732-0.8633,0.1553-1.0732,0.2461s-0.3721,0.2246-0.4854,0.3994
		c-0.1133,0.1758-0.1709,0.3711-0.1709,0.585c0,0.3281,0.124,0.6016,0.3721,0.8203c0.249,0.2188,0.6123,0.3281,1.0908,0.3281
		c0.4736,0,0.8955-0.1035,1.2646-0.3115c0.3691-0.207,0.6406-0.4902,0.8135-0.8506c0.1318-0.2783,0.1982-0.6885,0.1982-1.2305
		L128.9375,12.6787L128.9375,12.6787z"/>
	<path class="st1" d="M136.7989,16.3223v-0.916c-0.4609,0.7197-1.1367,1.0801-2.0303,1.0801c-0.5791,0-1.1104-0.1592-1.5967-0.4785
		c-0.4844-0.3193-0.8613-0.7646-1.127-1.3359c-0.2676-0.5723-0.4004-1.2295-0.4004-1.9727c0-0.7246,0.1211-1.3818,0.3623-1.9727
		c0.2412-0.5898,0.6045-1.042,1.0869-1.3564s1.0234-0.4717,1.6201-0.4717c0.4375,0,0.8271,0.0918,1.1689,0.2773
		c0.3418,0.1836,0.6191,0.4248,0.834,0.7207V6.3008h1.2236v10.0215H136.7989z M132.9092,12.6992c0,0.9297,0.1963,1.625,0.5879,2.085
		s0.8545,0.6904,1.3877,0.6904c0.5371,0,0.9941-0.2197,1.3711-0.6602c0.375-0.4395,0.5635-1.1104,0.5635-2.0127
		c0-0.9932-0.1914-1.7227-0.5742-2.1875s-0.8545-0.6973-1.415-0.6973c-0.5469,0-1.0039,0.2236-1.3711,0.6699
		C133.0928,11.0332,132.9092,11.7373,132.9092,12.6992z"/>
	<path class="st1" d="M139.417,12.6924c0-1.3447,0.374-2.3398,1.1211-2.9873c0.624-0.5381,1.3857-0.8066,2.2832-0.8066
		c0.998,0,1.8135,0.3271,2.4473,0.9805c0.6338,0.6543,0.9502,1.5576,0.9502,2.7109c0,0.9346-0.1406,1.6689-0.4199,2.2051
		c-0.2813,0.5352-0.6885,0.9512-1.2246,1.2471c-0.5352,0.2959-1.1191,0.4443-1.7529,0.4443c-1.0166,0-1.8379-0.3262-2.4639-0.9775
		C139.7305,14.8574,139.417,13.918,139.417,12.6924z M140.6817,12.6924c0,0.9297,0.2031,1.626,0.6084,2.0889
		c0.4053,0.4619,0.916,0.6934,1.5313,0.6934c0.6104,0,1.1182-0.2324,1.5244-0.6973s0.6084-1.1738,0.6084-2.126
		c0-0.8975-0.2041-1.5781-0.6123-2.04c-0.4072-0.4629-0.9141-0.6943-1.5205-0.6943c-0.6152,0-1.126,0.2305-1.5313,0.6904
		S140.6817,11.7627,140.6817,12.6924z"/>
</g>
</svg>
