<?xml version="1.0" encoding="utf-8"?>
<!-- Generator: Adobe Illustrator 21.0.0, SVG Export Plug-In . SVG Version: 6.00 Build 0)  -->
<svg version="1.1" id="Capa_1" xmlns="http://www.w3.org/2000/svg" xmlns:xlink="http://www.w3.org/1999/xlink" x="0px" y="0px"
	 viewBox="0 0 205.6377 28" style="enable-background:new 0 0 205.6377 28;" xml:space="preserve">
<style type="text/css">
	.st0{fill:#42210B;stroke:#42210B;stroke-miterlimit:10;}
	.st1{fill:#42210B;}
</style>
<g>
	<polygon id="XMLID_4_" class="st0" points="18.0088,5.7158 19.3877,10.3877 24.5186,10.4658 20.5362,13.3008 21.9912,18.125 
		18.0879,15.2158 13.9512,18.125 15.4815,13.5313 11.4248,10.4658 16.3242,10.543 	"/>
	<path class="st1" d="M22.9077,19.4316l-4.8281-3.5986l-5.0825,3.5742l1.8965-5.6934l-4.9917-3.772l6.0693,0.0952l2.0771-5.9526
		l1.7148,5.8091l6.2871,0.0957L21.1187,13.5L22.9077,19.4316z M12.9478,10.9897l3.1216,2.3589l-1.1641,3.4941l3.1909-2.2441
		l2.9785,2.2197l-1.1211-3.7168l3.0332-2.1592l-3.9746-0.0605l-1.043-3.5347l-1.292,3.7017L12.9478,10.9897z"/>
</g>
<rect x="1" y="26.4932" class="st1" width="205.6377" height="1"/>
<g>
	<path class="st1" d="M39.6055,18.3223V8.3008h1.9961l2.3721,7.0957c0.2188,0.6611,0.3784,1.1553,0.4785,1.4834
		c0.1138-0.3643,0.2915-0.9004,0.5332-1.6064l2.3994-6.9727h1.7842v10.0215h-1.2783V9.9346l-2.9121,8.3877h-1.1963L40.8838,9.791
		v8.5313H39.6055z"/>
	<path class="st1" d="M50.6934,14.6924c0-1.3447,0.3735-2.3398,1.1211-2.9873c0.6245-0.5381,1.3853-0.8066,2.2832-0.8066
		c0.998,0,1.814,0.3271,2.4473,0.9805c0.6333,0.6543,0.9502,1.5576,0.9502,2.7109c0,0.9346-0.1401,1.6689-0.4204,2.2051
		c-0.2803,0.5352-0.688,0.9512-1.2236,1.2471s-1.1201,0.4443-1.7534,0.4443c-1.0161,0-1.8379-0.3262-2.4644-0.9775
		S50.6934,15.918,50.6934,14.6924z M51.958,14.6924c0,0.9297,0.2026,1.626,0.6084,2.0889c0.4058,0.4619,0.916,0.6934,1.5313,0.6934
		c0.6108,0,1.1187-0.2324,1.5244-0.6973s0.6084-1.1738,0.6084-2.126c0-0.8975-0.2041-1.5781-0.6118-2.04
		c-0.4077-0.4629-0.915-0.6943-1.521-0.6943c-0.6152,0-1.1255,0.2305-1.5313,0.6904S51.958,13.7627,51.958,14.6924z"/>
	<path class="st1" d="M63.6475,18.3223v-0.916c-0.4604,0.7197-1.1372,1.0801-2.0303,1.0801c-0.5786,0-1.1108-0.1592-1.5962-0.4785
		s-0.8613-0.7646-1.1279-1.3359c-0.2666-0.5723-0.3999-1.2295-0.3999-1.9727c0-0.7246,0.1206-1.3818,0.3623-1.9727
		c0.2417-0.5898,0.604-1.042,1.0869-1.3564s1.0229-0.4717,1.6201-0.4717c0.4375,0,0.8271,0.0918,1.1689,0.2773
		c0.3418,0.1836,0.6196,0.4248,0.834,0.7207V8.3008h1.2236v10.0215H63.6475z M59.7578,14.6992c0,0.9297,0.1958,1.625,0.5879,2.085
		s0.8545,0.6904,1.3877,0.6904c0.5376,0,0.9946-0.2197,1.3706-0.6602c0.376-0.4395,0.564-1.1104,0.564-2.0127
		c0-0.9932-0.1914-1.7227-0.5742-2.1875s-0.8545-0.6973-1.415-0.6973c-0.5469,0-1.0039,0.2236-1.3706,0.6699
		S59.7578,13.7373,59.7578,14.6992z"/>
	<path class="st1" d="M71.6934,15.9844l1.2715,0.1572c-0.2007,0.7432-0.5718,1.3193-1.1143,1.7295s-1.2349,0.6152-2.0781,0.6152
		c-1.062,0-1.9038-0.3271-2.5259-0.9805c-0.6221-0.6543-0.9331-1.5713-0.9331-2.752c0-1.2217,0.3145-2.1689,0.9434-2.8438
		s1.4448-1.0117,2.4473-1.0117c0.9707,0,1.7637,0.3301,2.3789,0.9912s0.9229,1.5908,0.9229,2.7891
		c0,0.0732-0.0024,0.1826-0.0068,0.3281H67.585c0.0454,0.7979,0.271,1.4082,0.6768,1.832s0.9116,0.6357,1.5176,0.6357
		c0.4512,0,0.8364-0.1182,1.1553-0.3555S71.5064,16.5039,71.6934,15.9844z M67.6534,13.9951h4.0537
		c-0.0547-0.6104-0.2095-1.0684-0.4648-1.374c-0.3921-0.4736-0.8999-0.7109-1.5244-0.7109c-0.5649,0-1.04,0.1895-1.4253,0.5674
		S67.6944,13.3613,67.6534,13.9951z"/>
	<path class="st1" d="M74.4825,18.3223V8.3008h1.2305v10.0215H74.4825z"/>
	<path class="st1" d="M77.1621,14.6924c0-1.3447,0.3735-2.3398,1.1211-2.9873c0.6245-0.5381,1.3853-0.8066,2.2832-0.8066
		c0.998,0,1.814,0.3271,2.4473,0.9805c0.6333,0.6543,0.9502,1.5576,0.9502,2.7109c0,0.9346-0.1401,1.6689-0.4204,2.2051
		c-0.2803,0.5352-0.688,0.9512-1.2236,1.2471s-1.1201,0.4443-1.7534,0.4443c-1.0161,0-1.8379-0.3262-2.4644-0.9775
		S77.1621,15.918,77.1621,14.6924z M78.4268,14.6924c0,0.9297,0.2026,1.626,0.6084,2.0889c0.4058,0.4619,0.916,0.6934,1.5313,0.6934
		c0.6108,0,1.1187-0.2324,1.5244-0.6973s0.6084-1.1738,0.6084-2.126c0-0.8975-0.2041-1.5781-0.6118-2.04
		c-0.4077-0.4629-0.915-0.6943-1.521-0.6943c-0.6152,0-1.1255,0.2305-1.5313,0.6904S78.4268,13.7627,78.4268,14.6924z"/>
	<path class="st1" d="M84.9141,16.1553l1.2168-0.1914c0.0684,0.4873,0.2588,0.8613,0.5708,1.1211s0.7485,0.3896,1.3091,0.3896
		c0.5649,0,0.9844-0.1152,1.2578-0.3457c0.2734-0.2295,0.4102-0.5,0.4102-0.8096c0-0.2783-0.1206-0.4971-0.3623-0.6563
		c-0.1685-0.1094-0.5879-0.248-1.2578-0.417c-0.9023-0.2275-1.5278-0.4248-1.8765-0.5918c-0.3486-0.166-0.6128-0.3965-0.793-0.6895
		c-0.1802-0.2949-0.27-0.6191-0.27-0.9746c0-0.3232,0.0742-0.623,0.2222-0.8984c0.1479-0.2764,0.3496-0.5049,0.605-0.6875
		c0.1914-0.1416,0.4521-0.2607,0.7827-0.3594c0.3306-0.0977,0.6846-0.1465,1.063-0.1465c0.5698,0,1.0698,0.082,1.5005,0.2461
		s0.7485,0.3867,0.9536,0.666c0.2051,0.2813,0.3462,0.6553,0.4238,1.125l-1.2031,0.1641c-0.0547-0.374-0.2129-0.665-0.4751-0.875
		S88.3595,11.91,87.881,11.91c-0.5649,0-0.9683,0.0938-1.21,0.2803s-0.3623,0.4053-0.3623,0.6563
		c0,0.1592,0.0503,0.3027,0.1504,0.4307c0.1001,0.1318,0.2573,0.2412,0.4717,0.3281c0.123,0.0459,0.4854,0.1504,1.0869,0.3145
		c0.8706,0.2324,1.4775,0.4229,1.8218,0.5703c0.3442,0.1484,0.6143,0.3643,0.8101,0.6465s0.2939,0.6338,0.2939,1.0527
		c0,0.4102-0.1196,0.7969-0.3589,1.1582c-0.2393,0.3633-0.5845,0.6426-1.0356,0.8418c-0.4512,0.1973-0.9614,0.2969-1.5313,0.2969
		c-0.9434,0-1.6621-0.1963-2.1567-0.5879S85.0508,16.9258,84.9141,16.1553z"/>
	<path class="st1" d="M101.0332,17.4268c-0.4556,0.3877-0.8945,0.6611-1.3159,0.8203s-0.874,0.2393-1.3569,0.2393
		c-0.7974,0-1.4106-0.1953-1.8389-0.584c-0.4282-0.3906-0.6426-0.8877-0.6426-1.4941c0-0.3555,0.0811-0.6797,0.2427-0.9746
		c0.1616-0.293,0.3735-0.5293,0.6357-0.707s0.5571-0.3125,0.8853-0.4033c0.2417-0.0635,0.606-0.125,1.0938-0.1846
		c0.9937-0.1182,1.7251-0.2598,2.1943-0.4238c0.0044-0.1689,0.0068-0.2754,0.0068-0.3213c0-0.501-0.1162-0.8545-0.3486-1.0596
		c-0.3145-0.2783-0.7817-0.417-1.4014-0.417c-0.5786,0-1.0059,0.1016-1.2817,0.3037c-0.2759,0.2031-0.4795,0.5625-0.6118,1.0771
		l-1.2031-0.1641c0.1094-0.5146,0.2896-0.9307,0.54-1.2471c0.2505-0.3174,0.6128-0.5605,1.0869-0.7324
		c0.4741-0.1699,1.0229-0.2559,1.6475-0.2559c0.6196,0,1.1235,0.0732,1.5107,0.2188s0.6724,0.3291,0.8545,0.5508
		c0.1821,0.2207,0.3101,0.5,0.3828,0.8369c0.041,0.21,0.0615,0.5879,0.0615,1.1348v1.6406c0,1.1436,0.0264,1.8672,0.0786,2.1709
		c0.0522,0.3027,0.1563,0.5928,0.311,0.8711h-1.2852C101.1519,18.0674,101.0699,17.7686,101.0332,17.4268z M100.9307,14.6787
		c-0.4468,0.1826-1.1167,0.3369-2.0098,0.4648c-0.5059,0.0732-0.8638,0.1553-1.0732,0.2461s-0.3716,0.2246-0.4854,0.3994
		c-0.1138,0.1758-0.1709,0.3711-0.1709,0.585c0,0.3281,0.124,0.6016,0.3726,0.8203s0.6118,0.3281,1.0903,0.3281
		c0.4741,0,0.8955-0.1035,1.2646-0.3115c0.3691-0.207,0.6401-0.4902,0.8135-0.8506c0.1323-0.2783,0.1982-0.6885,0.1982-1.2305
		L100.9307,14.6787L100.9307,14.6787z M98.5381,10.1602l0.9092-1.9141h1.6133l-1.5039,1.9141H98.5381z"/>
	<path class="st1" d="M103.8565,18.9238l1.1963,0.1777c0.0508,0.3691,0.1895,0.6377,0.417,0.8066
		c0.3057,0.2275,0.7217,0.3418,1.251,0.3418c0.5703,0,1.0098-0.1143,1.3193-0.3418s0.5195-0.5469,0.6289-0.957
		c0.0635-0.251,0.0928-0.7773,0.0889-1.5791c-0.5371,0.6338-1.207,0.9502-2.0098,0.9502c-0.998,0-1.7705-0.3604-2.3174-1.0801
		s-0.8203-1.584-0.8203-2.5908c0-0.6924,0.1255-1.332,0.376-1.917c0.2505-0.5859,0.6143-1.0381,1.0898-1.3574
		c0.4766-0.3193,1.0361-0.4785,1.6787-0.4785c0.8564,0,1.5635,0.3467,2.1191,1.0391v-0.875h1.1348v6.2754
		c0,1.1299-0.1152,1.9316-0.3447,2.4023c-0.2305,0.4727-0.5957,0.8447-1.0938,1.1182c-0.5,0.2734-1.1133,0.4102-1.8428,0.4102
		c-0.8662,0-1.5654-0.1943-2.0986-0.585C104.0957,20.2949,103.8384,19.708,103.8565,18.9238z M104.875,14.5625
		c0,0.9521,0.1895,1.6475,0.5674,2.085s0.8525,0.6563,1.4219,0.6563c0.5654,0,1.0391-0.2178,1.4219-0.6533
		c0.3828-0.4346,0.5742-1.1172,0.5742-2.0469c0-0.8887-0.1973-1.5586-0.5908-2.0098c-0.3945-0.4512-0.8691-0.6768-1.4258-0.6768
		c-0.5469,0-1.0117,0.2217-1.3945,0.667C105.0664,13.0273,104.875,13.6875,104.875,14.5625z"/>
	<path class="st1" d="M111.875,9.7158v-1.415h1.2305v1.415H111.875z M111.875,18.3223v-7.2598h1.2305v7.2598H111.875z"/>
	<path class="st1" d="M114.9512,18.3223V8.3008h1.2305v10.0215H114.9512z"/>
	<path class="st1" d="M123.0586,15.9844l1.2715,0.1572c-0.2012,0.7432-0.5723,1.3193-1.1143,1.7295s-1.2354,0.6152-2.0781,0.6152
		c-1.0615,0-1.9033-0.3271-2.5264-0.9805c-0.6211-0.6543-0.9326-1.5713-0.9326-2.752c0-1.2217,0.3145-2.1689,0.9434-2.8438
		s1.4443-1.0117,2.4473-1.0117c0.9707,0,1.7637,0.3301,2.3789,0.9912s0.9229,1.5908,0.9229,2.7891
		c0,0.0732-0.002,0.1826-0.0068,0.3281h-5.4141c0.0459,0.7979,0.2705,1.4082,0.6768,1.832s0.9121,0.6357,1.5176,0.6357
		c0.4512,0,0.8359-0.1182,1.1553-0.3555S122.8711,16.5039,123.0586,15.9844z M119.0186,13.9951h4.0537
		c-0.0547-0.6104-0.209-1.0684-0.4648-1.374c-0.3926-0.4736-0.9004-0.7109-1.5244-0.7109c-0.5654,0-1.04,0.1895-1.4248,0.5674
		C119.2725,12.8555,119.0596,13.3613,119.0186,13.9951z"/>
	<path class="st1" d="M125.3828,16.1553l1.2168-0.1914c0.0684,0.4873,0.2588,0.8613,0.5703,1.1211
		c0.3125,0.2598,0.749,0.3896,1.3096,0.3896c0.5654,0,0.9844-0.1152,1.2578-0.3457c0.2734-0.2295,0.4102-0.5,0.4102-0.8096
		c0-0.2783-0.1201-0.4971-0.3623-0.6563c-0.168-0.1094-0.5879-0.248-1.2578-0.417c-0.9023-0.2275-1.5273-0.4248-1.877-0.5918
		c-0.3477-0.166-0.6123-0.3965-0.793-0.6895c-0.1797-0.2949-0.2695-0.6191-0.2695-0.9746c0-0.3232,0.0742-0.623,0.2227-0.8984
		c0.1475-0.2764,0.3496-0.5049,0.6045-0.6875c0.1914-0.1416,0.4521-0.2607,0.7822-0.3594c0.3311-0.0977,0.6855-0.1465,1.0635-0.1465
		c0.5693,0,1.0693,0.082,1.501,0.2461c0.4297,0.1641,0.748,0.3867,0.9531,0.666c0.2051,0.2813,0.3457,0.6553,0.4238,1.125
		l-1.2031,0.1641c-0.0547-0.374-0.2129-0.665-0.4746-0.875c-0.2627-0.21-0.6328-0.3145-1.1113-0.3145
		c-0.5645,0-0.9688,0.0938-1.21,0.2803s-0.3623,0.4053-0.3623,0.6563c0,0.1592,0.0508,0.3027,0.1504,0.4307
		c0.0996,0.1318,0.2578,0.2412,0.4717,0.3281c0.123,0.0459,0.4854,0.1504,1.0869,0.3145c0.8711,0.2324,1.4775,0.4229,1.8223,0.5703
		c0.3438,0.1484,0.6133,0.3643,0.8096,0.6465s0.2939,0.6338,0.2939,1.0527c0,0.4102-0.1191,0.7969-0.3594,1.1582
		c-0.2383,0.3633-0.584,0.6426-1.0352,0.8418c-0.4512,0.1973-0.9609,0.2969-1.5313,0.2969c-0.9434,0-1.6621-0.1963-2.1563-0.5879
		C125.835,17.5068,125.5196,16.9258,125.3828,16.1553z"/>
</g>
</svg>
