<?xml version="1.0" encoding="utf-8"?>
<!-- Generator: Adobe Illustrator 21.0.0, SVG Export Plug-In . SVG Version: 6.00 Build 0)  -->
<svg version="1.1" id="Capa_1" xmlns="http://www.w3.org/2000/svg" xmlns:xlink="http://www.w3.org/1999/xlink" x="0px" y="0px"
	 viewBox="0 0 205.6377 49" style="enable-background:new 0 0 205.6377 49;" xml:space="preserve">
<style type="text/css">
	.st0{fill-rule:evenodd;clip-rule:evenodd;fill:#FFFFFF;}
	.st1{fill:#FFFFFF;}
</style>
<g>
	<polygon id="XMLID_1_" class="st0" points="18.0088,9.2637 19.3877,13.9365 24.5186,14.0137 20.5362,16.8486 21.9912,21.6719 
		18.0879,18.7637 13.9512,21.6719 15.4815,17.0791 11.4248,14.0137 16.3242,14.0908 	"/>
	<path class="st1" d="M22.9077,22.9785l-4.8281-3.5977l-5.0825,3.5732l1.8965-5.6924l-4.9917-3.7725l6.0693,0.0957l2.0776-5.9531
		l1.7144,5.8105l6.2876,0.0947l-4.9321,3.5107L22.9077,22.9785z M12.9478,14.5381l3.1216,2.3584l-1.1641,3.4932l3.1909-2.2432
		l2.9785,2.2188l-1.1211-3.7158l3.0327-2.1592l-3.9741-0.0596l-1.0435-3.5352l-1.2915,3.7012L12.9478,14.5381z"/>
</g>
<g>
	<path class="st1" d="M46.7974,13.5957l1.3262,0.335c-0.2778,1.0889-0.7783,1.9199-1.5005,2.4912
		c-0.7222,0.5723-1.6055,0.8584-2.6489,0.8584c-1.0801,0-1.9585-0.2197-2.6353-0.6592c-0.6768-0.4404-1.1919-1.0771-1.5449-1.9111
		s-0.5298-1.7295-0.5298-2.6865c0-1.0439,0.1992-1.9541,0.5981-2.7305c0.3989-0.7773,0.9663-1.3672,1.7021-1.7715
		c0.7358-0.4023,1.5459-0.6045,2.4302-0.6045c1.0024,0,1.8457,0.2549,2.5293,0.7656s1.1597,1.2285,1.4287,2.1533l-1.3057,0.3076
		c-0.2324-0.7295-0.5698-1.2598-1.0117-1.5928s-0.998-0.499-1.668-0.499c-0.77,0-1.4141,0.1846-1.9312,0.5537
		s-0.8809,0.8652-1.0903,1.4863c-0.2095,0.623-0.3145,1.2637-0.3145,1.9248c0,0.8525,0.124,1.5967,0.3726,2.2314
		c0.2485,0.6367,0.6348,1.1113,1.1587,1.4258s1.0913,0.4717,1.7021,0.4717c0.7427,0,1.3716-0.2139,1.8867-0.6426
		S46.6153,14.4385,46.7974,13.5957z"/>
	<path class="st1" d="M49.1421,13.4795c0-1.3447,0.3735-2.3398,1.1211-2.9873c0.6245-0.5381,1.3853-0.8066,2.2832-0.8066
		c0.998,0,1.814,0.3271,2.4473,0.9805c0.6333,0.6543,0.9502,1.5576,0.9502,2.7109c0,0.9346-0.1401,1.6689-0.4204,2.2051
		c-0.2803,0.5352-0.688,0.9512-1.2236,1.2471s-1.1201,0.4443-1.7534,0.4443c-1.0161,0-1.8379-0.3262-2.4644-0.9775
		S49.1421,14.7051,49.1421,13.4795z M50.4068,13.4795c0,0.9297,0.2026,1.626,0.6084,2.0889
		c0.4058,0.4619,0.916,0.6934,1.5313,0.6934c0.6108,0,1.1187-0.2324,1.5244-0.6973s0.6084-1.1738,0.6084-2.126
		c0-0.8975-0.2041-1.5781-0.6118-2.04c-0.4077-0.4629-0.915-0.6943-1.521-0.6943c-0.6152,0-1.1255,0.2305-1.5313,0.6904
		S50.4068,12.5498,50.4068,13.4795z"/>
	<path class="st1" d="M57.3863,17.1094V9.8496h1.1006v1.0186c0.228-0.3555,0.5308-0.6416,0.9092-0.8584
		c0.3784-0.2158,0.8091-0.3242,1.292-0.3242c0.5376,0,0.9785,0.1113,1.3228,0.335s0.5869,0.5352,0.728,0.9365
		c0.5742-0.8477,1.3218-1.2715,2.2422-1.2715c0.7202,0,1.2739,0.1992,1.6611,0.5977c0.3872,0.3994,0.5811,1.0137,0.5811,1.8428
		v4.9834h-1.2236v-4.5732c0-0.4922-0.04-0.8467-0.1196-1.0635c-0.0796-0.2158-0.2246-0.3906-0.4341-0.5225
		s-0.4556-0.1982-0.7383-0.1982c-0.5103,0-0.9341,0.1699-1.2715,0.5098c-0.3374,0.3389-0.5059,0.8828-0.5059,1.6299v4.2178h-1.2305
		v-4.7168c0-0.5469-0.1001-0.957-0.3008-1.2305s-0.5288-0.4102-0.9844-0.4102c-0.3462,0-0.6665,0.0908-0.9604,0.2734
		s-0.5068,0.4492-0.6392,0.7998s-0.1982,0.8564-0.1982,1.5176v3.7666H57.3863z"/>
	<path class="st1" d="M74.0181,14.7715l1.2715,0.1572c-0.2007,0.7432-0.5718,1.3193-1.1143,1.7295s-1.2349,0.6152-2.0781,0.6152
		c-1.062,0-1.9038-0.3271-2.5259-0.9805c-0.6221-0.6543-0.9331-1.5713-0.9331-2.752c0-1.2217,0.3145-2.1689,0.9434-2.8438
		s1.4448-1.0117,2.4473-1.0117c0.9707,0,1.7637,0.3301,2.3789,0.9912s0.9229,1.5908,0.9229,2.7891
		c0,0.0732-0.0024,0.1826-0.0068,0.3281h-5.4141c0.0454,0.7979,0.271,1.4082,0.6768,1.832s0.9116,0.6357,1.5176,0.6357
		c0.4512,0,0.8364-0.1182,1.1553-0.3555S73.8311,15.291,74.0181,14.7715z M69.9781,12.7822h4.0537
		c-0.0547-0.6104-0.2095-1.0684-0.4648-1.374c-0.3921-0.4736-0.8999-0.7109-1.5244-0.7109c-0.5649,0-1.04,0.1895-1.4253,0.5674
		S70.0191,12.1484,69.9781,12.7822z"/>
	<path class="st1" d="M76.8345,17.1094V9.8496h1.1074v1.0322c0.5332-0.7979,1.3032-1.1963,2.3105-1.1963
		c0.4375,0,0.8398,0.0781,1.2065,0.2363c0.3667,0.1563,0.6416,0.3633,0.8237,0.6182s0.3101,0.5586,0.3828,0.9092
		c0.0454,0.2275,0.0684,0.627,0.0684,1.1963v4.4639h-1.2305v-4.416c0-0.501-0.0479-0.876-0.1436-1.125
		c-0.0957-0.248-0.2656-0.4463-0.5093-0.5938c-0.2437-0.1484-0.5298-0.2227-0.8579-0.2227c-0.5239,0-0.9766,0.166-1.3569,0.499
		s-0.5708,0.9639-0.5708,1.8936v3.9648H76.8345z"/>
	<path class="st1" d="M87.3072,16.0088l0.1777,1.0869c-0.3462,0.0732-0.6563,0.1094-0.9297,0.1094
		c-0.4468,0-0.793-0.0703-1.0391-0.2119s-0.4194-0.3271-0.5195-0.5576c-0.1001-0.2295-0.1504-0.7139-0.1504-1.4521v-4.1768h-0.9023
		v-0.957h0.9023V8.0518l1.2236-0.7383v2.5361h1.2373v0.957h-1.2373v4.2451c0,0.3506,0.0215,0.5762,0.0649,0.6768
		s0.1138,0.1797,0.2119,0.2393s0.2383,0.0889,0.4204,0.0889C86.9038,16.0566,87.084,16.041,87.3072,16.0088z"/>
	<path class="st1" d="M93.2476,16.2139c-0.4556,0.3877-0.8945,0.6611-1.3159,0.8203s-0.874,0.2393-1.3569,0.2393
		c-0.7974,0-1.4106-0.1953-1.8389-0.584c-0.4282-0.3906-0.6426-0.8877-0.6426-1.4941c0-0.3555,0.0811-0.6797,0.2427-0.9746
		c0.1616-0.293,0.3735-0.5293,0.6357-0.707s0.5571-0.3125,0.8853-0.4033c0.2417-0.0635,0.606-0.125,1.0938-0.1846
		c0.9937-0.1182,1.7251-0.2598,2.1943-0.4238c0.0044-0.1689,0.0068-0.2754,0.0068-0.3213c0-0.501-0.1162-0.8545-0.3486-1.0596
		c-0.3145-0.2783-0.7817-0.417-1.4014-0.417c-0.5786,0-1.0059,0.1016-1.2817,0.3037c-0.2759,0.2031-0.4795,0.5625-0.6118,1.0771
		l-1.2031-0.1641c0.1094-0.5146,0.2896-0.9307,0.54-1.2471c0.2505-0.3174,0.6128-0.5605,1.0869-0.7324
		c0.4741-0.1699,1.0229-0.2559,1.6475-0.2559c0.6196,0,1.1235,0.0732,1.5107,0.2188s0.6724,0.3291,0.8545,0.5508
		c0.1821,0.2207,0.3101,0.5,0.3828,0.8369c0.041,0.21,0.0615,0.5879,0.0615,1.1348v1.6406c0,1.1436,0.0264,1.8672,0.0786,2.1709
		c0.0522,0.3027,0.1563,0.5928,0.311,0.8711h-1.2852C93.3662,16.8545,93.2842,16.5557,93.2476,16.2139z M93.1451,13.4658
		c-0.4468,0.1826-1.1167,0.3369-2.0098,0.4648c-0.5059,0.0732-0.8638,0.1553-1.0732,0.2461s-0.3716,0.2246-0.4854,0.3994
		c-0.1138,0.1758-0.1709,0.3711-0.1709,0.585c0,0.3281,0.124,0.6016,0.3726,0.8203s0.6118,0.3281,1.0903,0.3281
		c0.4741,0,0.8955-0.1035,1.2646-0.3115c0.3691-0.207,0.6401-0.4902,0.8135-0.8506c0.1323-0.2783,0.1982-0.6885,0.1982-1.2305
		V13.4658z"/>
	<path class="st1" d="M96.2827,17.1094V9.8496h1.1074v1.1006c0.2827-0.5146,0.5435-0.8545,0.7827-1.0186
		s0.5024-0.2461,0.7896-0.2461c0.4146,0,0.8364,0.1318,1.2646,0.3965l-0.4238,1.1416c-0.3008-0.1777-0.6016-0.2666-0.9023-0.2666
		c-0.269,0-0.5103,0.0811-0.7246,0.2422c-0.2144,0.1621-0.3667,0.3867-0.458,0.6738c-0.1367,0.4375-0.2051,0.916-0.2051,1.4355
		v3.8008H96.2827z"/>
	<path class="st1" d="M100.9654,8.5029v-1.415h1.2305v1.415H100.9654z M100.9654,17.1094V9.8496h1.2305v7.2598H100.9654z"/>
	<path class="st1" d="M103.6109,13.4795c0-1.3447,0.3735-2.3398,1.1211-2.9873c0.6245-0.5381,1.3853-0.8066,2.2837-0.8066
		c0.998,0,1.8135,0.3271,2.4473,0.9805c0.6328,0.6543,0.9492,1.5576,0.9492,2.7109c0,0.9346-0.1396,1.6689-0.4199,2.2051
		c-0.2803,0.5352-0.6875,0.9512-1.2236,1.2471s-1.1201,0.4443-1.7529,0.4443c-1.0166,0-1.8379-0.3262-2.4648-0.9775
		C103.9243,15.6445,103.6109,14.7051,103.6109,13.4795z M104.8755,13.4795c0,0.9297,0.2026,1.626,0.6089,2.0889
		c0.4053,0.4619,0.916,0.6934,1.5313,0.6934c0.6104,0,1.1182-0.2324,1.5234-0.6973c0.4063-0.4648,0.6094-1.1738,0.6094-2.126
		c0-0.8975-0.2051-1.5781-0.6123-2.04c-0.4072-0.4629-0.915-0.6943-1.5205-0.6943c-0.6152,0-1.126,0.2305-1.5313,0.6904
		C105.0782,11.8545,104.8755,12.5498,104.8755,13.4795z"/>
	<path class="st1" d="M111.3633,14.9424l1.2168-0.1914c0.0684,0.4873,0.2578,0.8613,0.5703,1.1211s0.748,0.3896,1.3086,0.3896
		c0.5654,0,0.9844-0.1152,1.2578-0.3457c0.2734-0.2295,0.4102-0.5,0.4102-0.8096c0-0.2783-0.1201-0.4971-0.3613-0.6563
		c-0.1689-0.1094-0.5879-0.248-1.2578-0.417c-0.9023-0.2275-1.5283-0.4248-1.877-0.5918c-0.3486-0.166-0.6133-0.3965-0.793-0.6895
		c-0.1797-0.2949-0.2695-0.6191-0.2695-0.9746c0-0.3232,0.0742-0.623,0.2217-0.8984c0.1475-0.2764,0.3496-0.5049,0.6045-0.6875
		c0.1914-0.1416,0.4531-0.2607,0.7832-0.3594c0.3301-0.0977,0.6846-0.1465,1.0625-0.1465c0.5703,0,1.0703,0.082,1.501,0.2461
		s0.749,0.3867,0.9541,0.666c0.2051,0.2813,0.3457,0.6553,0.4238,1.125l-1.2031,0.1641c-0.0547-0.374-0.2129-0.665-0.4756-0.875
		s-0.6318-0.3145-1.1104-0.3145c-0.5654,0-0.9688,0.0938-1.2109,0.2803c-0.2412,0.1865-0.3613,0.4053-0.3613,0.6563
		c0,0.1592,0.0498,0.3027,0.1504,0.4307c0.0996,0.1318,0.2568,0.2412,0.4707,0.3281c0.123,0.0459,0.4863,0.1504,1.0879,0.3145
		c0.8701,0.2324,1.4766,0.4229,1.8213,0.5703c0.3447,0.1484,0.6143,0.3643,0.8096,0.6465c0.1963,0.2822,0.2949,0.6338,0.2949,1.0527
		c0,0.4102-0.1201,0.7969-0.3594,1.1582c-0.2393,0.3633-0.584,0.6426-1.0352,0.8418c-0.4512,0.1973-0.9619,0.2969-1.5313,0.2969
		c-0.9434,0-1.6621-0.1963-2.1572-0.5879S111.5,15.7129,111.3633,14.9424z"/>
	<path class="st1" d="M122.252,14.9424l1.2168-0.1914c0.0684,0.4873,0.2598,0.8613,0.5713,1.1211s0.749,0.3896,1.3096,0.3896
		c0.5645,0,0.9844-0.1152,1.2578-0.3457c0.2734-0.2295,0.4102-0.5,0.4102-0.8096c0-0.2783-0.1211-0.4971-0.3633-0.6563
		c-0.168-0.1094-0.5879-0.248-1.2578-0.417c-0.9023-0.2275-1.5273-0.4248-1.876-0.5918c-0.3486-0.166-0.6123-0.3965-0.793-0.6895
		c-0.1807-0.2949-0.2705-0.6191-0.2705-0.9746c0-0.3232,0.0742-0.623,0.2227-0.8984c0.1484-0.2764,0.3496-0.5049,0.6055-0.6875
		c0.1914-0.1416,0.4512-0.2607,0.7822-0.3594c0.3311-0.0977,0.6846-0.1465,1.0635-0.1465c0.5693,0,1.0693,0.082,1.5,0.2461
		s0.748,0.3867,0.9531,0.666c0.2051,0.2813,0.3467,0.6553,0.4238,1.125l-1.2031,0.1641c-0.0547-0.374-0.2129-0.665-0.4746-0.875
		s-0.6328-0.3145-1.1113-0.3145c-0.5645,0-0.9678,0.0938-1.209,0.2803c-0.2422,0.1865-0.3633,0.4053-0.3633,0.6563
		c0,0.1592,0.0508,0.3027,0.1504,0.4307c0.1006,0.1318,0.2578,0.2412,0.4727,0.3281c0.123,0.0459,0.4844,0.1504,1.0859,0.3145
		c0.8711,0.2324,1.4785,0.4229,1.8223,0.5703c0.3438,0.1484,0.6143,0.3643,0.8105,0.6465c0.1953,0.2822,0.293,0.6338,0.293,1.0527
		c0,0.4102-0.1191,0.7969-0.3584,1.1582c-0.2393,0.3633-0.585,0.6426-1.0361,0.8418c-0.4512,0.1973-0.9609,0.2969-1.5313,0.2969
		c-0.9434,0-1.6621-0.1963-2.1563-0.5879S122.3887,15.7129,122.252,14.9424z"/>
	<path class="st1" d="M129.2871,13.4795c0-1.3447,0.373-2.3398,1.1211-2.9873c0.624-0.5381,1.3848-0.8066,2.2832-0.8066
		c0.998,0,1.8135,0.3271,2.4473,0.9805c0.6328,0.6543,0.9492,1.5576,0.9492,2.7109c0,0.9346-0.1396,1.6689-0.4199,2.2051
		c-0.2803,0.5352-0.6875,0.9512-1.2236,1.2471s-1.1201,0.4443-1.7529,0.4443c-1.0166,0-1.8379-0.3262-2.4648-0.9775
		S129.2871,14.7051,129.2871,13.4795z M130.5508,13.4795c0,0.9297,0.2031,1.626,0.6094,2.0889
		c0.4053,0.4619,0.916,0.6934,1.5313,0.6934c0.6104,0,1.1182-0.2324,1.5234-0.6973c0.4063-0.4648,0.6094-1.1738,0.6094-2.126
		c0-0.8975-0.2051-1.5781-0.6123-2.04c-0.4072-0.4629-0.915-0.6943-1.5205-0.6943c-0.6152,0-1.126,0.2305-1.5313,0.6904
		C130.7539,11.8545,130.5508,12.5498,130.5508,13.4795z"/>
	<path class="st1" d="M138.666,17.1094h-1.1426V7.0879h1.2305v3.5752c0.5195-0.6514,1.1836-0.9775,1.9902-0.9775
		c0.4463,0,0.8691,0.0898,1.2676,0.2695c0.3984,0.1807,0.7266,0.4336,0.9844,0.7598c0.2578,0.3252,0.459,0.7188,0.6055,1.1787
		c0.1455,0.46,0.2188,0.9521,0.2188,1.4766c0,1.2441-0.3086,2.2061-0.9238,2.8848s-1.3535,1.0186-2.2148,1.0186
		c-0.8564,0-1.5283-0.3574-2.0156-1.0732V17.1094z M138.6524,13.4248c0,0.8701,0.1182,1.499,0.3555,1.8867
		c0.3867,0.6338,0.9111,0.9502,1.5723,0.9502c0.5371,0,1.002-0.2334,1.3945-0.7012c0.3916-0.4668,0.5879-1.1631,0.5879-2.0879
		c0-0.9482-0.1885-1.6475-0.5645-2.0986s-0.8301-0.6768-1.3633-0.6768c-0.5381,0-1.0029,0.2334-1.3945,0.7012
		C138.8477,11.8652,138.6524,12.541,138.6524,13.4248z"/>
	<path class="st1" d="M145.3028,17.1094V9.8496h1.1074v1.1006c0.2832-0.5146,0.5439-0.8545,0.7832-1.0186
		s0.502-0.2461,0.7891-0.2461c0.415,0,0.8369,0.1318,1.2656,0.3965l-0.4238,1.1416c-0.3008-0.1777-0.6016-0.2666-0.9023-0.2666
		c-0.2695,0-0.5107,0.0811-0.7246,0.2422c-0.2148,0.1621-0.3672,0.3867-0.459,0.6738c-0.1367,0.4375-0.2051,0.916-0.2051,1.4355
		v3.8008H145.3028z"/>
	<path class="st1" d="M154.9492,14.7715l1.2715,0.1572c-0.2012,0.7432-0.5723,1.3193-1.1152,1.7295
		c-0.542,0.4102-1.2344,0.6152-2.0781,0.6152c-1.0615,0-1.9033-0.3271-2.5254-0.9805c-0.6221-0.6543-0.9336-1.5713-0.9336-2.752
		c0-1.2217,0.3145-2.1689,0.9434-2.8438s1.4453-1.0117,2.4473-1.0117c0.9707,0,1.7637,0.3301,2.3789,0.9912
		s0.9238,1.5908,0.9238,2.7891c0,0.0732-0.0029,0.1826-0.0078,0.3281h-5.4141c0.0459,0.7979,0.2715,1.4082,0.6777,1.832
		c0.4053,0.4238,0.9111,0.6357,1.5176,0.6357c0.4512,0,0.8359-0.1182,1.1543-0.3555
		C154.5088,15.6689,154.7617,15.291,154.9492,14.7715z M150.9082,12.7822h4.0547c-0.0547-0.6104-0.21-1.0684-0.4648-1.374
		c-0.3926-0.4736-0.9004-0.7109-1.5254-0.7109c-0.5645,0-1.0391,0.1895-1.4248,0.5674S150.9492,12.1484,150.9082,12.7822z"/>
	<path class="st1" d="M161.627,17.1094V7.0879h1.2305v10.0215H161.627z"/>
	<path class="st1" d="M164.3067,13.4795c0-1.3447,0.374-2.3398,1.1211-2.9873c0.625-0.5381,1.3857-0.8066,2.2832-0.8066
		c0.998,0,1.8145,0.3271,2.4473,0.9805c0.6338,0.6543,0.9512,1.5576,0.9512,2.7109c0,0.9346-0.1406,1.6689-0.4209,2.2051
		c-0.2803,0.5352-0.6885,0.9512-1.2236,1.2471s-1.1201,0.4443-1.7539,0.4443c-1.0156,0-1.8379-0.3262-2.4639-0.9775
		S164.3067,14.7051,164.3067,13.4795z M165.5723,13.4795c0,0.9297,0.2021,1.626,0.6074,2.0889
		c0.4063,0.4619,0.916,0.6934,1.5313,0.6934c0.6113,0,1.1191-0.2324,1.5254-0.6973c0.4053-0.4648,0.6074-1.1738,0.6074-2.126
		c0-0.8975-0.2031-1.5781-0.6113-2.04c-0.4082-0.4629-0.915-0.6943-1.5215-0.6943c-0.6152,0-1.125,0.2305-1.5313,0.6904
		C165.7744,11.8545,165.5723,12.5498,165.5723,13.4795z"/>
	<path class="st1" d="M172.0586,14.9424l1.2168-0.1914c0.0684,0.4873,0.2598,0.8613,0.5713,1.1211s0.749,0.3896,1.3096,0.3896
		c0.5645,0,0.9844-0.1152,1.2578-0.3457c0.2734-0.2295,0.4102-0.5,0.4102-0.8096c0-0.2783-0.1211-0.4971-0.3633-0.6563
		c-0.168-0.1094-0.5879-0.248-1.2578-0.417c-0.9023-0.2275-1.5273-0.4248-1.876-0.5918c-0.3486-0.166-0.6123-0.3965-0.793-0.6895
		c-0.1807-0.2949-0.2705-0.6191-0.2705-0.9746c0-0.3232,0.0742-0.623,0.2227-0.8984c0.1484-0.2764,0.3496-0.5049,0.6055-0.6875
		c0.1914-0.1416,0.4512-0.2607,0.7822-0.3594c0.3311-0.0977,0.6846-0.1465,1.0635-0.1465c0.5693,0,1.0693,0.082,1.5,0.2461
		s0.748,0.3867,0.9531,0.666c0.2051,0.2813,0.3467,0.6553,0.4238,1.125l-1.2031,0.1641c-0.0547-0.374-0.2129-0.665-0.4746-0.875
		s-0.6328-0.3145-1.1113-0.3145c-0.5645,0-0.9678,0.0938-1.209,0.2803c-0.2422,0.1865-0.3633,0.4053-0.3633,0.6563
		c0,0.1592,0.0508,0.3027,0.1504,0.4307c0.1006,0.1318,0.2578,0.2412,0.4727,0.3281c0.123,0.0459,0.4844,0.1504,1.0859,0.3145
		c0.8711,0.2324,1.4785,0.4229,1.8223,0.5703c0.3438,0.1484,0.6143,0.3643,0.8105,0.6465c0.1953,0.2822,0.293,0.6338,0.293,1.0527
		c0,0.4102-0.1191,0.7969-0.3584,1.1582c-0.2393,0.3633-0.585,0.6426-1.0361,0.8418c-0.4512,0.1973-0.9609,0.2969-1.5313,0.2969
		c-0.9434,0-1.6621-0.1963-2.1563-0.5879S172.1953,15.7129,172.0586,14.9424z"/>
	<path class="st1" d="M39.4898,31.1094v-7.2598h1.1006v1.0186c0.228-0.3555,0.5308-0.6416,0.9092-0.8584
		c0.3784-0.2158,0.8091-0.3242,1.292-0.3242c0.5376,0,0.9785,0.1113,1.3228,0.335s0.5869,0.5352,0.728,0.9365
		c0.5742-0.8477,1.3218-1.2715,2.2422-1.2715c0.7202,0,1.2739,0.1992,1.6611,0.5977c0.3872,0.3994,0.5811,1.0137,0.5811,1.8428
		v4.9834h-1.2236v-4.5732c0-0.4922-0.04-0.8467-0.1196-1.0635c-0.0796-0.2158-0.2246-0.3906-0.4341-0.5225
		s-0.4556-0.1982-0.7383-0.1982c-0.5103,0-0.9341,0.1699-1.2715,0.5098c-0.3374,0.3389-0.5059,0.8828-0.5059,1.6299v4.2178h-1.2305
		v-4.7168c0-0.5469-0.1001-0.957-0.3008-1.2305s-0.5288-0.4102-0.9844-0.4102c-0.3462,0-0.6665,0.0908-0.9604,0.2734
		s-0.5068,0.4492-0.6392,0.7998s-0.1982,0.8564-0.1982,1.5176v3.7666H39.4898z"/>
	<path class="st1" d="M50.6939,27.4795c0-1.3447,0.3735-2.3398,1.1211-2.9873c0.6245-0.5381,1.3853-0.8066,2.2832-0.8066
		c0.998,0,1.814,0.3271,2.4473,0.9805c0.6333,0.6543,0.9502,1.5576,0.9502,2.7109c0,0.9346-0.1401,1.6689-0.4204,2.2051
		c-0.2803,0.5352-0.688,0.9512-1.2236,1.2471s-1.1201,0.4443-1.7534,0.4443c-1.0161,0-1.8379-0.3262-2.4644-0.9775
		S50.6939,28.7051,50.6939,27.4795z M51.9585,27.4795c0,0.9297,0.2026,1.626,0.6084,2.0889
		c0.4058,0.4619,0.916,0.6934,1.5313,0.6934c0.6108,0,1.1187-0.2324,1.5244-0.6973s0.6084-1.1738,0.6084-2.126
		c0-0.8975-0.2041-1.5781-0.6118-2.04c-0.4077-0.4629-0.915-0.6943-1.521-0.6943c-0.6152,0-1.1255,0.2305-1.5313,0.6904
		S51.9585,26.5498,51.9585,27.4795z"/>
	<path class="st1" d="M63.648,31.1094v-0.916c-0.4604,0.7197-1.1372,1.0801-2.0303,1.0801c-0.5786,0-1.1108-0.1592-1.5962-0.4785
		s-0.8613-0.7646-1.1279-1.3359c-0.2666-0.5723-0.3999-1.2295-0.3999-1.9727c0-0.7246,0.1206-1.3818,0.3623-1.9727
		c0.2417-0.5898,0.604-1.042,1.0869-1.3564s1.0229-0.4717,1.6201-0.4717c0.4375,0,0.8271,0.0918,1.1689,0.2773
		c0.3418,0.1836,0.6196,0.4248,0.834,0.7207v-3.5957h1.2236v10.0215H63.648z M59.7583,27.4863c0,0.9297,0.1958,1.625,0.5879,2.085
		s0.8545,0.6904,1.3877,0.6904c0.5376,0,0.9946-0.2197,1.3706-0.6602c0.376-0.4395,0.564-1.1104,0.564-2.0127
		c0-0.9932-0.1914-1.7227-0.5742-2.1875s-0.8545-0.6973-1.415-0.6973c-0.5469,0-1.0039,0.2236-1.3706,0.6699
		S59.7583,26.5244,59.7583,27.4863z"/>
	<path class="st1" d="M71.6939,28.7715l1.2715,0.1572c-0.2007,0.7432-0.5718,1.3193-1.1143,1.7295s-1.2349,0.6152-2.0781,0.6152
		c-1.062,0-1.9038-0.3271-2.5259-0.9805c-0.6221-0.6543-0.9331-1.5713-0.9331-2.752c0-1.2217,0.3145-2.1689,0.9434-2.8438
		s1.4448-1.0117,2.4473-1.0117c0.9707,0,1.7637,0.3301,2.3789,0.9912s0.9229,1.5908,0.9229,2.7891
		c0,0.0732-0.0024,0.1826-0.0068,0.3281h-5.4141c0.0454,0.7979,0.271,1.4082,0.6768,1.832s0.9116,0.6357,1.5176,0.6357
		c0.4512,0,0.8364-0.1182,1.1553-0.3555S71.5069,29.291,71.6939,28.7715z M67.6538,26.7822h4.0537
		c-0.0547-0.6104-0.2095-1.0684-0.4648-1.374c-0.3921-0.4736-0.8999-0.7109-1.5244-0.7109c-0.5649,0-1.04,0.1895-1.4253,0.5674
		S67.6949,26.1484,67.6538,26.7822z"/>
	<path class="st1" d="M74.4829,31.1094V21.0879h1.2305v10.0215H74.4829z"/>
	<path class="st1" d="M77.1626,27.4795c0-1.3447,0.3735-2.3398,1.1211-2.9873c0.6245-0.5381,1.3853-0.8066,2.2832-0.8066
		c0.998,0,1.814,0.3271,2.4473,0.9805c0.6333,0.6543,0.9502,1.5576,0.9502,2.7109c0,0.9346-0.1401,1.6689-0.4204,2.2051
		c-0.2803,0.5352-0.688,0.9512-1.2236,1.2471s-1.1201,0.4443-1.7534,0.4443c-1.0161,0-1.8379-0.3262-2.4644-0.9775
		S77.1626,28.7051,77.1626,27.4795z M78.4273,27.4795c0,0.9297,0.2026,1.626,0.6084,2.0889
		c0.4058,0.4619,0.916,0.6934,1.5313,0.6934c0.6108,0,1.1187-0.2324,1.5244-0.6973s0.6084-1.1738,0.6084-2.126
		c0-0.8975-0.2041-1.5781-0.6118-2.04c-0.4077-0.4629-0.915-0.6943-1.521-0.6943c-0.6152,0-1.1255,0.2305-1.5313,0.6904
		S78.4273,26.5498,78.4273,27.4795z"/>
	<path class="st1" d="M84.9146,28.9424l1.2168-0.1914c0.0684,0.4873,0.2588,0.8613,0.5708,1.1211s0.7485,0.3896,1.3091,0.3896
		c0.5649,0,0.9844-0.1152,1.2578-0.3457c0.2734-0.2295,0.4102-0.5,0.4102-0.8096c0-0.2783-0.1206-0.4971-0.3623-0.6563
		c-0.1685-0.1094-0.5879-0.248-1.2578-0.417c-0.9023-0.2275-1.5278-0.4248-1.8765-0.5918c-0.3486-0.166-0.6128-0.3965-0.793-0.6895
		c-0.1802-0.2949-0.27-0.6191-0.27-0.9746c0-0.3232,0.0742-0.623,0.2222-0.8984c0.1479-0.2764,0.3496-0.5049,0.605-0.6875
		c0.1914-0.1416,0.4521-0.2607,0.7827-0.3594c0.3306-0.0977,0.6846-0.1465,1.063-0.1465c0.5698,0,1.0698,0.082,1.5005,0.2461
		s0.7485,0.3867,0.9536,0.666c0.2051,0.2813,0.3462,0.6553,0.4238,1.125l-1.2031,0.1641c-0.0547-0.374-0.2129-0.665-0.4751-0.875
		s-0.6323-0.3145-1.1108-0.3145c-0.5649,0-0.9683,0.0938-1.21,0.2803s-0.3623,0.4053-0.3623,0.6563
		c0,0.1592,0.0503,0.3027,0.1504,0.4307c0.1001,0.1318,0.2573,0.2412,0.4717,0.3281c0.123,0.0459,0.4854,0.1504,1.0869,0.3145
		c0.8706,0.2324,1.4775,0.4229,1.8218,0.5703c0.3442,0.1484,0.6143,0.3643,0.8101,0.6465s0.2939,0.6338,0.2939,1.0527
		c0,0.4102-0.1196,0.7969-0.3589,1.1582c-0.2393,0.3633-0.5845,0.6426-1.0356,0.8418c-0.4512,0.1973-0.9614,0.2969-1.5313,0.2969
		c-0.9434,0-1.6621-0.1963-2.1567-0.5879S85.0513,29.7129,84.9146,28.9424z"/>
	<path class="st1" d="M101.0064,31.1094v-0.916c-0.4604,0.7197-1.1372,1.0801-2.0303,1.0801c-0.5786,0-1.1108-0.1592-1.5962-0.4785
		s-0.8613-0.7646-1.1279-1.3359c-0.2666-0.5723-0.3999-1.2295-0.3999-1.9727c0-0.7246,0.1206-1.3818,0.3623-1.9727
		c0.2417-0.5898,0.604-1.042,1.0869-1.3564s1.0229-0.4717,1.6201-0.4717c0.4375,0,0.8271,0.0918,1.1689,0.2773
		c0.3418,0.1836,0.6196,0.4248,0.834,0.7207v-3.5957h1.2236v10.0215H101.0064z M97.1167,27.4863c0,0.9297,0.1958,1.625,0.5879,2.085
		s0.8545,0.6904,1.3877,0.6904c0.5376,0,0.9946-0.2197,1.3706-0.6602c0.376-0.4395,0.564-1.1104,0.564-2.0127
		c0-0.9932-0.1914-1.7227-0.5742-2.1875s-0.8545-0.6973-1.415-0.6973c-0.5469,0-1.0039,0.2236-1.3706,0.6699
		S97.1167,26.5244,97.1167,27.4863z"/>
	<path class="st1" d="M109.0528,28.7715l1.2715,0.1572c-0.2012,0.7432-0.5723,1.3193-1.1152,1.7295
		c-0.542,0.4102-1.2344,0.6152-2.0781,0.6152c-1.0615,0-1.9033-0.3271-2.5254-0.9805c-0.6221-0.6543-0.9331-1.5713-0.9331-2.752
		c0-1.2217,0.3145-2.1689,0.9434-2.8438c0.6284-0.6748,1.4448-1.0117,2.4468-1.0117c0.9707,0,1.7637,0.3301,2.3789,0.9912
		s0.9238,1.5908,0.9238,2.7891c0,0.0732-0.0029,0.1826-0.0078,0.3281h-5.4136c0.0454,0.7979,0.271,1.4082,0.6772,1.832
		c0.4053,0.4238,0.9111,0.6357,1.5176,0.6357c0.4512,0,0.8359-0.1182,1.1543-0.3555
		C108.6123,29.6689,108.8653,29.291,109.0528,28.7715z M105.0122,26.7822h4.0542c-0.0547-0.6104-0.21-1.0684-0.4648-1.374
		c-0.3926-0.4736-0.9004-0.7109-1.5254-0.7109c-0.5645,0-1.0391,0.1895-1.4248,0.5674S105.0528,26.1484,105.0122,26.7822z"/>
	<path class="st1" d="M115.7578,33.8916v-10.042h1.1211v0.9434c0.2646-0.3691,0.5635-0.6465,0.8965-0.8301
		c0.332-0.1855,0.7354-0.2773,1.209-0.2773c0.6201,0,1.167,0.1592,1.6406,0.4785c0.4746,0.3193,0.832,0.7695,1.0742,1.3496
		c0.2412,0.582,0.3613,1.2188,0.3613,1.9111c0,0.7432-0.1328,1.4111-0.3994,2.0068c-0.2666,0.5938-0.6533,1.0498-1.1621,1.3672
		c-0.5088,0.3164-1.042,0.4746-1.6025,0.4746c-0.4102,0-0.7793-0.0869-1.1045-0.2598s-0.5938-0.3916-0.8037-0.6563v3.5342H115.7578z
		 M116.8731,27.5205c0,0.9346,0.1885,1.625,0.5664,2.0713c0.3789,0.4463,0.8369,0.6699,1.375,0.6699
		c0.5469,0,1.0146-0.2314,1.4043-0.6934c0.3896-0.4629,0.584-1.1797,0.584-2.1504c0-0.9248-0.1895-1.6182-0.5703-2.0781
		s-0.835-0.6904-1.3633-0.6904c-0.5244,0-0.9883,0.2451-1.3916,0.7354C117.0742,25.874,116.8731,26.5859,116.8731,27.5205z"/>
	<path class="st1" d="M123.5313,31.1094v-7.2598h1.1074v1.1006c0.2822-0.5146,0.543-0.8545,0.7822-1.0186s0.5029-0.2461,0.79-0.2461
		c0.4141,0,0.8359,0.1318,1.2637,0.3965l-0.4238,1.1416c-0.3008-0.1777-0.6016-0.2666-0.9023-0.2666
		c-0.2686,0-0.5098,0.0811-0.7246,0.2422c-0.2139,0.1621-0.3662,0.3867-0.457,0.6738c-0.1367,0.4375-0.2051,0.916-0.2051,1.4355
		v3.8008H123.5313z"/>
	<path class="st1" d="M127.7481,27.4795c0-1.3447,0.374-2.3398,1.1211-2.9873c0.625-0.5381,1.3857-0.8066,2.2832-0.8066
		c0.998,0,1.8145,0.3271,2.4473,0.9805c0.6338,0.6543,0.9512,1.5576,0.9512,2.7109c0,0.9346-0.1406,1.6689-0.4209,2.2051
		c-0.2803,0.5352-0.6885,0.9512-1.2236,1.2471s-1.1201,0.4443-1.7539,0.4443c-1.0156,0-1.8379-0.3262-2.4639-0.9775
		S127.7481,28.7051,127.7481,27.4795z M129.0137,27.4795c0,0.9297,0.2021,1.626,0.6074,2.0889
		c0.4063,0.4619,0.916,0.6934,1.5313,0.6934c0.6113,0,1.1191-0.2324,1.5254-0.6973c0.4053-0.4648,0.6074-1.1738,0.6074-2.126
		c0-0.8975-0.2031-1.5781-0.6113-2.04c-0.4082-0.4629-0.915-0.6943-1.5215-0.6943c-0.6152,0-1.125,0.2305-1.5313,0.6904
		C129.2159,25.8545,129.0137,26.5498,129.0137,27.4795z"/>
	<path class="st1" d="M140.7305,28.4502l1.209,0.1572c-0.1318,0.834-0.4707,1.4863-1.0146,1.959
		c-0.5439,0.4707-1.2139,0.707-2.0068,0.707c-0.9932,0-1.791-0.3242-2.3955-0.9746c-0.6045-0.6484-0.9053-1.5801-0.9053-2.792
		c0-0.7842,0.1289-1.4697,0.3887-2.0576s0.6563-1.0293,1.1865-1.3223c0.5303-0.2949,1.1084-0.4414,1.7334-0.4414
		c0.7881,0,1.4326,0.1992,1.9336,0.5977c0.502,0.3994,0.8232,0.9658,0.9648,1.6992l-1.1973,0.1846
		c-0.1133-0.4873-0.3145-0.8545-0.6045-1.1006s-0.6396-0.3691-1.0498-0.3691c-0.6191,0-1.123,0.2227-1.5098,0.666
		c-0.3877,0.4453-0.582,1.1475-0.582,2.1094c0,0.9756,0.1875,1.6836,0.5605,2.126c0.374,0.4424,0.8613,0.6631,1.4629,0.6631
		c0.4834,0,0.8867-0.1484,1.2109-0.4443C140.4385,29.5215,140.6436,29.0654,140.7305,28.4502z"/>
	<path class="st1" d="M147.9629,28.7715l1.2715,0.1572c-0.2012,0.7432-0.5723,1.3193-1.1152,1.7295
		c-0.542,0.4102-1.2344,0.6152-2.0781,0.6152c-1.0615,0-1.9033-0.3271-2.5254-0.9805c-0.6221-0.6543-0.9336-1.5713-0.9336-2.752
		c0-1.2217,0.3145-2.1689,0.9434-2.8438s1.4453-1.0117,2.4473-1.0117c0.9707,0,1.7637,0.3301,2.3789,0.9912
		s0.9238,1.5908,0.9238,2.7891c0,0.0732-0.0029,0.1826-0.0078,0.3281h-5.4141c0.0459,0.7979,0.2715,1.4082,0.6777,1.832
		c0.4053,0.4238,0.9111,0.6357,1.5176,0.6357c0.4512,0,0.8359-0.1182,1.1543-0.3555
		C147.5225,29.6689,147.7754,29.291,147.9629,28.7715z M143.9219,26.7822h4.0547c-0.0547-0.6104-0.21-1.0684-0.4648-1.374
		c-0.3926-0.4736-0.9004-0.7109-1.5254-0.7109c-0.5645,0-1.0391,0.1895-1.4248,0.5674S143.9629,26.1484,143.9219,26.7822z"/>
	<path class="st1" d="M150.2871,28.9424l1.2168-0.1914c0.0684,0.4873,0.2578,0.8613,0.5703,1.1211s0.748,0.3896,1.3086,0.3896
		c0.5654,0,0.9844-0.1152,1.2578-0.3457c0.2734-0.2295,0.4102-0.5,0.4102-0.8096c0-0.2783-0.1201-0.4971-0.3613-0.6563
		c-0.1689-0.1094-0.5879-0.248-1.2578-0.417c-0.9023-0.2275-1.5283-0.4248-1.877-0.5918c-0.3486-0.166-0.6133-0.3965-0.793-0.6895
		c-0.1797-0.2949-0.2695-0.6191-0.2695-0.9746c0-0.3232,0.0742-0.623,0.2217-0.8984c0.1475-0.2764,0.3496-0.5049,0.6045-0.6875
		c0.1914-0.1416,0.4531-0.2607,0.7832-0.3594c0.3301-0.0977,0.6846-0.1465,1.0625-0.1465c0.5703,0,1.0703,0.082,1.501,0.2461
		s0.749,0.3867,0.9541,0.666c0.2051,0.2813,0.3457,0.6553,0.4238,1.125l-1.2031,0.1641c-0.0547-0.374-0.2129-0.665-0.4756-0.875
		s-0.6318-0.3145-1.1104-0.3145c-0.5654,0-0.9688,0.0938-1.2109,0.2803c-0.2412,0.1865-0.3613,0.4053-0.3613,0.6563
		c0,0.1592,0.0498,0.3027,0.1504,0.4307c0.0996,0.1318,0.2568,0.2412,0.4707,0.3281c0.123,0.0459,0.4863,0.1504,1.0879,0.3145
		c0.8701,0.2324,1.4766,0.4229,1.8213,0.5703c0.3447,0.1484,0.6143,0.3643,0.8096,0.6465c0.1963,0.2822,0.2949,0.6338,0.2949,1.0527
		c0,0.4102-0.1201,0.7969-0.3594,1.1582c-0.2393,0.3633-0.584,0.6426-1.0352,0.8418c-0.4512,0.1973-0.9619,0.2969-1.5313,0.2969
		c-0.9434,0-1.6621-0.1963-2.1572-0.5879S150.4239,29.7129,150.2871,28.9424z"/>
	<path class="st1" d="M157.3203,27.4795c0-1.3447,0.374-2.3398,1.1211-2.9873c0.625-0.5381,1.3857-0.8066,2.2832-0.8066
		c0.998,0,1.8145,0.3271,2.4473,0.9805c0.6338,0.6543,0.9512,1.5576,0.9512,2.7109c0,0.9346-0.1406,1.6689-0.4209,2.2051
		c-0.2803,0.5352-0.6885,0.9512-1.2236,1.2471s-1.1201,0.4443-1.7539,0.4443c-1.0156,0-1.8379-0.3262-2.4639-0.9775
		S157.3203,28.7051,157.3203,27.4795z M158.586,27.4795c0,0.9297,0.2021,1.626,0.6074,2.0889
		c0.4063,0.4619,0.916,0.6934,1.5313,0.6934c0.6113,0,1.1191-0.2324,1.5254-0.6973c0.4053-0.4648,0.6074-1.1738,0.6074-2.126
		c0-0.8975-0.2031-1.5781-0.6113-2.04c-0.4082-0.4629-0.915-0.6943-1.5215-0.6943c-0.6152,0-1.125,0.2305-1.5313,0.6904
		C158.7881,25.8545,158.586,26.5498,158.586,27.4795z"/>
	<path class="st1" d="M165.0723,28.9424l1.2168-0.1914c0.0684,0.4873,0.2598,0.8613,0.5713,1.1211s0.749,0.3896,1.3096,0.3896
		c0.5645,0,0.9844-0.1152,1.2578-0.3457c0.2734-0.2295,0.4102-0.5,0.4102-0.8096c0-0.2783-0.1211-0.4971-0.3633-0.6563
		c-0.168-0.1094-0.5879-0.248-1.2578-0.417c-0.9023-0.2275-1.5273-0.4248-1.876-0.5918c-0.3486-0.166-0.6123-0.3965-0.793-0.6895
		c-0.1807-0.2949-0.2705-0.6191-0.2705-0.9746c0-0.3232,0.0742-0.623,0.2227-0.8984c0.1484-0.2764,0.3496-0.5049,0.6055-0.6875
		c0.1914-0.1416,0.4512-0.2607,0.7822-0.3594c0.3311-0.0977,0.6846-0.1465,1.0635-0.1465c0.5693,0,1.0693,0.082,1.5,0.2461
		s0.748,0.3867,0.9531,0.666c0.2051,0.2813,0.3467,0.6553,0.4238,1.125l-1.2031,0.1641c-0.0547-0.374-0.2129-0.665-0.4746-0.875
		s-0.6328-0.3145-1.1113-0.3145c-0.5645,0-0.9678,0.0938-1.209,0.2803c-0.2422,0.1865-0.3633,0.4053-0.3633,0.6563
		c0,0.1592,0.0508,0.3027,0.1504,0.4307c0.1006,0.1318,0.2578,0.2412,0.4727,0.3281c0.123,0.0459,0.4844,0.1504,1.0859,0.3145
		c0.8711,0.2324,1.4785,0.4229,1.8223,0.5703c0.3438,0.1484,0.6143,0.3643,0.8105,0.6465c0.1953,0.2822,0.293,0.6338,0.293,1.0527
		c0,0.4102-0.1191,0.7969-0.3584,1.1582c-0.2393,0.3633-0.585,0.6426-1.0361,0.8418c-0.4512,0.1973-0.9609,0.2969-1.5313,0.2969
		c-0.9434,0-1.6621-0.1963-2.1563-0.5879S165.209,29.7129,165.0723,28.9424z"/>
	<path class="st1" d="M181.1641,31.1094v-0.916c-0.46,0.7197-1.1367,1.0801-2.0293,1.0801c-0.5791,0-1.1113-0.1592-1.5967-0.4785
		s-0.8613-0.7646-1.1279-1.3359c-0.2666-0.5723-0.4004-1.2295-0.4004-1.9727c0-0.7246,0.1211-1.3818,0.3633-1.9727
		c0.2412-0.5898,0.6035-1.042,1.0859-1.3564c0.4834-0.3145,1.0234-0.4717,1.6211-0.4717c0.4375,0,0.8262,0.0918,1.168,0.2773
		c0.3418,0.1836,0.6201,0.4248,0.834,0.7207v-3.5957h1.2246v10.0215H181.1641z M177.2754,27.4863
		c0,0.9297,0.1953,1.625,0.5879,2.085c0.3916,0.46,0.8535,0.6904,1.3867,0.6904c0.5381,0,0.9951-0.2197,1.3711-0.6602
		c0.376-0.4395,0.5645-1.1104,0.5645-2.0127c0-0.9932-0.1914-1.7227-0.5742-2.1875s-0.8555-0.6973-1.416-0.6973
		c-0.5469,0-1.0039,0.2236-1.3701,0.6699S177.2754,26.5244,177.2754,27.4863z"/>
	<path class="st1" d="M189.211,28.7715l1.2715,0.1572c-0.2012,0.7432-0.5723,1.3193-1.1152,1.7295
		c-0.542,0.4102-1.2344,0.6152-2.0781,0.6152c-1.0615,0-1.9033-0.3271-2.5254-0.9805c-0.6221-0.6543-0.9336-1.5713-0.9336-2.752
		c0-1.2217,0.3145-2.1689,0.9434-2.8438s1.4453-1.0117,2.4473-1.0117c0.9707,0,1.7637,0.3301,2.3789,0.9912
		s0.9238,1.5908,0.9238,2.7891c0,0.0732-0.0029,0.1826-0.0078,0.3281h-5.4141c0.0459,0.7979,0.2715,1.4082,0.6777,1.832
		c0.4053,0.4238,0.9111,0.6357,1.5176,0.6357c0.4512,0,0.8359-0.1182,1.1543-0.3555
		C188.7705,29.6689,189.0235,29.291,189.211,28.7715z M185.17,26.7822h4.0547c-0.0547-0.6104-0.21-1.0684-0.4648-1.374
		c-0.3926-0.4736-0.9004-0.7109-1.5254-0.7109c-0.5645,0-1.0391,0.1895-1.4248,0.5674S185.211,26.1484,185.17,26.7822z"/>
	<path class="st1" d="M38.9976,42.9424l1.2168-0.1914c0.0684,0.4873,0.2588,0.8613,0.5708,1.1211s0.7485,0.3896,1.3091,0.3896
		c0.5649,0,0.9844-0.1152,1.2578-0.3457c0.2734-0.2295,0.4102-0.5,0.4102-0.8096c0-0.2783-0.1206-0.4971-0.3623-0.6563
		c-0.1685-0.1094-0.5879-0.248-1.2578-0.417c-0.9023-0.2275-1.5278-0.4248-1.8765-0.5918c-0.3486-0.166-0.6128-0.3965-0.793-0.6895
		c-0.1802-0.2949-0.27-0.6191-0.27-0.9746c0-0.3232,0.0742-0.623,0.2222-0.8984c0.1479-0.2764,0.3496-0.5049,0.605-0.6875
		c0.1914-0.1416,0.4521-0.2607,0.7827-0.3594c0.3306-0.0977,0.6846-0.1465,1.063-0.1465c0.5698,0,1.0698,0.082,1.5005,0.2461
		s0.7485,0.3867,0.9536,0.666c0.2051,0.2813,0.3462,0.6553,0.4238,1.125l-1.2031,0.1641c-0.0547-0.374-0.2129-0.665-0.4751-0.875
		s-0.6323-0.3145-1.1108-0.3145c-0.5649,0-0.9683,0.0938-1.21,0.2803s-0.3623,0.4053-0.3623,0.6563
		c0,0.1592,0.0503,0.3027,0.1504,0.4307c0.1001,0.1318,0.2573,0.2412,0.4717,0.3281c0.123,0.0459,0.4854,0.1504,1.0869,0.3145
		c0.8706,0.2324,1.4775,0.4229,1.8218,0.5703c0.3442,0.1484,0.6143,0.3643,0.8101,0.6465s0.2939,0.6338,0.2939,1.0527
		c0,0.4102-0.1196,0.7969-0.3589,1.1582c-0.2393,0.3633-0.5845,0.6426-1.0356,0.8418c-0.4512,0.1973-0.9614,0.2969-1.5313,0.2969
		c-0.9434,0-1.6621-0.1963-2.1567-0.5879S39.1343,43.7129,38.9976,42.9424z"/>
	<path class="st1" d="M46.0318,41.4795c0-1.3447,0.3735-2.3398,1.1211-2.9873c0.6245-0.5381,1.3853-0.8066,2.2832-0.8066
		c0.998,0,1.814,0.3271,2.4473,0.9805c0.6333,0.6543,0.9502,1.5576,0.9502,2.7109c0,0.9346-0.1401,1.6689-0.4204,2.2051
		c-0.2803,0.5352-0.688,0.9512-1.2236,1.2471s-1.1201,0.4443-1.7534,0.4443c-1.0161,0-1.8379-0.3262-2.4644-0.9775
		S46.0318,42.7051,46.0318,41.4795z M47.2964,41.4795c0,0.9297,0.2026,1.626,0.6084,2.0889
		c0.4058,0.4619,0.916,0.6934,1.5313,0.6934c0.6108,0,1.1187-0.2324,1.5244-0.6973s0.6084-1.1738,0.6084-2.126
		c0-0.8975-0.2041-1.5781-0.6118-2.04c-0.4077-0.4629-0.915-0.6943-1.521-0.6943c-0.6152,0-1.1255,0.2305-1.5313,0.6904
		S47.2964,40.5498,47.2964,41.4795z"/>
	<path class="st1" d="M54.5699,45.1094v-6.3027h-1.0869v-0.957h1.0869v-0.7725c0-0.4873,0.0435-0.8496,0.1299-1.0869
		c0.1187-0.3193,0.3271-0.5781,0.6255-0.7754c0.2983-0.1992,0.7168-0.2979,1.2544-0.2979c0.3462,0,0.729,0.041,1.1484,0.123
		l-0.1846,1.0732c-0.2554-0.0459-0.4966-0.0684-0.7246-0.0684c-0.3735,0-0.6382,0.0801-0.793,0.2393s-0.2324,0.458-0.2324,0.8955
		v0.6699h1.415v0.957h-1.415v6.3027H54.5699z"/>
	<path class="st1" d="M60.8521,44.0088l0.1777,1.0869c-0.3462,0.0732-0.6563,0.1094-0.9297,0.1094
		c-0.4468,0-0.793-0.0703-1.0391-0.2119s-0.4194-0.3271-0.5195-0.5576c-0.1001-0.2295-0.1504-0.7139-0.1504-1.4521v-4.1768h-0.9023
		v-0.957h0.9023v-1.7979l1.2236-0.7383v2.5361h1.2373v0.957h-1.2373v4.2451c0,0.3506,0.0215,0.5762,0.0649,0.6768
		s0.1138,0.1797,0.2119,0.2393s0.2383,0.0889,0.4204,0.0889C60.4488,44.0566,60.6289,44.041,60.8521,44.0088z"/>
	<path class="st1" d="M63.395,45.1094l-2.2217-7.2598h1.2715l1.1553,4.1904l0.4307,1.5586c0.0181-0.0771,0.1436-0.5762,0.376-1.4971
		l1.1553-4.252h1.2646l1.0869,4.2109l0.3623,1.3877l0.417-1.4014l1.2441-4.1973h1.1963l-2.2695,7.2598h-1.2783l-1.1553-4.3477
		l-0.2803-1.2373l-1.4697,5.585H63.395z"/>
	<path class="st1" d="M76.9029,44.2139c-0.4556,0.3877-0.8945,0.6611-1.3159,0.8203s-0.874,0.2393-1.3569,0.2393
		c-0.7974,0-1.4106-0.1953-1.8389-0.584c-0.4282-0.3906-0.6426-0.8877-0.6426-1.4941c0-0.3555,0.0811-0.6797,0.2427-0.9746
		c0.1616-0.293,0.3735-0.5293,0.6357-0.707s0.5571-0.3125,0.8853-0.4033c0.2417-0.0635,0.606-0.125,1.0938-0.1846
		c0.9937-0.1182,1.7251-0.2598,2.1943-0.4238c0.0044-0.1689,0.0068-0.2754,0.0068-0.3213c0-0.501-0.1162-0.8545-0.3486-1.0596
		c-0.3145-0.2783-0.7817-0.417-1.4014-0.417c-0.5786,0-1.0059,0.1016-1.2817,0.3037c-0.2759,0.2031-0.4795,0.5625-0.6118,1.0771
		l-1.2031-0.1641c0.1094-0.5146,0.2896-0.9307,0.54-1.2471c0.2505-0.3174,0.6128-0.5605,1.0869-0.7324
		c0.4741-0.1699,1.0229-0.2559,1.6475-0.2559c0.6196,0,1.1235,0.0732,1.5107,0.2188s0.6724,0.3291,0.8545,0.5508
		c0.1821,0.2207,0.3101,0.5,0.3828,0.8369c0.041,0.21,0.0615,0.5879,0.0615,1.1348v1.6406c0,1.1436,0.0264,1.8672,0.0786,2.1709
		c0.0522,0.3027,0.1563,0.5928,0.311,0.8711H77.149C77.0215,44.8545,76.9395,44.5557,76.9029,44.2139z M76.8003,41.4658
		c-0.4468,0.1826-1.1167,0.3369-2.0098,0.4648c-0.5059,0.0732-0.8638,0.1553-1.0732,0.2461s-0.3716,0.2246-0.4854,0.3994
		c-0.1138,0.1758-0.1709,0.3711-0.1709,0.585c0,0.3281,0.124,0.6016,0.3726,0.8203s0.6118,0.3281,1.0903,0.3281
		c0.4741,0,0.8955-0.1035,1.2646-0.3115c0.3691-0.207,0.6401-0.4902,0.8135-0.8506c0.1323-0.2783,0.1982-0.6885,0.1982-1.2305
		V41.4658z"/>
	<path class="st1" d="M79.938,45.1094v-7.2598h1.1074v1.1006c0.2827-0.5146,0.5435-0.8545,0.7827-1.0186
		s0.5024-0.2461,0.7896-0.2461c0.4146,0,0.8364,0.1318,1.2646,0.3965l-0.4238,1.1416c-0.3008-0.1777-0.6016-0.2666-0.9023-0.2666
		c-0.269,0-0.5103,0.0811-0.7246,0.2422c-0.2144,0.1621-0.3667,0.3867-0.458,0.6738c-0.1367,0.4375-0.2051,0.916-0.2051,1.4355
		v3.8008H79.938z"/>
	<path class="st1" d="M89.5835,42.7715l1.2715,0.1572c-0.2007,0.7432-0.5718,1.3193-1.1143,1.7295s-1.2349,0.6152-2.0781,0.6152
		c-1.062,0-1.9038-0.3271-2.5259-0.9805c-0.6221-0.6543-0.9331-1.5713-0.9331-2.752c0-1.2217,0.3145-2.1689,0.9434-2.8438
		s1.4448-1.0117,2.4473-1.0117c0.9707,0,1.7637,0.3301,2.3789,0.9912s0.9229,1.5908,0.9229,2.7891
		c0,0.0732-0.0024,0.1826-0.0068,0.3281h-5.4141c0.0454,0.7979,0.271,1.4082,0.6768,1.832s0.9116,0.6357,1.5176,0.6357
		c0.4512,0,0.8364-0.1182,1.1553-0.3555S89.3965,43.291,89.5835,42.7715z M85.5435,40.7822h4.0537
		c-0.0547-0.6104-0.2095-1.0684-0.4648-1.374c-0.3921-0.4736-0.8999-0.7109-1.5244-0.7109c-0.5649,0-1.04,0.1895-1.4253,0.5674
		S85.5845,40.1484,85.5435,40.7822z"/>
</g>
</svg>
