<?xml version="1.0" encoding="utf-8"?>
<!-- Generator: Adobe Illustrator 21.0.0, SVG Export Plug-In . SVG Version: 6.00 Build 0)  -->
<svg version="1.1" id="Capa_1" xmlns="http://www.w3.org/2000/svg" xmlns:xlink="http://www.w3.org/1999/xlink" x="0px" y="0px"
	 viewBox="0 0 236.9 153.7" style="enable-background:new 0 0 236.9 153.7;" xml:space="preserve">
<style type="text/css">
	.st0{fill:#FFFFFF;enable-background:new    ;}
</style>
<rect id="XMLID_224_" class="st0" width="236.9" height="153.7"/>
<path id="XMLID_585_" d="M52.1,128.5c-0.9,1.6-2,3.2-3.4,4.6c-4,4-8.8,6-14.3,6c-5.4,0-10.1-2-14.1-5.9c-1.4-1.4-2.6-3-3.5-4.6H-0.1
	v25.2h237v-25.2H52.1V128.5z"/>
<g id="XMLID_220_">
	<g id="XMLID_222_">
		<path id="XMLID_577_" d="M548.8-484.2c9,9,13.5,20,13.5,33s-4.4,23.9-13.2,32.6c-9.4,9.2-20.4,13.8-33.2,13.8
			c-12.6,0-23.5-4.6-32.6-13.7c-9.1-9.1-13.7-20-13.7-32.7s4.6-23.7,13.7-33c8.9-9,19.8-13.5,32.6-13.5
			C528.8-497.7,539.8-493.2,548.8-484.2z M489.3-478.2c-7.6,7.7-11.4,16.6-11.4,26.9c0,10.3,3.8,19.2,11.3,26.7s16.4,11.3,26.8,11.3
			c10.4,0,19.4-3.8,27-11.4c7.3-7,10.9-15.9,10.9-26.6c0-10.6-3.7-19.6-11.1-27c-7.4-7.4-16.3-11.1-26.9-11.1
			C505.5-489.3,496.6-485.6,489.3-478.2z"/>
	</g>
</g>
<g id="XMLID_41_">
	<path id="XMLID_42_" d="M27.7,125.8v-15.4h6.6c1.6,0,2.8,0.1,3.6,0.4c0.7,0.3,1.3,0.8,1.8,1.5s0.7,1.5,0.7,2.4c0,1.2-0.3,2.1-1,2.9
		s-1.7,1.2-3.1,1.4c0.7,0.4,1.2,0.8,1.7,1.3c0.4,0.5,1,1.3,1.8,2.5l1.9,3H38l-2.3-3.4c-0.8-1.2-1.3-2-1.6-2.3s-0.6-0.5-0.9-0.6
		c-0.3-0.1-0.9-0.2-1.6-0.2H31v6.4L27.7,125.8L27.7,125.8z M30.9,116.9h2.3c1.5,0,2.4-0.1,2.8-0.2c0.4-0.1,0.7-0.3,0.9-0.7
		c0.2-0.3,0.3-0.7,0.3-1.2s-0.1-0.9-0.4-1.3c-0.3-0.3-0.7-0.5-1.2-0.6c-0.3,0-1-0.1-2.3-0.1h-2.4L30.9,116.9L30.9,116.9z"/>
</g>
<g id="XMLID_11_">
	<g id="XMLID_732_">
		<path id="XMLID_779_" d="M61.9,120.4v-11.5h4.9c1.2,0,2.1,0.1,2.7,0.3s1,0.6,1.3,1.1s0.5,1.1,0.5,1.8c0,0.9-0.3,1.6-0.8,2.1
			s-1.3,0.9-2.3,1.1c0.5,0.3,0.9,0.6,1.2,1s0.8,1,1.3,1.9l1.4,2.2h-2.8l-1.7-2.5c-0.6-0.9-1-1.5-1.2-1.7s-0.5-0.4-0.7-0.5
			s-0.6-0.1-1.2-0.1H64v4.8L61.9,120.4L61.9,120.4z M64.3,113.8H66c1.1,0,1.8,0,2.1-0.1s0.5-0.3,0.7-0.5s0.2-0.5,0.2-0.9
			s-0.1-0.7-0.3-0.9c-0.2-0.2-0.5-0.4-0.9-0.5c-0.2,0-0.8,0-1.7,0h-1.8L64.3,113.8L64.3,113.8z"/>
		<path id="XMLID_776_" d="M78.3,117.8l2.2,0.4c-0.3,0.8-0.7,1.4-1.3,1.8s-1.4,0.6-2.3,0.6c-1.4,0-2.5-0.5-3.2-1.4
			c-0.5-0.8-0.8-1.7-0.8-2.9c0-1.4,0.4-2.5,1.1-3.2c0.7-0.8,1.6-1.2,2.7-1.2c1.2,0,2.2,0.4,2.9,1.2c0.7,0.8,1.1,2.1,1,3.8h-5.5
			c0,0.7,0.2,1.2,0.5,1.5c0.3,0.4,0.8,0.5,1.3,0.5c0.3,0,0.6-0.1,0.9-0.3C78,118.5,78.2,118.2,78.3,117.8z M78.4,115.5
			c0-0.6-0.2-1.1-0.5-1.5c-0.3-0.3-0.7-0.5-1.1-0.5c-0.5,0-0.9,0.2-1.2,0.5c-0.3,0.3-0.5,0.8-0.5,1.4L78.4,115.5L78.4,115.5z"/>
		<path id="XMLID_773_" d="M82.2,121l2.5,0.3c0,0.3,0.1,0.5,0.3,0.6c0.2,0.2,0.5,0.2,1,0.2c0.6,0,1-0.1,1.3-0.3
			c0.2-0.1,0.3-0.3,0.4-0.6c0.1-0.2,0.1-0.5,0.1-1V119c-0.7,0.9-1.5,1.3-2.5,1.3c-1.1,0-2-0.5-2.7-1.4c-0.5-0.7-0.8-1.7-0.8-2.8
			c0-1.4,0.3-2.5,1-3.2s1.5-1.1,2.5-1.1s1.9,0.5,2.5,1.4V112h2.1v7.5c0,1-0.1,1.7-0.2,2.2c-0.2,0.5-0.4,0.9-0.7,1.1
			c-0.3,0.3-0.7,0.5-1.2,0.7s-1.1,0.2-1.9,0.2c-1.4,0-2.4-0.2-3-0.7s-0.9-1.1-0.9-1.8C82.2,121.1,82.2,121.1,82.2,121z M84.2,116.1
			c0,0.9,0.2,1.5,0.5,1.9s0.8,0.6,1.3,0.6s1-0.2,1.4-0.6s0.6-1,0.6-1.9s-0.2-1.5-0.5-1.9c-0.4-0.4-0.8-0.6-1.3-0.6s-1,0.2-1.3,0.6
			C84.4,114.6,84.2,115.2,84.2,116.1z"/>
		<path id="XMLID_770_" d="M92.2,111v-2h2.2v2H92.2z M92.2,120.4v-8.3h2.2v8.3H92.2z"/>
		<path id="XMLID_768_" d="M95.9,118l2.2-0.3c0.1,0.4,0.3,0.8,0.6,1c0.3,0.2,0.7,0.3,1.2,0.3c0.6,0,1-0.1,1.3-0.3
			c0.2-0.1,0.3-0.3,0.3-0.6c0-0.2-0.1-0.3-0.2-0.4s-0.4-0.2-0.7-0.3c-1.8-0.4-2.9-0.7-3.4-1.1c-0.7-0.4-1-1.1-1-1.9
			c0-0.7,0.3-1.3,0.9-1.8s1.5-0.7,2.6-0.7s2,0.2,2.5,0.6c0.6,0.4,0.9,0.9,1.1,1.6l-2.1,0.4c-0.1-0.3-0.3-0.6-0.5-0.7
			c-0.2-0.2-0.6-0.3-1.1-0.3c-0.6,0-1,0.1-1.2,0.2s-0.3,0.3-0.3,0.4c0,0.2,0.1,0.3,0.2,0.4c0.2,0.1,0.9,0.4,2.1,0.6
			c1.2,0.3,2,0.6,2.5,1s0.7,0.9,0.7,1.6c0,0.8-0.3,1.4-1,2c-0.6,0.5-1.6,0.8-2.8,0.8c-1.1,0-2-0.2-2.7-0.7S96.1,118.8,95.9,118z"/>
		<path id="XMLID_766_" d="M109.4,112.1v1.8h-1.5v3.4c0,0.7,0,1.1,0,1.2s0.1,0.2,0.2,0.3s0.2,0.1,0.4,0.1c0.2,0,0.5-0.1,0.9-0.2
			l0.2,1.7c-0.5,0.2-1.1,0.3-1.7,0.3c-0.4,0-0.8-0.1-1.1-0.2c-0.3-0.1-0.6-0.3-0.7-0.5s-0.3-0.5-0.3-0.9c0-0.3-0.1-0.8-0.1-1.6v-3.7
			h-1V112h1v-1.7l2.2-1.3v2.9h1.5V112.1z"/>
		<path id="XMLID_763_" d="M115.8,117.8l2.2,0.4c-0.3,0.8-0.7,1.4-1.3,1.8c-0.6,0.4-1.4,0.6-2.3,0.6c-1.4,0-2.5-0.5-3.2-1.4
			c-0.5-0.8-0.8-1.7-0.8-2.9c0-1.4,0.4-2.5,1.1-3.2c0.7-0.8,1.6-1.2,2.7-1.2c1.2,0,2.2,0.4,2.9,1.2c0.7,0.8,1.1,2.1,1,3.8h-5.5
			c0,0.7,0.2,1.2,0.5,1.5c0.3,0.4,0.8,0.5,1.3,0.5c0.3,0,0.6-0.1,0.9-0.3C115.5,118.5,115.7,118.2,115.8,117.8z M115.9,115.5
			c0-0.6-0.2-1.1-0.5-1.5c-0.3-0.3-0.7-0.5-1.1-0.5c-0.5,0-0.9,0.2-1.2,0.5c-0.3,0.3-0.5,0.8-0.5,1.4L115.9,115.5L115.9,115.5z"/>
		<path id="XMLID_761_" d="M122,120.4h-2.2v-8.3h2v1.2c0.3-0.6,0.7-0.9,0.9-1.1s0.6-0.3,1-0.3c0.5,0,1,0.1,1.4,0.4l-0.7,1.9
			c-0.4-0.2-0.7-0.4-1-0.4s-0.6,0.1-0.8,0.3s-0.4,0.5-0.5,0.9s-0.2,1.4-0.2,2.8L122,120.4L122,120.4z"/>
		<path id="XMLID_758_" d="M131,117.8l2.2,0.4c-0.3,0.8-0.7,1.4-1.3,1.8c-0.6,0.4-1.4,0.6-2.3,0.6c-1.4,0-2.5-0.5-3.2-1.4
			c-0.5-0.8-0.8-1.7-0.8-2.9c0-1.4,0.4-2.5,1.1-3.2c0.7-0.8,1.6-1.2,2.7-1.2c1.2,0,2.2,0.4,2.9,1.2c0.7,0.8,1.1,2.1,1,3.8h-5.5
			c0,0.7,0.2,1.2,0.5,1.5c0.3,0.4,0.8,0.5,1.3,0.5c0.3,0,0.6-0.1,0.9-0.3C130.7,118.5,130.8,118.2,131,117.8z M131.1,115.5
			c0-0.6-0.2-1.1-0.5-1.5c-0.3-0.3-0.7-0.5-1.1-0.5c-0.5,0-0.9,0.2-1.2,0.5s-0.5,0.8-0.5,1.4L131.1,115.5L131.1,115.5z"/>
		<path id="XMLID_755_" d="M142.7,120.4h-2v-1.2c-0.3,0.5-0.7,0.8-1.2,1.1c-0.5,0.2-0.9,0.3-1.4,0.3c-1,0-1.8-0.4-2.5-1.2
			s-1-1.8-1-3.2c0-1.4,0.3-2.5,1-3.2s1.5-1.1,2.5-1.1c0.9,0,1.7,0.4,2.4,1.2V109h2.2V120.4L142.7,120.4z M136.8,116.1
			c0,0.9,0.1,1.5,0.4,1.9c0.4,0.6,0.9,0.9,1.5,0.9c0.5,0,0.9-0.2,1.3-0.6s0.5-1.1,0.5-1.9c0-1-0.2-1.6-0.5-2.1
			c-0.3-0.4-0.8-0.6-1.3-0.6s-1,0.2-1.3,0.6C137,114.6,136.8,115.2,136.8,116.1z"/>
		<path id="XMLID_753_" d="M153.1,112.1v1.8h-1.5v3.4c0,0.7,0,1.1,0,1.2s0.1,0.2,0.2,0.3c0.1,0.1,0.2,0.1,0.4,0.1
			c0.2,0,0.5-0.1,0.9-0.2l0.2,1.7c-0.5,0.2-1.1,0.3-1.7,0.3c-0.4,0-0.8-0.1-1.1-0.2c-0.3-0.1-0.6-0.3-0.7-0.5s-0.3-0.5-0.3-0.9
			c0-0.3-0.1-0.8-0.1-1.6v-3.7h-1V112h1v-1.7l2.2-1.3v2.9h1.5V112.1z"/>
		<path id="XMLID_751_" d="M156.8,120.4h-2.2v-8.3h2v1.2c0.3-0.6,0.7-0.9,0.9-1.1c0.3-0.2,0.6-0.3,1-0.3c0.5,0,1,0.1,1.4,0.4
			l-0.7,1.9c-0.4-0.2-0.7-0.4-1-0.4s-0.6,0.1-0.8,0.3c-0.2,0.2-0.4,0.5-0.5,0.9s-0.2,1.4-0.2,2.8L156.8,120.4L156.8,120.4z"/>
		<path id="XMLID_748_" d="M162.6,114.6l-2-0.4c0.2-0.8,0.6-1.4,1.2-1.8c0.5-0.4,1.4-0.6,2.4-0.6s1.7,0.1,2.2,0.3s0.8,0.5,1,0.9
			s0.3,1,0.3,2v2.6c0,0.7,0,1.3,0.1,1.6c0.1,0.3,0.2,0.7,0.4,1.1H166c-0.1-0.1-0.1-0.4-0.2-0.7c0-0.1-0.1-0.2-0.1-0.3
			c-0.4,0.4-0.8,0.6-1.2,0.8c-0.4,0.2-0.9,0.3-1.4,0.3c-0.9,0-1.5-0.2-2-0.7s-0.7-1.1-0.7-1.8c0-0.5,0.1-0.9,0.3-1.3
			c0.2-0.4,0.5-0.7,0.9-0.8c0.4-0.2,1-0.4,1.8-0.5c1-0.2,1.7-0.4,2.1-0.5l0,0c0-0.4-0.1-0.7-0.3-0.9c-0.2-0.2-0.6-0.3-1.2-0.3
			c-0.4,0-0.7,0.1-0.9,0.2C162.9,114,162.7,114.2,162.6,114.6z M165.5,116.4c-0.3,0.1-0.7,0.2-1.3,0.3s-1,0.3-1.2,0.4
			c-0.3,0.2-0.4,0.5-0.4,0.8s0.1,0.6,0.3,0.8c0.2,0.2,0.5,0.3,0.9,0.3s0.8-0.1,1.1-0.4c0.3-0.2,0.4-0.4,0.5-0.7
			c0.1-0.2,0.1-0.5,0.1-1.1V116.4z"/>
		<path id="XMLID_745_" d="M177.5,120.4h-2v-1.2c-0.3,0.5-0.7,0.8-1.2,1.1c-0.5,0.2-0.9,0.3-1.4,0.3c-1,0-1.8-0.4-2.5-1.2
			s-1-1.8-1-3.2c0-1.4,0.3-2.5,1-3.2s1.5-1.1,2.5-1.1c0.9,0,1.7,0.4,2.4,1.2V109h2.2V120.4L177.5,120.4z M171.6,116.1
			c0,0.9,0.1,1.5,0.4,1.9c0.4,0.6,0.9,0.9,1.5,0.9c0.5,0,0.9-0.2,1.3-0.6s0.5-1.1,0.5-1.9c0-1-0.2-1.6-0.5-2.1s-0.8-0.6-1.3-0.6
			s-1,0.2-1.3,0.6C171.8,114.6,171.6,115.2,171.6,116.1z"/>
		<path id="XMLID_742_" d="M184.5,117.8l2.2,0.4c-0.3,0.8-0.7,1.4-1.3,1.8c-0.6,0.4-1.4,0.6-2.3,0.6c-1.4,0-2.5-0.5-3.2-1.4
			c-0.5-0.8-0.8-1.7-0.8-2.9c0-1.4,0.4-2.5,1.1-3.2c0.7-0.8,1.6-1.2,2.7-1.2c1.2,0,2.2,0.4,2.9,1.2c0.7,0.8,1.1,2.1,1,3.8h-5.5
			c0,0.7,0.2,1.2,0.5,1.5c0.3,0.4,0.8,0.5,1.3,0.5c0.3,0,0.6-0.1,0.9-0.3C184.2,118.5,184.4,118.2,184.5,117.8z M184.6,115.5
			c0-0.6-0.2-1.1-0.5-1.5c-0.3-0.3-0.7-0.5-1.1-0.5c-0.5,0-0.9,0.2-1.2,0.5c-0.3,0.3-0.5,0.8-0.5,1.4L184.6,115.5L184.6,115.5z"/>
		<path id="XMLID_740_" d="M188.4,112.1h2v1.1c0.7-0.9,1.6-1.3,2.6-1.3c0.5,0,1,0.1,1.4,0.3c0.4,0.2,0.7,0.6,1,1
			c0.4-0.4,0.8-0.8,1.2-1c0.4-0.2,0.9-0.3,1.4-0.3c0.6,0,1.1,0.1,1.6,0.4c0.4,0.2,0.7,0.6,0.9,1.1c0.2,0.4,0.2,0.9,0.2,1.7v5.3h-2.2
			v-4.8c0-0.8-0.1-1.4-0.2-1.6c-0.2-0.3-0.5-0.5-0.9-0.5c-0.3,0-0.6,0.1-0.9,0.3s-0.5,0.5-0.6,0.8c-0.1,0.4-0.2,0.9-0.2,1.7v4h-2.3
			v-4.5c0-0.8,0-1.3-0.1-1.6c-0.1-0.2-0.2-0.4-0.4-0.5s-0.4-0.2-0.7-0.2c-0.3,0-0.6,0.1-0.9,0.3c-0.3,0.2-0.5,0.4-0.6,0.8
			c-0.1,0.3-0.2,0.9-0.2,1.7v4h-2.1V112.1L188.4,112.1z"/>
		<path id="XMLID_737_" d="M204.5,114.6l-2-0.4c0.2-0.8,0.6-1.4,1.2-1.8c0.5-0.4,1.4-0.6,2.4-0.6s1.7,0.1,2.2,0.3s0.8,0.5,1,0.9
			s0.3,1,0.3,2v2.6c0,0.7,0,1.3,0.1,1.6c0.1,0.3,0.2,0.7,0.4,1.1h-2.2c-0.1-0.1-0.1-0.4-0.2-0.7c0-0.1-0.1-0.2-0.1-0.3
			c-0.4,0.4-0.8,0.6-1.2,0.8c-0.4,0.2-0.9,0.3-1.4,0.3c-0.9,0-1.5-0.2-2-0.7s-0.7-1.1-0.7-1.8c0-0.5,0.1-0.9,0.3-1.3
			c0.2-0.4,0.5-0.7,0.9-0.8c0.4-0.2,1-0.4,1.8-0.5c1-0.2,1.7-0.4,2.1-0.5l0,0c0-0.4-0.1-0.7-0.3-0.9c-0.2-0.2-0.6-0.3-1.2-0.3
			c-0.4,0-0.7,0.1-0.9,0.2C204.8,114,204.6,114.2,204.5,114.6z M207.4,116.4c-0.3,0.1-0.7,0.2-1.3,0.3s-1,0.3-1.2,0.4
			c-0.3,0.2-0.4,0.5-0.4,0.8s0.1,0.6,0.3,0.8c0.2,0.2,0.5,0.3,0.9,0.3s0.8-0.1,1.1-0.4c0.3-0.2,0.4-0.4,0.5-0.7
			c0.1-0.2,0.1-0.5,0.1-1.1V116.4z"/>
		<path id="XMLID_735_" d="M213.9,120.4h-2.2v-8.3h2v1.2c0.3-0.6,0.7-0.9,0.9-1.1c0.3-0.2,0.6-0.3,1-0.3c0.5,0,1,0.1,1.4,0.4
			l-0.7,1.9c-0.4-0.2-0.7-0.4-1-0.4s-0.6,0.1-0.8,0.3s-0.4,0.5-0.5,0.9s-0.2,1.4-0.2,2.8L213.9,120.4L213.9,120.4z"/>
		<path id="XMLID_733_" d="M217.9,120.4v-11.5h2.2v6.1l2.6-2.9h2.7l-2.8,3l3,5.3h-2.4l-2.1-3.7l-1,1.1v2.7L217.9,120.4L217.9,120.4z
			"/>
	</g>
</g>
<g id="XMLID_1_">
</g>
<g id="XMLID_359_">
</g>
<g id="XMLID_360_">
</g>
<g id="XMLID_361_">
</g>
<g id="XMLID_362_">
</g>
<g id="XMLID_363_">
</g>
<g id="XMLID_364_">
</g>
<g id="XMLID_365_">
</g>
<g id="XMLID_366_">
</g>
<g id="XMLID_367_">
</g>
<g id="XMLID_368_">
</g>
<g id="XMLID_369_">
</g>
<g id="XMLID_370_">
</g>
<g id="XMLID_371_">
</g>
<g id="XMLID_372_">
</g>
<g id="XMLID_149_">
	<path id="XMLID_150_" d="M44.9,107.1c3,3,4.5,6.7,4.5,11.1s-1.5,8.1-4.5,11c-3.2,3.1-6.9,4.7-11.2,4.7s-7.9-1.5-11-4.6
		s-4.6-6.8-4.6-11.1c0-4.3,1.5-8,4.6-11.1c3-3,6.7-4.6,11-4.6C38.2,102.5,41.9,104.1,44.9,107.1z M24.8,109.1
		c-2.6,2.6-3.8,5.6-3.8,9.1s1.3,6.5,3.8,9s5.6,3.8,9.1,3.8s6.6-1.3,9.1-3.8c2.5-2.4,3.7-5.4,3.7-9s-1.3-6.6-3.7-9.1
		c-2.5-2.5-5.5-3.7-9.1-3.7C30.3,105.4,27.3,106.6,24.8,109.1z"/>
</g>
<g id="XMLID_477_">
	<g id="XMLID_167_">
		<path id="XMLID_302_" d="M113.8,32h-6.7c-1,0-1.9,0.8-1.9,1.9c0,1,0.8,1.9,1.9,1.9h6.7c1,0,1.9-0.8,1.9-1.9
			C115.6,32.8,114.8,32,113.8,32z"/>
		<path id="XMLID_297_" d="M113.8,39.7h-6.7c-1,0-1.9,0.8-1.9,1.9c0,1,0.8,1.9,1.9,1.9h6.7c1,0,1.9-0.8,1.9-1.9
			C115.6,40.6,114.8,39.7,113.8,39.7z"/>
		<path id="XMLID_296_" d="M121.6,52.8v1.8h1c1.2,0,1.2-0.7,1.2-0.9c0-0.2,0-0.9-1.2-0.9H121.6L121.6,52.8z"/>
		<path id="XMLID_186_" d="M135.7,49.3h-3V30.4c0-0.5-0.2-1-0.5-1.3l-7.3-7.3c-0.3-0.3-0.8-0.5-1.3-0.5h-22c-2,0-3.6,1.6-3.6,3.6
			v38.7c0,2,1.6,3.6,3.6,3.6h27.5c2,0,3.6-1.6,3.6-3.6v-3.7h3c1.6,0,2.9-1.3,2.9-2.9v-4.9C138.6,50.6,137.3,49.3,135.7,49.3z
			 M128.8,63.3h-26.9V25.4H121v5.4c0,1.3,1.1,2.4,2.4,2.4h5.4v16.2h-9.2c-1.6,0-2.9,1.3-2.9,2.9v4.9c0,1.6,1.3,2.9,2.9,2.9h9.2V63.3
			L128.8,63.3z M124.9,53.7c0,1.3-0.9,2.1-2.3,2.1h-1v1.1c0,0.3-0.2,0.5-0.5,0.5H121c-0.3,0-0.5-0.2-0.5-0.5v-4.8
			c0-0.3,0.2-0.5,0.5-0.5h1.6C124,51.6,124.9,52.4,124.9,53.7z M127.8,57.4h-1.9c-0.3,0-0.5-0.2-0.5-0.5v-4.8c0-0.3,0.2-0.5,0.5-0.5
			h1.9c1.6,0,3,1.3,3,2.9C130.8,56.1,129.5,57.4,127.8,57.4z M135.3,52.2c0,0.3-0.2,0.5-0.5,0.5h-2.1v1.2h1.8c0.3,0,0.5,0.2,0.5,0.5
			v0.1c0,0.3-0.2,0.5-0.5,0.5h-1.8v1.7c0,0.3-0.2,0.5-0.5,0.5h-0.1c-0.3,0-0.5-0.2-0.5-0.5v-4.8c0-0.3,0.2-0.5,0.5-0.5h2.8
			c0.3,0,0.5,0.2,0.5,0.5L135.3,52.2L135.3,52.2z"/>
		<path id="XMLID_185_" d="M127.8,52.8h-1.2v3.4h1.2c1,0,1.8-0.8,1.8-1.7C129.6,53.5,128.8,52.8,127.8,52.8z"/>
	</g>
</g>
<g>
	<path d="M63.3,74.3h2.9c0.7,0,1.2,0,1.5,0.2c0.5,0.1,0.9,0.4,1.2,0.7c0.3,0.3,0.6,0.8,0.8,1.3s0.3,1.1,0.3,1.9
		c0,0.6-0.1,1.2-0.2,1.7c-0.2,0.6-0.5,1-0.8,1.4c-0.3,0.3-0.6,0.5-1.1,0.6c-0.4,0.1-0.8,0.2-1.4,0.2h-3v-8H63.3z M64.9,75.6v5.2h1.2
		c0.4,0,0.8,0,1-0.1c0.3-0.1,0.5-0.2,0.6-0.3s0.3-0.4,0.4-0.8s0.2-0.8,0.2-1.4s-0.1-1.1-0.2-1.4c-0.1-0.3-0.3-0.6-0.5-0.8
		c-0.2-0.2-0.4-0.3-0.7-0.4c-0.2,0-0.7-0.1-1.3-0.1L64.9,75.6L64.9,75.6z"/>
	<path d="M71.3,82.1v-7.9h5.8v1.3h-4.2v1.7h4v1.3h-4v2.1h4.4v1.3h-6V82.1z"/>
	<path d="M78.2,79.6l1.5-0.2c0.1,0.5,0.3,0.9,0.6,1.1c0.3,0.2,0.7,0.4,1.2,0.4s0.9-0.1,1.2-0.3s0.4-0.5,0.4-0.8
		c0-0.2-0.1-0.3-0.2-0.5s-0.3-0.2-0.6-0.3c-0.2-0.1-0.6-0.2-1.3-0.3c-0.9-0.2-1.5-0.5-1.8-0.8c-0.5-0.4-0.7-1-0.7-1.6
		c0-0.4,0.1-0.8,0.3-1.1c0.2-0.3,0.6-0.6,1-0.8s0.9-0.3,1.5-0.3c1,0,1.7,0.2,2.2,0.6s0.8,1,0.8,1.7l-1.6,0.1
		c-0.1-0.4-0.2-0.7-0.4-0.9c-0.2-0.2-0.6-0.3-1-0.3c-0.5,0-0.8,0.1-1.1,0.3c-0.2,0.1-0.3,0.3-0.3,0.5s0.1,0.3,0.2,0.5
		c0.2,0.2,0.7,0.3,1.5,0.5s1.3,0.4,1.7,0.6c0.4,0.2,0.7,0.5,0.9,0.8c0.2,0.3,0.3,0.8,0.3,1.3s-0.1,0.9-0.4,1.3S83.5,81.8,83,82
		s-1,0.3-1.7,0.3c-1,0-1.8-0.2-2.3-0.7S78.3,80.5,78.2,79.6z"/>
	<path d="M91,79.2l1.5,0.5c-0.2,0.9-0.6,1.5-1.2,1.9s-1.2,0.6-2.1,0.6c-1,0-1.9-0.4-2.6-1.1s-1-1.7-1-2.9c0-1.3,0.3-2.3,1-3.1
		c0.7-0.7,1.6-1.1,2.7-1.1c1,0,1.7,0.3,2.3,0.9c0.4,0.3,0.6,0.8,0.8,1.5l-1.6,0.4c-0.1-0.4-0.3-0.7-0.6-1c-0.3-0.2-0.7-0.4-1.1-0.4
		c-0.6,0-1.1,0.2-1.4,0.6c-0.4,0.4-0.5,1.1-0.5,2c0,1,0.2,1.7,0.5,2.1s0.8,0.6,1.4,0.6c0.4,0,0.8-0.1,1.1-0.4
		C90.6,80.2,90.8,79.8,91,79.2z"/>
	<path d="M101,82.1h-1.7l-0.7-1.8h-3.2l-0.6,1.8h-1.7l3.1-7.9h1.7L101,82.1z M98,79l-1.1-2.9L95.8,79H98z"/>
	<path d="M101.8,82.1v-7.9h3.3c0.8,0,1.5,0.1,1.8,0.2c0.4,0.1,0.7,0.4,0.9,0.8c0.2,0.4,0.3,0.8,0.3,1.2c0,0.6-0.2,1.1-0.5,1.5
		s-0.9,0.6-1.6,0.7c0.3,0.2,0.6,0.4,0.9,0.7s0.5,0.7,0.9,1.3l1,1.5h-1.9l-1.1-1.7c-0.4-0.6-0.7-1-0.8-1.2s-0.3-0.3-0.5-0.3
		c-0.2-0.1-0.4-0.1-0.8-0.1h-0.3v3.3H101.8z M103.4,77.6h1.2c0.8,0,1.2,0,1.4-0.1c0.2-0.1,0.3-0.2,0.4-0.3s0.2-0.4,0.2-0.6
		c0-0.3-0.1-0.5-0.2-0.6s-0.3-0.3-0.6-0.3c-0.1,0-0.5,0-1.2,0h-1.2V77.6z"/>
	<path d="M113.4,79.2v-1.3h3.4V81c-0.3,0.3-0.8,0.6-1.4,0.9s-1.3,0.4-1.9,0.4c-0.8,0-1.5-0.2-2.2-0.5c-0.6-0.3-1.1-0.8-1.4-1.5
		s-0.5-1.3-0.5-2.1c0-0.8,0.2-1.5,0.5-2.2c0.3-0.6,0.8-1.1,1.5-1.5c0.5-0.3,1.1-0.4,1.9-0.4c1,0,1.7,0.2,2.3,0.6s0.9,1,1.1,1.7
		l-1.6,0.3c-0.1-0.4-0.3-0.7-0.6-0.9c-0.3-0.2-0.7-0.3-1.1-0.3c-0.7,0-1.2,0.2-1.7,0.7c-0.4,0.4-0.6,1.1-0.6,2s0.2,1.6,0.6,2.1
		s1,0.7,1.6,0.7c0.3,0,0.7-0.1,1-0.2s0.6-0.3,0.9-0.5v-1h-1.8V79.2z"/>
	<path d="M125.4,82.1h-1.7l-0.7-1.8h-3.1l-0.6,1.8h-1.7l3.1-7.9h1.7L125.4,82.1z M122.5,79l-1.1-2.9l-1.1,2.9H122.5z"/>
	<path d="M126.3,82.1v-7.9h3.3c0.8,0,1.5,0.1,1.8,0.2c0.4,0.1,0.7,0.4,0.9,0.8c0.2,0.4,0.3,0.8,0.3,1.2c0,0.6-0.2,1.1-0.5,1.5
		s-0.9,0.6-1.6,0.7c0.3,0.2,0.6,0.4,0.9,0.7s0.5,0.7,0.9,1.3l1,1.5h-1.9l-1.1-1.7c-0.4-0.6-0.7-1-0.8-1.2s-0.3-0.3-0.5-0.3
		c-0.2-0.1-0.4-0.1-0.8-0.1h-0.3v3.3H126.3z M127.9,77.6h1.2c0.8,0,1.2,0,1.4-0.1c0.2-0.1,0.3-0.2,0.4-0.3s0.2-0.4,0.2-0.6
		c0-0.3-0.1-0.5-0.2-0.6s-0.3-0.3-0.6-0.3c-0.1,0-0.5,0-1.2,0h-1.2L127.9,77.6L127.9,77.6z"/>
	<path d="M137.3,82.1v-7.9h5.8v1.3h-4.2v1.7h4v1.3h-4v2.1h4.4v1.3h-6V82.1z"/>
	<path d="M144.6,82.1v-7.9h1.5l3.2,5.3v-5.3h1.5v7.9h-1.6L146,77v5.1H144.6z"/>
	<path d="M155.6,82.1v-7.9h2.6c1,0,1.6,0,1.9,0.1c0.5,0.1,0.8,0.4,1.1,0.8c0.3,0.4,0.5,0.9,0.5,1.5c0,0.5-0.1,0.9-0.3,1.2
		c-0.2,0.3-0.4,0.6-0.7,0.8c-0.3,0.2-0.5,0.3-0.8,0.4c-0.4,0.1-0.9,0.1-1.6,0.1h-1v3H155.6z M157.2,75.6v2.2h0.9c0.6,0,1,0,1.3-0.1
		c0.2-0.1,0.4-0.2,0.5-0.4c0.1-0.2,0.2-0.4,0.2-0.6c0-0.3-0.1-0.5-0.3-0.7c-0.2-0.2-0.4-0.3-0.6-0.3s-0.6-0.1-1.1-0.1H157.2z"/>
	<path d="M162.9,74.3h2.9c0.7,0,1.2,0,1.5,0.2c0.5,0.1,0.9,0.4,1.2,0.7c0.3,0.3,0.6,0.8,0.8,1.3s0.3,1.1,0.3,1.9
		c0,0.6-0.1,1.2-0.2,1.7c-0.2,0.6-0.5,1-0.8,1.4c-0.3,0.3-0.6,0.5-1.1,0.6c-0.4,0.1-0.8,0.2-1.4,0.2h-3v-8H162.9z M164.5,75.6v5.2
		h1.2c0.4,0,0.8,0,1-0.1c0.3-0.1,0.5-0.2,0.6-0.3s0.3-0.4,0.4-0.8s0.2-0.8,0.2-1.4s-0.1-1.1-0.2-1.4s-0.3-0.6-0.5-0.8
		c-0.2-0.2-0.4-0.3-0.7-0.4c-0.2,0-0.7-0.1-1.3-0.1L164.5,75.6L164.5,75.6z"/>
	<path d="M170.9,82.1v-7.9h5.4v1.3h-3.8v1.9h3.3v1.3h-3.3V82h-1.6V82.1z"/>
</g>
</svg>
