<?xml version="1.0" encoding="utf-8"?>
<!-- Generator: Adobe Illustrator 21.0.0, SVG Export Plug-In . SVG Version: 6.00 Build 0)  -->
<svg version="1.1" id="Capa_1" xmlns="http://www.w3.org/2000/svg" xmlns:xlink="http://www.w3.org/1999/xlink" x="0px" y="0px"
	 viewBox="0 0 155.7 74.3" style="enable-background:new 0 0 155.7 74.3;" xml:space="preserve">
<style type="text/css">
	.st0{fill:#FFFFFF;}
	.st1{fill:none;}
	.st2{enable-background:new    ;}
</style>
<g id="XMLID_431_">
	<rect id="XMLID_246_" x="0.4" class="st0" width="154.9" height="74.3"/>
	<rect id="XMLID_221_" x="0.4" width="154.9" height="48.2"/>
	<rect id="XMLID_335_" y="57.5" class="st1" width="155.7" height="13.1"/>
	<g class="st2">
		<path d="M53,62.4v-1.3h3.4v3.1c-0.3,0.3-0.8,0.6-1.4,0.9c-0.6,0.2-1.3,0.4-1.9,0.4c-0.8,0-1.5-0.2-2.2-0.5s-1.1-0.8-1.4-1.5
			S49,62.1,49,61.4c0-0.8,0.2-1.5,0.5-2.2c0.3-0.6,0.8-1.1,1.5-1.5c0.5-0.3,1.1-0.4,1.9-0.4c1,0,1.7,0.2,2.3,0.6
			c0.5,0.4,0.9,1,1.1,1.7l-1.6,0.3c-0.1-0.4-0.3-0.7-0.6-0.9c-0.3-0.2-0.7-0.3-1.1-0.3c-0.7,0-1.2,0.2-1.7,0.7
			c-0.4,0.4-0.6,1.1-0.6,2c0,0.9,0.2,1.6,0.6,2.1c0.4,0.5,1,0.7,1.6,0.7c0.3,0,0.7-0.1,1-0.2c0.3-0.1,0.6-0.3,0.9-0.5v-1H53z"/>
		<path d="M57.9,65.3v-7.8h1.6V64h4v1.3H57.9z"/>
		<path d="M64.3,61.4c0-0.8,0.1-1.5,0.4-2c0.2-0.4,0.4-0.8,0.7-1.1c0.3-0.3,0.6-0.6,1-0.7c0.5-0.2,1.1-0.3,1.7-0.3
			c1.2,0,2.1,0.4,2.8,1.1c0.7,0.7,1,1.7,1,3c0,1.3-0.3,2.3-1,3s-1.6,1.1-2.8,1.1c-1.2,0-2.1-0.4-2.8-1.1
			C64.6,63.7,64.3,62.7,64.3,61.4z M65.9,61.4c0,0.9,0.2,1.6,0.6,2s0.9,0.7,1.6,0.7s1.2-0.2,1.6-0.7c0.4-0.5,0.6-1.1,0.6-2.1
			c0-0.9-0.2-1.6-0.6-2c-0.4-0.4-0.9-0.7-1.6-0.7s-1.2,0.2-1.6,0.7S65.9,60.5,65.9,61.4z"/>
		<path d="M72.7,62.8l1.5-0.2c0.1,0.5,0.3,0.9,0.6,1.1c0.3,0.2,0.7,0.4,1.2,0.4c0.5,0,0.9-0.1,1.2-0.3c0.3-0.2,0.4-0.5,0.4-0.8
			c0-0.2-0.1-0.3-0.2-0.5c-0.1-0.1-0.3-0.2-0.6-0.3c-0.2-0.1-0.6-0.2-1.3-0.3c-0.9-0.2-1.5-0.5-1.8-0.8c-0.5-0.4-0.7-1-0.7-1.6
			c0-0.4,0.1-0.8,0.3-1.1c0.2-0.3,0.6-0.6,1-0.8c0.4-0.2,0.9-0.3,1.5-0.3c1,0,1.7,0.2,2.2,0.6c0.5,0.4,0.8,1,0.8,1.7l-1.6,0.1
			c-0.1-0.4-0.2-0.7-0.4-0.9c-0.2-0.2-0.6-0.3-1-0.3c-0.5,0-0.8,0.1-1.1,0.3c-0.2,0.1-0.3,0.3-0.3,0.5c0,0.2,0.1,0.3,0.2,0.5
			c0.2,0.2,0.7,0.3,1.5,0.5c0.8,0.2,1.3,0.4,1.7,0.6c0.4,0.2,0.7,0.5,0.9,0.8c0.2,0.3,0.3,0.8,0.3,1.3c0,0.5-0.1,0.9-0.4,1.3
			c-0.3,0.4-0.6,0.7-1.1,0.9s-1,0.3-1.7,0.3c-1,0-1.8-0.2-2.3-0.7S72.9,63.6,72.7,62.8z"/>
		<path d="M87.6,65.3h-1.7l-0.7-1.8H82l-0.6,1.8h-1.7l3.1-7.9h1.7L87.6,65.3z M84.7,62.2l-1.1-2.9l-1.1,2.9H84.7z"/>
		<path d="M88.4,65.3v-7.9h3.3c0.8,0,1.5,0.1,1.8,0.2c0.4,0.1,0.7,0.4,0.9,0.8c0.2,0.4,0.3,0.8,0.3,1.2c0,0.6-0.2,1.1-0.5,1.5
			c-0.3,0.4-0.9,0.6-1.6,0.7c0.3,0.2,0.6,0.4,0.9,0.7s0.5,0.7,0.9,1.3l1,1.5h-1.9l-1.1-1.7c-0.4-0.6-0.7-1-0.8-1.2s-0.3-0.3-0.5-0.3
			C91,62.1,90.7,62,90.3,62H90v3.3H88.4z M90,60.8h1.2c0.8,0,1.2,0,1.4-0.1c0.2-0.1,0.3-0.2,0.4-0.3s0.2-0.4,0.2-0.6
			c0-0.3-0.1-0.5-0.2-0.6s-0.3-0.3-0.6-0.3c-0.1,0-0.5,0-1.2,0H90V60.8z"/>
		<path d="M96.3,65.3v-7.9h1.6v7.9H96.3z"/>
		<path d="M99.1,61.4c0-0.8,0.1-1.5,0.4-2c0.2-0.4,0.4-0.8,0.7-1.1c0.3-0.3,0.6-0.6,1-0.7c0.5-0.2,1.1-0.3,1.7-0.3
			c1.2,0,2.1,0.4,2.8,1.1s1,1.7,1,3c0,1.3-0.3,2.3-1,3c-0.7,0.7-1.6,1.1-2.8,1.1c-1.2,0-2.1-0.4-2.8-1.1
			C99.5,63.7,99.1,62.7,99.1,61.4z M100.7,61.4c0,0.9,0.2,1.6,0.6,2c0.4,0.5,0.9,0.7,1.6,0.7s1.2-0.2,1.6-0.7
			c0.4-0.5,0.6-1.1,0.6-2.1c0-0.9-0.2-1.6-0.6-2s-0.9-0.7-1.6-0.7s-1.2,0.2-1.6,0.7C100.9,59.8,100.7,60.5,100.7,61.4z"/>
	</g>
	<g id="XMLID_339_">
		<path id="XMLID_380_" class="st0" d="M91.1,39.7l-3.4-3.4c0.7-1.1,1.1-2.5,1.1-3.9c0-4-3.3-7.3-7.3-7.3s-7.3,3.3-7.3,7.3
			s3.3,7.3,7.3,7.3c1.4,0,2.8-0.4,3.9-1.1l3.4,3.4c0.3,0.3,0.7,0.5,1.1,0.5s0.8-0.2,1.1-0.5C91.8,41.3,91.8,40.3,91.1,39.7
			L91.1,39.7z M81.6,37.4c-2.8,0-5-2.2-5-5s2.2-5,5-5s5,2.2,5,5C86.6,35.1,84.3,37.4,81.6,37.4L81.6,37.4z"/>
		<path id="XMLID_377_" class="st0" d="M75.6,26.4H67c-0.3,0-0.5,0.2-0.5,0.5v0.5c0,0.3,0.2,0.5,0.5,0.5h7.4
			C74.7,27.4,75.1,26.9,75.6,26.4L75.6,26.4z"/>
		<path id="XMLID_373_" class="st0" d="M70.6,11.2h6.9c0.9,0,1.6-0.7,1.6-1.6l0,0C79,8.7,78.3,8,77.5,8h-0.8c-0.4,0-0.8-0.4-0.8-0.8
			l0,0c0-1-0.8-1.8-1.8-1.8l0,0c-1,0-1.8,0.8-1.8,1.8l0,0c0,0.4-0.4,0.8-0.8,0.8h-0.8c-0.9,0-1.6,0.7-1.6,1.6l0,0
			C69.1,10.5,69.8,11.2,70.6,11.2L70.6,11.2z M74.1,6.5c0.4,0,0.8,0.4,0.8,0.8s-0.4,0.8-0.8,0.8s-0.8-0.4-0.8-0.8
			C73.3,6.8,73.6,6.5,74.1,6.5L74.1,6.5z"/>
		<path id="XMLID_370_" class="st0" d="M67,31.1c-0.3,0-0.5,0.2-0.5,0.5v0.5c0,0.3,0.2,0.5,0.5,0.5h6.2c0-0.1,0-0.2,0-0.3
			c0-0.4,0-0.8,0.1-1.3H67V31.1z"/>
		<path id="XMLID_367_" class="st0" d="M81.7,23.3v-0.5c0-0.3-0.2-0.5-0.5-0.5H67c-0.3,0-0.5,0.2-0.5,0.5v0.5c0,0.3,0.2,0.5,0.5,0.5
			h14.2C81.4,23.8,81.7,23.5,81.7,23.3L81.7,23.3z"/>
		<path id="XMLID_364_" class="st0" d="M64.9,35.8v-21h18.4v9.3c0.9,0.2,1.8,0.5,2.6,1V11.7c0-1-0.8-1.8-1.8-1.8h-4
			c-0.1,1.4-1.2,2.4-2.6,2.4h-6.9c-1.4,0-2.5-1.1-2.6-2.4h-4c-1,0-1.8,0.8-1.8,1.8v24.9c0,1,0.8,1.8,1.8,1.8h11.7
			c-0.8-0.7-1.4-1.6-1.9-2.6H64.9z"/>
		<path id="XMLID_360_" class="st0" d="M81.7,18c0-0.3-0.2-0.5-0.5-0.5H67c-0.3,0-0.5,0.2-0.5,0.5v0.5c0,0.3,0.2,0.5,0.5,0.5h14.2
			c0.3,0,0.5-0.2,0.5-0.5V18z"/>
	</g>
</g>
</svg>
