<?xml version="1.0" encoding="utf-8"?>
<!-- Generator: Adobe Illustrator 21.0.0, SVG Export Plug-In . SVG Version: 6.00 Build 0)  -->
<svg version="1.1" id="Capa_1" xmlns="http://www.w3.org/2000/svg" xmlns:xlink="http://www.w3.org/1999/xlink" x="0px" y="0px"
	 viewBox="0 0 154.9 74.3" style="enable-background:new 0 0 154.9 74.3;" xml:space="preserve">
<style type="text/css">
	.st0{fill:#FFFFFF;}
	.st1{fill:#F4941B;}
	.st2{fill:none;}
	.st3{enable-background:new    ;}
</style>
<g id="XMLID_1_">
	<rect id="XMLID_461_" class="st0" width="154.9" height="74.3"/>
	<rect id="XMLID_458_" class="st1" width="154.9" height="48.2"/>
	<rect id="XMLID_457_" y="57.5" class="st2" width="154.5" height="13.1"/>
	<g class="st3">
		<path d="M18.1,65.3v-7.9h2.4l1.4,5.4l1.4-5.4h2.4v7.9h-1.5v-6.2l-1.6,6.2h-1.5l-1.6-6.2v6.2H18.1z"/>
		<path d="M34.4,65.3h-1.7L32,63.5h-3.1l-0.6,1.8h-1.7l3.1-7.9h1.7L34.4,65.3z M31.5,62.2l-1.1-2.9l-1.1,2.9H31.5z"/>
		<path d="M35.3,65.3v-7.9h2.6c1,0,1.6,0,1.9,0.1c0.5,0.1,0.8,0.4,1.1,0.8s0.5,0.9,0.5,1.5c0,0.5-0.1,0.9-0.3,1.2s-0.4,0.6-0.7,0.8
			c-0.3,0.2-0.5,0.3-0.8,0.4c-0.4,0.1-0.9,0.1-1.6,0.1h-1v3H35.3z M36.9,58.8V61h0.9c0.6,0,1,0,1.3-0.1c0.2-0.1,0.4-0.2,0.5-0.4
			c0.1-0.2,0.2-0.4,0.2-0.6c0-0.3-0.1-0.5-0.3-0.7c-0.2-0.2-0.4-0.3-0.6-0.3c-0.2,0-0.6-0.1-1.1-0.1H36.9z"/>
		<path d="M48.9,65.3h-1.7l-0.7-1.8h-3.1l-0.6,1.8H41l3.1-7.9h1.7L48.9,65.3z M46,62.2l-1.1-2.9l-1.1,2.9H46z"/>
		<path d="M52.4,57.5h2.9c0.7,0,1.2,0,1.5,0.2c0.5,0.1,0.9,0.4,1.2,0.7c0.3,0.3,0.6,0.8,0.8,1.3s0.3,1.1,0.3,1.9
			c0,0.6-0.1,1.2-0.2,1.7c-0.2,0.6-0.5,1-0.8,1.4c-0.3,0.3-0.6,0.5-1.1,0.6c-0.4,0.1-0.8,0.2-1.4,0.2h-3V57.5z M54,58.8V64h1.2
			c0.4,0,0.8,0,1-0.1c0.3-0.1,0.5-0.2,0.6-0.3c0.2-0.2,0.3-0.4,0.4-0.8s0.2-0.8,0.2-1.4s-0.1-1.1-0.2-1.4c-0.1-0.3-0.3-0.6-0.5-0.8
			c-0.2-0.2-0.4-0.3-0.7-0.4c-0.2,0-0.7-0.1-1.3-0.1H54z"/>
		<path d="M60.3,65.3v-7.9h5.8v1.3h-4.2v1.7h4v1.3h-4V64h4.4v1.3H60.3z"/>
		<path d="M75.8,62.4l1.5,0.5c-0.2,0.9-0.6,1.5-1.2,1.9c-0.5,0.4-1.2,0.6-2.1,0.6c-1,0-1.9-0.4-2.6-1.1c-0.7-0.7-1-1.7-1-2.9
			c0-1.3,0.3-2.3,1-3.1c0.7-0.7,1.6-1.1,2.7-1.1c1,0,1.7,0.3,2.3,0.9c0.4,0.3,0.6,0.8,0.8,1.5L75.7,60c-0.1-0.4-0.3-0.7-0.6-1
			c-0.3-0.2-0.7-0.4-1.1-0.4c-0.6,0-1.1,0.2-1.4,0.6c-0.4,0.4-0.5,1.1-0.5,2c0,1,0.2,1.7,0.5,2.1s0.8,0.6,1.4,0.6
			c0.4,0,0.8-0.1,1.1-0.4C75.4,63.4,75.6,63,75.8,62.4z"/>
		<path d="M78.3,61.4c0-0.8,0.1-1.5,0.4-2c0.2-0.4,0.4-0.8,0.7-1.1c0.3-0.3,0.6-0.6,1-0.7c0.5-0.2,1.1-0.3,1.7-0.3
			c1.2,0,2.1,0.4,2.8,1.1s1,1.7,1,3c0,1.3-0.3,2.3-1,3c-0.7,0.7-1.6,1.1-2.8,1.1c-1.2,0-2.1-0.4-2.8-1.1
			C78.7,63.7,78.3,62.7,78.3,61.4z M80,61.4c0,0.9,0.2,1.6,0.6,2c0.4,0.5,0.9,0.7,1.6,0.7s1.2-0.2,1.6-0.7c0.4-0.5,0.6-1.1,0.6-2.1
			c0-0.9-0.2-1.6-0.6-2s-0.9-0.7-1.6-0.7s-1.2,0.2-1.6,0.7C80.2,59.8,80,60.5,80,61.4z"/>
		<path d="M87.2,65.3v-7.9h1.5l3.2,5.3v-5.3h1.5v7.9h-1.6l-3.2-5.1v5.1H87.2z"/>
		<path d="M96.9,65.3v-6.5h-2.3v-1.3h6.3v1.3h-2.3v6.5H96.9z"/>
		<path d="M101.9,65.3v-7.9h5.8v1.3h-4.2v1.7h4v1.3h-4V64h4.4v1.3H101.9z"/>
		<path d="M109.2,65.3v-7.9h1.5l3.2,5.3v-5.3h1.5v7.9h-1.6l-3.2-5.1v5.1H109.2z"/>
		<path d="M117.1,65.3v-7.9h1.6v7.9H117.1z"/>
		<path d="M120.2,57.5h2.9c0.7,0,1.2,0,1.5,0.2c0.5,0.1,0.9,0.4,1.2,0.7c0.3,0.3,0.6,0.8,0.8,1.3s0.3,1.1,0.3,1.9
			c0,0.6-0.1,1.2-0.2,1.7c-0.2,0.6-0.5,1-0.8,1.4c-0.3,0.3-0.6,0.5-1.1,0.6c-0.4,0.1-0.8,0.2-1.4,0.2h-3V57.5z M121.8,58.8V64h1.2
			c0.4,0,0.8,0,1-0.1c0.3-0.1,0.5-0.2,0.6-0.3s0.3-0.4,0.4-0.8s0.2-0.8,0.2-1.4s-0.1-1.1-0.2-1.4c-0.1-0.3-0.3-0.6-0.5-0.8
			c-0.2-0.2-0.4-0.3-0.7-0.4c-0.2,0-0.7-0.1-1.3-0.1H121.8z"/>
		<path d="M127.8,61.4c0-0.8,0.1-1.5,0.4-2c0.2-0.4,0.4-0.8,0.7-1.1c0.3-0.3,0.6-0.6,1-0.7c0.5-0.2,1.1-0.3,1.7-0.3
			c1.2,0,2.1,0.4,2.8,1.1s1,1.7,1,3c0,1.3-0.3,2.3-1,3c-0.7,0.7-1.6,1.1-2.8,1.1c-1.2,0-2.1-0.4-2.8-1.1
			C128.2,63.7,127.8,62.7,127.8,61.4z M129.5,61.4c0,0.9,0.2,1.6,0.6,2c0.4,0.5,0.9,0.7,1.6,0.7s1.2-0.2,1.6-0.7
			c0.4-0.5,0.6-1.1,0.6-2.1c0-0.9-0.2-1.6-0.6-2s-0.9-0.7-1.6-0.7s-1.2,0.2-1.6,0.7C129.7,59.8,129.5,60.5,129.5,61.4z"/>
	</g>
	<g id="XMLID_29_">
		<path id="XMLID_30_" class="st0" d="M73.7,7.6v10.2c0,0.6,0.5,1.1,1.1,1.1h4V22H63.7c-0.6,0-1.1,0.5-1.1,1.1v4h-4
			c-0.6,0-1.1,0.5-1.1,1.1v10.2c0,0.6,0.5,1.1,1.1,1.1h10.2c0.6,0,1.1-0.5,1.1-1.1V28.2c0-0.6-0.5-1.1-1.1-1.1h-4v-2.9h14v2.9h-4
			c-0.6,0-1.1,0.5-1.1,1.1v10.2c0,0.6,0.5,1.1,1.1,1.1H85c0.6,0,1.1-0.5,1.1-1.1V28.2c0-0.6-0.5-1.1-1.1-1.1h-4v-2.9h14v2.9h-4
			c-0.6,0-1.1,0.5-1.1,1.1v10.2c0,0.6,0.5,1.1,1.1,1.1h10.2c0.6,0,1.1-0.5,1.1-1.1V28.2c0-0.6-0.5-1.1-1.1-1.1h-4v-4
			c0-0.6-0.5-1.1-1.1-1.1H81v-3.1h4c0.6,0,1.1-0.5,1.1-1.1V7.6c0-0.6-0.5-1.1-1.1-1.1H74.8C74.2,6.5,73.7,7,73.7,7.6L73.7,7.6z
			 M67.6,37.2h-7.9v-7.9h7.9V37.2z M83.8,37.2h-7.9v-7.9h7.9V37.2z M100,37.2h-7.9v-7.9h7.9V37.2L100,37.2z M75.9,8.7h7.9v7.9h-7.9
			V8.7z"/>
	</g>
</g>
</svg>
