<?xml version="1.0" encoding="utf-8"?>
<!-- Generator: Adobe Illustrator 21.0.0, SVG Export Plug-In . SVG Version: 6.00 Build 0)  -->
<svg version="1.1" id="Capa_1" xmlns="http://www.w3.org/2000/svg" xmlns:xlink="http://www.w3.org/1999/xlink" x="0px" y="0px"
	 viewBox="0 0 155.7 74.3" style="enable-background:new 0 0 155.7 74.3;" xml:space="preserve">
<style type="text/css">
	.st0{fill:#FFFFFF;}
	.st1{fill:#F4941B;}
	.st2{fill:none;}
	.st3{enable-background:new    ;}
	.st4{fill:#FEFEFE;}
</style>
<g id="XMLID_425_">
	<rect id="XMLID_434_" x="0.4" class="st0" width="154.9" height="74.3"/>
	<rect id="XMLID_421_" x="0.4" class="st1" width="154.9" height="48.2"/>
	<rect id="XMLID_418_" y="57.5" class="st2" width="155.7" height="13.1"/>
	<g class="st3">
		<path d="M19.1,57.5H22c0.7,0,1.2,0,1.5,0.2c0.5,0.1,0.9,0.4,1.2,0.7c0.3,0.3,0.6,0.8,0.8,1.3s0.3,1.1,0.3,1.9
			c0,0.6-0.1,1.2-0.2,1.7c-0.2,0.6-0.5,1-0.8,1.4c-0.3,0.3-0.6,0.5-1.1,0.6c-0.4,0.1-0.8,0.2-1.4,0.2h-3V57.5z M20.6,58.8V64h1.2
			c0.4,0,0.8,0,1-0.1c0.3-0.1,0.5-0.2,0.6-0.3c0.2-0.2,0.3-0.4,0.4-0.8S24,62,24,61.4S24,60.3,23.9,60c-0.1-0.3-0.3-0.6-0.5-0.8
			c-0.2-0.2-0.4-0.3-0.7-0.4c-0.2,0-0.7-0.1-1.3-0.1H20.6z"/>
		<path d="M27,65.3v-7.9h5.8v1.3h-4.2v1.7h4v1.3h-4V64H33v1.3H27z"/>
		<path d="M33.9,62.8l1.5-0.2c0.1,0.5,0.3,0.9,0.6,1.1c0.3,0.2,0.7,0.4,1.2,0.4c0.5,0,0.9-0.1,1.2-0.3c0.3-0.2,0.4-0.5,0.4-0.8
			c0-0.2-0.1-0.3-0.2-0.5c-0.1-0.1-0.3-0.2-0.6-0.3c-0.2-0.1-0.6-0.2-1.3-0.3c-0.9-0.2-1.5-0.5-1.8-0.8c-0.5-0.4-0.7-1-0.7-1.6
			c0-0.4,0.1-0.8,0.3-1.1c0.2-0.3,0.6-0.6,1-0.8c0.4-0.2,0.9-0.3,1.5-0.3c1,0,1.7,0.2,2.2,0.6c0.5,0.4,0.8,1,0.8,1.7l-1.6,0.1
			c-0.1-0.4-0.2-0.7-0.4-0.9c-0.2-0.2-0.6-0.3-1-0.3c-0.5,0-0.8,0.1-1.1,0.3c-0.2,0.1-0.3,0.3-0.3,0.5c0,0.2,0.1,0.3,0.2,0.5
			c0.2,0.2,0.7,0.3,1.5,0.5c0.8,0.2,1.3,0.4,1.7,0.6c0.4,0.2,0.7,0.5,0.9,0.8c0.2,0.3,0.3,0.8,0.3,1.3c0,0.5-0.1,0.9-0.4,1.3
			c-0.3,0.4-0.6,0.7-1.1,0.9s-1,0.3-1.7,0.3c-1,0-1.8-0.2-2.3-0.7S34,63.6,33.9,62.8z"/>
		<path d="M46.7,62.4l1.5,0.5c-0.2,0.9-0.6,1.5-1.2,1.9c-0.5,0.4-1.2,0.6-2.1,0.6c-1,0-1.9-0.4-2.6-1.1c-0.7-0.7-1-1.7-1-2.9
			c0-1.3,0.3-2.3,1-3.1c0.7-0.7,1.6-1.1,2.7-1.1c1,0,1.7,0.3,2.3,0.9c0.4,0.3,0.6,0.8,0.8,1.5L46.7,60c-0.1-0.4-0.3-0.7-0.6-1
			c-0.3-0.2-0.7-0.4-1.1-0.4c-0.6,0-1.1,0.2-1.4,0.6c-0.4,0.4-0.5,1.1-0.5,2c0,1,0.2,1.7,0.5,2.1s0.8,0.6,1.4,0.6
			c0.4,0,0.8-0.1,1.1-0.4C46.4,63.4,46.6,63,46.7,62.4z"/>
		<path d="M56.7,65.3H55l-0.7-1.8h-3.1l-0.6,1.8h-1.7l3.1-7.9h1.7L56.7,65.3z M53.8,62.2l-1.1-2.9l-1.1,2.9H53.8z"/>
		<path d="M57.6,65.3v-7.9h3.3c0.8,0,1.5,0.1,1.8,0.2c0.4,0.1,0.7,0.4,0.9,0.8s0.3,0.8,0.3,1.2c0,0.6-0.2,1.1-0.5,1.5
			s-0.9,0.6-1.6,0.7c0.3,0.2,0.6,0.4,0.9,0.7c0.2,0.2,0.5,0.7,0.9,1.3l1,1.5h-1.9l-1.1-1.7c-0.4-0.6-0.7-1-0.8-1.2s-0.3-0.3-0.5-0.3
			c-0.2-0.1-0.4-0.1-0.8-0.1h-0.3v3.3H57.6z M59.2,60.8h1.2c0.8,0,1.2,0,1.4-0.1s0.3-0.2,0.4-0.3s0.2-0.4,0.2-0.6
			c0-0.3-0.1-0.5-0.2-0.6c-0.1-0.2-0.3-0.3-0.6-0.3c-0.1,0-0.5,0-1.2,0h-1.2V60.8z"/>
		<path d="M69.2,62.4v-1.3h3.4v3.1c-0.3,0.3-0.8,0.6-1.4,0.9c-0.6,0.2-1.3,0.4-1.9,0.4c-0.8,0-1.5-0.2-2.2-0.5s-1.1-0.8-1.4-1.5
			s-0.5-1.3-0.5-2.1c0-0.8,0.2-1.5,0.5-2.2c0.3-0.6,0.8-1.1,1.5-1.5c0.5-0.3,1.1-0.4,1.9-0.4c1,0,1.7,0.2,2.3,0.6
			c0.5,0.4,0.9,1,1.1,1.7l-1.6,0.3c-0.1-0.4-0.3-0.7-0.6-0.9c-0.3-0.2-0.7-0.3-1.1-0.3c-0.7,0-1.2,0.2-1.7,0.7
			c-0.4,0.4-0.6,1.1-0.6,2c0,0.9,0.2,1.6,0.6,2.1c0.4,0.5,1,0.7,1.6,0.7c0.3,0,0.7-0.1,1-0.2c0.3-0.1,0.6-0.3,0.9-0.5v-1H69.2z"/>
		<path d="M81.2,65.3h-1.7l-0.7-1.8h-3.1L75,65.3h-1.7l3.1-7.9H78L81.2,65.3z M78.2,62.2l-1.1-2.9l-1.1,2.9H78.2z"/>
		<path d="M82,65.3v-7.9h3.3c0.8,0,1.5,0.1,1.8,0.2c0.4,0.1,0.7,0.4,0.9,0.8c0.2,0.4,0.3,0.8,0.3,1.2c0,0.6-0.2,1.1-0.5,1.5
			c-0.3,0.4-0.9,0.6-1.6,0.7c0.3,0.2,0.6,0.4,0.9,0.7s0.5,0.7,0.9,1.3l1,1.5h-1.9L86,63.6c-0.4-0.6-0.7-1-0.8-1.2s-0.3-0.3-0.5-0.3
			c-0.2-0.1-0.4-0.1-0.8-0.1h-0.3v3.3H82z M83.6,60.8h1.2c0.8,0,1.2,0,1.4-0.1c0.2-0.1,0.3-0.2,0.4-0.3s0.2-0.4,0.2-0.6
			c0-0.3-0.1-0.5-0.2-0.6s-0.3-0.3-0.6-0.3c-0.1,0-0.5,0-1.2,0h-1.2V60.8z"/>
		<path d="M92.7,61.4c0-0.8,0.1-1.5,0.4-2c0.2-0.4,0.4-0.8,0.7-1.1c0.3-0.3,0.6-0.6,1-0.7c0.5-0.2,1.1-0.3,1.7-0.3
			c1.2,0,2.1,0.4,2.8,1.1s1,1.7,1,3c0,1.3-0.3,2.3-1,3c-0.7,0.7-1.6,1.1-2.8,1.1c-1.2,0-2.1-0.4-2.8-1.1
			C93,63.7,92.7,62.7,92.7,61.4z M94.3,61.4c0,0.9,0.2,1.6,0.6,2c0.4,0.5,0.9,0.7,1.6,0.7s1.2-0.2,1.6-0.7c0.4-0.5,0.6-1.1,0.6-2.1
			c0-0.9-0.2-1.6-0.6-2s-0.9-0.7-1.6-0.7s-1.2,0.2-1.6,0.7C94.5,59.8,94.3,60.5,94.3,61.4z"/>
		<path d="M101.6,57.5h3.1c0.6,0,1.1,0,1.4,0.1c0.3,0.1,0.6,0.2,0.8,0.3c0.2,0.2,0.4,0.4,0.6,0.7c0.2,0.3,0.2,0.6,0.2,0.9
			c0,0.4-0.1,0.7-0.3,1c-0.2,0.3-0.5,0.5-0.8,0.7c0.5,0.1,0.8,0.4,1.1,0.7s0.4,0.7,0.4,1.2c0,0.4-0.1,0.7-0.3,1
			c-0.2,0.3-0.4,0.6-0.7,0.8c-0.3,0.2-0.6,0.3-1.1,0.4c-0.3,0-0.9,0-1.9,0.1h-2.7V57.5z M103.2,58.8v1.8h1c0.6,0,1,0,1.2,0
			c0.3,0,0.5-0.1,0.6-0.3c0.2-0.2,0.2-0.4,0.2-0.6c0-0.2-0.1-0.4-0.2-0.6c-0.1-0.2-0.3-0.2-0.6-0.3c-0.2,0-0.6,0-1.4,0H103.2z
			 M103.2,61.9V64h1.5c0.6,0,0.9,0,1.1,0c0.2,0,0.4-0.1,0.6-0.3c0.1-0.2,0.2-0.4,0.2-0.7c0-0.2-0.1-0.4-0.2-0.6
			c-0.1-0.2-0.3-0.3-0.5-0.4s-0.7-0.1-1.4-0.1H103.2z"/>
		<path d="M112.4,57.5h1.6v5c0,0.7-0.1,1.2-0.2,1.5c-0.2,0.5-0.4,0.8-0.8,1.1c-0.4,0.3-0.9,0.4-1.6,0.4c-0.8,0-1.4-0.2-1.8-0.7
			c-0.4-0.4-0.6-1.1-0.6-1.9l1.5-0.2c0,0.5,0.1,0.8,0.2,1c0.2,0.3,0.4,0.4,0.8,0.4c0.4,0,0.6-0.1,0.8-0.3c0.1-0.2,0.2-0.6,0.2-1.3
			V57.5z"/>
		<path d="M115.6,65.3v-7.9h5.8v1.3h-4.2v1.7h4v1.3h-4V64h4.4v1.3H115.6z"/>
		<path d="M124.7,65.3v-6.5h-2.3v-1.3h6.3v1.3h-2.3v6.5H124.7z"/>
		<path d="M129.2,61.4c0-0.8,0.1-1.5,0.4-2c0.2-0.4,0.4-0.8,0.7-1.1c0.3-0.3,0.6-0.6,1-0.7c0.5-0.2,1.1-0.3,1.7-0.3
			c1.2,0,2.1,0.4,2.8,1.1c0.7,0.7,1,1.7,1,3c0,1.3-0.3,2.3-1,3c-0.7,0.7-1.6,1.1-2.8,1.1c-1.2,0-2.1-0.4-2.8-1.1
			C129.5,63.7,129.2,62.7,129.2,61.4z M130.8,61.4c0,0.9,0.2,1.6,0.6,2c0.4,0.5,0.9,0.7,1.6,0.7s1.2-0.2,1.6-0.7
			c0.4-0.5,0.6-1.1,0.6-2.1c0-0.9-0.2-1.6-0.6-2c-0.4-0.4-0.9-0.7-1.6-0.7s-1.2,0.2-1.6,0.7C131,59.8,130.8,60.5,130.8,61.4z"/>
	</g>
	<path id="XMLID_413_" class="st4" d="M89,29.5c-1.2,0-1.9,1-1.9,1.9v2.9H68.8v-2.9c0-1-1-1.9-2-1.9c-1.2,0-1.9,1-1.9,1.9v4.9
		c0,1.2,0.8,1.9,1.9,1.9H89c1,0,1.7-0.8,1.7-1.9v-4.9C90.8,30.5,90,29.5,89,29.5L89,29.5z M77.4,31.7c0.2,0.2,0.8,0.2,1.2,0l6.6-6.8
		c0.2-0.2,0.2-0.4,0.2-0.8c-0.2-0.2-0.4-0.4-0.6-0.4h-3.3V11.4c0-1-0.6-1.6-1.4-1.6h-4.3c-1,0-1.6,0.6-1.6,1.6v12.3h-3.1
		c-0.4,0-0.6,0.2-0.8,0.4c0,0.4,0,0.6,0.2,0.8L77.4,31.7z"/>
</g>
</svg>
