<?xml version="1.0" encoding="utf-8"?>
<!-- Generator: Adobe Illustrator 21.0.0, SVG Export Plug-In . SVG Version: 6.00 Build 0)  -->
<svg version="1.1" id="Capa_1" xmlns="http://www.w3.org/2000/svg" xmlns:xlink="http://www.w3.org/1999/xlink" x="0px" y="0px"
	 viewBox="0 0 155.7 74.3" style="enable-background:new 0 0 155.7 74.3;" xml:space="preserve">
<style type="text/css">
	.st0{fill:#FFFFFF;}
	.st1{fill:none;}
	.st2{enable-background:new    ;}
</style>
<g id="XMLID_477_">
	<rect id="XMLID_281_" x="0.5" class="st0" width="154.9" height="74.3"/>
	<rect id="XMLID_266_" width="155.3" height="48.2"/>
	<rect id="XMLID_309_" y="57.5" class="st1" width="155.7" height="13.1"/>
	<g class="st2">
		<path d="M30.7,57.5h2.9c0.7,0,1.2,0,1.5,0.2c0.5,0.1,0.9,0.4,1.2,0.7c0.3,0.3,0.6,0.8,0.8,1.3s0.3,1.1,0.3,1.9
			c0,0.6-0.1,1.2-0.2,1.7c-0.2,0.6-0.5,1-0.8,1.4c-0.3,0.3-0.6,0.5-1.1,0.6c-0.4,0.1-0.8,0.2-1.4,0.2h-3V57.5z M32.3,58.8V64h1.2
			c0.4,0,0.8,0,1-0.1c0.3-0.1,0.5-0.2,0.6-0.3c0.2-0.2,0.3-0.4,0.4-0.8s0.2-0.8,0.2-1.4s-0.1-1.1-0.2-1.4c-0.1-0.3-0.3-0.6-0.5-0.8
			c-0.2-0.2-0.4-0.3-0.7-0.4c-0.2,0-0.7-0.1-1.3-0.1H32.3z"/>
		<path d="M38.6,65.3v-7.9h5.8v1.3h-4.2v1.7h4v1.3h-4V64h4.4v1.3H38.6z"/>
		<path d="M45.6,62.8l1.5-0.2c0.1,0.5,0.3,0.9,0.6,1.1c0.3,0.2,0.7,0.4,1.2,0.4c0.5,0,0.9-0.1,1.2-0.3c0.3-0.2,0.4-0.5,0.4-0.8
			c0-0.2-0.1-0.3-0.2-0.5c-0.1-0.1-0.3-0.2-0.6-0.3c-0.2-0.1-0.6-0.2-1.3-0.3c-0.9-0.2-1.5-0.5-1.8-0.8c-0.5-0.4-0.7-1-0.7-1.6
			c0-0.4,0.1-0.8,0.3-1.1c0.2-0.3,0.6-0.6,1-0.8c0.4-0.2,0.9-0.3,1.5-0.3c1,0,1.7,0.2,2.2,0.6c0.5,0.4,0.8,1,0.8,1.7l-1.6,0.1
			c-0.1-0.4-0.2-0.7-0.4-0.9c-0.2-0.2-0.6-0.3-1-0.3c-0.5,0-0.8,0.1-1.1,0.3c-0.2,0.1-0.3,0.3-0.3,0.5c0,0.2,0.1,0.3,0.2,0.5
			c0.2,0.2,0.7,0.3,1.5,0.5c0.8,0.2,1.3,0.4,1.7,0.6c0.4,0.2,0.7,0.5,0.9,0.8c0.2,0.3,0.3,0.8,0.3,1.3c0,0.5-0.1,0.9-0.4,1.3
			c-0.3,0.4-0.6,0.7-1.1,0.9s-1,0.3-1.7,0.3c-1,0-1.8-0.2-2.3-0.7S45.7,63.6,45.6,62.8z"/>
		<path d="M58.3,62.4l1.5,0.5c-0.2,0.9-0.6,1.5-1.2,1.9c-0.5,0.4-1.2,0.6-2.1,0.6c-1,0-1.9-0.4-2.6-1.1c-0.7-0.7-1-1.7-1-2.9
			c0-1.3,0.3-2.3,1-3.1c0.7-0.7,1.6-1.1,2.7-1.1c1,0,1.7,0.3,2.3,0.9c0.4,0.3,0.6,0.8,0.8,1.5L58.3,60c-0.1-0.4-0.3-0.7-0.6-1
			c-0.3-0.2-0.7-0.4-1.1-0.4c-0.6,0-1.1,0.2-1.4,0.6c-0.4,0.4-0.5,1.1-0.5,2c0,1,0.2,1.7,0.5,2.1s0.8,0.6,1.4,0.6
			c0.4,0,0.8-0.1,1.1-0.4C58,63.4,58.2,63,58.3,62.4z"/>
		<path d="M68.3,65.3h-1.7l-0.7-1.8h-3.1l-0.6,1.8h-1.7l3.1-7.9h1.7L68.3,65.3z M65.4,62.2l-1.1-2.9l-1.1,2.9H65.4z"/>
		<path d="M69.2,65.3v-7.9h3.3c0.8,0,1.5,0.1,1.8,0.2c0.4,0.1,0.7,0.4,0.9,0.8s0.3,0.8,0.3,1.2c0,0.6-0.2,1.1-0.5,1.5
			s-0.9,0.6-1.6,0.7c0.3,0.2,0.6,0.4,0.9,0.7c0.2,0.2,0.5,0.7,0.9,1.3l1,1.5h-1.9l-1.1-1.7c-0.4-0.6-0.7-1-0.8-1.2s-0.3-0.3-0.5-0.3
			c-0.2-0.1-0.4-0.1-0.8-0.1h-0.3v3.3H69.2z M70.8,60.8H72c0.8,0,1.2,0,1.4-0.1s0.3-0.2,0.4-0.3S74,60,74,59.8
			c0-0.3-0.1-0.5-0.2-0.6c-0.1-0.2-0.3-0.3-0.6-0.3c-0.1,0-0.5,0-1.2,0h-1.2V60.8z"/>
		<path d="M80.8,62.4v-1.3h3.4v3.1c-0.3,0.3-0.8,0.6-1.4,0.9c-0.6,0.2-1.3,0.4-1.9,0.4c-0.8,0-1.5-0.2-2.2-0.5s-1.1-0.8-1.4-1.5
			s-0.5-1.3-0.5-2.1c0-0.8,0.2-1.5,0.5-2.2c0.3-0.6,0.8-1.1,1.5-1.5c0.5-0.3,1.1-0.4,1.9-0.4c1,0,1.7,0.2,2.3,0.6s0.9,1,1.1,1.7
			l-1.6,0.3c-0.1-0.4-0.3-0.7-0.6-0.9c-0.3-0.2-0.7-0.3-1.1-0.3c-0.7,0-1.2,0.2-1.7,0.7c-0.4,0.4-0.6,1.1-0.6,2
			c0,0.9,0.2,1.6,0.6,2.1c0.4,0.5,1,0.7,1.6,0.7c0.3,0,0.7-0.1,1-0.2c0.3-0.1,0.6-0.3,0.9-0.5v-1H80.8z"/>
		<path d="M92.8,65.3h-1.7l-0.7-1.8h-3.1l-0.6,1.8h-1.7l3.1-7.9h1.7L92.8,65.3z M89.9,62.2l-1.1-2.9l-1.1,2.9H89.9z"/>
		<path d="M93.6,65.3v-7.9H97c0.8,0,1.5,0.1,1.8,0.2c0.4,0.1,0.7,0.4,0.9,0.8c0.2,0.4,0.3,0.8,0.3,1.2c0,0.6-0.2,1.1-0.5,1.5
			c-0.3,0.4-0.9,0.6-1.6,0.7c0.3,0.2,0.6,0.4,0.9,0.7s0.5,0.7,0.9,1.3l1,1.5h-1.9l-1.1-1.7c-0.4-0.6-0.7-1-0.8-1.2s-0.3-0.3-0.5-0.3
			c-0.2-0.1-0.4-0.1-0.8-0.1h-0.3v3.3H93.6z M95.2,60.8h1.2c0.8,0,1.2,0,1.4-0.1c0.2-0.1,0.3-0.2,0.4-0.3s0.2-0.4,0.2-0.6
			c0-0.3-0.1-0.5-0.2-0.6s-0.3-0.3-0.6-0.3c-0.1,0-0.5,0-1.2,0h-1.2V60.8z"/>
		<path d="M104.6,65.3v-7.9h2.6c1,0,1.6,0,1.9,0.1c0.5,0.1,0.8,0.4,1.1,0.8c0.3,0.4,0.5,0.9,0.5,1.5c0,0.5-0.1,0.9-0.3,1.2
			c-0.2,0.3-0.4,0.6-0.7,0.8c-0.3,0.2-0.5,0.3-0.8,0.4c-0.4,0.1-0.9,0.1-1.6,0.1h-1v3H104.6z M106.2,58.8V61h0.9c0.6,0,1,0,1.3-0.1
			c0.2-0.1,0.4-0.2,0.5-0.4c0.1-0.2,0.2-0.4,0.2-0.6c0-0.3-0.1-0.5-0.3-0.7c-0.2-0.2-0.4-0.3-0.6-0.3c-0.2,0-0.6-0.1-1.1-0.1H106.2z
			"/>
		<path d="M112,57.5h2.9c0.7,0,1.2,0,1.5,0.2c0.5,0.1,0.9,0.4,1.2,0.7c0.3,0.3,0.6,0.8,0.8,1.3s0.3,1.1,0.3,1.9
			c0,0.6-0.1,1.2-0.2,1.7c-0.2,0.6-0.5,1-0.8,1.4c-0.3,0.3-0.6,0.5-1.1,0.6c-0.4,0.1-0.8,0.2-1.4,0.2h-3V57.5z M113.5,58.8V64h1.2
			c0.4,0,0.8,0,1-0.1c0.3-0.1,0.5-0.2,0.6-0.3c0.2-0.2,0.3-0.4,0.4-0.8s0.2-0.8,0.2-1.4s-0.1-1.1-0.2-1.4c-0.1-0.3-0.3-0.6-0.5-0.8
			c-0.2-0.2-0.4-0.3-0.7-0.4c-0.2,0-0.7-0.1-1.3-0.1H113.5z"/>
		<path d="M119.9,65.3v-7.9h5.4v1.3h-3.8v1.9h3.3V62h-3.3v3.3H119.9z"/>
	</g>
	<g id="XMLID_167_">
		<path id="XMLID_302_" class="st0" d="M76.3,15.2h-4.8c-0.7,0-1.3,0.6-1.3,1.3c0,0.7,0.6,1.3,1.3,1.3h4.8c0.7,0,1.3-0.6,1.3-1.3
			S77.1,15.2,76.3,15.2z"/>
		<path id="XMLID_297_" class="st0" d="M76.3,20.8h-4.8c-0.7,0-1.3,0.6-1.3,1.3s0.6,1.3,1.3,1.3h4.8c0.7,0,1.3-0.6,1.3-1.3
			S77.1,20.8,76.3,20.8z"/>
		<path id="XMLID_296_" class="st0" d="M82,30.2v1.3h0.7c0.8,0,0.8-0.5,0.8-0.7s0-0.6-0.8-0.6L82,30.2L82,30.2z"/>
		<path id="XMLID_186_" class="st0" d="M92.1,27.7h-2.2V14.1c0-0.4-0.1-0.7-0.4-0.9L84.3,8c-0.2-0.2-0.6-0.4-0.9-0.4H67.6
			c-1.4,0-2.6,1.2-2.6,2.6V38c0,1.4,1.2,2.6,2.6,2.6h19.8c1.4,0,2.6-1.2,2.6-2.6v-2.7h2.2c1.1,0,2-0.9,2-2v-3.5
			C94.2,28.6,93.2,27.7,92.1,27.7z M87.1,37.7H67.8V10.5h13.7v3.9c0,0.9,0.8,1.7,1.7,1.7h3.9v11.6h-6.6c-1.1,0-2,0.9-2,2v3.5
			c0,1.1,0.9,2,2,2h6.6V37.7L87.1,37.7z M84.3,30.8c0,0.9-0.6,1.5-1.7,1.5H82v0.8c0,0.2-0.2,0.4-0.4,0.4h-0.1
			c-0.2,0-0.4-0.2-0.4-0.4v-3.4c0-0.2,0.2-0.4,0.4-0.4h1.2C83.7,29.3,84.3,29.9,84.3,30.8z M86.4,33.5h-1.3c-0.2,0-0.4-0.2-0.4-0.4
			v-3.4c0-0.2,0.2-0.4,0.4-0.4h1.3c1.2,0,2.1,0.9,2.1,2.1C88.6,32.5,87.6,33.5,86.4,33.5z M91.8,29.8c0,0.2-0.2,0.4-0.4,0.4h-1.5V31
			h1.3c0.2,0,0.4,0.2,0.4,0.4v0.1c0,0.2-0.2,0.4-0.4,0.4h-1.3v1.2c0,0.2-0.2,0.4-0.4,0.4h-0.1c-0.2,0-0.4-0.2-0.4-0.4v-3.4
			c0-0.2,0.2-0.4,0.4-0.4h2C91.6,29.3,91.8,29.5,91.8,29.8L91.8,29.8L91.8,29.8z"/>
		<path id="XMLID_185_" class="st0" d="M86.4,30.2h-0.9v2.5h0.9c0.7,0,1.3-0.6,1.3-1.2C87.7,30.7,87.1,30.2,86.4,30.2z"/>
	</g>
</g>
</svg>
