<?xml version="1.0" encoding="utf-8"?>
<!-- Generator: Adobe Illustrator 18.1.1, SVG Export Plug-In . SVG Version: 6.00 Build 0)  -->
<svg version="1.1" id="Capa_1" xmlns="http://www.w3.org/2000/svg" xmlns:xlink="http://www.w3.org/1999/xlink" x="0px" y="0px"
	 viewBox="187.6 319.2 236.9 153.7" enable-background="new 187.6 319.2 236.9 153.7" xml:space="preserve">
<rect id="XMLID_224_" x="187.6" y="319.2" fill="#F4941B" width="236.9" height="153.7"/>
<path id="XMLID_585_" d="M239.7,447.7c-0.9,1.6-2,3.2-3.4,4.6c-4,4-8.8,6-14.3,6c-5.4,0-10.1-2-14.1-5.9c-1.4-1.4-2.6-3-3.5-4.6
	h-16.9v25.2h237v-25.2H239.7z"/>
<g id="XMLID_220_">
	<g id="XMLID_222_">
		<path id="XMLID_577_" d="M736.4-165c9,9,13.5,20,13.5,33c0,13-4.4,23.9-13.2,32.6c-9.4,9.2-20.4,13.8-33.2,13.8
			c-12.6,0-23.5-4.6-32.6-13.7c-9.1-9.1-13.7-20-13.7-32.7c0-12.7,4.6-23.7,13.7-33c8.9-9,19.8-13.5,32.6-13.5
			C716.4-178.5,727.4-174,736.4-165z M676.9-159c-7.6,7.7-11.4,16.6-11.4,26.9c0,10.3,3.8,19.2,11.3,26.7
			c7.5,7.5,16.4,11.3,26.8,11.3c10.4,0,19.4-3.8,27-11.4c7.3-7,10.9-15.9,10.9-26.6c0-10.6-3.7-19.6-11.1-27
			c-7.4-7.4-16.3-11.1-26.9-11.1C693.1-170.1,684.2-166.4,676.9-159z"/>
	</g>
</g>
<g id="XMLID_41_">
	<path id="XMLID_42_" fill="#FFFFFF" d="M215.3,445v-15.4h6.6c1.6,0,2.8,0.1,3.6,0.4c0.7,0.3,1.3,0.8,1.8,1.5
		c0.5,0.7,0.7,1.5,0.7,2.4c0,1.2-0.3,2.1-1,2.9c-0.7,0.8-1.7,1.2-3.1,1.4c0.7,0.4,1.2,0.8,1.7,1.3c0.4,0.5,1,1.3,1.8,2.5l1.9,3h-3.7
		l-2.3-3.4c-0.8-1.2-1.3-2-1.6-2.3c-0.3-0.3-0.6-0.5-0.9-0.6c-0.3-0.1-0.9-0.2-1.6-0.2h-0.6v6.4L215.3,445L215.3,445z M218.5,436.1
		h2.3c1.5,0,2.4-0.1,2.8-0.2c0.4-0.1,0.7-0.3,0.9-0.7c0.2-0.3,0.3-0.7,0.3-1.2c0-0.5-0.1-0.9-0.4-1.3c-0.3-0.3-0.7-0.5-1.2-0.6
		c-0.3,0-1-0.1-2.3-0.1h-2.4L218.5,436.1L218.5,436.1z"/>
</g>
<g id="XMLID_11_">
	<g id="XMLID_732_">
		<path id="XMLID_779_" fill="#FFFFFF" d="M249.5,439.6v-11.5h4.9c1.2,0,2.1,0.1,2.7,0.3s1,0.6,1.3,1.1c0.3,0.5,0.5,1.1,0.5,1.8
			c0,0.9-0.3,1.6-0.8,2.1s-1.3,0.9-2.3,1.1c0.5,0.3,0.9,0.6,1.2,1s0.8,1,1.3,1.9l1.4,2.2h-2.8l-1.7-2.5c-0.6-0.9-1-1.5-1.2-1.7
			c-0.2-0.2-0.5-0.4-0.7-0.5c-0.2-0.1-0.6-0.1-1.2-0.1h-0.5v4.8H249.5z M251.9,433h1.7c1.1,0,1.8,0,2.1-0.1c0.3-0.1,0.5-0.3,0.7-0.5
			s0.2-0.5,0.2-0.9c0-0.4-0.1-0.7-0.3-0.9c-0.2-0.2-0.5-0.4-0.9-0.5c-0.2,0-0.8,0-1.7,0h-1.8L251.9,433L251.9,433z"/>
		<path id="XMLID_776_" fill="#FFFFFF" d="M265.9,437l2.2,0.4c-0.3,0.8-0.7,1.4-1.3,1.8s-1.4,0.6-2.3,0.6c-1.4,0-2.5-0.5-3.2-1.4
			c-0.5-0.8-0.8-1.7-0.8-2.9c0-1.4,0.4-2.5,1.1-3.2c0.7-0.8,1.6-1.2,2.7-1.2c1.2,0,2.2,0.4,2.9,1.2c0.7,0.8,1.1,2.1,1,3.8h-5.5
			c0,0.7,0.2,1.2,0.5,1.5c0.3,0.4,0.8,0.5,1.3,0.5c0.3,0,0.6-0.1,0.9-0.3C265.6,437.7,265.8,437.4,265.9,437z M266,434.7
			c0-0.6-0.2-1.1-0.5-1.5c-0.3-0.3-0.7-0.5-1.1-0.5c-0.5,0-0.9,0.2-1.2,0.5c-0.3,0.3-0.5,0.8-0.5,1.4L266,434.7L266,434.7z"/>
		<path id="XMLID_773_" fill="#FFFFFF" d="M269.8,440.2l2.5,0.3c0,0.3,0.1,0.5,0.3,0.6c0.2,0.2,0.5,0.2,1,0.2c0.6,0,1-0.1,1.3-0.3
			c0.2-0.1,0.3-0.3,0.4-0.6c0.1-0.2,0.1-0.5,0.1-1v-1.2c-0.7,0.9-1.5,1.3-2.5,1.3c-1.1,0-2-0.5-2.7-1.4c-0.5-0.7-0.8-1.7-0.8-2.8
			c0-1.4,0.3-2.5,1-3.2c0.7-0.7,1.5-1.1,2.5-1.1c1,0,1.9,0.5,2.5,1.4v-1.2h2.1v7.5c0,1-0.1,1.7-0.2,2.2c-0.2,0.5-0.4,0.9-0.7,1.1
			c-0.3,0.3-0.7,0.5-1.2,0.7c-0.5,0.2-1.1,0.2-1.9,0.2c-1.4,0-2.4-0.2-3-0.7c-0.6-0.5-0.9-1.1-0.9-1.8
			C269.8,440.3,269.8,440.3,269.8,440.2z M271.8,435.3c0,0.9,0.2,1.5,0.5,1.9s0.8,0.6,1.3,0.6c0.5,0,1-0.2,1.4-0.6s0.6-1,0.6-1.9
			c0-0.9-0.2-1.5-0.5-1.9c-0.4-0.4-0.8-0.6-1.3-0.6c-0.5,0-1,0.2-1.3,0.6C272,433.8,271.8,434.4,271.8,435.3z"/>
		<path id="XMLID_770_" fill="#FFFFFF" d="M279.8,430.2v-2h2.2v2H279.8z M279.8,439.6v-8.3h2.2v8.3H279.8z"/>
		<path id="XMLID_768_" fill="#FFFFFF" d="M283.5,437.2l2.2-0.3c0.1,0.4,0.3,0.8,0.6,1c0.3,0.2,0.7,0.3,1.2,0.3c0.6,0,1-0.1,1.3-0.3
			c0.2-0.1,0.3-0.3,0.3-0.6c0-0.2-0.1-0.3-0.2-0.4c-0.1-0.1-0.4-0.2-0.7-0.3c-1.8-0.4-2.9-0.7-3.4-1.1c-0.7-0.4-1-1.1-1-1.9
			c0-0.7,0.3-1.3,0.9-1.8s1.5-0.7,2.6-0.7c1.1,0,2,0.2,2.5,0.6c0.6,0.4,0.9,0.9,1.1,1.6l-2.1,0.4c-0.1-0.3-0.3-0.6-0.5-0.7
			c-0.2-0.2-0.6-0.3-1.1-0.3c-0.6,0-1,0.1-1.2,0.2c-0.2,0.1-0.3,0.3-0.3,0.4c0,0.2,0.1,0.3,0.2,0.4c0.2,0.1,0.9,0.4,2.1,0.6
			c1.2,0.3,2,0.6,2.5,1c0.5,0.4,0.7,0.9,0.7,1.6c0,0.8-0.3,1.4-1,2c-0.6,0.5-1.6,0.8-2.8,0.8c-1.1,0-2-0.2-2.7-0.7
			S283.7,438,283.5,437.2z"/>
		<path id="XMLID_766_" fill="#FFFFFF" d="M297,431.3v1.8h-1.5v3.4c0,0.7,0,1.1,0,1.2c0,0.1,0.1,0.2,0.2,0.3s0.2,0.1,0.4,0.1
			c0.2,0,0.5-0.1,0.9-0.2l0.2,1.7c-0.5,0.2-1.1,0.3-1.7,0.3c-0.4,0-0.8-0.1-1.1-0.2c-0.3-0.1-0.6-0.3-0.7-0.5
			c-0.1-0.2-0.3-0.5-0.3-0.9c0-0.3-0.1-0.8-0.1-1.6V433h-1v-1.8h1v-1.7l2.2-1.3v2.9H297z"/>
		<path id="XMLID_763_" fill="#FFFFFF" d="M303.4,437l2.2,0.4c-0.3,0.8-0.7,1.4-1.3,1.8c-0.6,0.4-1.4,0.6-2.3,0.6
			c-1.4,0-2.5-0.5-3.2-1.4c-0.5-0.8-0.8-1.7-0.8-2.9c0-1.4,0.4-2.5,1.1-3.2c0.7-0.8,1.6-1.2,2.7-1.2c1.2,0,2.2,0.4,2.9,1.2
			c0.7,0.8,1.1,2.1,1,3.8h-5.5c0,0.7,0.2,1.2,0.5,1.5c0.3,0.4,0.8,0.5,1.3,0.5c0.3,0,0.6-0.1,0.9-0.3
			C303.1,437.7,303.3,437.4,303.4,437z M303.5,434.7c0-0.6-0.2-1.1-0.5-1.5c-0.3-0.3-0.7-0.5-1.1-0.5c-0.5,0-0.9,0.2-1.2,0.5
			c-0.3,0.3-0.5,0.8-0.5,1.4L303.5,434.7L303.5,434.7z"/>
		<path id="XMLID_761_" fill="#FFFFFF" d="M309.6,439.6h-2.2v-8.3h2v1.2c0.3-0.6,0.7-0.9,0.9-1.1s0.6-0.3,1-0.3c0.5,0,1,0.1,1.4,0.4
			l-0.7,1.9c-0.4-0.2-0.7-0.4-1-0.4c-0.3,0-0.6,0.1-0.8,0.3s-0.4,0.5-0.5,0.9s-0.2,1.4-0.2,2.8L309.6,439.6L309.6,439.6z"/>
		<path id="XMLID_758_" fill="#FFFFFF" d="M318.6,437l2.2,0.4c-0.3,0.8-0.7,1.4-1.3,1.8c-0.6,0.4-1.4,0.6-2.3,0.6
			c-1.4,0-2.5-0.5-3.2-1.4c-0.5-0.8-0.8-1.7-0.8-2.9c0-1.4,0.4-2.5,1.1-3.2c0.7-0.8,1.6-1.2,2.7-1.2c1.2,0,2.2,0.4,2.9,1.2
			c0.7,0.8,1.1,2.1,1,3.8h-5.5c0,0.7,0.2,1.2,0.5,1.5c0.3,0.4,0.8,0.5,1.3,0.5c0.3,0,0.6-0.1,0.9-0.3
			C318.3,437.7,318.4,437.4,318.6,437z M318.7,434.7c0-0.6-0.2-1.1-0.5-1.5c-0.3-0.3-0.7-0.5-1.1-0.5c-0.5,0-0.9,0.2-1.2,0.5
			s-0.5,0.8-0.5,1.4L318.7,434.7L318.7,434.7z"/>
		<path id="XMLID_755_" fill="#FFFFFF" d="M330.3,439.6h-2v-1.2c-0.3,0.5-0.7,0.8-1.2,1.1c-0.5,0.2-0.9,0.3-1.4,0.3
			c-1,0-1.8-0.4-2.5-1.2s-1-1.8-1-3.2c0-1.4,0.3-2.5,1-3.2c0.7-0.7,1.5-1.1,2.5-1.1c0.9,0,1.7,0.4,2.4,1.2v-4.1h2.2L330.3,439.6
			L330.3,439.6z M324.4,435.3c0,0.9,0.1,1.5,0.4,1.9c0.4,0.6,0.9,0.9,1.5,0.9c0.5,0,0.9-0.2,1.3-0.6c0.4-0.4,0.5-1.1,0.5-1.9
			c0-1-0.2-1.6-0.5-2.1c-0.3-0.4-0.8-0.6-1.3-0.6c-0.5,0-1,0.2-1.3,0.6C324.6,433.8,324.4,434.4,324.4,435.3z"/>
		<path id="XMLID_753_" fill="#FFFFFF" d="M340.7,431.3v1.8h-1.5v3.4c0,0.7,0,1.1,0,1.2c0,0.1,0.1,0.2,0.2,0.3
			c0.1,0.1,0.2,0.1,0.4,0.1c0.2,0,0.5-0.1,0.9-0.2l0.2,1.7c-0.5,0.2-1.1,0.3-1.7,0.3c-0.4,0-0.8-0.1-1.1-0.2
			c-0.3-0.1-0.6-0.3-0.7-0.5c-0.1-0.2-0.3-0.5-0.3-0.9c0-0.3-0.1-0.8-0.1-1.6V433h-1v-1.8h1v-1.7l2.2-1.3v2.9H340.7z"/>
		<path id="XMLID_751_" fill="#FFFFFF" d="M344.4,439.6h-2.2v-8.3h2v1.2c0.3-0.6,0.7-0.9,0.9-1.1c0.3-0.2,0.6-0.3,1-0.3
			c0.5,0,1,0.1,1.4,0.4l-0.7,1.9c-0.4-0.2-0.7-0.4-1-0.4c-0.3,0-0.6,0.1-0.8,0.3c-0.2,0.2-0.4,0.5-0.5,0.9c-0.1,0.4-0.2,1.4-0.2,2.8
			L344.4,439.6L344.4,439.6z"/>
		<path id="XMLID_748_" fill="#FFFFFF" d="M350.2,433.8l-2-0.4c0.2-0.8,0.6-1.4,1.2-1.8c0.5-0.4,1.4-0.6,2.4-0.6
			c1,0,1.7,0.1,2.2,0.3s0.8,0.5,1,0.9s0.3,1,0.3,2l0,2.6c0,0.7,0,1.3,0.1,1.6c0.1,0.3,0.2,0.7,0.4,1.1h-2.2
			c-0.1-0.1-0.1-0.4-0.2-0.7c0-0.1-0.1-0.2-0.1-0.3c-0.4,0.4-0.8,0.6-1.2,0.8c-0.4,0.2-0.9,0.3-1.4,0.3c-0.9,0-1.5-0.2-2-0.7
			c-0.5-0.5-0.7-1.1-0.7-1.8c0-0.5,0.1-0.9,0.3-1.3c0.2-0.4,0.5-0.7,0.9-0.8c0.4-0.2,1-0.4,1.8-0.5c1-0.2,1.7-0.4,2.1-0.5V434
			c0-0.4-0.1-0.7-0.3-0.9c-0.2-0.2-0.6-0.3-1.2-0.3c-0.4,0-0.7,0.1-0.9,0.2C350.5,433.2,350.3,433.4,350.2,433.8z M353.1,435.6
			c-0.3,0.1-0.7,0.2-1.3,0.3s-1,0.3-1.2,0.4c-0.3,0.2-0.4,0.5-0.4,0.8c0,0.3,0.1,0.6,0.3,0.8c0.2,0.2,0.5,0.3,0.9,0.3
			c0.4,0,0.8-0.1,1.1-0.4c0.3-0.2,0.4-0.4,0.5-0.7c0.1-0.2,0.1-0.5,0.1-1.1V435.6z"/>
		<path id="XMLID_745_" fill="#FFFFFF" d="M365.1,439.6h-2v-1.2c-0.3,0.5-0.7,0.8-1.2,1.1c-0.5,0.2-0.9,0.3-1.4,0.3
			c-1,0-1.8-0.4-2.5-1.2s-1-1.8-1-3.2c0-1.4,0.3-2.5,1-3.2c0.7-0.7,1.5-1.1,2.5-1.1c0.9,0,1.7,0.4,2.4,1.2v-4.1h2.2L365.1,439.6
			L365.1,439.6z M359.2,435.3c0,0.9,0.1,1.5,0.4,1.9c0.4,0.6,0.9,0.9,1.5,0.9c0.5,0,0.9-0.2,1.3-0.6s0.5-1.1,0.5-1.9
			c0-1-0.2-1.6-0.5-2.1s-0.8-0.6-1.3-0.6c-0.5,0-1,0.2-1.3,0.6C359.4,433.8,359.2,434.4,359.2,435.3z"/>
		<path id="XMLID_742_" fill="#FFFFFF" d="M372.1,437l2.2,0.4c-0.3,0.8-0.7,1.4-1.3,1.8c-0.6,0.4-1.4,0.6-2.3,0.6
			c-1.4,0-2.5-0.5-3.2-1.4c-0.5-0.8-0.8-1.7-0.8-2.9c0-1.4,0.4-2.5,1.1-3.2c0.7-0.8,1.6-1.2,2.7-1.2c1.2,0,2.2,0.4,2.9,1.2
			c0.7,0.8,1.1,2.1,1,3.8h-5.5c0,0.7,0.2,1.2,0.5,1.5c0.3,0.4,0.8,0.5,1.3,0.5c0.3,0,0.6-0.1,0.9-0.3
			C371.8,437.7,372,437.4,372.1,437z M372.2,434.7c0-0.6-0.2-1.1-0.5-1.5c-0.3-0.3-0.7-0.5-1.1-0.5c-0.5,0-0.9,0.2-1.2,0.5
			c-0.3,0.3-0.5,0.8-0.5,1.4L372.2,434.7L372.2,434.7z"/>
		<path id="XMLID_740_" fill="#FFFFFF" d="M376,431.3h2v1.1c0.7-0.9,1.6-1.3,2.6-1.3c0.5,0,1,0.1,1.4,0.3c0.4,0.2,0.7,0.6,1,1
			c0.4-0.4,0.8-0.8,1.2-1c0.4-0.2,0.9-0.3,1.4-0.3c0.6,0,1.1,0.1,1.6,0.4c0.4,0.2,0.7,0.6,0.9,1.1c0.2,0.4,0.2,0.9,0.2,1.7v5.3h-2.2
			v-4.8c0-0.8-0.1-1.4-0.2-1.6c-0.2-0.3-0.5-0.5-0.9-0.5c-0.3,0-0.6,0.1-0.9,0.3s-0.5,0.5-0.6,0.8c-0.1,0.4-0.2,0.9-0.2,1.7v4H381
			V435c0-0.8,0-1.3-0.1-1.6c-0.1-0.2-0.2-0.4-0.4-0.5s-0.4-0.2-0.7-0.2c-0.3,0-0.6,0.1-0.9,0.3c-0.3,0.2-0.5,0.4-0.6,0.8
			c-0.1,0.3-0.2,0.9-0.2,1.7v4H376L376,431.3L376,431.3z"/>
		<path id="XMLID_737_" fill="#FFFFFF" d="M392.1,433.8l-2-0.4c0.2-0.8,0.6-1.4,1.2-1.8c0.5-0.4,1.4-0.6,2.4-0.6
			c1,0,1.7,0.1,2.2,0.3s0.8,0.5,1,0.9s0.3,1,0.3,2l0,2.6c0,0.7,0,1.3,0.1,1.6c0.1,0.3,0.2,0.7,0.4,1.1h-2.2
			c-0.1-0.1-0.1-0.4-0.2-0.7c0-0.1-0.1-0.2-0.1-0.3c-0.4,0.4-0.8,0.6-1.2,0.8c-0.4,0.2-0.9,0.3-1.4,0.3c-0.9,0-1.5-0.2-2-0.7
			c-0.5-0.5-0.7-1.1-0.7-1.8c0-0.5,0.1-0.9,0.3-1.3c0.2-0.4,0.5-0.7,0.9-0.8c0.4-0.2,1-0.4,1.8-0.5c1-0.2,1.7-0.4,2.1-0.5V434
			c0-0.4-0.1-0.7-0.3-0.9c-0.2-0.2-0.6-0.3-1.2-0.3c-0.4,0-0.7,0.1-0.9,0.2C392.4,433.2,392.2,433.4,392.1,433.8z M395,435.6
			c-0.3,0.1-0.7,0.2-1.3,0.3s-1,0.3-1.2,0.4c-0.3,0.2-0.4,0.5-0.4,0.8c0,0.3,0.1,0.6,0.3,0.8c0.2,0.2,0.5,0.3,0.9,0.3
			c0.4,0,0.8-0.1,1.1-0.4c0.3-0.2,0.4-0.4,0.5-0.7c0.1-0.2,0.1-0.5,0.1-1.1V435.6z"/>
		<path id="XMLID_735_" fill="#FFFFFF" d="M401.5,439.6h-2.2v-8.3h2v1.2c0.3-0.6,0.7-0.9,0.9-1.1c0.3-0.2,0.6-0.3,1-0.3
			c0.5,0,1,0.1,1.4,0.4l-0.7,1.9c-0.4-0.2-0.7-0.4-1-0.4c-0.3,0-0.6,0.1-0.8,0.3s-0.4,0.5-0.5,0.9s-0.2,1.4-0.2,2.8L401.5,439.6
			L401.5,439.6z"/>
		<path id="XMLID_733_" fill="#FFFFFF" d="M405.5,439.6v-11.5h2.2v6.1l2.6-2.9h2.7l-2.8,3l3,5.3h-2.4l-2.1-3.7l-1,1.1v2.7
			L405.5,439.6L405.5,439.6z"/>
	</g>
</g>
<g id="XMLID_1_">
</g>
<g id="XMLID_359_">
</g>
<g id="XMLID_360_">
</g>
<g id="XMLID_361_">
</g>
<g id="XMLID_362_">
</g>
<g id="XMLID_363_">
</g>
<g id="XMLID_364_">
</g>
<g id="XMLID_365_">
</g>
<g id="XMLID_366_">
</g>
<g id="XMLID_367_">
</g>
<g id="XMLID_368_">
</g>
<g id="XMLID_369_">
</g>
<g id="XMLID_370_">
</g>
<g id="XMLID_371_">
</g>
<g id="XMLID_372_">
</g>
<g id="XMLID_149_">
	<path id="XMLID_150_" fill="#FFFFFF" d="M232.5,426.3c3,3,4.5,6.7,4.5,11.1c0,4.4-1.5,8.1-4.5,11c-3.2,3.1-6.9,4.7-11.2,4.7
		c-4.3,0-7.9-1.5-11-4.6c-3.1-3.1-4.6-6.8-4.6-11.1c0-4.3,1.5-8,4.6-11.1c3-3,6.7-4.6,11-4.6C225.8,421.7,229.5,423.3,232.5,426.3z
		 M212.4,428.3c-2.6,2.6-3.8,5.6-3.8,9.1c0,3.5,1.3,6.5,3.8,9c2.5,2.5,5.6,3.8,9.1,3.8c3.5,0,6.6-1.3,9.1-3.8c2.5-2.4,3.7-5.4,3.7-9
		c0-3.6-1.3-6.6-3.7-9.1c-2.5-2.5-5.5-3.7-9.1-3.7C217.9,424.6,214.9,425.8,212.4,428.3z"/>
</g>
<g id="XMLID_477_">
	<g id="XMLID_167_">
		<path id="XMLID_302_" fill="#FFFFFF" d="M301.4,351.2h-6.7c-1,0-1.9,0.8-1.9,1.9c0,1,0.8,1.9,1.9,1.9h6.7c1,0,1.9-0.8,1.9-1.9
			C303.2,352,302.4,351.2,301.4,351.2z"/>
		<path id="XMLID_297_" fill="#FFFFFF" d="M301.4,358.9h-6.7c-1,0-1.9,0.8-1.9,1.9c0,1,0.8,1.9,1.9,1.9h6.7c1,0,1.9-0.8,1.9-1.9
			C303.2,359.8,302.4,358.9,301.4,358.9z"/>
		<path id="XMLID_296_" fill="#FFFFFF" d="M309.2,372v1.8h1c1.2,0,1.2-0.7,1.2-0.9c0-0.2,0-0.9-1.2-0.9L309.2,372L309.2,372z"/>
		<path id="XMLID_186_" fill="#FFFFFF" d="M323.3,368.5h-3v-18.9c0-0.5-0.2-1-0.5-1.3l-7.3-7.3c-0.3-0.3-0.8-0.5-1.3-0.5h-22
			c-2,0-3.6,1.6-3.6,3.6v38.7c0,2,1.6,3.6,3.6,3.6h27.5c2,0,3.6-1.6,3.6-3.6v-3.7h3c1.6,0,2.9-1.3,2.9-2.9v-4.9
			C326.2,369.8,324.9,368.5,323.3,368.5z M316.4,382.5h-26.9v-37.9h19.1v5.4c0,1.3,1.1,2.4,2.4,2.4h5.4v16.2h-9.2
			c-1.6,0-2.9,1.3-2.9,2.9v4.9c0,1.6,1.3,2.9,2.9,2.9h9.2V382.5L316.4,382.5z M312.5,372.9c0,1.3-0.9,2.1-2.3,2.1h-1v1.1
			c0,0.3-0.2,0.5-0.5,0.5h-0.1c-0.3,0-0.5-0.2-0.5-0.5v-4.8c0-0.3,0.2-0.5,0.5-0.5h1.6C311.6,370.8,312.5,371.6,312.5,372.9z
			 M315.4,376.6h-1.9c-0.3,0-0.5-0.2-0.5-0.5v-4.8c0-0.3,0.2-0.5,0.5-0.5h1.9c1.6,0,3,1.3,3,2.9
			C318.4,375.3,317.1,376.6,315.4,376.6z M322.9,371.4c0,0.3-0.2,0.5-0.5,0.5h-2.1v1.2h1.8c0.3,0,0.5,0.2,0.5,0.5v0.1
			c0,0.3-0.2,0.5-0.5,0.5h-1.8v1.7c0,0.3-0.2,0.5-0.5,0.5h-0.1c-0.3,0-0.5-0.2-0.5-0.5v-4.8c0-0.3,0.2-0.5,0.5-0.5h2.8
			c0.3,0,0.5,0.2,0.5,0.5L322.9,371.4L322.9,371.4z"/>
		<path id="XMLID_185_" fill="#FFFFFF" d="M315.4,372h-1.2v3.4h1.2c1,0,1.8-0.8,1.8-1.7C317.2,372.7,316.4,372,315.4,372z"/>
	</g>
</g>
<g>
	<path fill="#FFFFFF" d="M250.9,393.5h2.9c0.7,0,1.2,0,1.5,0.2c0.5,0.1,0.9,0.4,1.2,0.7c0.3,0.3,0.6,0.8,0.8,1.3s0.3,1.1,0.3,1.9
		c0,0.6-0.1,1.2-0.2,1.7c-0.2,0.6-0.5,1-0.8,1.4c-0.3,0.3-0.6,0.5-1.1,0.6c-0.4,0.1-0.8,0.2-1.4,0.2h-3V393.5z M252.5,394.8v5.2h1.2
		c0.4,0,0.8,0,1-0.1c0.3-0.1,0.5-0.2,0.6-0.3s0.3-0.4,0.4-0.8s0.2-0.8,0.2-1.4s-0.1-1.1-0.2-1.4c-0.1-0.3-0.3-0.6-0.5-0.8
		c-0.2-0.2-0.4-0.3-0.7-0.4c-0.2,0-0.7-0.1-1.3-0.1H252.5z"/>
	<path fill="#FFFFFF" d="M258.9,401.3v-7.9h5.8v1.3h-4.2v1.7h4v1.3h-4v2.1h4.4v1.3H258.9z"/>
	<path fill="#FFFFFF" d="M265.8,398.8l1.5-0.2c0.1,0.5,0.3,0.9,0.6,1.1c0.3,0.2,0.7,0.4,1.2,0.4c0.5,0,0.9-0.1,1.2-0.3
		s0.4-0.5,0.4-0.8c0-0.2-0.1-0.3-0.2-0.5s-0.3-0.2-0.6-0.3c-0.2-0.1-0.6-0.2-1.3-0.3c-0.9-0.2-1.5-0.5-1.8-0.8
		c-0.5-0.4-0.7-1-0.7-1.6c0-0.4,0.1-0.8,0.3-1.1c0.2-0.3,0.6-0.6,1-0.8s0.9-0.3,1.5-0.3c1,0,1.7,0.2,2.2,0.6c0.5,0.4,0.8,1,0.8,1.7
		l-1.6,0.1c-0.1-0.4-0.2-0.7-0.4-0.9c-0.2-0.2-0.6-0.3-1-0.3c-0.5,0-0.8,0.1-1.1,0.3c-0.2,0.1-0.3,0.3-0.3,0.5
		c0,0.2,0.1,0.3,0.2,0.5c0.2,0.2,0.7,0.3,1.5,0.5c0.8,0.2,1.3,0.4,1.7,0.6c0.4,0.2,0.7,0.5,0.9,0.8c0.2,0.3,0.3,0.8,0.3,1.3
		c0,0.5-0.1,0.9-0.4,1.3c-0.3,0.4-0.6,0.7-1.1,0.9s-1,0.3-1.7,0.3c-1,0-1.8-0.2-2.3-0.7S265.9,399.7,265.8,398.8z"/>
	<path fill="#FFFFFF" d="M278.6,398.4l1.5,0.5c-0.2,0.9-0.6,1.5-1.2,1.9s-1.2,0.6-2.1,0.6c-1,0-1.9-0.4-2.6-1.1
		c-0.7-0.7-1-1.7-1-2.9c0-1.3,0.3-2.3,1-3.1c0.7-0.7,1.6-1.1,2.7-1.1c1,0,1.7,0.3,2.3,0.9c0.4,0.3,0.6,0.8,0.8,1.5l-1.6,0.4
		c-0.1-0.4-0.3-0.7-0.6-1c-0.3-0.2-0.7-0.4-1.1-0.4c-0.6,0-1.1,0.2-1.4,0.6c-0.4,0.4-0.5,1.1-0.5,2c0,1,0.2,1.7,0.5,2.1
		s0.8,0.6,1.4,0.6c0.4,0,0.8-0.1,1.1-0.4C278.2,399.4,278.4,399,278.6,398.4z"/>
	<path fill="#FFFFFF" d="M288.6,401.3h-1.7l-0.7-1.8H283l-0.6,1.8h-1.7l3.1-7.9h1.7L288.6,401.3z M285.6,398.2l-1.1-2.9l-1.1,2.9
		H285.6z"/>
	<path fill="#FFFFFF" d="M289.4,401.3v-7.9h3.3c0.8,0,1.5,0.1,1.8,0.2c0.4,0.1,0.7,0.4,0.9,0.8c0.2,0.4,0.3,0.8,0.3,1.2
		c0,0.6-0.2,1.1-0.5,1.5s-0.9,0.6-1.6,0.7c0.3,0.2,0.6,0.4,0.9,0.7s0.5,0.7,0.9,1.3l1,1.5h-1.9l-1.1-1.7c-0.4-0.6-0.7-1-0.8-1.2
		s-0.3-0.3-0.5-0.3c-0.2-0.1-0.4-0.1-0.8-0.1H291v3.3H289.4z M291,396.8h1.2c0.8,0,1.2,0,1.4-0.1c0.2-0.1,0.3-0.2,0.4-0.3
		s0.2-0.4,0.2-0.6c0-0.3-0.1-0.5-0.2-0.6s-0.3-0.3-0.6-0.3c-0.1,0-0.5,0-1.2,0H291V396.8z"/>
	<path fill="#FFFFFF" d="M301,398.4v-1.3h3.4v3.1c-0.3,0.3-0.8,0.6-1.4,0.9s-1.3,0.4-1.9,0.4c-0.8,0-1.5-0.2-2.2-0.5
		c-0.6-0.3-1.1-0.8-1.4-1.5s-0.5-1.3-0.5-2.1c0-0.8,0.2-1.5,0.5-2.2c0.3-0.6,0.8-1.1,1.5-1.5c0.5-0.3,1.1-0.4,1.9-0.4
		c1,0,1.7,0.2,2.3,0.6s0.9,1,1.1,1.7l-1.6,0.3c-0.1-0.4-0.3-0.7-0.6-0.9c-0.3-0.2-0.7-0.3-1.1-0.3c-0.7,0-1.2,0.2-1.7,0.7
		c-0.4,0.4-0.6,1.1-0.6,2c0,0.9,0.2,1.6,0.6,2.1c0.4,0.5,1,0.7,1.6,0.7c0.3,0,0.7-0.1,1-0.2s0.6-0.3,0.9-0.5v-1H301z"/>
	<path fill="#FFFFFF" d="M313,401.3h-1.7l-0.7-1.8h-3.1l-0.6,1.8h-1.7l3.1-7.9h1.7L313,401.3z M310.1,398.2l-1.1-2.9l-1.1,2.9H310.1
		z"/>
	<path fill="#FFFFFF" d="M313.9,401.3v-7.9h3.3c0.8,0,1.5,0.1,1.8,0.2c0.4,0.1,0.7,0.4,0.9,0.8c0.2,0.4,0.3,0.8,0.3,1.2
		c0,0.6-0.2,1.1-0.5,1.5s-0.9,0.6-1.6,0.7c0.3,0.2,0.6,0.4,0.9,0.7s0.5,0.7,0.9,1.3l1,1.5H319l-1.1-1.7c-0.4-0.6-0.7-1-0.8-1.2
		s-0.3-0.3-0.5-0.3c-0.2-0.1-0.4-0.1-0.8-0.1h-0.3v3.3H313.9z M315.5,396.8h1.2c0.8,0,1.2,0,1.4-0.1c0.2-0.1,0.3-0.2,0.4-0.3
		s0.2-0.4,0.2-0.6c0-0.3-0.1-0.5-0.2-0.6s-0.3-0.3-0.6-0.3c-0.1,0-0.5,0-1.2,0h-1.2V396.8z"/>
	<path fill="#FFFFFF" d="M324.9,401.3v-7.9h5.8v1.3h-4.2v1.7h4v1.3h-4v2.1h4.4v1.3H324.9z"/>
	<path fill="#FFFFFF" d="M332.2,401.3v-7.9h1.5l3.2,5.3v-5.3h1.5v7.9h-1.6l-3.2-5.1v5.1H332.2z"/>
	<path fill="#FFFFFF" d="M343.2,401.3v-7.9h2.6c1,0,1.6,0,1.9,0.1c0.5,0.1,0.8,0.4,1.1,0.8c0.3,0.4,0.5,0.9,0.5,1.5
		c0,0.5-0.1,0.9-0.3,1.2c-0.2,0.3-0.4,0.6-0.7,0.8c-0.3,0.2-0.5,0.3-0.8,0.4c-0.4,0.1-0.9,0.1-1.6,0.1h-1v3H343.2z M344.8,394.8v2.2
		h0.9c0.6,0,1,0,1.3-0.1c0.2-0.1,0.4-0.2,0.5-0.4c0.1-0.2,0.2-0.4,0.2-0.6c0-0.3-0.1-0.5-0.3-0.7c-0.2-0.2-0.4-0.3-0.6-0.3
		c-0.2,0-0.6-0.1-1.1-0.1H344.8z"/>
	<path fill="#FFFFFF" d="M350.5,393.5h2.9c0.7,0,1.2,0,1.5,0.2c0.5,0.1,0.9,0.4,1.2,0.7c0.3,0.3,0.6,0.8,0.8,1.3s0.3,1.1,0.3,1.9
		c0,0.6-0.1,1.2-0.2,1.7c-0.2,0.6-0.5,1-0.8,1.4c-0.3,0.3-0.6,0.5-1.1,0.6c-0.4,0.1-0.8,0.2-1.4,0.2h-3V393.5z M352.1,394.8v5.2h1.2
		c0.4,0,0.8,0,1-0.1c0.3-0.1,0.5-0.2,0.6-0.3s0.3-0.4,0.4-0.8s0.2-0.8,0.2-1.4s-0.1-1.1-0.2-1.4c-0.1-0.3-0.3-0.6-0.5-0.8
		c-0.2-0.2-0.4-0.3-0.7-0.4c-0.2,0-0.7-0.1-1.3-0.1H352.1z"/>
	<path fill="#FFFFFF" d="M358.5,401.3v-7.9h5.4v1.3h-3.8v1.9h3.3v1.3h-3.3v3.3H358.5z"/>
</g>
</svg>
