<?xml version="1.0" encoding="utf-8"?>
<!-- Generator: Adobe Illustrator 21.0.0, SVG Export Plug-In . SVG Version: 6.00 Build 0)  -->
<svg version="1.1" id="Capa_1" xmlns="http://www.w3.org/2000/svg" xmlns:xlink="http://www.w3.org/1999/xlink" x="0px" y="0px"
	 viewBox="0 0 155.7 74.3" style="enable-background:new 0 0 155.7 74.3;" xml:space="preserve">
<style type="text/css">
	.st0{fill:#FFFFFF;}
	.st1{fill:#F4941B;}
	.st2{fill:none;}
	.st3{enable-background:new    ;}
	.st4{fill:#FEFEFE;}
</style>
<g id="XMLID_422_">
	<rect id="XMLID_459_" x="0.5" class="st0" width="154.9" height="74.3"/>
	<rect id="XMLID_452_" x="0.5" class="st1" width="155.2" height="48.2"/>
	<rect id="XMLID_446_" y="57.5" class="st2" width="155.7" height="13.1"/>
	<g class="st3">
		<path d="M24,65.3h-1.7l-0.7-1.8h-3.1l-0.6,1.8h-1.7l3.1-7.9h1.7L24,65.3z M21.1,62.2L20,59.3L19,62.2H21.1z"/>
		<path d="M29.9,62.4l1.5,0.5c-0.2,0.9-0.6,1.5-1.2,1.9c-0.5,0.4-1.2,0.6-2.1,0.6c-1,0-1.9-0.4-2.6-1.1c-0.7-0.7-1-1.7-1-2.9
			c0-1.3,0.3-2.3,1-3.1c0.7-0.7,1.6-1.1,2.7-1.1c1,0,1.7,0.3,2.3,0.9c0.4,0.3,0.6,0.8,0.8,1.5L29.9,60c-0.1-0.4-0.3-0.7-0.6-1
			c-0.3-0.2-0.7-0.4-1.1-0.4c-0.6,0-1.1,0.2-1.4,0.6c-0.4,0.4-0.5,1.1-0.5,2c0,1,0.2,1.7,0.5,2.1s0.8,0.6,1.4,0.6
			c0.4,0,0.8-0.1,1.1-0.4C29.6,63.4,29.8,63,29.9,62.4z"/>
		<path d="M34.6,65.3v-6.5h-2.3v-1.3h6.3v1.3h-2.3v6.5H34.6z"/>
		<path d="M39.5,65.3v-7.9h1.6v7.9H39.5z"/>
		<path d="M44.6,65.3l-2.8-7.9h1.7l2,5.8l1.9-5.8h1.7l-2.8,7.9H44.6z"/>
		<path d="M49.9,65.3v-7.9h1.6v7.9H49.9z"/>
		<path d="M53,57.5h2.9c0.7,0,1.2,0,1.5,0.2c0.5,0.1,0.9,0.4,1.2,0.7c0.3,0.3,0.6,0.8,0.8,1.3s0.3,1.1,0.3,1.9
			c0,0.6-0.1,1.2-0.2,1.7c-0.2,0.6-0.5,1-0.8,1.4c-0.3,0.3-0.6,0.5-1.1,0.6c-0.4,0.1-0.8,0.2-1.4,0.2h-3V57.5z M54.6,58.8V64h1.2
			c0.4,0,0.8,0,1-0.1c0.3-0.1,0.5-0.2,0.6-0.3c0.2-0.2,0.3-0.4,0.4-0.8s0.2-0.8,0.2-1.4s-0.1-1.1-0.2-1.4c-0.1-0.3-0.3-0.6-0.5-0.8
			c-0.2-0.2-0.4-0.3-0.7-0.4c-0.2,0-0.7-0.1-1.3-0.1H54.6z"/>
		<path d="M68,65.3h-1.7l-0.7-1.8h-3.1l-0.6,1.8h-1.7l3.1-7.9h1.7L68,65.3z M65.1,62.2L64,59.3L63,62.2H65.1z"/>
		<path d="M68.9,57.5h2.9c0.7,0,1.2,0,1.5,0.2c0.5,0.1,0.9,0.4,1.2,0.7c0.3,0.3,0.6,0.8,0.8,1.3s0.3,1.1,0.3,1.9
			c0,0.6-0.1,1.2-0.2,1.7c-0.2,0.6-0.5,1-0.8,1.4c-0.3,0.3-0.6,0.5-1.1,0.6c-0.4,0.1-0.8,0.2-1.4,0.2h-3V57.5z M70.5,58.8V64h1.2
			c0.4,0,0.8,0,1-0.1c0.3-0.1,0.5-0.2,0.6-0.3c0.2-0.2,0.3-0.4,0.4-0.8s0.2-0.8,0.2-1.4s-0.1-1.1-0.2-1.4c-0.1-0.3-0.3-0.6-0.5-0.8
			c-0.2-0.2-0.4-0.3-0.7-0.4c-0.2,0-0.7-0.1-1.3-0.1H70.5z"/>
		<path d="M79.9,57.5h2.9c0.7,0,1.2,0,1.5,0.2c0.5,0.1,0.9,0.4,1.2,0.7c0.3,0.3,0.6,0.8,0.8,1.3s0.3,1.1,0.3,1.9
			c0,0.6-0.1,1.2-0.2,1.7c-0.2,0.6-0.5,1-0.8,1.4c-0.3,0.3-0.6,0.5-1.1,0.6c-0.4,0.1-0.8,0.2-1.4,0.2h-3V57.5z M81.5,58.8V64h1.2
			c0.4,0,0.8,0,1-0.1c0.3-0.1,0.5-0.2,0.6-0.3s0.3-0.4,0.4-0.8s0.2-0.8,0.2-1.4s-0.1-1.1-0.2-1.4c-0.1-0.3-0.3-0.6-0.5-0.8
			c-0.2-0.2-0.4-0.3-0.7-0.4c-0.2,0-0.7-0.1-1.3-0.1H81.5z"/>
		<path d="M87.8,65.3v-7.9h1.6v7.9H87.8z"/>
		<path d="M90.9,57.5h2.9c0.7,0,1.2,0,1.5,0.2c0.5,0.1,0.9,0.4,1.2,0.7c0.3,0.3,0.6,0.8,0.8,1.3s0.3,1.1,0.3,1.9
			c0,0.6-0.1,1.2-0.2,1.7c-0.2,0.6-0.5,1-0.8,1.4c-0.3,0.3-0.6,0.5-1.1,0.6c-0.4,0.1-0.8,0.2-1.4,0.2h-3V57.5z M92.5,58.8V64h1.2
			c0.4,0,0.8,0,1-0.1c0.3-0.1,0.5-0.2,0.6-0.3s0.3-0.4,0.4-0.8s0.2-0.8,0.2-1.4s-0.1-1.1-0.2-1.4c-0.1-0.3-0.3-0.6-0.5-0.8
			c-0.2-0.2-0.4-0.3-0.7-0.4c-0.2,0-0.7-0.1-1.3-0.1H92.5z"/>
		<path d="M105.9,65.3h-1.7l-0.7-1.8h-3.1l-0.7,1.8H98l3.1-7.9h1.7L105.9,65.3z M103,62.2l-1.1-2.9l-1.1,2.9H103z M101,57l0.7-1.6
			h1.7L102,57H101z"/>
		<path d="M111.8,62.4l1.5,0.5c-0.2,0.9-0.6,1.5-1.2,1.9c-0.5,0.4-1.2,0.6-2.1,0.6c-1,0-1.9-0.4-2.6-1.1c-0.7-0.7-1-1.7-1-2.9
			c0-1.3,0.3-2.3,1-3.1c0.7-0.7,1.6-1.1,2.7-1.1c1,0,1.7,0.3,2.3,0.9c0.4,0.3,0.6,0.8,0.8,1.5l-1.6,0.4c-0.1-0.4-0.3-0.7-0.6-1
			c-0.3-0.2-0.7-0.4-1.1-0.4c-0.6,0-1.1,0.2-1.4,0.6c-0.4,0.4-0.5,1.1-0.5,2c0,1,0.2,1.7,0.5,2.1c0.4,0.4,0.8,0.6,1.4,0.6
			c0.4,0,0.8-0.1,1.1-0.4C111.5,63.4,111.7,63,111.8,62.4z"/>
		<path d="M116.5,65.3v-6.5h-2.3v-1.3h6.3v1.3h-2.3v6.5H116.5z"/>
		<path d="M121.4,65.3v-7.9h1.6v7.9H121.4z"/>
		<path d="M129.5,62.4l1.5,0.5c-0.2,0.9-0.6,1.5-1.2,1.9s-1.2,0.6-2.1,0.6c-1,0-1.9-0.4-2.6-1.1c-0.7-0.7-1-1.7-1-2.9
			c0-1.3,0.3-2.3,1-3.1c0.7-0.7,1.6-1.1,2.7-1.1c1,0,1.7,0.3,2.3,0.9c0.4,0.3,0.6,0.8,0.8,1.5l-1.6,0.4c-0.1-0.4-0.3-0.7-0.6-1
			c-0.3-0.2-0.7-0.4-1.1-0.4c-0.6,0-1.1,0.2-1.4,0.6c-0.4,0.4-0.5,1.1-0.5,2c0,1,0.2,1.7,0.5,2.1c0.4,0.4,0.8,0.6,1.4,0.6
			c0.4,0,0.8-0.1,1.1-0.4C129.2,63.4,129.4,63,129.5,62.4z"/>
		<path d="M139.5,65.3h-1.7l-0.7-1.8H134l-0.6,1.8h-1.7l3.1-7.9h1.7L139.5,65.3z M136.6,62.2l-1.1-2.9l-1.1,2.9H136.6z"/>
	</g>
	<path id="XMLID_436_" class="st4" d="M90.6,18.2v17c0,2.1-1.8,3.8-4,3.8h-20c-2.3,0-4-1.8-4-3.8V15c0-2.3,1.7-4,4-4h17l-4,4h-13
		v20.1h20v-13L90.6,18.2z M87.7,9.8l-1.4,1.6l4.2,4.2l1.4-1.4L87.7,9.8z M90.5,7l-1.4,1.4l4.2,4.4l1.4-1.4L90.5,7z M72.1,25.4
		l4.2,4.4L89.1,17l-4.2-4.2L72.1,25.4z M70.7,31.2h4l-4-4V31.2z"/>
</g>
</svg>
