<?xml version="1.0" encoding="utf-8"?>
<!-- Generator: Adobe Illustrator 19.0.0, SVG Export Plug-In . SVG Version: 6.00 Build 0)  -->
<svg version="1.1" id="Capa_1" xmlns="http://www.w3.org/2000/svg" xmlns:xlink="http://www.w3.org/1999/xlink" x="0px" y="0px"
	 viewBox="0 0 218.8 452.4" style="enable-background:new 0 0 218.8 452.4;" xml:space="preserve">
<style type="text/css">
	.st0{fill:#50565B;stroke:#656C70;stroke-miterlimit:10;}
	.st1{fill:#808589;stroke:#656C70;stroke-miterlimit:10;}
	.st2{fill:#252728;stroke:#000000;stroke-miterlimit:10;}
	.st3{fill:#1A1B1C;stroke:#000000;stroke-miterlimit:10;}
	.st4{fill:#A0A6AA;}
	.st5{fill:#262C35;stroke:#161A1E;stroke-miterlimit:10;}
	.st6{fill:#181D23;}
	.st7{fill:#8DA367;}
	.st8{stroke:#333231;stroke-width:0.5;stroke-miterlimit:10;}
	.st9{fill:#353534;stroke:#1D1D1B;stroke-width:0.5;stroke-miterlimit:10;}
	.st10{fill:#282828;}
	.st11{fill:#494949;stroke:#727271;stroke-miterlimit:10;}
	.st12{fill:#3F3F3F;}
	.st13{fill:none;stroke:#727271;stroke-miterlimit:10;}
	.st14{fill:#282421;}
	.st15{fill:#D6D6D6;stroke:#A0A0A0;stroke-miterlimit:10;}
	.st16{fill:#9ABA78;stroke:#849E5F;stroke-miterlimit:10;}
	.st17{fill:#799354;stroke:#849E5F;stroke-miterlimit:10;}
	.st18{fill:#76934D;}
	.st19{fill:none;stroke:#849E5F;stroke-miterlimit:10;}
	.st20{fill:#E8C3AA;stroke:#E0AA86;stroke-width:0.5;stroke-miterlimit:10;}
	.st21{fill:#DBAD93;}
	.st22{fill:#E0B9A0;}
	.st23{fill:#5E4334;stroke:#846A5E;stroke-width:0.5;stroke-miterlimit:10;}
	.st24{fill:#49342A;}
	.st25{fill:#92AF71;}
	.st26{fill:none;stroke:#E0AA86;stroke-width:0.75;stroke-miterlimit:10;}
	.st27{fill:#FFFFFF;stroke:#E0AA86;stroke-width:0.75;stroke-miterlimit:10;}
	.st28{fill:#FFFFFF;stroke:#000000;stroke-width:0.5;stroke-miterlimit:10;}
	.st29{fill:#5098D8;}
	.st30{fill:#1D1D1B;}
	.st31{fill:#FFFFFF;}
	.st32{stroke:#000000;stroke-width:0.5;stroke-miterlimit:10;}
	.st33{fill:#1C1E19;}
	.st34{fill:#5E5E5C;stroke:#000000;stroke-linecap:round;stroke-linejoin:round;stroke-miterlimit:10;}
	.st35{fill:none;stroke:#000000;stroke-width:0.25;stroke-linecap:round;stroke-linejoin:round;stroke-miterlimit:10;}
	.st36{fill:#939393;stroke:#000000;stroke-width:0.25;stroke-linecap:round;stroke-linejoin:round;stroke-miterlimit:10;}
	.st37{fill:none;stroke:#E0AA86;stroke-width:0.5;stroke-miterlimit:10;}
	.st38{fill:#23261D;}
	.st39{fill:#262C35;}
</style>
<g id="XMLID_11839_">
	<g id="XMLID_11840_">
		<path id="XMLID_11841_" class="st0" d="M179.8,291.1l-1.6-2.9c0,0,8.7,2.4,8.7-2.9c0.1-5.4,0.3-48.5,0.3-48.5l3.1-0.4l-0.3,52.8
			l-1.7,3.3l-4.2-0.3L179.8,291.1"/>
		<path id="XMLID_11842_" class="st1" d="M179.8,291.1c0,0,9.1,1.2,9.1-4.4v-50.4h7.4v50.4c0,0,1,10.9-7.8,10.9l-8.8,0L179.8,291.1z
			"/>
		<rect id="XMLID_11843_" x="125.3" y="355.3" class="st1" width="8.3" height="37.8"/>
		<path id="XMLID_11844_" class="st2" d="M124.2,356.2H135c1.4,0,2.6-1.1,2.7-2.6l1.9-40.3h-20l1.9,40.3
			C121.6,355,122.7,356.2,124.2,356.2z"/>
		<circle id="XMLID_11845_" class="st3" cx="129.5" cy="432" r="10.4"/>
		<circle id="XMLID_11846_" class="st3" cx="98.8" cy="429.9" r="10"/>
		<circle id="XMLID_11847_" class="st3" cx="160.1" cy="429.9" r="10"/>
		<circle id="XMLID_11852_" class="st4" cx="129.5" cy="432" r="7.3"/>
		<circle id="XMLID_11854_" class="st4" cx="98.8" cy="429.9" r="6.5"/>
		<circle id="XMLID_11855_" class="st4" cx="160.1" cy="429.9" r="6.5"/>
		<circle id="XMLID_11856_" class="st3" cx="129.5" cy="430.9" r="6.2"/>
		<circle id="XMLID_11860_" class="st3" cx="98.8" cy="429.3" r="5.4"/>
		<circle id="XMLID_11861_" class="st3" cx="160.1" cy="429.3" r="5.3"/>
		<path id="XMLID_11862_" class="st4" d="M125.9,358.6c0,0,6.3-2.4,5.9,3.9v27.7c0,0,1.1,1.5-5,2.2h6l0.3-35.7h-7.3L125.9,358.6z"/>
		<path id="XMLID_11865_" class="st1" d="M93.4,407c1.5-8,16.9-7.9,16.9-7.9h8.9v-4.4c0-0.9,0.7-1.6,1.6-1.6h17.7
			c0.9,0,1.6,0.7,1.6,1.6v4.4h13c13.7,0,12.3,10,12.3,10v12.6c0,1.7-1.3,3-3,3h-4.2c-1.7,0-3-1.3-3-3v-1.1c0,0.1,0-1.1,0-4.7
			c0-10-6.6-9.4-6.6-9.4l-13.7-0.1v16.5c0,1-0.8,1.9-1.9,1.9h-6.5c-1,0-1.9-0.8-1.9-1.9v-16.5l-14-0.1c-5.2,0-6.2,4.7-6.4,7.2v9.1
			c0,1.2-0.9,2.1-2.1,2.1H96c-1.2,0-2.1-0.9-2.1-2.1v-15.1c0,0,0-0.1,0-0.1L93.4,407z"/>
		<path id="XMLID_11867_" class="st4" d="M129.3,401.8c0,0,5-0.4,4.8,4.1l0,15.7c0,0,0.6,3-3,2.4c0,0,1.1,0.1,1.7-2.8l0.1-15.4
			C133,405.8,132.4,402.6,129.3,401.8z"/>
		<path id="XMLID_11869_" class="st4" d="M129.5,393.6h7.9c0,0,2.7-0.6,2.1,2.7l0.1,3.3l-2.6-4.4L129.5,393.6z"/>
		<path id="XMLID_11871_" class="st4" d="M157.5,400.2c0,0,7.4,0.7,7.1,10.1l0,10.5c0,0,1.2,3.6-4.5,3.2c0,0,2.5-0.8,2.2-6
			l-0.1-10.5C162.3,407.5,162.5,403.7,157.5,400.2z"/>
		<path id="XMLID_11872_" class="st5" d="M161.4,128.9c0,0,3.4-9.2,28.1-8.7c0,0,26.1-7.1,28.8,50.2v51.3c0,0,2,35.4-27.4,34.4
			c0,0-31.3,2.4-30.8-25.1L161.4,128.9"/>
		<path id="XMLID_11873_" class="st6" d="M176.4,125.5c0,0,22.9-9.8,28.1,43.5l3.2,58.5c0,0,0.9,21.8-18.1,22.3
			c-19,0.5-0.9,1.3-0.9,1.3s-24.9,1.7-26.2-22.4l-5.3-81.5C157.1,147.2,160,125.1,176.4,125.5z"/>
		<path id="XMLID_11874_" class="st0" d="M114.8,317.7h32.4c4.7,0,8.6-3.9,8.6-8.6v-1.9c0-3.2-2.6-5.8-5.8-5.8H112
			c-3.2,0-5.8,2.6-5.8,5.8v1.9C106.2,313.8,110,317.7,114.8,317.7z"/>
		<path id="XMLID_11875_" class="st5" d="M99.6,306.9c-4.2-0.2,11.3,1.6,34.6,2c9.3,0.2,27.3-1,27.3-1c4.3,0,20.8-2.6,20.8-11.5
			v-5.4c0-9.8-16.5-12.5-20.8-12.5c0,0-17.8-0.3-27,0c-19.8,0.6-45.7,2-45.7,2c-4.3,0-11.1,5.4-11.1,9.4v6.4
			C78.2,302.6,95.2,306.9,99.6,306.9z"/>
		<path id="XMLID_11876_" class="st6" d="M182.2,289.8c0,0-52.9,10.8-103.7-2.5c-50.8-13.3,0,0,0,0s1.1,12.5,22.4,15.3
			c0,0,49.9,4.3,69.5,0c0,0,0.3,3.5-8.2,5.3c-8.5,1.8,0,0,0,0s17.1-0.3,20-10.2c3-9.9,0,0,0,0V289.8"/>
	</g>
	<path id="XMLID_11877_" class="st7" d="M170.7,232.4c0,0,1.2,2.7-5.6,8.9c0,0-34.5-20.2-75.9-16.3c-41.4,3.8,0,0,0,0l33.8-24.2
		l46.3,18.8L170.7,232.4"/>
	<g id="XMLID_11878_">
		<path id="XMLID_11881_" class="st8" d="M86.3,362.8l0.6,22.2c0,0-5,9.8-10.3,14.8c0,0-5.6,3.8,1.8,7.7c0,0,11.2,2.2,22.4-9.8
			c0,0,14.3-12.9,14.6-26c0,0-1.6-2.8,1-5.8c0,0,4.4-3.6,2.3-7.2l-10.8-8.4C107.9,350.4,90.6,353.2,86.3,362.8z"/>
		<path id="XMLID_11882_" class="st9" d="M116.4,366c-2.7,3-1,5.8-1,5.8c-0.3,13.1-14.6,26-14.6,26c-11.1,12-22.4,10.8-22.4,10.8
			l2.3,1.4c0,0,10.3,2.2,20.5-8.3c0,0,15-11,17.1-28c0,0-2.5-2.1-1.3-5.8c0,0,2.6-0.1,3.6-2.4l0.7-3l-2.5-3.8
			C120.7,362.4,116.4,366,116.4,366z"/>
		<path id="XMLID_11883_" class="st9" d="M79.8,399.2c0,0-2.6,1.4-3.3,3.4c0,0,0.1,5.7,10-0.4c0,0,18.7-8.1,21.5-25.2
			c0,0-4.9,11.8-16.9,19.9c0,0-8.6,5.9-12,6.6C79,403.6,75.9,404,79.8,399.2z"/>
	</g>
	<path id="XMLID_11884_" class="st8" d="M56.1,404.2L42,428.1c0,0-3.8,6.4-11.2,9.2c0,0-7.7,2.5-1.8,9.5c0,0,10.8,5.9,27-1.5
		c0,0,19.7-7,25.6-20c0,0-0.5-3.5,3.5-5.4c0,0,5.9-1.7,5.4-6.3L86.1,402C86.1,402,64.5,396.4,56.1,404.2z"/>
	<path id="XMLID_11885_" class="st9" d="M85,420c-4,1.9-3.5,5.4-3.5,5.4c-5.8,13-25.6,20-25.6,20c-16.2,7.4-27,1.5-27,1.5l1.7,2.4
		c0,0,9.4,6.5,24,0.3c0,0,19.7-4.7,28.9-21c0,0-1.6-3.2,1.1-6.4c0,0,2.6,0.9,4.6-0.9l1.9-2.7l-0.9-4.8C90.9,418.2,85,420,85,420z"/>
	<path id="XMLID_11886_" class="st9" d="M34.3,438c0,0-3.2,0.3-4.8,2.1c0,0-2.3,5.7,10.2,3.8c0,0,22.2-0.3,32.2-16.3
		c0,0-9.9,9.8-25.3,12.9c0,0-11.1,2.3-14.8,1.6C31.7,442.1,28.4,441.2,34.3,438z"/>
	<path id="XMLID_11887_" class="st10" d="M70.8,314.4c0,0,24.8,19.2,40.2,34.5c0,0-3.7,16.6-25.3,21.6l-10.1-9.7
		C75.5,360.8,64.7,327.8,70.8,314.4z"/>
	<path id="XMLID_11888_" class="st11" d="M162,252.1c0,0,1.9,22.4-11.5,31.1c0,0-12.9,7.6-68.6,11.7l-17.1,2c0,0,7.2,14.3,11.6,47
		c0,0,4.1,12,2.5,21.2c0,0,4.6,7.8,3.4,22.7l4,14.5c0,0-8.9,11.8-32.7,5.2l-5.4-21.4c0,0-2.5-0.5-2.5-6.1l-19.1-54.6l-16.2-17.9
		c0,0-10.9-15.2-9.9-30.4c0,0,2.4-13.3,24.5-21.1l60.1-24.2C85.2,231.9,131.1,223.4,162,252.1"/>
	<path id="XMLID_11889_" class="st12" d="M62,249.3c0,0,60.8,1.5,66.2,2.9c0,0,8.9,11,2.1,22.6l-70.5,18.4l11,50.8
		c0,0,2.9,7.7-0.9,12.5c0,0-3.6,8.9,4.5,15.4l2,12.4c0,0,1.4,20.6-25.1,11.9l2.4,11.2c0,0,20.3,6.2,32.7-5.2l-4-14.5
		c0,0,1.4-13.2-3.4-22.7c0,0,0.7-10.6-2.5-21.2c0,0-5.3-31.4-12.1-47.7c0,0,44-0.2,65.6-2.5c19.4-2.1,28.3-9.6,28.3-9.6
		s11.9-11.4,3.8-32c0,0-21.4-22.6-76.8-20.2L62,249.3z"/>
	<path id="XMLID_11890_" class="st13" d="M94.3,242.6L29.7,269c0,0-20,9.2-8,39.2l4.9,17.2"/>
	<path id="XMLID_11891_" class="st13" d="M147.5,241.3c0,0-16.4,12.2-8.3,33.6"/>
	<path id="XMLID_11892_" class="st12" d="M139.3,274.9c11.6-4.5,6.6-4.3,6.6-4.3"/>
	<path id="XMLID_11893_" class="st14" d="M165.1,241.3c0,0,0.5,7.2-3.1,10.7c0,0-5.6-7.5-30.5-15.5c-5-1.6-24-5.3-32.4-5.2
		c-4.3,0-9.2,0.2-13.9,0.6l-1-5.1l1.4-5.6C85.6,221.2,124,217.9,165.1,241.3z"/>
	<g id="XMLID_11894_">
		<path id="XMLID_11895_" class="st15" d="M130.8,226.1l-1.9,8.3c0,0,0.2,2.8-4.8,1.7c0,0-9.1-1.9-14.2-2.3c0,0-6,0.6-5.8-2.6
			l1.1-8.1c0,0-0.6-2.9,2.7-2.3c0,0,15.7,0.5,20.3,4.2C128.1,224.9,131.2,224.4,130.8,226.1z"/>
		<path id="XMLID_11896_" class="st14" d="M128.1,227l-1.3,5.5c0,0,0.2,1.9-3.8,1c0,0-7.4-1.6-11.6-2c0,0-4.8,0.2-4.8-1.9l0.6-5.5
			c0,0-0.6-2,2.1-1.5c0,0,12.7,0.9,16.5,3.5C125.9,226.1,128.4,225.9,128.1,227z"/>
	</g>
	<path id="XMLID_11897_" class="st16" d="M162,113.4l24.3,5.3c0,0,13.6,0.8,17.9,32.3c0,0,8.4,73.2,7.8,80.2c0,0,7.1,16.3-13.2,16.6
		c0,0-26.2,10.7-51.8-5.2c0,0-30.2-15.6-58.8-17.7c0,0-44.7,1.9-50.6-10.5c0,0,23.1-88.8,46.4-93.3l15.6-3.8L162,113.4z"/>
	<path id="XMLID_11898_" class="st17" d="M114.1,109.2v12.9c0,0,6.1,13.4,5.1,30.5c-1,17.1,0,0,0,0s-3.3-15-11.2-28.3
		c0,0-8.9,8.9-8.7,16.8c0,0-8.5-13,1-28.7C100.3,112.4,107,105.1,114.1,109.2"/>
	
		<ellipse id="XMLID_11899_" transform="matrix(-0.9966 -8.211193e-002 8.211193e-002 -0.9966 213.9295 327.9529)" class="st18" cx="113.7" cy="159.6" rx="2.1" ry="2.3"/>
	
		<ellipse id="XMLID_11900_" transform="matrix(-0.9966 -8.208683e-002 8.208683e-002 -0.9966 207.5539 379.4694)" class="st18" cx="111.6" cy="185.5" rx="2.1" ry="2.3"/>
	
		<ellipse id="XMLID_11901_" transform="matrix(-0.9966 -8.211002e-002 8.211002e-002 -0.9966 203.8466 435.0302)" class="st18" cx="110.9" cy="213.3" rx="2.1" ry="2.3"/>
	<path id="XMLID_11902_" class="st19" d="M118.5,160.1l-2.5,52.2c0,0,2.8,0.6,0,4.8c-2.8,4.2,0,0,0,0"/>
	<path id="XMLID_11903_" class="st19" d="M69.1,201.8c10.3-11.9,17.3-45.6,17.3-45.6c2.8-1.8,3.7,0,3.7-6.1"/>
	<path id="cuello_3_" class="st20" d="M149,76.3c0,0,0.2,18.9,1.4,28.8c0,0,2.7,18.1-31.3,46.3c0,0,1.1-16.3-5.1-29.4v-12.9l2-10.1
		l31.6-25.3L149,76.3z"/>
	<path id="sombra_cuello_2_" class="st21" d="M150.2,102.5c0,0-11.2-4.5-36.1,16.9v-16.9l34.9-32L150.2,102.5z"/>
	<path id="XMLID_11904_" class="st17" d="M149.9,99.9l12.1,5.8c0,0,3.4,3.1,0,15.3c0,0-2.6,16.5-1.9,21.4l-8.7-12.8
		c0,0-16.8,9.5-32.3,23l12.2-11.7c0,0,20.3-18.8,19.1-35.6c-1.1-16.8,0,0,0,0L149.9,99.9"/>
	<path id="XMLID_11905_" class="st20" d="M118.8,23.4c0,0,16.5-6.3,22.6,0c0,0,5.1,5.6,0,19c0,0,11.2,0.5,9,16.3
		c0,0,1.7-8.3,6.8-5.9c0,0,7.1,1.9,3.9,16.3c0,0-4.9,2-4.9,7.2c0,0-5.8,7.2-8,0l-4.9,15c0,0-3.2,10.2-10.7,12c0,0-10,1.4-11.7,3.1
		c0,0-3.7,4.4-7.3,4.4c0,0-5.8,0.5-8.8-7.4c0,0-5.6-2.5-8-12L92.8,77c0,0-1.9-1.5,2.7-10.6c0,0,9-8.1,9.5-32.2
		C105,34.3,102.3,17.1,118.8,23.4z"/>
	<path id="XMLID_11906_" class="st22" d="M118.7,26.2c-4.1-2.8-11.9-1.6-11.9-1.6c1.8-2.5,5.4-3.8,12.1-1.2c0,0,16.5-6.3,22.6,0
		c0,0,5.1,5.6,0,19c0,0,11.2,0.5,9,16.3c0,0,1.7-8.3,6.8-5.9c0,0,7.1,1.9,3.9,16.3c0,0-4.9,2-4.9,7.2c0,0-5.8,7.2-8,0l-4.9,15
		c0,0-3.2,10.2-10.7,12c0,0-10,1.4-11.7,3.1c0,0-3.7,4.4-7.3,4.4c0,0-3.5,0.3-6.4-3.2c8,2.9,13.7-3.7,13.7-3.7
		c16.1-3.8,15.3-8.4,15.3-8.4c5.1-6.3,9.2-36.8,9.2-36.8c2.6-12.2-7.3-16.3-7.3-16.3c2.6-8.3,0-13.3,0-13.3
		C136.6,21.2,118.7,26.2,118.7,26.2z"/>
	<path id="XMLID_11907_" class="st23" d="M159.6,54.4c0,0,3.8-14.5-3-26.5c0,0,5.2,0,4.1-5.4c0,0,0.1-7.4-4.7-13.3
		c-3.7-4.6-10.4-8.4-22.4-7.1c0,0-8.6,1.9-14.9,1.6l0.7,0.9c0,0-8.6,3.3-14.7-4.4c0,0-7.7,1.4-7.2,11c0,0,2,11.2,9.2,13.3l0,0
		c0,0,2.7-5.1,12.1-1.2l0,0c0,0,18-7.6,23.7,1.8l0,0c0,0,3.4,6-1.1,17.2l0,0c0,0,10.5,1.8,7.2,16.3h1.8c0,0,0-5,4.9-6.3
		c4.9-1.3,0,0,0,0S157.9,51.3,159.6,54.4"/>
	<path id="XMLID_11908_" class="st24" d="M153.2,6.5c0,0,10.8,15-6.8,20.5c0,0,11.7-1.8,9.1,16.5c0,0,5.4,4.8-5.5,9.1l-1.3,6.1h1.8
		c0,0,0.9-6.7,5.7-6.5c0,0,2-0.3,3.4,1.8c0,0,2.3-11.6-0.7-20.1l-2.2-6c0,0,1.9-0.3,3.1-1.4c0,0,1.5-1.3,0.7-3.9
		C160.4,22.6,161.4,14.7,153.2,6.5z"/>
	<path id="XMLID_11909_" class="st25" d="M160.6,144.1l-9.3-13.7c0,0-21.9,12.8-31.4,22.1l30.1-18.4L160.6,144.1z"/>
	<path id="XMLID_11910_" class="st25" d="M119.1,152.5c0,0-7.5-21.8-11.2-27.4c0,0-8.1,7.8-8.1,15.9c0,0,1.7-5.6,5.4-7.6
		C105.3,133.4,111.9,134.9,119.1,152.5z"/>
	<path id="XMLID_11911_" class="st24" d="M106.7,24.6c0,0-6.5-2.4-9.2-13.3c0,0-0.4-8.8,7.2-11c0,0-4.9,3.3-1.5,10.5
		C103.3,10.7,97.5,12.6,106.7,24.6z"/>
	<path id="XMLID_11912_" class="st24" d="M130.1,20.6c0,0,9.6-8.9-10.7-15.9l-0.7-0.9c0,0,3.9,0.8,12.3-1.1c0,0,11.1,0.6,8.6,5.7
		C139.6,8.3,151.5,17.2,130.1,20.6z"/>
	<path id="XMLID_11913_" class="st24" d="M118.8,23.4c0,0,4.2-12.9-9.8-18.8c0,0-3.1-1.6-4.3-4.3c0,0-2.4,5.8,4,9.6
		C108.7,9.8,117.1,12.8,118.8,23.4z"/>
	<path id="XMLID_11914_" class="st26" d="M115.4,50.6c0,0-2.1,11.3-4.2,13.9c0,0-10.7,7.5,2.1,11.8c0,0,6.3,0.6,7.8-2.5"/>
	<path id="XMLID_11915_" class="st27" d="M103.3,83.5c0,0,18.6,2.9,24.2-4.6c0,0-2.4,10.4-12.7,12.3
		C114.9,91.3,106.3,92.4,103.3,83.5z"/>
	<g id="ojo_der_9_">
		<path id="XMLID_11917_" class="st28" d="M112.9,51.4c0,0-5.1-3.4-11.2,1.5c0,0,0.1,1.3,0.8,2.8c0.8,1.7,2.3,3.7,5.5,4.1
			C108,59.8,112.5,60.5,112.9,51.4z"/>
		<ellipse id="XMLID_11918_" class="st29" cx="107.8" cy="56.1" rx="3" ry="3.1"/>
		<ellipse id="XMLID_11919_" class="st30" cx="107.7" cy="57" rx="1.8" ry="1.8"/>
		<circle id="XMLID_11920_" class="st31" cx="109.1" cy="56.1" r="0.9"/>
		<circle id="XMLID_11921_" class="st31" cx="110.4" cy="54.7" r="0.3"/>
		<path id="XMLID_11922_" class="st32" d="M113.8,50.5l-0.3,1.8c0,0-5.1-5.1-13.8,2.5v-2.4C99.7,52.4,107.1,46.3,113.8,50.5z"/>
		<path id="XMLID_11923_" class="st24" d="M114,43.4l-1.8-5.7c0,0-1.5-3-4.6,0.7l-5.8,6.1c0,0-1.5,3.8,1.3,1.6
			C103.1,46.2,110.6,40.4,114,43.4z"/>
	</g>
	<g id="ojo_izq_6_">
		<path id="XMLID_11924_" class="st28" d="M120.5,52c0,0,6.1-3.6,13.4,1.5c0,0-0.1,1.4-0.9,3c-0.9,1.8-2.8,3.9-6.5,4.3
			C126.5,60.9,121,61.6,120.5,52z"/>
		<circle id="XMLID_11925_" class="st29" cx="126.3" cy="56.8" r="3.2"/>
		<circle id="XMLID_11926_" class="st30" cx="126.1" cy="57.8" r="1.9"/>
		<circle id="XMLID_11927_" class="st31" cx="127.5" cy="56.8" r="1"/>
		<circle id="XMLID_11928_" class="st31" cx="129" cy="55.4" r="0.3"/>
		<path id="XMLID_11929_" class="st32" d="M119.5,51l0.3,1.9c0,0,6.1-5.3,16.5,2.6V53C136.4,53,127.5,46.7,119.5,51z"/>
		<path id="XMLID_11930_" class="st24" d="M121.8,42.6l0.5-4.5c0,0,1.3-5,12.2,5.6c0,0,2.9,4.2-1.4,1.8
			C133.1,45.4,124.4,41.1,121.8,42.6z"/>
	</g>
	<path id="XMLID_11916_" class="st26" d="M117.6,95c0,0-4.2,4.3-11.6,0"/>
	<path id="XMLID_11931_" class="st21" d="M156.3,58.6c0,0,0,4.9-2.1,6.8c0,0-2.3,0.7-1.7,3.1c0,0,0.1,9.2,2.8,0
		C155.3,68.4,157.7,63.4,156.3,58.6z"/>
	<g id="XMLID_11932_">
		<path id="XMLID_11933_" class="st33" d="M12.1,253.9l6.8,3.6v2l70.6,6.7l42.4-7.5c0,0,5.5-2.9,5.5-6.4l-43.7,6.4L12.1,253.9z"/>
		<polygon id="XMLID_11934_" class="st34" points="137.4,252.3 93,248 93.8,258.6 		"/>
		<polygon id="XMLID_11935_" class="st35" points="126.3,252.5 92.7,249.3 92.9,252.3 114.2,254.2 		"/>
		<line id="XMLID_11936_" class="st36" x1="120.5" y1="253.3" x2="92.8" y2="250.9"/>
		<polyline id="XMLID_11937_" class="st35" points="114.2,254.2 94.1,257.1 92.9,252.3 		"/>
		<polyline id="XMLID_11938_" class="st35" points="121,252 93.6,255.4 93.3,253.8 115.2,251.4 107.9,250.8 92.7,251.9 92.7,250.2 
			100.2,250 		"/>
		<line id="XMLID_11939_" class="st35" x1="106" y1="255.4" x2="91.9" y2="253.9"/>
		<g id="XMLID_11940_">
			<path id="XMLID_11941_" class="st20" d="M134.6,238.1c0,0-8.4,3.3-20.1,0.7l-8.7,2.8l-1.2,11.4c0,0-0.6,1.2-3,0.9
				c0,0-1.9,0.2-2.1-2.8c0,0-0.3,2.1-2.7,2c0,0-2.3-0.4-2.6-3.4l-0.8-4.8c0,0-2.1,0.6-2.2-1.7l1.1-7.9l-4,5.4c0,0-1.9,3.1-3.6,2.2
				c0,0-2.8-0.8-1.5-3.6l7.9-11.7c0,0,3.2-5,9.4-7.2c0,0,13.2-5.1,18.9-2.7l16,4.1C135.6,221.9,138.4,228.9,134.6,238.1z"/>
			<path id="XMLID_11942_" class="st37" d="M99.5,251.2l-0.4-8.5c0,0-0.7-4.6,4.8-6l7.7-2.9"/>
			<path id="XMLID_11943_" class="st37" d="M93.4,245l0.4-6.2c0,0-0.5-3.3,5.9-4.9l7.5-2.9"/>
			<path id="XMLID_11944_" class="st37" d="M92.7,234.7c0,0-0.3-3.2,4.3-5.2l9.9-5"/>
		</g>
		<path id="XMLID_11945_" d="M84.7,183.1l-78.9-1.6c0,0-5.4-1-4,8.9L7.4,248c0,0,0.5,7.3,4.7,5.9l77.4,8.1c0,0,4.5-0.1,4.2-3.3
			l-4.7-69.8C89.1,188.8,89.9,183.2,84.7,183.1z"/>
		<path id="XMLID_11946_" class="st38" d="M81.2,186.6l-71.4-1.4c0,0-4.9-0.9-3.6,8.1l5.1,52.3c0,0,0.5,6.6,4.3,5.3l70.1,7.4
			c0,0,4.1-0.1,3.8-3l-4.2-63.4C85.1,191.9,85.9,186.7,81.2,186.6z"/>
		
			<rect id="XMLID_11947_" x="37.1" y="212.7" transform="matrix(-0.7071 0.7071 -0.7071 -0.7071 231.5033 344.1685)" width="14.7" height="14.7"/>
	</g>
	<path id="XMLID_11948_" class="st17" d="M151.2,222.5c0,0-9.9,6.7-4.1,20.1l-13.6-1.5c0,0-10.9-12.8,3.5-21.3L151.2,222.5z"/>
	<path id="XMLID_11949_" class="st39" d="M173.7,191c0,0,0.8,15.2-4.3,27.3c0,0,4.2-0.8,10.2,0.3C179.7,218.6,173.4,196.1,173.7,191
		z"/>
	<path id="XMLID_11950_" class="st19" d="M179.7,218.6c-7.6-23.3-7.3-57.7-7.3-57.7s-4.7,0.5-5.5-6.5"/>
	<polygon id="XMLID_11951_" class="st31" points="82.2,174.7 81.6,183 79.4,182.9 	"/>
	<path id="XMLID_11952_" class="st19" d="M151.2,222.5c0,0,18.2-7.6,39.8-0.7"/>
	<path id="XMLID_11953_" class="st25" d="M163.5,114l25.7,6.2c0,0,9.9,4,14.3,28.9c4.4,24.9,0,0,0,0l7,65.8c0,0,1.4,14.8,1,16.3
		c0,0,7.5,15.1-12.3,16c0,0-26.6,11.2-51.6-5.1c0,0-5.5-10.8,2.8-18.2c0,0-4.9,13.5,0.6,17.4c0,0,28.4,13.5,43.8-0.8
		c0,0,15.6,7.7,12.5-8.9l-7.8-81.1c0,0,0.3-20.4-12.4-27.5L163.5,114"/>
	<path id="XMLID_11954_" class="st7" d="M166.5,154.7c0,0,0.3,6.5,5.5,6.8c0,0,0,19.3,1.7,29.9c0,0,0.6,17-4.3,27
		c0,0-8.9,0.6-17.3,3.8l-15.3-2.9l-2.8,2l-15.6-4.1c0,0,13.6,2.8,26.7-8.8c0,0,25.7,8.9,20.7-9.1l3.2-36
		C169,163.2,165.5,159.8,166.5,154.7z"/>
</g>
</svg>
