<?xml version="1.0" encoding="UTF-8"?>
<!DOCTYPE svg PUBLIC "-//W3C//DTD SVG 1.1//EN" "http://www.w3.org/Graphics/SVG/1.1/DTD/svg11.dtd">
<!-- Creator: CorelDRAW X8 -->
<svg xmlns="http://www.w3.org/2000/svg" xml:space="preserve" width="297mm" height="210mm" version="1.1" style="shape-rendering:geometricPrecision; text-rendering:geometricPrecision; image-rendering:optimizeQuality; fill-rule:evenodd; clip-rule:evenodd"
viewBox="0 0 29700 21000"
 xmlns:xlink="http://www.w3.org/1999/xlink">
 <defs>
  <style type="text/css">
   <![CDATA[
    .str0 {stroke:#FEFEFE;stroke-width:18}
    .fil1 {fill:#E31E24}
    .fil0 {fill:#0074BC}
    .fil2 {fill:#FEFEFE;fill-rule:nonzero}
   ]]>
  </style>
 </defs>
 <g id="Layer_x0020_1">
  <metadata id="CorelCorpID_0Corel-Layer"/>
  <g id="_1828667236800">
   <rect class="fil0" x="11750" y="9920" width="2471" height="1544"/>
   <path class="fil0" d="M14567 9436c0,58 -4,66 -62,66l0 27 212 0 0 -27c-61,0 -65,-8 -65,-62l0 -163 46 0c85,0 132,-15 166,-42 35,-27 51,-70 51,-120 0,-54 -20,-93 -55,-120 -30,-23 -73,-39 -150,-39l-205 0 0 31c58,0 62,8 62,62l0 387zm131 -441c46,0 77,8 97,27 23,20 35,51 35,93 0,46 -16,77 -35,97 -23,23 -62,31 -97,31l-50 0 0 -205c0,-35 4,-43 19,-43l31 0z"/>
   <path class="fil0" d="M15077 9247l-4 -51 -8 -7c-34,19 -69,30 -104,34l0 20c35,0 39,7 39,50l0 162c0,47 -4,51 -39,51l0 23 162 0 0 -23c-42,0 -46,-8 -46,-51l0 -170c23,-35 43,-58 58,-58 12,0 16,8 23,27 8,20 16,27 31,27 20,0 27,-15 27,-34 0,-16 -7,-31 -15,-39 -12,-12 -23,-16 -43,-16 -31,0 -54,16 -81,55l0 0z"/>
   <path class="fil0" d="M15441 9537c58,0 104,-12 139,-43 31,-27 50,-70 50,-131 0,-58 -19,-101 -54,-132 -35,-27 -77,-39 -135,-39 -58,0 -101,12 -132,39 -35,31 -54,74 -54,132 0,61 19,104 54,131 31,31 77,43 132,43l0 0zm0 -321c30,0 58,11 73,31 19,27 31,61 31,116 0,58 -12,92 -31,116 -15,19 -43,30 -73,30 -31,0 -58,-11 -74,-30 -19,-24 -31,-58 -31,-116 0,-55 12,-89 31,-116 16,-20 43,-31 74,-31l0 0z"/>
   <path class="fil0" d="M15769 9053c-27,0 -46,20 -46,50 0,31 19,51 46,51 23,0 47,-20 47,-51 0,-30 -24,-50 -47,-50l0 0zm-35 460c0,62 -7,101 -15,128 -12,27 -27,35 -43,35 -15,0 -27,-8 -38,-27 -12,-23 -20,-35 -43,-35 -11,0 -23,12 -23,27 0,15 12,31 27,42 19,12 43,20 77,20 43,0 78,-16 101,-47 23,-34 35,-85 35,-154l0 -306 -12 -7c-38,19 -73,30 -116,34l0 20c47,0 47,4 47,50l3 220z"/>
   <path class="fil0" d="M16214 9363c0,-55 -15,-97 -43,-128 -27,-31 -65,-46 -112,-46 -46,0 -85,15 -116,42 -31,31 -50,74 -50,128 0,58 15,100 43,127 34,35 77,51 131,51 39,0 70,-12 97,-28 23,-15 38,-30 50,-54l-23 -11c-12,15 -23,31 -39,42 -23,12 -46,20 -70,20 -34,0 -61,-16 -81,-43 -19,-27 -23,-62 -23,-104l236 4zm-236 -31c0,-39 12,-70 23,-85 16,-20 39,-31 58,-31 27,0 43,11 54,27 16,23 20,58 20,89l-155 0z"/>
   <path class="fil0" d="M16558 9448c-15,19 -27,31 -42,42 -20,12 -39,16 -62,16 -31,0 -58,-16 -78,-43 -15,-23 -23,-58 -23,-100 0,-55 12,-86 27,-109 16,-27 43,-38 66,-38 31,0 46,15 54,38 8,12 12,20 23,31 4,4 12,8 20,8 15,0 27,-12 27,-31 0,-15 -12,-31 -31,-43 -20,-19 -54,-27 -97,-27 -50,0 -97,12 -127,47 -31,27 -47,69 -47,124 0,54 16,100 50,135 27,23 66,39 120,39 35,0 62,-8 85,-24 24,-11 43,-31 55,-50l-20 -15z"/>
   <path class="fil0" d="M16616 9227l47 0 0 217c0,73 46,93 96,93 43,0 74,-12 101,-31l-16 -24c-19,12 -34,20 -58,20 -27,0 -46,-16 -46,-58l0 -217 100 0 0 -27 -100 0 0 -100 -23 0c-20,69 -43,100 -105,104l4 23z"/>
   <path class="fil0" d="M15023 9917l-182 460 -4 0 -189 -460 -143 0 0 30c54,0 62,4 62,59l0 390c0,58 -8,62 -62,62l0 31 158 0 0 -31c-54,0 -58,-4 -58,-62l0 -387 197 484 31 0 190 -480 4 0 0 387c0,54 -4,62 -58,62l0 27 205 0 0 -27c-58,0 -62,-8 -62,-62l0 -391c0,-54 4,-61 62,-61l0 -28 -151 -3z"/>
   <path class="fil0" d="M15502 10261c0,-31 -7,-58 -27,-78 -19,-23 -46,-31 -104,-31 -46,0 -74,8 -93,16 -27,15 -42,35 -42,54 0,16 7,31 27,31 23,0 31,-8 38,-23 4,-16 12,-27 20,-35 11,-8 23,-15 46,-15 19,0 35,7 43,19 7,11 11,31 11,50l0 31 -46 8c-47,11 -81,27 -108,42 -35,20 -47,47 -47,82 0,27 12,50 31,65 19,16 43,20 66,20 54,0 81,-16 104,-39l4 0c8,23 27,35 62,35 23,0 42,-4 58,-8l-4 -23c-8,4 -15,4 -19,4 -16,0 -23,-12 -23,-47l3 -158zm-85 166c-15,15 -34,31 -65,31 -16,0 -31,-4 -39,-15 -8,-12 -16,-24 -16,-43 0,-31 20,-50 43,-62 19,-15 50,-27 77,-35l0 124z"/>
   <path class="fil0" d="M15924 10261c0,-43 -12,-70 -31,-85 -15,-16 -43,-24 -77,-24 -47,0 -85,24 -116,58l-4 0 0 -54 -12 -7c-31,19 -69,27 -108,34l0 20c42,0 46,7 46,50l0 159c0,46 -4,54 -46,54l0 23 158 0 0 -23c-34,0 -34,-4 -34,-51l0 -166c27,-39 62,-62 89,-62 19,0 31,4 38,16 16,11 20,35 20,62l0 150c0,47 -4,51 -35,51l0 23 147 0 0 -23c-31,0 -35,-8 -35,-51l0 -154z"/>
   <path class="fil0" d="M16276 10261c0,-31 -4,-58 -23,-78 -24,-23 -51,-31 -105,-31 -46,0 -77,8 -96,16 -24,15 -39,35 -39,54 0,16 8,31 27,31 19,0 31,-8 35,-23 7,-16 11,-27 23,-35 12,-8 23,-15 43,-15 23,0 38,7 46,19 8,11 12,31 12,50l0 31 -47 8c-46,11 -85,27 -108,42 -35,20 -50,47 -50,82 0,27 15,50 31,65 19,16 46,20 69,20 50,0 81,-16 105,-39l3 0c8,23 24,35 58,35 27,0 43,-4 62,-8l-7 -23c-4,4 -12,4 -20,4 -15,0 -23,-12 -23,-47l4 -158zm-81 166c-16,15 -35,31 -66,31 -19,0 -31,-4 -39,-15 -11,-12 -15,-24 -15,-43 0,-31 15,-50 38,-62 24,-15 55,-27 82,-35l0 124z"/>
   <path class="fil0" d="M16489 10446c-43,0 -62,-7 -62,-27 0,-15 11,-27 27,-38 23,11 50,15 77,15 85,0 151,-42 151,-124 0,-31 -12,-58 -35,-77l74 4 0 -39 -101 12c-23,-12 -54,-20 -93,-20 -89,0 -154,43 -154,120 0,43 23,78 58,101 -28,15 -55,35 -55,66 0,31 27,50 55,54 -39,15 -82,46 -82,89 0,58 70,85 174,85 116,0 198,-54 198,-124 0,-50 -39,-93 -151,-93l-81 -4zm42 -77c-50,0 -77,-39 -77,-97 0,-50 27,-92 73,-92 51,0 78,42 78,92 0,58 -27,97 -74,97l0 0zm27 139c78,0 97,27 97,54 0,39 -50,78 -132,78 -65,0 -108,-27 -108,-66 0,-27 16,-50 50,-70l93 4z"/>
   <path class="fil0" d="M17080 10323c0,-55 -15,-97 -42,-128 -27,-31 -66,-46 -112,-46 -51,0 -86,15 -116,42 -31,31 -51,74 -51,128 0,58 16,100 43,127 31,35 77,51 131,51 39,0 70,-12 97,-27 23,-16 39,-31 50,-55l-23 -11c-12,15 -23,31 -39,42 -23,12 -46,20 -69,20 -35,0 -62,-16 -81,-43 -20,-27 -24,-62 -24,-104l236 4zm-236 -31c0,-39 12,-70 24,-85 15,-20 38,-31 58,-31 23,0 42,11 54,27 15,23 19,58 19,89l-155 0z"/>
   <path class="fil0" d="M17653 10265c0,-43 -8,-66 -24,-85 -19,-20 -42,-28 -73,-28 -50,0 -81,28 -108,58l-4 0c-4,-19 -16,-30 -27,-42 -16,-8 -35,-16 -66,-16 -43,0 -77,28 -104,55l-4 0 0 -51 -12 -4c-31,16 -70,28 -104,31l0 24c38,0 42,3 42,50l0 158c0,47 -4,51 -42,51l0 23 154 0 0 -23c-31,0 -34,-4 -34,-47l0 -174c27,-38 50,-58 77,-58 15,0 27,8 35,20 7,15 11,34 11,65l0 147c0,43 -4,47 -35,47l0 23 147 0 0 -23c-30,0 -34,-4 -34,-47l0 -178c23,-34 46,-54 77,-54 19,0 31,8 39,23 7,16 11,35 11,62l0 147c0,43 -7,47 -35,47l0 23 147 0 0 -23c-31,0 -34,-4 -34,-47l0 -154z"/>
   <path class="fil0" d="M18051 10323c0,-55 -16,-97 -43,-128 -27,-31 -65,-46 -112,-46 -50,0 -89,15 -116,42 -31,31 -50,74 -50,128 0,58 15,100 42,127 31,35 78,51 132,51 39,0 70,-12 93,-27 23,-16 42,-31 54,-55l-23 -11c-12,15 -27,31 -43,42 -19,12 -42,20 -66,20 -34,0 -62,-16 -81,-43 -19,-27 -23,-62 -23,-104l236 4zm-236 -31c0,-39 8,-70 23,-85 16,-20 35,-31 58,-31 23,0 43,11 54,27 12,23 20,58 20,89l-155 0z"/>
   <path class="fil0" d="M18445 10261c0,-43 -11,-70 -31,-85 -15,-16 -42,-24 -77,-24 -42,0 -85,24 -116,58l0 0 -4 -54 -11 -7c-31,19 -70,27 -105,34l0 20c39,0 43,7 43,50l0 159c0,46 -4,54 -43,54l0 23 155 0 0 -23c-35,0 -35,-4 -35,-51l0 -166c27,-39 62,-62 89,-62 19,0 31,4 39,16 15,11 19,35 19,62l0 150c0,47 -4,51 -35,51l0 23 147 0 0 -23c-31,0 -35,-8 -35,-51l0 -154z"/>
   <path class="fil0" d="M18511 10187l47 0 0 217c0,73 50,93 100,93 43,0 70,-12 97,-31l-12 -24c-19,12 -39,20 -62,20 -27,0 -42,-16 -42,-58l0 -217 96 0 0 -27 -96 0 0 -100 -27 0c-20,69 -43,100 -101,104l0 23z"/>
   <path class="fil0" d="M14563 11360c0,58 -4,62 -58,62l0 31 201 0 0 -31c-54,0 -58,-4 -58,-62l0 -387c0,-58 4,-62 58,-62l0 -30 -197 0 0 30c50,0 54,4 54,62l0 387z"/>
   <path class="fil0" d="M15093 11225c0,-43 -12,-70 -28,-85 -19,-16 -46,-24 -81,-24 -42,0 -81,24 -116,58l0 0 -4 -54 -7 -7c-35,19 -74,27 -109,34l0 20c39,0 43,7 43,50l0 159c0,46 -4,54 -43,54l0 23 155 0 0 -23c-31,0 -35,-4 -35,-51l0 -166c31,-39 62,-62 89,-62 20,0 31,4 43,16 11,11 15,35 15,62l0 150c0,47 0,51 -35,51l0 23 151 0 0 -23c-35,0 -38,-8 -38,-51l0 -154z"/>
   <path class="fil0" d="M15402 11205c-8,-34 -12,-54 -12,-73 -23,-12 -54,-16 -93,-16 -42,0 -73,8 -92,24 -27,15 -35,38 -35,62 0,23 8,38 19,54 20,19 43,31 70,50 35,19 54,27 66,39 11,11 15,23 15,34 0,16 -8,31 -19,39 -12,12 -27,16 -51,16 -42,0 -69,-16 -85,-78l-27 4c8,31 12,54 16,85 27,12 62,20 108,20 46,-1 81,-12 104,-31 24,-16 35,-43 35,-70 0,-23 -11,-43 -27,-58 -11,-16 -31,-31 -54,-43 -19,-11 -46,-23 -70,-34 -15,-12 -27,-27 -27,-43 0,-12 8,-23 20,-31 11,-8 27,-11 42,-11 39,0 62,15 74,69l23 -8z"/>
   <path class="fil0" d="M15456 11151l50 0 0 217c0,73 47,93 97,93 43,0 73,-12 101,-31l-16 -24c-19,12 -39,20 -58,20 -31,0 -46,-16 -46,-58l0 -217 100 0 0 -27 -100 0 0 -100 -24 0c-19,69 -42,100 -104,104l0 23z"/>
   <path class="fil0" d="M15816 10977c-27,0 -47,20 -47,51 0,30 20,50 47,50 23,0 46,-20 46,-50 0,-31 -23,-51 -46,-51l0 0zm42 143l-11 -4c-39,16 -74,28 -116,31l0 20c46,0 46,4 46,50l0 159c0,46 0,54 -46,54l0 23 170 0 0 -23c-39,0 -43,-8 -43,-54l0 -256z"/>
   <path class="fil0" d="M15936 11151l46 0 0 217c0,73 46,93 101,93 42,0 69,-12 96,-31l-15 -24c-20,12 -35,20 -58,20 -27,0 -47,-16 -47,-58l0 -217 101 0 0 -27 -101 0 0 -100 -23 0c-19,69 -42,100 -100,104l0 23z"/>
   <path class="fil0" d="M16601 11430c-39,0 -43,-8 -43,-54l0 -256 -11 -7c-35,19 -74,27 -105,31l0 23c35,0 35,7 35,50l4 155c-27,31 -58,50 -93,50 -19,0 -39,-8 -50,-23 -12,-16 -16,-39 -16,-74l0 -205 -11 -7c-35,19 -74,31 -109,34l4 20c35,0 39,7 39,50l0 120c0,46 12,81 31,100 19,20 50,24 81,24 54,0 93,-24 120,-51l4 0 4 51 7 3c16,-3 35,-7 55,-7 15,-4 34,-4 50,-4l4 -23z"/>
   <path class="fil0" d="M16636 11151l46 0 0 217c0,73 50,93 100,93 43,0 70,-12 97,-31l-15 -24c-16,12 -35,20 -58,20 -27,0 -43,-16 -43,-58l0 -217 97 0 0 -27 -97 0 0 -100 -27 0c-19,69 -42,100 -100,104l0 23z"/>
   <path class="fil0" d="M17235 11287c0,-55 -16,-97 -43,-128 -27,-31 -65,-46 -112,-46 -50,0 -89,15 -116,42 -31,31 -50,74 -50,128 0,58 15,100 43,127 30,35 77,51 131,51 39,0 70,-12 93,-27 23,-16 42,-31 54,-55l-23 -11c-12,15 -27,31 -43,42 -19,12 -42,20 -66,20 -34,0 -61,-16 -81,-43 -19,-27 -23,-62 -23,-104l236 4zm-236 -31c0,-39 8,-70 23,-85 16,-20 35,-31 54,-31 27,0 43,11 58,27 12,23 20,58 20,89l-155 0z"/>
   <path class="fil0" d="M12183 9410l-44 -1 0 247 185 -1 3 0c0,0 1,0 4,-1 29,-6 228,-57 237,-328 0,0 23,-253 -241,-348l-48 -12 -55 -10 -473 0 0 995 323 0 0 -715 120 1c0,0 6,1 10,3 26,13 103,109 -8,166 -2,1 -4,2 -6,3l-7 1z"/>
   <polygon class="fil0" points="12627,8956 12845,8956 12628,9287 "/>
   <polygon class="fil0" points="12910,9557 12910,9951 12659,9951 "/>
   <polygon class="fil0" points="13488,9557 13488,9951 13232,9951 "/>
   <polygon class="fil0" points="13274,8956 13274,9230 13458,8956 "/>
   <polygon class="fil0" points="13868,9951 14221,9951 14221,8956 13868,8956 "/>
   <polygon class="fil0" points="11548,11292 11548,11303 11576,11303 11576,11376 11588,11376 11588,11303 11616,11303 11616,11292 "/>
   <polygon class="fil0" points="11626,11292 11626,11376 11637,11376 11637,11306 11660,11376 11671,11376 11695,11306 11695,11376 11705,11376 11705,11292 11690,11292 11666,11363 11642,11292 "/>
   <polygon class="fil1 str0" points="13868,9951 14221,9951 14221,10295 13868,10295 "/>
   <path class="fil2" d="M12005 10348c-21,-3 -21,-11 -9,-46l15 -50c4,-11 5,-12 20,-12 13,0 16,3 20,20 3,11 11,54 17,70 5,15 11,23 17,26 7,4 17,6 32,6 17,0 23,-1 29,-2 3,-2 3,-8 1,-10 -18,-3 -28,-9 -34,-26 -7,-17 -14,-49 -21,-83 -2,-8 -2,-10 5,-12 28,-6 67,-28 67,-70 0,-44 -33,-67 -105,-67 -28,0 -50,0 -74,3 -4,2 -6,8 -3,11l14 2c14,2 14,8 4,42l-48 152c-12,39 -17,44 -35,46l-10 2c-5,1 -5,9 -1,11 16,0 35,-1 53,-1 17,0 34,1 54,1 3,-2 4,-8 2,-11l-10 -2zm37 -123c-22,0 -23,0 -18,-15l27 -90c4,-11 5,-13 20,-13 32,0 46,21 46,47 0,39 -36,71 -75,71zm154 141c27,0 55,-12 77,-43 1,-4 -2,-8 -6,-8 -19,17 -33,26 -48,26 -11,0 -18,-8 -18,-23 0,-12 2,-21 4,-27 45,-12 100,-32 100,-68 0,-14 -13,-28 -32,-28 -16,0 -35,5 -57,22 -39,29 -58,74 -58,105 0,22 12,44 38,44zm66 -157c5,0 7,5 7,11 0,6 -5,20 -15,30 -13,13 -25,20 -46,27 5,-14 14,-36 29,-51 10,-12 19,-17 25,-17zm79 260c50,0 102,-18 102,-50 0,-16 -8,-28 -28,-41 -13,-8 -28,-16 -38,-22 -13,-7 -21,-15 -21,-19 0,-5 4,-10 7,-13 12,-1 22,-4 30,-7 32,-16 56,-45 56,-80 0,-4 -2,-10 -3,-13 0,-2 2,-3 3,-3 4,0 9,1 13,2 4,1 8,2 13,2 4,0 11,-3 11,-14 0,-10 -5,-14 -11,-14 -5,0 -13,3 -19,4 -7,2 -14,3 -18,3 -3,0 -8,-3 -13,-5 -6,-3 -12,-4 -17,-4 -24,0 -44,8 -60,22 -22,18 -34,45 -34,65 0,28 20,38 33,42 -7,7 -22,23 -22,31 0,9 5,14 15,21 -23,6 -70,23 -70,54 0,29 42,39 71,39zm21 -16c-27,0 -52,-11 -52,-30 0,-10 7,-18 17,-26 9,-7 23,-12 27,-12 5,0 19,7 35,18 13,9 20,17 20,26 0,16 -26,24 -47,24zm54 -229c0,11 -12,42 -27,63 -11,15 -21,23 -28,23 -8,0 -12,-6 -12,-13 0,-20 17,-54 30,-70 11,-13 19,-18 25,-18 6,0 12,6 12,15zm152 0c4,-9 5,-15 4,-18 -1,-5 -7,-11 -13,-11 -18,0 -53,18 -74,43 -2,3 1,8 5,8 13,-11 30,-22 35,-22 3,0 3,3 1,7l-45 106c-3,7 -4,12 -4,16 0,4 6,13 13,13 31,0 70,-31 81,-48 1,-4 -2,-9 -7,-9 -11,13 -34,28 -40,28 -3,0 -3,-3 -1,-7l45 -106zm-3 -77c16,0 27,-14 27,-30 0,-13 -7,-20 -19,-20 -18,0 -28,16 -28,30 0,10 7,20 20,20zm42 219c17,0 33,-6 46,-16 15,-13 22,-28 22,-42 1,-16 -5,-27 -17,-43 -7,-10 -21,-22 -21,-35 0,-6 5,-12 14,-12 11,0 17,4 28,17 3,3 6,5 9,5 4,0 13,-6 13,-17 0,-14 -14,-28 -32,-28 -11,0 -25,6 -37,15 -14,13 -23,27 -23,44 0,10 6,23 17,38 8,10 20,24 20,37 0,9 -8,15 -16,15 -11,0 -20,-7 -31,-18 -3,-4 -5,-6 -9,-6 -9,0 -15,11 -15,19 0,15 15,27 32,27zm230 -145c5,-3 8,-13 3,-18l-40 0 11 -38c-2,-3 -7,-5 -13,-5 -4,0 -7,1 -10,2l-26 39 -34 7c-4,2 -6,9 -4,13l31 0 -37 109c-4,11 -5,16 -5,22 0,6 6,14 15,14 25,0 65,-29 83,-56 1,-5 -2,-8 -7,-9 -14,17 -38,34 -44,34 -4,0 -5,-3 -3,-9l37 -105 43 0zm31 145c27,0 55,-12 77,-43 1,-4 -3,-8 -7,-8 -18,17 -33,26 -47,26 -12,0 -18,-8 -18,-23 0,-12 1,-21 3,-27 45,-12 100,-32 100,-68 0,-14 -12,-28 -32,-28 -15,0 -34,5 -57,22 -38,29 -57,74 -57,105 0,22 11,44 38,44zm65 -157c5,0 8,5 8,11 0,6 -5,20 -15,30 -13,13 -26,20 -46,27 4,-14 14,-36 29,-51 10,-12 18,-17 24,-17zm111 -14c-25,0 -46,23 -56,42 -1,4 2,8 6,8 10,-12 23,-23 32,-23 4,0 4,4 2,11 -11,36 -31,93 -40,119 -4,11 10,14 18,14 7,0 12,-2 14,-7 17,-38 34,-77 49,-102 13,-22 22,-31 27,-31 4,0 7,4 8,12 2,8 4,12 8,12 13,0 22,-20 22,-32 0,-12 -5,-23 -18,-23 -12,0 -23,10 -36,26 -10,12 -24,35 -36,58l-3 0 14 -42c7,-19 11,-42 -11,-42zm116 171c27,0 55,-12 77,-43 1,-4 -2,-8 -6,-8 -19,17 -34,26 -48,26 -11,0 -18,-8 -18,-23 0,-12 2,-21 4,-27 45,-12 100,-32 100,-68 0,-14 -13,-28 -33,-28 -15,0 -34,5 -56,22 -39,29 -58,74 -58,105 0,22 12,44 38,44zm65 -157c6,0 8,5 8,11 0,6 -5,20 -15,30 -13,13 -25,20 -46,27 4,-14 14,-36 29,-51 10,-12 19,-17 24,-17zm171 -14c-22,0 -48,11 -75,35 -32,28 -52,71 -53,102 0,20 10,34 28,34 41,0 74,-42 97,-77l1 0 -13 36c-4,12 -7,21 -7,27 0,6 5,14 15,14 30,0 65,-33 76,-52 0,-5 -3,-7 -7,-7 -13,15 -35,31 -40,31 -4,0 -4,-3 -4,-7 1,-4 3,-10 6,-20 4,-13 43,-132 59,-175 11,-27 15,-42 23,-62 0,-1 -2,-3 -4,-3 -18,0 -51,7 -60,11 -3,2 -4,5 -2,7l10 7c6,4 6,9 -1,28l-28 82c-4,-6 -13,-11 -21,-11zm3 14c8,0 11,13 7,29 -6,20 -19,45 -41,69 -21,23 -47,40 -55,40 -3,0 -6,-3 -6,-8 0,-8 8,-30 24,-57 14,-24 36,-49 48,-60 9,-8 17,-13 23,-13zm-1393 617c16,0 34,0 50,1 17,-1 33,0 46,0 9,-11 24,-42 29,-58 -2,-4 -9,-5 -12,-3 -30,42 -45,45 -85,45 -31,0 -38,-4 -40,-10 -4,-7 -1,-20 5,-41l17 -52c3,-10 5,-11 16,-11l21 0c26,0 34,2 32,22l0 10c1,3 9,3 13,0 2,-10 6,-25 11,-41 5,-15 10,-31 14,-41 -1,-3 -10,-4 -13,-1l-5 11c-10,19 -17,22 -47,22l-21 0c-12,0 -12,-1 -9,-12l25 -77c4,-13 5,-15 18,-15l26 0c20,0 32,3 39,7 9,6 9,17 7,35 2,4 11,3 13,0 6,-21 15,-52 19,-59 -9,1 -31,1 -56,1l-83 0c-8,0 -17,0 -26,0 -9,0 -18,0 -27,-1 -4,2 -5,9 -2,11l10 3c19,4 20,11 8,46l-47 150c-12,39 -16,44 -35,46l-14 2c-4,2 -5,9 -1,11 22,0 38,-1 55,-1l49 0zm271 -165c-22,0 -48,12 -75,35 -32,28 -53,72 -53,102 0,21 10,34 28,34 40,0 73,-42 97,-77l1 0 -13 37c-4,11 -7,20 -7,27 0,6 5,13 14,13 31,0 66,-33 76,-51 0,-5 -2,-8 -6,-8 -13,16 -36,31 -41,31 -3,0 -4,-3 -3,-7 1,-4 3,-10 6,-20 4,-13 43,-132 59,-174 10,-28 15,-43 22,-63 0,-1 -1,-2 -3,-3 -19,1 -51,7 -61,11 -2,2 -3,5 -1,8l9 6c7,4 6,10 0,28l-28 83c-4,-7 -13,-12 -21,-12zm2 15c8,0 12,12 8,29 -6,19 -19,44 -41,68 -21,23 -47,40 -55,40 -3,0 -6,-2 -6,-7 0,-9 7,-30 24,-57 14,-25 36,-50 47,-60 9,-8 17,-13 23,-13zm91 117c-3,7 -5,14 -5,20 0,9 8,19 20,19 26,0 74,-49 99,-83l1 0 -25 65c-4,10 3,18 12,18 28,0 67,-31 79,-51 0,-5 -4,-7 -8,-7 -10,12 -31,30 -39,30 -4,0 -4,-5 -2,-11 17,-44 38,-97 48,-124 -2,-4 -11,-8 -20,-8 -5,0 -9,1 -12,2 -16,33 -43,85 -76,117 -14,14 -25,22 -30,22 -4,0 -6,-4 -3,-11l42 -104c2,-5 2,-10 2,-11 0,-7 -7,-15 -15,-15 -29,0 -64,30 -77,48 -1,5 3,8 7,9 11,-12 29,-28 37,-28 3,0 4,4 1,11l-36 92zm231 39c30,0 59,-22 74,-42 1,-4 -2,-8 -7,-8 -17,17 -31,25 -43,25 -10,0 -17,-6 -17,-24 0,-30 13,-60 26,-80 11,-17 21,-26 30,-26 10,0 9,14 10,23 0,7 5,11 12,11 9,0 24,-6 24,-22 1,-16 -14,-28 -35,-28 -21,0 -43,10 -64,31 -29,29 -46,69 -46,96 0,29 14,44 36,44zm248 -155c-2,-3 -7,-6 -9,-7 -2,-1 -6,-3 -9,-3 -10,0 -19,2 -31,9 -14,7 -33,20 -51,40 -31,35 -47,76 -47,92 0,13 9,24 21,24 24,0 64,-29 93,-68l1 0 -15 39c-2,8 -4,12 -4,16 0,5 4,13 14,13 26,0 57,-23 75,-45 0,-6 -3,-8 -6,-8 -18,17 -35,26 -41,26 -2,0 -4,-2 -2,-7 15,-42 41,-109 52,-135 -3,-7 -15,-10 -22,-10 -4,0 -7,1 -9,2l-10 22zm-28 7c8,0 14,4 17,14 -5,19 -24,55 -44,76 -18,18 -35,33 -41,33 -4,0 -5,-4 -5,-9 1,-26 22,-72 44,-97 13,-13 20,-17 29,-17zm210 3c5,-2 8,-13 3,-18l-40 0 11 -37c-1,-4 -7,-6 -13,-6 -4,0 -7,1 -9,2l-26 40 -34 6c-4,3 -7,10 -4,13l30 0 -37 109c-4,11 -5,17 -5,22 0,7 7,14 15,14 26,0 65,-29 83,-55 1,-6 -1,-8 -6,-9 -15,16 -38,34 -45,34 -4,0 -5,-4 -2,-10l36 -105 43 0zm90 3c4,-9 5,-14 4,-17 -1,-6 -8,-12 -13,-12 -19,0 -53,18 -75,44 -1,3 2,8 6,8 13,-12 30,-22 35,-22 2,0 2,2 0,6l-44 107c-3,7 -4,11 -4,16 0,3 6,12 13,12 31,0 69,-31 81,-48 1,-4 -3,-8 -7,-8 -12,12 -34,28 -41,28 -3,0 -2,-4 -1,-8l46 -106zm-4 -77c17,0 28,-14 28,-29 0,-13 -7,-20 -20,-20 -17,0 -27,15 -27,29 0,11 6,20 19,20zm80 205c-10,0 -15,-9 -15,-22 0,-30 21,-78 40,-102 11,-14 19,-18 27,-18 11,0 12,11 12,22 0,26 -19,75 -34,96 -12,17 -21,24 -30,24zm-52 -39c-1,30 16,53 50,53 18,0 41,-5 64,-28 27,-26 40,-63 40,-88 1,-30 -14,-55 -50,-55 -18,0 -39,6 -62,27 -25,23 -41,61 -42,91zm336 -118c-35,0 -72,48 -97,84l-2 0 25 -63c3,-9 2,-21 -12,-21 -28,0 -57,22 -70,43 0,3 2,6 6,6 12,-10 27,-21 35,-21 5,0 4,6 2,12 -4,12 -41,112 -43,117 -4,12 11,14 18,14 6,0 11,-1 14,-6 19,-42 39,-79 61,-108 19,-23 36,-36 43,-36 5,0 6,4 6,7 0,7 -4,16 -7,24 -10,24 -23,58 -34,82 -5,14 -7,19 -7,24 0,6 6,13 14,13 31,0 64,-25 77,-48 0,-5 -2,-8 -7,-7 -11,13 -31,27 -37,27 -3,0 -3,-3 -1,-8 7,-16 26,-60 33,-80 4,-11 8,-24 8,-32 0,-11 -7,-23 -25,-23zm-1475 620c-21,-2 -20,-11 -9,-47l57 -180c4,-12 5,-14 16,-14 29,0 47,16 47,46 0,50 -36,78 -73,83 -3,4 -2,8 1,11 13,0 29,-1 50,-7 36,-9 69,-36 69,-76 0,-23 -10,-42 -28,-54 -19,-13 -46,-19 -83,-19 -31,0 -52,2 -72,5 -4,1 -6,8 -3,10l17 3c14,2 15,8 7,33l-50 159c-12,40 -16,45 -34,47l-12 1c-5,2 -5,10 -1,12 19,-1 35,-1 53,-1 19,0 38,0 59,1 3,-2 5,-9 3,-12l-14 -1zm202 -153c-25,0 -46,23 -56,41 -1,5 2,8 6,8 10,-11 23,-22 32,-22 4,0 4,4 2,10 -11,37 -31,93 -40,120 -4,11 10,13 18,13 7,0 12,-1 14,-6 17,-39 34,-78 49,-102 13,-22 23,-31 27,-31 4,0 7,4 8,12 2,7 4,12 9,12 12,0 21,-20 21,-33 0,-11 -5,-22 -18,-22 -12,0 -23,9 -36,25 -10,13 -24,36 -36,58l-3 0 14 -41c7,-19 11,-42 -11,-42zm139 156c-10,0 -15,-9 -15,-21 0,-30 21,-78 40,-103 11,-13 19,-18 26,-18 12,0 13,11 13,22 0,26 -19,75 -34,96 -12,17 -21,24 -30,24zm-52 -39c-1,30 16,53 50,53 18,0 40,-4 64,-28 27,-25 40,-62 40,-87 0,-31 -14,-55 -50,-55 -18,0 -39,5 -62,27 -25,22 -41,61 -42,90zm205 53c14,0 33,-3 66,-29 36,-29 68,-84 68,-113 1,-11 -2,-27 -20,-28 -11,0 -20,8 -21,21 3,8 5,19 5,30 0,13 -10,43 -27,65 -16,20 -33,29 -41,29 -8,0 -11,-6 -11,-11 0,-7 3,-16 7,-24l25 -65c2,-5 6,-16 7,-22 2,-11 -5,-23 -17,-23 -29,0 -60,28 -72,47 0,3 3,7 7,7 11,-12 29,-26 36,-26 4,0 5,6 2,12l-27 69c-6,15 -8,27 -8,36 0,9 8,25 21,25zm239 -142c4,-8 5,-14 4,-17 -1,-6 -7,-11 -13,-11 -18,0 -53,17 -75,43 -1,3 2,8 6,8 13,-11 30,-22 35,-22 2,0 2,3 1,7l-45 106c-3,7 -4,11 -4,16 0,4 6,12 13,12 31,0 70,-31 81,-48 1,-4 -2,-8 -7,-8 -12,13 -34,28 -40,28 -4,0 -3,-4 -1,-8l45 -106zm-3 -77c16,0 27,-14 27,-29 0,-13 -7,-20 -19,-20 -18,0 -28,16 -28,30 0,10 7,19 20,19zm148 49c-22,0 -48,11 -75,34 -32,28 -52,72 -53,103 0,20 10,33 28,33 41,0 74,-41 98,-76l1 0 -14 36c-4,12 -7,20 -7,27 0,6 5,13 15,13 31,0 65,-33 76,-51 0,-5 -2,-7 -6,-7 -13,15 -36,30 -41,30 -3,0 -4,-3 -3,-6 1,-4 3,-11 5,-20 5,-14 43,-132 60,-175 10,-28 15,-42 22,-62 0,-1 -2,-3 -3,-4 -19,1 -51,8 -61,12 -3,1 -3,5 -2,7l10 6c6,4 6,10 0,29l-29 82c-4,-7 -13,-11 -21,-11zm3 14c8,0 12,13 7,29 -5,19 -19,45 -40,68 -22,24 -48,40 -56,40 -3,0 -5,-2 -5,-7 0,-9 7,-30 23,-57 14,-24 36,-49 48,-60 9,-8 17,-13 23,-13zm113 156c27,0 55,-12 77,-42 1,-4 -2,-8 -6,-8 -19,17 -33,25 -48,25 -11,0 -18,-8 -18,-23 0,-11 2,-20 4,-26 45,-12 100,-32 100,-68 0,-14 -13,-28 -33,-28 -15,0 -34,5 -56,21 -39,30 -58,75 -58,105 0,23 12,44 38,44zm66 -156c5,0 7,5 7,10 0,7 -5,21 -15,31 -13,13 -25,20 -46,27 5,-14 14,-36 29,-52 10,-11 19,-16 25,-16zm110 -14c-25,0 -45,23 -56,41 -1,5 3,8 7,8 9,-11 22,-22 31,-22 4,0 5,4 3,10 -12,37 -32,93 -41,120 -3,11 11,13 19,13 6,0 12,-1 14,-6 16,-39 33,-78 48,-102 14,-22 23,-31 28,-31 4,0 6,4 8,12 1,7 3,12 8,12 12,0 22,-20 22,-33 0,-11 -6,-22 -19,-22 -12,0 -23,9 -36,25 -10,13 -24,36 -36,58l-2 0 14 -41c6,-19 10,-42 -12,-42z"/>
  </g>
 </g>
</svg>
