<?xml version="1.0" encoding="utf-8"?>
<!-- Generator: Adobe Illustrator 19.0.0, SVG Export Plug-In . SVG Version: 6.00 Build 0)  -->
<svg version="1.1" id="Capa_1" xmlns="http://www.w3.org/2000/svg" xmlns:xlink="http://www.w3.org/1999/xlink" x="0px" y="0px"
	 viewBox="0 0 333.9 253.7" style="enable-background:new 0 0 333.9 253.7;" xml:space="preserve">
<style type="text/css">
	.st0{fill:#3F3A37;}
	.st1{fill:#FFFFFF;}
	.st2{fill:#004158;}
</style>
<g id="XMLID_9598_">
	<g id="XMLID_9599_">
		<path id="XMLID_9600_" class="st0" d="M326.2,253.7H7.6c-3.6,0-7.3-1.9-7.6-7v-4.8l34.8-64.4c1.9-3.7,5.7-6.2,9.9-6.2h243.8
			c4.5,0,14.6,9,16.6,13l28.8,58.7v2.2C334.1,251.2,330,253.7,326.2,253.7z"/>
		<path id="XMLID_9601_" class="st1" d="M326.2,246.9H7.6c-3.6,0-9.3-3.1-7.1-7l34.4-69.2c1.9-3.7,5.7-6.2,9.9-6.2h243.8
			c4.5,0,8.7,2.6,10.7,6.7l34.1,68.1C335.8,243.6,330,246.9,326.2,246.9z"/>
		<rect id="XMLID_9602_" x="35.9" y="0" class="st0" width="260.9" height="164.9"/>
		<rect id="XMLID_9603_" x="40.9" y="6" class="st2" width="250.9" height="148.8"/>
		<path id="XMLID_9604_" class="st0" d="M213.1,243.9h-93.8c-1.1,0-1.9-0.9-1.7-2l4-24.8c0.2-1.4,1.4-2.3,2.8-2.3h84.7
			c1.2,0,2.2,0.9,2.3,2l3.6,24.9C215,243,214.2,243.9,213.1,243.9z"/>
		<path id="XMLID_9605_" class="st0" d="M58.9,179.3H48.6c-1.4,0-2.5-0.5-2.2-0.9l0.6-1.5c0.2-0.5,1.5-0.9,2.9-0.9h10.1
			c1.4,0,2.3,0.5,2.2,0.9l-0.5,1.5C61.6,179,60.3,179.3,58.9,179.3z"/>
		<path id="XMLID_9606_" class="st0" d="M76.1,179.3H65.8c-1.4,0-2.5-0.5-2.3-0.9l0.5-1.5c0.2-0.5,1.4-0.9,2.8-0.9h10.1
			c1.4,0,2.5,0.5,2.3,0.9l-0.5,1.5C78.8,179,77.4,179.3,76.1,179.3z"/>
		<path id="XMLID_9607_" class="st0" d="M93.2,179.3H83c-1.4,0-2.5-0.5-2.3-0.9l0.5-1.5c0.2-0.5,1.4-0.9,2.8-0.9H94
			c1.4,0,2.5,0.5,2.3,0.9l-0.3,1.5C95.9,179,94.6,179.3,93.2,179.3z"/>
		<path id="XMLID_9609_" class="st0" d="M110.4,179.3h-10.2c-1.4,0-2.5-0.5-2.3-0.9l0.3-1.5c0.2-0.5,1.4-0.9,2.8-0.9h10.1
			c1.4,0,2.5,0.5,2.3,0.9l-0.3,1.5C113.1,179,111.8,179.3,110.4,179.3z"/>
		<path id="XMLID_9610_" class="st0" d="M127.6,179.3h-10.2c-1.4,0-2.5-0.5-2.5-0.9l0.3-1.5c0.2-0.5,1.2-0.9,2.6-0.9h10.1
			c1.4,0,2.5,0.5,2.5,0.9l-0.2,1.5C130.3,179,129,179.3,127.6,179.3z"/>
		<path id="XMLID_9611_" class="st0" d="M144.8,179.3h-10.2c-1.4,0-2.5-0.5-2.5-0.9l0.2-1.5c0-0.5,1.2-0.9,2.6-0.9H145
			c1.4,0,2.5,0.5,2.5,0.9l-0.2,1.5C147.4,179,146.2,179.3,144.8,179.3z"/>
		<path id="XMLID_9612_" class="st0" d="M162,179.3h-10.2c-1.4,0-2.5-0.5-2.5-0.9l0.2-1.5c0-0.5,1.2-0.9,2.6-0.9h10.1
			c1.4,0,2.5,0.5,2.5,0.9v1.5C164.5,179,163.4,179.3,162,179.3z"/>
		<path id="XMLID_9613_" class="st0" d="M179.2,179.3H169c-1.4,0-2.6-0.5-2.6-0.9v-1.5c0-0.5,1.1-0.9,2.5-0.9h10.1
			c1.4,0,2.6,0.5,2.6,0.9l0.2,1.5C181.7,179,180.6,179.3,179.2,179.3z"/>
		<path id="XMLID_9614_" class="st0" d="M196.4,179.3h-10.2c-1.4,0-2.6-0.5-2.6-0.9l-0.2-1.5c0-0.5,1.1-0.9,2.5-0.9h10.1
			c1.4,0,2.6,0.5,2.6,0.9l0.2,1.5C198.9,179,197.8,179.3,196.4,179.3z"/>
		<path id="XMLID_9615_" class="st0" d="M213.6,179.3h-10.2c-1.4,0-2.6-0.5-2.6-0.9l-0.2-1.5c0-0.5,1.1-0.9,2.5-0.9h10.1
			c1.4,0,2.6,0.5,2.6,0.9l0.3,1.5C216,179,215,179.3,213.6,179.3z"/>
		<path id="XMLID_9621_" class="st0" d="M230.8,179.3h-10.2c-1.4,0-2.6-0.5-2.8-0.9l-0.3-1.5c-0.2-0.5,0.9-0.9,2.3-0.9h10.1
			c1.4,0,2.6,0.5,2.8,0.9l0.3,1.5C233.2,179,232.2,179.3,230.8,179.3z"/>
		<path id="XMLID_9622_" class="st0" d="M247.8,179.3h-10.1c-1.4,0-2.6-0.5-2.8-0.9l-0.3-1.5c-0.2-0.5,0.9-0.9,2.3-0.9H247
			c1.4,0,2.6,0.5,2.8,0.9l0.5,1.5C250.3,179,249.3,179.3,247.8,179.3z"/>
		<path id="XMLID_9623_" class="st0" d="M265,179.3h-10.2c-1.4,0-2.6-0.5-2.8-0.9l-0.5-1.5c-0.2-0.5,0.9-0.9,2.3-0.9h10.1
			c1.4,0,2.6,0.5,2.9,0.9l0.5,1.5C267.5,179,266.5,179.3,265,179.3z"/>
		<path id="XMLID_9624_" class="st0" d="M282.2,179.3H272c-1.4,0-2.8-0.5-2.9-0.9l-0.6-1.5c-0.2-0.5,0.8-0.9,2.2-0.9h10.1
			c1.4,0,2.8,0.5,2.9,0.9l0.6,1.5C284.7,179,283.7,179.3,282.2,179.3z"/>
		<path id="XMLID_9625_" class="st0" d="M57.9,185.1h-13c-0.3,0-0.6-0.2-0.5-0.2l1.9-4.8c0-0.2,0.3-0.2,0.6-0.2h12.7
			c0.3,0,0.6,0.2,0.5,0.2l-1.7,4.8C58.6,184.9,58.2,185.1,57.9,185.1z"/>
		<path id="XMLID_9626_" class="st0" d="M81.9,191.3H68.6c-0.3,0-0.6-0.2-0.5-0.2l1.5-5c0-0.2,0.3-0.2,0.6-0.2h13
			c0.3,0,0.6,0.2,0.5,0.2l-1.4,5C82.6,191.3,82.2,191.3,81.9,191.3z"/>
		<path id="XMLID_9627_" class="st0" d="M84.1,197.8H70.5c-0.3,0-0.6-0.2-0.5-0.3l1.5-5.1c0-0.2,0.3-0.2,0.6-0.2h13.3
			c0.3,0,0.6,0.2,0.5,0.2l-1.4,5.1C84.7,197.8,84.4,197.8,84.1,197.8z"/>
		<path id="XMLID_9628_" class="st0" d="M91.7,204.6H77.9c-0.3,0-0.6-0.2-0.6-0.3l1.5-5.4c0-0.2,0.3-0.3,0.6-0.3h13.6
			c0.3,0,0.6,0.2,0.6,0.3l-1.2,5.4C92.5,204.4,92.2,204.6,91.7,204.6z"/>
		<path id="XMLID_9629_" class="st0" d="M48,212.5H33.9c-0.3,0-0.6-0.2-0.6-0.3l2.6-6.3c0-0.2,0.5-0.3,0.8-0.3h13.8
			c0.3,0,0.6,0.2,0.6,0.3l-2.3,6.3C48.8,212.3,48.5,212.5,48,212.5z"/>
		<path id="XMLID_9630_" class="st0" d="M66.9,212.5H52.8c-0.3,0-0.6-0.2-0.6-0.3l2.2-6.3c0-0.2,0.5-0.3,0.8-0.3h13.8
			c0.3,0,0.6,0.2,0.6,0.3l-1.9,6.3C67.7,212.3,67.2,212.5,66.9,212.5z"/>
		<path id="XMLID_9631_" class="st0" d="M85.2,212.5H71.1c-0.3,0-0.6-0.2-0.6-0.3l1.9-6.3c0-0.2,0.3-0.3,0.8-0.3h13.8
			c0.3,0,0.6,0.2,0.6,0.3l-1.5,6.3C86,212.3,85.5,212.5,85.2,212.5z"/>
		<path id="XMLID_9632_" class="st0" d="M108.3,212.5H89.7c-0.5,0-0.8-0.2-0.8-0.3l1.5-6.3c0-0.2,0.5-0.3,0.8-0.3h18.3
			c0.5,0,0.8,0.2,0.8,0.3l-1.1,6.3C109,212.3,108.7,212.5,108.3,212.5z"/>
		<path id="XMLID_9633_" class="st0" d="M222.9,212.5h-18.6c-0.5,0-0.8-0.2-0.8-0.3l-0.8-6.3c0-0.2,0.3-0.3,0.8-0.3h18.3
			c0.5,0,0.8,0.2,0.8,0.3l1.1,6.3C223.6,212.3,223.3,212.5,222.9,212.5z"/>
		<path id="XMLID_9634_" class="st0" d="M241.8,212.5h-13.9c-0.3,0-0.8-0.2-0.8-0.3l-1.2-6.3c0-0.2,0.3-0.3,0.6-0.3h13.6
			c0.3,0,0.6,0.2,0.8,0.3l1.5,6.3C242.4,212.3,242.1,212.5,241.8,212.5z"/>
		<path id="XMLID_9635_" class="st0" d="M199.6,212.5h-86c-0.9,0-1.5-0.3-1.5-0.6l0.9-5.6c0-0.3,0.8-0.6,1.7-0.6h84.1
			c0.9,0,1.7,0.3,1.7,0.6l0.6,5.6C201.2,212.2,200.4,212.5,199.6,212.5z"/>
		<path id="XMLID_9636_" class="st0" d="M109.8,204.6H96c-0.3,0-0.6-0.2-0.6-0.3l1.2-5.4c0-0.2,0.3-0.3,0.6-0.3h13.6
			c0.3,0,0.6,0.2,0.6,0.3l-0.9,5.4C110.4,204.4,110.1,204.6,109.8,204.6z"/>
		<path id="XMLID_9637_" class="st0" d="M127.8,204.6h-13.9c-0.3,0-0.6-0.2-0.6-0.3l0.9-5.4c0-0.2,0.3-0.3,0.6-0.3h13.6
			c0.3,0,0.6,0.2,0.6,0.3l-0.6,5.4C128.4,204.4,128.1,204.6,127.8,204.6z"/>
		<path id="XMLID_9638_" class="st0" d="M145.7,204.6H132c-0.3,0-0.6-0.2-0.6-0.3l0.6-5.4c0-0.2,0.3-0.3,0.6-0.3h13.6
			c0.3,0,0.6,0.2,0.6,0.3l-0.3,5.4C146.4,204.4,146.1,204.6,145.7,204.6z"/>
		<path id="XMLID_9639_" class="st0" d="M163.7,204.6h-13.8c-0.3,0-0.6-0.2-0.6-0.3l0.3-5.4c0-0.2,0.3-0.3,0.6-0.3h13.6
			c0.3,0,0.6,0.2,0.6,0.3v5.4C164.3,204.4,164,204.6,163.7,204.6z"/>
		<path id="XMLID_9640_" class="st0" d="M181.7,204.6h-13.8c-0.3,0-0.6-0.2-0.6-0.3v-5.4c0-0.2,0.3-0.3,0.6-0.3h13.6
			c0.3,0,0.6,0.2,0.6,0.3l0.3,5.4C182.3,204.4,182,204.6,181.7,204.6z"/>
		<path id="XMLID_9641_" class="st0" d="M199.6,204.6h-13.8c-0.3,0-0.6-0.2-0.6-0.3l-0.3-5.4c0-0.2,0.3-0.3,0.6-0.3h13.6
			c0.3,0,0.6,0.2,0.6,0.3l0.6,5.4C200.3,204.4,200.1,204.6,199.6,204.6z"/>
		<path id="XMLID_9642_" class="st0" d="M217.6,204.6h-13.8c-0.3,0-0.6-0.2-0.6-0.3l-0.6-5.4c0-0.2,0.3-0.3,0.6-0.3h13.6
			c0.3,0,0.6,0.2,0.6,0.3l0.9,5.4C218.2,204.4,218.1,204.6,217.6,204.6z"/>
		<path id="XMLID_9643_" class="st0" d="M235.7,204.6h-13.8c-0.3,0-0.6-0.2-0.6-0.3l-0.9-5.4c0-0.2,0.2-0.3,0.6-0.3h13.6
			c0.3,0,0.6,0.2,0.6,0.3l1.2,5.4C236.3,204.4,236,204.6,235.7,204.6z"/>
		<path id="XMLID_9644_" class="st0" d="M258.3,212.6h-10.8c-1.4,0-2.6-0.5-2.8-1.1l-0.5-1.5c-0.2-0.6,0.9-0.9,2.2-0.9h10.7
			c1.4,0,2.6,0.5,2.8,0.9l0.5,1.5C260.7,212.2,259.7,212.6,258.3,212.6z"/>
		<path id="XMLID_9645_" class="st0" d="M276.9,212.6h-10.8c-1.4,0-2.6-0.5-2.8-1.1l-0.5-1.5c-0.2-0.6,0.8-0.9,2.2-0.9h10.7
			c1.4,0,2.6,0.5,2.8,0.9l0.6,1.5C279.2,212.2,278.3,212.6,276.9,212.6z"/>
		<path id="XMLID_9646_" class="st0" d="M275.5,208.6h-10.7c-1.4,0-2.6-0.5-2.8-0.9l-0.5-1.5c-0.2-0.5,0.8-0.9,2.2-0.9h10.5
			c1.4,0,2.6,0.5,2.8,0.9l0.6,1.5C277.8,208.1,276.8,208.6,275.5,208.6z"/>
		<path id="XMLID_9647_" class="st0" d="M295.3,212.6h-10.8c-1.4,0-2.6-0.5-2.8-1.1l-0.6-1.5c-0.2-0.6,0.8-0.9,2.2-0.9h10.7
			c1.4,0,2.6,0.5,2.8,0.9l0.6,1.5C297.7,212.2,296.7,212.6,295.3,212.6z"/>
		<path id="XMLID_9648_" class="st0" d="M101.9,197.8H88.3c-0.3,0-0.6-0.2-0.6-0.3l1.2-5.1c0-0.2,0.3-0.2,0.6-0.2h13.3
			c0.3,0,0.6,0.2,0.6,0.2l-1.1,5.1C102.5,197.8,102.2,197.8,101.9,197.8z"/>
		<path id="XMLID_9649_" class="st0" d="M119.7,197.8h-13.6c-0.3,0-0.6-0.2-0.6-0.3l0.9-5.1c0-0.2,0.3-0.2,0.6-0.2h13.3
			c0.3,0,0.6,0.2,0.6,0.2l-0.8,5.1C120.3,197.8,120,197.8,119.7,197.8z"/>
		<path id="XMLID_9650_" class="st0" d="M137.4,197.8h-13.6c-0.3,0-0.6-0.2-0.6-0.3l0.6-5.1c0-0.2,0.3-0.2,0.6-0.2h13.3
			c0.3,0,0.6,0.2,0.6,0.2l-0.5,5.1C138,197.8,137.7,197.8,137.4,197.8z"/>
		<path id="XMLID_9651_" class="st0" d="M155,197.8h-13.6c-0.3,0-0.6-0.2-0.6-0.3l0.5-5.1c0-0.2,0.3-0.2,0.6-0.2h13.3
			c0.3,0,0.6,0.2,0.6,0.2l-0.2,5.1C155.7,197.8,155.3,197.8,155,197.8z"/>
		<path id="XMLID_9652_" class="st0" d="M172.8,197.8h-13.6c-0.3,0-0.6-0.2-0.6-0.3l0.2-5.1c0-0.2,0.3-0.2,0.6-0.2h13.3
			c0.3,0,0.6,0.2,0.6,0.2l0.2,5.1C173.5,197.8,173.2,197.8,172.8,197.8z"/>
		<path id="XMLID_9653_" class="st0" d="M189.9,197.8h-13.6c-0.3,0-0.6-0.2-0.6-0.3l-0.2-5.1c0-0.2,0.3-0.2,0.6-0.2h13.3
			c0.3,0,0.6,0.2,0.6,0.2l0.5,5.1C190.5,197.8,190.2,197.8,189.9,197.8z"/>
		<path id="XMLID_9654_" class="st0" d="M207.5,197.8h-13.6c-0.3,0-0.6-0.2-0.6-0.3l-0.5-5.1c0-0.2,0.3-0.2,0.6-0.2h13.3
			c0.3,0,0.6,0.2,0.6,0.2l0.8,5.1C208,197.8,207.8,197.8,207.5,197.8z"/>
		<path id="XMLID_9655_" class="st0" d="M225,197.8h-13.6c-0.3,0-0.6-0.2-0.6-0.3l-0.8-5.1c0-0.2,0.3-0.2,0.6-0.2h13.3
			c0.3,0,0.6,0.2,0.6,0.2l1.1,5.1C225.7,197.8,225.3,197.8,225,197.8z"/>
		<path id="XMLID_9656_" class="st0" d="M242.5,197.8h-13.6c-0.3,0-0.6-0.2-0.6-0.3l-1.1-5.1c0-0.2,0.2-0.2,0.6-0.2h13.3
			c0.3,0,0.6,0.2,0.6,0.2l1.2,5.1C243.2,197.8,242.8,197.8,242.5,197.8z"/>
		<path id="XMLID_9657_" class="st0" d="M260,197.8h-13.6c-0.3,0-0.6-0.2-0.6-0.3l-1.4-5.1c0-0.2,0.2-0.2,0.5-0.2h13.3
			c0.3,0,0.6,0.2,0.6,0.2l1.5,5.1C260.7,197.8,260.3,197.8,260,197.8z"/>
		<path id="XMLID_9658_" class="st0" d="M253.5,204.6h-13.8c-0.3,0-0.6-0.2-0.6-0.3l-1.2-5.4c0-0.2,0.2-0.3,0.6-0.3h13.6
			c0.3,0,0.6,0.2,0.6,0.3l1.5,5.4C254.1,204.4,253.8,204.6,253.5,204.6z"/>
		<path id="XMLID_9659_" class="st0" d="M291,197.8h-26.2c-0.5,0-0.9-0.2-0.9-0.3l-1.5-5c0-0.2,0.3-0.3,0.8-0.3h25.7
			c0.5,0,0.9,0.2,0.9,0.3l2,5C291.8,197.6,291.5,197.8,291,197.8z"/>
		<path id="XMLID_9660_" class="st0" d="M293.6,204.6h-35.8c-0.6,0-1.1-0.2-1.1-0.5l-1.5-5.1c0-0.2,0.3-0.3,0.9-0.3h35.2
			c0.5,0,1.1,0.2,1.1,0.3l2,5.1C294.6,204.4,294.3,204.6,293.6,204.6z"/>
		<path id="XMLID_9661_" class="st0" d="M66.4,197.8H40c-0.5,0-0.8-0.2-0.8-0.3l2-5c0-0.2,0.5-0.3,0.9-0.3h26c0.5,0,0.8,0.2,0.8,0.3
			l-1.5,5C67.4,197.6,66.9,197.8,66.4,197.8z"/>
		<path id="XMLID_9662_" class="st0" d="M73.6,204.6H37.2c-0.6,0-0.9-0.2-0.8-0.5l2-5.1c0.2-0.2,0.6-0.3,1.1-0.3h35.8
			c0.5,0,0.9,0.2,0.9,0.3l-1.4,5.1C74.7,204.4,74,204.6,73.6,204.6z"/>
		<path id="XMLID_9663_" class="st0" d="M99.3,191.3H86c-0.3,0-0.6-0.2-0.5-0.2l1.2-5c0-0.2,0.3-0.2,0.6-0.2h13
			c0.3,0,0.6,0.2,0.5,0.2l-1.1,5C99.9,191.3,99.6,191.3,99.3,191.3z"/>
		<path id="XMLID_9664_" class="st0" d="M116.5,191.3h-13.3c-0.3,0-0.6-0.2-0.6-0.2l1.1-5c0-0.2,0.3-0.2,0.6-0.2h13
			c0.3,0,0.6,0.2,0.6,0.2l-0.8,5C117.1,191.3,116.8,191.3,116.5,191.3z"/>
		<path id="XMLID_9665_" class="st0" d="M133.8,191.3h-13.3c-0.3,0-0.6-0.2-0.6-0.2l0.8-5c0-0.2,0.3-0.2,0.6-0.2h13
			c0.3,0,0.6,0.2,0.6,0.2l-0.5,5C134.4,191.3,134.1,191.3,133.8,191.3z"/>
		<path id="XMLID_9666_" class="st0" d="M151,191.3h-13.3c-0.3,0-0.6-0.2-0.6-0.2l0.5-5c0-0.2,0.3-0.2,0.6-0.2h13
			c0.3,0,0.6,0.2,0.6,0.2l-0.2,5C151.6,191.3,151.5,191.3,151,191.3z"/>
		<path id="XMLID_9667_" class="st0" d="M168.2,191.3h-13.3c-0.3,0-0.6-0.2-0.6-0.2l0.2-5c0-0.2,0.3-0.2,0.6-0.2h13
			c0.3,0,0.6,0.2,0.6,0.2v5C168.8,191.3,168.7,191.3,168.2,191.3z"/>
		<path id="XMLID_9668_" class="st0" d="M185.1,191.3h-13.3c-0.3,0-0.6-0.2-0.6-0.2l-0.2-5c0-0.2,0.3-0.2,0.6-0.2h13
			c0.3,0,0.6,0.2,0.6,0.2l0.3,5C185.7,191.3,185.4,191.3,185.1,191.3z"/>
		<path id="XMLID_9669_" class="st0" d="M202.6,191.3h-13.3c-0.3,0-0.6-0.2-0.6-0.2l-0.3-5c0-0.2,0.3-0.2,0.6-0.2h13
			c0.3,0,0.6,0.2,0.6,0.2l0.6,5C203,191.3,202.9,191.3,202.6,191.3z"/>
		<path id="XMLID_9670_" class="st0" d="M219.8,191.3h-13.3c-0.3,0-0.6-0.2-0.6-0.2l-0.6-5c0-0.2,0.3-0.2,0.6-0.2h13
			c0.3,0,0.6,0.2,0.6,0.2l0.9,5C220.4,191.3,220.1,191.3,219.8,191.3z"/>
		<path id="XMLID_9671_" class="st0" d="M236.6,191.3h-13.3c-0.3,0-0.6-0.2-0.6-0.2l-0.9-5c0-0.2,0.2-0.2,0.6-0.2h13
			c0.3,0,0.6,0.2,0.6,0.2l1.2,5C237.3,191.3,237.1,191.3,236.6,191.3z"/>
		<path id="XMLID_9672_" class="st0" d="M254.3,191.3H241c-0.3,0-0.6-0.2-0.6-0.2l-1.2-5c0-0.2,0.2-0.2,0.5-0.2h13
			c0.3,0,0.6,0.2,0.6,0.2l1.4,5C254.9,191.3,254.8,191.3,254.3,191.3z"/>
		<path id="XMLID_9673_" class="st0" d="M271.2,191.3h-13.3c-0.3,0-0.6-0.2-0.6-0.2l-1.5-5c0-0.2,0.2-0.2,0.5-0.2h13
			c0.3,0,0.6,0.2,0.6,0.2l1.7,5C271.8,191.3,271.6,191.3,271.2,191.3z"/>
		<path id="XMLID_9674_" class="st0" d="M288.7,191.3h-13.3c-0.3,0-0.6-0.2-0.6-0.2l-1.9-5c0-0.2,0.2-0.2,0.5-0.2h13
			c0.3,0,0.6,0.2,0.6,0.2l2,5C289.1,191.3,289,191.3,288.7,191.3z"/>
		<path id="XMLID_9675_" class="st0" d="M75.1,185.1h-13c-0.3,0-0.6-0.2-0.5-0.2l1.7-4.8c0-0.2,0.3-0.2,0.6-0.2h12.7
			c0.3,0,0.6,0.2,0.5,0.2l-1.4,4.8C75.7,184.9,75.4,185.1,75.1,185.1z"/>
		<path id="XMLID_9676_" class="st0" d="M91.8,185.1h-13c-0.3,0-0.6-0.2-0.5-0.2l1.4-4.8c0-0.2,0.3-0.2,0.6-0.2h12.7
			c0.3,0,0.6,0.2,0.5,0.2l-1.1,4.8C92.5,184.9,92.2,185.1,91.8,185.1z"/>
		<path id="XMLID_9677_" class="st0" d="M108.9,185.1h-13c-0.3,0-0.6-0.2-0.5-0.2l1.1-4.8c0-0.2,0.3-0.2,0.6-0.2h12.7
			c0.3,0,0.6,0.2,0.5,0.2l-0.9,4.8C109.5,184.9,109.2,185.1,108.9,185.1z"/>
		<path id="XMLID_9678_" class="st0" d="M125.6,185.1h-13c-0.3,0-0.6-0.2-0.6-0.2l0.8-4.8c0-0.2,0.3-0.2,0.6-0.2h12.7
			c0.3,0,0.6,0.2,0.6,0.2l-0.6,4.8C126.2,184.9,125.9,185.1,125.6,185.1z"/>
		<path id="XMLID_9679_" class="st0" d="M142.8,185.1h-13c-0.3,0-0.6-0.2-0.6-0.2l0.6-4.8c0-0.2,0.3-0.2,0.6-0.2h12.7
			c0.3,0,0.6,0.2,0.6,0.2l-0.3,4.8C143.4,184.9,143.1,185.1,142.8,185.1z"/>
		<path id="XMLID_9680_" class="st0" d="M159.2,185.1h-13c-0.3,0-0.6-0.2-0.6-0.2l0.3-4.8c0-0.2,0.3-0.2,0.6-0.2h12.7
			c0.3,0,0.6,0.2,0.6,0.2l-0.2,4.8C159.8,184.9,159.5,185.1,159.2,185.1z"/>
		<path id="XMLID_9681_" class="st0" d="M176.4,185.1h-13c-0.3,0-0.6-0.2-0.6-0.2v-4.8c0-0.2,0.3-0.2,0.6-0.2h12.7
			c0.3,0,0.6,0.2,0.6,0.2l0.2,4.8C177,184.9,176.7,185.1,176.4,185.1z"/>
		<path id="XMLID_9682_" class="st0" d="M193.1,185.1h-13c-0.3,0-0.6-0.2-0.6-0.2l-0.2-4.8c0-0.2,0.3-0.2,0.6-0.2h12.7
			c0.3,0,0.6,0.2,0.6,0.2l0.5,4.8C193.7,184.9,193.4,185.1,193.1,185.1z"/>
		<path id="XMLID_9683_" class="st0" d="M210.2,185.1h-13c-0.3,0-0.6-0.2-0.6-0.2l-0.5-4.8c0-0.2,0.3-0.2,0.6-0.2h12.7
			c0.3,0,0.6,0.2,0.6,0.2l0.8,4.8C210.8,184.9,210.6,185.1,210.2,185.1z"/>
		<path id="XMLID_9684_" class="st0" d="M227.4,185.1h-13c-0.3,0-0.6-0.2-0.6-0.2l-0.8-4.8c0-0.2,0.2-0.2,0.5-0.2h12.7
			c0.3,0,0.6,0.2,0.6,0.2l0.9,4.8C227.8,184.9,227.7,185.1,227.4,185.1z"/>
		<path id="XMLID_9685_" class="st0" d="M244.2,185.1h-13c-0.3,0-0.6-0.2-0.6-0.2l-1.1-4.8c0-0.2,0.2-0.2,0.5-0.2h12.7
			c0.3,0,0.6,0.2,0.6,0.2l1.2,4.8C244.9,184.9,244.5,185.1,244.2,185.1z"/>
		<path id="XMLID_9686_" class="st0" d="M260.5,185.1h-13c-0.3,0-0.6-0.2-0.6-0.2l-1.2-4.8c0-0.2,0.2-0.2,0.5-0.2h12.7
			c0.3,0,0.6,0.2,0.6,0.2l1.5,4.8C261.1,184.9,260.8,185.1,260.5,185.1z"/>
		<path id="XMLID_9687_" class="st0" d="M284.8,185.1h-19.5c-0.9,0-1.7-0.3-1.9-0.6l-1.4-4c-0.2-0.3,0.5-0.6,1.4-0.6h19
			c0.9,0,1.7,0.3,1.9,0.6l1.7,4C286.4,184.8,285.7,185.1,284.8,185.1z"/>
		<path id="XMLID_9688_" class="st0" d="M63.4,191.3H43.5c-0.9,0-1.5-0.3-1.4-0.6l1.7-4.2c0.2-0.3,0.9-0.6,1.9-0.6h19.5
			c0.9,0,1.5,0.3,1.4,0.6l-1.4,4.2C65.1,190.9,64.3,191.3,63.4,191.3z"/>
	</g>
	<g id="XMLID_545_">
		<g id="XMLID_870_">
			<path id="XMLID_908_" class="st1" d="M61.6,29.9V18.5h3.7c1.4,0,2.3,0.1,2.8,0.2c0.7,0.2,1.2,0.5,1.6,1.1s0.7,1.3,0.7,2.2
				c0,0.7-0.1,1.3-0.4,1.8s-0.6,0.9-1,1.1s-0.8,0.5-1.2,0.5c-0.6,0.1-1.4,0.2-2.4,0.2h-1.5v4.3H61.6z M63.9,20.4v3.3h1.3
				c0.9,0,1.5-0.1,1.8-0.2s0.5-0.3,0.7-0.6S68,22.3,68,22c0-0.4-0.1-0.8-0.4-1s-0.6-0.4-0.9-0.5c-0.3-0.1-0.8-0.1-1.7-0.1H63.9z"/>
			<path id="XMLID_906_" class="st1" d="M74.3,29.9h-2.2v-8.3h2v1.2c0.3-0.6,0.7-0.9,0.9-1.1s0.6-0.3,0.9-0.3c0.5,0,1,0.1,1.4,0.4
				l-0.7,1.9c-0.4-0.2-0.7-0.4-1-0.4c-0.3,0-0.6,0.1-0.8,0.3s-0.4,0.5-0.5,0.9s-0.2,1.4-0.2,2.8V29.9z"/>
			<path id="XMLID_904_" class="st1" d="M83.9,29.9v-1.2c-0.3,0.4-0.7,0.8-1.2,1s-1,0.4-1.6,0.4c-0.6,0-1.1-0.1-1.5-0.4
				s-0.8-0.6-1-1s-0.3-1.1-0.3-1.8v-5.3h2.2v3.8c0,1.2,0,1.9,0.1,2.1s0.2,0.5,0.4,0.6s0.5,0.2,0.8,0.2c0.4,0,0.7-0.1,1-0.3
				s0.5-0.5,0.6-0.8s0.2-1.1,0.2-2.2v-3.5H86v8.3H83.9z"/>
			<path id="XMLID_901_" class="st1" d="M93,27.3l2.2,0.4c-0.3,0.8-0.7,1.4-1.3,1.8s-1.4,0.6-2.3,0.6c-1.4,0-2.5-0.5-3.2-1.4
				c-0.5-0.8-0.8-1.7-0.8-2.9c0-1.4,0.4-2.5,1.1-3.2s1.6-1.2,2.7-1.2c1.2,0,2.2,0.4,2.9,1.2s1.1,2.1,1,3.7h-5.5
				c0,0.7,0.2,1.2,0.5,1.5s0.8,0.5,1.3,0.5c0.3,0,0.6-0.1,0.9-0.3S92.9,27.7,93,27.3z M93.2,25c0-0.6-0.2-1.1-0.5-1.4
				s-0.7-0.5-1.1-0.5c-0.5,0-0.9,0.2-1.2,0.5s-0.5,0.8-0.5,1.4H93.2z"/>
			<path id="XMLID_898_" class="st1" d="M97,29.9V18.5h2.2v4.1c0.7-0.8,1.5-1.2,2.4-1.2c1,0,1.8,0.4,2.5,1.1s1,1.8,1,3.2
				c0,1.4-0.3,2.5-1,3.3s-1.5,1.1-2.5,1.1c-0.5,0-0.9-0.1-1.4-0.4s-0.9-0.6-1.2-1.1v1.2H97z M99.2,25.6c0,0.9,0.1,1.5,0.4,1.9
				c0.4,0.6,0.9,0.9,1.5,0.9c0.5,0,0.9-0.2,1.2-0.6s0.5-1.1,0.5-2c0-0.9-0.2-1.6-0.5-2.1s-0.8-0.6-1.3-0.6c-0.5,0-1,0.2-1.3,0.6
				S99.2,24.7,99.2,25.6z"/>
			<path id="XMLID_895_" class="st1" d="M108.5,24.1l-2-0.4c0.2-0.8,0.6-1.4,1.2-1.8s1.4-0.6,2.4-0.6c1,0,1.7,0.1,2.2,0.3
				s0.8,0.5,1,0.9s0.3,1,0.3,2l0,2.6c0,0.7,0,1.3,0.1,1.6s0.2,0.7,0.4,1.1h-2.2c-0.1-0.1-0.1-0.4-0.2-0.6c0-0.1-0.1-0.2-0.1-0.3
				c-0.4,0.4-0.8,0.6-1.2,0.8s-0.9,0.3-1.4,0.3c-0.9,0-1.5-0.2-2-0.7s-0.7-1-0.7-1.8c0-0.5,0.1-0.9,0.3-1.3s0.5-0.6,0.9-0.8
				s1-0.4,1.7-0.5c1-0.2,1.7-0.4,2.1-0.5v-0.2c0-0.4-0.1-0.7-0.3-0.9s-0.6-0.3-1.2-0.3c-0.4,0-0.7,0.1-0.9,0.2
				S108.7,23.8,108.5,24.1z M111.5,25.9c-0.3,0.1-0.7,0.2-1.3,0.3s-1,0.3-1.2,0.4c-0.3,0.2-0.4,0.5-0.4,0.8c0,0.3,0.1,0.6,0.3,0.8
				s0.5,0.3,0.9,0.3c0.4,0,0.8-0.1,1.1-0.4c0.3-0.2,0.4-0.4,0.5-0.7c0.1-0.2,0.1-0.5,0.1-1.1V25.9z"/>
			<path id="XMLID_893_" class="st1" d="M115,27.5l2.2-0.3c0.1,0.4,0.3,0.8,0.6,1s0.7,0.3,1.2,0.3c0.6,0,1-0.1,1.3-0.3
				c0.2-0.1,0.3-0.3,0.3-0.6c0-0.2-0.1-0.3-0.2-0.4c-0.1-0.1-0.4-0.2-0.7-0.3c-1.8-0.4-2.9-0.7-3.4-1.1c-0.7-0.4-1-1.1-1-1.9
				c0-0.7,0.3-1.3,0.9-1.8s1.4-0.7,2.6-0.7c1.1,0,2,0.2,2.5,0.6s0.9,0.9,1.1,1.6l-2.1,0.4c-0.1-0.3-0.3-0.6-0.5-0.7
				s-0.6-0.3-1.1-0.3c-0.6,0-1,0.1-1.2,0.2c-0.2,0.1-0.3,0.3-0.3,0.4c0,0.2,0.1,0.3,0.2,0.4c0.2,0.1,0.9,0.4,2.1,0.6s2,0.6,2.4,1
				c0.5,0.4,0.7,0.9,0.7,1.6c0,0.8-0.3,1.4-1,2s-1.6,0.8-2.8,0.8c-1.1,0-2-0.2-2.7-0.7S115.2,28.3,115,27.5z"/>
			<path id="XMLID_891_" class="st1" d="M129.1,18.5h2.3v6.2c0,1,0,1.6,0.1,1.9c0.1,0.5,0.3,0.8,0.7,1.1s0.9,0.4,1.5,0.4
				c0.7,0,1.2-0.1,1.5-0.4s0.5-0.6,0.6-1s0.1-1,0.1-1.9v-6.3h2.3v6c0,1.4-0.1,2.3-0.2,2.9s-0.4,1-0.7,1.4s-0.8,0.7-1.3,0.9
				s-1.3,0.3-2.2,0.3c-1.1,0-1.9-0.1-2.5-0.4s-1-0.6-1.3-1s-0.5-0.8-0.6-1.3c-0.2-0.7-0.2-1.6-0.2-2.9V18.5z"/>
			<path id="XMLID_889_" class="st1" d="M148.2,29.9H146v-4.2c0-0.9,0-1.5-0.1-1.7s-0.2-0.5-0.5-0.6s-0.5-0.2-0.8-0.2
				c-0.4,0-0.7,0.1-1,0.3s-0.5,0.5-0.6,0.8s-0.2,1-0.2,1.9v3.8h-2.2v-8.3h2v1.2c0.7-0.9,1.6-1.4,2.7-1.4c0.5,0,0.9,0.1,1.3,0.3
				s0.7,0.4,0.9,0.7s0.3,0.6,0.4,0.9s0.1,0.8,0.1,1.5V29.9z"/>
			<path id="XMLID_886_" class="st1" d="M150.5,20.5v-2h2.2v2H150.5z M150.5,29.9v-8.3h2.2v8.3H150.5z"/>
			<path id="XMLID_884_" class="st1" d="M158.7,21.6v1.8h-1.5v3.3c0,0.7,0,1.1,0,1.2s0.1,0.2,0.2,0.3s0.2,0.1,0.4,0.1
				c0.2,0,0.5-0.1,0.9-0.2l0.2,1.7c-0.5,0.2-1.1,0.3-1.7,0.3c-0.4,0-0.8-0.1-1.1-0.2s-0.6-0.3-0.7-0.5s-0.3-0.5-0.3-0.9
				c0-0.3-0.1-0.8-0.1-1.5v-3.6h-1v-1.8h1V20l2.2-1.3v2.9H158.7z"/>
			<path id="XMLID_881_" class="st1" d="M161.9,24.1l-2-0.4c0.2-0.8,0.6-1.4,1.2-1.8s1.4-0.6,2.4-0.6c1,0,1.7,0.1,2.2,0.3
				s0.8,0.5,1,0.9s0.3,1,0.3,2l0,2.6c0,0.7,0,1.3,0.1,1.6s0.2,0.7,0.4,1.1h-2.2c-0.1-0.1-0.1-0.4-0.2-0.6c0-0.1-0.1-0.2-0.1-0.3
				c-0.4,0.4-0.8,0.6-1.2,0.8s-0.9,0.3-1.4,0.3c-0.9,0-1.5-0.2-2-0.7s-0.7-1-0.7-1.8c0-0.5,0.1-0.9,0.3-1.3s0.5-0.6,0.9-0.8
				s1-0.4,1.7-0.5c1-0.2,1.7-0.4,2.1-0.5v-0.2c0-0.4-0.1-0.7-0.3-0.9s-0.6-0.3-1.2-0.3c-0.4,0-0.7,0.1-0.9,0.2S162,23.8,161.9,24.1z
				 M164.8,25.9c-0.3,0.1-0.7,0.2-1.3,0.3s-1,0.3-1.2,0.4c-0.3,0.2-0.4,0.5-0.4,0.8c0,0.3,0.1,0.6,0.3,0.8s0.5,0.3,0.9,0.3
				c0.4,0,0.8-0.1,1.1-0.4c0.3-0.2,0.4-0.4,0.5-0.7c0.1-0.2,0.1-0.5,0.1-1.1V25.9z"/>
			<path id="XMLID_879_" class="st1" d="M171.2,29.9H169v-8.3h2v1.2c0.3-0.6,0.7-0.9,0.9-1.1s0.6-0.3,0.9-0.3c0.5,0,1,0.1,1.4,0.4
				l-0.7,1.9c-0.4-0.2-0.7-0.4-1-0.4c-0.3,0-0.6,0.1-0.8,0.3s-0.4,0.5-0.5,0.9s-0.2,1.4-0.2,2.8V29.9z"/>
			<path id="XMLID_876_" class="st1" d="M175.4,20.5v-2h2.2v2H175.4z M175.4,29.9v-8.3h2.2v8.3H175.4z"/>
			<path id="XMLID_873_" class="st1" d="M181.5,24.1l-2-0.4c0.2-0.8,0.6-1.4,1.2-1.8s1.4-0.6,2.4-0.6c1,0,1.7,0.1,2.2,0.3
				s0.8,0.5,1,0.9s0.3,1,0.3,2l0,2.6c0,0.7,0,1.3,0.1,1.6s0.2,0.7,0.4,1.1h-2.2c-0.1-0.1-0.1-0.4-0.2-0.6c0-0.1-0.1-0.2-0.1-0.3
				c-0.4,0.4-0.8,0.6-1.2,0.8s-0.9,0.3-1.4,0.3c-0.9,0-1.5-0.2-2-0.7s-0.7-1-0.7-1.8c0-0.5,0.1-0.9,0.3-1.3s0.5-0.6,0.9-0.8
				s1-0.4,1.7-0.5c1-0.2,1.7-0.4,2.1-0.5v-0.2c0-0.4-0.1-0.7-0.3-0.9s-0.6-0.3-1.2-0.3c-0.4,0-0.7,0.1-0.9,0.2
				S181.6,23.8,181.5,24.1z M184.4,25.9c-0.3,0.1-0.7,0.2-1.3,0.3s-1,0.3-1.2,0.4c-0.3,0.2-0.4,0.5-0.4,0.8c0,0.3,0.1,0.6,0.3,0.8
				s0.5,0.3,0.9,0.3c0.4,0,0.8-0.1,1.1-0.4c0.3-0.2,0.4-0.4,0.5-0.7c0.1-0.2,0.1-0.5,0.1-1.1V25.9z"/>
			<path id="XMLID_871_" class="st1" d="M187.9,27.5l2.2-0.3c0.1,0.4,0.3,0.8,0.6,1s0.7,0.3,1.2,0.3c0.6,0,1-0.1,1.3-0.3
				c0.2-0.1,0.3-0.3,0.3-0.6c0-0.2-0.1-0.3-0.2-0.4c-0.1-0.1-0.4-0.2-0.7-0.3c-1.8-0.4-2.9-0.7-3.4-1.1c-0.7-0.4-1-1.1-1-1.9
				c0-0.7,0.3-1.3,0.9-1.8s1.4-0.7,2.6-0.7c1.1,0,2,0.2,2.5,0.6s0.9,0.9,1.1,1.6l-2.1,0.4c-0.1-0.3-0.3-0.6-0.5-0.7
				s-0.6-0.3-1.1-0.3c-0.6,0-1,0.1-1.2,0.2c-0.2,0.1-0.3,0.3-0.3,0.4c0,0.2,0.1,0.3,0.2,0.4c0.2,0.1,0.9,0.4,2.1,0.6s2,0.6,2.4,1
				c0.5,0.4,0.7,0.9,0.7,1.6c0,0.8-0.3,1.4-1,2s-1.6,0.8-2.8,0.8c-1.1,0-2-0.2-2.7-0.7S188.1,28.3,187.9,27.5z"/>
		</g>
	</g>
	<g id="XMLID_254_">
		<g id="XMLID_2620_">
			<path id="XMLID_2909_" class="st1" d="M67,53.3l1.5,0.4c-0.3,1.2-0.9,2.2-1.7,2.8s-1.8,1-3,1c-1.2,0-2.2-0.3-3-0.8
				s-1.4-1.2-1.8-2.2s-0.6-2-0.6-3.1c0-1.2,0.2-2.2,0.7-3.1s1.1-1.6,1.9-2s1.8-0.7,2.8-0.7c1.1,0,2.1,0.3,2.9,0.9S68,48,68.4,49
				l-1.5,0.4c-0.3-0.8-0.7-1.4-1.2-1.8S64.6,47,63.8,47c-0.9,0-1.6,0.2-2.2,0.6s-1,1-1.2,1.7S60,50.8,60,51.5c0,1,0.1,1.8,0.4,2.6
				s0.7,1.3,1.3,1.6s1.2,0.5,1.9,0.5c0.8,0,1.6-0.2,2.2-0.7S66.8,54.3,67,53.3z"/>
			<path id="XMLID_2906_" class="st1" d="M75.7,56.3c-0.5,0.4-1,0.8-1.5,0.9s-1,0.3-1.6,0.3c-0.9,0-1.6-0.2-2.1-0.7s-0.7-1-0.7-1.7
				c0-0.4,0.1-0.8,0.3-1.1s0.4-0.6,0.7-0.8s0.6-0.4,1-0.5c0.3-0.1,0.7-0.1,1.3-0.2c1.1-0.1,2-0.3,2.5-0.5c0-0.2,0-0.3,0-0.4
				c0-0.6-0.1-1-0.4-1.2c-0.4-0.3-0.9-0.5-1.6-0.5c-0.7,0-1.1,0.1-1.5,0.3s-0.5,0.6-0.7,1.2L70,51.4c0.1-0.6,0.3-1.1,0.6-1.4
				s0.7-0.6,1.2-0.8s1.2-0.3,1.9-0.3c0.7,0,1.3,0.1,1.7,0.3s0.8,0.4,1,0.6s0.4,0.6,0.4,1c0,0.2,0.1,0.7,0.1,1.3v1.9
				c0,1.3,0,2.1,0.1,2.5s0.2,0.7,0.4,1h-1.5C75.8,57,75.7,56.7,75.7,56.3z M75.5,53.2c-0.5,0.2-1.3,0.4-2.3,0.5
				c-0.6,0.1-1,0.2-1.2,0.3s-0.4,0.3-0.6,0.5s-0.2,0.4-0.2,0.7c0,0.4,0.1,0.7,0.4,0.9s0.7,0.4,1.2,0.4c0.5,0,1-0.1,1.4-0.4
				s0.7-0.6,0.9-1c0.2-0.3,0.2-0.8,0.2-1.4V53.2z"/>
			<path id="XMLID_2903_" class="st1" d="M84.5,57.3v-1c-0.5,0.8-1.3,1.2-2.3,1.2c-0.7,0-1.3-0.2-1.8-0.5s-1-0.9-1.3-1.5
				s-0.5-1.4-0.5-2.3c0-0.8,0.1-1.6,0.4-2.3s0.7-1.2,1.2-1.6s1.2-0.5,1.9-0.5c0.5,0,0.9,0.1,1.3,0.3s0.7,0.5,1,0.8v-4.1h1.4v11.5
				H84.5z M80.1,53.2c0,1.1,0.2,1.9,0.7,2.4s1,0.8,1.6,0.8c0.6,0,1.1-0.3,1.6-0.8s0.6-1.3,0.6-2.3c0-1.1-0.2-2-0.7-2.5
				s-1-0.8-1.6-0.8c-0.6,0-1.1,0.3-1.6,0.8S80.1,52.1,80.1,53.2z"/>
			<path id="XMLID_2900_" class="st1" d="M93.4,56.3c-0.5,0.4-1,0.8-1.5,0.9s-1,0.3-1.6,0.3c-0.9,0-1.6-0.2-2.1-0.7s-0.7-1-0.7-1.7
				c0-0.4,0.1-0.8,0.3-1.1s0.4-0.6,0.7-0.8s0.6-0.4,1-0.5c0.3-0.1,0.7-0.1,1.3-0.2c1.1-0.1,2-0.3,2.5-0.5c0-0.2,0-0.3,0-0.4
				c0-0.6-0.1-1-0.4-1.2C92.6,50.2,92,50,91.3,50c-0.7,0-1.1,0.1-1.5,0.3s-0.5,0.6-0.7,1.2l-1.4-0.2c0.1-0.6,0.3-1.1,0.6-1.4
				s0.7-0.6,1.2-0.8s1.2-0.3,1.9-0.3c0.7,0,1.3,0.1,1.7,0.3s0.8,0.4,1,0.6s0.4,0.6,0.4,1c0,0.2,0.1,0.7,0.1,1.3v1.9
				c0,1.3,0,2.1,0.1,2.5s0.2,0.7,0.4,1h-1.5C93.6,57,93.5,56.7,93.4,56.3z M93.3,53.2c-0.5,0.2-1.3,0.4-2.3,0.5
				c-0.6,0.1-1,0.2-1.2,0.3s-0.4,0.3-0.6,0.5s-0.2,0.4-0.2,0.7c0,0.4,0.1,0.7,0.4,0.9s0.7,0.4,1.2,0.4c0.5,0,1-0.1,1.4-0.4
				s0.7-0.6,0.9-1c0.2-0.3,0.2-0.8,0.2-1.4V53.2z"/>
			<path id="XMLID_2898_" class="st1" d="M115.8,57.3v-1.2c-0.6,0.9-1.5,1.4-2.6,1.4c-0.5,0-0.9-0.1-1.4-0.3s-0.7-0.4-0.9-0.7
				s-0.4-0.6-0.4-1c-0.1-0.3-0.1-0.7-0.1-1.3V49h1.4v4.6c0,0.7,0,1.2,0.1,1.5c0.1,0.4,0.3,0.7,0.6,0.9s0.6,0.3,1.1,0.3
				s0.8-0.1,1.2-0.3s0.6-0.5,0.8-0.9s0.2-0.9,0.2-1.6V49h1.4v8.3H115.8z"/>
			<path id="XMLID_2896_" class="st1" d="M119.3,57.3V49h1.3v1.2c0.6-0.9,1.5-1.4,2.6-1.4c0.5,0,1,0.1,1.4,0.3s0.7,0.4,0.9,0.7
				s0.4,0.6,0.4,1c0.1,0.3,0.1,0.7,0.1,1.4v5.1h-1.4v-5c0-0.6-0.1-1-0.2-1.3s-0.3-0.5-0.6-0.7s-0.6-0.3-1-0.3
				c-0.6,0-1.1,0.2-1.6,0.6s-0.7,1.1-0.7,2.2v4.5H119.3z"/>
			<path id="XMLID_2893_" class="st1" d="M128.2,47.5v-1.6h1.4v1.6H128.2z M128.2,57.3V49h1.4v8.3H128.2z"/>
			<path id="XMLID_2890_" class="st1" d="M137.1,57.3v-1c-0.5,0.8-1.3,1.2-2.3,1.2c-0.7,0-1.3-0.2-1.8-0.5s-1-0.9-1.3-1.5
				s-0.5-1.4-0.5-2.3c0-0.8,0.1-1.6,0.4-2.3s0.7-1.2,1.2-1.6s1.2-0.5,1.9-0.5c0.5,0,0.9,0.1,1.3,0.3s0.7,0.5,1,0.8v-4.1h1.4v11.5
				H137.1z M132.7,53.2c0,1.1,0.2,1.9,0.7,2.4s1,0.8,1.6,0.8c0.6,0,1.1-0.3,1.6-0.8s0.6-1.3,0.6-2.3c0-1.1-0.2-2-0.7-2.5
				s-1-0.8-1.6-0.8c-0.6,0-1.1,0.3-1.6,0.8S132.7,52.1,132.7,53.2z"/>
			<path id="XMLID_2887_" class="st1" d="M146.1,56.3c-0.5,0.4-1,0.8-1.5,0.9s-1,0.3-1.6,0.3c-0.9,0-1.6-0.2-2.1-0.7s-0.7-1-0.7-1.7
				c0-0.4,0.1-0.8,0.3-1.1s0.4-0.6,0.7-0.8s0.6-0.4,1-0.5c0.3-0.1,0.7-0.1,1.3-0.2c1.1-0.1,2-0.3,2.5-0.5c0-0.2,0-0.3,0-0.4
				c0-0.6-0.1-1-0.4-1.2c-0.4-0.3-0.9-0.5-1.6-0.5c-0.7,0-1.1,0.1-1.5,0.3s-0.5,0.6-0.7,1.2l-1.4-0.2c0.1-0.6,0.3-1.1,0.6-1.4
				s0.7-0.6,1.2-0.8s1.2-0.3,1.9-0.3c0.7,0,1.3,0.1,1.7,0.3s0.8,0.4,1,0.6s0.4,0.6,0.4,1c0,0.2,0.1,0.7,0.1,1.3v1.9
				c0,1.3,0,2.1,0.1,2.5s0.2,0.7,0.4,1h-1.5C146.2,57,146.1,56.7,146.1,56.3z M146,53.2c-0.5,0.2-1.3,0.4-2.3,0.5
				c-0.6,0.1-1,0.2-1.2,0.3s-0.4,0.3-0.6,0.5s-0.2,0.4-0.2,0.7c0,0.4,0.1,0.7,0.4,0.9s0.7,0.4,1.2,0.4c0.5,0,1-0.1,1.4-0.4
				s0.7-0.6,0.9-1c0.2-0.3,0.2-0.8,0.2-1.4V53.2z"/>
			<path id="XMLID_2884_" class="st1" d="M154.9,57.3v-1c-0.5,0.8-1.3,1.2-2.3,1.2c-0.7,0-1.3-0.2-1.8-0.5s-1-0.9-1.3-1.5
				s-0.5-1.4-0.5-2.3c0-0.8,0.1-1.6,0.4-2.3s0.7-1.2,1.2-1.6s1.2-0.5,1.9-0.5c0.5,0,0.9,0.1,1.3,0.3s0.7,0.5,1,0.8v-4.1h1.4v11.5
				H154.9z M150.5,53.2c0,1.1,0.2,1.9,0.7,2.4s1,0.8,1.6,0.8c0.6,0,1.1-0.3,1.6-0.8s0.6-1.3,0.6-2.3c0-1.1-0.2-2-0.7-2.5
				s-1-0.8-1.6-0.8c-0.6,0-1.1,0.3-1.6,0.8S150.5,52.1,150.5,53.2z"/>
			<path id="XMLID_2881_" class="st1" d="M177.3,57.3v-1c-0.5,0.8-1.3,1.2-2.3,1.2c-0.7,0-1.3-0.2-1.8-0.5s-1-0.9-1.3-1.5
				s-0.5-1.4-0.5-2.3c0-0.8,0.1-1.6,0.4-2.3s0.7-1.2,1.2-1.6s1.2-0.5,1.9-0.5c0.5,0,0.9,0.1,1.3,0.3s0.7,0.5,1,0.8v-4.1h1.4v11.5
				H177.3z M172.9,53.2c0,1.1,0.2,1.9,0.7,2.4s1,0.8,1.6,0.8c0.6,0,1.1-0.3,1.6-0.8s0.6-1.3,0.6-2.3c0-1.1-0.2-2-0.7-2.5
				s-1-0.8-1.6-0.8c-0.6,0-1.1,0.3-1.6,0.8S172.9,52.1,172.9,53.2z"/>
			<path id="XMLID_2878_" class="st1" d="M186.5,54.7l1.5,0.2c-0.2,0.8-0.7,1.5-1.3,2s-1.4,0.7-2.4,0.7c-1.2,0-2.2-0.4-2.9-1.1
				s-1.1-1.8-1.1-3.1c0-1.4,0.4-2.5,1.1-3.3s1.7-1.2,2.8-1.2c1.1,0,2,0.4,2.7,1.1s1.1,1.8,1.1,3.2c0,0.1,0,0.2,0,0.4h-6.2
				c0.1,0.9,0.3,1.6,0.8,2.1s1,0.7,1.7,0.7c0.5,0,1-0.1,1.3-0.4S186.3,55.3,186.5,54.7z M181.9,52.4h4.6c-0.1-0.7-0.2-1.2-0.5-1.6
				c-0.4-0.5-1-0.8-1.7-0.8c-0.6,0-1.2,0.2-1.6,0.6S181.9,51.7,181.9,52.4z"/>
			<path id="XMLID_2876_" class="st1" d="M208.6,54.3l1.4,0.2c-0.2,1-0.5,1.7-1.2,2.2s-1.4,0.8-2.3,0.8c-1.1,0-2-0.4-2.7-1.1
				s-1-1.8-1-3.2c0-0.9,0.1-1.7,0.4-2.4s0.7-1.2,1.4-1.5s1.3-0.5,2-0.5c0.9,0,1.6,0.2,2.2,0.7s0.9,1.1,1.1,1.9l-1.4,0.2
				c-0.1-0.6-0.4-1-0.7-1.3s-0.7-0.4-1.2-0.4c-0.7,0-1.3,0.3-1.7,0.8s-0.7,1.3-0.7,2.4c0,1.1,0.2,1.9,0.6,2.4s1,0.8,1.7,0.8
				c0.6,0,1-0.2,1.4-0.5S208.5,55,208.6,54.3z"/>
			<path id="XMLID_2872_" class="st1" d="M210.7,53.2c0-1.5,0.4-2.7,1.3-3.4c0.7-0.6,1.6-0.9,2.6-0.9c1.1,0,2.1,0.4,2.8,1.1
				s1.1,1.8,1.1,3.1c0,1.1-0.2,1.9-0.5,2.5s-0.8,1.1-1.4,1.4s-1.3,0.5-2,0.5c-1.2,0-2.1-0.4-2.8-1.1S210.7,54.6,210.7,53.2z
				 M212.1,53.2c0,1.1,0.2,1.9,0.7,2.4s1,0.8,1.8,0.8c0.7,0,1.3-0.3,1.7-0.8s0.7-1.3,0.7-2.4c0-1-0.2-1.8-0.7-2.3s-1-0.8-1.7-0.8
				c-0.7,0-1.3,0.3-1.8,0.8S212.1,52.1,212.1,53.2z M213.8,48l1-2.2h1.8L215,48H213.8z"/>
			<path id="XMLID_2869_" class="st1" d="M225.5,57.3v-1c-0.5,0.8-1.3,1.2-2.3,1.2c-0.7,0-1.3-0.2-1.8-0.5s-1-0.9-1.3-1.5
				s-0.5-1.4-0.5-2.3c0-0.8,0.1-1.6,0.4-2.3s0.7-1.2,1.2-1.6s1.2-0.5,1.9-0.5c0.5,0,0.9,0.1,1.3,0.3s0.7,0.5,1,0.8v-4.1h1.4v11.5
				H225.5z M221.1,53.2c0,1.1,0.2,1.9,0.7,2.4s1,0.8,1.6,0.8c0.6,0,1.1-0.3,1.6-0.8s0.6-1.3,0.6-2.3c0-1.1-0.2-2-0.7-2.5
				s-1-0.8-1.6-0.8c-0.6,0-1.1,0.3-1.6,0.8S221.1,52.1,221.1,53.2z"/>
			<path id="XMLID_2866_" class="st1" d="M229,47.5v-1.6h1.4v1.6H229z M229,57.3V49h1.4v8.3H229z"/>
			<path id="XMLID_2863_" class="st1" d="M232.3,58l1.4,0.2c0.1,0.4,0.2,0.7,0.5,0.9c0.3,0.3,0.8,0.4,1.4,0.4c0.7,0,1.2-0.1,1.5-0.4
				s0.6-0.6,0.7-1.1c0.1-0.3,0.1-0.9,0.1-1.8c-0.6,0.7-1.4,1.1-2.3,1.1c-1.1,0-2-0.4-2.6-1.2s-0.9-1.8-0.9-3c0-0.8,0.1-1.5,0.4-2.2
				s0.7-1.2,1.2-1.6s1.2-0.5,1.9-0.5c1,0,1.8,0.4,2.4,1.2v-1h1.3v7.2c0,1.3-0.1,2.2-0.4,2.7s-0.7,1-1.3,1.3s-1.3,0.5-2.1,0.5
				c-1,0-1.8-0.2-2.4-0.7S232.3,58.9,232.3,58z M233.5,53c0,1.1,0.2,1.9,0.6,2.4s1,0.8,1.6,0.8c0.6,0,1.2-0.2,1.6-0.7
				s0.7-1.3,0.7-2.3c0-1-0.2-1.8-0.7-2.3s-1-0.8-1.6-0.8c-0.6,0-1.2,0.3-1.6,0.8S233.5,52,233.5,53z"/>
			<path id="XMLID_2860_" class="st1" d="M240.9,53.2c0-1.5,0.4-2.7,1.3-3.4c0.7-0.6,1.6-0.9,2.6-0.9c1.1,0,2.1,0.4,2.8,1.1
				s1.1,1.8,1.1,3.1c0,1.1-0.2,1.9-0.5,2.5s-0.8,1.1-1.4,1.4s-1.3,0.5-2,0.5c-1.2,0-2.1-0.4-2.8-1.1S240.9,54.6,240.9,53.2z
				 M242.4,53.2c0,1.1,0.2,1.9,0.7,2.4s1,0.8,1.8,0.8c0.7,0,1.3-0.3,1.7-0.8s0.7-1.3,0.7-2.4c0-1-0.2-1.8-0.7-2.3s-1-0.8-1.7-0.8
				c-0.7,0-1.3,0.3-1.8,0.8S242.4,52.1,242.4,53.2z"/>
			<path id="XMLID_2857_" class="st1" d="M263.3,53.2c0-1.5,0.4-2.7,1.3-3.4c0.7-0.6,1.6-0.9,2.6-0.9c1.1,0,2.1,0.4,2.8,1.1
				s1.1,1.8,1.1,3.1c0,1.1-0.2,1.9-0.5,2.5s-0.8,1.1-1.4,1.4s-1.3,0.5-2,0.5c-1.2,0-2.1-0.4-2.8-1.1S263.3,54.6,263.3,53.2z
				 M264.8,53.2c0,1.1,0.2,1.9,0.7,2.4s1,0.8,1.8,0.8c0.7,0,1.3-0.3,1.7-0.8s0.7-1.3,0.7-2.4c0-1-0.2-1.8-0.7-2.3s-1-0.8-1.7-0.8
				c-0.7,0-1.3,0.3-1.8,0.8S264.8,52.1,264.8,53.2z"/>
			<path id="XMLID_2854_" class="st1" d="M58.7,79.7V68.2H60v1.1c0.3-0.4,0.6-0.7,1-0.9s0.8-0.3,1.4-0.3c0.7,0,1.3,0.2,1.9,0.5
				s1,0.9,1.2,1.5s0.4,1.4,0.4,2.2c0,0.8-0.2,1.6-0.5,2.3s-0.7,1.2-1.3,1.6s-1.2,0.5-1.8,0.5c-0.5,0-0.9-0.1-1.3-0.3
				s-0.7-0.4-0.9-0.8v4H58.7z M60,72.4c0,1.1,0.2,1.9,0.6,2.4s1,0.8,1.6,0.8c0.6,0,1.2-0.3,1.6-0.8s0.7-1.3,0.7-2.5
				c0-1.1-0.2-1.8-0.7-2.4s-1-0.8-1.6-0.8c-0.6,0-1.1,0.3-1.6,0.8S60,71.4,60,72.4z"/>
			<path id="XMLID_2852_" class="st1" d="M67.6,76.5v-8.3h1.3v1.3c0.3-0.6,0.6-1,0.9-1.2s0.6-0.3,0.9-0.3c0.5,0,1,0.2,1.4,0.5
				l-0.5,1.3c-0.3-0.2-0.7-0.3-1-0.3c-0.3,0-0.6,0.1-0.8,0.3s-0.4,0.4-0.5,0.8C69,71,69,71.6,69,72.2v4.3H67.6z"/>
			<path id="XMLID_2849_" class="st1" d="M72.4,72.4c0-1.5,0.4-2.7,1.3-3.4c0.7-0.6,1.6-0.9,2.6-0.9c1.1,0,2.1,0.4,2.8,1.1
				s1.1,1.8,1.1,3.1c0,1.1-0.2,1.9-0.5,2.5s-0.8,1.1-1.4,1.4s-1.3,0.5-2,0.5c-1.2,0-2.1-0.4-2.8-1.1S72.4,73.8,72.4,72.4z
				 M73.8,72.4c0,1.1,0.2,1.9,0.7,2.4s1,0.8,1.8,0.8c0.7,0,1.3-0.3,1.7-0.8s0.7-1.3,0.7-2.4c0-1-0.2-1.8-0.7-2.3s-1-0.8-1.7-0.8
				c-0.7,0-1.3,0.3-1.8,0.8S73.8,71.3,73.8,72.4z"/>
			<path id="XMLID_2846_" class="st1" d="M81.5,77.2l1.4,0.2c0.1,0.4,0.2,0.7,0.5,0.9c0.3,0.3,0.8,0.4,1.4,0.4
				c0.7,0,1.2-0.1,1.5-0.4s0.6-0.6,0.7-1.1c0.1-0.3,0.1-0.9,0.1-1.8c-0.6,0.7-1.4,1.1-2.3,1.1c-1.1,0-2-0.4-2.6-1.2s-0.9-1.8-0.9-3
				c0-0.8,0.1-1.5,0.4-2.2s0.7-1.2,1.2-1.6s1.2-0.5,1.9-0.5c1,0,1.8,0.4,2.4,1.2v-1h1.3v7.2c0,1.3-0.1,2.2-0.4,2.7s-0.7,1-1.3,1.3
				s-1.3,0.5-2.1,0.5c-1,0-1.8-0.2-2.4-0.7S81.5,78.1,81.5,77.2z M82.7,72.2c0,1.1,0.2,1.9,0.6,2.4s1,0.8,1.6,0.8
				c0.6,0,1.2-0.2,1.6-0.7s0.7-1.3,0.7-2.3c0-1-0.2-1.8-0.7-2.3s-1-0.8-1.6-0.8c-0.6,0-1.2,0.3-1.6,0.8S82.7,71.2,82.7,72.2z"/>
			<path id="XMLID_2844_" class="st1" d="M90.7,76.5v-8.3H92v1.3c0.3-0.6,0.6-1,0.9-1.2s0.6-0.3,0.9-0.3c0.5,0,1,0.2,1.4,0.5
				l-0.5,1.3c-0.3-0.2-0.7-0.3-1-0.3c-0.3,0-0.6,0.1-0.8,0.3s-0.4,0.4-0.5,0.8c-0.2,0.5-0.2,1-0.2,1.6v4.3H90.7z"/>
			<path id="XMLID_2841_" class="st1" d="M101.4,75.5c-0.5,0.4-1,0.8-1.5,0.9s-1,0.3-1.6,0.3c-0.9,0-1.6-0.2-2.1-0.7s-0.7-1-0.7-1.7
				c0-0.4,0.1-0.8,0.3-1.1s0.4-0.6,0.7-0.8s0.6-0.4,1-0.5c0.3-0.1,0.7-0.1,1.3-0.2c1.1-0.1,2-0.3,2.5-0.5c0-0.2,0-0.3,0-0.4
				c0-0.6-0.1-1-0.4-1.2c-0.4-0.3-0.9-0.5-1.6-0.5c-0.7,0-1.1,0.1-1.5,0.3s-0.5,0.6-0.7,1.2l-1.4-0.2c0.1-0.6,0.3-1.1,0.6-1.4
				s0.7-0.6,1.2-0.8s1.2-0.3,1.9-0.3c0.7,0,1.3,0.1,1.7,0.3s0.8,0.4,1,0.6s0.4,0.6,0.4,1c0,0.2,0.1,0.7,0.1,1.3v1.9
				c0,1.3,0,2.1,0.1,2.5s0.2,0.7,0.4,1h-1.5C101.6,76.2,101.5,75.9,101.4,75.5z M101.3,72.4c-0.5,0.2-1.3,0.4-2.3,0.5
				c-0.6,0.1-1,0.2-1.2,0.3s-0.4,0.3-0.6,0.5s-0.2,0.4-0.2,0.7c0,0.4,0.1,0.7,0.4,0.9s0.7,0.4,1.2,0.4c0.5,0,1-0.1,1.4-0.4
				s0.7-0.6,0.9-1c0.2-0.3,0.2-0.8,0.2-1.4V72.4z"/>
			<path id="XMLID_2839_" class="st1" d="M104.9,76.5v-8.3h1.3v1.2c0.3-0.4,0.6-0.7,1-1s0.9-0.4,1.5-0.4c0.6,0,1.1,0.1,1.5,0.4
				s0.7,0.6,0.8,1.1c0.7-1,1.5-1.5,2.6-1.5c0.8,0,1.5,0.2,1.9,0.7s0.7,1.2,0.7,2.1v5.7h-1.4v-5.2c0-0.6,0-1-0.1-1.2
				s-0.3-0.4-0.5-0.6s-0.5-0.2-0.8-0.2c-0.6,0-1.1,0.2-1.5,0.6s-0.6,1-0.6,1.9v4.8h-1.4v-5.4c0-0.6-0.1-1.1-0.3-1.4
				s-0.6-0.5-1.1-0.5c-0.4,0-0.8,0.1-1.1,0.3s-0.6,0.5-0.7,0.9s-0.2,1-0.2,1.7v4.3H104.9z"/>
			<path id="XMLID_2836_" class="st1" d="M123.7,75.5c-0.5,0.4-1,0.8-1.5,0.9s-1,0.3-1.6,0.3c-0.9,0-1.6-0.2-2.1-0.7s-0.7-1-0.7-1.7
				c0-0.4,0.1-0.8,0.3-1.1s0.4-0.6,0.7-0.8s0.6-0.4,1-0.5c0.3-0.1,0.7-0.1,1.3-0.2c1.1-0.1,2-0.3,2.5-0.5c0-0.2,0-0.3,0-0.4
				c0-0.6-0.1-1-0.4-1.2c-0.4-0.3-0.9-0.5-1.6-0.5c-0.7,0-1.1,0.1-1.5,0.3s-0.5,0.6-0.7,1.2l-1.4-0.2c0.1-0.6,0.3-1.1,0.6-1.4
				s0.7-0.6,1.2-0.8s1.2-0.3,1.9-0.3c0.7,0,1.3,0.1,1.7,0.3s0.8,0.4,1,0.6s0.4,0.6,0.4,1c0,0.2,0.1,0.7,0.1,1.3v1.9
				c0,1.3,0,2.1,0.1,2.5s0.2,0.7,0.4,1H124C123.8,76.2,123.7,75.9,123.7,75.5z M123.6,72.4c-0.5,0.2-1.3,0.4-2.3,0.5
				c-0.6,0.1-1,0.2-1.2,0.3s-0.4,0.3-0.6,0.5s-0.2,0.4-0.2,0.7c0,0.4,0.1,0.7,0.4,0.9s0.7,0.4,1.2,0.4c0.5,0,1-0.1,1.4-0.4
				s0.7-0.6,0.9-1c0.2-0.3,0.2-0.8,0.2-1.4V72.4z"/>
			<path id="XMLID_2833_" class="st1" d="M139.8,76.5v-1c-0.5,0.8-1.3,1.2-2.3,1.2c-0.7,0-1.3-0.2-1.8-0.5s-1-0.9-1.3-1.5
				s-0.5-1.4-0.5-2.3c0-0.8,0.1-1.6,0.4-2.3s0.7-1.2,1.2-1.6s1.2-0.5,1.9-0.5c0.5,0,0.9,0.1,1.3,0.3s0.7,0.5,1,0.8v-4.1h1.4v11.5
				H139.8z M135.4,72.4c0,1.1,0.2,1.9,0.7,2.4s1,0.8,1.6,0.8c0.6,0,1.1-0.3,1.6-0.8s0.6-1.3,0.6-2.3c0-1.1-0.2-2-0.7-2.5
				s-1-0.8-1.6-0.8c-0.6,0-1.1,0.3-1.6,0.8S135.4,71.3,135.4,72.4z"/>
			<path id="XMLID_2830_" class="st1" d="M149,73.9l1.5,0.2c-0.2,0.8-0.7,1.5-1.3,2s-1.4,0.7-2.4,0.7c-1.2,0-2.2-0.4-2.9-1.1
				s-1.1-1.8-1.1-3.1c0-1.4,0.4-2.5,1.1-3.3s1.7-1.2,2.8-1.2c1.1,0,2,0.4,2.7,1.1s1.1,1.8,1.1,3.2c0,0.1,0,0.2,0,0.4h-6.2
				c0.1,0.9,0.3,1.6,0.8,2.1s1,0.7,1.7,0.7c0.5,0,1-0.1,1.3-0.4S148.8,74.5,149,73.9z M144.4,71.6h4.6c-0.1-0.7-0.2-1.2-0.5-1.6
				c-0.4-0.5-1-0.8-1.7-0.8c-0.6,0-1.2,0.2-1.6,0.6S144.4,70.9,144.4,71.6z"/>
			<path id="XMLID_2827_" class="st1" d="M153.5,76.5h-1.3V65.1h1.4v4.1c0.6-0.7,1.4-1.1,2.3-1.1c0.5,0,1,0.1,1.4,0.3
				s0.8,0.5,1.1,0.9s0.5,0.8,0.7,1.3s0.3,1.1,0.3,1.7c0,1.4-0.4,2.5-1.1,3.3s-1.5,1.2-2.5,1.2c-1,0-1.7-0.4-2.3-1.2V76.5z
				 M153.5,72.3c0,1,0.1,1.7,0.4,2.2c0.4,0.7,1,1.1,1.8,1.1c0.6,0,1.1-0.3,1.6-0.8s0.7-1.3,0.7-2.4c0-1.1-0.2-1.9-0.6-2.4
				s-0.9-0.8-1.6-0.8c-0.6,0-1.1,0.3-1.6,0.8S153.5,71.3,153.5,72.3z"/>
			<path id="XMLID_2824_" class="st1" d="M166.8,73.9l1.5,0.2c-0.2,0.8-0.7,1.5-1.3,2s-1.4,0.7-2.4,0.7c-1.2,0-2.2-0.4-2.9-1.1
				s-1.1-1.8-1.1-3.1c0-1.4,0.4-2.5,1.1-3.3s1.7-1.2,2.8-1.2c1.1,0,2,0.4,2.7,1.1s1.1,1.8,1.1,3.2c0,0.1,0,0.2,0,0.4h-6.2
				c0.1,0.9,0.3,1.6,0.8,2.1s1,0.7,1.7,0.7c0.5,0,1-0.1,1.3-0.4S166.6,74.5,166.8,73.9z M162.2,71.6h4.6c-0.1-0.7-0.2-1.2-0.5-1.6
				c-0.4-0.5-1-0.8-1.7-0.8c-0.6,0-1.2,0.2-1.6,0.6S162.2,70.9,162.2,71.6z"/>
			<path id="XMLID_2821_" class="st1" d="M177.3,79.7V68.2h1.3v1.1c0.3-0.4,0.6-0.7,1-0.9s0.8-0.3,1.4-0.3c0.7,0,1.3,0.2,1.9,0.5
				s1,0.9,1.2,1.5s0.4,1.4,0.4,2.2c0,0.8-0.2,1.6-0.5,2.3s-0.7,1.2-1.3,1.6s-1.2,0.5-1.8,0.5c-0.5,0-0.9-0.1-1.3-0.3
				s-0.7-0.4-0.9-0.8v4H177.3z M178.5,72.4c0,1.1,0.2,1.9,0.6,2.4s1,0.8,1.6,0.8c0.6,0,1.2-0.3,1.6-0.8s0.7-1.3,0.7-2.5
				c0-1.1-0.2-1.8-0.7-2.4s-1-0.8-1.6-0.8c-0.6,0-1.1,0.3-1.6,0.8S178.5,71.4,178.5,72.4z"/>
			<path id="XMLID_2818_" class="st1" d="M191.6,75.5c-0.5,0.4-1,0.8-1.5,0.9s-1,0.3-1.6,0.3c-0.9,0-1.6-0.2-2.1-0.7s-0.7-1-0.7-1.7
				c0-0.4,0.1-0.8,0.3-1.1s0.4-0.6,0.7-0.8s0.6-0.4,1-0.5c0.3-0.1,0.7-0.1,1.3-0.2c1.1-0.1,2-0.3,2.5-0.5c0-0.2,0-0.3,0-0.4
				c0-0.6-0.1-1-0.4-1.2c-0.4-0.3-0.9-0.5-1.6-0.5c-0.7,0-1.1,0.1-1.5,0.3s-0.5,0.6-0.7,1.2l-1.4-0.2c0.1-0.6,0.3-1.1,0.6-1.4
				s0.7-0.6,1.2-0.8s1.2-0.3,1.9-0.3c0.7,0,1.3,0.1,1.7,0.3s0.8,0.4,1,0.6s0.4,0.6,0.4,1c0,0.2,0.1,0.7,0.1,1.3v1.9
				c0,1.3,0,2.1,0.1,2.5s0.2,0.7,0.4,1h-1.5C191.7,76.2,191.6,75.9,191.6,75.5z M191.5,72.4c-0.5,0.2-1.3,0.4-2.3,0.5
				c-0.6,0.1-1,0.2-1.2,0.3s-0.4,0.3-0.6,0.5s-0.2,0.4-0.2,0.7c0,0.4,0.1,0.7,0.4,0.9s0.7,0.4,1.2,0.4c0.5,0,1-0.1,1.4-0.4
				s0.7-0.6,0.9-1c0.2-0.3,0.2-0.8,0.2-1.4V72.4z"/>
			<path id="XMLID_2816_" class="st1" d="M194.5,74.1l1.4-0.2c0.1,0.6,0.3,1,0.7,1.3s0.9,0.4,1.5,0.4c0.6,0,1.1-0.1,1.4-0.4
				s0.5-0.6,0.5-0.9c0-0.3-0.1-0.6-0.4-0.8c-0.2-0.1-0.7-0.3-1.4-0.5c-1-0.3-1.7-0.5-2.1-0.7s-0.7-0.5-0.9-0.8s-0.3-0.7-0.3-1.1
				c0-0.4,0.1-0.7,0.3-1s0.4-0.6,0.7-0.8c0.2-0.2,0.5-0.3,0.9-0.4s0.8-0.2,1.2-0.2c0.7,0,1.2,0.1,1.7,0.3s0.9,0.4,1.1,0.8
				s0.4,0.7,0.5,1.3l-1.4,0.2c-0.1-0.4-0.2-0.8-0.5-1s-0.7-0.4-1.3-0.4c-0.6,0-1.1,0.1-1.4,0.3s-0.4,0.5-0.4,0.8
				c0,0.2,0.1,0.3,0.2,0.5c0.1,0.2,0.3,0.3,0.5,0.4c0.1,0.1,0.6,0.2,1.2,0.4c1,0.3,1.7,0.5,2.1,0.7s0.7,0.4,0.9,0.7s0.3,0.7,0.3,1.2
				c0,0.5-0.1,0.9-0.4,1.3s-0.7,0.7-1.2,1s-1.1,0.3-1.8,0.3c-1.1,0-1.9-0.2-2.5-0.7S194.7,74.9,194.5,74.1z"/>
			<path id="XMLID_2813_" class="st1" d="M208.5,75.5c-0.5,0.4-1,0.8-1.5,0.9s-1,0.3-1.6,0.3c-0.9,0-1.6-0.2-2.1-0.7s-0.7-1-0.7-1.7
				c0-0.4,0.1-0.8,0.3-1.1s0.4-0.6,0.7-0.8s0.6-0.4,1-0.5c0.3-0.1,0.7-0.1,1.3-0.2c1.1-0.1,2-0.3,2.5-0.5c0-0.2,0-0.3,0-0.4
				c0-0.6-0.1-1-0.4-1.2c-0.4-0.3-0.9-0.5-1.6-0.5c-0.7,0-1.1,0.1-1.5,0.3s-0.5,0.6-0.7,1.2l-1.4-0.2c0.1-0.6,0.3-1.1,0.6-1.4
				s0.7-0.6,1.2-0.8s1.2-0.3,1.9-0.3c0.7,0,1.3,0.1,1.7,0.3s0.8,0.4,1,0.6s0.4,0.6,0.4,1c0,0.2,0.1,0.7,0.1,1.3v1.9
				c0,1.3,0,2.1,0.1,2.5s0.2,0.7,0.4,1h-1.5C208.6,76.2,208.5,75.9,208.5,75.5z M208.4,72.4c-0.5,0.2-1.3,0.4-2.3,0.5
				c-0.6,0.1-1,0.2-1.2,0.3s-0.4,0.3-0.6,0.5s-0.2,0.4-0.2,0.7c0,0.4,0.1,0.7,0.4,0.9s0.7,0.4,1.2,0.4c0.5,0,1-0.1,1.4-0.4
				s0.7-0.6,0.9-1c0.2-0.3,0.2-0.8,0.2-1.4V72.4z"/>
			<path id="XMLID_2811_" class="st1" d="M212,76.5v-8.3h1.3v1.3c0.3-0.6,0.6-1,0.9-1.2s0.6-0.3,0.9-0.3c0.5,0,1,0.2,1.4,0.5
				l-0.5,1.3c-0.3-0.2-0.7-0.3-1-0.3c-0.3,0-0.6,0.1-0.8,0.3s-0.4,0.4-0.5,0.8c-0.2,0.5-0.2,1-0.2,1.6v4.3H212z"/>
			<path id="XMLID_2808_" class="st1" d="M224.6,79.7V68.2h1.3v1.1c0.3-0.4,0.6-0.7,1-0.9s0.8-0.3,1.4-0.3c0.7,0,1.3,0.2,1.9,0.5
				s1,0.9,1.2,1.5s0.4,1.4,0.4,2.2c0,0.8-0.2,1.6-0.5,2.3s-0.7,1.2-1.3,1.6s-1.2,0.5-1.8,0.5c-0.5,0-0.9-0.1-1.3-0.3
				s-0.7-0.4-0.9-0.8v4H224.6z M225.8,72.4c0,1.1,0.2,1.9,0.6,2.4s1,0.8,1.6,0.8c0.6,0,1.2-0.3,1.6-0.8s0.7-1.3,0.7-2.5
				c0-1.1-0.2-1.8-0.7-2.4s-1-0.8-1.6-0.8c-0.6,0-1.1,0.3-1.6,0.8S225.8,71.4,225.8,72.4z"/>
			<path id="XMLID_2805_" class="st1" d="M232.9,72.4c0-1.5,0.4-2.7,1.3-3.4c0.7-0.6,1.6-0.9,2.6-0.9c1.1,0,2.1,0.4,2.8,1.1
				s1.1,1.8,1.1,3.1c0,1.1-0.2,1.9-0.5,2.5s-0.8,1.1-1.4,1.4s-1.3,0.5-2,0.5c-1.2,0-2.1-0.4-2.8-1.1S232.9,73.8,232.9,72.4z
				 M234.4,72.4c0,1.1,0.2,1.9,0.7,2.4s1,0.8,1.8,0.8c0.7,0,1.3-0.3,1.7-0.8s0.7-1.3,0.7-2.4c0-1-0.2-1.8-0.7-2.3s-1-0.8-1.7-0.8
				c-0.7,0-1.3,0.3-1.8,0.8S234.4,71.3,234.4,72.4z"/>
			<path id="XMLID_2803_" class="st1" d="M242.3,76.5v-8.3h1.3v1.3c0.3-0.6,0.6-1,0.9-1.2s0.6-0.3,0.9-0.3c0.5,0,1,0.2,1.4,0.5
				l-0.5,1.3c-0.3-0.2-0.7-0.3-1-0.3c-0.3,0-0.6,0.1-0.8,0.3s-0.4,0.4-0.5,0.8c-0.2,0.5-0.2,1-0.2,1.6v4.3H242.3z"/>
			<path id="XMLID_2801_" class="st1" d="M260.4,76.5v-1.2c-0.6,0.9-1.5,1.4-2.6,1.4c-0.5,0-0.9-0.1-1.4-0.3s-0.7-0.4-0.9-0.7
				s-0.4-0.6-0.4-1c-0.1-0.3-0.1-0.7-0.1-1.3v-5.1h1.4v4.6c0,0.7,0,1.2,0.1,1.5c0.1,0.4,0.3,0.7,0.6,0.9s0.6,0.3,1.1,0.3
				s0.8-0.1,1.2-0.3s0.6-0.5,0.8-0.9s0.2-0.9,0.2-1.6v-4.4h1.4v8.3H260.4z"/>
			<path id="XMLID_2799_" class="st1" d="M263.8,76.5v-8.3h1.3v1.2c0.6-0.9,1.5-1.4,2.6-1.4c0.5,0,1,0.1,1.4,0.3s0.7,0.4,0.9,0.7
				s0.4,0.6,0.4,1c0.1,0.3,0.1,0.7,0.1,1.4v5.1h-1.4v-5c0-0.6-0.1-1-0.2-1.3s-0.3-0.5-0.6-0.7s-0.6-0.3-1-0.3
				c-0.6,0-1.1,0.2-1.6,0.6s-0.7,1.1-0.7,2.2v4.5H263.8z"/>
			<path id="XMLID_2796_" class="st1" d="M58.7,98.9V87.4H60v1.1c0.3-0.4,0.6-0.7,1-0.9s0.8-0.3,1.4-0.3c0.7,0,1.3,0.2,1.9,0.5
				s1,0.9,1.2,1.5s0.4,1.4,0.4,2.2c0,0.8-0.2,1.6-0.5,2.3s-0.7,1.2-1.3,1.6s-1.2,0.5-1.8,0.5c-0.5,0-0.9-0.1-1.3-0.3
				s-0.7-0.4-0.9-0.8v4H58.7z M60,91.6c0,1.1,0.2,1.9,0.6,2.4s1,0.8,1.6,0.8c0.6,0,1.2-0.3,1.6-0.8s0.7-1.3,0.7-2.5
				c0-1.1-0.2-1.8-0.7-2.4s-1-0.8-1.6-0.8c-0.6,0-1.1,0.3-1.6,0.8S60,90.6,60,91.6z"/>
			<path id="XMLID_2794_" class="st1" d="M67.6,95.7v-8.3h1.3v1.3c0.3-0.6,0.6-1,0.9-1.2s0.6-0.3,0.9-0.3c0.5,0,1,0.2,1.4,0.5
				L71.6,89c-0.3-0.2-0.7-0.3-1-0.3c-0.3,0-0.6,0.1-0.8,0.3s-0.4,0.4-0.5,0.8c-0.2,0.5-0.2,1-0.2,1.6v4.3H67.6z"/>
			<path id="XMLID_2791_" class="st1" d="M72.4,91.6c0-1.5,0.4-2.7,1.3-3.4c0.7-0.6,1.6-0.9,2.6-0.9c1.1,0,2.1,0.4,2.8,1.1
				s1.1,1.8,1.1,3.1c0,1.1-0.2,1.9-0.5,2.5s-0.8,1.1-1.4,1.4s-1.3,0.5-2,0.5c-1.2,0-2.1-0.4-2.8-1.1S72.4,93,72.4,91.6z M73.8,91.6
				c0,1.1,0.2,1.9,0.7,2.4s1,0.8,1.8,0.8c0.7,0,1.3-0.3,1.7-0.8s0.7-1.3,0.7-2.4c0-1-0.2-1.8-0.7-2.3s-1-0.8-1.7-0.8
				c-0.7,0-1.3,0.3-1.8,0.8S73.8,90.5,73.8,91.6z"/>
			<path id="XMLID_2789_" class="st1" d="M87.2,92.7l1.4,0.2c-0.2,1-0.5,1.7-1.2,2.2s-1.4,0.8-2.3,0.8c-1.1,0-2-0.4-2.7-1.1
				s-1-1.8-1-3.2c0-0.9,0.1-1.7,0.4-2.4s0.7-1.2,1.4-1.5s1.3-0.5,2-0.5c0.9,0,1.6,0.2,2.2,0.7s0.9,1.1,1.1,1.9l-1.4,0.2
				c-0.1-0.6-0.4-1-0.7-1.3s-0.7-0.4-1.2-0.4c-0.7,0-1.3,0.3-1.7,0.8s-0.7,1.3-0.7,2.4c0,1.1,0.2,1.9,0.6,2.4s1,0.8,1.7,0.8
				c0.6,0,1-0.2,1.4-0.5S87.1,93.4,87.2,92.7z"/>
			<path id="XMLID_2786_" class="st1" d="M95.5,93.1l1.5,0.2c-0.2,0.8-0.7,1.5-1.3,2s-1.4,0.7-2.4,0.7c-1.2,0-2.2-0.4-2.9-1.1
				s-1.1-1.8-1.1-3.1c0-1.4,0.4-2.5,1.1-3.3s1.7-1.2,2.8-1.2c1.1,0,2,0.4,2.7,1.1s1.1,1.8,1.1,3.2c0,0.1,0,0.2,0,0.4h-6.2
				c0.1,0.9,0.3,1.6,0.8,2.1s1,0.7,1.7,0.7c0.5,0,1-0.1,1.3-0.4S95.3,93.7,95.5,93.1z M90.9,90.8h4.6c-0.1-0.7-0.2-1.2-0.5-1.6
				c-0.4-0.5-1-0.8-1.7-0.8c-0.6,0-1.2,0.2-1.6,0.6S90.9,90.1,90.9,90.8z"/>
			<path id="XMLID_2784_" class="st1" d="M98.1,93.3l1.4-0.2c0.1,0.6,0.3,1,0.7,1.3s0.9,0.4,1.5,0.4c0.6,0,1.1-0.1,1.4-0.4
				s0.5-0.6,0.5-0.9c0-0.3-0.1-0.6-0.4-0.8c-0.2-0.1-0.7-0.3-1.4-0.5c-1-0.3-1.7-0.5-2.1-0.7s-0.7-0.5-0.9-0.8s-0.3-0.7-0.3-1.1
				c0-0.4,0.1-0.7,0.3-1s0.4-0.6,0.7-0.8c0.2-0.2,0.5-0.3,0.9-0.4s0.8-0.2,1.2-0.2c0.7,0,1.2,0.1,1.7,0.3s0.9,0.4,1.1,0.8
				s0.4,0.7,0.5,1.3l-1.4,0.2c-0.1-0.4-0.2-0.8-0.5-1s-0.7-0.4-1.3-0.4c-0.6,0-1.1,0.1-1.4,0.3s-0.4,0.5-0.4,0.8
				c0,0.2,0.1,0.3,0.2,0.5c0.1,0.2,0.3,0.3,0.5,0.4c0.1,0.1,0.6,0.2,1.2,0.4c1,0.3,1.7,0.5,2.1,0.7s0.7,0.4,0.9,0.7s0.3,0.7,0.3,1.2
				c0,0.5-0.1,0.9-0.4,1.3s-0.7,0.7-1.2,1s-1.1,0.3-1.8,0.3c-1.1,0-1.9-0.2-2.5-0.7S98.3,94.1,98.1,93.3z"/>
			<path id="XMLID_2781_" class="st1" d="M106.2,91.6c0-1.5,0.4-2.7,1.3-3.4c0.7-0.6,1.6-0.9,2.6-0.9c1.1,0,2.1,0.4,2.8,1.1
				s1.1,1.8,1.1,3.1c0,1.1-0.2,1.9-0.5,2.5s-0.8,1.1-1.4,1.4s-1.3,0.5-2,0.5c-1.2,0-2.1-0.4-2.8-1.1S106.2,93,106.2,91.6z
				 M107.6,91.6c0,1.1,0.2,1.9,0.7,2.4s1,0.8,1.8,0.8c0.7,0,1.3-0.3,1.7-0.8s0.7-1.3,0.7-2.4c0-1-0.2-1.8-0.7-2.3s-1-0.8-1.7-0.8
				c-0.7,0-1.3,0.3-1.8,0.8S107.6,90.5,107.6,91.6z"/>
			<path id="XMLID_2778_" class="st1" d="M140.7,95.7v-1c-0.5,0.8-1.3,1.2-2.3,1.2c-0.7,0-1.3-0.2-1.8-0.5s-1-0.9-1.3-1.5
				s-0.5-1.4-0.5-2.3c0-0.8,0.1-1.6,0.4-2.3s0.7-1.2,1.2-1.6s1.2-0.5,1.9-0.5c0.5,0,0.9,0.1,1.3,0.3s0.7,0.5,1,0.8v-4.1h1.4v11.5
				H140.7z M136.3,91.6c0,1.1,0.2,1.9,0.7,2.4s1,0.8,1.6,0.8c0.6,0,1.1-0.3,1.6-0.8s0.6-1.3,0.6-2.3c0-1.1-0.2-2-0.7-2.5
				s-1-0.8-1.6-0.8c-0.6,0-1.1,0.3-1.6,0.8S136.3,90.5,136.3,91.6z"/>
			<path id="XMLID_2775_" class="st1" d="M149.9,93.1l1.5,0.2c-0.2,0.8-0.7,1.5-1.3,2s-1.4,0.7-2.4,0.7c-1.2,0-2.2-0.4-2.9-1.1
				s-1.1-1.8-1.1-3.1c0-1.4,0.4-2.5,1.1-3.3s1.7-1.2,2.8-1.2c1.1,0,2,0.4,2.7,1.1s1.1,1.8,1.1,3.2c0,0.1,0,0.2,0,0.4h-6.2
				c0.1,0.9,0.3,1.6,0.8,2.1s1,0.7,1.7,0.7c0.5,0,1-0.1,1.3-0.4S149.7,93.7,149.9,93.1z M145.3,90.8h4.6c-0.1-0.7-0.2-1.2-0.5-1.6
				c-0.4-0.5-1-0.8-1.7-0.8c-0.6,0-1.2,0.2-1.6,0.6S145.4,90.1,145.3,90.8z"/>
			<path id="XMLID_2773_" class="st1" d="M175.2,95.7l-3.2-8.3h1.5l1.8,5c0.2,0.5,0.4,1.1,0.5,1.7c0.1-0.4,0.3-1,0.5-1.6l1.8-5.1
				h1.4l-3.1,8.3H175.2z"/>
			<path id="XMLID_2770_" class="st1" d="M186.3,94.7c-0.5,0.4-1,0.8-1.5,0.9s-1,0.3-1.6,0.3c-0.9,0-1.6-0.2-2.1-0.7s-0.7-1-0.7-1.7
				c0-0.4,0.1-0.8,0.3-1.1s0.4-0.6,0.7-0.8s0.6-0.4,1-0.5c0.3-0.1,0.7-0.1,1.3-0.2c1.1-0.1,2-0.3,2.5-0.5c0-0.2,0-0.3,0-0.4
				c0-0.6-0.1-1-0.4-1.2c-0.4-0.3-0.9-0.5-1.6-0.5c-0.7,0-1.1,0.1-1.5,0.3s-0.5,0.6-0.7,1.2l-1.4-0.2c0.1-0.6,0.3-1.1,0.6-1.4
				s0.7-0.6,1.2-0.8s1.2-0.3,1.9-0.3c0.7,0,1.3,0.1,1.7,0.3s0.8,0.4,1,0.6s0.4,0.6,0.4,1c0,0.2,0.1,0.7,0.1,1.3v1.9
				c0,1.3,0,2.1,0.1,2.5s0.2,0.7,0.4,1h-1.5C186.5,95.4,186.4,95.1,186.3,94.7z M186.2,91.6c-0.5,0.2-1.3,0.4-2.3,0.5
				c-0.6,0.1-1,0.2-1.2,0.3s-0.4,0.3-0.6,0.5s-0.2,0.4-0.2,0.7c0,0.4,0.1,0.7,0.4,0.9s0.7,0.4,1.2,0.4c0.5,0,1-0.1,1.4-0.4
				s0.7-0.6,0.9-1c0.2-0.3,0.2-0.8,0.2-1.4V91.6z"/>
			<path id="XMLID_2768_" class="st1" d="M189.8,95.7V84.3h1.4v11.5H189.8z"/>
			<path id="XMLID_2765_" class="st1" d="M193.4,85.9v-1.6h1.4v1.6H193.4z M193.4,95.7v-8.3h1.4v8.3H193.4z"/>
			<path id="XMLID_2762_" class="st1" d="M202.3,95.7v-1c-0.5,0.8-1.3,1.2-2.3,1.2c-0.7,0-1.3-0.2-1.8-0.5s-1-0.9-1.3-1.5
				s-0.5-1.4-0.5-2.3c0-0.8,0.1-1.6,0.4-2.3s0.7-1.2,1.2-1.6s1.2-0.5,1.9-0.5c0.5,0,0.9,0.1,1.3,0.3s0.7,0.5,1,0.8v-4.1h1.4v11.5
				H202.3z M197.9,91.6c0,1.1,0.2,1.9,0.7,2.4s1,0.8,1.6,0.8c0.6,0,1.1-0.3,1.6-0.8s0.6-1.3,0.6-2.3c0-1.1-0.2-2-0.7-2.5
				s-1-0.8-1.6-0.8c-0.6,0-1.1,0.3-1.6,0.8S197.9,90.5,197.9,91.6z"/>
			<path id="XMLID_2759_" class="st1" d="M211.2,94.7c-0.5,0.4-1,0.8-1.5,0.9s-1,0.3-1.6,0.3c-0.9,0-1.6-0.2-2.1-0.7s-0.7-1-0.7-1.7
				c0-0.4,0.1-0.8,0.3-1.1s0.4-0.6,0.7-0.8s0.6-0.4,1-0.5c0.3-0.1,0.7-0.1,1.3-0.2c1.1-0.1,2-0.3,2.5-0.5c0-0.2,0-0.3,0-0.4
				c0-0.6-0.1-1-0.4-1.2c-0.4-0.3-0.9-0.5-1.6-0.5c-0.7,0-1.1,0.1-1.5,0.3s-0.5,0.6-0.7,1.2l-1.4-0.2c0.1-0.6,0.3-1.1,0.6-1.4
				s0.7-0.6,1.2-0.8s1.2-0.3,1.9-0.3c0.7,0,1.3,0.1,1.7,0.3s0.8,0.4,1,0.6s0.4,0.6,0.4,1c0,0.2,0.1,0.7,0.1,1.3v1.9
				c0,1.3,0,2.1,0.1,2.5s0.2,0.7,0.4,1h-1.5C211.4,95.4,211.3,95.1,211.2,94.7z M211.1,91.6c-0.5,0.2-1.3,0.4-2.3,0.5
				c-0.6,0.1-1,0.2-1.2,0.3s-0.4,0.3-0.6,0.5s-0.2,0.4-0.2,0.7c0,0.4,0.1,0.7,0.4,0.9s0.7,0.4,1.2,0.4c0.5,0,1-0.1,1.4-0.4
				s0.7-0.6,0.9-1c0.2-0.3,0.2-0.8,0.2-1.4V91.6z"/>
			<path id="XMLID_2757_" class="st1" d="M220.1,92.7l1.4,0.2c-0.2,1-0.5,1.7-1.2,2.2s-1.4,0.8-2.3,0.8c-1.1,0-2-0.4-2.7-1.1
				s-1-1.8-1-3.2c0-0.9,0.1-1.7,0.4-2.4s0.7-1.2,1.4-1.5s1.3-0.5,2-0.5c0.9,0,1.6,0.2,2.2,0.7s0.9,1.1,1.1,1.9l-1.4,0.2
				c-0.1-0.6-0.4-1-0.7-1.3s-0.7-0.4-1.2-0.4c-0.7,0-1.3,0.3-1.7,0.8s-0.7,1.3-0.7,2.4c0,1.1,0.2,1.9,0.6,2.4s1,0.8,1.7,0.8
				c0.6,0,1-0.2,1.4-0.5S220,93.4,220.1,92.7z"/>
			<path id="XMLID_2754_" class="st1" d="M222.7,85.9v-1.6h1.4v1.6H222.7z M222.7,95.7v-8.3h1.4v8.3H222.7z"/>
			<path id="XMLID_2750_" class="st1" d="M225.8,91.6c0-1.5,0.4-2.7,1.3-3.4c0.7-0.6,1.6-0.9,2.6-0.9c1.1,0,2.1,0.4,2.8,1.1
				s1.1,1.8,1.1,3.1c0,1.1-0.2,1.9-0.5,2.5s-0.8,1.1-1.4,1.4s-1.3,0.5-2,0.5c-1.2,0-2.1-0.4-2.8-1.1S225.8,93,225.8,91.6z
				 M227.2,91.6c0,1.1,0.2,1.9,0.7,2.4s1,0.8,1.8,0.8c0.7,0,1.3-0.3,1.7-0.8s0.7-1.3,0.7-2.4c0-1-0.2-1.8-0.7-2.3s-1-0.8-1.7-0.8
				c-0.7,0-1.3,0.3-1.8,0.8S227.2,90.5,227.2,91.6z M228.9,86.4l1-2.2h1.8l-1.7,2.2H228.9z"/>
			<path id="XMLID_2748_" class="st1" d="M235.2,95.7v-8.3h1.3v1.2c0.6-0.9,1.5-1.4,2.6-1.4c0.5,0,1,0.1,1.4,0.3s0.7,0.4,0.9,0.7
				s0.4,0.6,0.4,1c0.1,0.3,0.1,0.7,0.1,1.4v5.1h-1.4v-5c0-0.6-0.1-1-0.2-1.3s-0.3-0.5-0.6-0.7s-0.6-0.3-1-0.3
				c-0.6,0-1.1,0.2-1.6,0.6s-0.7,1.1-0.7,2.2v4.5H235.2z"/>
			<path id="XMLID_2745_" class="st1" d="M263.3,91.6c0-1.5,0.4-2.7,1.3-3.4c0.7-0.6,1.6-0.9,2.6-0.9c1.1,0,2.1,0.4,2.8,1.1
				s1.1,1.8,1.1,3.1c0,1.1-0.2,1.9-0.5,2.5s-0.8,1.1-1.4,1.4s-1.3,0.5-2,0.5c-1.2,0-2.1-0.4-2.8-1.1S263.3,93,263.3,91.6z
				 M264.8,91.6c0,1.1,0.2,1.9,0.7,2.4s1,0.8,1.8,0.8c0.7,0,1.3-0.3,1.7-0.8s0.7-1.3,0.7-2.4c0-1-0.2-1.8-0.7-2.3s-1-0.8-1.7-0.8
				c-0.7,0-1.3,0.3-1.8,0.8S264.8,90.5,264.8,91.6z"/>
			<path id="XMLID_2742_" class="st1" d="M58.7,118.1v-11.5H60v1.1c0.3-0.4,0.6-0.7,1-0.9s0.8-0.3,1.4-0.3c0.7,0,1.3,0.2,1.9,0.5
				s1,0.9,1.2,1.5s0.4,1.4,0.4,2.2c0,0.8-0.2,1.6-0.5,2.3s-0.7,1.2-1.3,1.6s-1.2,0.5-1.8,0.5c-0.5,0-0.9-0.1-1.3-0.3
				s-0.7-0.4-0.9-0.8v4H58.7z M60,110.8c0,1.1,0.2,1.9,0.6,2.4s1,0.8,1.6,0.8c0.6,0,1.2-0.3,1.6-0.8s0.7-1.3,0.7-2.5
				c0-1.1-0.2-1.8-0.7-2.4s-1-0.8-1.6-0.8c-0.6,0-1.1,0.3-1.6,0.8S60,109.8,60,110.8z"/>
			<path id="XMLID_2740_" class="st1" d="M67.6,114.9v-8.3h1.3v1.3c0.3-0.6,0.6-1,0.9-1.2s0.6-0.3,0.9-0.3c0.5,0,1,0.2,1.4,0.5
				l-0.5,1.3c-0.3-0.2-0.7-0.3-1-0.3c-0.3,0-0.6,0.1-0.8,0.3s-0.4,0.4-0.5,0.8c-0.2,0.5-0.2,1-0.2,1.6v4.3H67.6z"/>
			<path id="XMLID_2738_" class="st1" d="M78.3,114.9v-1.2c-0.6,0.9-1.5,1.4-2.6,1.4c-0.5,0-0.9-0.1-1.4-0.3s-0.7-0.4-0.9-0.7
				s-0.4-0.6-0.4-1c-0.1-0.3-0.1-0.7-0.1-1.3v-5.1h1.4v4.6c0,0.7,0,1.2,0.1,1.5c0.1,0.4,0.3,0.7,0.6,0.9s0.6,0.3,1.1,0.3
				s0.8-0.1,1.2-0.3s0.6-0.5,0.8-0.9s0.2-0.9,0.2-1.6v-4.4h1.4v8.3H78.3z"/>
			<path id="XMLID_2735_" class="st1" d="M87.5,112.3l1.5,0.2c-0.2,0.8-0.7,1.5-1.3,2s-1.4,0.7-2.4,0.7c-1.2,0-2.2-0.4-2.9-1.1
				s-1.1-1.8-1.1-3.1c0-1.4,0.4-2.5,1.1-3.3s1.7-1.2,2.8-1.2c1.1,0,2,0.4,2.7,1.1s1.1,1.8,1.1,3.2c0,0.1,0,0.2,0,0.4h-6.2
				c0.1,0.9,0.3,1.6,0.8,2.1s1,0.7,1.7,0.7c0.5,0,1-0.1,1.3-0.4S87.3,112.9,87.5,112.3z M82.9,110h4.6c-0.1-0.7-0.2-1.2-0.5-1.6
				c-0.4-0.5-1-0.8-1.7-0.8c-0.6,0-1.2,0.2-1.6,0.6S82.9,109.3,82.9,110z"/>
			<path id="XMLID_2732_" class="st1" d="M92,114.9h-1.3v-11.5h1.4v4.1c0.6-0.7,1.4-1.1,2.3-1.1c0.5,0,1,0.1,1.4,0.3
				s0.8,0.5,1.1,0.9s0.5,0.8,0.7,1.3s0.3,1.1,0.3,1.7c0,1.4-0.4,2.5-1.1,3.3s-1.5,1.2-2.5,1.2c-1,0-1.7-0.4-2.3-1.2V114.9z
				 M92,110.7c0,1,0.1,1.7,0.4,2.2c0.4,0.7,1,1.1,1.8,1.1c0.6,0,1.1-0.3,1.6-0.8s0.7-1.3,0.7-2.4c0-1.1-0.2-1.9-0.6-2.4
				s-0.9-0.8-1.6-0.8c-0.6,0-1.1,0.3-1.6,0.8S92,109.7,92,110.7z"/>
			<path id="XMLID_2729_" class="st1" d="M105,113.9c-0.5,0.4-1,0.8-1.5,0.9s-1,0.3-1.6,0.3c-0.9,0-1.6-0.2-2.1-0.7s-0.7-1-0.7-1.7
				c0-0.4,0.1-0.8,0.3-1.1s0.4-0.6,0.7-0.8s0.6-0.4,1-0.5c0.3-0.1,0.7-0.1,1.3-0.2c1.1-0.1,2-0.3,2.5-0.5c0-0.2,0-0.3,0-0.4
				c0-0.6-0.1-1-0.4-1.2c-0.4-0.3-0.9-0.5-1.6-0.5c-0.7,0-1.1,0.1-1.5,0.3s-0.5,0.6-0.7,1.2l-1.4-0.2c0.1-0.6,0.3-1.1,0.6-1.4
				s0.7-0.6,1.2-0.8s1.2-0.3,1.9-0.3c0.7,0,1.3,0.1,1.7,0.3s0.8,0.4,1,0.6s0.4,0.6,0.4,1c0,0.2,0.1,0.7,0.1,1.3v1.9
				c0,1.3,0,2.1,0.1,2.5s0.2,0.7,0.4,1h-1.5C105.2,114.6,105.1,114.3,105,113.9z M104.9,110.8c-0.5,0.2-1.3,0.4-2.3,0.5
				c-0.6,0.1-1,0.2-1.2,0.3s-0.4,0.3-0.6,0.5s-0.2,0.4-0.2,0.7c0,0.4,0.1,0.7,0.4,0.9s0.7,0.4,1.2,0.4c0.5,0,1-0.1,1.4-0.4
				s0.7-0.6,0.9-1c0.2-0.3,0.2-0.8,0.2-1.4V110.8z"/>
			<path id="XMLID_2727_" class="st1" d="M121.2,114.9v-1.2c-0.6,0.9-1.5,1.4-2.6,1.4c-0.5,0-0.9-0.1-1.4-0.3s-0.7-0.4-0.9-0.7
				s-0.4-0.6-0.4-1c-0.1-0.3-0.1-0.7-0.1-1.3v-5.1h1.4v4.6c0,0.7,0,1.2,0.1,1.5c0.1,0.4,0.3,0.7,0.6,0.9s0.6,0.3,1.1,0.3
				s0.8-0.1,1.2-0.3s0.6-0.5,0.8-0.9s0.2-0.9,0.2-1.6v-4.4h1.4v8.3H121.2z"/>
			<path id="XMLID_2725_" class="st1" d="M124.7,114.9v-8.3h1.3v1.2c0.6-0.9,1.5-1.4,2.6-1.4c0.5,0,1,0.1,1.4,0.3s0.7,0.4,0.9,0.7
				s0.4,0.6,0.4,1c0.1,0.3,0.1,0.7,0.1,1.4v5.1H130v-5c0-0.6-0.1-1-0.2-1.3s-0.3-0.5-0.6-0.7s-0.6-0.3-1-0.3c-0.6,0-1.1,0.2-1.6,0.6
				s-0.7,1.1-0.7,2.2v4.5H124.7z"/>
			<path id="XMLID_2722_" class="st1" d="M133.6,105.1v-1.6h1.4v1.6H133.6z M133.6,114.9v-8.3h1.4v8.3H133.6z"/>
			<path id="XMLID_2720_" class="st1" d="M140.2,113.7l0.2,1.2c-0.4,0.1-0.8,0.1-1.1,0.1c-0.5,0-0.9-0.1-1.2-0.2s-0.5-0.4-0.6-0.6
				s-0.2-0.8-0.2-1.7v-4.8h-1v-1.1h1v-2.1l1.4-0.8v2.9h1.4v1.1h-1.4v4.9c0,0.4,0,0.7,0.1,0.8s0.1,0.2,0.2,0.3s0.3,0.1,0.5,0.1
				C139.8,113.7,140,113.7,140.2,113.7z"/>
			<path id="XMLID_2717_" class="st1" d="M147,113.9c-0.5,0.4-1,0.8-1.5,0.9s-1,0.3-1.6,0.3c-0.9,0-1.6-0.2-2.1-0.7s-0.7-1-0.7-1.7
				c0-0.4,0.1-0.8,0.3-1.1s0.4-0.6,0.7-0.8s0.6-0.4,1-0.5c0.3-0.1,0.7-0.1,1.3-0.2c1.1-0.1,2-0.3,2.5-0.5c0-0.2,0-0.3,0-0.4
				c0-0.6-0.1-1-0.4-1.2c-0.4-0.3-0.9-0.5-1.6-0.5c-0.7,0-1.1,0.1-1.5,0.3s-0.5,0.6-0.7,1.2l-1.4-0.2c0.1-0.6,0.3-1.1,0.6-1.4
				s0.7-0.6,1.2-0.8s1.2-0.3,1.9-0.3c0.7,0,1.3,0.1,1.7,0.3s0.8,0.4,1,0.6s0.4,0.6,0.4,1c0,0.2,0.1,0.7,0.1,1.3v1.9
				c0,1.3,0,2.1,0.1,2.5s0.2,0.7,0.4,1h-1.5C147.2,114.6,147.1,114.3,147,113.9z M146.9,110.8c-0.5,0.2-1.3,0.4-2.3,0.5
				c-0.6,0.1-1,0.2-1.2,0.3s-0.4,0.3-0.6,0.5s-0.2,0.4-0.2,0.7c0,0.4,0.1,0.7,0.4,0.9s0.7,0.4,1.2,0.4c0.5,0,1-0.1,1.4-0.4
				s0.7-0.6,0.9-1c0.2-0.3,0.2-0.8,0.2-1.4V110.8z"/>
			<path id="XMLID_2715_" class="st1" d="M150.5,114.9v-8.3h1.3v1.3c0.3-0.6,0.6-1,0.9-1.2s0.6-0.3,0.9-0.3c0.5,0,1,0.2,1.4,0.5
				l-0.5,1.3c-0.3-0.2-0.7-0.3-1-0.3c-0.3,0-0.6,0.1-0.8,0.3s-0.4,0.4-0.5,0.8c-0.2,0.5-0.2,1-0.2,1.6v4.3H150.5z"/>
			<path id="XMLID_2712_" class="st1" d="M155.8,105.1v-1.6h1.4v1.6H155.8z M155.8,114.9v-8.3h1.4v8.3H155.8z"/>
			<path id="XMLID_2709_" class="st1" d="M164.8,113.9c-0.5,0.4-1,0.8-1.5,0.9s-1,0.3-1.6,0.3c-0.9,0-1.6-0.2-2.1-0.7
				s-0.7-1-0.7-1.7c0-0.4,0.1-0.8,0.3-1.1s0.4-0.6,0.7-0.8s0.6-0.4,1-0.5c0.3-0.1,0.7-0.1,1.3-0.2c1.1-0.1,2-0.3,2.5-0.5
				c0-0.2,0-0.3,0-0.4c0-0.6-0.1-1-0.4-1.2c-0.4-0.3-0.9-0.5-1.6-0.5c-0.7,0-1.1,0.1-1.5,0.3s-0.5,0.6-0.7,1.2l-1.4-0.2
				c0.1-0.6,0.3-1.1,0.6-1.4s0.7-0.6,1.2-0.8s1.2-0.3,1.9-0.3c0.7,0,1.3,0.1,1.7,0.3s0.8,0.4,1,0.6s0.4,0.6,0.4,1
				c0,0.2,0.1,0.7,0.1,1.3v1.9c0,1.3,0,2.1,0.1,2.5s0.2,0.7,0.4,1h-1.5C164.9,114.6,164.8,114.3,164.8,113.9z M164.7,110.8
				c-0.5,0.2-1.3,0.4-2.3,0.5c-0.6,0.1-1,0.2-1.2,0.3s-0.4,0.3-0.6,0.5s-0.2,0.4-0.2,0.7c0,0.4,0.1,0.7,0.4,0.9s0.7,0.4,1.2,0.4
				c0.5,0,1-0.1,1.4-0.4s0.7-0.6,0.9-1c0.2-0.3,0.2-0.8,0.2-1.4V110.8z"/>
			<path id="XMLID_2706_" class="st1" d="M175.6,118.1v-11.5h1.3v1.1c0.3-0.4,0.6-0.7,1-0.9s0.8-0.3,1.4-0.3c0.7,0,1.3,0.2,1.9,0.5
				s1,0.9,1.2,1.5s0.4,1.4,0.4,2.2c0,0.8-0.2,1.6-0.5,2.3s-0.7,1.2-1.3,1.6s-1.2,0.5-1.8,0.5c-0.5,0-0.9-0.1-1.3-0.3
				s-0.7-0.4-0.9-0.8v4H175.6z M176.9,110.8c0,1.1,0.2,1.9,0.6,2.4s1,0.8,1.6,0.8c0.6,0,1.2-0.3,1.6-0.8s0.7-1.3,0.7-2.5
				c0-1.1-0.2-1.8-0.7-2.4s-1-0.8-1.6-0.8c-0.6,0-1.1,0.3-1.6,0.8S176.9,109.8,176.9,110.8z"/>
			<path id="XMLID_2703_" class="st1" d="M189.9,113.9c-0.5,0.4-1,0.8-1.5,0.9s-1,0.3-1.6,0.3c-0.9,0-1.6-0.2-2.1-0.7
				s-0.7-1-0.7-1.7c0-0.4,0.1-0.8,0.3-1.1s0.4-0.6,0.7-0.8s0.6-0.4,1-0.5c0.3-0.1,0.7-0.1,1.3-0.2c1.1-0.1,2-0.3,2.5-0.5
				c0-0.2,0-0.3,0-0.4c0-0.6-0.1-1-0.4-1.2c-0.4-0.3-0.9-0.5-1.6-0.5c-0.7,0-1.1,0.1-1.5,0.3s-0.5,0.6-0.7,1.2l-1.4-0.2
				c0.1-0.6,0.3-1.1,0.6-1.4s0.7-0.6,1.2-0.8s1.2-0.3,1.9-0.3c0.7,0,1.3,0.1,1.7,0.3s0.8,0.4,1,0.6s0.4,0.6,0.4,1
				c0,0.2,0.1,0.7,0.1,1.3v1.9c0,1.3,0,2.1,0.1,2.5s0.2,0.7,0.4,1h-1.5C190,114.6,190,114.3,189.9,113.9z M189.8,110.8
				c-0.5,0.2-1.3,0.4-2.3,0.5c-0.6,0.1-1,0.2-1.2,0.3s-0.4,0.3-0.6,0.5s-0.2,0.4-0.2,0.7c0,0.4,0.1,0.7,0.4,0.9s0.7,0.4,1.2,0.4
				c0.5,0,1-0.1,1.4-0.4s0.7-0.6,0.9-1c0.2-0.3,0.2-0.8,0.2-1.4V110.8z"/>
			<path id="XMLID_2701_" class="st1" d="M193.4,114.9v-8.3h1.3v1.3c0.3-0.6,0.6-1,0.9-1.2s0.6-0.3,0.9-0.3c0.5,0,1,0.2,1.4,0.5
				l-0.5,1.3c-0.3-0.2-0.7-0.3-1-0.3c-0.3,0-0.6,0.1-0.8,0.3s-0.4,0.4-0.5,0.8c-0.2,0.5-0.2,1-0.2,1.6v4.3H193.4z"/>
			<path id="XMLID_2698_" class="st1" d="M204.1,113.9c-0.5,0.4-1,0.8-1.5,0.9s-1,0.3-1.6,0.3c-0.9,0-1.6-0.2-2.1-0.7
				s-0.7-1-0.7-1.7c0-0.4,0.1-0.8,0.3-1.1s0.4-0.6,0.7-0.8s0.6-0.4,1-0.5c0.3-0.1,0.7-0.1,1.3-0.2c1.1-0.1,2-0.3,2.5-0.5
				c0-0.2,0-0.3,0-0.4c0-0.6-0.1-1-0.4-1.2c-0.4-0.3-0.9-0.5-1.6-0.5c-0.7,0-1.1,0.1-1.5,0.3s-0.5,0.6-0.7,1.2l-1.4-0.2
				c0.1-0.6,0.3-1.1,0.6-1.4s0.7-0.6,1.2-0.8s1.2-0.3,1.9-0.3c0.7,0,1.3,0.1,1.7,0.3s0.8,0.4,1,0.6s0.4,0.6,0.4,1
				c0,0.2,0.1,0.7,0.1,1.3v1.9c0,1.3,0,2.1,0.1,2.5s0.2,0.7,0.4,1h-1.5C204.3,114.6,204.2,114.3,204.1,113.9z M204,110.8
				c-0.5,0.2-1.3,0.4-2.3,0.5c-0.6,0.1-1,0.2-1.2,0.3s-0.4,0.3-0.6,0.5s-0.2,0.4-0.2,0.7c0,0.4,0.1,0.7,0.4,0.9s0.7,0.4,1.2,0.4
				c0.5,0,1-0.1,1.4-0.4s0.7-0.6,0.9-1c0.2-0.3,0.2-0.8,0.2-1.4V110.8z"/>
			<path id="XMLID_2695_" class="st1" d="M220.3,114.9v-1c-0.5,0.8-1.3,1.2-2.3,1.2c-0.7,0-1.3-0.2-1.8-0.5s-1-0.9-1.3-1.5
				s-0.5-1.4-0.5-2.3c0-0.8,0.1-1.6,0.4-2.3s0.7-1.2,1.2-1.6s1.2-0.5,1.9-0.5c0.5,0,0.9,0.1,1.3,0.3s0.7,0.5,1,0.8v-4.1h1.4v11.5
				H220.3z M215.9,110.8c0,1.1,0.2,1.9,0.7,2.4s1,0.8,1.6,0.8c0.6,0,1.1-0.3,1.6-0.8s0.6-1.3,0.6-2.3c0-1.1-0.2-2-0.7-2.5
				s-1-0.8-1.6-0.8c-0.6,0-1.1,0.3-1.6,0.8S215.9,109.7,215.9,110.8z"/>
			<path id="XMLID_2692_" class="st1" d="M229.5,112.3l1.5,0.2c-0.2,0.8-0.7,1.5-1.3,2s-1.4,0.7-2.4,0.7c-1.2,0-2.2-0.4-2.9-1.1
				s-1.1-1.8-1.1-3.1c0-1.4,0.4-2.5,1.1-3.3s1.7-1.2,2.8-1.2c1.1,0,2,0.4,2.7,1.1s1.1,1.8,1.1,3.2c0,0.1,0,0.2,0,0.4h-6.2
				c0.1,0.9,0.3,1.6,0.8,2.1s1,0.7,1.7,0.7c0.5,0,1-0.1,1.3-0.4S229.3,112.9,229.5,112.3z M224.9,110h4.6c-0.1-0.7-0.2-1.2-0.5-1.6
				c-0.4-0.5-1-0.8-1.7-0.8c-0.6,0-1.2,0.2-1.6,0.6S224.9,109.3,224.9,110z"/>
			<path id="XMLID_2690_" class="st1" d="M235.8,113.7l0.2,1.2c-0.4,0.1-0.8,0.1-1.1,0.1c-0.5,0-0.9-0.1-1.2-0.2s-0.5-0.4-0.6-0.6
				s-0.2-0.8-0.2-1.7v-4.8h-1v-1.1h1v-2.1l1.4-0.8v2.9h1.4v1.1h-1.4v4.9c0,0.4,0,0.7,0.1,0.8s0.1,0.2,0.2,0.3s0.3,0.1,0.5,0.1
				C235.3,113.7,235.5,113.7,235.8,113.7z"/>
			<path id="XMLID_2687_" class="st1" d="M242.8,112.3l1.5,0.2c-0.2,0.8-0.7,1.5-1.3,2s-1.4,0.7-2.4,0.7c-1.2,0-2.2-0.4-2.9-1.1
				s-1.1-1.8-1.1-3.1c0-1.4,0.4-2.5,1.1-3.3s1.7-1.2,2.8-1.2c1.1,0,2,0.4,2.7,1.1s1.1,1.8,1.1,3.2c0,0.1,0,0.2,0,0.4h-6.2
				c0.1,0.9,0.3,1.6,0.8,2.1s1,0.7,1.7,0.7c0.5,0,1-0.1,1.3-0.4S242.6,112.9,242.8,112.3z M238.2,110h4.6c-0.1-0.7-0.2-1.2-0.5-1.6
				c-0.4-0.5-1-0.8-1.7-0.8c-0.6,0-1.2,0.2-1.6,0.6S238.3,109.3,238.2,110z"/>
			<path id="XMLID_2685_" class="st1" d="M251.5,111.9l1.4,0.2c-0.2,1-0.5,1.7-1.2,2.2s-1.4,0.8-2.3,0.8c-1.1,0-2-0.4-2.7-1.1
				s-1-1.8-1-3.2c0-0.9,0.1-1.7,0.4-2.4s0.7-1.2,1.4-1.5s1.3-0.5,2-0.5c0.9,0,1.6,0.2,2.2,0.7s0.9,1.1,1.1,1.9l-1.4,0.2
				c-0.1-0.6-0.4-1-0.7-1.3s-0.7-0.4-1.2-0.4c-0.7,0-1.3,0.3-1.7,0.8s-0.7,1.3-0.7,2.4c0,1.1,0.2,1.9,0.6,2.4s1,0.8,1.7,0.8
				c0.6,0,1-0.2,1.4-0.5S251.4,112.6,251.5,111.9z"/>
			<path id="XMLID_2683_" class="st1" d="M257.1,113.7l0.2,1.2c-0.4,0.1-0.8,0.1-1.1,0.1c-0.5,0-0.9-0.1-1.2-0.2s-0.5-0.4-0.6-0.6
				s-0.2-0.8-0.2-1.7v-4.8h-1v-1.1h1v-2.1l1.4-0.8v2.9h1.4v1.1h-1.4v4.9c0,0.4,0,0.7,0.1,0.8s0.1,0.2,0.2,0.3s0.3,0.1,0.5,0.1
				C256.7,113.7,256.9,113.7,257.1,113.7z"/>
			<path id="XMLID_2680_" class="st1" d="M263.9,113.9c-0.5,0.4-1,0.8-1.5,0.9s-1,0.3-1.6,0.3c-0.9,0-1.6-0.2-2.1-0.7
				s-0.7-1-0.7-1.7c0-0.4,0.1-0.8,0.3-1.1s0.4-0.6,0.7-0.8s0.6-0.4,1-0.5c0.3-0.1,0.7-0.1,1.3-0.2c1.1-0.1,2-0.3,2.5-0.5
				c0-0.2,0-0.3,0-0.4c0-0.6-0.1-1-0.4-1.2c-0.4-0.3-0.9-0.5-1.6-0.5c-0.7,0-1.1,0.1-1.5,0.3s-0.5,0.6-0.7,1.2l-1.4-0.2
				c0.1-0.6,0.3-1.1,0.6-1.4s0.7-0.6,1.2-0.8s1.2-0.3,1.9-0.3c0.7,0,1.3,0.1,1.7,0.3s0.8,0.4,1,0.6s0.4,0.6,0.4,1
				c0,0.2,0.1,0.7,0.1,1.3v1.9c0,1.3,0,2.1,0.1,2.5s0.2,0.7,0.4,1h-1.5C264.1,114.6,264,114.3,263.9,113.9z M263.8,110.8
				c-0.5,0.2-1.3,0.4-2.3,0.5c-0.6,0.1-1,0.2-1.2,0.3s-0.4,0.3-0.6,0.5s-0.2,0.4-0.2,0.7c0,0.4,0.1,0.7,0.4,0.9s0.7,0.4,1.2,0.4
				c0.5,0,1-0.1,1.4-0.4s0.7-0.6,0.9-1c0.2-0.3,0.2-0.8,0.2-1.4V110.8z"/>
			<path id="XMLID_2678_" class="st1" d="M267.4,114.9v-8.3h1.3v1.3c0.3-0.6,0.6-1,0.9-1.2s0.6-0.3,0.9-0.3c0.5,0,1,0.2,1.4,0.5
				l-0.5,1.3c-0.3-0.2-0.7-0.3-1-0.3c-0.3,0-0.6,0.1-0.8,0.3s-0.4,0.4-0.5,0.8c-0.2,0.5-0.2,1-0.2,1.6v4.3H267.4z"/>
			<path id="XMLID_2675_" class="st1" d="M64.4,131.5l1.5,0.2c-0.2,0.8-0.7,1.5-1.3,2s-1.4,0.7-2.4,0.7c-1.2,0-2.2-0.4-2.9-1.1
				c-0.7-0.7-1.1-1.8-1.1-3.1c0-1.4,0.4-2.5,1.1-3.2c0.7-0.8,1.7-1.2,2.8-1.2c1.1,0,2,0.4,2.7,1.1c0.7,0.8,1.1,1.8,1.1,3.2
				c0,0.1,0,0.2,0,0.4h-6.2c0.1,0.9,0.3,1.6,0.8,2.1s1,0.7,1.7,0.7c0.5,0,1-0.1,1.3-0.4C63.9,132.5,64.1,132.1,64.4,131.5z
				 M59.7,129.2h4.6c-0.1-0.7-0.2-1.2-0.5-1.6c-0.4-0.5-1-0.8-1.7-0.8c-0.6,0-1.2,0.2-1.6,0.6C60,127.9,59.8,128.5,59.7,129.2z"/>
			<path id="XMLID_2673_" class="st1" d="M67.6,134.1v-8.3h1.3v1.3c0.3-0.6,0.6-1,0.9-1.2s0.6-0.3,0.9-0.3c0.5,0,1,0.2,1.4,0.5
				l-0.5,1.3c-0.3-0.2-0.7-0.3-1-0.3c-0.3,0-0.6,0.1-0.8,0.3c-0.2,0.2-0.4,0.4-0.5,0.8c-0.2,0.5-0.2,1-0.2,1.6v4.3H67.6z"/>
			<path id="XMLID_2671_" class="st1" d="M72.9,134.1v-8.3h1.3v1.3c0.3-0.6,0.6-1,0.9-1.2s0.6-0.3,0.9-0.3c0.5,0,1,0.2,1.4,0.5
				l-0.5,1.3c-0.3-0.2-0.7-0.3-1-0.3c-0.3,0-0.6,0.1-0.8,0.3c-0.2,0.2-0.4,0.4-0.5,0.8c-0.2,0.5-0.2,1-0.2,1.6v4.3H72.9z"/>
			<path id="XMLID_2668_" class="st1" d="M77.7,130c0-1.5,0.4-2.7,1.3-3.4c0.7-0.6,1.6-0.9,2.6-0.9c1.1,0,2.1,0.4,2.8,1.1
				c0.7,0.7,1.1,1.8,1.1,3.1c0,1.1-0.2,1.9-0.5,2.5c-0.3,0.6-0.8,1.1-1.4,1.4c-0.6,0.3-1.3,0.5-2,0.5c-1.2,0-2.1-0.4-2.8-1.1
				C78.1,132.5,77.7,131.4,77.7,130z M79.2,130c0,1.1,0.2,1.9,0.7,2.4c0.5,0.5,1,0.8,1.8,0.8c0.7,0,1.3-0.3,1.7-0.8s0.7-1.3,0.7-2.4
				c0-1-0.2-1.8-0.7-2.3c-0.5-0.5-1-0.8-1.7-0.8c-0.7,0-1.3,0.3-1.8,0.8C79.4,128.1,79.2,128.9,79.2,130z"/>
			<path id="XMLID_2666_" class="st1" d="M87.1,134.1v-8.3h1.3v1.3c0.3-0.6,0.6-1,0.9-1.2s0.6-0.3,0.9-0.3c0.5,0,1,0.2,1.4,0.5
				l-0.5,1.3c-0.3-0.2-0.7-0.3-1-0.3c-0.3,0-0.6,0.1-0.8,0.3c-0.2,0.2-0.4,0.4-0.5,0.8c-0.2,0.5-0.2,1-0.2,1.6v4.3H87.1z"/>
			<path id="XMLID_2663_" class="st1" d="M98.1,131.5l1.5,0.2c-0.2,0.8-0.7,1.5-1.3,2s-1.4,0.7-2.4,0.7c-1.2,0-2.2-0.4-2.9-1.1
				c-0.7-0.7-1.1-1.8-1.1-3.1c0-1.4,0.4-2.5,1.1-3.2c0.7-0.8,1.7-1.2,2.8-1.2c1.1,0,2,0.4,2.7,1.1c0.7,0.8,1.1,1.8,1.1,3.2
				c0,0.1,0,0.2,0,0.4h-6.2c0.1,0.9,0.3,1.6,0.8,2.1s1,0.7,1.7,0.7c0.5,0,1-0.1,1.3-0.4C97.6,132.5,97.9,132.1,98.1,131.5z
				 M93.5,129.2h4.6c-0.1-0.7-0.2-1.2-0.5-1.6c-0.4-0.5-1-0.8-1.7-0.8c-0.6,0-1.2,0.2-1.6,0.6C93.8,127.9,93.6,128.5,93.5,129.2z"/>
			<path id="XMLID_2661_" class="st1" d="M100.8,131.7l1.4-0.2c0.1,0.6,0.3,1,0.7,1.3s0.9,0.4,1.5,0.4c0.6,0,1.1-0.1,1.4-0.4
				c0.3-0.3,0.5-0.6,0.5-0.9c0-0.3-0.1-0.6-0.4-0.8c-0.2-0.1-0.7-0.3-1.4-0.5c-1-0.3-1.7-0.5-2.1-0.7c-0.4-0.2-0.7-0.5-0.9-0.8
				s-0.3-0.7-0.3-1.1c0-0.4,0.1-0.7,0.3-1c0.2-0.3,0.4-0.6,0.7-0.8c0.2-0.2,0.5-0.3,0.9-0.4s0.8-0.2,1.2-0.2c0.7,0,1.2,0.1,1.7,0.3
				s0.9,0.4,1.1,0.8s0.4,0.7,0.5,1.3l-1.4,0.2c-0.1-0.4-0.2-0.8-0.5-1c-0.3-0.2-0.7-0.4-1.3-0.4c-0.6,0-1.1,0.1-1.4,0.3
				c-0.3,0.2-0.4,0.5-0.4,0.8c0,0.2,0.1,0.3,0.2,0.5c0.1,0.2,0.3,0.3,0.5,0.4c0.1,0.1,0.6,0.2,1.2,0.4c1,0.3,1.7,0.5,2.1,0.7
				c0.4,0.2,0.7,0.4,0.9,0.7c0.2,0.3,0.3,0.7,0.3,1.2c0,0.5-0.1,0.9-0.4,1.3s-0.7,0.7-1.2,1s-1.1,0.3-1.8,0.3
				c-1.1,0-1.9-0.2-2.5-0.7C101.3,133.2,101,132.5,100.8,131.7z"/>
			<path id="XMLID_2658_" class="st1" d="M119.2,134.1v-1c-0.5,0.8-1.3,1.2-2.3,1.2c-0.7,0-1.3-0.2-1.8-0.5c-0.6-0.4-1-0.9-1.3-1.5
				c-0.3-0.7-0.5-1.4-0.5-2.3c0-0.8,0.1-1.6,0.4-2.3c0.3-0.7,0.7-1.2,1.2-1.6s1.2-0.5,1.9-0.5c0.5,0,0.9,0.1,1.3,0.3s0.7,0.5,1,0.8
				v-4.1h1.4v11.5H119.2z M114.7,130c0,1.1,0.2,1.9,0.7,2.4c0.4,0.5,1,0.8,1.6,0.8c0.6,0,1.1-0.3,1.6-0.8c0.4-0.5,0.6-1.3,0.6-2.3
				c0-1.1-0.2-2-0.7-2.5s-1-0.8-1.6-0.8c-0.6,0-1.1,0.3-1.6,0.8C115,128.1,114.7,128.9,114.7,130z"/>
			<path id="XMLID_2655_" class="st1" d="M128.4,131.5l1.5,0.2c-0.2,0.8-0.7,1.5-1.3,2s-1.4,0.7-2.4,0.7c-1.2,0-2.2-0.4-2.9-1.1
				c-0.7-0.7-1.1-1.8-1.1-3.1c0-1.4,0.4-2.5,1.1-3.2c0.7-0.8,1.7-1.2,2.8-1.2c1.1,0,2,0.4,2.7,1.1c0.7,0.8,1.1,1.8,1.1,3.2
				c0,0.1,0,0.2,0,0.4h-6.2c0.1,0.9,0.3,1.6,0.8,2.1s1,0.7,1.7,0.7c0.5,0,1-0.1,1.3-0.4C127.9,132.5,128.2,132.1,128.4,131.5z
				 M123.8,129.2h4.6c-0.1-0.7-0.2-1.2-0.5-1.6c-0.4-0.5-1-0.8-1.7-0.8c-0.6,0-1.2,0.2-1.6,0.6C124.1,127.9,123.8,128.5,123.8,129.2
				z"/>
			<path id="XMLID_2653_" class="st1" d="M141.5,131.1l1.4,0.2c-0.2,1-0.5,1.7-1.2,2.2s-1.4,0.8-2.3,0.8c-1.1,0-2-0.4-2.7-1.1
				s-1-1.8-1-3.2c0-0.9,0.1-1.7,0.4-2.4c0.3-0.7,0.7-1.2,1.4-1.5s1.3-0.5,2-0.5c0.9,0,1.6,0.2,2.2,0.7s0.9,1.1,1.1,1.9l-1.4,0.2
				c-0.1-0.6-0.4-1-0.7-1.3c-0.3-0.3-0.7-0.4-1.2-0.4c-0.7,0-1.3,0.3-1.7,0.8s-0.7,1.3-0.7,2.4c0,1.1,0.2,1.9,0.6,2.4
				c0.4,0.5,1,0.8,1.7,0.8c0.6,0,1-0.2,1.4-0.5C141.1,132.3,141.4,131.8,141.5,131.1z"/>
			<path id="XMLID_2650_" class="st1" d="M143.5,130c0-1.5,0.4-2.7,1.3-3.4c0.7-0.6,1.6-0.9,2.6-0.9c1.1,0,2.1,0.4,2.8,1.1
				c0.7,0.7,1.1,1.8,1.1,3.1c0,1.1-0.2,1.9-0.5,2.5c-0.3,0.6-0.8,1.1-1.4,1.4c-0.6,0.3-1.3,0.5-2,0.5c-1.2,0-2.1-0.4-2.8-1.1
				C143.9,132.5,143.5,131.4,143.5,130z M145,130c0,1.1,0.2,1.9,0.7,2.4c0.5,0.5,1,0.8,1.8,0.8c0.7,0,1.3-0.3,1.7-0.8
				s0.7-1.3,0.7-2.4c0-1-0.2-1.8-0.7-2.3c-0.5-0.5-1-0.8-1.7-0.8c-0.7,0-1.3,0.3-1.8,0.8C145.2,128.1,145,128.9,145,130z"/>
			<path id="XMLID_2647_" class="st1" d="M158.3,134.1v-1c-0.5,0.8-1.3,1.2-2.3,1.2c-0.7,0-1.3-0.2-1.8-0.5c-0.6-0.4-1-0.9-1.3-1.5
				c-0.3-0.7-0.5-1.4-0.5-2.3c0-0.8,0.1-1.6,0.4-2.3c0.3-0.7,0.7-1.2,1.2-1.6s1.2-0.5,1.9-0.5c0.5,0,0.9,0.1,1.3,0.3s0.7,0.5,1,0.8
				v-4.1h1.4v11.5H158.3z M153.9,130c0,1.1,0.2,1.9,0.7,2.4c0.4,0.5,1,0.8,1.6,0.8c0.6,0,1.1-0.3,1.6-0.8c0.4-0.5,0.6-1.3,0.6-2.3
				c0-1.1-0.2-2-0.7-2.5s-1-0.8-1.6-0.8c-0.6,0-1.1,0.3-1.6,0.8C154.1,128.1,153.9,128.9,153.9,130z"/>
			<path id="XMLID_2644_" class="st1" d="M161.9,124.3v-1.6h1.4v1.6H161.9z M161.9,134.1v-8.3h1.4v8.3H161.9z"/>
			<path id="XMLID_2642_" class="st1" d="M165.7,134.1v-7.2h-1.2v-1.1h1.2V125c0-0.6,0-1,0.1-1.2c0.1-0.4,0.4-0.7,0.7-0.9
				s0.8-0.3,1.4-0.3c0.4,0,0.8,0,1.3,0.1l-0.2,1.2c-0.3-0.1-0.6-0.1-0.8-0.1c-0.4,0-0.7,0.1-0.9,0.3s-0.3,0.5-0.3,1v0.8h1.6v1.1
				h-1.6v7.2H165.7z"/>
			<path id="XMLID_2639_" class="st1" d="M169.9,124.3v-1.6h1.4v1.6H169.9z M169.9,134.1v-8.3h1.4v8.3H169.9z"/>
			<path id="XMLID_2637_" class="st1" d="M178.8,131.1l1.4,0.2c-0.2,1-0.5,1.7-1.2,2.2s-1.4,0.8-2.3,0.8c-1.1,0-2-0.4-2.7-1.1
				s-1-1.8-1-3.2c0-0.9,0.1-1.7,0.4-2.4c0.3-0.7,0.7-1.2,1.4-1.5s1.3-0.5,2-0.5c0.9,0,1.6,0.2,2.2,0.7s0.9,1.1,1.1,1.9l-1.4,0.2
				c-0.1-0.6-0.4-1-0.7-1.3c-0.3-0.3-0.7-0.4-1.2-0.4c-0.7,0-1.3,0.3-1.7,0.8s-0.7,1.3-0.7,2.4c0,1.1,0.2,1.9,0.6,2.4
				c0.4,0.5,1,0.8,1.7,0.8c0.6,0,1-0.2,1.4-0.5C178.5,132.3,178.7,131.8,178.8,131.1z"/>
			<path id="XMLID_2634_" class="st1" d="M186.8,133.1c-0.5,0.4-1,0.8-1.5,0.9c-0.5,0.2-1,0.3-1.6,0.3c-0.9,0-1.6-0.2-2.1-0.7
				s-0.7-1-0.7-1.7c0-0.4,0.1-0.8,0.3-1.1s0.4-0.6,0.7-0.8s0.6-0.4,1-0.5c0.3-0.1,0.7-0.1,1.3-0.2c1.1-0.1,2-0.3,2.5-0.5
				c0-0.2,0-0.3,0-0.4c0-0.6-0.1-1-0.4-1.2c-0.4-0.3-0.9-0.5-1.6-0.5c-0.7,0-1.1,0.1-1.5,0.3c-0.3,0.2-0.5,0.6-0.7,1.2l-1.4-0.2
				c0.1-0.6,0.3-1.1,0.6-1.4c0.3-0.4,0.7-0.6,1.2-0.8s1.2-0.3,1.9-0.3c0.7,0,1.3,0.1,1.7,0.3s0.8,0.4,1,0.6s0.4,0.6,0.4,1
				c0,0.2,0.1,0.7,0.1,1.3v1.9c0,1.3,0,2.1,0.1,2.5c0.1,0.3,0.2,0.7,0.4,1h-1.5C187,133.8,186.9,133.5,186.8,133.1z M186.7,130
				c-0.5,0.2-1.3,0.4-2.3,0.5c-0.6,0.1-1,0.2-1.2,0.3c-0.2,0.1-0.4,0.3-0.6,0.5c-0.1,0.2-0.2,0.4-0.2,0.7c0,0.4,0.1,0.7,0.4,0.9
				s0.7,0.4,1.2,0.4c0.5,0,1-0.1,1.4-0.4c0.4-0.2,0.7-0.6,0.9-1c0.2-0.3,0.2-0.8,0.2-1.4V130z"/>
			<path id="XMLID_2632_" class="st1" d="M195.7,131.1l1.4,0.2c-0.2,1-0.5,1.7-1.2,2.2s-1.4,0.8-2.3,0.8c-1.1,0-2-0.4-2.7-1.1
				s-1-1.8-1-3.2c0-0.9,0.1-1.7,0.4-2.4c0.3-0.7,0.7-1.2,1.4-1.5s1.3-0.5,2-0.5c0.9,0,1.6,0.2,2.2,0.7s0.9,1.1,1.1,1.9l-1.4,0.2
				c-0.1-0.6-0.4-1-0.7-1.3c-0.3-0.3-0.7-0.4-1.2-0.4c-0.7,0-1.3,0.3-1.7,0.8s-0.7,1.3-0.7,2.4c0,1.1,0.2,1.9,0.6,2.4
				c0.4,0.5,1,0.8,1.7,0.8c0.6,0,1-0.2,1.4-0.5C195.4,132.3,195.6,131.8,195.7,131.1z"/>
			<path id="XMLID_2629_" class="st1" d="M198.3,124.3v-1.6h1.4v1.6H198.3z M198.3,134.1v-8.3h1.4v8.3H198.3z"/>
			<path id="XMLID_2625_" class="st1" d="M201.3,130c0-1.5,0.4-2.7,1.3-3.4c0.7-0.6,1.6-0.9,2.6-0.9c1.1,0,2.1,0.4,2.8,1.1
				c0.7,0.7,1.1,1.8,1.1,3.1c0,1.1-0.2,1.9-0.5,2.5c-0.3,0.6-0.8,1.1-1.4,1.4c-0.6,0.3-1.3,0.5-2,0.5c-1.2,0-2.1-0.4-2.8-1.1
				C201.7,132.5,201.3,131.4,201.3,130z M202.8,130c0,1.1,0.2,1.9,0.7,2.4c0.5,0.5,1,0.8,1.8,0.8c0.7,0,1.3-0.3,1.7-0.8
				s0.7-1.3,0.7-2.4c0-1-0.2-1.8-0.7-2.3c-0.5-0.5-1-0.8-1.7-0.8c-0.7,0-1.3,0.3-1.8,0.8C203,128.1,202.8,128.9,202.8,130z
				 M204.4,124.8l1-2.2h1.8l-1.7,2.2H204.4z"/>
			<path id="XMLID_2623_" class="st1" d="M210.8,134.1v-8.3h1.3v1.2c0.6-0.9,1.5-1.4,2.6-1.4c0.5,0,1,0.1,1.4,0.3s0.7,0.4,0.9,0.7
				s0.4,0.6,0.4,1c0.1,0.3,0.1,0.7,0.1,1.4v5.1h-1.4v-5c0-0.6-0.1-1-0.2-1.3c-0.1-0.3-0.3-0.5-0.6-0.7c-0.3-0.2-0.6-0.3-1-0.3
				c-0.6,0-1.1,0.2-1.6,0.6c-0.4,0.4-0.7,1.1-0.7,2.2v4.5H210.8z"/>
			<path id="XMLID_2621_" class="st1" d="M220,134.1v-1.6h1.6v1.6H220z"/>
		</g>
	</g>
</g>
</svg>
