<?xml version="1.0" encoding="utf-8"?>
<!-- Generator: Adobe Illustrator 22.0.1, SVG Export Plug-In . SVG Version: 6.00 Build 0)  -->
<svg version="1.1" id="Capa_1" xmlns="http://www.w3.org/2000/svg" xmlns:xlink="http://www.w3.org/1999/xlink" x="0px" y="0px"
	 viewBox="0 0 279.4 176.8" style="enable-background:new 0 0 279.4 176.8;" xml:space="preserve">
<style type="text/css">
	.st0{fill:#FEC34D;}
	.st1{fill:#FFFFFF;}
	.st2{fill:#BCBEC0;}
	.st3{fill:#E4E5E6;}
	.st4{fill:#603813;}
	.st5{fill:#E0E0E0;}
	.st6{fill:#4EA700;}
</style>
<g id="XMLID_11955_">
	<path id="XMLID_11956_" class="st0" d="M268.6,0H10.8C4.8,0,0,4.8,0,10.8V166c0,6,4.8,10.8,10.8,10.8h257.8c6,0,10.8-4.8,10.8-10.8
		V10.8C279.4,4.8,274.6,0,268.6,0z"/>
	<path id="XMLID_11957_" class="st1" d="M270,21.5V126l-34.8,40H20.1c-5.9,0-10.7-4.8-10.7-10.7V21.5c0-5.9,4.8-10.7,10.7-10.7
		h239.3C265.3,10.8,270,15.6,270,21.5z"/>
	<path id="XMLID_11958_" class="st2" d="M270,126l-34.8,40h-5.9l-5.5-24.3c0-6.9,5.1-12.5,11.7-13.4c0.7-0.1,1.5-0.2,2.2-0.3
		c2.6-0.4,5.2-0.6,7.8-0.8L270,126z"/>
	<path id="XMLID_11959_" class="st3" d="M270,126h-24.1c-5.9,0-10.7,4.8-10.7,10.7V166L270,126z"/>
</g>
<path id="XMLID_238_" class="st4" d="M57.2,50.9V39.4h4.3c0.8,0,1.3,0,1.7,0.1c0.6,0.1,1,0.3,1.4,0.5s0.7,0.6,0.9,1.1s0.3,1,0.3,1.6
	c0,1-0.3,1.8-0.9,2.5s-1.7,1-3.4,1h-2.9v4.7C58.6,50.9,57.2,50.9,57.2,50.9z M58.7,44.8h3c1,0,1.7-0.2,2.1-0.5
	c0.4-0.4,0.6-0.9,0.6-1.5c0-0.5-0.1-0.9-0.4-1.2c-0.2-0.3-0.6-0.6-1-0.7c-0.3-0.1-0.7-0.1-1.4-0.1h-2.9
	C58.7,40.8,58.7,44.8,58.7,44.8z"/>
<path id="XMLID_247_" class="st4" d="M67.7,50.9v-8.3H69v1.3c0.3-0.6,0.6-1,0.9-1.2s0.6-0.3,0.9-0.3c0.5,0,1,0.2,1.4,0.5l-0.5,1.3
	c-0.3-0.2-0.7-0.3-1-0.3s-0.6,0.1-0.8,0.3s-0.4,0.4-0.5,0.8c-0.2,0.5-0.2,1-0.2,1.6v4.3C69.2,50.9,67.7,50.9,67.7,50.9z"/>
<path id="XMLID_255_" class="st4" d="M78.5,50.9v-1.2c-0.6,0.9-1.5,1.4-2.6,1.4c-0.5,0-0.9-0.1-1.4-0.3s-0.7-0.4-0.9-0.7
	s-0.4-0.6-0.4-1C73,48.7,73,48.3,73,47.7v-5.1h1.4v4.6c0,0.7,0,1.2,0.1,1.5c0.1,0.4,0.3,0.7,0.6,0.9s0.6,0.3,1.1,0.3
	s0.8-0.1,1.2-0.3s0.6-0.5,0.8-0.9s0.2-0.9,0.2-1.6v-4.4h1.4V51L78.5,50.9L78.5,50.9z"/>
<path id="XMLID_257_" class="st4" d="M87.6,48.2l1.5,0.2c-0.2,0.8-0.7,1.5-1.3,2S86.4,51,85.4,51c-1.2,0-2.2-0.4-2.9-1.1
	s-1.1-1.8-1.1-3.1c0-1.4,0.4-2.5,1.1-3.3s1.7-1.2,2.8-1.2c1.1,0,2,0.4,2.7,1.1s1.1,1.8,1.1,3.2c0,0.1,0,0.2,0,0.4h-6.2
	c0.1,0.9,0.3,1.6,0.8,2.1s1,0.7,1.7,0.7c0.5,0,1-0.1,1.3-0.4S87.4,48.8,87.6,48.2z M83,45.9h4.6c-0.1-0.7-0.2-1.2-0.5-1.6
	c-0.4-0.5-1-0.8-1.7-0.8c-0.6,0-1.2,0.2-1.6,0.6S83,45.2,83,45.9z"/>
<path id="XMLID_260_" class="st4" d="M92.1,50.9h-1.3V39.4h1.4v4.1c0.6-0.7,1.4-1.1,2.3-1.1c0.5,0,1,0.1,1.4,0.3s0.8,0.5,1.1,0.9
	s0.5,0.8,0.7,1.3S98,46,98,46.6c0,1.4-0.4,2.5-1.1,3.3S95.4,51,94.4,51s-1.7-0.4-2.3-1.2V50.9z M92.1,46.6c0,1,0.1,1.7,0.4,2.2
	c0.4,0.7,1,1.1,1.8,1.1c0.6,0,1.1-0.3,1.6-0.8s0.7-1.3,0.7-2.4c0-1.1-0.2-1.9-0.6-2.4s-0.9-0.8-1.6-0.8c-0.6,0-1.1,0.3-1.6,0.8
	S92.1,45.6,92.1,46.6z"/>
<path id="XMLID_263_" class="st4" d="M105.1,49.8c-0.5,0.4-1,0.8-1.5,0.9s-1,0.3-1.6,0.3c-0.9,0-1.6-0.2-2.1-0.7s-0.7-1-0.7-1.7
	c0-0.4,0.1-0.8,0.3-1.1s0.4-0.6,0.7-0.8s0.6-0.4,1-0.5c0.3-0.1,0.7-0.1,1.3-0.2c1.1-0.1,2-0.3,2.5-0.5c0-0.2,0-0.3,0-0.4
	c0-0.6-0.1-1-0.4-1.2c-0.4-0.3-0.9-0.5-1.6-0.5s-1.1,0.1-1.5,0.3s-0.5,0.6-0.7,1.2l-1.4-0.2c0.1-0.6,0.3-1.1,0.6-1.4
	s0.7-0.6,1.2-0.8s1.2-0.3,1.9-0.3c0.7,0,1.3,0.1,1.7,0.3s0.8,0.4,1,0.6s0.4,0.6,0.4,1c0,0.2,0.1,0.7,0.1,1.3v1.9
	c0,1.3,0,2.1,0.1,2.5s0.2,0.7,0.4,1h-1.5C105.3,50.6,105.2,50.2,105.1,49.8z M105,46.7c-0.5,0.2-1.3,0.4-2.3,0.5
	c-0.6,0.1-1,0.2-1.2,0.3s-0.4,0.3-0.6,0.5s-0.2,0.4-0.2,0.7c0,0.4,0.1,0.7,0.4,0.9s0.7,0.4,1.2,0.4s1-0.1,1.4-0.4s0.7-0.6,0.9-1
	c0.2-0.3,0.2-0.8,0.2-1.4v-0.5H105z"/>
<path id="XMLID_266_" class="st4" d="M118.5,50.9v-1c-0.5,0.8-1.3,1.2-2.3,1.2c-0.7,0-1.3-0.2-1.8-0.5s-1-0.9-1.3-1.5
	s-0.5-1.4-0.5-2.3c0-0.8,0.1-1.6,0.4-2.3s0.7-1.2,1.2-1.6s1.2-0.5,1.9-0.5c0.5,0,0.9,0.1,1.3,0.3s0.7,0.5,1,0.8v-4.1h1.4v11.5
	C119.8,50.9,118.5,50.9,118.5,50.9z M114,46.7c0,1.1,0.2,1.9,0.7,2.4s1,0.8,1.6,0.8s1.1-0.3,1.6-0.8s0.6-1.3,0.6-2.3
	c0-1.1-0.2-2-0.7-2.5s-1-0.8-1.6-0.8s-1.1,0.3-1.6,0.8S114,45.6,114,46.7z"/>
<path id="XMLID_269_" class="st4" d="M127.6,48.2l1.5,0.2c-0.2,0.8-0.7,1.5-1.3,2c-0.6,0.5-1.4,0.7-2.4,0.7c-1.2,0-2.2-0.4-2.9-1.1
	s-1.1-1.8-1.1-3.1c0-1.4,0.4-2.5,1.1-3.3s1.7-1.2,2.8-1.2c1.1,0,2,0.4,2.7,1.1c0.7,0.8,1.1,1.8,1.1,3.2c0,0.1,0,0.2,0,0.4H123
	c0.1,0.9,0.3,1.6,0.8,2.1s1,0.7,1.7,0.7c0.5,0,1-0.1,1.3-0.4S127.4,48.8,127.6,48.2z M123,45.9h4.6c-0.1-0.7-0.2-1.2-0.5-1.6
	c-0.4-0.5-1-0.8-1.7-0.8c-0.6,0-1.2,0.2-1.6,0.6S123.1,45.2,123,45.9z"/>
<path id="XMLID_272_" class="st4" d="M140.7,47.8l1.4,0.2c-0.2,1-0.5,1.7-1.2,2.2s-1.4,0.8-2.3,0.8c-1.1,0-2-0.4-2.7-1.1
	s-1-1.8-1-3.2c0-0.9,0.1-1.7,0.4-2.4s0.7-1.2,1.4-1.5s1.3-0.5,2-0.5c0.9,0,1.6,0.2,2.2,0.7s0.9,1.1,1.1,1.9l-1.4,0.2
	c-0.1-0.6-0.4-1-0.7-1.3s-0.7-0.4-1.2-0.4c-0.7,0-1.3,0.3-1.7,0.8s-0.7,1.3-0.7,2.4c0,1.1,0.2,1.9,0.6,2.4s1,0.8,1.7,0.8
	c0.6,0,1-0.2,1.4-0.5S140.6,48.5,140.7,47.8z"/>
<path id="XMLID_274_" class="st4" d="M142.8,46.7c0-1.5,0.4-2.7,1.3-3.4c0.7-0.6,1.6-0.9,2.6-0.9c1.1,0,2.1,0.4,2.8,1.1
	s1.1,1.8,1.1,3.1c0,1.1-0.2,1.9-0.5,2.5s-0.8,1.1-1.4,1.4s-1.3,0.5-2,0.5c-1.2,0-2.1-0.4-2.8-1.1S142.8,48.1,142.8,46.7z
	 M144.2,46.7c0,1.1,0.2,1.9,0.7,2.4s1,0.8,1.8,0.8c0.7,0,1.3-0.3,1.7-0.8s0.7-1.3,0.7-2.4c0-1-0.2-1.8-0.7-2.3s-1-0.8-1.7-0.8
	s-1.3,0.3-1.8,0.8S144.2,45.6,144.2,46.7z"/>
<path id="XMLID_277_" class="st4" d="M152.2,50.9v-8.3h1.3v1.2c0.3-0.4,0.6-0.7,1-1s0.9-0.4,1.5-0.4s1.1,0.1,1.5,0.4
	s0.7,0.6,0.8,1.1c0.7-1,1.5-1.5,2.6-1.5c0.8,0,1.5,0.2,1.9,0.7s0.7,1.2,0.7,2.1v5.7h-1.4v-5.2c0-0.6,0-1-0.1-1.2s-0.3-0.4-0.5-0.6
	s-0.5-0.2-0.8-0.2c-0.6,0-1.1,0.2-1.5,0.6s-0.6,1-0.6,1.9V51h-1.4v-5.4c0-0.6-0.1-1.1-0.3-1.4s-0.6-0.5-1.1-0.5
	c-0.4,0-0.8,0.1-1.1,0.3s-0.6,0.5-0.7,0.9s-0.2,1-0.2,1.7v4.3C153.8,50.9,152.2,50.9,152.2,50.9z"/>
<path id="XMLID_279_" class="st4" d="M165.5,54V42.6h1.3v1.1c0.3-0.4,0.6-0.7,1-0.9s0.8-0.3,1.4-0.3c0.7,0,1.3,0.2,1.9,0.5
	s1,0.9,1.2,1.5s0.4,1.4,0.4,2.2s-0.2,1.6-0.5,2.3s-0.7,1.2-1.3,1.6s-1.2,0.5-1.8,0.5c-0.5,0-0.9-0.1-1.3-0.3s-0.7-0.4-0.9-0.8v4
	C166.9,54,165.5,54,165.5,54z M166.8,46.8c0,1.1,0.2,1.9,0.6,2.4s1,0.8,1.6,0.8s1.2-0.3,1.6-0.8s0.7-1.3,0.7-2.5
	c0-1.1-0.2-1.8-0.7-2.4s-1-0.8-1.6-0.8s-1.1,0.3-1.6,0.8S166.8,45.7,166.8,46.8z"/>
<path id="XMLID_282_" class="st4" d="M173.9,46.7c0-1.5,0.4-2.7,1.3-3.4c0.7-0.6,1.6-0.9,2.6-0.9c1.1,0,2.1,0.4,2.8,1.1
	s1.1,1.8,1.1,3.1c0,1.1-0.2,1.9-0.5,2.5s-0.8,1.1-1.4,1.4s-1.3,0.5-2,0.5c-1.2,0-2.1-0.4-2.8-1.1S173.9,48.1,173.9,46.7z
	 M175.4,46.7c0,1.1,0.2,1.9,0.7,2.4s1,0.8,1.8,0.8c0.7,0,1.3-0.3,1.7-0.8s0.7-1.3,0.7-2.4c0-1-0.2-1.8-0.7-2.3s-1-0.8-1.7-0.8
	s-1.3,0.3-1.8,0.8S175.4,45.6,175.4,46.7z"/>
<path id="XMLID_285_" class="st4" d="M183.3,50.9v-8.3h1.3v1.2c0.6-0.9,1.5-1.4,2.6-1.4c0.5,0,1,0.1,1.4,0.3s0.7,0.4,0.9,0.7
	s0.4,0.6,0.4,1c0.1,0.3,0.1,0.7,0.1,1.4v5.1h-1.4v-5c0-0.6-0.1-1-0.2-1.3s-0.3-0.5-0.6-0.7s-0.6-0.3-1-0.3c-0.6,0-1.1,0.2-1.6,0.6
	s-0.7,1.1-0.7,2.2v4.5H183.3z"/>
<path id="XMLID_287_" class="st4" d="M197.9,48.2l1.5,0.2c-0.2,0.8-0.7,1.5-1.3,2s-1.4,0.7-2.4,0.7c-1.2,0-2.2-0.4-2.9-1.1
	s-1.1-1.8-1.1-3.1c0-1.4,0.4-2.5,1.1-3.3s1.7-1.2,2.8-1.2s2,0.4,2.7,1.1s1.1,1.8,1.1,3.2c0,0.1,0,0.2,0,0.4h-6.2
	c0.1,0.9,0.3,1.6,0.8,2.1s1,0.7,1.7,0.7c0.5,0,1-0.1,1.3-0.4S197.7,48.8,197.9,48.2z M193.3,45.9h4.6c-0.1-0.7-0.2-1.2-0.5-1.6
	c-0.4-0.5-1-0.8-1.7-0.8c-0.6,0-1.2,0.2-1.6,0.6S193.3,45.2,193.3,45.9z"/>
<path id="XMLID_290_" class="st4" d="M201.1,50.9v-8.3h1.3v1.2c0.6-0.9,1.5-1.4,2.6-1.4c0.5,0,1,0.1,1.4,0.3s0.7,0.4,0.9,0.7
	s0.4,0.6,0.4,1c0.1,0.3,0.1,0.7,0.1,1.4v5.1h-1.4v-5c0-0.6-0.1-1-0.2-1.3s-0.3-0.5-0.6-0.7s-0.6-0.3-1-0.3c-0.6,0-1.1,0.2-1.6,0.6
	s-0.7,1.1-0.7,2.2v4.5H201.1z"/>
<path id="XMLID_292_" class="st4" d="M213.1,49.6l0.2,1.2c-0.4,0.1-0.8,0.1-1.1,0.1c-0.5,0-0.9-0.1-1.2-0.2s-0.5-0.4-0.6-0.6
	s-0.2-0.8-0.2-1.7v-4.8h-1v-1.1h1v-2.1l1.4-0.8v2.9h1.4v1.1h-1.4v4.9c0,0.4,0,0.7,0.1,0.8s0.1,0.2,0.2,0.3s0.3,0.1,0.5,0.1
	C212.6,49.7,212.8,49.6,213.1,49.6z"/>
<path id="XMLID_294_" class="st4" d="M220.2,48.2l1.5,0.2c-0.2,0.8-0.7,1.5-1.3,2S218.9,51,218,51c-1.2,0-2.2-0.4-2.9-1.1
	s-1.1-1.8-1.1-3.1c0-1.4,0.4-2.5,1.1-3.3s1.7-1.2,2.8-1.2s2,0.4,2.7,1.1s1.1,1.8,1.1,3.2c0,0.1,0,0.2,0,0.4h-6.2
	c0.1,0.9,0.3,1.6,0.8,2.1s1,0.7,1.7,0.7c0.5,0,1-0.1,1.3-0.4S219.9,48.8,220.2,48.2z M215.5,45.9h4.6c-0.1-0.7-0.2-1.2-0.5-1.6
	c-0.4-0.5-1-0.8-1.7-0.8c-0.6,0-1.2,0.2-1.6,0.6S215.6,45.2,215.5,45.9z"/>
<path id="XMLID_297_" class="st4" d="M222.8,48.4l1.4-0.2c0.1,0.6,0.3,1,0.7,1.3s0.9,0.4,1.5,0.4s1.1-0.1,1.4-0.4s0.5-0.6,0.5-0.9
	c0-0.3-0.1-0.6-0.4-0.8c-0.2-0.1-0.7-0.3-1.4-0.5c-1-0.3-1.7-0.5-2.1-0.7s-0.7-0.5-0.9-0.8s-0.3-0.7-0.3-1.1c0-0.4,0.1-0.7,0.3-1
	s0.4-0.6,0.7-0.8c0.2-0.2,0.5-0.3,0.9-0.4s0.8-0.2,1.2-0.2c0.7,0,1.2,0.1,1.7,0.3s0.9,0.4,1.1,0.8s0.4,0.7,0.5,1.3l-1.4,0.2
	c-0.1-0.4-0.2-0.8-0.5-1s-0.7-0.4-1.3-0.4s-1.1,0.1-1.4,0.3s-0.4,0.5-0.4,0.8c0,0.2,0.1,0.3,0.2,0.5c0.1,0.2,0.3,0.3,0.5,0.4
	c0.1,0.1,0.6,0.2,1.2,0.4c1,0.3,1.7,0.5,2.1,0.7s0.7,0.4,0.9,0.7s0.3,0.7,0.3,1.2s-0.1,0.9-0.4,1.3s-0.7,0.7-1.2,1S227,51,226.4,51
	c-1.1,0-1.9-0.2-2.5-0.7S223,49.3,222.8,48.4z"/>
<path id="XMLID_299_" class="st4" d="M57.2,89.3V77.8h4.3c0.8,0,1.3,0,1.7,0.1c0.6,0.1,1,0.3,1.4,0.5s0.7,0.6,0.9,1.1s0.3,1,0.3,1.6
	c0,1-0.3,1.8-0.9,2.5s-1.7,1-3.4,1h-2.9v4.7C58.6,89.3,57.2,89.3,57.2,89.3z M58.7,83.2h3c1,0,1.7-0.2,2.1-0.5
	c0.4-0.4,0.6-0.9,0.6-1.5c0-0.5-0.1-0.9-0.4-1.2c-0.2-0.3-0.6-0.6-1-0.7c-0.3-0.1-0.7-0.1-1.4-0.1h-2.9
	C58.7,79.2,58.7,83.2,58.7,83.2z"/>
<path id="XMLID_302_" class="st4" d="M67.7,89.3V81H69v1.3c0.3-0.6,0.6-1,0.9-1.2s0.6-0.3,0.9-0.3c0.5,0,1,0.2,1.4,0.5l-0.5,1.3
	c-0.3-0.2-0.7-0.3-1-0.3s-0.6,0.1-0.8,0.3s-0.4,0.4-0.5,0.8c-0.2,0.5-0.2,1-0.2,1.6v4.3C69.2,89.3,67.7,89.3,67.7,89.3z"/>
<path id="XMLID_304_" class="st4" d="M78.5,89.3V88c-0.6,0.9-1.5,1.4-2.6,1.4c-0.5,0-0.9-0.1-1.4-0.3s-0.7-0.4-0.9-0.7
	c-0.2-0.3-0.4-0.6-0.4-1C73,87.1,73,86.7,73,86.1V81h1.4v4.6c0,0.7,0,1.2,0.1,1.5c0.1,0.4,0.3,0.7,0.6,0.9s0.6,0.3,1.1,0.3
	s0.8-0.1,1.2-0.3s0.6-0.5,0.8-0.9s0.2-0.9,0.2-1.6V81h1.4v8.3H78.5z"/>
<path id="XMLID_306_" class="st4" d="M87.6,86.6l1.5,0.2c-0.2,0.8-0.7,1.5-1.3,2c-0.6,0.5-1.4,0.7-2.4,0.7c-1.2,0-2.2-0.4-2.9-1.1
	c-0.7-0.7-1.1-1.8-1.1-3.1c0-1.4,0.4-2.5,1.1-3.3s1.7-1.2,2.8-1.2c1.1,0,2,0.4,2.7,1.1s1.1,1.8,1.1,3.2c0,0.1,0,0.2,0,0.4h-6.2
	c0.1,0.9,0.3,1.6,0.8,2.1s1,0.7,1.7,0.7c0.5,0,1-0.1,1.3-0.4S87.4,87.2,87.6,86.6z M83,84.3h4.6c-0.1-0.7-0.2-1.2-0.5-1.6
	c-0.4-0.5-1-0.8-1.7-0.8c-0.6,0-1.2,0.2-1.6,0.6S83,83.6,83,84.3z"/>
<path id="XMLID_309_" class="st4" d="M92.1,89.3h-1.3V77.8h1.4v4.1c0.6-0.7,1.4-1.1,2.3-1.1c0.5,0,1,0.1,1.4,0.3s0.8,0.5,1.1,0.9
	s0.5,0.8,0.7,1.3S98,84.4,98,85c0,1.4-0.4,2.5-1.1,3.3s-1.5,1.2-2.5,1.2s-1.7-0.4-2.3-1.2V89.3z M92.1,85c0,1,0.1,1.7,0.4,2.2
	c0.4,0.7,1,1.1,1.8,1.1c0.6,0,1.1-0.3,1.6-0.8s0.7-1.3,0.7-2.4s-0.2-1.9-0.6-2.4s-0.9-0.8-1.6-0.8c-0.6,0-1.1,0.3-1.6,0.8
	S92.1,84,92.1,85z"/>
<path id="XMLID_312_" class="st4" d="M105.1,88.2c-0.5,0.4-1,0.8-1.5,0.9c-0.5,0.2-1,0.3-1.6,0.3c-0.9,0-1.6-0.2-2.1-0.7
	c-0.5-0.4-0.7-1-0.7-1.7c0-0.4,0.1-0.8,0.3-1.1s0.4-0.6,0.7-0.8s0.6-0.4,1-0.5c0.3-0.1,0.7-0.1,1.3-0.2c1.1-0.1,2-0.3,2.5-0.5
	c0-0.2,0-0.3,0-0.4c0-0.6-0.1-1-0.4-1.2c-0.4-0.3-0.9-0.5-1.6-0.5s-1.1,0.1-1.5,0.3s-0.5,0.6-0.7,1.2l-1.4-0.2
	c0.1-0.6,0.3-1.1,0.6-1.4s0.7-0.6,1.2-0.8s1.2-0.3,1.9-0.3c0.7,0,1.3,0.1,1.7,0.3s0.8,0.4,1,0.6s0.4,0.6,0.4,1
	c0,0.2,0.1,0.7,0.1,1.3v1.9c0,1.3,0,2.1,0.1,2.5c0.1,0.3,0.2,0.7,0.4,1h-1.5C105.3,89,105.2,88.6,105.1,88.2z M105,85.1
	c-0.5,0.2-1.3,0.4-2.3,0.5c-0.6,0.1-1,0.2-1.2,0.3s-0.4,0.3-0.6,0.5s-0.2,0.4-0.2,0.7c0,0.4,0.1,0.7,0.4,0.9s0.7,0.4,1.2,0.4
	s1-0.1,1.4-0.4s0.7-0.6,0.9-1c0.2-0.3,0.2-0.8,0.2-1.4v-0.5H105z"/>
<path id="XMLID_315_" class="st4" d="M118.5,89.3v-1c-0.5,0.8-1.3,1.2-2.3,1.2c-0.7,0-1.3-0.2-1.8-0.5c-0.6-0.4-1-0.9-1.3-1.5
	s-0.5-1.4-0.5-2.3c0-0.8,0.1-1.6,0.4-2.3s0.7-1.2,1.2-1.6s1.2-0.5,1.9-0.5c0.5,0,0.9,0.1,1.3,0.3s0.7,0.5,1,0.8v-4.1h1.4v11.5H118.5
	z M114,85.1c0,1.1,0.2,1.9,0.7,2.4s1,0.8,1.6,0.8s1.1-0.3,1.6-0.8s0.6-1.3,0.6-2.3c0-1.1-0.2-2-0.7-2.5s-1-0.8-1.6-0.8
	s-1.1,0.3-1.6,0.8S114,84,114,85.1z"/>
<path id="XMLID_318_" class="st4" d="M127.6,86.6l1.5,0.2c-0.2,0.8-0.7,1.5-1.3,2c-0.6,0.5-1.4,0.7-2.4,0.7c-1.2,0-2.2-0.4-2.9-1.1
	c-0.7-0.7-1.1-1.8-1.1-3.1c0-1.4,0.4-2.5,1.1-3.3s1.7-1.2,2.8-1.2c1.1,0,2,0.4,2.7,1.1c0.7,0.8,1.1,1.8,1.1,3.2c0,0.1,0,0.2,0,0.4
	H123c0.1,0.9,0.3,1.6,0.8,2.1s1,0.7,1.7,0.7c0.5,0,1-0.1,1.3-0.4S127.4,87.2,127.6,86.6z M123,84.3h4.6c-0.1-0.7-0.2-1.2-0.5-1.6
	c-0.4-0.5-1-0.8-1.7-0.8c-0.6,0-1.2,0.2-1.6,0.6S123.1,83.6,123,84.3z"/>
<path id="XMLID_321_" class="st4" d="M135.3,89.3V77.8h1.4v11.5H135.3z"/>
<path id="XMLID_323_" class="st4" d="M138.3,85.1c0-1.5,0.4-2.7,1.3-3.4c0.7-0.6,1.6-0.9,2.6-0.9c1.1,0,2.1,0.4,2.8,1.1
	s1.1,1.8,1.1,3.1c0,1.1-0.2,1.9-0.5,2.5s-0.8,1.1-1.4,1.4c-0.6,0.3-1.3,0.5-2,0.5c-1.2,0-2.1-0.4-2.8-1.1
	C138.7,87.6,138.3,86.5,138.3,85.1z M139.8,85.1c0,1.1,0.2,1.9,0.7,2.4s1,0.8,1.8,0.8c0.7,0,1.3-0.3,1.7-0.8s0.7-1.3,0.7-2.4
	c0-1-0.2-1.8-0.7-2.3s-1-0.8-1.7-0.8s-1.3,0.3-1.8,0.8S139.8,84,139.8,85.1z"/>
<path id="XMLID_326_" class="st4" d="M147.2,86.8l1.4-0.2c0.1,0.6,0.3,1,0.7,1.3s0.9,0.4,1.5,0.4s1.1-0.1,1.4-0.4s0.5-0.6,0.5-0.9
	s-0.1-0.6-0.4-0.8c-0.2-0.1-0.7-0.3-1.4-0.5c-1-0.3-1.7-0.5-2.1-0.7s-0.7-0.5-0.9-0.8s-0.3-0.7-0.3-1.1s0.1-0.7,0.3-1
	s0.4-0.6,0.7-0.8c0.2-0.2,0.5-0.3,0.9-0.4s0.8-0.2,1.2-0.2c0.7,0,1.2,0.1,1.7,0.3s0.9,0.4,1.1,0.8s0.4,0.7,0.5,1.3l-1.4,0.2
	c-0.1-0.4-0.2-0.8-0.5-1s-0.7-0.4-1.3-0.4s-1.1,0.1-1.4,0.3S149,82.7,149,83c0,0.2,0.1,0.3,0.2,0.5c0.1,0.2,0.3,0.3,0.5,0.4
	c0.1,0.1,0.6,0.2,1.2,0.4c1,0.3,1.7,0.5,2.1,0.7s0.7,0.4,0.9,0.7s0.3,0.7,0.3,1.2s-0.1,0.9-0.4,1.3c-0.3,0.4-0.7,0.7-1.2,1
	s-1.1,0.3-1.8,0.3c-1.1,0-1.9-0.2-2.5-0.7C147.7,88.3,147.4,87.7,147.2,86.8z"/>
<path id="XMLID_328_" class="st4" d="M159.6,86.8l1.4-0.2c0.1,0.6,0.3,1,0.7,1.3s0.9,0.4,1.5,0.4s1.1-0.1,1.4-0.4s0.5-0.6,0.5-0.9
	s-0.1-0.6-0.4-0.8c-0.2-0.1-0.7-0.3-1.4-0.5c-1-0.3-1.7-0.5-2.1-0.7s-0.7-0.5-0.9-0.8s-0.3-0.7-0.3-1.1s0.1-0.7,0.3-1
	s0.4-0.6,0.7-0.8c0.2-0.2,0.5-0.3,0.9-0.4s0.8-0.2,1.2-0.2c0.7,0,1.2,0.1,1.7,0.3s0.9,0.4,1.1,0.8s0.4,0.7,0.5,1.3l-1.4,0.2
	c-0.1-0.4-0.2-0.8-0.5-1s-0.7-0.4-1.3-0.4s-1.1,0.1-1.4,0.3s-0.4,0.5-0.4,0.8c0,0.2,0.1,0.3,0.2,0.5c0.1,0.2,0.3,0.3,0.5,0.4
	c0.1,0.1,0.6,0.2,1.2,0.4c1,0.3,1.7,0.5,2.1,0.7s0.7,0.4,0.9,0.7s0.3,0.7,0.3,1.2s-0.1,0.9-0.4,1.3c-0.3,0.4-0.7,0.7-1.2,1
	s-1.1,0.3-1.8,0.3c-1.1,0-1.9-0.2-2.5-0.7C160.2,88.3,159.8,87.7,159.6,86.8z"/>
<path id="XMLID_330_" class="st4" d="M168.2,79.4v-1.6h1.4v1.6H168.2z M168.2,89.3V81h1.4v8.3H168.2z"/>
<path id="XMLID_333_" class="st4" d="M171.2,86.8l1.4-0.2c0.1,0.6,0.3,1,0.7,1.3s0.9,0.4,1.5,0.4s1.1-0.1,1.4-0.4s0.5-0.6,0.5-0.9
	s-0.1-0.6-0.4-0.8c-0.2-0.1-0.7-0.3-1.4-0.5c-1-0.3-1.7-0.5-2.1-0.7s-0.7-0.5-0.9-0.8s-0.3-0.7-0.3-1.1s0.1-0.7,0.3-1
	s0.4-0.6,0.7-0.8c0.2-0.2,0.5-0.3,0.9-0.4s0.8-0.2,1.2-0.2c0.7,0,1.2,0.1,1.7,0.3s0.9,0.4,1.1,0.8s0.4,0.7,0.5,1.3l-1.4,0.2
	c-0.1-0.4-0.2-0.8-0.5-1s-0.7-0.4-1.3-0.4s-1.1,0.1-1.4,0.3S173,82.7,173,83c0,0.2,0.1,0.3,0.2,0.5c0.1,0.2,0.3,0.3,0.5,0.4
	c0.1,0.1,0.6,0.2,1.2,0.4c1,0.3,1.7,0.5,2.1,0.7s0.7,0.4,0.9,0.7s0.3,0.7,0.3,1.2s-0.1,0.9-0.4,1.3c-0.3,0.4-0.7,0.7-1.2,1
	s-1.1,0.3-1.8,0.3c-1.1,0-1.9-0.2-2.5-0.7C171.7,88.3,171.4,87.7,171.2,86.8z"/>
<path id="XMLID_335_" class="st4" d="M182.8,88l0.2,1.2c-0.4,0.1-0.8,0.1-1.1,0.1c-0.5,0-0.9-0.1-1.2-0.2c-0.3-0.2-0.5-0.4-0.6-0.6
	c-0.1-0.3-0.2-0.8-0.2-1.7V82h-1v-1h1v-2.1l1.4-0.8V81h1.4v1.1h-1.4V87c0,0.4,0,0.7,0.1,0.8s0.1,0.2,0.2,0.3s0.3,0.1,0.5,0.1
	C182.4,88.1,182.6,88,182.8,88z"/>
<path id="XMLID_337_" class="st4" d="M189.9,86.6l1.5,0.2c-0.2,0.8-0.7,1.5-1.3,2s-1.4,0.7-2.4,0.7c-1.2,0-2.2-0.4-2.9-1.1
	s-1.1-1.8-1.1-3.1c0-1.4,0.4-2.5,1.1-3.3s1.7-1.2,2.8-1.2s2,0.4,2.7,1.1s1.1,1.8,1.1,3.2c0,0.1,0,0.2,0,0.4h-6.2
	c0.1,0.9,0.3,1.6,0.8,2.1s1,0.7,1.7,0.7c0.5,0,1-0.1,1.3-0.4S189.7,87.2,189.9,86.6z M185.3,84.3h4.6c-0.1-0.7-0.2-1.2-0.5-1.6
	c-0.4-0.5-1-0.8-1.7-0.8c-0.6,0-1.2,0.2-1.6,0.6S185.3,83.6,185.3,84.3z"/>
<path id="XMLID_340_" class="st4" d="M193.1,89.3V81h1.3v1.2c0.3-0.4,0.6-0.7,1-1s0.9-0.4,1.5-0.4s1.1,0.1,1.5,0.4s0.7,0.6,0.8,1.1
	c0.7-1,1.5-1.5,2.6-1.5c0.8,0,1.5,0.2,1.9,0.7s0.7,1.2,0.7,2.1v5.7H203V84c0-0.6,0-1-0.1-1.2s-0.3-0.4-0.5-0.6s-0.5-0.2-0.8-0.2
	c-0.6,0-1.1,0.2-1.5,0.6s-0.6,1-0.6,1.9v4.8H198v-5.4c0-0.6-0.1-1.1-0.3-1.4s-0.6-0.5-1.1-0.5c-0.4,0-0.8,0.1-1.1,0.3
	s-0.6,0.5-0.7,0.9s-0.2,1-0.2,1.7v4.3L193.1,89.3L193.1,89.3z"/>
<path id="XMLID_342_" class="st4" d="M211.9,88.2c-0.5,0.4-1,0.8-1.5,0.9c-0.5,0.2-1,0.3-1.6,0.3c-0.9,0-1.6-0.2-2.1-0.7
	c-0.5-0.4-0.7-1-0.7-1.7c0-0.4,0.1-0.8,0.3-1.1s0.4-0.6,0.7-0.8s0.6-0.4,1-0.5c0.3-0.1,0.7-0.1,1.3-0.2c1.1-0.1,2-0.3,2.5-0.5
	c0-0.2,0-0.3,0-0.4c0-0.6-0.1-1-0.4-1.2c-0.4-0.3-0.9-0.5-1.6-0.5c-0.7,0-1.1,0.1-1.5,0.3s-0.5,0.6-0.7,1.2l-1.4-0.2
	c0.1-0.6,0.3-1.1,0.6-1.4s0.7-0.6,1.2-0.8s1.2-0.3,1.9-0.3s1.3,0.1,1.7,0.3s0.8,0.4,1,0.6s0.4,0.6,0.4,1c0,0.2,0.1,0.7,0.1,1.3v1.9
	c0,1.3,0,2.1,0.1,2.5c0.1,0.3,0.2,0.7,0.4,1h-1.5C212,89,211.9,88.6,211.9,88.2z M211.7,85.1c-0.5,0.2-1.3,0.4-2.3,0.5
	c-0.6,0.1-1,0.2-1.2,0.3s-0.4,0.3-0.6,0.5s-0.2,0.4-0.2,0.7c0,0.4,0.1,0.7,0.4,0.9s0.7,0.4,1.2,0.4s1-0.1,1.4-0.4s0.7-0.6,0.9-1
	c0.2-0.3,0.2-0.8,0.2-1.4v-0.5H211.7z"/>
<path id="XMLID_345_" class="st4" d="M214.8,86.8l1.4-0.2c0.1,0.6,0.3,1,0.7,1.3s0.9,0.4,1.5,0.4s1.1-0.1,1.4-0.4s0.5-0.6,0.5-0.9
	s-0.1-0.6-0.4-0.8c-0.2-0.1-0.7-0.3-1.4-0.5c-1-0.3-1.7-0.5-2.1-0.7s-0.7-0.5-0.9-0.8s-0.3-0.7-0.3-1.1s0.1-0.7,0.3-1
	s0.4-0.6,0.7-0.8c0.2-0.2,0.5-0.3,0.9-0.4s0.8-0.2,1.2-0.2c0.7,0,1.2,0.1,1.7,0.3s0.9,0.4,1.1,0.8s0.4,0.7,0.5,1.3l-1.4,0.2
	c-0.1-0.4-0.2-0.8-0.5-1s-0.7-0.4-1.3-0.4s-1.1,0.1-1.4,0.3s-0.4,0.5-0.4,0.8c0,0.2,0.1,0.3,0.2,0.5c0.1,0.2,0.3,0.3,0.5,0.4
	c0.1,0.1,0.6,0.2,1.2,0.4c1,0.3,1.7,0.5,2.1,0.7s0.7,0.4,0.9,0.7s0.3,0.7,0.3,1.2s-0.1,0.9-0.4,1.3c-0.3,0.4-0.7,0.7-1.2,1
	s-1.1,0.3-1.8,0.3c-1.1,0-1.9-0.2-2.5-0.7C215.3,88.3,214.9,87.7,214.8,86.8z"/>
<path id="XMLID_347_" class="st4" d="M57.2,127.7v-11.5h4.3c0.8,0,1.3,0,1.7,0.1c0.6,0.1,1,0.3,1.4,0.5c0.4,0.3,0.7,0.6,0.9,1.1
	c0.2,0.5,0.3,1,0.3,1.6c0,1-0.3,1.8-0.9,2.5s-1.7,1-3.4,1h-2.9v4.7C58.6,127.7,57.2,127.7,57.2,127.7z M58.7,121.6h3
	c1,0,1.7-0.2,2.1-0.5c0.4-0.4,0.6-0.9,0.6-1.5c0-0.5-0.1-0.9-0.4-1.2c-0.2-0.3-0.6-0.6-1-0.7c-0.3-0.1-0.7-0.1-1.4-0.1h-2.9
	C58.7,117.6,58.7,121.6,58.7,121.6z"/>
<path id="XMLID_350_" class="st4" d="M67.7,127.7v-8.3H69v1.3c0.3-0.6,0.6-1,0.9-1.2s0.6-0.3,0.9-0.3c0.5,0,1,0.2,1.4,0.5l-0.5,1.3
	c-0.3-0.2-0.7-0.3-1-0.3s-0.6,0.1-0.8,0.3c-0.2,0.2-0.4,0.4-0.5,0.8c-0.2,0.5-0.2,1-0.2,1.6v4.3C69.2,127.7,67.7,127.7,67.7,127.7z"
	/>
<path id="XMLID_352_" class="st4" d="M78.5,127.7v-1.2c-0.6,0.9-1.5,1.4-2.6,1.4c-0.5,0-0.9-0.1-1.4-0.3s-0.7-0.4-0.9-0.7
	c-0.2-0.3-0.4-0.6-0.4-1c-0.1-0.3-0.1-0.7-0.1-1.3v-5.1h1.4v4.6c0,0.7,0,1.2,0.1,1.5c0.1,0.4,0.3,0.7,0.6,0.9s0.6,0.3,1.1,0.3
	s0.8-0.1,1.2-0.3c0.4-0.2,0.6-0.5,0.8-0.9c0.2-0.4,0.2-0.9,0.2-1.6v-4.4h1.4v8.3h-1.4V127.7z"/>
<path id="XMLID_354_" class="st4" d="M87.6,125l1.5,0.2c-0.2,0.8-0.7,1.5-1.3,2s-1.4,0.7-2.4,0.7c-1.2,0-2.2-0.4-2.9-1.1
	c-0.7-0.7-1.1-1.8-1.1-3.1c0-1.4,0.4-2.5,1.1-3.3s1.7-1.2,2.8-1.2c1.1,0,2,0.4,2.7,1.1c0.7,0.8,1.1,1.8,1.1,3.2c0,0.1,0,0.2,0,0.4
	h-6.2c0.1,0.9,0.3,1.6,0.8,2.1s1,0.7,1.7,0.7c0.5,0,1-0.1,1.3-0.4C87.1,126,87.4,125.6,87.6,125z M83,122.7h4.6
	c-0.1-0.7-0.2-1.2-0.5-1.6c-0.4-0.5-1-0.8-1.7-0.8c-0.6,0-1.2,0.2-1.6,0.6C83.3,121.4,83,122,83,122.7z"/>
<path id="XMLID_357_" class="st4" d="M92.1,127.7h-1.3v-11.5h1.4v4.1c0.6-0.7,1.4-1.1,2.3-1.1c0.5,0,1,0.1,1.4,0.3
	c0.5,0.2,0.8,0.5,1.1,0.9c0.3,0.4,0.5,0.8,0.7,1.3s0.3,1.1,0.3,1.7c0,1.4-0.4,2.5-1.1,3.3s-1.5,1.2-2.5,1.2s-1.7-0.4-2.3-1.2V127.7z
	 M92.1,123.4c0,1,0.1,1.7,0.4,2.2c0.4,0.7,1,1.1,1.8,1.1c0.6,0,1.1-0.3,1.6-0.8c0.4-0.5,0.7-1.3,0.7-2.4s-0.2-1.9-0.6-2.4
	s-0.9-0.8-1.6-0.8c-0.6,0-1.1,0.3-1.6,0.8C92.3,121.7,92.1,122.4,92.1,123.4z"/>
<path id="XMLID_360_" class="st4" d="M105.1,126.6c-0.5,0.4-1,0.8-1.5,0.9c-0.5,0.2-1,0.3-1.6,0.3c-0.9,0-1.6-0.2-2.1-0.7
	s-0.7-1-0.7-1.7c0-0.4,0.1-0.8,0.3-1.1s0.4-0.6,0.7-0.8s0.6-0.4,1-0.5c0.3-0.1,0.7-0.1,1.3-0.2c1.1-0.1,2-0.3,2.5-0.5
	c0-0.2,0-0.3,0-0.4c0-0.6-0.1-1-0.4-1.2c-0.4-0.3-0.9-0.5-1.6-0.5s-1.1,0.1-1.5,0.3c-0.3,0.2-0.5,0.6-0.7,1.2l-1.4-0.2
	c0.1-0.6,0.3-1.1,0.6-1.4c0.3-0.4,0.7-0.6,1.2-0.8s1.2-0.3,1.9-0.3c0.7,0,1.3,0.1,1.7,0.3c0.4,0.2,0.8,0.4,1,0.6
	c0.2,0.3,0.4,0.6,0.4,1c0,0.2,0.1,0.7,0.1,1.3v1.9c0,1.3,0,2.1,0.1,2.5c0.1,0.3,0.2,0.7,0.4,1h-1.5
	C105.3,127.4,105.2,127,105.1,126.6z M105,123.5c-0.5,0.2-1.3,0.4-2.3,0.5c-0.6,0.1-1,0.2-1.2,0.3c-0.2,0.1-0.4,0.3-0.6,0.5
	c-0.1,0.2-0.2,0.4-0.2,0.7c0,0.4,0.1,0.7,0.4,0.9s0.7,0.4,1.2,0.4s1-0.1,1.4-0.4c0.4-0.2,0.7-0.6,0.9-1c0.2-0.3,0.2-0.8,0.2-1.4
	v-0.5H105z"/>
<path id="XMLID_363_" class="st4" d="M118.5,127.7v-1c-0.5,0.8-1.3,1.2-2.3,1.2c-0.7,0-1.3-0.2-1.8-0.5c-0.6-0.4-1-0.9-1.3-1.5
	c-0.3-0.7-0.5-1.4-0.5-2.3c0-0.8,0.1-1.6,0.4-2.3c0.3-0.7,0.7-1.2,1.2-1.6s1.2-0.5,1.9-0.5c0.5,0,0.9,0.1,1.3,0.3s0.7,0.5,1,0.8
	v-4.1h1.4v11.5H118.5z M114,123.5c0,1.1,0.2,1.9,0.7,2.4c0.4,0.5,1,0.8,1.6,0.8s1.1-0.3,1.6-0.8c0.4-0.5,0.6-1.3,0.6-2.3
	c0-1.1-0.2-2-0.7-2.5s-1-0.8-1.6-0.8s-1.1,0.3-1.6,0.8C114.2,121.6,114,122.4,114,123.5z"/>
<path id="XMLID_366_" class="st4" d="M127.6,125l1.5,0.2c-0.2,0.8-0.7,1.5-1.3,2c-0.6,0.5-1.4,0.7-2.4,0.7c-1.2,0-2.2-0.4-2.9-1.1
	c-0.7-0.7-1.1-1.8-1.1-3.1c0-1.4,0.4-2.5,1.1-3.3s1.7-1.2,2.8-1.2c1.1,0,2,0.4,2.7,1.1c0.7,0.8,1.1,1.8,1.1,3.2c0,0.1,0,0.2,0,0.4
	H123c0.1,0.9,0.3,1.6,0.8,2.1s1,0.7,1.7,0.7c0.5,0,1-0.1,1.3-0.4C127.1,126,127.4,125.6,127.6,125z M123,122.7h4.6
	c-0.1-0.7-0.2-1.2-0.5-1.6c-0.4-0.5-1-0.8-1.7-0.8c-0.6,0-1.2,0.2-1.6,0.6C123.3,121.4,123.1,122,123,122.7z"/>
<path id="XMLID_369_" class="st4" d="M140.7,126.6c-0.5,0.4-1,0.8-1.5,0.9c-0.5,0.2-1,0.3-1.6,0.3c-0.9,0-1.6-0.2-2.1-0.7
	s-0.7-1-0.7-1.7c0-0.4,0.1-0.8,0.3-1.1s0.4-0.6,0.7-0.8s0.6-0.4,1-0.5c0.3-0.1,0.7-0.1,1.3-0.2c1.1-0.1,2-0.3,2.5-0.5
	c0-0.2,0-0.3,0-0.4c0-0.6-0.1-1-0.4-1.2c-0.4-0.3-0.9-0.5-1.6-0.5c-0.7,0-1.1,0.1-1.5,0.3c-0.3,0.2-0.5,0.6-0.7,1.2l-1.4-0.2
	c0.1-0.6,0.3-1.1,0.6-1.4c0.3-0.4,0.7-0.6,1.2-0.8s1.2-0.3,1.9-0.3s1.3,0.1,1.7,0.3c0.4,0.2,0.8,0.4,1,0.6c0.2,0.3,0.4,0.6,0.4,1
	c0,0.2,0.1,0.7,0.1,1.3v1.9c0,1.3,0,2.1,0.1,2.5c0.1,0.3,0.2,0.7,0.4,1H141C140.9,127.4,140.8,127,140.7,126.6z M140.6,123.5
	c-0.5,0.2-1.3,0.4-2.3,0.5c-0.6,0.1-1,0.2-1.2,0.3c-0.2,0.1-0.4,0.3-0.6,0.5c-0.1,0.2-0.2,0.4-0.2,0.7c0,0.4,0.1,0.7,0.4,0.9
	s0.7,0.4,1.2,0.4s1-0.1,1.4-0.4c0.4-0.2,0.7-0.6,0.9-1c0.2-0.3,0.2-0.8,0.2-1.4v-0.5H140.6z"/>
<path id="XMLID_372_" class="st4" d="M149.6,124.6l1.4,0.2c-0.2,1-0.5,1.7-1.2,2.2s-1.4,0.8-2.3,0.8c-1.1,0-2-0.4-2.7-1.1
	s-1-1.8-1-3.2c0-0.9,0.1-1.7,0.4-2.4s0.7-1.2,1.4-1.5s1.3-0.5,2-0.5c0.9,0,1.6,0.2,2.2,0.7c0.6,0.5,0.9,1.1,1.1,1.9l-1.4,0.2
	c-0.1-0.6-0.4-1-0.7-1.3s-0.7-0.4-1.2-0.4c-0.7,0-1.3,0.3-1.7,0.8s-0.7,1.3-0.7,2.4s0.2,1.9,0.6,2.4c0.4,0.5,1,0.8,1.7,0.8
	c0.6,0,1-0.2,1.4-0.5C149.3,125.8,149.5,125.3,149.6,124.6z"/>
<path id="XMLID_374_" class="st4" d="M157.9,125l1.5,0.2c-0.2,0.8-0.7,1.5-1.3,2s-1.4,0.7-2.4,0.7c-1.2,0-2.2-0.4-2.9-1.1
	s-1.1-1.8-1.1-3.1c0-1.4,0.4-2.5,1.1-3.3c0.7-0.8,1.7-1.2,2.8-1.2s2,0.4,2.7,1.1c0.7,0.8,1.1,1.8,1.1,3.2c0,0.1,0,0.2,0,0.4h-6.2
	c0.1,0.9,0.3,1.6,0.8,2.1s1,0.7,1.7,0.7c0.5,0,1-0.1,1.3-0.4C157.4,126,157.7,125.6,157.9,125z M153.3,122.7h4.6
	c-0.1-0.7-0.2-1.2-0.5-1.6c-0.4-0.5-1-0.8-1.7-0.8c-0.6,0-1.2,0.2-1.6,0.6C153.6,121.4,153.3,122,153.3,122.7z"/>
<path id="XMLID_377_" class="st4" d="M161.1,130.8v-11.5h1.3v1.1c0.3-0.4,0.6-0.7,1-0.9s0.8-0.3,1.4-0.3c0.7,0,1.3,0.2,1.9,0.5
	c0.5,0.4,1,0.9,1.2,1.5s0.4,1.4,0.4,2.2c0,0.8-0.2,1.6-0.5,2.3s-0.7,1.2-1.3,1.6s-1.2,0.5-1.8,0.5c-0.5,0-0.9-0.1-1.3-0.3
	c-0.4-0.2-0.7-0.4-0.9-0.8v4h-1.4V130.8z M162.4,123.6c0,1.1,0.2,1.9,0.6,2.4c0.4,0.5,1,0.8,1.6,0.8s1.2-0.3,1.6-0.8
	c0.4-0.5,0.7-1.3,0.7-2.5c0-1.1-0.2-1.8-0.7-2.4c-0.4-0.5-1-0.8-1.6-0.8s-1.1,0.3-1.6,0.8C162.6,121.7,162.4,122.5,162.4,123.6z"/>
<path id="XMLID_380_" class="st4" d="M173.1,126.4l0.2,1.2c-0.4,0.1-0.8,0.1-1.1,0.1c-0.5,0-0.9-0.1-1.2-0.2
	c-0.3-0.2-0.5-0.4-0.6-0.6c-0.1-0.3-0.2-0.8-0.2-1.7v-4.8h-1v-1.1h1v-2.1l1.4-0.8v2.9h1.4v1.1h-1.4v4.9c0,0.4,0,0.7,0.1,0.8
	c0,0.1,0.1,0.2,0.2,0.3c0.1,0.1,0.3,0.1,0.5,0.1C172.6,126.5,172.8,126.4,173.1,126.4z"/>
<path id="XMLID_382_" class="st4" d="M179.9,126.6c-0.5,0.4-1,0.8-1.5,0.9c-0.5,0.2-1,0.3-1.6,0.3c-0.9,0-1.6-0.2-2.1-0.7
	s-0.7-1-0.7-1.7c0-0.4,0.1-0.8,0.3-1.1s0.4-0.6,0.7-0.8s0.6-0.4,1-0.5c0.3-0.1,0.7-0.1,1.3-0.2c1.1-0.1,2-0.3,2.5-0.5
	c0-0.2,0-0.3,0-0.4c0-0.6-0.1-1-0.4-1.2c-0.4-0.3-0.9-0.5-1.6-0.5c-0.7,0-1.1,0.1-1.5,0.3c-0.3,0.2-0.5,0.6-0.7,1.2l-1.4-0.2
	c0.1-0.6,0.3-1.1,0.6-1.4c0.3-0.4,0.7-0.6,1.2-0.8s1.2-0.3,1.9-0.3s1.3,0.1,1.7,0.3c0.4,0.2,0.8,0.4,1,0.6c0.2,0.3,0.4,0.6,0.4,1
	c0,0.2,0.1,0.7,0.1,1.3v1.9c0,1.3,0,2.1,0.1,2.5c0.1,0.3,0.2,0.7,0.4,1h-1.5C180,127.4,179.9,127,179.9,126.6z M179.8,123.5
	c-0.5,0.2-1.3,0.4-2.3,0.5c-0.6,0.1-1,0.2-1.2,0.3c-0.2,0.1-0.4,0.3-0.6,0.5c-0.1,0.2-0.2,0.4-0.2,0.7c0,0.4,0.1,0.7,0.4,0.9
	s0.7,0.4,1.2,0.4s1-0.1,1.4-0.4c0.4-0.2,0.7-0.6,0.9-1c0.2-0.3,0.2-0.8,0.2-1.4v-0.5H179.8z"/>
<path id="XMLID_385_" class="st4" d="M188.8,124.6l1.4,0.2c-0.2,1-0.5,1.7-1.2,2.2s-1.4,0.8-2.3,0.8c-1.1,0-2-0.4-2.7-1.1
	s-1-1.8-1-3.2c0-0.9,0.1-1.7,0.4-2.4s0.7-1.2,1.4-1.5s1.3-0.5,2-0.5c0.9,0,1.6,0.2,2.2,0.7c0.6,0.5,0.9,1.1,1.1,1.9l-1.4,0.2
	c-0.1-0.6-0.4-1-0.7-1.3s-0.7-0.4-1.2-0.4c-0.7,0-1.3,0.3-1.7,0.8s-0.7,1.3-0.7,2.4s0.2,1.9,0.6,2.4c0.4,0.5,1,0.8,1.7,0.8
	c0.6,0,1-0.2,1.4-0.5C188.4,125.8,188.7,125.3,188.8,124.6z"/>
<path id="XMLID_387_" class="st4" d="M191.4,117.8v-1.6h1.4v1.6H191.4z M191.4,127.7v-8.3h1.4v8.3H191.4z"/>
<path id="XMLID_390_" class="st4" d="M194.4,123.5c0-1.5,0.4-2.7,1.3-3.4c0.7-0.6,1.6-0.9,2.6-0.9c1.1,0,2.1,0.4,2.8,1.1
	s1.1,1.8,1.1,3.1c0,1.1-0.2,1.9-0.5,2.5s-0.8,1.1-1.4,1.4c-0.6,0.3-1.3,0.5-2,0.5c-1.2,0-2.1-0.4-2.8-1.1
	C194.7,126,194.4,124.9,194.4,123.5z M195.8,123.5c0,1.1,0.2,1.9,0.7,2.4s1,0.8,1.8,0.8c0.7,0,1.3-0.3,1.7-0.8s0.7-1.3,0.7-2.4
	c0-1-0.2-1.8-0.7-2.3s-1-0.8-1.7-0.8s-1.3,0.3-1.8,0.8C196.1,121.6,195.8,122.4,195.8,123.5z M197.5,118.3l1-2.2h1.8l-1.7,2.2H197.5
	z"/>
<path id="XMLID_394_" class="st4" d="M203.8,127.7v-8.3h1.3v1.2c0.6-0.9,1.5-1.4,2.6-1.4c0.5,0,1,0.1,1.4,0.3s0.7,0.4,0.9,0.7
	c0.2,0.3,0.4,0.6,0.4,1c0.1,0.3,0.1,0.7,0.1,1.4v5.1h-1.4v-5c0-0.6-0.1-1-0.2-1.3c-0.1-0.3-0.3-0.5-0.6-0.7s-0.6-0.3-1-0.3
	c-0.6,0-1.1,0.2-1.6,0.6c-0.4,0.4-0.7,1.1-0.7,2.2v4.5L203.8,127.7L203.8,127.7z"/>
<g id="XMLID_11969_">
	<path id="XMLID_11970_" class="st5" d="M32.9,40.5c-6,0-11,4.9-11,11c0,6,4.9,10.9,11,10.9c6,0,11-4.9,11-10.9
		C43.9,45.4,39,40.5,32.9,40.5z M32.9,57.9c-3.6,0-6.4-2.9-6.4-6.4c0-3.6,2.9-6.4,6.4-6.4c3.6,0,6.4,2.9,6.4,6.4
		C39.3,55,36.5,57.9,32.9,57.9z"/>
	<g id="XMLID_11973_">
		<polygon id="XMLID_11974_" class="st6" points="32.1,58.7 22.5,49.1 26,45.6 32,51.6 45.5,37.1 49.1,40.4 		"/>
	</g>
</g>
<g id="XMLID_11993_">
	<path id="XMLID_11994_" class="st5" d="M32.9,75.3c-6,0-11,4.9-11,10.9s4.9,10.9,11,10.9c6,0,11-4.9,11-10.9
		C43.9,80.2,39,75.3,32.9,75.3z M32.9,92.7c-3.6,0-6.4-2.9-6.4-6.4c0-3.6,2.9-6.4,6.4-6.4c3.6,0,6.4,2.9,6.4,6.4
		C39.3,89.8,36.5,92.7,32.9,92.7z"/>
	<g id="XMLID_11997_">
		<polygon id="XMLID_11998_" class="st6" points="32.1,93.5 22.5,83.9 26,80.4 32,86.4 45.5,71.9 49.1,75.3 		"/>
	</g>
</g>
<g id="XMLID_11999_">
	<path id="XMLID_12000_" class="st5" d="M32.9,111.1c-6,0-11,4.9-11,11c0,6,4.9,11,11,11c6,0,11-4.9,11-11S39,111.1,32.9,111.1z
		 M32.9,128.5c-3.6,0-6.4-2.9-6.4-6.4c0-3.6,2.9-6.4,6.4-6.4c3.6,0,6.4,2.9,6.4,6.4C39.3,125.6,36.5,128.5,32.9,128.5z"/>
	<g id="XMLID_12003_">
		<polygon id="XMLID_12004_" class="st6" points="32.1,129.3 22.5,119.7 26,116.2 32,122.2 45.5,107.7 49.1,111.1 		"/>
	</g>
</g>
<path id="XMLID_1_" class="st4" d="M232.5,51v-1.6h1.6V51H232.5z"/>
<path id="XMLID_2_" class="st4" d="M224.4,89.5v-1.6h1.6v1.6H224.4z"/>
<path id="XMLID_3_" class="st4" d="M213.2,127.7v-1.6h1.6v1.6H213.2z"/>
</svg>
