<?xml version="1.0" encoding="utf-8"?>
<!-- Generator: Adobe Illustrator 21.0.0, SVG Export Plug-In . SVG Version: 6.00 Build 0)  -->
<svg version="1.1" id="Capa_1" xmlns="http://www.w3.org/2000/svg" xmlns:xlink="http://www.w3.org/1999/xlink" x="0px" y="0px"
	 viewBox="0 0 273.3352 450.7191" style="enable-background:new 0 0 273.3352 450.7191;" xml:space="preserve">
<style type="text/css">
	.st0{fill:#808589;stroke:#656C70;stroke-width:1.1349;stroke-miterlimit:10;}
	.st1{fill:#1A1B1C;stroke:#000000;stroke-width:1.1349;stroke-miterlimit:10;}
	.st2{fill:#A0A6AA;}
	.st3{fill:#252728;stroke:#000000;stroke-width:1.1349;stroke-miterlimit:10;}
	.st4{fill:#871826;stroke:#EF4136;stroke-width:1.2101;stroke-miterlimit:10;}
	.st5{fill:#2A424F;stroke:#0B5675;stroke-width:1.2101;stroke-miterlimit:10;}
	.st6{fill:#574A35;stroke:#4C3617;stroke-width:1.2101;stroke-miterlimit:10;}
	.st7{fill:#EADED4;stroke:#939598;stroke-width:1.2101;stroke-miterlimit:10;}
	.st8{fill:#FFC691;stroke:#F1B486;stroke-width:1.2101;stroke-miterlimit:10;}
	.st9{fill:#574A35;}
	.st10{fill:#F1B486;}
	.st11{fill:#231F20;}
	.st12{fill:#E63B17;stroke:#BE1E2D;stroke-width:1.2101;stroke-miterlimit:10;}
	.st13{fill:#253275;stroke:#1C75BC;stroke-width:1.2101;stroke-miterlimit:10;}
	.st14{fill:#1C2859;}
	.st15{fill:#18252B;}
	.st16{fill:none;stroke:#0B5675;stroke-width:1.2101;stroke-linecap:round;stroke-linejoin:round;stroke-miterlimit:10;}
	.st17{fill:#BE1E2D;stroke:#EF4136;stroke-width:1.2101;stroke-miterlimit:10;}
	.st18{fill:#FFFFFF;stroke:#6D6E71;stroke-width:1.2101;stroke-miterlimit:10;}
	.st19{fill:none;stroke:#F1B486;stroke-width:1.2101;stroke-linecap:round;stroke-linejoin:round;stroke-miterlimit:10;}
	.st20{fill:none;stroke:#231F20;stroke-width:1.2101;stroke-miterlimit:10;}
	.st21{fill:none;stroke:#4C3617;stroke-width:1.2101;stroke-linecap:round;stroke-linejoin:round;stroke-miterlimit:10;}
	.st22{fill:#FFFFFF;}
	.st23{fill:#343432;}
	.st24{fill:#FFC691;stroke:#F1B486;stroke-width:1.2101;stroke-linecap:round;stroke-linejoin:round;stroke-miterlimit:10;}
	.st25{fill:none;stroke:#D69F7B;stroke-width:1.2101;stroke-linecap:round;stroke-linejoin:round;stroke-miterlimit:10;}
	.st26{fill:#75654E;}
	.st27{fill:#4C3617;}
	.st28{fill:#C6465C;}
	.st29{fill:#ED9283;}
</style>
<g id="XMLID_16233_">
	<rect id="XMLID_3_" x="185.4704" y="347.4193" class="st0" width="8.501" height="38.6797"/>
	<circle class="st1" cx="189.7206" cy="425.9562" r="10.689"/>
	<circle class="st1" cx="221.1569" cy="423.8637" r="10.2011"/>
	<circle class="st1" cx="158.3022" cy="423.8637" r="10.2014"/>
	<circle class="st2" cx="189.7206" cy="425.9565" r="7.4739"/>
	<circle class="st2" cx="221.1571" cy="423.8637" r="6.634"/>
	<circle class="st2" cx="158.3024" cy="423.8637" r="6.6337"/>
	<circle class="st1" cx="189.6986" cy="424.8588" r="6.3762"/>
	<circle class="st1" cx="221.1571" cy="423.1722" r="5.5579"/>
	<circle class="st1" cx="158.3022" cy="423.1725" r="5.3814"/>
	<path id="XMLID_16234_" class="st2" d="M193.405,350.8041c0,0-6.4736-2.5049-6.0703,4.0342v28.3398
		c0,0-1.0908,1.5576,5.1113,2.2393h-6.1914l-0.2832-36.5957h7.499L193.405,350.8041z"/>
	<path id="XMLID_16235_" class="st0" d="M226.7154,400.3558c-1.5703-8.1962-17.3535-8.1093-17.3535-8.1093h-9.1123v-4.545
		c0-0.8847-0.7168-1.6025-1.6025-1.6025h-18.1153c-0.8847,0-1.6015,0.7178-1.6015,1.6025v4.545h-13.3418
		c-14.0391,0-12.5899,10.29-12.5899,10.29v12.8613c0,1.7032,1.3819,3.085,3.085,3.085H160.4c1.7041,0,3.085-1.3818,3.085-3.085
		v-1.1689c0,0.0762,0-1.085,0-4.8037c0-10.2901,6.8125-9.6787,6.8125-9.6787l14.0498-0.0635v16.875
		c0,1.0635,0.8603,1.9248,1.9238,1.9248h6.6377c1.0625,0,1.9238-0.8613,1.9238-1.9248v-16.9219l14.3555-0.0644
		c5.3643,0,6.3574,4.8281,6.5068,7.4179v9.3516c0,1.1816,0.959,2.1416,2.1416,2.1416h6.2022c1.1826,0,2.1416-0.96,2.1416-2.1416
		v-15.5c0-0.0274-0.0069-0.0527-0.0078-0.0791L226.7154,400.3558z"/>
	<path id="XMLID_16236_" class="st2" d="M189.8365,394.9935c0,0-5.1513-0.458-4.955,4.251l-0.0059,16.0879
		c0,0-0.6484,3.0869,3.0801,2.459c0,0-1.1778,0.0918-1.7656-2.8516l-0.1319-15.7607
		C186.0582,399.1791,186.6803,395.9096,189.8365,394.9935z"/>
	<path id="XMLID_16237_" class="st2" d="M189.7204,386.6879h-8.0439c0,0-2.8115-0.6533-2.1572,2.747l-0.0987,3.4004l2.6485-4.5127
		L189.7204,386.6879z"/>
	<path id="XMLID_16238_" class="st2" d="M160.9449,393.3588c0,0-7.5859,0.7187-7.2588,10.333l-0.0107,10.791
		c0,0-1.2324,3.7275,4.5879,3.2695c0,0-2.5498-0.8506-2.2881-6.1474l0.1309-10.7246
		C156.1061,400.8803,155.9099,397.0209,160.9449,393.3588z"/>
	<path id="XMLID_16239_" class="st3" d="M195.1432,348.2885h-11.1065c-1.4677,0-2.6758-1.1524-2.7461-2.6182l-1.9687-10.4678
		h20.5351l-1.9677,10.4678C197.8199,347.1361,196.6109,348.2885,195.1432,348.2885z"/>
	<path id="XMLID_16240_" class="st4" d="M222.8971,107.5228c0,3.5938-3.4473,6.5069-7.6983,6.5069
		c-4.2509,0-7.6982-2.9131-7.6982-6.5069c0-3.5927,0-7.9394,7.6982-6.5058C219.4498,101.017,224.8004,103.3695,222.8971,107.5228z"
		/>
	<path id="XMLID_16241_" class="st5" d="M126.8971,422.9457c0.1387-0.041,1.9922,0.3457,2.417,1.3408
		c0.3896,0.9131,0.3183,2.1133-1.4004,2.0029c-1.7178-0.1113-2.3643-0.1113-2.4756-1.0166
		C125.3277,424.3685,126.5338,423.0512,126.8971,422.9457z"/>
	<ellipse class="st5" cx="93.3637" cy="415.4592" rx="3.3706" ry="2.314"/>
	<path id="XMLID_16242_" class="st6" d="M147.7672,21.3334c0,0-5.4023,4.0439-4.2637,9.1318
		c1.1397,5.0869,0.7998,5.8555,2.1153,10.167c1.3154,4.3115-0.9756,8.6016,3.6064,8.7471c4.5801,0.1455,9.166-5.002,10.0801-6.5518
		C160.2193,41.2787,151.8443,19.4662,147.7672,21.3334z"/>
	<path id="XMLID_16243_" class="st7" d="M50.8033,433.639c0,0-0.8506,9.6377,1.1338,10.7706
		c1.9844,1.1337,15.9112,5.3847,25.2451,5.6689c9.333,0.2832,18.9698-1.1338,22.9375-3.9678
		c3.9688-2.834,5.3848-3.3662,6.8028-4.2344c1.417-0.8681,5.1015,1.1514,9.0703,0c3.9678-1.1513,13.6045-3.9853,12.7539-9.371
		c-0.8496-5.3848-1.1934-7.7793-1.1934-7.7793l-12.6943-12.2696c0,0-17.166,1.6201-18.2578,1.4063
		c-1.0928-0.2149-5.8262,4.4209-5.8262,4.4209s-11.6289,4.9902-17.581,7.3388C67.2418,427.9701,55.1129,432.2055,50.8033,433.639z"
		/>
	<path id="XMLID_16244_" class="st8" d="M204.4928,75.5238c0,0.6387,8.5439,32.3594,10.543,34.9932
		c2,2.6328-8.629,27.0488-11.8174,27.0635c-3.1885,0.0156-36.9629,11.0693-36.9629,11.0693s-4.4893-28.5781-5.0205-29.169
		c-0.5313-0.5908,21.1513-12.2822,21.789-12.4951c0.6377-0.2129,17.8555-12.7539,18.2813-14.4551
		C201.7301,90.8295,204.4928,75.5238,204.4928,75.5238z"/>
	<path id="XMLID_16245_" class="st9" d="M223.2526,105.1547"/>
	<path id="XMLID_16246_" class="st10" d="M205.112,78.1791c0,0,7.9492,29.8887,8.9717,30.2969
		c1.0225,0.4091,1.7471,4.9052,1.8916,5.5537c0.1455,0.6484-13.1797,8.1797-13.1797,8.1797s-4.0556-5.835-3.331-8.4219
		c0.7236-2.586,4.915-12.4346,4.915-12.4346s-9.3711,15.9961-20.1055,19.3672c-10.7353,3.373-16.4677-2.1318-17.5117-2.1318
		c-1.0449,0,3.5069-7.6768,3.5069-7.6768s17.3505-10.7178,17.9853-11.2969C188.8913,99.0346,205.112,78.1791,205.112,78.1791z"/>
	<path id="XMLID_16247_" class="st11" d="M162.6169,323.1722l1.2754,12.1172c0,0,0,5.1006,6.5898,5.3135
		c6.5899,0.2129,35.5,1.2754,38.2627,0c2.7637-1.2744,8.0782-2.3379,8.0782-7.0137c0-4.6777,0-10.417,0-10.417l-26.795-5.7392
		L162.6169,323.1722z"/>
	<path id="XMLID_16248_" class="st7" d="M1.4869,412.4564c0,0-1.9843,6.4444,0,8.1446c1.9834,1.7011,16.4385,5.4336,25.792,4.9843
		c9.3526-0.4492,15.3047-1.582,17.5723-3.2832c2.2676-1.7011,3.9678-4.2578,5.9521-3.2627
		c1.9844,0.9952,5.3155,5.1768,13.5352,4.043c8.2187-1.1348,12.8183-5.3857,12.5391-11.7627
		c-0.0889-2.0508,0.2851-3.8975-1.211-6.4404c-1.6523-2.8086-7.6445-1.6729-8.708-1.8506
		c-1.7002-0.2832-21.541,2.5508-22.3906,2.5508c-0.8506,0-26.3594,6.8769-26.3594,6.8769H1.4869z"/>
	<path id="XMLID_16249_" class="st12" d="M125.6285,427.1205c0,0-1.9834,4.2519-9.3525,5.6689
		c-7.3692,1.417-10.4863,0.8496-15.5889,2.835c-5.1025,1.9834-8.2197,7.6523-16.4385,6.8018
		c-8.2158-0.8506-31.7207,0.5654-33.4423-8.7725c-0.002-0.0078-0.0186-0.0078-0.0176-0.0156
		c0.0117-0.1739,2.5556-3.8741,14.6963-6.4444c12.4531-2.6357,27.5-10.9043,28.9414-13.2832
		c1.4433-2.3789,7.5625,3.5674,12.247,4.4825c4.6846,0.916,7.7706,7.0283,11.6045,6.5312c4.462-0.5771,9.2754-0.1982,9.2754-0.1982
		L125.6285,427.1205z"/>
	<path id="XMLID_16250_" class="st12" d="M46.3766,391.1713c0,0-4.9268,5.9052-9.7451,7.3232
		c-4.8184,1.417-13.6045,3.9277-17.8555,4.5147c-4.252,0.5869-9.6367,0.3027-13.3213,3.1367
		c-3.6855,2.8349-7.6533,6.7021-1.417,8.1699c6.2354,1.4678,18.1387,3.8535,26.6416,4.0772
		c8.5039,0.2246,15.3057-2.3262,15.0225-2.6094c-0.2842-0.2832,0.2832-2.9698,1.9843-3.3272
		c1.7002-0.3574-0.8505,1.8096,5.1016,1.8594c5.9522,0.0508,14.793-1.0322,18.9893-2.9883c4.1972-1.957,5.3857-4.8965,5.3857-4.8965
		s-11.4629-12.9463-17.5742-14.4306C51.1217,388.892,46.3766,391.1713,46.3766,391.1713z"/>
	<path id="XMLID_16251_" class="st13" d="M146.8864,317.433c0,0,9.9913,9.5654,34.8623,9.5654
		c24.8711,0,49.3165-3.1885,54.8438-4.7832c5.5273-1.5937,19.3437-3.9326,20.4072-14.5605
		c1.0625-10.6289,1.2754-15.9434-4.4648-18.0694c-5.7393-2.1259-79.0772,2.7637-79.0772,2.7637L146.8864,317.433z"/>
	<path id="XMLID_16252_" class="st14" d="M241.1061,284.7826l13.4687,4.6152c0,0,4.5684,8.7969,0.6377,9.7959
		c-3.9307,0.9991-32.7783,1.9034-42.6064,0.92c-9.8282-0.9834-19.6846,1.3759-25.2715,3.538
		c-5.5879,2.1621-22.8164,7.8623-24.7178,11.4004c-1.9014,3.5371-7.0322,7.4082-7.0322,7.4082s-9.4561-4.7724-9.7295-6.582
		c-0.2744-1.8096-2.043-15.7969-0.8643-16.5674c1.1797-0.7695,22.0137-12.7597,22.6035-12.3662
		c0.5899,0.3926,28.501-4.9141,29.6797-5.1103c1.1797-0.1963,18.4766-2.0977,18.4766-2.0977L241.1061,284.7826z"/>
	<path id="XMLID_16253_" class="st5" d="M261.3922,253.3773c0,0,3.1182,14.7383,1.9844,20.6905
		c-1.1338,5.9521-1.1338,20.124-16.1553,20.9736c-15.0225,0.8506-37.5391-2.2666-43.2861-0.8496
		c-5.7481,1.417-28.7061,7.3691-32.958,8.7861c-4.251,1.418-17.295,10.252-17.2881,14.4551
		c0.0068,4.2031,2.2676,4.8183,1.7002,8.2187c-0.5664,3.4024-2.9951,1.7012-3.3399,5.669
		c-0.3447,3.9687-0.9121,7.0859-2.0449,13.0381c-1.1338,5.9521-8.7861,24.9414-11.9043,29.4765
		c-3.1182,4.5352-7.0859,16.1553-7.9365,18.9903c-0.8496,2.834-2.834,2.2675-2.2666,5.6689
		c0.5664,3.4014,2.5508,4.8174,2.5508,8.7861c0,3.9678-2.752,4.5342-2.6514,8.2198c0.1006,3.6836,1.5176,8.7861,1.5176,8.7861
		s-5.9522,1.7793-11.6211,1.1729c-5.669-0.6065-11.3369-7.125-18.4229-9.959c-7.0859-2.835-8.5039-1.7002-8.5039-1.7002
		s1.418-6.8028,1.7012-12.7549c0.2832-5.9522,1.417-21.541-0.2832-26.3594c-1.7002-4.8183-2.2676-10.8838-1.418-14.6533
		c0.8516-3.7695,2.835-6.6045,1.7012-10.8555c-1.1328-4.2519-1.0645-6.8017-2.0908-12.1875
		c-1.0264-5.3857,1.2412-18.1396,1.2412-22.6748c0-4.5351,0.8496-9.9189,0.8496-9.9189s-7.9356,3.4004-10.7695,6.2344
		c-2.835,2.8349-4.252,1.1347-2.5518,8.5039c1.7002,7.3691,4.252,13.4853,1.7002,20.3466
		c-2.5498,6.8623-6.8018,11.1133-6.5186,17.6329c0.2842,6.5185,4.252,12.7539,3.1182,15.5878
		c-1.1338,2.835-5.1016,7.2012-4.8183,9.2686c0.2832,2.0684-0.8506,9.7217,1.1337,12.5557
		c1.9844,2.8349,4.5352,9.9199,3.4014,11.9052c-1.1338,1.9834-3.1182-2.2685-9.3535-8.7871
		c-6.2354-6.5185-18.1397-7.9365-22.1074-6.2363c0,0,1.1338-5.2695,0-9.4375c-1.1338-4.166-0.2842-5.8672,0-10.6855
		c0.2832-4.8184-2.5508-22.3907-3.4014-26.3594c-0.8506-3.9668,0.8506-13.1787-0.8506-17.9268
		c-1.7002-4.7471-5.668-21.7529-6.2353-28.2715c-0.5664-6.5195,0-16.4394,9.6367-22.958
		c9.6367-6.5195,46.1992-22.6748,56.9697-27.2099c10.7705-4.5352,16.7227-3.4014,20.6904-5.9522
		c3.9678-2.5508,14.1719-5.9512,15.3057-5.9512c1.1328,0,56.4023,6.8018,56.4023,6.8018s50.168,15.8721,53.002,17.0059
		C250.0553,261.5971,261.3922,253.3773,261.3922,253.3773z"/>
	<path id="XMLID_16254_" class="st15" d="M261.8951,257.5863l0.6885,6.1035c0,0-4.7861,3.8057-7.331,5.0772
		c-2.545,1.2724-7.918,6.3633-17.6749,3.9599c-9.7558-2.4043-25.4306-11.3125-35.3388-13.292
		c-9.9082-1.9785-9.9815-7.0693-24.084-7.2109c-14.1035-0.1416-38.2988-6.833-43.5986-8.4844
		c-5.2998-1.6504-9.6719-4.8076-9.2481-5.2314c0.4238-0.4238,15.5537-7.211,15.9776-7.211c0.4248,0,40.5371,9.7559,40.5371,9.7559
		l42.3672,16.9678c0,0,22.1542,1.1308,22.5781,0.9902C247.193,258.8695,261.8951,257.5863,261.8951,257.5863z"/>
	<path id="XMLID_16255_" class="st16" d="M179.7643,255.0785c-1.1338,0-28.4639,10.4863-34.7803,13.0371
		c-6.3174,2.5518-28.708,8.7871-33.5264,12.4707c-4.8183,3.6856-13.6045,5.9522-15.873,13.3213
		c-2.2666,7.3691-3.1172,10.4883-3.1172,10.4883"/>
	<path id="XMLID_16256_" class="st17" d="M223.2526,105.1547c0,0,1.5771,7.9248,2.1445,8.7754
		c0.5664,0.8496,15.3047,14.7382,18.9902,18.1386c3.6836,3.4014,11.6201,13.3213,15.3047,16.1553
		c3.6846,2.835,3.4004,2.2686,5.1016,11.6211c1.7011,9.3535,5.1015,22.958,6.2353,28.3437
		c1.1338,5.3848,1.7012,11.9043,1.7012,15.3047c0,3.4014-24.7393-6.8017-24.7393-6.8017s7.2159,38.8291,9.6006,44.498
		c2.3838,5.668,8.335,9.0694,7.7686,13.8887c-0.5664,4.8174-15.8721,16.7217-24.9414,15.0215
		c-9.0694-1.7002-41.9473-18.9903-46.4825-18.9903c-4.5351,0-25.2255-3.1171-33.4453-4.8183
		c-8.2187-1.7002-17.5722-5.9522-24.375-5.668c-6.8017,0.2832-8.2187-10.2041-8.2187-10.2041s10.2031-71.707,9.9199-72.5586
		c-0.2842-0.8496,4.8184-23.5244,4.8184-23.5244s23.2412,6.5186,38.83-2.5508c15.5879-9.0693,32.4522-18.1396,35.3575-23.5254
		C219.7281,102.8754,222.612,102.0902,223.2526,105.1547z"/>
	<path id="XMLID_16257_" class="st8" d="M149.862,24.849c-0.2148,0.5996-2.9756,1.7842-2.3379,12.8379
		c0.6377,11.0527,1.0332,16.1553-0.455,20.1943c-1.4883,4.0391-7.6231,20.4073-7.4102,27.4209
		c0.2129,7.0157,7.4307,31.794,11.5801,34.1787c4.1504,2.3838,33.4902,2.6573,45.8144-11.6455c0,0,9.7784-10.6289,8.5039-23.1699
		c-1.2754-12.542-2.3388-20.6201-2.3388-20.6201s1.4873-20.4902-9.5655-28.5684c-11.0546-8.0781-13.6054-18.0683-16.581-18.706
		C174.0963,16.1322,151.2428,20.9916,149.862,24.849z"/>
	<path id="XMLID_16258_" class="st8" d="M170.9079,105.1547c-0.8506,0.3427-16.3691-1.7871-17.0068-1.7852
		c-0.6367,0.002-8.2901-2.5488-11.2656,3.6162c-2.9766,6.1641-12.8418,36.1367-12.2666,37.4121
		c0.5752,1.2764-2.4717,4.8897-2.4717,4.8897s-37.9805,38.7822-36.917,48.6201c1.0635,9.8379-0.4258,26.2051,16.5801,26.418
		c17.0068,0.2129,23.79-6.5899,26.5625-17.8565c2.7724-11.2666,10.4257-28.0595,10.6377-33.5859
		c0.2129-5.5264,4.2519-14.8799,2.9765-19.7695c0,0,11.4785,1.2753,13.6045-9.3526c0,0,1.9131-7.166,0-7.167
		c0,0,2.126,0.5762,4.8887,0.7891c0,0-2.9756,11.0537,2.126,13.3916c0,0,8.7158-6.5889,7.4404-14.667
		c0,0,2.3379-2.5508,1.2754-5.5264c0,0,2.5068-3.4013-0.1084-5.5273c0,0-2.6553-9.9903-6.6943-11.4785
		c0,0,4.4648-1.0635,3.6142-3.8272C173.0329,106.9857,170.9079,105.1547,170.9079,105.1547z"/>
	<path id="XMLID_16259_" class="st10" d="M161.2253,141.2289c0,0-0.4609,4.6924-2.4268,5.2949
		c-1.9658,0.6035-6.4433,3.6279-9.5732,3.6279c-3.1309,0-4.6435,0-4.6435,0s1.663,3.4795,1.8154,4.8399
		c0.1504,1.3613-2.4199,9.3769-2.5713,11.1924c-0.1514,1.8154-1.0586,5.8974-1.21,6.958c-0.1513,1.0576-2.9687,7.9013-2.9629,8.7705
		c0.0069,0.8701-1.4228,4.9053-1.4228,4.9053h2.4277c0,0,3.0166-9.5938,3.3194-10.9551c0.3017-1.3604,3.3632-16.2217,3.6289-17.0899
		c0.3105-1.0107,0.4345-4.3691,0.4345-4.3691l-0.1425-1.4238c0,0,3.6572,0.2812,5.6269-0.4922
		C155.4939,151.7142,161.3835,150.3041,161.2253,141.2289z"/>
	<path id="XMLID_16260_" class="st4" d="M264.7076,210.8051l1.0791-10.3838c0,0,9.1475,1.4883,6.1719,5.9521
		C268.9821,210.8373,264.7076,210.8051,264.7076,210.8051z"/>
	<path id="XMLID_16261_" class="st4" d="M228.3024,203.514c0,0-5.4961,1.0284-5.4053-3.8466
		c0.0898-4.875,0.2119-7.2276,2.7021-7.4395c2.4903-0.2129,5.253,1.6279,5.5723,2.9395c0.3193,1.3115-1.5947,8.3466-1.5947,8.3466
		H228.3024z"/>
	<path id="XMLID_16262_" class="st18" d="M76.9498,172.4584c0,0,22.7451,2.9756,23.5957,2.9756s26.2178-12.21,27.3516-11.8448
		c1.1328,0.3663,1.4062,0.2871,4.7471,4.6172c1.538,1.9942,3.3076,8.3985,8.5185,17.2285c1.5791,2.6758,3.46,6.0352,5.2363,8.7266
		c2.6006,2.669,4.1241,5.3926,5.8799,7.6856c2.8662,3.7451,4.8643,6.5498,4.8643,6.5498l6.8681,25.5429
		c0,0-31.7275,8.4053-36.1142,8.2422c-4.3867-0.164-3.543,2.5508-8.6455-4.4639C114.15,230.7035,76.9498,172.4584,76.9498,172.4584z
		"/>
	<path id="XMLID_16263_" class="st8" d="M229.9323,194.9906l-3.1181,9.9199c0,0-24.6592,3.6846-32.0283,5.3848
		c-7.3692,1.7012-11.337-0.5664-15.0215,0c-3.6836,0.5674-5.1016-6.2344-7.6524-9.3525c-2.5508-3.1172-14.7383-7.086-20.6904-5.9522
		l-4.5352-0.1982c0,0,9.9209,12.6689,9.9209,13.8027c0,1.1338,0.5664,9.3535-5.1025,11.0547
		c-5.6689,1.7002-17.8555,1.1328-21.2568,0c-3.4014-1.1338-4.5948,0.4043-4.252,1.0723c0,0,0.7891,4.6806,4.1729,6.0058
		c0,0,1.9541,5.1719,4.4873,5.4424c-0.7442,2.0674,4.708,5.0029,4.708,5.0029s4.2666,1.5449,7.5781,1.3985
		c3.3096-0.1475,20.3037-2.2071,23.1738-3.458c2.8682-1.251,6.0557-1.7657,7.2569-1.9122c1.2031-0.1474,2.748,1.25,3.6308,0.6612
		c0.8828-0.5879,5.8584,2.1543,8.5166,2.7929c2.6573,0.6368,27.7403,5.9512,33.4795,6.8018
		c5.7403,0.8506,15.9434,2.126,19.9824,2.3389c4.0391,0.2119,10.6289,0,12.3291,0c1.7002,0,6.377,1.2744,7.0147-9.1407
		c0.6387-10.4169,4.0322-33.3496,4.0322-33.3496S246.6539,194.5658,229.9323,194.9906z"/>
	<path id="XMLID_16264_" class="st19" d="M235.5289,206.4691c0,0-1.4189-2.6748-8.7148-1.5586"/>
	<path id="XMLID_16265_" class="st10" d="M228.2253,200.4213c0,0,5.2422-2.0703,9.2715-1.5039
		c4.0312,0.5664,15.4902,5.8359,17.5059,6.6953c2.0146,0.8603,6.9882,1.9316,6.9882,2.2451c0,0.3154-2.0859,22.8232-2.0859,24.0381
		c0,1.2158-0.8008,8.1601-2.3135,9.2939c-1.5127,1.1338-6.7558,3.8838-17.2431,1.375c-10.4874-2.5088-37.6963-5.3427-40.9551-5.9092
		c-3.2598-0.5673-17.5703-2.8535-17.5703-2.8535s7.249,2.7393,11.3525,3.6162c4.1045,0.877,23.8184,5.0372,27.7744,5.6612
		c3.957,0.624,14.8643,2.9052,18.5488,2.8105c3.6836-0.0937,15.1768,1.0137,17.7129,0.003
		c2.5381-1.0108,4.1592-1.4766,4.7793-5.9786c0.6201-4.5019,1.0723-14.0722,1.6338-16.6435
		c0.5615-2.5723,2.2393-15.1494,2.4766-16.8018c0.2373-1.6513,0.457-3.1631,0.457-3.1631l-28.9023-10.2998l-7.6524,0.8506
		L228.2253,200.4213z"/>
	<path id="XMLID_16266_" class="st17" d="M272.7301,203.4935c0,0,0,0-5.3731,0.0205c-5.372,0.0206-23.75-9.1611-30.3388-8.7216
		c-6.5899,0.4394-15.0938,1.0488-14.0313,0c1.0635-1.0479,2.127-10.8555,3.8272-17.0205
		c1.7002-6.1641,2.5498-24.6582,2.5498-24.6582"/>
	<path id="XMLID_16267_" class="st19" d="M161.3414,225.601c0,0-12.1162,4.4638-17.6435,4.2519
		c-5.5264-0.2129-13.3291-3.125-13.3291-3.125"/>
	<path id="XMLID_16268_" class="st19" d="M162.6169,229.8597c-0.2129-0.2197-11.7783,5.3272-19.7695,3.8194
		c-7.9912-1.5088-7.9912-1.5088-7.9912-1.5088"/>
	<path id="XMLID_16269_" class="st19" d="M152.2009,113.7875c0,0,15.5185-0.8496,18.0684-0.2119"/>
	<path id="XMLID_16270_" class="st19" d="M157.7272,121.2279c0,0,8.7158-2.5508,12.542-1.4883
		c3.8271,1.0635,6.5517,8.7491,6.8027,10.8418"/>
	<path id="XMLID_16271_" class="st19" d="M157.7272,125.0316c0,0,11.2675-1.7236,12.542,0
		c1.2753,1.7237,5.539,7.7432,5.5273,11.0762"/>
	<path id="XMLID_16272_" class="st19" d="M160.0651,132.4945c0,0-1.0616,2.3379,2.5517,3.6133c3.6133,1.2754,5.0205,2.5508,5.4863,0
		"/>
	<path id="XMLID_16273_" class="st19" d="M132.6442,148.6498c0,0-2.5069-2.5693-2.2754-4.252"/>
	<path id="XMLID_16274_" class="st20" d="M149.2253,95.2943c0,0,22.3193,4.8887,32.9482-10.2041"/>
	<path id="XMLID_16275_" class="st19" d="M156.8913,71.849c0,0-1.4043-0.0791-5.5156-0.291
		c-4.1123-0.2119-5.5313,0.7305-5.7568,0.6006"/>
	<path id="XMLID_16276_" class="st20" d="M179.6227,81.6888c0,0,4.6767,1.0625,4.6767,5.1016"/>
	<path id="XMLID_16277_" class="st19" d="M170.8064,70.268c0,0,4.5869-0.6495,7.2636-0.6084
		c2.6768,0.04,6.1514,0.2734,7.4327,0.6084"/>
	<path id="XMLID_16278_" class="st6" d="M155.4108,0.6068c0,0-13.7969,0.4121-13.7969,12.459
		c0,12.0459,5.9707,16.1641,12.0459,15.8555c6.0752-0.3096,9.4726-3.295,11.5322-4.4278c2.0586-1.1328,5.6777-0.7207,7.4717,0.2061
		c1.7939,0.9267,3.8525,4.0156,6.0156,3.706c2.1621-0.3085,2.6768-1.7177,4.0156,0.5313c1.3389,2.25,0,10.374,3.8096,12.2275
		c3.8086,1.8526,7.5156,1.75,8.2363,4.2217c0.7217,2.4697,0.4121,8.3389,0.9268,10.0899l1.751-0.9268
		c0,0,1.7851-5.7539,3.4882-5.7471c1.7032,0.0069,7.0391,4.5323,6.1407-1.1836c-0.2637-2.4414-3.8672-6.9941-3.5586-9.8769
		c0.3086-2.8838-3.7031-2.5401-4.835-5.4229c-1.1318-2.8828-3.0888-4.3242-3.501-6.5888c-0.4121-2.2657,0.4122-5.6758-3.707-9.0157
		c-4.1182-3.3398-13.3848-6.6347-14.4141-6.3261c-1.0292,0.3086,2.0596-3.8096-0.4121-4.5303
		c-2.4707-0.7207-8.957,0.206-12.664,2.8828c0,0,1.3388-3.707-0.7207-4.2217c-2.0596-0.5146-7.4131,2.7813-9.6778,6.5899
		C153.5573,11.1088,158.4986,1.225,155.4108,0.6068z"/>
	<path id="XMLID_16279_" class="st21" d="M151.2916,15.433c0,0,1.584-3.3164,2.2656-4.3242"/>
	<path id="XMLID_16280_" class="st21" d="M160.5582,13.2709c0,0,2.0127-3.6738,3.3975-4.5303"/>
	<path id="XMLID_16281_" class="st21" d="M171.2526,14.4037c0,0,4.956-2.8828,5.7792-4.0156"/>
	<g id="XMLID_16282_">
		<g id="XMLID_16283_">
			<g>
				<path class="st22" d="M159.3454,59.2142c1.083,1.5635,1.376,3.3038-0.4336,4.7803c-3.6748,3-11.2314,3.916-13.375-1.4414
					c-1.2841-3.206,0.9073-6.0498,3.8526-7.0596C153.2867,54.1556,156.985,55.8109,159.3454,59.2142z"/>
			</g>
			<g>
				<path class="st22" d="M168.9654,60.4906c-0.9853,1.8047-1.0996,3.71,1.0176,5.0889c4.2959,2.8008,12.5254,2.915,14.2139-3.0918
					c1.0107-3.5947-1.6748-6.3985-4.9561-7.1465C174.8961,54.3529,171.109,56.558,168.9654,60.4906z"/>
			</g>
		</g>
		<g id="XMLID_16284_">
			
				<ellipse transform="matrix(0.9762 -0.2169 0.2169 0.9762 -9.895 34.5418)" class="st9" cx="152.3962" cy="62.3444" rx="3.6804" ry="3.6803"/>
			
				<ellipse transform="matrix(0.9762 -0.2167 0.2167 0.9762 -9.8892 34.5073)" class="st23" cx="152.3961" cy="62.3446" rx="1.6335" ry="1.6331"/>
			
				<ellipse transform="matrix(0.9761 -0.2172 0.2172 0.9761 -9.5075 34.1627)" class="st22" cx="150.6874" cy="60.3407" rx="1.7338" ry="1.7343"/>
		</g>
		<g id="XMLID_16287_">
			
				<ellipse transform="matrix(0.1115 -0.9938 0.9938 0.1115 93.704 230.9871)" class="st9" cx="176.0316" cy="63.0895" rx="3.9799" ry="3.9799"/>
			
				<ellipse transform="matrix(0.1117 -0.9937 0.9937 0.1117 93.6743 230.9725)" class="st23" cx="176.0316" cy="63.0895" rx="1.7663" ry="1.7659"/>
			
				<ellipse transform="matrix(0.1117 -0.9937 0.9937 0.1117 95.3734 227.5788)" class="st22" cx="174.987" cy="60.4406" rx="1.875" ry="1.875"/>
		</g>
		<path class="st23" d="M145.1666,60.4691c0,0,0.461-3.8564,6.2412-4.1826c5.7803-0.3262,8.792,4.9004,8.792,4.9004
			s-1.4502-6.9961-8.4043-6.2852C144.8425,55.6117,145.1666,60.4691,145.1666,60.4691z"/>
		<path class="st23" d="M184.274,60.1957c0,0-0.8398-3.7266-7.0918-3.4121c-6.2529,0.3154-8.9882,5.917-8.9882,5.917
			s0.7529-7.6895,8.3115-7.7266C184.0631,54.9369,184.274,60.1957,184.274,60.1957z"/>
		<g>
			<path id="XMLID_16289_" class="st23" d="M147.7672,65.308c0,0,0.5986,0.334,1.5713,0.582
				c0.2451,0.0518,0.5058,0.126,0.791,0.1602c0.2813,0.0488,0.5811,0.0742,0.8906,0.0996c0.6201,0.0557,1.2862,0.0312,1.9444-0.0469
				c0.3281-0.0508,0.6611-0.0664,0.9804-0.1426c0.3194-0.0752,0.6397-0.1211,0.9385-0.2158
				c0.2979-0.0937,0.5908-0.1709,0.8692-0.2461c0.2714-0.0986,0.5273-0.1914,0.7636-0.2763
				c0.4805-0.1592,0.8584-0.3467,1.1348-0.4551c0.2754-0.1104,0.4336-0.1739,0.4336-0.1739s-0.1445,0.0899-0.3965,0.2461
				c-0.2617,0.1387-0.6064,0.4024-1.0791,0.5987c-0.2334,0.1074-0.4854,0.2236-0.7529,0.3467
				c-0.2754,0.1005-0.5664,0.2099-0.8731,0.3076c-0.3037,0.1054-0.6338,0.1631-0.9609,0.25
				c-0.3272,0.0869-0.6729,0.1152-1.0117,0.1748c-0.6875,0.0625-1.3809,0.0683-2.0235-0.0078
				c-0.6465-0.0547-1.2285-0.2412-1.7168-0.3965C148.2955,65.7582,147.7672,65.308,147.7672,65.308z"/>
		</g>
		<g>
			<path id="XMLID_16290_" class="st23" d="M182.114,65.7064c0,0-0.5156,0.5449-1.5235,1.0391
				c-0.2548,0.1094-0.5273,0.2461-0.832,0.3437c-0.3008,0.1123-0.624,0.2129-0.9678,0.2803
				c-0.6826,0.1553-1.4287,0.2295-2.1748,0.2412c-0.3711-0.0244-0.7461-0.0146-1.1084-0.0713
				c-0.3623-0.0547-0.7226-0.0791-1.0615-0.1572c-0.3408-0.0703-0.667-0.1543-0.9746-0.2314
				c-0.3018-0.1006-0.5859-0.1973-0.8496-0.2852c-0.5313-0.1572-0.9316-0.4004-1.2285-0.5195
				c-0.2901-0.1397-0.4551-0.2188-0.4551-0.2188s0.1768,0.0498,0.4863,0.1377c0.3096,0.084,0.7383,0.2422,1.2725,0.3574
				c0.2637,0.0645,0.5498,0.1348,0.8525,0.209c0.3086,0.0498,0.6319,0.0987,0.9639,0.1651c0.331,0.0673,0.6816,0.08,1.0332,0.124
				c0.3516,0.0459,0.7129,0.0234,1.0713,0.04c0.7168,0.0088,1.4355-0.042,2.0957-0.1738c0.3301-0.0625,0.6484-0.125,0.9463-0.21
				c0.3027-0.0683,0.5742-0.1787,0.831-0.2636c0.5039-0.1963,0.918-0.3858,1.1953-0.543
				C181.9625,65.8119,182.114,65.7064,182.114,65.7064z"/>
		</g>
	</g>
	<path id="XMLID_16288_" class="st11" d="M188.4606,56.4721c-0.0118,0.7148-0.587,5.0214-0.587,5.0214l9.545-5.206v-2.2237
		C197.4186,54.0638,192.7995,56.7113,188.4606,56.4721z"/>
	<g id="XMLID_16291_">
		<path id="XMLID_16292_" class="st8" d="M197.4186,56.2992c0,0,0.2148-8.3896,4.4824-8.6738
			c4.2685-0.2842,7.4609,8.4677,7.2539,11.5576c-0.2051,3.0879-0.5137,5.3535-1.3379,6.3828
			c-0.8242,1.0293-1.1328,1.5449-0.2051,3.2949c0.9258,1.75,3.294,6.3828,0.9258,7.4121c-2.3682,1.0303-5.0449-0.4111-6.1768-2.2636
			"/>
		<path id="XMLID_16293_" class="st24" d="M200.9186,60.2123c-0.1026-0.4121,0.4638-6.9727,1.8281-7.6553
			c1.3633-0.6855,3.5264,0.2412,4.1445,2.919c0,0,2.1612,6.2802,0,5.457c-2.1631-0.8242-1.3652-1.9551-2.5117-2.1631"/>
	</g>
	<path class="st8" d="M130.8766,228.1185c-0.9326-2.0996,2.499-0.1064,2.499-0.1064l-0.1621,1.833
		C133.0367,229.9418,131.4147,229.1967,130.8766,228.1185z"/>
	<path class="st8" d="M126.2994,221.3041c-0.9316-2.1006,2.4688-0.2666,2.4688-0.2666l-0.2852,2.4189
		C128.4615,223.1263,126.8395,222.3812,126.2994,221.3041z"/>
	<path class="st8" d="M134.9205,233.2504c-0.9326-2.0996,2.499-0.1065,2.499-0.1065l-0.1621,1.833
		C137.0817,235.0736,135.4596,234.3285,134.9205,233.2504z"/>
	<path id="XMLID_16294_" class="st25" d="M166.8385,80.7006c1.75-0.4112,3.8096,0.1035,2.7803,2.9863
		c-1.0303,2.8828-2.9864,1.5439-3.919,1.75c-0.9346,0.2061-0.7139-2.4707-1.9502-2.6758c-1.2353-0.206-1.3379,1.2344-2.1621,2.3291
		c-0.8232,1.0947-1.2353,1.1709-5.5625,1.1709c-4.3271,0-3.8076-3.706-3.292-6.0752c0.5147-2.3681,6.0742-7.9277,6.4863-9.3691
		c0.4122-1.4414-0.4531-5.96-0.4531-5.96"/>
	<path id="XMLID_16295_" class="st11" d="M163.0699,53.5385c-16.5224,0-24.7099,1.3388-24.7099,1.3388l0.7441,5.6573
		c2.084,12.206,6.6983,10.8671,9.9727,10.8671c3.2754,0,8.039,1.4883,10.123-5.3593c2.084-6.8477,3.8701-7.1455,3.8701-7.1455
		s3.7149-1.6299,5.7979,5.2177c2.084,6.8467,6.8476,5.3584,10.123,5.3584c3.2744,0,7.8887,1.3399,9.9727-10.8662l0.5156-6.456
		C189.4791,52.1508,179.9274,50.893,163.0699,53.5385z M158.2486,65.393c-2.2451,5.4658-5.2402,4.9423-5.2402,4.9423h-3.5928
		c-9.7334,0-7.8632-8.6113-8.2373-11.9804c-0.375-3.3692,8.6856-3.294,8.6856-3.294s3.8935-0.1494,7.5625,0.5977
		C161.0943,56.4076,160.4967,59.9281,158.2486,65.393z M186.8893,56.4271c-0.3741,3.3692,1.497,11.9795-8.2364,11.9795h-3.5927
		c0,0-2.9961,0.5244-5.2422-4.9424c-2.2471-5.4648-2.8447-8.9843,0.8232-9.7343c3.669-0.7461,7.5625-0.5977,7.5625-0.5977
		S187.2643,53.057,186.8893,56.4271z"/>
	<path class="st9" d="M157.6998,51.9242c0,0-7.0517-1.751-10.3828,1.4395l-3.6455-0.7891c0,0,0.999-5.4629,6.9512-6.2168
		c5.9511-0.7549,9.5918,4.4824,9.5918,4.4824L157.6998,51.9242z"/>
	<path class="st9" d="M170.359,50.9183c0,0,4.2598-2.5605,7.4209-2.4072c3.1611,0.1543,5.7178,3.0098,5.7178,3.0098l3.4795-0.6699
		c0,0-4.1993-6.669-10.2725-6.2422c-6.0742,0.4248-8.332,4.9638-8.332,4.9638L170.359,50.9183z"/>
	<path class="st26" d="M175.2829,16.3842c0,0,7.9844-2.8399,11.8819-0.6329c3.8994,2.2071,4.9795,5.8672,5.3623,6.6651
		c0,0-2.5987-4.2266-6.1748-4.9697C182.776,16.7035,175.2829,16.3842,175.2829,16.3842z"/>
	<path class="st26" d="M154.5983,11.3666c4.3994-5.3145,7.0986-5.9883,8.4414-5.4483c0,0,0.5273,0.5225-0.084,1.3604
		c0,0,0.4502-1.0313-0.5303-0.6856C161.4449,6.9379,158.3981,7.7953,154.5983,11.3666z"/>
	<path class="st26" d="M147.2262,4.1664c-0.3145-0.6865,6.6211-3.0498,7.8437-2.2754c0,0,0.4239,0.6094-0.3291,1.3232
		c0,0,0.6289-0.9336-0.3974-0.7714C153.317,2.6049,151.36,2.4515,147.2262,4.1664z"/>
	<path id="XMLID_16299_" class="st27" d="M163.2311,21.6928c-0.1797,0.0019-2.9014,2.0527-4.5186,2.4824
		c-1.6182,0.4297-9.2178-1.0147-11.3994-3.4297c-1.6934-1.875-5.8818-9.1182-0.4434-14.4912
		c-0.0429,0.0322-0.0791,0.0586-0.1328,0.1045c-1.1543,0.9843-4.8125,5.0254-4.2051,10.5039
		c0.7012,6.3281,7.6026,10.2148,16.3819,8.665C162.5524,24.5658,163.1568,22.3539,163.2311,21.6928z"/>
	<path class="st26" d="M164.1695,10.6527c5.4288-5.2012,11.4014-3.9551,11.8155-3.6924c0,0-0.3731,0.5264-0.7451,0.7481
		c-0.3721,0.2226-0.0069-0.3047-0.0069-0.3047S171.6442,6.806,164.1695,10.6527z"/>
	<path id="XMLID_16300_" class="st28" d="M219.1568,105.4457c0,0,1.3125,3.4922,1.3125,4.9297c0,1.4384,4.1221,8.2441,5.9434,9.874
		c1.8213,1.6289,11.791,9.873,13.1338,11.1201c1.3418,1.2461,11.0234,13.2295,12.6533,14.4756
		c1.6299,1.2461,6.4229,6.5176,6.9981,7.8604c0.5752,1.3417,4.2187,14.3789,5.1767,17.2548
		c0.959,2.876,6.9326,21.3711,6.9326,21.3711s-0.4023-2.5146-1.1523-5.9218c-1.4668-6.67-3.8496-16.8204-4.2305-18.6602
		c-0.5752-2.7803-1.501-7.251-1.9414-9.5508c-0.2109-1.1015-0.5244-5.6601-2.0537-7.5351
		c-0.4609-0.5645-1.0859-0.9483-2.0205-1.7393c-3.999-3.3818-5.0713-4.8311-6.041-5.876c-1.043-1.122-6.0801-7.2461-9.4473-10.3867
		s-15.4209-14.5029-15.7461-14.7832c-0.5918-0.5098-3.5957-3.5488-3.5957-3.5488s-1.2636-4.0987-1.5049-5.2168
		c-0.2402-1.1192-0.2343-4.6309-1.6211-5.1944C220.8044,103.4515,219.1568,105.4457,219.1568,105.4457z"/>
	<path id="XMLID_16301_" class="st15" d="M117.7535,425.0678c5.669,0.6064,11.0459-1.0752,11.0459-1.0752
		s-1.3242-4.708-1.4248-8.3926c-0.1006-3.6836,2.6504-4.3906,2.6504-8.3584c0-3.9688-1.9394-5.1358-2.5068-8.5371
		c-0.5664-3.4004,1.5293-3.0684,2.3799-5.9024c0.8505-2.834,4.7666-14.5117,7.8847-19.0468
		c3.1172-4.5342,10.7989-23.4092,11.9326-29.3614c1.1338-5.9521,1.7129-9.0742,2.0577-13.042
		c0.3447-3.9687,2.6513-2.29,3.2187-5.6914c0.5664-3.4013-1.5517-3.9531-1.5586-8.1562
		c-0.0068-4.2022,13.084-13.2676,17.336-14.6846c4.2509-1.417,27.3154-7.5596,33.0625-8.9766
		c5.747-1.4169,28.2285,1.7647,43.2509,0.9141c15.0215-0.8496,14.8467-14.7119,15.9805-20.6631
		c0.4492-2.3613,0.1396-6.042-0.2881-9.6982c-2.6894,3.0644-1.4746,7.8476-3.4365,12.5068
		c-2.2676,5.3838-7.6524,7.9356-11.5244,10.4863c-3.8721,2.5508-17.1026,0.8506-23.624,1.6612c-6.5206,0.8095-11.6172,0.039-18.42,0
		c-6.8017-0.0391-12.4707,2.5908-17.8564,5.4248c-5.3858,2.8349-14.4551,5.6689-23.9014,8.2197
		c-9.4472,2.5498-9.543,5.9512-12.1396,10.0313c-2.5957,4.0791-17.0166,4.707-17.0166,4.707s2.6074,5.3848,4.3076,5.3848
		c1.7012,0,3.9678-4.5352,9.5732-3.959c5.6055,0.5752,2.3311,7.3603,0.6065,10.4677c-1.7246,3.1084-6.7783,14.7491-6.7217,18.1495
		c0.0576,3.4023-9.4102,18.707-12.2529,24.0927c-2.8428,5.3838-5.377,16.1553-7.9278,21.8243
		c-2.5498,5.6679,1.418,11.3369,2.5508,15.5878c1.1338,4.251,3.1514,9.8711,0,11.0538c-3.1494,1.1835-9.6357-3.4004-12.7539-4.251
		c-3.1182-0.8506-9.3525-9.0694-13.3213-9.6377l-2.1826,7.9638c0.6836,0.2325,2.1055,0.9112,2.9385,1.2452
		C106.7584,418.1888,112.0846,424.4623,117.7535,425.0678z"/>
	<path id="XMLID_16302_" class="st15" d="M93.3248,354.0873c0,0-2.8301,5.8965-2.2402,10.0244
		c0.5888,4.1279,0.9433,10.0244,2.2402,11.7939c1.2979,1.7686,3.6563,5.1885,8.9629,5.0704
		c5.3076-0.1172,8.8457-0.8799,8.8457-0.8799s-9.6709-0.1817-11.793-8.083c-2.123-7.9014-3.6562-15.6856-3.1845-17.9258
		C96.6266,351.8461,93.3248,354.0873,93.3248,354.0873z"/>
	<path id="XMLID_16303_" class="st15" d="M93.5074,299.3109c0,0-8.2119,1.416-8.9189,2.2412
		c-0.709,0.8262-6.4873,5.3076-6.959,6.8399c-0.4717,1.5332-2.7119,3.8926-4.7168,4.9531c-2.0059,1.0625-6.8408,1.416-6.8408,1.416
		c3.1846,0.5899,3.5381,0,3.5381,0l1.7695,4.0098c0,0,1.2969,4.3633,4.0098,13.4443c2.7119,9.082-3.6563,10.1426-4.7178,14.8604
		c-1.0615,4.7177-1.5332,13.209-0.3545,14.9775c1.1797,1.7695,2.124,8.3731,1.0625,11.0859
		c-1.0625,2.7129-2.9492,6.8399-3.1846,10.1426c-0.2353,3.3028,0,7.7803,0,7.7803s-1.2978,1.1826-3.7744,0
		c-2.4765-1.1836-7.9013-2.3545-10.2607-4.2422c-2.3584-1.8867-7.5615,0.5459-7.5615,0.5459l-0.3047,3.4053
		c4.4882-0.9356,15.0068-0.336,21.2422,6.1836c4.2871,4.4814,6.5507,7.6074,7.8642,8.6611
		c0.5977,0.4785,1.0361,1.2393,1.3916,0.6191c1.1328-1.9834-1.6582-9.0888-3.6426-11.9228
		c-1.6933-2.7441-0.6894-10.2227-0.9726-12.291c-0.2832-2.0684,3.7344-6.6612,4.8672-9.4961
		c1.1338-2.834-2.9141-9.1817-3.1973-15.7012c-0.1533-6.2744,4.0605-10.7558,6.6123-17.6162
		c2.5498-6.8613-0.0703-12.8867-1.7705-20.2568c-1.7012-7.3682-0.2676-5.6368,2.5664-8.4717
		c2.1709-2.1709,6.8818-4.5986,9.1797-5.6514l1.6562-0.7461L93.5074,299.3109z"/>
	<path id="XMLID_16304_" class="st29" d="M60.5201,431.2846c-0.2402,0.4433,0.9551,7.8398,7.4766,6.0908
		c6.5205-1.75,17.5742,0.9541,18.7676,0.875c1.1933-0.0801,3.5791-0.7158,8.1123-4.2149c4.5322-3.5,11.4511-4.7724,15.3486-4.5332
		c0,0-12.168,3.7373-14.3154,6.1231c-2.1475,2.3857-2.7832,5.8056-9.3838,5.4873c-6.6006-0.3184-9.7813-2.3067-12.9629-1.9883
		c-3.1807,0.3184-9.917,0.2383-13.0703-0.7949c-3.1524-1.0342-8.0039-3.8965-5.9356-5.5674
		C56.6246,431.0931,61.2359,429.9672,60.5201,431.2846z"/>
	<path id="XMLID_16305_" class="st29" d="M6.8951,409.9232c-0.2763-0.4746,2.1817-3.4072,7.0889-3.8847
		c4.9072-0.4776,8.5879-0.2051,12.1318-1.8399c3.545-1.6367,11.9278-3.8174,14.3819-5.0449
		c2.4531-1.2266,4.0215-3.8164,4.7021-4.4297c0.6817-0.6133-2.998,5.8613-5.5889,6.9522
		c-2.5898,1.0908-15.2675,5.5205-17.789,5.5205c-2.5225,0-9.6787-0.545-10.2236,0.6816c-0.5459,1.2266-0.4082,2.5215,1.6357,3.1357
		C15.2789,411.6273,9.5533,414.4896,6.8951,409.9232z"/>
	<path id="XMLID_16306_" class="st29" d="M20.0494,412.0297c1.6055-0.4532,9.2217,2.5439,12.3985,1.3232
		c3.1757-1.2207,7.3769-1.6308,10.5547-2.6553c3.1757-1.0244,7.7871-2.1513,8.7089-1.331c0.9219,0.8183,0.4102,2.4258,0.7178,2.0332
		c0.3076-0.3945-6.3525-0.836-7.583,0c-1.2285,0.8349-2.9717,3.7041-7.7871,4.5234c-4.8164,0.8203-13.5254,0.6153-15.3711,0
		C19.8443,415.309,15.3356,413.3617,20.0494,412.0297z"/>
</g>
</svg>
