<?xml version="1.0" encoding="utf-8"?>
<!-- Generator: Adobe Illustrator 16.0.0, SVG Export Plug-In . SVG Version: 6.00 Build 0)  -->
<!DOCTYPE svg PUBLIC "-//W3C//DTD SVG 1.1//EN" "http://www.w3.org/Graphics/SVG/1.1/DTD/svg11.dtd">
<svg version="1.1" id="Capa_1" xmlns="http://www.w3.org/2000/svg" xmlns:xlink="http://www.w3.org/1999/xlink" x="0px" y="0px"
	 width="215.4756px" height="86.5703px" viewBox="0 0 215.4756 86.5703" enable-background="new 0 0 215.4756 86.5703"
	 xml:space="preserve">
<g id="XMLID_8249_">
	<g>
		<path id="XMLID_1_" fill="#FFFFFF" d="M201.9756,85.0703H13.5c-6.6006,0-12-5.3994-12-12V13.5c0-6.5996,5.3994-12,12-12h188.4756
			c6.6006,0,12,5.4004,12,12v59.5703C213.9756,79.6709,208.5762,85.0703,201.9756,85.0703z"/>
		<path fill="#603813" d="M202.0254,86.5703h-11.9541c-0.8281,0-1.5-0.6719-1.5-1.5s0.6719-1.5,1.5-1.5h11.9043
			c0.8281,0,1.5254,0.6719,1.5254,1.5S202.8535,86.5703,202.0254,86.5703z M178.166,86.5703h-11.9043c-0.8281,0-1.5-0.6719-1.5-1.5
			s0.6719-1.5,1.5-1.5h11.9043c0.8281,0,1.5,0.6719,1.5,1.5S178.9941,86.5703,178.166,86.5703z M154.3574,86.5703h-11.9053
			c-0.8281,0-1.5-0.6719-1.5-1.5s0.6719-1.5,1.5-1.5h11.9053c0.8281,0,1.5,0.6719,1.5,1.5S155.1855,86.5703,154.3574,86.5703z
			 M130.5479,86.5703h-11.9053c-0.8281,0-1.5-0.6719-1.5-1.5s0.6719-1.5,1.5-1.5h11.9053c0.8281,0,1.5,0.6719,1.5,1.5
			S131.376,86.5703,130.5479,86.5703z M106.7383,86.5703H94.8335c-0.8286,0-1.5-0.6719-1.5-1.5s0.6714-1.5,1.5-1.5h11.9048
			c0.8281,0,1.5,0.6719,1.5,1.5S107.5664,86.5703,106.7383,86.5703z M82.9292,86.5703H71.0244c-0.8286,0-1.5-0.6719-1.5-1.5
			s0.6714-1.5,1.5-1.5h11.9048c0.8286,0,1.5,0.6719,1.5,1.5S83.7578,86.5703,82.9292,86.5703z M59.1196,86.5703H47.2153
			c-0.8286,0-1.5-0.6719-1.5-1.5s0.6714-1.5,1.5-1.5h11.9043c0.8286,0,1.5,0.6719,1.5,1.5S59.9482,86.5703,59.1196,86.5703z
			 M35.3105,86.5703H23.4058c-0.8286,0-1.5-0.6719-1.5-1.5s0.6714-1.5,1.5-1.5h11.9048c0.8286,0,1.5,0.6719,1.5,1.5
			S36.1392,86.5703,35.3105,86.5703z M11.5132,86.4043c-0.083,0-0.167-0.0068-0.251-0.0205
			C6.7671,85.626,2.981,82.6699,1.1348,78.4766c-0.334-0.7578,0.0098-1.6436,0.7681-1.9775
			c0.7588-0.3311,1.6431,0.0107,1.9771,0.7686c1.417,3.2178,4.4365,5.5771,7.8809,6.1572c0.8169,0.1377,1.3672,0.9121,1.2295,1.7285
			C12.8667,85.8857,12.2319,86.4043,11.5132,86.4043z M212.041,81.082c-0.2803,0-0.5645-0.0781-0.8164-0.2422
			c-0.6943-0.4521-0.8916-1.3809-0.4404-2.0752c1.1064-1.7021,1.6914-3.6709,1.6914-5.6943v-5.0146c0-0.8281,0.6719-1.5,1.5-1.5
			s1.5,0.6719,1.5,1.5v5.0146c0,2.6055-0.7529,5.1396-2.1758,7.3291C213.0117,80.8418,212.5313,81.082,212.041,81.082z M1.5,67.6084
			c-0.8286,0-1.5-0.6719-1.5-1.5V54.2031c0-0.8281,0.6714-1.5,1.5-1.5s1.5,0.6719,1.5,1.5v11.9053
			C3,66.9365,2.3286,67.6084,1.5,67.6084z M213.9756,57.6514c-0.8281,0-1.5-0.6719-1.5-1.5V44.2471c0-0.8281,0.6719-1.5,1.5-1.5
			s1.5,0.6719,1.5,1.5v11.9043C215.4756,56.9795,214.8037,57.6514,213.9756,57.6514z M1.5,43.7988c-0.8286,0-1.5-0.6714-1.5-1.5
			V30.394c0-0.8286,0.6714-1.5,1.5-1.5s1.5,0.6714,1.5,1.5v11.9048C3,43.1274,2.3286,43.7988,1.5,43.7988z M213.9756,33.8423
			c-0.8281,0-1.5-0.6714-1.5-1.5V20.4375c0-0.8286,0.6719-1.5,1.5-1.5s1.5,0.6714,1.5,1.5v11.9048
			C215.4756,33.1709,214.8037,33.8423,213.9756,33.8423z M1.5,19.9897c-0.8286,0-1.5-0.6714-1.5-1.5V13.5
			c0-2.6162,0.7578-5.1587,2.1914-7.353C2.645,5.4541,3.5742,5.2593,4.2676,5.7114c0.6938,0.4531,0.8887,1.3828,0.4355,2.0762
			C3.5889,9.4932,3,11.4683,3,13.5v4.9897C3,19.3184,2.3286,19.9897,1.5,19.9897z M212.96,10.1768
			c-0.5752,0-1.125-0.333-1.3721-0.8931c-1.4463-3.2646-4.3965-5.5605-7.8936-6.1426c-0.8174-0.1357-1.3691-0.9082-1.2334-1.7256
			c0.1357-0.8179,0.9121-1.373,1.7256-1.2334c4.4961,0.7476,8.2881,3.6963,10.1436,7.8867c0.3359,0.7578-0.0059,1.6436-0.7637,1.979
			C213.3691,10.1353,213.1631,10.1768,212.96,10.1768z M192.0449,3h-11.9043c-0.8281,0-1.5-0.6714-1.5-1.5s0.6719-1.5,1.5-1.5
			h11.9043c0.8281,0,1.5,0.6714,1.5,1.5S192.873,3,192.0449,3z M168.2354,3h-11.9043c-0.8281,0-1.5-0.6714-1.5-1.5
			s0.6719-1.5,1.5-1.5h11.9043c0.8281,0,1.5,0.6714,1.5,1.5S169.0635,3,168.2354,3z M144.4258,3h-11.9043
			c-0.8281,0-1.5-0.6714-1.5-1.5s0.6719-1.5,1.5-1.5h11.9043c0.8281,0,1.5,0.6714,1.5,1.5S145.2539,3,144.4258,3z M120.6172,3
			h-11.9053c-0.8281,0-1.5-0.6714-1.5-1.5s0.6719-1.5,1.5-1.5h11.9053c0.8281,0,1.5,0.6714,1.5,1.5S121.4453,3,120.6172,3z
			 M96.8076,3H84.9028c-0.8286,0-1.5-0.6714-1.5-1.5s0.6714-1.5,1.5-1.5h11.9048c0.8286,0,1.5,0.6714,1.5,1.5S97.6362,3,96.8076,3z
			 M72.9985,3H61.0938c-0.8286,0-1.5-0.6714-1.5-1.5s0.6714-1.5,1.5-1.5h11.9048c0.8286,0,1.5,0.6714,1.5,1.5S73.8271,3,72.9985,3z
			 M49.189,3H37.2842c-0.8286,0-1.5-0.6714-1.5-1.5s0.6714-1.5,1.5-1.5H49.189c0.8286,0,1.5,0.6714,1.5,1.5S50.0176,3,49.189,3z
			 M25.3799,3H13.5c-0.8286,0-1.5127-0.6714-1.5127-1.5S12.646,0,13.4746,0h11.9053c0.8286,0,1.5,0.6714,1.5,1.5
			S26.2085,3,25.3799,3z"/>
	</g>
	<g>
		<g>
			<path fill="#603813" d="M24.2021,11.0605h3.9624c0.8936,0,1.5747,0.0684,2.0435,0.2051
				c0.6299,0.1855,1.1694,0.5156,1.6187,0.9893s0.791,1.0527,1.0254,1.7393c0.2344,0.6855,0.3516,1.5322,0.3516,2.5381
				c0,0.8838-0.1099,1.6455-0.3296,2.2852c-0.2686,0.7813-0.6519,1.4131-1.1499,1.8965c-0.376,0.3662-0.8838,0.6523-1.5234,0.8574
				c-0.4785,0.1514-1.1182,0.2266-1.9189,0.2266h-4.0796V11.0605z M26.3701,12.877v7.1123h1.6187
				c0.6055,0,1.0425-0.0342,1.311-0.1035c0.3516-0.0879,0.6431-0.2363,0.875-0.4463s0.4214-0.5557,0.5679-1.0361
				c0.1465-0.4814,0.2197-1.1367,0.2197-1.9668s-0.0732-1.4668-0.2197-1.9121c-0.1465-0.4434-0.3516-0.791-0.6152-1.0391
				c-0.2637-0.25-0.5981-0.418-1.0034-0.5059c-0.3027-0.0684-0.896-0.1025-1.7798-0.1025H26.3701z"/>
			<path fill="#603813" d="M35.0273,12.9648v-1.9043h2.0581v1.9043H35.0273z M35.0273,21.7979v-7.7783h2.0581v7.7783H35.0273z"/>
			<path fill="#603813" d="M38.4697,19.5791l2.0654-0.3154c0.0879,0.4004,0.2661,0.7041,0.5347,0.9121
				c0.2686,0.207,0.6445,0.3115,1.1279,0.3115c0.5322,0,0.9326-0.0977,1.2012-0.293c0.1807-0.1367,0.271-0.3203,0.271-0.5498
				c0-0.1563-0.0488-0.2861-0.1465-0.3877c-0.1025-0.0977-0.332-0.1885-0.6885-0.2715c-1.6602-0.3662-2.7124-0.7002-3.1567-1.0039
				c-0.6152-0.4189-0.9229-1.0029-0.9229-1.75c0-0.6738,0.2661-1.2402,0.7983-1.6992s1.3574-0.6885,2.4756-0.6885
				c1.0645,0,1.8555,0.1738,2.373,0.5205s0.874,0.8594,1.0693,1.5371l-1.9409,0.3594c-0.083-0.3027-0.2407-0.5352-0.4722-0.6953
				c-0.2324-0.1621-0.563-0.2422-0.9927-0.2422c-0.542,0-0.9302,0.0762-1.1646,0.2266c-0.1563,0.1084-0.2344,0.2471-0.2344,0.418
				c0,0.1465,0.0684,0.2715,0.2051,0.373c0.1855,0.1377,0.8262,0.3301,1.9229,0.5791c1.0957,0.249,1.8613,0.5547,2.2959,0.915
				c0.4297,0.3672,0.6445,0.877,0.6445,1.5313c0,0.7129-0.2979,1.3262-0.8936,1.8379c-0.5957,0.5137-1.4771,0.7695-2.644,0.7695
				c-1.0596,0-1.8984-0.2148-2.5161-0.6445S38.6602,20.3164,38.4697,19.5791z"/>
			<path fill="#603813" d="M52.0415,19.3223l2.0508,0.3447c-0.2637,0.752-0.6802,1.3242-1.249,1.7168
				c-0.5688,0.3936-1.2803,0.5898-2.1348,0.5898c-1.3525,0-2.3535-0.4414-3.0029-1.3262c-0.5127-0.707-0.769-1.6006-0.769-2.6797
				c0-1.2891,0.3369-2.2988,1.0107-3.0293c0.6738-0.7295,1.5259-1.0947,2.5562-1.0947c1.1572,0,2.0703,0.3818,2.7393,1.1465
				c0.6689,0.7637,0.9888,1.9346,0.9595,3.5117h-5.1563c0.0146,0.6104,0.1807,1.085,0.498,1.4248
				c0.3174,0.3389,0.7129,0.5088,1.1865,0.5088c0.3223,0,0.5933-0.0879,0.813-0.2637S51.9292,19.7129,52.0415,19.3223z
				 M52.1587,17.2422c-0.0146-0.5957-0.1685-1.0488-0.4614-1.3584c-0.293-0.3105-0.6494-0.4648-1.0693-0.4648
				c-0.4492,0-0.8203,0.1631-1.1133,0.4902s-0.437,0.7715-0.4321,1.333H52.1587z"/>
			<path fill="#603813" d="M62.9546,21.7979h-2.0581v-3.9697c0-0.8398-0.0439-1.3828-0.1318-1.6299
				c-0.0879-0.2461-0.2305-0.4375-0.4287-0.5742c-0.1973-0.1367-0.4355-0.2051-0.7139-0.2051c-0.3564,0-0.6763,0.0977-0.9595,0.293
				s-0.4775,0.4531-0.5825,0.7754s-0.1572,0.9189-0.1572,1.7871v3.5234h-2.0581v-7.7783h1.9116v1.1426
				c0.6787-0.8789,1.5332-1.3184,2.5635-1.3184c0.4541,0,0.8691,0.082,1.2451,0.2451c0.376,0.1641,0.6602,0.373,0.8535,0.627
				c0.1924,0.2539,0.3267,0.541,0.4023,0.8633s0.1138,0.7842,0.1138,1.3848V21.7979z M57.8203,12.9717h-0.9375
				c-0.0049-0.1113-0.0073-0.1992-0.0073-0.2637c0-0.5117,0.1245-0.9063,0.3735-1.1826c0.249-0.2754,0.5688-0.4131,0.9595-0.4131
				c0.1709,0,0.3296,0.0176,0.4761,0.0547c0.1465,0.0361,0.4141,0.1416,0.8018,0.3145c0.3887,0.1738,0.6924,0.2598,0.9121,0.2598
				c0.1563,0,0.2866-0.0479,0.3916-0.1465c0.105-0.0967,0.1724-0.2607,0.2017-0.4902h0.9521
				c-0.0049,0.6592-0.1284,1.1309-0.3696,1.4141c-0.2422,0.2832-0.5532,0.4238-0.9341,0.4238c-0.166,0-0.3296-0.0166-0.4907-0.0508
				c-0.1123-0.0293-0.3931-0.1289-0.8423-0.3008c-0.4492-0.1699-0.7764-0.2559-0.9814-0.2559c-0.1563,0-0.2783,0.0479-0.3662,0.1426
				C57.8716,12.5732,57.8252,12.7373,57.8203,12.9717z"/>
			<path fill="#603813" d="M64.5659,17.7988c0-0.6836,0.1685-1.3447,0.5054-1.9854c0.3369-0.6387,0.814-1.127,1.4321-1.4648
				c0.6172-0.3359,1.3071-0.5049,2.0688-0.5049c1.1768,0,2.1411,0.3818,2.8931,1.1465c0.752,0.7637,1.1279,1.7295,1.1279,2.8965
				c0,1.1768-0.3799,2.1523-1.1387,2.9258c-0.7598,0.7744-1.7153,1.1611-2.8677,1.1611c-0.7129,0-1.3931-0.1611-2.0396-0.4834
				c-0.6475-0.3223-1.1392-0.7949-1.4761-1.417C64.7344,19.4502,64.5659,18.6924,64.5659,17.7988z M66.6753,17.9092
				c0,0.7715,0.1831,1.3613,0.5493,1.7715s0.8179,0.6152,1.355,0.6152s0.9873-0.2051,1.3516-0.6152
				c0.3633-0.4102,0.5454-1.0049,0.5454-1.7871c0-0.7617-0.1821-1.3477-0.5454-1.7578c-0.3643-0.4102-0.8145-0.6152-1.3516-0.6152
				s-0.9888,0.2051-1.355,0.6152S66.6753,17.1377,66.6753,17.9092z"/>
			<path fill="#603813" d="M85.5059,21.7979h-1.9116v-1.1426c-0.3174,0.4443-0.6924,0.7754-1.124,0.9922
				c-0.4326,0.2178-0.8682,0.3262-1.3076,0.3262c-0.8936,0-1.6592-0.3604-2.2959-1.0801c-0.6377-0.7207-0.9561-1.7246-0.9561-3.0137
				c0-1.3184,0.3101-2.3213,0.9302-3.0068c0.6201-0.6865,1.4038-1.0293,2.3511-1.0293c0.8691,0,1.6211,0.3613,2.2559,1.084v-3.8672
				h2.0581V21.7979z M80.0127,17.7402c0,0.8301,0.1147,1.4307,0.3442,1.8018c0.332,0.5371,0.7959,0.8057,1.3916,0.8057
				c0.4736,0,0.8765-0.2012,1.2085-0.6045c0.332-0.4023,0.498-1.0039,0.498-1.8047c0-0.8945-0.1611-1.5371-0.4834-1.9307
				c-0.3223-0.3926-0.7349-0.5889-1.2378-0.5889c-0.4883,0-0.8975,0.1934-1.2266,0.582
				C80.1772,16.3887,80.0127,16.9688,80.0127,17.7402z"/>
			<path fill="#603813" d="M92.0391,19.3223l2.0508,0.3447c-0.2637,0.752-0.6802,1.3242-1.249,1.7168
				c-0.5688,0.3936-1.2803,0.5898-2.1348,0.5898c-1.3525,0-2.3535-0.4414-3.0029-1.3262c-0.5127-0.707-0.769-1.6006-0.769-2.6797
				c0-1.2891,0.3369-2.2988,1.0107-3.0293c0.6738-0.7295,1.5259-1.0947,2.5562-1.0947c1.1572,0,2.0703,0.3818,2.7393,1.1465
				c0.6689,0.7637,0.9888,1.9346,0.9595,3.5117h-5.1563c0.0146,0.6104,0.1807,1.085,0.498,1.4248
				c0.3174,0.3389,0.7129,0.5088,1.1865,0.5088c0.3223,0,0.5933-0.0879,0.813-0.2637S91.9268,19.7129,92.0391,19.3223z
				 M92.1563,17.2422c-0.0146-0.5957-0.1685-1.0488-0.4614-1.3584c-0.293-0.3105-0.6494-0.4648-1.0693-0.4648
				c-0.4492,0-0.8203,0.1631-1.1133,0.4902s-0.437,0.7715-0.4321,1.333H92.1563z"/>
			<path fill="#603813" d="M106.8271,16.3193l-2.0293,0.3662c-0.0684-0.4053-0.2236-0.71-0.4648-0.915
				c-0.2422-0.2051-0.5557-0.3086-0.9414-0.3086c-0.5127,0-0.9219,0.1777-1.2266,0.5313c-0.3057,0.3545-0.458,0.9463-0.458,1.7764
				c0,0.9229,0.1548,1.5752,0.4648,1.9561s0.7266,0.5703,1.249,0.5703c0.3906,0,0.7109-0.1104,0.959-0.333
				c0.25-0.2217,0.4258-0.6045,0.5273-1.1455l2.0215,0.3438c-0.209,0.9277-0.6123,1.6289-1.208,2.1016
				c-0.5957,0.4746-1.3936,0.7109-2.395,0.7109c-1.1377,0-2.0449-0.3594-2.7212-1.0762c-0.6763-0.7188-1.0142-1.7119-1.0142-2.9814
				c0-1.2842,0.3394-2.2842,1.0181-2.999c0.6787-0.7158,1.5967-1.0732,2.7539-1.0732c0.9473,0,1.7002,0.2041,2.2598,0.6113
				C106.1807,14.8633,106.583,15.4844,106.8271,16.3193z"/>
			<path fill="#603813" d="M107.9111,17.7988c0-0.6836,0.168-1.3447,0.5049-1.9854c0.3369-0.6387,0.8135-1.127,1.4326-1.4648
				c0.6172-0.3359,1.3066-0.5049,2.0684-0.5049c1.1768,0,2.1406,0.3818,2.8926,1.1465c0.752,0.7637,1.1289,1.7295,1.1289,2.8965
				c0,1.1768-0.3809,2.1523-1.1387,2.9258c-0.7598,0.7744-1.7158,1.1611-2.8682,1.1611c-0.7129,0-1.3936-0.1611-2.04-0.4834
				s-1.1387-0.7949-1.4756-1.417C108.0791,19.4502,107.9111,18.6924,107.9111,17.7988z M110.0205,17.9092
				c0,0.7715,0.1826,1.3613,0.5488,1.7715s0.8184,0.6152,1.3555,0.6152s0.9863-0.2051,1.3516-0.6152
				c0.3633-0.4102,0.5449-1.0049,0.5449-1.7871c0-0.7617-0.1816-1.3477-0.5449-1.7578c-0.3652-0.4102-0.8145-0.6152-1.3516-0.6152
				s-0.9893,0.2051-1.3555,0.6152S110.0205,17.1377,110.0205,17.9092z"/>
			<path fill="#603813" d="M117.3955,14.0195h1.8965v1.0615c0.6797-0.8242,1.4873-1.2373,2.4248-1.2373
				c0.498,0,0.9307,0.1025,1.2959,0.3076c0.3672,0.2051,0.667,0.5156,0.9014,0.9297c0.3418-0.4141,0.71-0.7246,1.1064-0.9297
				c0.3945-0.2051,0.8174-0.3076,1.2666-0.3076c0.5713,0,1.0547,0.1162,1.4502,0.3477c0.3955,0.2324,0.6914,0.5732,0.8867,1.0225
				c0.1406,0.332,0.2119,0.8691,0.2119,1.6113v4.9727h-2.0576v-4.4453c0-0.7715-0.0713-1.2695-0.2129-1.4941
				c-0.1904-0.293-0.4834-0.4395-0.8789-0.4395c-0.2881,0-0.5586,0.0879-0.8125,0.2637s-0.4375,0.4326-0.5498,0.7725
				c-0.1123,0.3389-0.1689,0.875-0.1689,1.6074v3.7354h-2.0576v-4.2627c0-0.7568-0.0361-1.2451-0.1104-1.4648
				c-0.0723-0.2197-0.1865-0.3828-0.3398-0.4912c-0.1543-0.1064-0.3633-0.1602-0.627-0.1602c-0.3164,0-0.6025,0.085-0.8564,0.2559
				s-0.4355,0.418-0.5459,0.7402c-0.1094,0.3223-0.1641,0.8564-0.1641,1.6035v3.7793h-2.0586V14.0195z"/>
			<path fill="#603813" d="M130.8281,14.0195h1.9189v1.1426c0.249-0.3906,0.5859-0.708,1.0107-0.9521s0.8955-0.3662,1.4131-0.3662
				c0.9043,0,1.6699,0.3545,2.3008,1.0615c0.6289,0.709,0.9443,1.6953,0.9443,2.959c0,1.2998-0.3174,2.3086-0.9521,3.0293
				c-0.6348,0.7197-1.4043,1.0801-2.3066,1.0801c-0.4297,0-0.8203-0.0859-1.168-0.2559c-0.3496-0.1709-0.7168-0.4639-1.1035-0.8789
				v3.918h-2.0576V14.0195z M132.8643,17.7764c0,0.875,0.1738,1.5205,0.5195,1.9375c0.3477,0.418,0.7695,0.627,1.2676,0.627
				c0.4785,0,0.877-0.1924,1.1934-0.5752c0.3184-0.3838,0.4766-1.0117,0.4766-1.8857c0-0.8154-0.1641-1.4219-0.4902-1.8164
				c-0.3281-0.3965-0.7324-0.5938-1.2168-0.5938c-0.502,0-0.9199,0.1943-1.252,0.582
				C133.0303,16.4404,132.8643,17.0146,132.8643,17.7764z"/>
			<path fill="#603813" d="M139.5732,17.7988c0-0.6836,0.168-1.3447,0.5059-1.9854c0.3359-0.6387,0.8135-1.127,1.4316-1.4648
				c0.6172-0.3359,1.3066-0.5049,2.0684-0.5049c1.1777,0,2.1416,0.3818,2.8936,1.1465c0.752,0.7637,1.1279,1.7295,1.1279,2.8965
				c0,1.1768-0.3799,2.1523-1.1387,2.9258c-0.7598,0.7744-1.7148,1.1611-2.8672,1.1611c-0.7129,0-1.3936-0.1611-2.04-0.4834
				c-0.6475-0.3223-1.1396-0.7949-1.4756-1.417C139.7412,19.4502,139.5732,18.6924,139.5732,17.7988z M141.6826,17.9092
				c0,0.7715,0.1836,1.3613,0.5488,1.7715c0.3672,0.4102,0.8184,0.6152,1.3555,0.6152s0.9873-0.2051,1.3516-0.6152
				c0.3633-0.4102,0.5449-1.0049,0.5449-1.7871c0-0.7617-0.1816-1.3477-0.5449-1.7578c-0.3643-0.4102-0.8145-0.6152-1.3516-0.6152
				s-0.9883,0.2051-1.3555,0.6152C141.8662,16.5459,141.6826,17.1377,141.6826,17.9092z"/>
			<path fill="#603813" d="M156.2871,21.7979h-2.0576v-3.9697c0-0.8398-0.0449-1.3828-0.1328-1.6299
				c-0.0879-0.2461-0.2305-0.4375-0.4277-0.5742s-0.4355-0.2051-0.7148-0.2051c-0.3555,0-0.6758,0.0977-0.959,0.293
				s-0.4775,0.4531-0.582,0.7754c-0.1055,0.3223-0.1582,0.9189-0.1582,1.7871v3.5234h-2.0576v-7.7783h1.9111v1.1426
				c0.6797-0.8789,1.5332-1.3184,2.5645-1.3184c0.4531,0,0.8691,0.082,1.2441,0.2451c0.377,0.1641,0.6602,0.373,0.8535,0.627
				s0.3271,0.541,0.4023,0.8633c0.0762,0.3223,0.1143,0.7842,0.1143,1.3848V21.7979z"/>
			<path fill="#603813" d="M162.8789,19.3223l2.0508,0.3447c-0.2637,0.752-0.6807,1.3242-1.249,1.7168
				c-0.5684,0.3936-1.2803,0.5898-2.1348,0.5898c-1.3525,0-2.3535-0.4414-3.0029-1.3262c-0.5127-0.707-0.7686-1.6006-0.7686-2.6797
				c0-1.2891,0.3359-2.2988,1.0098-3.0293c0.6738-0.7295,1.5264-1.0947,2.5566-1.0947c1.1572,0,2.0703,0.3818,2.7393,1.1465
				c0.6689,0.7637,0.9893,1.9346,0.96,3.5117h-5.1563c0.0137,0.6104,0.1797,1.085,0.498,1.4248
				c0.3164,0.3389,0.7129,0.5088,1.1855,0.5088c0.3223,0,0.5938-0.0879,0.8135-0.2637S162.7666,19.7129,162.8789,19.3223z
				 M162.9961,17.2422c-0.0146-0.5957-0.1689-1.0488-0.4619-1.3584c-0.293-0.3105-0.6484-0.4648-1.0684-0.4648
				c-0.4492,0-0.8203,0.1631-1.1133,0.4902s-0.4375,0.7715-0.4326,1.333H162.9961z"/>
			<path fill="#603813" d="M173.792,21.7979h-2.0586v-3.9697c0-0.8398-0.043-1.3828-0.1309-1.6299
				c-0.0879-0.2461-0.2305-0.4375-0.4297-0.5742c-0.1973-0.1367-0.4355-0.2051-0.7129-0.2051c-0.3574,0-0.6768,0.0977-0.96,0.293
				s-0.4775,0.4531-0.583,0.7754c-0.1045,0.3223-0.1563,0.9189-0.1563,1.7871v3.5234h-2.0586v-7.7783h1.9121v1.1426
				c0.6777-0.8789,1.5332-1.3184,2.5625-1.3184c0.4551,0,0.8691,0.082,1.2461,0.2451c0.375,0.1641,0.6602,0.373,0.8535,0.627
				c0.1914,0.2539,0.3262,0.541,0.4023,0.8633c0.0752,0.3223,0.1133,0.7842,0.1133,1.3848V21.7979z"/>
			<path fill="#603813" d="M179.4463,14.0195v1.6406H178.04v3.1348c0,0.6348,0.0137,1.0049,0.04,1.1094
				c0.0264,0.1055,0.0879,0.1924,0.1836,0.2607c0.0947,0.0684,0.2109,0.1016,0.3477,0.1016c0.1904,0,0.4658-0.0654,0.8271-0.1973
				l0.1758,1.5967c-0.4785,0.2051-1.0195,0.3076-1.625,0.3076c-0.3711,0-0.7061-0.0625-1.0039-0.1865
				c-0.2979-0.125-0.5166-0.2861-0.6553-0.4834c-0.1396-0.1982-0.2354-0.4648-0.29-0.8027
				c-0.043-0.2383-0.0654-0.7217-0.0654-1.4492v-3.3916h-0.9443v-1.6406h0.9443v-1.5459l2.0654-1.2012v2.7471H179.4463z"/>
			<path fill="#603813" d="M185.3789,19.3223l2.0508,0.3447c-0.2637,0.752-0.6807,1.3242-1.249,1.7168
				c-0.5684,0.3936-1.2803,0.5898-2.1348,0.5898c-1.3525,0-2.3535-0.4414-3.0029-1.3262c-0.5127-0.707-0.7686-1.6006-0.7686-2.6797
				c0-1.2891,0.3359-2.2988,1.0098-3.0293c0.6738-0.7295,1.5264-1.0947,2.5566-1.0947c1.1572,0,2.0703,0.3818,2.7393,1.1465
				c0.6689,0.7637,0.9893,1.9346,0.96,3.5117h-5.1563c0.0137,0.6104,0.1797,1.085,0.498,1.4248
				c0.3164,0.3389,0.7129,0.5088,1.1855,0.5088c0.3223,0,0.5938-0.0879,0.8135-0.2637S185.2666,19.7129,185.3789,19.3223z
				 M185.4961,17.2422c-0.0146-0.5957-0.1689-1.0488-0.4619-1.3584c-0.293-0.3105-0.6484-0.4648-1.0684-0.4648
				c-0.4492,0-0.8203,0.1631-1.1133,0.4902s-0.4375,0.7715-0.4326,1.333H185.4961z"/>
			<path fill="#603813" d="M188.4912,19.5791l2.0664-0.3154c0.0879,0.4004,0.2656,0.7041,0.5342,0.9121
				c0.2686,0.207,0.6445,0.3115,1.1279,0.3115c0.5322,0,0.9326-0.0977,1.2012-0.293c0.1807-0.1367,0.2715-0.3203,0.2715-0.5498
				c0-0.1563-0.0488-0.2861-0.1465-0.3877c-0.1035-0.0977-0.332-0.1885-0.6895-0.2715c-1.6602-0.3662-2.7119-0.7002-3.1563-1.0039
				c-0.6152-0.4189-0.9229-1.0029-0.9229-1.75c0-0.6738,0.2666-1.2402,0.7979-1.6992c0.5332-0.459,1.3574-0.6885,2.4766-0.6885
				c1.0645,0,1.8555,0.1738,2.373,0.5205s0.873,0.8594,1.0684,1.5371l-1.9404,0.3594c-0.083-0.3027-0.2412-0.5352-0.4717-0.6953
				c-0.2324-0.1621-0.5635-0.2422-0.9932-0.2422c-0.542,0-0.9307,0.0762-1.165,0.2266c-0.1563,0.1084-0.2344,0.2471-0.2344,0.418
				c0,0.1465,0.0684,0.2715,0.2051,0.373c0.1855,0.1377,0.8262,0.3301,1.9238,0.5791c1.0957,0.249,1.8613,0.5547,2.2949,0.915
				c0.4297,0.3672,0.6445,0.877,0.6445,1.5313c0,0.7129-0.2969,1.3262-0.8926,1.8379c-0.5957,0.5137-1.4775,0.7695-2.6445,0.7695
				c-1.0596,0-1.8984-0.2148-2.5156-0.6445C189.0859,20.8994,188.6826,20.3164,188.4912,19.5791z"/>
			<path fill="#603813" d="M12.4473,36.3486l1.3403-0.1172c0.0635,0.5371,0.2109,0.9775,0.4429,1.3213
				c0.2319,0.3447,0.5923,0.623,1.0806,0.835c0.4883,0.2129,1.0376,0.3184,1.6479,0.3184c0.542,0,1.0205-0.0801,1.4355-0.2412
				s0.7236-0.3818,0.9268-0.6631c0.2021-0.2803,0.3037-0.5869,0.3037-0.9189c0-0.3369-0.0977-0.6309-0.293-0.8828
				c-0.1953-0.251-0.5176-0.4619-0.9668-0.6338c-0.2881-0.1113-0.9253-0.2861-1.9116-0.5234
				c-0.9863-0.2363-1.6772-0.46-2.0728-0.6699c-0.5127-0.2686-0.895-0.6016-1.1465-1c-0.2515-0.3975-0.377-0.8428-0.377-1.3359
				c0-0.543,0.1538-1.0488,0.4614-1.5205c0.3076-0.4707,0.7568-0.8281,1.3477-1.0732c0.5908-0.2432,1.2476-0.3652,1.9702-0.3652
				c0.7959,0,1.498,0.1279,2.1055,0.3838c0.6084,0.2568,1.0757,0.6338,1.4028,1.1318s0.5029,1.0625,0.5273,1.6914l-1.3623,0.1035
				c-0.0732-0.6787-0.3213-1.1914-0.7437-1.5391c-0.4224-0.3457-1.0459-0.5195-1.8711-0.5195c-0.8594,0-1.4858,0.1572-1.8789,0.4727
				c-0.3931,0.3145-0.5894,0.6943-0.5894,1.1387c0,0.3857,0.1392,0.7031,0.4175,0.9521c0.2734,0.249,0.9873,0.5039,2.1426,0.7656
				c1.1543,0.2607,1.9468,0.4893,2.3765,0.6846c0.625,0.2881,1.0864,0.6533,1.3843,1.0947
				c0.2979,0.4424,0.4468,0.9512,0.4468,1.5273c0,0.5713-0.1636,1.1094-0.4907,1.6152c-0.3271,0.5049-0.7974,0.8984-1.4102,1.1787
				c-0.6128,0.2813-1.3022,0.4219-2.0688,0.4219c-0.9717,0-1.7861-0.1426-2.4429-0.4258c-0.6567-0.2822-1.1719-0.709-1.5449-1.2773
				C12.6631,37.709,12.4668,37.0654,12.4473,36.3486z"/>
			<path fill="#603813" d="M28.0918,37.293l1.3623,0.1689c-0.2148,0.7959-0.6128,1.4131-1.1938,1.8525s-1.3232,0.6592-2.2266,0.6592
				c-1.1377,0-2.0396-0.3506-2.7065-1.0508c-0.666-0.7012-0.9995-1.6836-0.9995-2.9482c0-1.3086,0.3369-2.3242,1.0107-3.0469
				s1.5479-1.084,2.6221-1.084c1.04,0,1.8896,0.3545,2.5488,1.0615c0.6592,0.709,0.9888,1.7051,0.9888,2.9883
				c0,0.0791-0.0024,0.1963-0.0073,0.3516h-5.8008c0.0488,0.8555,0.2905,1.5098,0.7251,1.9629
				c0.4346,0.4551,0.9766,0.6816,1.626,0.6816c0.4834,0,0.896-0.127,1.2378-0.3809S27.8916,37.8496,28.0918,37.293z
				 M23.7632,35.1611h4.3433c-0.0586-0.6533-0.2246-1.1445-0.498-1.4717c-0.4199-0.5078-0.9644-0.7617-1.6333-0.7617
				c-0.6055,0-1.1147,0.2031-1.5269,0.6084C24.0352,33.9414,23.8071,34.4834,23.7632,35.1611z"/>
			<path fill="#603813" d="M46.0103,38.8389c-0.4883,0.415-0.9585,0.708-1.4102,0.8789c-0.4517,0.1699-0.936,0.2559-1.4536,0.2559
				c-0.8545,0-1.5112-0.209-1.9702-0.626c-0.459-0.418-0.6885-0.9512-0.6885-1.6006c0-0.3809,0.0864-0.7285,0.2598-1.0439
				c0.1733-0.3145,0.4004-0.5674,0.6816-0.7578c0.2803-0.1904,0.5967-0.334,0.9482-0.4326
				c0.2588-0.0674,0.6494-0.1338,1.1719-0.1973c1.0645-0.127,1.8481-0.2783,2.3511-0.4541
				c0.0049-0.1807,0.0073-0.2949,0.0073-0.3447c0-0.5361-0.1245-0.915-0.3735-1.1348c-0.3369-0.2979-0.8374-0.4473-1.5015-0.4473
				c-0.6201,0-1.0781,0.1094-1.373,0.3262c-0.2959,0.2178-0.5142,0.6025-0.6558,1.1543l-1.2891-0.1758
				c0.1172-0.5518,0.3101-0.998,0.5786-1.3369c0.2686-0.3398,0.6567-0.6006,1.1646-0.7842
				c0.5078-0.1826,1.0962-0.2744,1.7651-0.2744c0.6641,0,1.2036,0.0781,1.6187,0.2344s0.7202,0.3525,0.9155,0.5898
				c0.1953,0.2363,0.332,0.5361,0.4102,0.8975c0.0439,0.2246,0.0659,0.6289,0.0659,1.2148v1.7578
				c0,1.2266,0.0278,2.001,0.0845,2.3262c0.0557,0.3242,0.167,0.6357,0.333,0.9336h-1.377
				C46.1372,39.5244,46.0493,39.2041,46.0103,38.8389z M45.9004,35.8936c-0.4785,0.1963-1.1963,0.3623-2.1533,0.498
				c-0.542,0.0791-0.9253,0.167-1.1499,0.2637c-0.2246,0.0986-0.3979,0.2412-0.52,0.4287c-0.1221,0.1885-0.1831,0.3975-0.1831,0.626
				c0,0.3516,0.1328,0.6445,0.3994,0.8789c0.2656,0.2344,0.6553,0.3516,1.168,0.3516c0.5078,0,0.9595-0.1104,1.355-0.333
				c0.3955-0.2217,0.686-0.5254,0.8716-0.9111c0.1416-0.2979,0.2124-0.7373,0.2124-1.3184V35.8936z"/>
			<path fill="#603813" d="M48.7495,37.4756l1.3037-0.2051c0.0732,0.5234,0.2769,0.9238,0.6118,1.2012
				c0.334,0.2793,0.8018,0.418,1.4023,0.418c0.6055,0,1.0547-0.123,1.3477-0.3701c0.293-0.2461,0.4395-0.5352,0.4395-0.8682
				c0-0.2969-0.1294-0.5313-0.3882-0.7031c-0.1807-0.1172-0.6299-0.2656-1.3477-0.4463c-0.9668-0.2441-1.6372-0.4551-2.0103-0.6338
				c-0.374-0.1777-0.6572-0.4248-0.8496-0.7393c-0.1934-0.3154-0.2896-0.6631-0.2896-1.0439c0-0.3467,0.0791-0.668,0.2378-0.9629
				c0.1587-0.2959,0.375-0.541,0.6484-0.7363c0.2051-0.1514,0.4844-0.2793,0.8389-0.3848c0.3535-0.1045,0.7334-0.1572,1.1387-0.1572
				c0.6104,0,1.1465,0.0879,1.6074,0.2637c0.4619,0.1758,0.8022,0.4141,1.022,0.7139c0.2197,0.3008,0.3711,0.7021,0.4541,1.2051
				l-1.2891,0.1758c-0.0586-0.4004-0.2285-0.7129-0.5093-0.9375s-0.6772-0.3369-1.1899-0.3369
				c-0.6055,0-1.0376,0.1006-1.2964,0.2998c-0.2588,0.2012-0.3882,0.4355-0.3882,0.7031c0,0.1719,0.0537,0.3252,0.1611,0.4619
				c0.1074,0.1416,0.2759,0.2588,0.5054,0.3516c0.1318,0.0488,0.52,0.1611,1.1646,0.3369c0.9326,0.249,1.583,0.4531,1.9517,0.6113
				c0.3687,0.1592,0.6582,0.3896,0.8682,0.6924s0.3149,0.6787,0.3149,1.1279c0,0.4395-0.1284,0.8535-0.3843,1.2412
				c-0.2568,0.3887-0.6265,0.6885-1.1099,0.9014c-0.4834,0.2119-1.0303,0.3184-1.6406,0.3184c-1.0107,0-1.7813-0.21-2.311-0.6299
				S48.896,38.3018,48.7495,37.4756z"/>
			<path fill="#603813" d="M56.7842,30.5771v-1.5166h1.3184v1.5166H56.7842z M56.7842,39.7979v-7.7783h1.3184v7.7783H56.7842z"/>
			<path fill="#603813" d="M59.8677,40.4424l1.2817,0.1904c0.0537,0.3955,0.2026,0.6836,0.4468,0.8643
				c0.3271,0.2441,0.7739,0.3662,1.3403,0.3662c0.6104,0,1.0815-0.1221,1.4136-0.3662s0.5566-0.5859,0.6738-1.0254
				c0.0684-0.2686,0.1001-0.832,0.0952-1.6914c-0.5762,0.6787-1.2939,1.0176-2.1533,1.0176c-1.0693,0-1.897-0.3857-2.4829-1.1572
				s-0.8789-1.6963-0.8789-2.7764c0-0.7412,0.1343-1.4268,0.4028-2.0537c0.2686-0.6279,0.6577-1.1123,1.1685-1.4541
				c0.5098-0.3418,1.1094-0.5127,1.7979-0.5127c0.918,0,1.6748,0.3711,2.2705,1.1133v-0.9375h1.2158v6.7236
				c0,1.2109-0.1235,2.0693-0.3701,2.5742c-0.2466,0.5059-0.6367,0.9043-1.1719,1.1973c-0.5342,0.293-1.1924,0.4395-1.9736,0.4395
				c-0.9277,0-1.6772-0.208-2.2485-0.626C60.124,41.9111,59.8481,41.2822,59.8677,40.4424z M60.959,35.7695
				c0,1.0205,0.2026,1.7646,0.6079,2.2334s0.9131,0.7031,1.5234,0.7031c0.6055,0,1.1133-0.2324,1.5234-0.6992
				c0.4102-0.4658,0.6152-1.1973,0.6152-2.1934c0-0.9521-0.2114-1.6699-0.6338-2.1533s-0.9312-0.7256-1.5269-0.7256
				c-0.5859,0-1.084,0.2383-1.4941,0.7148C61.1641,34.125,60.959,34.832,60.959,35.7695z"/>
			<path fill="#603813" d="M68.4517,39.7979v-7.7783h1.1865v1.1064c0.5713-0.8545,1.3965-1.2822,2.4756-1.2822
				c0.4688,0,0.8994,0.084,1.2925,0.2529c0.3931,0.168,0.6875,0.3896,0.8828,0.6621c0.1953,0.2744,0.332,0.5986,0.4102,0.9746
				c0.0488,0.2441,0.0732,0.6719,0.0732,1.2813v4.7832h-1.3184v-4.7314c0-0.5371-0.0513-0.9385-0.1538-1.2051
				c-0.1025-0.2656-0.2847-0.4785-0.5454-0.6367c-0.2617-0.1592-0.5679-0.2383-0.9194-0.2383c-0.5615,0-1.0464,0.1787-1.4536,0.5342
				c-0.4082,0.3574-0.6118,1.0332-0.6118,2.0293v4.248H68.4517z"/>
			<path fill="#603813" d="M81.8696,38.8389c-0.4883,0.415-0.9585,0.708-1.4102,0.8789c-0.4517,0.1699-0.936,0.2559-1.4536,0.2559
				c-0.8545,0-1.5112-0.209-1.9702-0.626c-0.459-0.418-0.6885-0.9512-0.6885-1.6006c0-0.3809,0.0864-0.7285,0.2598-1.0439
				c0.1733-0.3145,0.4004-0.5674,0.6816-0.7578c0.2803-0.1904,0.5967-0.334,0.9482-0.4326
				c0.2588-0.0674,0.6494-0.1338,1.1719-0.1973c1.0645-0.127,1.8481-0.2783,2.3511-0.4541
				c0.0049-0.1807,0.0073-0.2949,0.0073-0.3447c0-0.5361-0.1245-0.915-0.3735-1.1348c-0.3369-0.2979-0.8374-0.4473-1.5015-0.4473
				c-0.6201,0-1.0781,0.1094-1.373,0.3262c-0.2959,0.2178-0.5142,0.6025-0.6558,1.1543l-1.2891-0.1758
				c0.1172-0.5518,0.3101-0.998,0.5786-1.3369c0.2686-0.3398,0.6567-0.6006,1.1646-0.7842
				c0.5078-0.1826,1.0962-0.2744,1.7651-0.2744c0.6641,0,1.2036,0.0781,1.6187,0.2344s0.7202,0.3525,0.9155,0.5898
				c0.1953,0.2363,0.332,0.5361,0.4102,0.8975c0.0439,0.2246,0.0659,0.6289,0.0659,1.2148v1.7578
				c0,1.2266,0.0278,2.001,0.0845,2.3262c0.0557,0.3242,0.167,0.6357,0.333,0.9336h-1.377
				C81.9966,39.5244,81.9087,39.2041,81.8696,38.8389z M81.7598,35.8936c-0.4785,0.1963-1.1963,0.3623-2.1533,0.498
				c-0.542,0.0791-0.9253,0.167-1.1499,0.2637c-0.2246,0.0986-0.3979,0.2412-0.52,0.4287c-0.1221,0.1885-0.1831,0.3975-0.1831,0.626
				c0,0.3516,0.1328,0.6445,0.3994,0.8789c0.2656,0.2344,0.6553,0.3516,1.168,0.3516c0.5078,0,0.9595-0.1104,1.355-0.333
				c0.3955-0.2217,0.686-0.5254,0.8716-0.9111c0.1416-0.2979,0.2124-0.7373,0.2124-1.3184V35.8936z"/>
			<path fill="#603813" d="M85.1362,39.7979v-7.7783h1.1865v1.1064c0.5713-0.8545,1.3965-1.2822,2.4756-1.2822
				c0.4688,0,0.8994,0.084,1.2925,0.2529c0.3931,0.168,0.6875,0.3896,0.8828,0.6621c0.1953,0.2744,0.332,0.5986,0.4102,0.9746
				c0.0488,0.2441,0.0732,0.6719,0.0732,1.2813v4.7832h-1.3184v-4.7314c0-0.5371-0.0513-0.9385-0.1538-1.2051
				c-0.1025-0.2656-0.2847-0.4785-0.5454-0.6367c-0.2617-0.1592-0.5679-0.2383-0.9194-0.2383c-0.5615,0-1.0464,0.1787-1.4536,0.5342
				c-0.4082,0.3574-0.6118,1.0332-0.6118,2.0293v4.248H85.1362z"/>
			<path fill="#603813" d="M102.7764,37.4756l1.3037-0.2051c0.0732,0.5234,0.2764,0.9238,0.6123,1.2012
				c0.334,0.2793,0.8008,0.418,1.4023,0.418c0.6055,0,1.0547-0.123,1.3477-0.3701c0.293-0.2461,0.4395-0.5352,0.4395-0.8682
				c0-0.2969-0.1299-0.5313-0.3887-0.7031c-0.1807-0.1172-0.6299-0.2656-1.3477-0.4463c-0.9668-0.2441-1.6367-0.4551-2.0098-0.6338
				c-0.375-0.1777-0.6577-0.4248-0.8501-0.7393c-0.1934-0.3154-0.2896-0.6631-0.2896-1.0439c0-0.3467,0.0791-0.668,0.2378-0.9629
				c0.1587-0.2959,0.375-0.541,0.6479-0.7363c0.2051-0.1514,0.4844-0.2793,0.8398-0.3848c0.3535-0.1045,0.7324-0.1572,1.1387-0.1572
				c0.6094,0,1.1465,0.0879,1.6074,0.2637s0.8018,0.4141,1.0215,0.7139c0.2197,0.3008,0.3711,0.7021,0.4541,1.2051l-1.2891,0.1758
				c-0.0586-0.4004-0.2285-0.7129-0.5088-0.9375c-0.2813-0.2246-0.6777-0.3369-1.1904-0.3369c-0.6055,0-1.0381,0.1006-1.2959,0.2998
				c-0.2598,0.2012-0.3887,0.4355-0.3887,0.7031c0,0.1719,0.0537,0.3252,0.1611,0.4619c0.1074,0.1416,0.2764,0.2588,0.5049,0.3516
				c0.1328,0.0488,0.5205,0.1611,1.165,0.3369c0.9326,0.249,1.583,0.4531,1.9521,0.6113c0.3682,0.1592,0.6582,0.3896,0.8672,0.6924
				c0.2109,0.3027,0.3154,0.6787,0.3154,1.1279c0,0.4395-0.1279,0.8535-0.3838,1.2412c-0.2578,0.3887-0.627,0.6885-1.1104,0.9014
				c-0.4834,0.2119-1.0303,0.3184-1.6406,0.3184c-1.0107,0-1.7813-0.21-2.3115-0.6299
				C103.2607,38.9238,102.9229,38.3018,102.7764,37.4756z"/>
			<path fill="#603813" d="M116.1279,37.293l1.3633,0.1689c-0.2148,0.7959-0.6133,1.4131-1.1943,1.8525
				s-1.3232,0.6592-2.2266,0.6592c-1.1377,0-2.04-0.3506-2.7061-1.0508c-0.666-0.7012-1-1.6836-1-2.9482
				c0-1.3086,0.3369-2.3242,1.0107-3.0469s1.5479-1.084,2.6221-1.084c1.04,0,1.8896,0.3545,2.5488,1.0615
				c0.6592,0.709,0.9883,1.7051,0.9883,2.9883c0,0.0791-0.002,0.1963-0.0068,0.3516h-5.8008
				c0.0488,0.8555,0.29,1.5098,0.7256,1.9629c0.4336,0.4551,0.9766,0.6816,1.625,0.6816c0.4844,0,0.8965-0.127,1.2383-0.3809
				S115.9287,37.8496,116.1279,37.293z M111.7998,35.1611h4.3438c-0.0586-0.6533-0.2246-1.1445-0.498-1.4717
				c-0.4199-0.5078-0.9648-0.7617-1.6338-0.7617c-0.6055,0-1.1143,0.2031-1.5264,0.6084
				C112.0713,33.9414,111.8438,34.4834,111.7998,35.1611z"/>
			<path fill="#603813" d="M119.1318,39.7979v-7.7783h1.1855v1.1787c0.3027-0.5508,0.583-0.915,0.8389-1.0908
				c0.2568-0.1758,0.5381-0.2637,0.8467-0.2637c0.4434,0,0.8955,0.1416,1.3545,0.4248l-0.4541,1.2227
				c-0.3223-0.1895-0.6445-0.2852-0.9668-0.2852c-0.2881,0-0.5469,0.0869-0.7764,0.2598c-0.2295,0.1738-0.3936,0.4141-0.4912,0.7217
				c-0.1465,0.4688-0.2188,0.9814-0.2188,1.5381v4.0723H119.1318z"/>
			<path fill="#603813" d="M126.3018,39.7979l-2.959-7.7783h1.3916l1.6699,4.6582c0.1807,0.5029,0.3467,1.0254,0.498,1.5674
				c0.1172-0.4102,0.2803-0.9033,0.4912-1.4795l1.7285-4.7461h1.3545l-2.9443,7.7783H126.3018z"/>
			<path fill="#603813" d="M131.6484,30.5771v-1.5166h1.3184v1.5166H131.6484z M131.6484,39.7979v-7.7783h1.3184v7.7783H131.6484z"
				/>
			<path fill="#603813" d="M140.0498,36.9482l1.2959,0.1689c-0.1416,0.8936-0.5049,1.5928-1.0869,2.0986
				c-0.584,0.5049-1.3008,0.7578-2.1504,0.7578c-1.0645,0-1.9199-0.3477-2.5664-1.0439c-0.6484-0.6953-0.9707-1.6924-0.9707-2.9912
				c0-0.8398,0.1387-1.5752,0.417-2.2051s0.7021-1.1025,1.2705-1.417c0.5684-0.3154,1.1875-0.4727,1.8574-0.4727
				c0.8438,0,1.5352,0.2139,2.0723,0.6406c0.5371,0.4277,0.8809,1.0342,1.0332,1.8203l-1.2822,0.1982
				c-0.1221-0.5225-0.3389-0.916-0.6475-1.1797c-0.3105-0.2637-0.6855-0.3955-1.125-0.3955c-0.6641,0-1.2031,0.2383-1.6191,0.7139
				c-0.4141,0.4766-0.6221,1.2295-0.6221,2.2598c0,1.0449,0.2002,1.8047,0.6006,2.2773c0.4004,0.4746,0.9229,0.7109,1.5674,0.7109
				c0.5176,0,0.9502-0.1582,1.2959-0.4766C139.7373,38.0967,139.9561,37.6084,140.0498,36.9482z"/>
			<path fill="#603813" d="M142.4814,30.5771v-1.5166h1.3184v1.5166H142.4814z M142.4814,39.7979v-7.7783h1.3184v7.7783H142.4814z"
				/>
			<path fill="#603813" d="M145.3154,35.9092c0-1.4404,0.4004-2.5078,1.2012-3.2012c0.6689-0.5762,1.4844-0.8643,2.4463-0.8643
				c1.0693,0,1.9434,0.3506,2.6221,1.0508c0.6787,0.7012,1.0176,1.6689,1.0176,2.9043c0,1.001-0.1494,1.7881-0.4502,2.3623
				c-0.2998,0.5732-0.7373,1.0195-1.3105,1.3359c-0.5742,0.3174-1.2002,0.4766-1.8789,0.4766c-1.0889,0-1.9697-0.3486-2.6406-1.0469
				S145.3154,37.2227,145.3154,35.9092z M146.6709,35.9092c0,0.9961,0.2168,1.7412,0.6514,2.2373
				c0.4346,0.4951,0.9814,0.7432,1.6406,0.7432c0.6543,0,1.1982-0.249,1.6338-0.7471c0.4336-0.498,0.6514-1.2568,0.6514-2.2783
				c0-0.9609-0.2188-1.6904-0.6553-2.1855c-0.4375-0.4961-0.9805-0.7441-1.6299-0.7441c-0.6592,0-1.2061,0.2471-1.6406,0.7402
				S146.6709,34.9131,146.6709,35.9092z"/>
			<path fill="#603813" d="M153.6211,37.4756l1.3037-0.2051c0.0732,0.5234,0.2773,0.9238,0.6113,1.2012
				c0.334,0.2793,0.8027,0.418,1.4023,0.418c0.6055,0,1.0547-0.123,1.3477-0.3701c0.293-0.2461,0.4395-0.5352,0.4395-0.8682
				c0-0.2969-0.1289-0.5313-0.3877-0.7031c-0.1807-0.1172-0.6299-0.2656-1.3477-0.4463c-0.9668-0.2441-1.6377-0.4551-2.0107-0.6338
				c-0.373-0.1777-0.6563-0.4248-0.8496-0.7393c-0.1934-0.3154-0.2891-0.6631-0.2891-1.0439c0-0.3467,0.0791-0.668,0.2383-0.9629
				c0.1582-0.2959,0.375-0.541,0.6484-0.7363c0.2051-0.1514,0.4844-0.2793,0.8379-0.3848c0.3535-0.1045,0.7344-0.1572,1.1387-0.1572
				c0.6113,0,1.1465,0.0879,1.6074,0.2637c0.4629,0.1758,0.8027,0.4141,1.0225,0.7139c0.2197,0.3008,0.3711,0.7021,0.4541,1.2051
				l-1.2891,0.1758c-0.0586-0.4004-0.2285-0.7129-0.5098-0.9375c-0.2803-0.2246-0.6768-0.3369-1.1895-0.3369
				c-0.6055,0-1.0371,0.1006-1.2969,0.2998c-0.2578,0.2012-0.3877,0.4355-0.3877,0.7031c0,0.1719,0.0537,0.3252,0.1611,0.4619
				c0.1074,0.1416,0.2754,0.2588,0.5059,0.3516c0.1309,0.0488,0.5195,0.1611,1.1641,0.3369c0.9326,0.249,1.583,0.4531,1.9512,0.6113
				c0.3691,0.1592,0.6582,0.3896,0.8691,0.6924c0.209,0.3027,0.3145,0.6787,0.3145,1.1279c0,0.4395-0.1289,0.8535-0.3848,1.2412
				c-0.2559,0.3887-0.626,0.6885-1.1094,0.9014c-0.4834,0.2119-1.0303,0.3184-1.6406,0.3184c-1.0107,0-1.7813-0.21-2.3105-0.6299
				C154.1055,38.9238,153.7676,38.3018,153.6211,37.4756z"/>
			<path fill="#603813" d="M176.5498,38.8389c-0.4883,0.415-0.959,0.708-1.4102,0.8789c-0.4521,0.1699-0.9365,0.2559-1.4541,0.2559
				c-0.8545,0-1.5107-0.209-1.9697-0.626c-0.459-0.418-0.6895-0.9512-0.6895-1.6006c0-0.3809,0.0869-0.7285,0.2598-1.0439
				c0.1738-0.3145,0.4004-0.5674,0.6816-0.7578s0.5977-0.334,0.9492-0.4326c0.2578-0.0674,0.6484-0.1338,1.1719-0.1973
				c1.0645-0.127,1.8477-0.2783,2.3506-0.4541c0.0049-0.1807,0.0068-0.2949,0.0068-0.3447c0-0.5361-0.124-0.915-0.373-1.1348
				c-0.3369-0.2979-0.8379-0.4473-1.502-0.4473c-0.6191,0-1.0781,0.1094-1.373,0.3262c-0.2949,0.2178-0.5137,0.6025-0.6553,1.1543
				l-1.2891-0.1758c0.1172-0.5518,0.3096-0.998,0.5791-1.3369c0.2676-0.3398,0.6563-0.6006,1.1641-0.7842
				c0.5078-0.1826,1.0957-0.2744,1.7656-0.2744c0.6641,0,1.2031,0.0781,1.6182,0.2344s0.7197,0.3525,0.915,0.5898
				c0.1953,0.2363,0.332,0.5361,0.4102,0.8975c0.0449,0.2246,0.0664,0.6289,0.0664,1.2148v1.7578
				c0,1.2266,0.0273,2.001,0.084,2.3262c0.0566,0.3242,0.168,0.6357,0.334,0.9336h-1.377
				C176.6768,39.5244,176.5889,39.2041,176.5498,38.8389z M176.4395,35.8936c-0.4785,0.1963-1.1963,0.3623-2.1533,0.498
				c-0.542,0.0791-0.9258,0.167-1.1504,0.2637c-0.2246,0.0986-0.3975,0.2412-0.5195,0.4287
				c-0.1221,0.1885-0.1836,0.3975-0.1836,0.626c0,0.3516,0.1328,0.6445,0.4004,0.8789c0.2656,0.2344,0.6543,0.3516,1.168,0.3516
				c0.5078,0,0.959-0.1104,1.3545-0.333c0.3955-0.2217,0.6865-0.5254,0.8721-0.9111c0.1406-0.2979,0.2119-0.7373,0.2119-1.3184
				V35.8936z"/>
			<path fill="#603813" d="M189.6123,39.7979V29.0605h1.3184v10.7373H189.6123z"/>
			<path fill="#603813" d="M192.4834,35.9092c0-1.4404,0.4004-2.5078,1.2012-3.2012c0.668-0.5762,1.4844-0.8643,2.4453-0.8643
				c1.0703,0,1.9434,0.3506,2.623,1.0508c0.6777,0.7012,1.0176,1.6689,1.0176,2.9043c0,1.001-0.1504,1.7881-0.4512,2.3623
				c-0.2988,0.5732-0.7363,1.0195-1.3105,1.3359c-0.5742,0.3174-1.1992,0.4766-1.8789,0.4766c-1.0879,0-1.9688-0.3486-2.6406-1.0469
				C192.8184,38.2285,192.4834,37.2227,192.4834,35.9092z M193.8379,35.9092c0,0.9961,0.2178,1.7412,0.6514,2.2373
				c0.4355,0.4951,0.9824,0.7432,1.6406,0.7432c0.6543,0,1.1992-0.249,1.6338-0.7471s0.6514-1.2568,0.6514-2.2783
				c0-0.9609-0.2188-1.6904-0.6543-2.1855c-0.4375-0.4961-0.9805-0.7441-1.6309-0.7441c-0.6582,0-1.2051,0.2471-1.6406,0.7402
				C194.0557,34.168,193.8379,34.9131,193.8379,35.9092z"/>
			<path fill="#603813" d="M200.7881,37.4756l1.3047-0.2051c0.0723,0.5234,0.2764,0.9238,0.6113,1.2012
				c0.334,0.2793,0.8018,0.418,1.4023,0.418c0.6055,0,1.0547-0.123,1.3477-0.3701c0.293-0.2461,0.4395-0.5352,0.4395-0.8682
				c0-0.2969-0.1289-0.5313-0.3887-0.7031c-0.1797-0.1172-0.6289-0.2656-1.3477-0.4463c-0.9668-0.2441-1.6367-0.4551-2.0098-0.6338
				c-0.374-0.1777-0.6572-0.4248-0.8496-0.7393c-0.1934-0.3154-0.2891-0.6631-0.2891-1.0439c0-0.3467,0.0781-0.668,0.2373-0.9629
				c0.1592-0.2959,0.375-0.541,0.6484-0.7363c0.2051-0.1514,0.4844-0.2793,0.8389-0.3848c0.3535-0.1045,0.7334-0.1572,1.1387-0.1572
				c0.6104,0,1.1465,0.0879,1.6074,0.2637c0.4619,0.1758,0.8027,0.4141,1.0215,0.7139c0.2207,0.3008,0.3711,0.7021,0.4551,1.2051
				l-1.2891,0.1758c-0.0586-0.4004-0.2285-0.7129-0.5098-0.9375s-0.6777-0.3369-1.1895-0.3369
				c-0.6055,0-1.0381,0.1006-1.2969,0.2998c-0.2588,0.2012-0.3887,0.4355-0.3887,0.7031c0,0.1719,0.0547,0.3252,0.1621,0.4619
				c0.1074,0.1416,0.2754,0.2588,0.5049,0.3516c0.1318,0.0488,0.5205,0.1611,1.165,0.3369c0.9316,0.249,1.582,0.4531,1.9512,0.6113
				c0.3691,0.1592,0.6582,0.3896,0.8682,0.6924s0.3154,0.6787,0.3154,1.1279c0,0.4395-0.1289,0.8535-0.3848,1.2412
				c-0.2568,0.3887-0.627,0.6885-1.1094,0.9014c-0.4844,0.2119-1.0313,0.3184-1.6406,0.3184c-1.0117,0-1.7813-0.21-2.3115-0.6299
				S200.9346,38.3018,200.7881,37.4756z"/>
			<path fill="#603813" d="M17.8379,54.9482l1.2964,0.1689c-0.1416,0.8936-0.5044,1.5928-1.0874,2.0986
				c-0.584,0.5049-1.3003,0.7578-2.1499,0.7578c-1.0645,0-1.9204-0.3477-2.5669-1.0439c-0.6475-0.6953-0.9707-1.6924-0.9707-2.9912
				c0-0.8398,0.1392-1.5752,0.4175-2.2051s0.7017-1.1025,1.271-1.417c0.5684-0.3154,1.1875-0.4727,1.8564-0.4727
				c0.8447,0,1.5356,0.2139,2.0728,0.6406c0.5371,0.4277,0.8813,1.0342,1.0327,1.8203l-1.2817,0.1982
				c-0.1221-0.5225-0.3384-0.916-0.6479-1.1797c-0.3105-0.2637-0.6851-0.3955-1.1245-0.3955c-0.6641,0-1.2036,0.2383-1.6187,0.7139
				c-0.415,0.4766-0.6226,1.2295-0.6226,2.2598c0,1.0449,0.2002,1.8047,0.6006,2.2773c0.4004,0.4746,0.9229,0.7109,1.5674,0.7109
				c0.5176,0,0.9497-0.1582,1.2964-0.4766C17.5254,56.0967,17.7451,55.6084,17.8379,54.9482z"/>
			<path fill="#603813" d="M19.7715,53.9092c0-1.4404,0.4004-2.5078,1.2012-3.2012c0.6689-0.5762,1.4844-0.8643,2.4463-0.8643
				c1.0693,0,1.9434,0.3506,2.6221,1.0508c0.6787,0.7012,1.0181,1.6689,1.0181,2.9043c0,1.001-0.1499,1.7881-0.4507,2.3623
				c-0.2998,0.5732-0.7373,1.0195-1.3105,1.3359c-0.5742,0.3174-1.2002,0.4766-1.8789,0.4766c-1.0889,0-1.9692-0.3486-2.6406-1.0469
				S19.7715,55.2227,19.7715,53.9092z M21.1265,53.9092c0,0.9961,0.2173,1.7412,0.6519,2.2373
				c0.4346,0.4951,0.9814,0.7432,1.6406,0.7432c0.6543,0,1.1987-0.249,1.6333-0.7471s0.6519-1.2568,0.6519-2.2783
				c0-0.9609-0.2188-1.6904-0.6553-2.1855c-0.4375-0.4961-0.9805-0.7441-1.6299-0.7441c-0.6592,0-1.2061,0.2471-1.6406,0.7402
				S21.1265,52.9131,21.1265,53.9092z"/>
			<path fill="#603813" d="M28.6045,57.7979v-7.7783h1.1792v1.0908c0.2441-0.3809,0.5688-0.6865,0.9741-0.9189
				c0.4053-0.2314,0.8667-0.3477,1.3843-0.3477c0.5762,0,1.0483,0.1201,1.417,0.3584c0.3687,0.2402,0.6289,0.5742,0.7803,1.0039
				c0.6152-0.9082,1.416-1.3623,2.4023-1.3623c0.7715,0,1.3647,0.2139,1.7798,0.6406c0.415,0.4277,0.6226,1.0859,0.6226,1.9736
				v5.3398h-1.311v-4.9004c0-0.5273-0.043-0.9063-0.1284-1.1387c-0.0854-0.2314-0.2402-0.418-0.4648-0.5605
				c-0.2246-0.1406-0.4883-0.2119-0.791-0.2119c-0.5469,0-1.001,0.1816-1.3623,0.5459c-0.3613,0.3633-0.542,0.9463-0.542,1.7461
				v4.5195h-1.3184v-5.0537c0-0.5859-0.1074-1.0254-0.3223-1.3184s-0.5664-0.4395-1.0547-0.4395
				c-0.3711,0-0.7139,0.0977-1.0293,0.293c-0.3145,0.1953-0.543,0.4814-0.6846,0.8564c-0.1416,0.377-0.2124,0.9189-0.2124,1.627
				v4.0352H28.6045z"/>
			<path fill="#603813" d="M41.0996,60.7783V50.0195h1.2012v1.0107c0.2832-0.3955,0.603-0.6924,0.9595-0.8896
				c0.3564-0.1982,0.7886-0.2969,1.2964-0.2969c0.6641,0,1.25,0.1709,1.7578,0.5127s0.8911,0.8242,1.1499,1.4463
				c0.2588,0.623,0.3882,1.3057,0.3882,2.0479c0,0.7959-0.1431,1.5117-0.4282,2.1494c-0.2861,0.6367-0.7012,1.125-1.2451,1.4648
				c-0.5449,0.3389-1.1172,0.5088-1.7178,0.5088c-0.4395,0-0.834-0.0928-1.1826-0.2783c-0.3496-0.1855-0.6362-0.4199-0.8608-0.7031
				v3.7861H41.0996z M42.2935,53.9521c0,1.002,0.2026,1.7412,0.6079,2.2197s0.896,0.7178,1.4722,0.7178
				c0.5859,0,1.0879-0.248,1.5049-0.7432c0.418-0.4961,0.6265-1.2637,0.6265-2.3037c0-0.9912-0.2041-1.7334-0.6118-2.2266
				s-0.8945-0.7402-1.4609-0.7402c-0.5615,0-1.0586,0.2627-1.4902,0.7881C42.5093,52.1885,42.2935,52.9521,42.2935,53.9521z"/>
			<path fill="#603813" d="M48.9512,53.9092c0-1.4404,0.4004-2.5078,1.2012-3.2012c0.6689-0.5762,1.4844-0.8643,2.4463-0.8643
				c1.0693,0,1.9434,0.3506,2.6221,1.0508c0.6787,0.7012,1.0181,1.6689,1.0181,2.9043c0,1.001-0.1499,1.7881-0.4507,2.3623
				c-0.2998,0.5732-0.7373,1.0195-1.3105,1.3359c-0.5742,0.3174-1.2002,0.4766-1.8789,0.4766c-1.0889,0-1.9692-0.3486-2.6406-1.0469
				S48.9512,55.2227,48.9512,53.9092z M50.3062,53.9092c0,0.9961,0.2173,1.7412,0.6519,2.2373
				c0.4346,0.4951,0.9814,0.7432,1.6406,0.7432c0.6543,0,1.1987-0.249,1.6333-0.7471s0.6519-1.2568,0.6519-2.2783
				c0-0.9609-0.2188-1.6904-0.6553-2.1855c-0.4375-0.4961-0.9805-0.7441-1.6299-0.7441c-0.6592,0-1.2061,0.2471-1.6406,0.7402
				S50.3062,52.9131,50.3062,53.9092z"/>
			<path fill="#603813" d="M57.7842,57.7979v-7.7783h1.1865v1.1064c0.5713-0.8545,1.3965-1.2822,2.4756-1.2822
				c0.4688,0,0.8994,0.084,1.2925,0.2529c0.3931,0.168,0.6875,0.3896,0.8828,0.6621c0.1953,0.2744,0.332,0.5986,0.4102,0.9746
				c0.0488,0.2441,0.0732,0.6719,0.0732,1.2813v4.7832h-1.3184v-4.7314c0-0.5371-0.0513-0.9385-0.1538-1.2051
				c-0.1025-0.2656-0.2847-0.4785-0.5454-0.6367c-0.2617-0.1592-0.5679-0.2383-0.9194-0.2383c-0.5615,0-1.0464,0.1787-1.4536,0.5342
				c-0.4082,0.3574-0.6118,1.0332-0.6118,2.0293v4.248H57.7842z"/>
			<path fill="#603813" d="M71.4512,55.293l1.3623,0.1689c-0.2148,0.7959-0.6128,1.4131-1.1938,1.8525s-1.3232,0.6592-2.2266,0.6592
				c-1.1377,0-2.0396-0.3506-2.7065-1.0508c-0.666-0.7012-0.9995-1.6836-0.9995-2.9482c0-1.3086,0.3369-2.3242,1.0107-3.0469
				s1.5479-1.084,2.6221-1.084c1.04,0,1.8896,0.3545,2.5488,1.0615c0.6592,0.709,0.9888,1.7051,0.9888,2.9883
				c0,0.0791-0.0024,0.1963-0.0073,0.3516h-5.8008c0.0488,0.8555,0.2905,1.5098,0.7251,1.9629
				c0.4346,0.4551,0.9766,0.6816,1.626,0.6816c0.4834,0,0.896-0.127,1.2378-0.3809S71.251,55.8496,71.4512,55.293z M67.1226,53.1611
				h4.3433c-0.0586-0.6533-0.2246-1.1445-0.498-1.4717c-0.4199-0.5078-0.9644-0.7617-1.6333-0.7617
				c-0.6055,0-1.1147,0.2031-1.5269,0.6084C67.3945,51.9414,67.1665,52.4834,67.1226,53.1611z"/>
			<path fill="#603813" d="M74.4688,57.7979v-7.7783h1.1865v1.1064c0.5713-0.8545,1.3965-1.2822,2.4756-1.2822
				c0.4688,0,0.8994,0.084,1.2925,0.2529c0.3931,0.168,0.6875,0.3896,0.8828,0.6621c0.1953,0.2744,0.332,0.5986,0.4102,0.9746
				c0.0488,0.2441,0.0732,0.6719,0.0732,1.2813v4.7832h-1.3184v-4.7314c0-0.5371-0.0513-0.9385-0.1538-1.2051
				c-0.1025-0.2656-0.2847-0.4785-0.5454-0.6367c-0.2617-0.1592-0.5679-0.2383-0.9194-0.2383c-0.5615,0-1.0464,0.1787-1.4536,0.5342
				c-0.4082,0.3574-0.6118,1.0332-0.6118,2.0293v4.248H74.4688z"/>
			<path fill="#603813" d="M85.6895,56.6182l0.1904,1.165c-0.3711,0.0781-0.7031,0.1172-0.9961,0.1172
				c-0.4785,0-0.8496-0.0762-1.1133-0.2275c-0.2637-0.1504-0.4492-0.3496-0.5566-0.5967c-0.1074-0.2461-0.1611-0.7646-0.1611-1.5557
				v-4.4756h-0.9668v-1.0254h0.9668v-1.9268l1.311-0.791v2.7178h1.3257v1.0254h-1.3257v4.5479c0,0.377,0.0229,0.6182,0.0698,0.7256
				c0.0459,0.1074,0.1216,0.1934,0.2266,0.2568s0.2554,0.0947,0.4507,0.0947C85.2573,56.6699,85.4502,56.6533,85.6895,56.6182z"/>
			<path fill="#603813" d="M92.3032,55.293l1.3623,0.1689c-0.2148,0.7959-0.6128,1.4131-1.1938,1.8525s-1.3232,0.6592-2.2266,0.6592
				c-1.1377,0-2.0396-0.3506-2.7065-1.0508c-0.666-0.7012-0.9995-1.6836-0.9995-2.9482c0-1.3086,0.3369-2.3242,1.0107-3.0469
				s1.5479-1.084,2.6221-1.084c1.04,0,1.8896,0.3545,2.5488,1.0615c0.6592,0.709,0.9888,1.7051,0.9888,2.9883
				c0,0.0791-0.0024,0.1963-0.0073,0.3516h-5.8008c0.0488,0.8555,0.2905,1.5098,0.7251,1.9629
				c0.4346,0.4551,0.9766,0.6816,1.626,0.6816c0.4834,0,0.896-0.127,1.2378-0.3809S92.103,55.8496,92.3032,55.293z M87.9746,53.1611
				h4.3433c-0.0586-0.6533-0.2246-1.1445-0.498-1.4717c-0.4199-0.5078-0.9644-0.7617-1.6333-0.7617
				c-0.6055,0-1.1147,0.2031-1.5269,0.6084C88.2466,51.9414,88.0186,52.4834,87.9746,53.1611z"/>
			<path fill="#603813" d="M94.7935,55.4756l1.3037-0.2051c0.0732,0.5234,0.2769,0.9238,0.6118,1.2012
				c0.334,0.2793,0.8018,0.418,1.4023,0.418c0.6055,0,1.0547-0.123,1.3477-0.3701c0.293-0.2461,0.4395-0.5352,0.4395-0.8682
				c0-0.2969-0.1294-0.5313-0.3882-0.7031c-0.1807-0.1172-0.6299-0.2656-1.3477-0.4463c-0.9668-0.2441-1.6372-0.4551-2.0103-0.6338
				c-0.374-0.1777-0.6572-0.4248-0.8496-0.7393c-0.1934-0.3154-0.2896-0.6631-0.2896-1.0439c0-0.3467,0.0791-0.668,0.2378-0.9629
				c0.1587-0.2959,0.375-0.541,0.6484-0.7363c0.2051-0.1514,0.4844-0.2793,0.8389-0.3848c0.3535-0.1045,0.7334-0.1572,1.1387-0.1572
				c0.6104,0,1.1465,0.0879,1.6074,0.2637c0.4619,0.1758,0.8022,0.4141,1.022,0.7139c0.2197,0.3008,0.3711,0.7021,0.4541,1.2051
				l-1.2891,0.1758c-0.0586-0.4004-0.2285-0.7129-0.5093-0.9375s-0.6772-0.3369-1.1899-0.3369
				c-0.6055,0-1.0376,0.1006-1.2964,0.2998c-0.2588,0.2012-0.3882,0.4355-0.3882,0.7031c0,0.1719,0.0537,0.3252,0.1611,0.4619
				c0.1074,0.1416,0.2759,0.2588,0.5054,0.3516c0.1318,0.0488,0.52,0.1611,1.1646,0.3369c0.9326,0.249,1.583,0.4531,1.9517,0.6113
				c0.3687,0.1592,0.6582,0.3896,0.8682,0.6924s0.3149,0.6787,0.3149,1.1279c0,0.4395-0.1284,0.8535-0.3843,1.2412
				c-0.2568,0.3887-0.6265,0.6885-1.1099,0.9014c-0.4834,0.2119-1.0303,0.3184-1.6406,0.3184c-1.0107,0-1.7813-0.21-2.311-0.6299
				S94.9399,56.3018,94.7935,55.4756z"/>
			<path fill="#603813" d="M112.7979,60.7939l-0.1465-1.2383c0.2891,0.0781,0.54,0.1172,0.7549,0.1172
				c0.293,0,0.5273-0.0488,0.7031-0.1465s0.3193-0.2344,0.4326-0.4102c0.082-0.1318,0.2168-0.459,0.4023-0.9814
				c0.0244-0.0732,0.0635-0.1807,0.1172-0.3223l-2.9512-7.793h1.4199l1.6191,4.5049c0.21,0.5703,0.3984,1.1719,0.5645,1.8008
				c0.1504-0.6045,0.332-1.1953,0.541-1.7715l1.6631-4.5342h1.3184l-2.959,7.9102c-0.3174,0.8545-0.5635,1.4424-0.7393,1.7646
				c-0.2344,0.4346-0.5039,0.7539-0.8066,0.9561c-0.3027,0.2031-0.6641,0.3037-1.084,0.3037
				C113.3936,60.9541,113.1104,60.9004,112.7979,60.7939z"/>
			<path fill="#603813" d="M129.8662,55.4756l1.3037-0.2051c0.0732,0.5234,0.2764,0.9238,0.6123,1.2012
				c0.334,0.2793,0.8008,0.418,1.4023,0.418c0.6055,0,1.0547-0.123,1.3477-0.3701c0.293-0.2461,0.4395-0.5352,0.4395-0.8682
				c0-0.2969-0.1299-0.5313-0.3887-0.7031c-0.1807-0.1172-0.6299-0.2656-1.3477-0.4463c-0.9668-0.2441-1.6367-0.4551-2.0098-0.6338
				c-0.375-0.1777-0.6582-0.4248-0.8496-0.7393c-0.1934-0.3154-0.29-0.6631-0.29-1.0439c0-0.3467,0.0791-0.668,0.2373-0.9629
				c0.1592-0.2959,0.375-0.541,0.6484-0.7363c0.2051-0.1514,0.4844-0.2793,0.8398-0.3848c0.3535-0.1045,0.7324-0.1572,1.1387-0.1572
				c0.6094,0,1.1465,0.0879,1.6074,0.2637s0.8018,0.4141,1.0215,0.7139c0.2197,0.3008,0.3711,0.7021,0.4541,1.2051l-1.2891,0.1758
				c-0.0586-0.4004-0.2285-0.7129-0.5088-0.9375c-0.2813-0.2246-0.6777-0.3369-1.1904-0.3369c-0.6055,0-1.0381,0.1006-1.2959,0.2998
				c-0.2598,0.2012-0.3887,0.4355-0.3887,0.7031c0,0.1719,0.0537,0.3252,0.1611,0.4619c0.1074,0.1416,0.2764,0.2588,0.5049,0.3516
				c0.1328,0.0488,0.5205,0.1611,1.165,0.3369c0.9326,0.249,1.583,0.4531,1.9521,0.6113c0.3682,0.1592,0.6582,0.3896,0.8672,0.6924
				c0.2109,0.3027,0.3154,0.6787,0.3154,1.1279c0,0.4395-0.1279,0.8535-0.3838,1.2412c-0.2578,0.3887-0.627,0.6885-1.1104,0.9014
				c-0.4834,0.2119-1.0303,0.3184-1.6406,0.3184c-1.0107,0-1.7813-0.21-2.3115-0.6299
				C130.3506,56.9238,130.0127,56.3018,129.8662,55.4756z"/>
			<path fill="#603813" d="M143.2178,55.293l1.3633,0.1689c-0.2148,0.7959-0.6133,1.4131-1.1943,1.8525
				s-1.3232,0.6592-2.2266,0.6592c-1.1377,0-2.04-0.3506-2.7061-1.0508c-0.666-0.7012-1-1.6836-1-2.9482
				c0-1.3086,0.3369-2.3242,1.0107-3.0469s1.5479-1.084,2.6221-1.084c1.04,0,1.8896,0.3545,2.5488,1.0615
				c0.6592,0.709,0.9883,1.7051,0.9883,2.9883c0,0.0791-0.002,0.1963-0.0068,0.3516h-5.8008
				c0.0488,0.8555,0.29,1.5098,0.7256,1.9629c0.4336,0.4551,0.9766,0.6816,1.625,0.6816c0.4844,0,0.8965-0.127,1.2383-0.3809
				S143.0186,55.8496,143.2178,55.293z M138.8896,53.1611h4.3438c-0.0586-0.6533-0.2246-1.1445-0.498-1.4717
				c-0.4199-0.5078-0.9648-0.7617-1.6338-0.7617c-0.6055,0-1.1143,0.2031-1.5264,0.6084
				C139.1611,51.9414,138.9336,52.4834,138.8896,53.1611z"/>
			<path fill="#603813" d="M161.3184,57.7979v-0.9814c-0.4932,0.7715-1.2178,1.1572-2.1748,1.1572
				c-0.6211,0-1.1904-0.1709-1.7109-0.5127c-0.5195-0.3418-0.9229-0.8193-1.208-1.4316c-0.2861-0.6133-0.4287-1.3174-0.4287-2.1133
				c0-0.7764,0.1289-1.4805,0.3887-2.1133c0.2578-0.6318,0.6465-1.1162,1.1641-1.4541c0.5176-0.3359,1.0957-0.5049,1.7363-0.5049
				c0.4688,0,0.8857,0.0986,1.252,0.2969c0.3662,0.1973,0.6641,0.4551,0.8936,0.7725v-3.8525h1.3115v10.7373H161.3184z
				 M157.1514,53.916c0,0.9961,0.209,1.7412,0.6289,2.2334c0.4199,0.4941,0.916,0.7402,1.4873,0.7402
				c0.5762,0,1.0654-0.2354,1.4688-0.707c0.4023-0.4707,0.6045-1.1895,0.6045-2.1563c0-1.0645-0.2051-1.8457-0.6152-2.3438
				s-0.916-0.748-1.5166-0.748c-0.5859,0-1.0752,0.2402-1.4688,0.7188S157.1514,52.8857,157.1514,53.916z"/>
			<path fill="#603813" d="M164.6221,48.5771v-1.5166h1.3184v1.5166H164.6221z M164.6221,57.7979v-7.7783h1.3184v7.7783H164.6221z"
				/>
			<path fill="#603813" d="M167.4189,55.4756l1.3047-0.2051c0.0723,0.5234,0.2764,0.9238,0.6113,1.2012
				c0.334,0.2793,0.8018,0.418,1.4023,0.418c0.6055,0,1.0547-0.123,1.3477-0.3701c0.293-0.2461,0.4395-0.5352,0.4395-0.8682
				c0-0.2969-0.1289-0.5313-0.3887-0.7031c-0.1797-0.1172-0.6289-0.2656-1.3477-0.4463c-0.9668-0.2441-1.6367-0.4551-2.0098-0.6338
				c-0.374-0.1777-0.6572-0.4248-0.8496-0.7393c-0.1934-0.3154-0.2891-0.6631-0.2891-1.0439c0-0.3467,0.0781-0.668,0.2373-0.9629
				c0.1592-0.2959,0.375-0.541,0.6484-0.7363c0.2051-0.1514,0.4844-0.2793,0.8389-0.3848c0.3535-0.1045,0.7334-0.1572,1.1387-0.1572
				c0.6104,0,1.1465,0.0879,1.6074,0.2637c0.4619,0.1758,0.8027,0.4141,1.0215,0.7139c0.2207,0.3008,0.3711,0.7021,0.4551,1.2051
				l-1.2891,0.1758c-0.0586-0.4004-0.2285-0.7129-0.5098-0.9375s-0.6777-0.3369-1.1895-0.3369
				c-0.6055,0-1.0381,0.1006-1.2969,0.2998c-0.2588,0.2012-0.3887,0.4355-0.3887,0.7031c0,0.1719,0.0547,0.3252,0.1621,0.4619
				c0.1074,0.1416,0.2754,0.2588,0.5049,0.3516c0.1318,0.0488,0.5205,0.1611,1.165,0.3369c0.9316,0.249,1.582,0.4531,1.9512,0.6113
				c0.3691,0.1592,0.6582,0.3896,0.8682,0.6924s0.3154,0.6787,0.3154,1.1279c0,0.4395-0.1289,0.8535-0.3848,1.2412
				c-0.2568,0.3887-0.627,0.6885-1.1094,0.9014c-0.4844,0.2119-1.0313,0.3184-1.6406,0.3184c-1.0117,0-1.7813-0.21-2.3115-0.6299
				S167.5654,56.3018,167.4189,55.4756z"/>
			<path fill="#603813" d="M180.7715,55.293l1.3623,0.1689c-0.2148,0.7959-0.6133,1.4131-1.1934,1.8525
				c-0.582,0.4395-1.3242,0.6592-2.2266,0.6592c-1.1387,0-2.04-0.3506-2.707-1.0508c-0.666-0.7012-1-1.6836-1-2.9482
				c0-1.3086,0.3379-2.3242,1.0117-3.0469s1.5469-1.084,2.6211-1.084c1.041,0,1.8906,0.3545,2.5488,1.0615
				c0.6602,0.709,0.9893,1.7051,0.9893,2.9883c0,0.0791-0.0029,0.1963-0.0068,0.3516h-5.8008
				c0.0488,0.8555,0.29,1.5098,0.7246,1.9629c0.4346,0.4551,0.9766,0.6816,1.626,0.6816c0.4834,0,0.8955-0.127,1.2373-0.3809
				S180.5713,55.8496,180.7715,55.293z M176.4424,53.1611h4.3438c-0.0586-0.6533-0.2246-1.1445-0.498-1.4717
				c-0.4199-0.5078-0.9648-0.7617-1.6328-0.7617c-0.6055,0-1.1152,0.2031-1.5273,0.6084
				C176.7148,51.9414,176.4873,52.4834,176.4424,53.1611z"/>
			<path fill="#603813" d="M183.7891,57.7979v-7.7783h1.1865v1.1064c0.5713-0.8545,1.3965-1.2822,2.4756-1.2822
				c0.4688,0,0.8994,0.084,1.292,0.2529c0.3936,0.168,0.6875,0.3896,0.8828,0.6621c0.1953,0.2744,0.332,0.5986,0.4102,0.9746
				c0.0488,0.2441,0.0742,0.6719,0.0742,1.2813v4.7832h-1.3184v-4.7314c0-0.5371-0.0518-0.9385-0.1543-1.2051
				c-0.1025-0.2656-0.2852-0.4785-0.5449-0.6367c-0.2617-0.1592-0.5684-0.2383-0.9199-0.2383c-0.5615,0-1.0469,0.1787-1.4531,0.5342
				c-0.4082,0.3574-0.6123,1.0332-0.6123,2.0293v4.248H183.7891z M184.7197,48.8701c-0.0059-0.5078,0.1338-0.9131,0.417-1.2168
				c0.2783-0.3018,0.6348-0.4531,1.0693-0.4531c0.3027,0,0.7148,0.1309,1.2383,0.3945c0.2871,0.1465,0.5176,0.2207,0.6875,0.2207
				c0.1563,0,0.2764-0.043,0.3594-0.1289c0.083-0.085,0.1416-0.2549,0.1758-0.5088h0.9521
				c-0.0146,0.5566-0.1553,0.9736-0.4209,1.2529c-0.2666,0.2773-0.6045,0.417-1.0146,0.417c-0.3076,0-0.7129-0.1367-1.2158-0.4102
				c-0.3271-0.1758-0.5664-0.2637-0.7178-0.2637c-0.166,0-0.2998,0.0586-0.4033,0.1758c-0.1074,0.1172-0.1582,0.291-0.1533,0.5205
				H184.7197z"/>
			<path fill="#603813" d="M197.207,56.8389c-0.4883,0.415-0.958,0.708-1.4102,0.8789c-0.4521,0.1699-0.9365,0.2559-1.4541,0.2559
				c-0.8535,0-1.5107-0.209-1.9697-0.626c-0.459-0.418-0.6885-0.9512-0.6885-1.6006c0-0.3809,0.0859-0.7285,0.2598-1.0439
				c0.1738-0.3145,0.4004-0.5674,0.6816-0.7578c0.2803-0.1904,0.5967-0.334,0.9482-0.4326
				c0.2588-0.0674,0.6494-0.1338,1.1719-0.1973c1.0645-0.127,1.8486-0.2783,2.3506-0.4541
				c0.0059-0.1807,0.0078-0.2949,0.0078-0.3447c0-0.5361-0.125-0.915-0.373-1.1348c-0.3379-0.2979-0.8379-0.4473-1.502-0.4473
				c-0.6201,0-1.0781,0.1094-1.373,0.3262c-0.2959,0.2178-0.5137,0.6025-0.6563,1.1543l-1.2891-0.1758
				c0.1172-0.5518,0.3105-0.998,0.5791-1.3369c0.2686-0.3398,0.6572-0.6006,1.165-0.7842c0.5078-0.1826,1.0957-0.2744,1.7646-0.2744
				c0.6641,0,1.2041,0.0781,1.6182,0.2344c0.416,0.1563,0.7207,0.3525,0.916,0.5898c0.1953,0.2363,0.332,0.5361,0.4102,0.8975
				c0.0439,0.2246,0.0664,0.6289,0.0664,1.2148v1.7578c0,1.2266,0.0273,2.001,0.084,2.3262c0.0557,0.3242,0.167,0.6357,0.333,0.9336
				h-1.377C197.334,57.5244,197.2461,57.2041,197.207,56.8389z M197.0967,53.8936c-0.4785,0.1963-1.1953,0.3623-2.1523,0.498
				c-0.543,0.0791-0.9258,0.167-1.1504,0.2637c-0.2246,0.0986-0.3984,0.2412-0.5195,0.4287
				c-0.123,0.1885-0.1836,0.3975-0.1836,0.626c0,0.3516,0.1328,0.6445,0.3994,0.8789c0.2656,0.2344,0.6553,0.3516,1.168,0.3516
				c0.5078,0,0.96-0.1104,1.3545-0.333c0.3965-0.2217,0.6865-0.5254,0.8721-0.9111c0.1416-0.2979,0.2119-0.7373,0.2119-1.3184
				V53.8936z"/>
			<path fill="#603813" d="M200.4736,57.7979v-7.7783h1.1865v1.1064c0.5713-0.8545,1.3965-1.2822,2.4756-1.2822
				c0.4688,0,0.8994,0.084,1.293,0.2529c0.3926,0.168,0.6875,0.3896,0.8828,0.6621c0.1953,0.2744,0.332,0.5986,0.4102,0.9746
				c0.0488,0.2441,0.0723,0.6719,0.0723,1.2813v4.7832h-1.3184v-4.7314c0-0.5371-0.0508-0.9385-0.1533-1.2051
				c-0.1025-0.2656-0.2842-0.4785-0.5459-0.6367c-0.2617-0.1592-0.5674-0.2383-0.9189-0.2383c-0.5615,0-1.0459,0.1787-1.4541,0.5342
				c-0.4082,0.3574-0.6113,1.0332-0.6113,2.0293v4.248H200.4736z"/>
			<path fill="#603813" d="M12.2349,73.4756l1.3037-0.2051c0.0732,0.5234,0.2769,0.9238,0.6118,1.2012
				c0.334,0.2793,0.8018,0.418,1.4023,0.418c0.6055,0,1.0547-0.123,1.3477-0.3701c0.293-0.2461,0.4395-0.5352,0.4395-0.8682
				c0-0.2969-0.1294-0.5313-0.3882-0.7031c-0.1807-0.1172-0.6299-0.2656-1.3477-0.4463c-0.9668-0.2441-1.6372-0.4551-2.0103-0.6338
				c-0.374-0.1777-0.6572-0.4248-0.8496-0.7393c-0.1934-0.3154-0.2896-0.6631-0.2896-1.0439c0-0.3467,0.0791-0.668,0.2378-0.9629
				c0.1587-0.2959,0.375-0.541,0.6484-0.7363c0.2051-0.1514,0.4844-0.2793,0.8389-0.3848c0.3535-0.1045,0.7334-0.1572,1.1387-0.1572
				c0.6104,0,1.1465,0.0879,1.6074,0.2637c0.4619,0.1758,0.8022,0.4141,1.022,0.7139c0.2197,0.3008,0.3711,0.7021,0.4541,1.2051
				l-1.2891,0.1758c-0.0586-0.4004-0.2285-0.7129-0.5093-0.9375s-0.6772-0.3369-1.1899-0.3369
				c-0.6055,0-1.0376,0.1006-1.2964,0.2998c-0.2588,0.2012-0.3882,0.4355-0.3882,0.7031c0,0.1719,0.0537,0.3252,0.1611,0.4619
				c0.1074,0.1416,0.2759,0.2588,0.5054,0.3516c0.1318,0.0488,0.52,0.1611,1.1646,0.3369c0.9326,0.249,1.583,0.4531,1.9517,0.6113
				c0.3687,0.1592,0.6582,0.3896,0.8682,0.6924s0.3149,0.6787,0.3149,1.1279c0,0.4395-0.1284,0.8535-0.3843,1.2412
				c-0.2568,0.3887-0.6265,0.6885-1.1099,0.9014c-0.4834,0.2119-1.0303,0.3184-1.6406,0.3184c-1.0107,0-1.7813-0.21-2.311-0.6299
				S12.3813,74.3018,12.2349,73.4756z"/>
			<path fill="#603813" d="M25.3599,75.7979v-1.1426c-0.6055,0.8789-1.4282,1.3184-2.4683,1.3184
				c-0.459,0-0.8877-0.0879-1.2852-0.2637c-0.3984-0.1758-0.6938-0.3965-0.8867-0.6631c-0.1929-0.2656-0.3281-0.5918-0.4063-0.9775
				c-0.0537-0.2588-0.0806-0.6689-0.0806-1.2305v-4.8193h1.3184v4.3135c0,0.6895,0.0269,1.1533,0.0806,1.3926
				c0.083,0.3467,0.2588,0.6182,0.5273,0.8164c0.2686,0.1973,0.6006,0.2969,0.9961,0.2969s0.7666-0.1016,1.1133-0.3047
				c0.3467-0.2021,0.5918-0.4785,0.7363-0.8271c0.1436-0.3496,0.2158-0.8555,0.2158-1.5205v-4.167h1.3184v7.7783H25.3599z"/>
			<path fill="#603813" d="M28.0771,73.4756l1.3037-0.2051c0.0732,0.5234,0.2769,0.9238,0.6118,1.2012
				c0.334,0.2793,0.8018,0.418,1.4023,0.418c0.6055,0,1.0547-0.123,1.3477-0.3701c0.293-0.2461,0.4395-0.5352,0.4395-0.8682
				c0-0.2969-0.1294-0.5313-0.3882-0.7031c-0.1807-0.1172-0.6299-0.2656-1.3477-0.4463c-0.9668-0.2441-1.6372-0.4551-2.0103-0.6338
				c-0.374-0.1777-0.6572-0.4248-0.8496-0.7393c-0.1934-0.3154-0.2896-0.6631-0.2896-1.0439c0-0.3467,0.0791-0.668,0.2378-0.9629
				c0.1587-0.2959,0.375-0.541,0.6484-0.7363c0.2051-0.1514,0.4844-0.2793,0.8389-0.3848c0.3535-0.1045,0.7334-0.1572,1.1387-0.1572
				c0.6104,0,1.1465,0.0879,1.6074,0.2637c0.4619,0.1758,0.8022,0.4141,1.022,0.7139c0.2197,0.3008,0.3711,0.7021,0.4541,1.2051
				l-1.2891,0.1758c-0.0586-0.4004-0.2285-0.7129-0.5093-0.9375s-0.6772-0.3369-1.1899-0.3369
				c-0.6055,0-1.0376,0.1006-1.2964,0.2998c-0.2588,0.2012-0.3882,0.4355-0.3882,0.7031c0,0.1719,0.0537,0.3252,0.1611,0.4619
				c0.1074,0.1416,0.2759,0.2588,0.5054,0.3516c0.1318,0.0488,0.52,0.1611,1.1646,0.3369c0.9326,0.249,1.583,0.4531,1.9517,0.6113
				c0.3687,0.1592,0.6582,0.3896,0.8682,0.6924s0.3149,0.6787,0.3149,1.1279c0,0.4395-0.1284,0.8535-0.3843,1.2412
				c-0.2568,0.3887-0.6265,0.6885-1.1099,0.9014c-0.4834,0.2119-1.0303,0.3184-1.6406,0.3184c-1.0107,0-1.7813-0.21-2.311-0.6299
				S28.2236,74.3018,28.0771,73.4756z"/>
			<path fill="#603813" d="M40.2793,66.5771v-1.5166h1.3184v1.5166H40.2793z M40.2793,75.7979v-7.7783h1.3184v7.7783H40.2793z"/>
			<path fill="#603813" d="M43.6045,75.7979v-7.7783h1.1865v1.1064c0.5713-0.8545,1.3965-1.2822,2.4756-1.2822
				c0.4688,0,0.8994,0.084,1.2925,0.2529c0.3931,0.168,0.6875,0.3896,0.8828,0.6621c0.1953,0.2744,0.332,0.5986,0.4102,0.9746
				c0.0488,0.2441,0.0732,0.6719,0.0732,1.2813v4.7832h-1.3184v-4.7314c0-0.5371-0.0513-0.9385-0.1538-1.2051
				c-0.1025-0.2656-0.2847-0.4785-0.5454-0.6367c-0.2617-0.1592-0.5679-0.2383-0.9194-0.2383c-0.5615,0-1.0464,0.1787-1.4536,0.5342
				c-0.4082,0.3574-0.6118,1.0332-0.6118,2.0293v4.248H43.6045z"/>
			<path fill="#603813" d="M54.8252,74.6182l0.1904,1.165c-0.3711,0.0781-0.7031,0.1172-0.9961,0.1172
				c-0.4785,0-0.8496-0.0762-1.1133-0.2275c-0.2637-0.1504-0.4492-0.3496-0.5566-0.5967c-0.1074-0.2461-0.1611-0.7646-0.1611-1.5557
				v-4.4756h-0.9668v-1.0254h0.9668v-1.9268l1.311-0.791v2.7178h1.3257v1.0254h-1.3257v4.5479c0,0.377,0.0229,0.6182,0.0698,0.7256
				c0.0459,0.1074,0.1216,0.1934,0.2266,0.2568s0.2554,0.0947,0.4507,0.0947C54.3931,74.6699,54.5859,74.6533,54.8252,74.6182z"/>
			<path fill="#603813" d="M61.439,73.293l1.3623,0.1689c-0.2148,0.7959-0.6128,1.4131-1.1938,1.8525s-1.3232,0.6592-2.2266,0.6592
				c-1.1377,0-2.0396-0.3506-2.7065-1.0508c-0.666-0.7012-0.9995-1.6836-0.9995-2.9482c0-1.3086,0.3369-2.3242,1.0107-3.0469
				s1.5479-1.084,2.6221-1.084c1.04,0,1.8896,0.3545,2.5488,1.0615c0.6592,0.709,0.9888,1.7051,0.9888,2.9883
				c0,0.0791-0.0024,0.1963-0.0073,0.3516h-5.8008c0.0488,0.8555,0.2905,1.5098,0.7251,1.9629
				c0.4346,0.4551,0.9766,0.6816,1.626,0.6816c0.4834,0,0.896-0.127,1.2378-0.3809S61.2388,73.8496,61.439,73.293z M57.1104,71.1611
				h4.3433c-0.0586-0.6533-0.2246-1.1445-0.498-1.4717c-0.4199-0.5078-0.9644-0.7617-1.6333-0.7617
				c-0.6055,0-1.1147,0.2031-1.5269,0.6084C57.3823,69.9414,57.1543,70.4834,57.1104,71.1611z"/>
			<path fill="#603813" d="M64.4419,75.7979v-7.7783h1.1865v1.1787c0.3027-0.5508,0.5825-0.915,0.8384-1.0908
				c0.2568-0.1758,0.5386-0.2637,0.8462-0.2637c0.4443,0,0.896,0.1416,1.355,0.4248l-0.4541,1.2227
				c-0.3223-0.1895-0.6445-0.2852-0.9668-0.2852c-0.2881,0-0.5469,0.0869-0.7764,0.2598c-0.2295,0.1738-0.3931,0.4141-0.4907,0.7217
				c-0.1465,0.4688-0.2197,0.9814-0.2197,1.5381v4.0723H64.4419z"/>
			<path fill="#603813" d="M69.7666,75.7979v-6.7529h-1.1646v-1.0254h1.1646v-0.8271c0-0.5225,0.0464-0.9111,0.1392-1.165
				c0.127-0.3418,0.3501-0.6191,0.6704-0.8311c0.3193-0.2129,0.7676-0.3184,1.3438-0.3184c0.3711,0,0.7813,0.043,1.2305,0.1309
				l-0.1978,1.1504c-0.2734-0.0488-0.5322-0.0732-0.7764-0.0732c-0.4004,0-0.6836,0.0859-0.8496,0.2568s-0.249,0.4902-0.249,0.959
				v0.7178h1.5161v1.0254h-1.5161v6.7529H69.7666z"/>
			<path fill="#603813" d="M78.6948,74.8389c-0.4883,0.415-0.9585,0.708-1.4102,0.8789c-0.4517,0.1699-0.936,0.2559-1.4536,0.2559
				c-0.8545,0-1.5112-0.209-1.9702-0.626c-0.459-0.418-0.6885-0.9512-0.6885-1.6006c0-0.3809,0.0864-0.7285,0.2598-1.0439
				c0.1733-0.3145,0.4004-0.5674,0.6816-0.7578c0.2803-0.1904,0.5967-0.334,0.9482-0.4326
				c0.2588-0.0674,0.6494-0.1338,1.1719-0.1973c1.0645-0.127,1.8481-0.2783,2.3511-0.4541
				c0.0049-0.1807,0.0073-0.2949,0.0073-0.3447c0-0.5361-0.1245-0.915-0.3735-1.1348c-0.3369-0.2979-0.8374-0.4473-1.5015-0.4473
				c-0.6201,0-1.0781,0.1094-1.373,0.3262c-0.2959,0.2178-0.5142,0.6025-0.6558,1.1543l-1.2891-0.1758
				c0.1172-0.5518,0.3101-0.998,0.5786-1.3369c0.2686-0.3398,0.6567-0.6006,1.1646-0.7842
				c0.5078-0.1826,1.0962-0.2744,1.7651-0.2744c0.6641,0,1.2036,0.0781,1.6187,0.2344s0.7202,0.3525,0.9155,0.5898
				c0.1953,0.2363,0.332,0.5361,0.4102,0.8975c0.0439,0.2246,0.0659,0.6289,0.0659,1.2148v1.7578
				c0,1.2266,0.0278,2.001,0.0845,2.3262c0.0557,0.3242,0.167,0.6357,0.333,0.9336h-1.377
				C78.8218,75.5244,78.7339,75.2041,78.6948,74.8389z M78.585,71.8936c-0.4785,0.1963-1.1963,0.3623-2.1533,0.498
				c-0.542,0.0791-0.9253,0.167-1.1499,0.2637c-0.2246,0.0986-0.3979,0.2412-0.52,0.4287c-0.1221,0.1885-0.1831,0.3975-0.1831,0.626
				c0,0.3516,0.1328,0.6445,0.3994,0.8789c0.2656,0.2344,0.6553,0.3516,1.168,0.3516c0.5078,0,0.9595-0.1104,1.355-0.333
				c0.3955-0.2217,0.686-0.5254,0.8716-0.9111c0.1416-0.2979,0.2124-0.7373,0.2124-1.3184V71.8936z"/>
			<path fill="#603813" d="M87.0371,72.9482l1.2964,0.1689c-0.1416,0.8936-0.5044,1.5928-1.0874,2.0986
				c-0.584,0.5049-1.3003,0.7578-2.1499,0.7578c-1.0645,0-1.9204-0.3477-2.5669-1.0439c-0.6475-0.6953-0.9707-1.6924-0.9707-2.9912
				c0-0.8398,0.1392-1.5752,0.4175-2.2051s0.7017-1.1025,1.271-1.417c0.5684-0.3154,1.1875-0.4727,1.8564-0.4727
				c0.8447,0,1.5356,0.2139,2.0728,0.6406c0.5371,0.4277,0.8813,1.0342,1.0327,1.8203l-1.2817,0.1982
				c-0.1221-0.5225-0.3384-0.916-0.6479-1.1797c-0.3105-0.2637-0.6851-0.3955-1.1245-0.3955c-0.6641,0-1.2036,0.2383-1.6187,0.7139
				c-0.415,0.4766-0.6226,1.2295-0.6226,2.2598c0,1.0449,0.2002,1.8047,0.6006,2.2773c0.4004,0.4746,0.9229,0.7109,1.5674,0.7109
				c0.5176,0,0.9497-0.1582,1.2964-0.4766C86.7246,74.0967,86.9443,73.6084,87.0371,72.9482z"/>
			<path fill="#603813" d="M94.7861,73.293l1.3623,0.1689c-0.2148,0.7959-0.6128,1.4131-1.1938,1.8525s-1.3232,0.6592-2.2266,0.6592
				c-1.1377,0-2.0396-0.3506-2.7065-1.0508c-0.666-0.7012-0.9995-1.6836-0.9995-2.9482c0-1.3086,0.3369-2.3242,1.0107-3.0469
				s1.5479-1.084,2.6221-1.084c1.04,0,1.8896,0.3545,2.5488,1.0615c0.6592,0.709,0.9888,1.7051,0.9888,2.9883
				c0,0.0791-0.0024,0.1963-0.0073,0.3516h-5.8008c0.0488,0.8555,0.2905,1.5098,0.7251,1.9629
				c0.4346,0.4551,0.9766,0.6816,1.626,0.6816c0.4834,0,0.896-0.127,1.2378-0.3809S94.5859,73.8496,94.7861,73.293z
				 M90.4575,71.1611h4.3433c-0.0586-0.6533-0.2246-1.1445-0.498-1.4717c-0.4199-0.5078-0.9644-0.7617-1.6333-0.7617
				c-0.6055,0-1.1147,0.2031-1.5269,0.6084C90.7295,69.9414,90.5015,70.4834,90.4575,71.1611z"/>
			<path fill="#603813" d="M97.2764,73.4756l1.3037-0.2051c0.0732,0.5234,0.2769,0.9238,0.6118,1.2012
				c0.334,0.2793,0.8018,0.418,1.4023,0.418c0.6055,0,1.0547-0.123,1.3477-0.3701c0.293-0.2461,0.4395-0.5352,0.4395-0.8682
				c0-0.2969-0.1294-0.5313-0.3882-0.7031c-0.1807-0.1172-0.6299-0.2656-1.3477-0.4463c-0.9668-0.2441-1.6372-0.4551-2.0103-0.6338
				c-0.374-0.1777-0.6572-0.4248-0.8496-0.7393c-0.1934-0.3154-0.2896-0.6631-0.2896-1.0439c0-0.3467,0.0791-0.668,0.2378-0.9629
				c0.1587-0.2959,0.375-0.541,0.6484-0.7363c0.2051-0.1514,0.4844-0.2793,0.8389-0.3848c0.3535-0.1045,0.7334-0.1572,1.1387-0.1572
				c0.6104,0,1.1465,0.0879,1.6074,0.2637c0.4619,0.1758,0.8022,0.4141,1.022,0.7139c0.2197,0.3008,0.3711,0.7021,0.4541,1.2051
				l-1.2891,0.1758c-0.0586-0.4004-0.2285-0.7129-0.5093-0.9375s-0.6772-0.3369-1.1899-0.3369
				c-0.6055,0-1.0376,0.1006-1.2964,0.2998c-0.2588,0.2012-0.3882,0.4355-0.3882,0.7031c0,0.1719,0.0537,0.3252,0.1611,0.4619
				c0.1074,0.1416,0.2759,0.2588,0.5054,0.3516c0.1318,0.0488,0.52,0.1611,1.1646,0.3369c0.9326,0.249,1.583,0.4531,1.9517,0.6113
				c0.3687,0.1592,0.6582,0.3896,0.8682,0.6924s0.3149,0.6787,0.3149,1.1279c0,0.4395-0.1284,0.8535-0.3843,1.2412
				c-0.2568,0.3887-0.6265,0.6885-1.1099,0.9014c-0.4834,0.2119-1.0303,0.3184-1.6406,0.3184c-1.0107,0-1.7813-0.21-2.311-0.6299
				S97.4229,74.3018,97.2764,73.4756z"/>
			<path fill="#603813" d="M105.6768,75.7979v-1.502h1.502v1.502H105.6768z"/>
		</g>
	</g>
</g>
<g>
</g>
<g>
</g>
<g>
</g>
<g>
</g>
<g>
</g>
<g>
</g>
<g>
</g>
<g>
</g>
<g>
</g>
<g>
</g>
<g>
</g>
<g>
</g>
<g>
</g>
<g>
</g>
<g>
</g>
</svg>
