<?xml version="1.0" encoding="utf-8"?>
<!-- Generator: Adobe Illustrator 16.0.0, SVG Export Plug-In . SVG Version: 6.00 Build 0)  -->
<!DOCTYPE svg PUBLIC "-//W3C//DTD SVG 1.1//EN" "http://www.w3.org/Graphics/SVG/1.1/DTD/svg11.dtd">
<svg version="1.1" id="Capa_1" xmlns="http://www.w3.org/2000/svg" xmlns:xlink="http://www.w3.org/1999/xlink" x="0px" y="0px"
	 width="193.2144px" height="111.8594px" viewBox="0 0 193.2144 111.8594" enable-background="new 0 0 193.2144 111.8594"
	 xml:space="preserve">
<g id="XMLID_8244_">
	<g>
		<path id="XMLID_1_" fill="#FFFFFF" d="M179.7144,110.3594H13.5c-6.6001,0-12-5.3994-12-12V13.5c0-6.5996,5.3999-12,12-12h166.2144
			c6.5996,0,12,5.4004,12,12v84.8594C191.7144,104.96,186.314,110.3594,179.7144,110.3594z"/>
		<path fill="#603813" d="M179.7651,111.8594h-12.082c-0.8281,0-1.5-0.6719-1.5-1.5s0.6719-1.5,1.5-1.5h12.0313
			c0.8281,0,1.5254,0.6719,1.5254,1.5S180.5933,111.8594,179.7651,111.8594z M155.6528,111.8594h-12.0313
			c-0.8281,0-1.5-0.6719-1.5-1.5s0.6719-1.5,1.5-1.5h12.0313c0.8281,0,1.5,0.6719,1.5,1.5S156.481,111.8594,155.6528,111.8594z
			 M131.5913,111.8594h-12.0313c-0.8281,0-1.5-0.6719-1.5-1.5s0.6719-1.5,1.5-1.5h12.0313c0.8281,0,1.5,0.6719,1.5,1.5
			S132.4194,111.8594,131.5913,111.8594z M107.5298,111.8594H95.4985c-0.8281,0-1.5-0.6719-1.5-1.5s0.6719-1.5,1.5-1.5h12.0313
			c0.8281,0,1.5,0.6719,1.5,1.5S108.3579,111.8594,107.5298,111.8594z M83.4678,111.8594H71.437c-0.8286,0-1.5-0.6719-1.5-1.5
			s0.6714-1.5,1.5-1.5h12.0308c0.8286,0,1.5,0.6719,1.5,1.5S84.2964,111.8594,83.4678,111.8594z M59.4063,111.8594H47.3755
			c-0.8286,0-1.5-0.6719-1.5-1.5s0.6714-1.5,1.5-1.5h12.0308c0.8286,0,1.5,0.6719,1.5,1.5S60.2349,111.8594,59.4063,111.8594z
			 M35.3447,111.8594H23.314c-0.8286,0-1.5-0.6719-1.5-1.5s0.6714-1.5,1.5-1.5h12.0308c0.8286,0,1.5,0.6719,1.5,1.5
			S36.1733,111.8594,35.3447,111.8594z M11.2983,111.6553c-0.0913,0-0.1846-0.0078-0.2778-0.0254
			c-4.4722-0.8389-8.3179-3.9893-10.0361-8.2227c-0.312-0.7676,0.0576-1.6426,0.8252-1.9541
			c0.7671-0.3125,1.6426,0.0576,1.9541,0.8252c1.3389,3.2969,4.3311,5.751,7.8096,6.4023c0.8145,0.1533,1.3506,0.9365,1.1978,1.751
			C12.6362,111.1523,12.0063,111.6553,11.2983,111.6553z M189.8481,106.2656c-0.2754,0-0.5537-0.0752-0.8037-0.2344
			c-0.6992-0.4443-0.9053-1.3711-0.4609-2.0703c1.0664-1.6787,1.6309-3.6162,1.6309-5.6016v-5.2666c0-0.8281,0.6719-1.5,1.5-1.5
			s1.5,0.6719,1.5,1.5v5.2666c0,2.5566-0.7256,5.0498-2.0996,7.2109C190.8296,106.0195,190.3433,106.2656,189.8481,106.2656z
			 M1.5,92.4268c-0.8286,0-1.5-0.6719-1.5-1.5V78.8965c0-0.8281,0.6714-1.5,1.5-1.5s1.5,0.6719,1.5,1.5v12.0303
			C3,91.7549,2.3286,92.4268,1.5,92.4268z M191.7144,82.5615c-0.8281,0-1.5-0.6719-1.5-1.5V69.0313c0-0.8281,0.6719-1.5,1.5-1.5
			s1.5,0.6719,1.5,1.5v12.0303C193.2144,81.8896,192.5425,82.5615,191.7144,82.5615z M1.5,68.3652c-0.8286,0-1.5-0.6719-1.5-1.5
			V54.8345c0-0.8286,0.6714-1.5,1.5-1.5s1.5,0.6714,1.5,1.5v12.0308C3,67.6934,2.3286,68.3652,1.5,68.3652z M191.7144,58.5
			c-0.8281,0-1.5-0.6719-1.5-1.5V44.9692c0-0.8286,0.6719-1.5,1.5-1.5s1.5,0.6714,1.5,1.5V57
			C193.2144,57.8281,192.5425,58.5,191.7144,58.5z M1.5,44.3037c-0.8286,0-1.5-0.6714-1.5-1.5V30.7729c0-0.8286,0.6714-1.5,1.5-1.5
			s1.5,0.6714,1.5,1.5v12.0308C3,43.6323,2.3286,44.3037,1.5,44.3037z M191.7144,34.4385c-0.8281,0-1.5-0.6714-1.5-1.5V20.9077
			c0-0.8286,0.6719-1.5,1.5-1.5s1.5,0.6714,1.5,1.5v12.0308C193.2144,33.7671,192.5425,34.4385,191.7144,34.4385z M1.5,20.2422
			c-0.8286,0-1.5-0.6714-1.5-1.5V13.5c0-2.5659,0.7314-5.0674,2.1147-7.2339c0.4458-0.6987,1.373-0.9023,2.0713-0.457
			c0.6982,0.4458,0.9028,1.373,0.457,2.0713C3.5684,9.564,3,11.5073,3,13.5v5.2422C3,19.5708,2.3286,20.2422,1.5,20.2422z
			 M190.8315,10.4941c-0.5918,0-1.1523-0.3521-1.3896-0.9336c-1.3447-3.2939-4.3428-5.7407-7.8223-6.3857
			c-0.8145-0.1514-1.3525-0.9341-1.2012-1.7485c0.1504-0.8149,0.9307-1.355,1.748-1.2017
			c4.4736,0.8296,8.3252,3.9722,10.0527,8.2021c0.3135,0.7666-0.0547,1.6426-0.8213,1.9556
			C191.2124,10.458,191.02,10.4941,190.8315,10.4941z M169.8755,3h-12.0313c-0.8281,0-1.5-0.6714-1.5-1.5s0.6719-1.5,1.5-1.5
			h12.0313c0.8281,0,1.5,0.6714,1.5,1.5S170.7036,3,169.8755,3z M145.814,3h-12.0313c-0.8281,0-1.5-0.6714-1.5-1.5
			s0.6719-1.5,1.5-1.5h12.0313c0.8281,0,1.5,0.6714,1.5,1.5S146.6421,3,145.814,3z M121.7524,3h-12.0313
			c-0.8281,0-1.5-0.6714-1.5-1.5s0.6719-1.5,1.5-1.5h12.0313c0.8281,0,1.5,0.6714,1.5,1.5S122.5806,3,121.7524,3z M97.6909,3
			H85.6597c-0.8286,0-1.5-0.6714-1.5-1.5s0.6714-1.5,1.5-1.5h12.0313c0.8281,0,1.5,0.6714,1.5,1.5S98.519,3,97.6909,3z M73.6289,3
			H61.5981c-0.8286,0-1.5-0.6714-1.5-1.5s0.6714-1.5,1.5-1.5h12.0308c0.8286,0,1.5,0.6714,1.5,1.5S74.4575,3,73.6289,3z M49.5674,3
			H37.5366c-0.8286,0-1.5-0.6714-1.5-1.5s0.6714-1.5,1.5-1.5h12.0308c0.8286,0,1.5,0.6714,1.5,1.5S50.396,3,49.5674,3z M25.5059,3
			H13.5c-0.8286,0-1.5122-0.6719-1.5122-1.5c0-0.8579,0.7422-1.5474,1.6001-1.4976L25.5059,0c0.8286,0,1.5,0.6714,1.5,1.5
			S26.3345,3,25.5059,3z"/>
	</g>
	<g>
		<g>
			<path fill="#603813" d="M22.7695,11.061h3.9624c0.8936,0,1.5747,0.0684,2.0435,0.2051c0.6299,0.1855,1.1694,0.5156,1.6187,0.9893
				s0.791,1.0527,1.0254,1.7393c0.2344,0.6855,0.3516,1.5322,0.3516,2.5381c0,0.8838-0.1099,1.6455-0.3296,2.2852
				c-0.2686,0.7813-0.6519,1.4131-1.1499,1.8965c-0.376,0.3662-0.8838,0.6523-1.5234,0.8574
				c-0.4785,0.1514-1.1182,0.2266-1.9189,0.2266h-4.0796V11.061z M24.9375,12.8774v7.1123h1.6187
				c0.6055,0,1.0425-0.0342,1.311-0.1035c0.3516-0.0879,0.6431-0.2363,0.875-0.4463s0.4214-0.5557,0.5679-1.0361
				c0.1465-0.4814,0.2197-1.1367,0.2197-1.9668s-0.0732-1.4668-0.2197-1.9121c-0.1465-0.4434-0.3516-0.791-0.6152-1.0391
				c-0.2637-0.25-0.5981-0.418-1.0034-0.5059c-0.3027-0.0684-0.896-0.1025-1.7798-0.1025H24.9375z"/>
			<path fill="#603813" d="M33.5947,12.9653V11.061h2.0581v1.9043H33.5947z M33.5947,21.7983V14.02h2.0581v7.7783H33.5947z"/>
			<path fill="#603813" d="M37.0371,19.5796l2.0654-0.3154c0.0879,0.4004,0.2661,0.7041,0.5347,0.9121
				c0.2686,0.207,0.6445,0.3115,1.1279,0.3115c0.5322,0,0.9326-0.0977,1.2012-0.293c0.1807-0.1367,0.271-0.3203,0.271-0.5498
				c0-0.1563-0.0488-0.2861-0.1465-0.3877c-0.1025-0.0977-0.332-0.1885-0.6885-0.2715c-1.6602-0.3662-2.7124-0.7002-3.1567-1.0039
				c-0.6152-0.4189-0.9229-1.0029-0.9229-1.75c0-0.6738,0.2661-1.2402,0.7983-1.6992s1.3574-0.6885,2.4756-0.6885
				c1.0645,0,1.8555,0.1738,2.373,0.5205s0.874,0.8594,1.0693,1.5371l-1.9409,0.3594c-0.083-0.3027-0.2407-0.5352-0.4722-0.6953
				c-0.2324-0.1621-0.563-0.2422-0.9927-0.2422c-0.542,0-0.9302,0.0762-1.1646,0.2266c-0.1563,0.1084-0.2344,0.2471-0.2344,0.418
				c0,0.1465,0.0684,0.2715,0.2051,0.373c0.1855,0.1377,0.8262,0.3301,1.9229,0.5791c1.0957,0.249,1.8613,0.5547,2.2959,0.915
				c0.4297,0.3672,0.6445,0.877,0.6445,1.5313c0,0.7129-0.2979,1.3262-0.8936,1.8379c-0.5957,0.5137-1.4771,0.7695-2.644,0.7695
				c-1.0596,0-1.8984-0.2148-2.5161-0.6445S37.2275,20.3169,37.0371,19.5796z"/>
			<path fill="#603813" d="M50.6089,19.3228l2.0508,0.3447c-0.2637,0.752-0.6802,1.3242-1.249,1.7168
				c-0.5688,0.3936-1.2803,0.5898-2.1348,0.5898c-1.3525,0-2.3535-0.4414-3.0029-1.3262c-0.5127-0.707-0.769-1.6006-0.769-2.6797
				c0-1.2891,0.3369-2.2988,1.0107-3.0293c0.6738-0.7295,1.5259-1.0947,2.5562-1.0947c1.1572,0,2.0703,0.3818,2.7393,1.1465
				c0.6689,0.7637,0.9888,1.9346,0.9595,3.5117h-5.1563c0.0146,0.6104,0.1807,1.085,0.498,1.4248
				c0.3174,0.3389,0.7129,0.5088,1.1865,0.5088c0.3223,0,0.5933-0.0879,0.813-0.2637S50.4966,19.7134,50.6089,19.3228z
				 M50.7261,17.2427c-0.0146-0.5957-0.1685-1.0488-0.4614-1.3584c-0.293-0.3105-0.6494-0.4648-1.0693-0.4648
				c-0.4492,0-0.8203,0.1631-1.1133,0.4902s-0.437,0.7715-0.4321,1.333H50.7261z"/>
			<path fill="#603813" d="M61.522,21.7983h-2.0581v-3.9697c0-0.8398-0.0439-1.3828-0.1318-1.6299
				c-0.0879-0.2461-0.2305-0.4375-0.4287-0.5742c-0.1973-0.1367-0.4355-0.2051-0.7139-0.2051c-0.3564,0-0.6763,0.0977-0.9595,0.293
				s-0.4775,0.4531-0.5825,0.7754s-0.1572,0.9189-0.1572,1.7871v3.5234h-2.0581V14.02h1.9116v1.1426
				c0.6787-0.8789,1.5332-1.3184,2.5635-1.3184c0.4541,0,0.8691,0.082,1.2451,0.2451c0.376,0.1641,0.6602,0.373,0.8535,0.627
				c0.1924,0.2539,0.3267,0.541,0.4023,0.8633s0.1138,0.7842,0.1138,1.3848V21.7983z M56.3877,12.9722h-0.9375
				c-0.0049-0.1113-0.0073-0.1992-0.0073-0.2637c0-0.5117,0.1245-0.9063,0.3735-1.1826c0.249-0.2754,0.5688-0.4131,0.9595-0.4131
				c0.1709,0,0.3296,0.0176,0.4761,0.0547c0.1465,0.0361,0.4141,0.1416,0.8018,0.3145c0.3887,0.1738,0.6924,0.2598,0.9121,0.2598
				c0.1563,0,0.2866-0.0479,0.3916-0.1465c0.105-0.0967,0.1724-0.2607,0.2017-0.4902h0.9521
				c-0.0049,0.6592-0.1284,1.1309-0.3696,1.4141c-0.2422,0.2832-0.5532,0.4238-0.9341,0.4238c-0.166,0-0.3296-0.0166-0.4907-0.0508
				c-0.1123-0.0293-0.3931-0.1289-0.8423-0.3008c-0.4492-0.1699-0.7764-0.2559-0.9814-0.2559c-0.1563,0-0.2783,0.0479-0.3662,0.1426
				C56.439,12.5737,56.3926,12.7378,56.3877,12.9722z"/>
			<path fill="#603813" d="M63.1333,17.7993c0-0.6836,0.1685-1.3447,0.5054-1.9854c0.3369-0.6387,0.814-1.127,1.4321-1.4648
				c0.6172-0.3359,1.3071-0.5049,2.0688-0.5049c1.1768,0,2.1411,0.3818,2.8931,1.1465c0.752,0.7637,1.1279,1.7295,1.1279,2.8965
				c0,1.1768-0.3799,2.1523-1.1387,2.9258c-0.7598,0.7744-1.7153,1.1611-2.8677,1.1611c-0.7129,0-1.3931-0.1611-2.0396-0.4834
				c-0.6475-0.3223-1.1392-0.7949-1.4761-1.417C63.3018,19.4507,63.1333,18.6929,63.1333,17.7993z M65.2427,17.9097
				c0,0.7715,0.1831,1.3613,0.5493,1.7715s0.8179,0.6152,1.355,0.6152s0.9873-0.2051,1.3516-0.6152
				c0.3633-0.4102,0.5454-1.0049,0.5454-1.7871c0-0.7617-0.1821-1.3477-0.5454-1.7578c-0.3643-0.4102-0.8145-0.6152-1.3516-0.6152
				s-0.9888,0.2051-1.355,0.6152S65.2427,17.1382,65.2427,17.9097z"/>
			<path fill="#603813" d="M84.0732,21.7983h-1.9116v-1.1426c-0.3174,0.4443-0.6924,0.7754-1.124,0.9922
				c-0.4326,0.2178-0.8682,0.3262-1.3076,0.3262c-0.8936,0-1.6592-0.3604-2.2959-1.0801c-0.6377-0.7207-0.9561-1.7246-0.9561-3.0137
				c0-1.3184,0.3101-2.3213,0.9302-3.0068c0.6201-0.6865,1.4038-1.0293,2.3511-1.0293c0.8691,0,1.6211,0.3613,2.2559,1.084V11.061
				h2.0581V21.7983z M78.5801,17.7407c0,0.8301,0.1147,1.4307,0.3442,1.8018c0.332,0.5371,0.7959,0.8057,1.3916,0.8057
				c0.4736,0,0.8765-0.2012,1.2085-0.6045c0.332-0.4023,0.498-1.0039,0.498-1.8047c0-0.8945-0.1611-1.5371-0.4834-1.9307
				c-0.3223-0.3926-0.7349-0.5889-1.2378-0.5889c-0.4883,0-0.8975,0.1934-1.2266,0.582
				C78.7446,16.3892,78.5801,16.9692,78.5801,17.7407z"/>
			<path fill="#603813" d="M90.6064,19.3228l2.0503,0.3447c-0.2637,0.752-0.6797,1.3242-1.2485,1.7168
				c-0.5688,0.3936-1.2803,0.5898-2.1348,0.5898c-1.3525,0-2.3535-0.4414-3.0029-1.3262c-0.5127-0.707-0.769-1.6006-0.769-2.6797
				c0-1.2891,0.3369-2.2988,1.0107-3.0293c0.6738-0.7295,1.5259-1.0947,2.5562-1.0947c1.1572,0,2.0703,0.3818,2.7393,1.1465
				c0.6694,0.7637,0.9888,1.9346,0.9595,3.5117h-5.1563c0.0146,0.6104,0.1807,1.085,0.498,1.4248
				c0.3174,0.3389,0.7129,0.5088,1.1865,0.5088c0.3223,0,0.5933-0.0879,0.813-0.2637S90.4941,19.7134,90.6064,19.3228z
				 M90.7236,17.2427c-0.0146-0.5957-0.1685-1.0488-0.4614-1.3584c-0.293-0.3105-0.6494-0.4648-1.0693-0.4648
				c-0.4492,0-0.8203,0.1631-1.1133,0.4902s-0.437,0.7715-0.4321,1.333H90.7236z"/>
			<path fill="#603813" d="M98.6118,12.9653V11.061h2.0586v1.9043H98.6118z M98.6118,21.7983V14.02h2.0586v7.7783H98.6118z"/>
			<path fill="#603813" d="M109.854,21.7983h-2.0576v-3.9697c0-0.8398-0.0439-1.3828-0.1318-1.6299
				c-0.0879-0.2461-0.2305-0.4375-0.4287-0.5742c-0.1973-0.1367-0.4355-0.2051-0.7139-0.2051c-0.3564,0-0.6758,0.0977-0.959,0.293
				s-0.4785,0.4531-0.583,0.7754s-0.1572,0.9189-0.1572,1.7871v3.5234h-2.0586V14.02h1.9121v1.1426
				c0.6787-0.8789,1.5332-1.3184,2.5635-1.3184c0.4541,0,0.8691,0.082,1.2451,0.2451c0.376,0.1641,0.6602,0.373,0.8535,0.627
				c0.1924,0.2539,0.3262,0.541,0.4023,0.8633s0.1133,0.7842,0.1133,1.3848V21.7983z"/>
			<path fill="#603813" d="M115.5083,14.02v1.6406h-1.4063v3.1348c0,0.6348,0.0137,1.0049,0.041,1.1094
				c0.0264,0.1055,0.0879,0.1924,0.1836,0.2607c0.0938,0.0684,0.2109,0.1016,0.3477,0.1016c0.1895,0,0.4658-0.0654,0.8271-0.1973
				l0.1758,1.5967c-0.4785,0.2051-1.0205,0.3076-1.626,0.3076c-0.3711,0-0.7051-0.0625-1.0039-0.1865
				c-0.2969-0.125-0.5156-0.2861-0.6543-0.4834c-0.1406-0.1982-0.2363-0.4648-0.29-0.8027
				c-0.0439-0.2383-0.0654-0.7217-0.0654-1.4492v-3.3916h-0.9453V14.02h0.9453v-1.5459l2.0645-1.2012V14.02H115.5083z"/>
			<path fill="#603813" d="M121.4419,19.3228l2.0508,0.3447c-0.2637,0.752-0.6807,1.3242-1.25,1.7168
				c-0.5684,0.3936-1.2793,0.5898-2.1348,0.5898c-1.3516,0-2.3535-0.4414-3.002-1.3262c-0.5137-0.707-0.7695-1.6006-0.7695-2.6797
				c0-1.2891,0.3369-2.2988,1.0107-3.0293c0.6738-0.7295,1.5264-1.0947,2.5557-1.0947c1.1582,0,2.0703,0.3818,2.7402,1.1465
				c0.668,0.7637,0.9883,1.9346,0.959,3.5117h-5.1563c0.0146,0.6104,0.1807,1.085,0.498,1.4248
				c0.3174,0.3389,0.7129,0.5088,1.1865,0.5088c0.3223,0,0.5928-0.0879,0.8135-0.2637
				C121.1626,19.9966,121.3286,19.7134,121.4419,19.3228z M121.5591,17.2427c-0.0156-0.5957-0.1689-1.0488-0.4619-1.3584
				c-0.293-0.3105-0.6494-0.4648-1.0693-0.4648c-0.4492,0-0.8203,0.1631-1.1133,0.4902s-0.4375,0.7715-0.4316,1.333H121.5591z"/>
			<path fill="#603813" d="M127.2495,21.7983h-2.0576V14.02h1.9111v1.1064c0.3271-0.5225,0.6211-0.8672,0.8828-1.0332
				c0.2607-0.166,0.5576-0.249,0.8896-0.249c0.4688,0,0.9199,0.1299,1.3555,0.3877l-0.6377,1.7949
				c-0.3467-0.2246-0.6689-0.3369-0.9668-0.3369c-0.2881,0-0.5322,0.0791-0.7324,0.2383c-0.2002,0.1582-0.3584,0.4453-0.4727,0.8604
				s-0.1719,1.2842-0.1719,2.6074V21.7983z"/>
			<path fill="#603813" d="M130.2153,14.02h1.1426v-0.5859c0-0.6543,0.0703-1.1426,0.209-1.4648s0.3965-0.585,0.7695-0.7871
				c0.373-0.2031,0.8457-0.3037,1.417-0.3037c0.5859,0,1.1592,0.0879,1.7217,0.2637l-0.2793,1.4355
				c-0.3262-0.0781-0.6416-0.1172-0.9443-0.1172c-0.2979,0-0.5117,0.0693-0.6416,0.208c-0.1289,0.1396-0.1934,0.4072-0.1934,0.8018
				V14.02h1.5381v1.6182h-1.5381v6.1602h-2.0586v-6.1602h-1.1426V14.02z"/>
			<path fill="#603813" d="M137.6499,16.3931l-1.8682-0.3369c0.2109-0.752,0.5723-1.3086,1.084-1.6699
				c0.5137-0.3613,1.2754-0.542,2.2852-0.542c0.918,0,1.6016,0.1084,2.0508,0.3262c0.4492,0.2168,0.7656,0.4932,0.9492,0.8271
				c0.1836,0.335,0.2744,0.9492,0.2744,1.8418l-0.0225,2.4023c0,0.6846,0.0332,1.1885,0.0996,1.5127
				c0.0664,0.3252,0.1895,0.6729,0.3691,1.0439h-2.0352c-0.0547-0.1367-0.1201-0.3389-0.1982-0.6074
				c-0.0342-0.1221-0.0586-0.2031-0.0732-0.2422c-0.3516,0.3418-0.7275,0.5986-1.1279,0.7695
				c-0.4004,0.1699-0.8271,0.2559-1.2822,0.2559c-0.8008,0-1.4316-0.2168-1.8926-0.6523c-0.4609-0.4336-0.6924-0.9834-0.6924-1.6475
				c0-0.4395,0.1045-0.8311,0.3154-1.1758c0.209-0.3438,0.5039-0.6074,0.8828-0.791c0.377-0.1826,0.9238-0.3428,1.6367-0.4795
				c0.9609-0.1807,1.6279-0.3486,1.999-0.5059v-0.2051c0-0.3945-0.0977-0.6768-0.293-0.8457
				c-0.1953-0.168-0.5635-0.252-1.1064-0.252c-0.3652,0-0.6514,0.0713-0.8564,0.2158
				C137.9429,15.7788,137.7769,16.0317,137.6499,16.3931z M140.4038,18.063c-0.2637,0.0879-0.6807,0.1934-1.2529,0.3154
				c-0.5703,0.1221-0.9443,0.2412-1.1201,0.3584c-0.2686,0.1904-0.4033,0.4326-0.4033,0.7256c0,0.2881,0.1074,0.5371,0.3223,0.7461
				c0.2148,0.2109,0.4883,0.3154,0.8203,0.3154c0.3711,0,0.7256-0.1221,1.0625-0.3662c0.249-0.1855,0.4121-0.4121,0.4902-0.6816
				c0.0547-0.1758,0.0811-0.5098,0.0811-1.0029V18.063z"/>
			<path fill="#603813" d="M151.2368,16.3198l-2.0293,0.3662c-0.0684-0.4053-0.2236-0.71-0.4648-0.915
				c-0.2422-0.2051-0.5557-0.3086-0.9414-0.3086c-0.5127,0-0.9219,0.1777-1.2266,0.5313c-0.3057,0.3545-0.458,0.9463-0.458,1.7764
				c0,0.9229,0.1553,1.5752,0.4648,1.9561s0.7266,0.5703,1.249,0.5703c0.3906,0,0.7109-0.1104,0.959-0.333
				c0.25-0.2217,0.4258-0.6045,0.5273-1.1455l2.0215,0.3438c-0.209,0.9277-0.6123,1.6289-1.208,2.1016
				c-0.5957,0.4746-1.3936,0.7109-2.3955,0.7109c-1.1367,0-2.0449-0.3594-2.7207-1.0762c-0.6758-0.7188-1.0137-1.7119-1.0137-2.9814
				c0-1.2842,0.3389-2.2842,1.0176-2.999c0.6787-0.7158,1.5967-1.0732,2.7539-1.0732c0.9473,0,1.7002,0.2041,2.2598,0.6113
				C150.5903,14.8638,150.9927,15.4849,151.2368,16.3198z"/>
			<path fill="#603813" d="M157.3013,19.3228l2.0508,0.3447c-0.2637,0.752-0.6807,1.3242-1.25,1.7168
				c-0.5684,0.3936-1.2793,0.5898-2.1348,0.5898c-1.3516,0-2.3535-0.4414-3.002-1.3262c-0.5137-0.707-0.7695-1.6006-0.7695-2.6797
				c0-1.2891,0.3369-2.2988,1.0107-3.0293c0.6738-0.7295,1.5264-1.0947,2.5557-1.0947c1.1582,0,2.0703,0.3818,2.7402,1.1465
				c0.668,0.7637,0.9883,1.9346,0.959,3.5117h-5.1563c0.0146,0.6104,0.1807,1.085,0.498,1.4248
				c0.3174,0.3389,0.7129,0.5088,1.1865,0.5088c0.3223,0,0.5928-0.0879,0.8135-0.2637
				C157.022,19.9966,157.188,19.7134,157.3013,19.3228z M157.4185,17.2427c-0.0156-0.5957-0.1689-1.0488-0.4619-1.3584
				c-0.293-0.3105-0.6494-0.4648-1.0693-0.4648c-0.4492,0-0.8203,0.1631-1.1133,0.4902s-0.4375,0.7715-0.4316,1.333H157.4185z"/>
			<path fill="#603813" d="M160.4136,19.5796l2.0654-0.3154c0.0879,0.4004,0.2656,0.7041,0.5352,0.9121
				c0.2676,0.207,0.6445,0.3115,1.127,0.3115c0.5332,0,0.9336-0.0977,1.2012-0.293c0.1816-0.1367,0.2715-0.3203,0.2715-0.5498
				c0-0.1563-0.0488-0.2861-0.1465-0.3877c-0.1025-0.0977-0.332-0.1885-0.6885-0.2715c-1.6602-0.3662-2.7119-0.7002-3.1572-1.0039
				c-0.6152-0.4189-0.9219-1.0029-0.9219-1.75c0-0.6738,0.2656-1.2402,0.7979-1.6992s1.3574-0.6885,2.4756-0.6885
				c1.0645,0,1.8555,0.1738,2.373,0.5205s0.874,0.8594,1.0693,1.5371l-1.9404,0.3594c-0.084-0.3027-0.2412-0.5352-0.4727-0.6953
				c-0.2324-0.1621-0.5625-0.2422-0.9922-0.2422c-0.543,0-0.9307,0.0762-1.165,0.2266c-0.1563,0.1084-0.2344,0.2471-0.2344,0.418
				c0,0.1465,0.0684,0.2715,0.2051,0.373c0.1855,0.1377,0.8262,0.3301,1.9229,0.5791c1.0957,0.249,1.8613,0.5547,2.2959,0.915
				c0.4297,0.3672,0.6445,0.877,0.6445,1.5313c0,0.7129-0.2979,1.3262-0.8936,1.8379c-0.5957,0.5137-1.4766,0.7695-2.6445,0.7695
				c-1.0586,0-1.8984-0.2148-2.5156-0.6445S160.604,20.3169,160.4136,19.5796z"/>
			<path fill="#603813" d="M11.9302,39.7983V29.061h4.0503c0.7129,0,1.2573,0.0342,1.6333,0.1025
				c0.5273,0.0879,0.9692,0.2549,1.3257,0.502c0.3564,0.2461,0.6431,0.5918,0.8608,1.0361
				c0.2168,0.4443,0.3257,0.9326,0.3257,1.4648c0,0.9131-0.2905,1.6855-0.8716,2.3184c-0.5811,0.6318-1.6309,0.9482-3.1494,0.9482
				h-2.7539v4.3652H11.9302z M13.3511,34.1655h2.7759c0.918,0,1.5698-0.1699,1.9556-0.5117s0.5786-0.8232,0.5786-1.4434
				c0-0.4492-0.1138-0.834-0.3403-1.1533c-0.2275-0.3203-0.5264-0.5313-0.8975-0.6338c-0.2393-0.0635-0.6812-0.0957-1.3257-0.0957
				h-2.7466V34.1655z"/>
			<path fill="#603813" d="M26.8423,38.8394c-0.4883,0.415-0.9585,0.708-1.4102,0.8789c-0.4517,0.1699-0.936,0.2559-1.4536,0.2559
				c-0.8545,0-1.5112-0.209-1.9702-0.626c-0.459-0.418-0.6885-0.9512-0.6885-1.6006c0-0.3809,0.0864-0.7285,0.2598-1.0439
				c0.1733-0.3145,0.4004-0.5674,0.6816-0.7578c0.2803-0.1904,0.5967-0.334,0.9482-0.4326
				c0.2588-0.0674,0.6494-0.1338,1.1719-0.1973c1.0645-0.127,1.8481-0.2783,2.3511-0.4541
				c0.0049-0.1807,0.0073-0.2949,0.0073-0.3447c0-0.5361-0.1245-0.915-0.3735-1.1348c-0.3369-0.2979-0.8374-0.4473-1.5015-0.4473
				c-0.6201,0-1.0781,0.1094-1.373,0.3262c-0.2959,0.2178-0.5142,0.6025-0.6558,1.1543l-1.2891-0.1758
				c0.1172-0.5518,0.3101-0.998,0.5786-1.3369c0.2686-0.3398,0.6567-0.6006,1.1646-0.7842
				c0.5078-0.1826,1.0962-0.2744,1.7651-0.2744c0.6641,0,1.2036,0.0781,1.6187,0.2344s0.7202,0.3525,0.9155,0.5898
				c0.1953,0.2363,0.332,0.5361,0.4102,0.8975c0.0439,0.2246,0.0659,0.6289,0.0659,1.2148v1.7578
				c0,1.2266,0.0278,2.001,0.0845,2.3262c0.0557,0.3242,0.167,0.6357,0.333,0.9336h-1.377
				C26.9692,39.5249,26.8813,39.2046,26.8423,38.8394z M26.7324,35.894c-0.4785,0.1963-1.1963,0.3623-2.1533,0.498
				c-0.542,0.0791-0.9253,0.167-1.1499,0.2637c-0.2246,0.0986-0.3979,0.2412-0.52,0.4287c-0.1221,0.1885-0.1831,0.3975-0.1831,0.626
				c0,0.3516,0.1328,0.6445,0.3994,0.8789c0.2656,0.2344,0.6553,0.3516,1.168,0.3516c0.5078,0,0.9595-0.1104,1.355-0.333
				c0.3955-0.2217,0.686-0.5254,0.8716-0.9111c0.1416-0.2979,0.2124-0.7373,0.2124-1.3184V35.894z"/>
			<path fill="#603813" d="M30.0942,39.7983V32.02h1.1865v1.1787c0.3027-0.5508,0.5825-0.915,0.8384-1.0908
				c0.2568-0.1758,0.5386-0.2637,0.8462-0.2637c0.4443,0,0.896,0.1416,1.355,0.4248l-0.4541,1.2227
				c-0.3223-0.1895-0.6445-0.2852-0.9668-0.2852c-0.2881,0-0.5469,0.0869-0.7764,0.2598c-0.2295,0.1738-0.3931,0.4141-0.4907,0.7217
				c-0.1465,0.4688-0.2197,0.9814-0.2197,1.5381v4.0723H30.0942z"/>
			<path fill="#603813" d="M40.1797,38.8394c-0.4883,0.415-0.9585,0.708-1.4102,0.8789c-0.4517,0.1699-0.936,0.2559-1.4536,0.2559
				c-0.8545,0-1.5112-0.209-1.9702-0.626c-0.459-0.418-0.6885-0.9512-0.6885-1.6006c0-0.3809,0.0864-0.7285,0.2598-1.0439
				c0.1733-0.3145,0.4004-0.5674,0.6816-0.7578c0.2803-0.1904,0.5967-0.334,0.9482-0.4326
				c0.2588-0.0674,0.6494-0.1338,1.1719-0.1973c1.0645-0.127,1.8481-0.2783,2.3511-0.4541
				c0.0049-0.1807,0.0073-0.2949,0.0073-0.3447c0-0.5361-0.1245-0.915-0.3735-1.1348c-0.3369-0.2979-0.8374-0.4473-1.5015-0.4473
				c-0.6201,0-1.0781,0.1094-1.373,0.3262c-0.2959,0.2178-0.5142,0.6025-0.6558,1.1543l-1.2891-0.1758
				c0.1172-0.5518,0.3101-0.998,0.5786-1.3369c0.2686-0.3398,0.6567-0.6006,1.1646-0.7842
				c0.5078-0.1826,1.0962-0.2744,1.7651-0.2744c0.6641,0,1.2036,0.0781,1.6187,0.2344s0.7202,0.3525,0.9155,0.5898
				c0.1953,0.2363,0.332,0.5361,0.4102,0.8975c0.0439,0.2246,0.0659,0.6289,0.0659,1.2148v1.7578
				c0,1.2266,0.0278,2.001,0.0845,2.3262c0.0557,0.3242,0.167,0.6357,0.333,0.9336h-1.377
				C40.3066,39.5249,40.2188,39.2046,40.1797,38.8394z M40.0698,35.894c-0.4785,0.1963-1.1963,0.3623-2.1533,0.498
				c-0.542,0.0791-0.9253,0.167-1.1499,0.2637c-0.2246,0.0986-0.3979,0.2412-0.52,0.4287c-0.1221,0.1885-0.1831,0.3975-0.1831,0.626
				c0,0.3516,0.1328,0.6445,0.3994,0.8789c0.2656,0.2344,0.6553,0.3516,1.168,0.3516c0.5078,0,0.9595-0.1104,1.355-0.333
				c0.3955-0.2217,0.686-0.5254,0.8716-0.9111c0.1416-0.2979,0.2124-0.7373,0.2124-1.3184V35.894z"/>
			<path fill="#603813" d="M52.7305,36.9487l1.2964,0.1689c-0.1416,0.8936-0.5044,1.5928-1.0874,2.0986
				c-0.584,0.5049-1.3003,0.7578-2.1499,0.7578c-1.0645,0-1.9204-0.3477-2.5669-1.0439c-0.6475-0.6953-0.9707-1.6924-0.9707-2.9912
				c0-0.8398,0.1392-1.5752,0.4175-2.2051s0.7017-1.1025,1.271-1.417c0.5684-0.3154,1.1875-0.4727,1.8564-0.4727
				c0.8447,0,1.5356,0.2139,2.0728,0.6406c0.5371,0.4277,0.8813,1.0342,1.0327,1.8203l-1.2817,0.1982
				c-0.1221-0.5225-0.3384-0.916-0.6479-1.1797c-0.3105-0.2637-0.6851-0.3955-1.1245-0.3955c-0.6641,0-1.2036,0.2383-1.6187,0.7139
				c-0.415,0.4766-0.6226,1.2295-0.6226,2.2598c0,1.0449,0.2002,1.8047,0.6006,2.2773c0.4004,0.4746,0.9229,0.7109,1.5674,0.7109
				c0.5176,0,0.9497-0.1582,1.2964-0.4766C52.418,38.0972,52.6377,37.6089,52.7305,36.9487z"/>
			<path fill="#603813" d="M60.2305,38.8394c-0.4883,0.415-0.9585,0.708-1.4102,0.8789c-0.4517,0.1699-0.936,0.2559-1.4536,0.2559
				c-0.8545,0-1.5112-0.209-1.9702-0.626c-0.459-0.418-0.6885-0.9512-0.6885-1.6006c0-0.3809,0.0864-0.7285,0.2598-1.0439
				c0.1733-0.3145,0.4004-0.5674,0.6816-0.7578c0.2803-0.1904,0.5967-0.334,0.9482-0.4326
				c0.2588-0.0674,0.6494-0.1338,1.1719-0.1973c1.0645-0.127,1.8481-0.2783,2.3511-0.4541
				c0.0049-0.1807,0.0073-0.2949,0.0073-0.3447c0-0.5361-0.1245-0.915-0.3735-1.1348c-0.3369-0.2979-0.8374-0.4473-1.5015-0.4473
				c-0.6201,0-1.0781,0.1094-1.373,0.3262c-0.2959,0.2178-0.5142,0.6025-0.6558,1.1543l-1.2891-0.1758
				c0.1172-0.5518,0.3101-0.998,0.5786-1.3369c0.2686-0.3398,0.6567-0.6006,1.1646-0.7842
				c0.5078-0.1826,1.0962-0.2744,1.7651-0.2744c0.6641,0,1.2036,0.0781,1.6187,0.2344s0.7202,0.3525,0.9155,0.5898
				c0.1953,0.2363,0.332,0.5361,0.4102,0.8975c0.0439,0.2246,0.0659,0.6289,0.0659,1.2148v1.7578
				c0,1.2266,0.0278,2.001,0.0845,2.3262c0.0557,0.3242,0.167,0.6357,0.333,0.9336h-1.377
				C60.3574,39.5249,60.2695,39.2046,60.2305,38.8394z M60.1206,35.894c-0.4785,0.1963-1.1963,0.3623-2.1533,0.498
				c-0.542,0.0791-0.9253,0.167-1.1499,0.2637c-0.2246,0.0986-0.3979,0.2412-0.52,0.4287c-0.1221,0.1885-0.1831,0.3975-0.1831,0.626
				c0,0.3516,0.1328,0.6445,0.3994,0.8789c0.2656,0.2344,0.6553,0.3516,1.168,0.3516c0.5078,0,0.9595-0.1104,1.355-0.333
				c0.3955-0.2217,0.686-0.5254,0.8716-0.9111c0.1416-0.2979,0.2124-0.7373,0.2124-1.3184V35.894z"/>
			<path fill="#603813" d="M68.5435,39.7983v-0.9814c-0.4932,0.7715-1.2183,1.1572-2.1753,1.1572
				c-0.6201,0-1.1899-0.1709-1.7104-0.5127c-0.5195-0.3418-0.9229-0.8193-1.208-1.4316c-0.2861-0.6133-0.4287-1.3174-0.4287-2.1133
				c0-0.7764,0.1294-1.4805,0.3882-2.1133c0.2588-0.6318,0.647-1.1162,1.1646-1.4541c0.5176-0.3359,1.0962-0.5049,1.7358-0.5049
				c0.4688,0,0.8862,0.0986,1.2524,0.2969c0.3662,0.1973,0.6641,0.4551,0.8936,0.7725V29.061h1.311v10.7373H68.5435z
				 M64.376,35.9165c0,0.9961,0.21,1.7412,0.6299,2.2334c0.4199,0.4941,0.9155,0.7402,1.4868,0.7402
				c0.5762,0,1.0654-0.2354,1.4688-0.707c0.4023-0.4707,0.604-1.1895,0.604-2.1563c0-1.0645-0.2051-1.8457-0.6152-2.3438
				s-0.9155-0.748-1.5161-0.748c-0.5859,0-1.0757,0.2402-1.4688,0.7188S64.376,34.8862,64.376,35.9165z"/>
			<path fill="#603813" d="M76.915,38.8394c-0.4883,0.415-0.9585,0.708-1.4102,0.8789c-0.4517,0.1699-0.936,0.2559-1.4536,0.2559
				c-0.8545,0-1.5112-0.209-1.9702-0.626c-0.459-0.418-0.6885-0.9512-0.6885-1.6006c0-0.3809,0.0864-0.7285,0.2598-1.0439
				c0.1733-0.3145,0.4004-0.5674,0.6816-0.7578c0.2803-0.1904,0.5967-0.334,0.9482-0.4326
				c0.2588-0.0674,0.6494-0.1338,1.1719-0.1973c1.0645-0.127,1.8481-0.2783,2.3511-0.4541
				c0.0049-0.1807,0.0073-0.2949,0.0073-0.3447c0-0.5361-0.1245-0.915-0.3735-1.1348c-0.3369-0.2979-0.8374-0.4473-1.5015-0.4473
				c-0.6201,0-1.0781,0.1094-1.373,0.3262c-0.2959,0.2178-0.5142,0.6025-0.6558,1.1543l-1.2891-0.1758
				c0.1172-0.5518,0.3101-0.998,0.5786-1.3369c0.2686-0.3398,0.6567-0.6006,1.1646-0.7842
				c0.5078-0.1826,1.0962-0.2744,1.7651-0.2744c0.6641,0,1.2036,0.0781,1.6187,0.2344s0.7202,0.3525,0.9155,0.5898
				c0.1953,0.2363,0.332,0.5361,0.4102,0.8975c0.0439,0.2246,0.0659,0.6289,0.0659,1.2148v1.7578
				c0,1.2266,0.0278,2.001,0.0845,2.3262c0.0557,0.3242,0.167,0.6357,0.333,0.9336h-1.377
				C77.042,39.5249,76.9541,39.2046,76.915,38.8394z M76.8052,35.894c-0.4785,0.1963-1.1963,0.3623-2.1533,0.498
				c-0.542,0.0791-0.9253,0.167-1.1499,0.2637c-0.2246,0.0986-0.3979,0.2412-0.52,0.4287c-0.1221,0.1885-0.1831,0.3975-0.1831,0.626
				c0,0.3516,0.1328,0.6445,0.3994,0.8789c0.2656,0.2344,0.6553,0.3516,1.168,0.3516c0.5078,0,0.9595-0.1104,1.355-0.333
				c0.3955-0.2217,0.686-0.5254,0.8716-0.9111c0.1416-0.2979,0.2124-0.7373,0.2124-1.3184V35.894z"/>
			<path fill="#603813" d="M83.8633,37.4761l1.3037-0.2051c0.0732,0.5234,0.2769,0.9238,0.6118,1.2012
				c0.334,0.2793,0.8018,0.418,1.4023,0.418c0.6055,0,1.0547-0.123,1.3477-0.3701c0.293-0.2461,0.4395-0.5352,0.4395-0.8682
				c0-0.2969-0.1294-0.5313-0.3882-0.7031c-0.1807-0.1172-0.6299-0.2656-1.3477-0.4463c-0.9668-0.2441-1.6372-0.4551-2.0103-0.6338
				c-0.374-0.1777-0.6572-0.4248-0.8496-0.7393c-0.1934-0.3154-0.2896-0.6631-0.2896-1.0439c0-0.3467,0.0791-0.668,0.2378-0.9629
				c0.1587-0.2959,0.375-0.541,0.6484-0.7363c0.2051-0.1514,0.4844-0.2793,0.8389-0.3848c0.3535-0.1045,0.7334-0.1572,1.1387-0.1572
				c0.6104,0,1.1465,0.0879,1.6074,0.2637c0.4619,0.1758,0.8022,0.4141,1.022,0.7139c0.2197,0.3008,0.3711,0.7021,0.4541,1.2051
				l-1.2891,0.1758c-0.0586-0.4004-0.2285-0.7129-0.5093-0.9375s-0.6772-0.3369-1.1899-0.3369
				c-0.6055,0-1.0376,0.1006-1.2964,0.2998c-0.2588,0.2012-0.3882,0.4355-0.3882,0.7031c0,0.1719,0.0537,0.3252,0.1611,0.4619
				c0.1074,0.1416,0.2759,0.2588,0.5054,0.3516c0.1318,0.0488,0.52,0.1611,1.1646,0.3369c0.9326,0.249,1.583,0.4531,1.9517,0.6113
				c0.3687,0.1592,0.6582,0.3896,0.8682,0.6924s0.3149,0.6787,0.3149,1.1279c0,0.4395-0.1284,0.8535-0.3843,1.2412
				c-0.2568,0.3887-0.6265,0.6885-1.1099,0.9014c-0.4834,0.2119-1.0303,0.3184-1.6406,0.3184c-1.0107,0-1.7813-0.21-2.311-0.6299
				S84.0098,38.3022,83.8633,37.4761z"/>
			<path fill="#603813" d="M96.9888,39.7983v-1.1426c-0.6055,0.8789-1.4287,1.3184-2.4688,1.3184
				c-0.459,0-0.8877-0.0879-1.2852-0.2637c-0.3984-0.1758-0.6934-0.3965-0.8867-0.6631c-0.1929-0.2656-0.3281-0.5918-0.4063-0.9775
				c-0.0537-0.2588-0.0806-0.6689-0.0806-1.2305V32.02h1.3188v4.3135c0,0.6895,0.0264,1.1533,0.0801,1.3926
				c0.083,0.3467,0.2588,0.6182,0.5273,0.8164c0.2686,0.1973,0.6006,0.2969,0.9961,0.2969s0.7666-0.1016,1.1133-0.3047
				c0.3467-0.2021,0.5918-0.4785,0.7363-0.8271c0.1436-0.3496,0.2158-0.8555,0.2158-1.5205V32.02h1.3184v7.7783H96.9888z"/>
			<path fill="#603813" d="M101.4487,39.7983h-1.2236V29.061h1.3184v3.8311c0.5566-0.6982,1.2676-1.0479,2.1318-1.0479
				c0.4785,0,0.9307,0.0967,1.3584,0.2891c0.4277,0.1934,0.7793,0.4639,1.0547,0.8135c0.2754,0.3486,0.4922,0.7705,0.6484,1.2637
				s0.2344,1.0205,0.2344,1.582c0,1.332-0.3301,2.3633-0.9883,3.0898c-0.6602,0.7285-1.4512,1.0918-2.373,1.0918
				c-0.918,0-1.6387-0.3828-2.1611-1.1504V39.7983z M101.4341,35.8511c0,0.9326,0.127,1.6064,0.3809,2.0215
				c0.415,0.6787,0.9766,1.0176,1.6846,1.0176c0.5762,0,1.0742-0.25,1.4941-0.751c0.4199-0.5,0.6299-1.2461,0.6299-2.2373
				c0-1.0156-0.2012-1.7656-0.6035-2.248c-0.4043-0.4844-0.8906-0.7256-1.4619-0.7256c-0.5762,0-1.0742,0.25-1.4941,0.751
				C101.644,34.1792,101.4341,34.9038,101.4341,35.8511z"/>
			<path fill="#603813" d="M108.0474,37.4761l1.3047-0.2051c0.0723,0.5234,0.2764,0.9238,0.6113,1.2012
				c0.334,0.2793,0.8018,0.418,1.4023,0.418c0.6055,0,1.0547-0.123,1.3477-0.3701c0.293-0.2461,0.4395-0.5352,0.4395-0.8682
				c0-0.2969-0.1289-0.5313-0.3887-0.7031c-0.1797-0.1172-0.6289-0.2656-1.3477-0.4463c-0.9668-0.2441-1.6367-0.4551-2.0098-0.6338
				c-0.374-0.1777-0.6572-0.4248-0.8496-0.7393c-0.1934-0.3154-0.2891-0.6631-0.2891-1.0439c0-0.3467,0.0781-0.668,0.2373-0.9629
				c0.1592-0.2959,0.375-0.541,0.6484-0.7363c0.2051-0.1514,0.4844-0.2793,0.8389-0.3848c0.3535-0.1045,0.7334-0.1572,1.1387-0.1572
				c0.6104,0,1.1465,0.0879,1.6074,0.2637c0.4619,0.1758,0.8027,0.4141,1.0215,0.7139c0.2207,0.3008,0.3711,0.7021,0.4551,1.2051
				l-1.2891,0.1758c-0.0586-0.4004-0.2285-0.7129-0.5098-0.9375s-0.6777-0.3369-1.1895-0.3369
				c-0.6055,0-1.0381,0.1006-1.2969,0.2998c-0.2588,0.2012-0.3887,0.4355-0.3887,0.7031c0,0.1719,0.0547,0.3252,0.1621,0.4619
				c0.1074,0.1416,0.2754,0.2588,0.5049,0.3516c0.1318,0.0488,0.5205,0.1611,1.165,0.3369c0.9316,0.249,1.582,0.4531,1.9512,0.6113
				c0.3691,0.1592,0.6582,0.3896,0.8682,0.6924s0.3154,0.6787,0.3154,1.1279c0,0.4395-0.1289,0.8535-0.3848,1.2412
				c-0.2568,0.3887-0.627,0.6885-1.1094,0.9014c-0.4844,0.2119-1.0313,0.3184-1.6406,0.3184c-1.0117,0-1.7813-0.21-2.3115-0.6299
				S108.1938,38.3022,108.0474,37.4761z"/>
			<path fill="#603813" d="M116.0825,30.5776V29.061h1.3184v1.5166H116.0825z M116.0825,39.7983V32.02h1.3184v7.7783H116.0825z"/>
			<path fill="#603813" d="M118.8804,37.4761l1.3037-0.2051c0.0732,0.5234,0.2773,0.9238,0.6113,1.2012
				c0.334,0.2793,0.8027,0.418,1.4023,0.418c0.6055,0,1.0547-0.123,1.3477-0.3701c0.293-0.2461,0.4395-0.5352,0.4395-0.8682
				c0-0.2969-0.1289-0.5313-0.3877-0.7031c-0.1807-0.1172-0.6299-0.2656-1.3477-0.4463c-0.9668-0.2441-1.6377-0.4551-2.0107-0.6338
				c-0.373-0.1777-0.6563-0.4248-0.8496-0.7393c-0.1934-0.3154-0.2891-0.6631-0.2891-1.0439c0-0.3467,0.0791-0.668,0.2383-0.9629
				c0.1582-0.2959,0.375-0.541,0.6484-0.7363c0.2051-0.1514,0.4844-0.2793,0.8379-0.3848c0.3535-0.1045,0.7344-0.1572,1.1387-0.1572
				c0.6113,0,1.1465,0.0879,1.6074,0.2637c0.4629,0.1758,0.8027,0.4141,1.0225,0.7139c0.2197,0.3008,0.3711,0.7021,0.4541,1.2051
				l-1.2891,0.1758c-0.0586-0.4004-0.2285-0.7129-0.5098-0.9375c-0.2803-0.2246-0.6768-0.3369-1.1895-0.3369
				c-0.6055,0-1.0371,0.1006-1.2969,0.2998c-0.2578,0.2012-0.3877,0.4355-0.3877,0.7031c0,0.1719,0.0537,0.3252,0.1611,0.4619
				c0.1074,0.1416,0.2754,0.2588,0.5059,0.3516c0.1309,0.0488,0.5195,0.1611,1.1641,0.3369c0.9326,0.249,1.583,0.4531,1.9512,0.6113
				c0.3691,0.1592,0.6582,0.3896,0.8691,0.6924c0.209,0.3027,0.3145,0.6787,0.3145,1.1279c0,0.4395-0.1289,0.8535-0.3848,1.2412
				c-0.2559,0.3887-0.626,0.6885-1.1094,0.9014c-0.4834,0.2119-1.0303,0.3184-1.6406,0.3184c-1.0107,0-1.7813-0.21-2.3105-0.6299
				C119.3647,38.9243,119.0269,38.3022,118.8804,37.4761z"/>
			<path fill="#603813" d="M129.7856,38.6187l0.1914,1.165c-0.3711,0.0781-0.7031,0.1172-0.9961,0.1172
				c-0.4785,0-0.8496-0.0762-1.1133-0.2275c-0.2637-0.1504-0.4492-0.3496-0.5566-0.5967c-0.1074-0.2461-0.1621-0.7646-0.1621-1.5557
				v-4.4756h-0.9668V32.02h0.9668v-1.9268l1.3115-0.791V32.02h1.3252v1.0254h-1.3252v4.5479c0,0.377,0.0225,0.6182,0.0693,0.7256
				s0.1221,0.1934,0.2266,0.2568c0.1055,0.0635,0.2559,0.0947,0.4512,0.0947C129.354,38.6704,129.5474,38.6538,129.7856,38.6187z"/>
			<path fill="#603813" d="M136.3999,37.2935l1.3623,0.1689c-0.2148,0.7959-0.6133,1.4131-1.1934,1.8525
				c-0.582,0.4395-1.3242,0.6592-2.2266,0.6592c-1.1387,0-2.04-0.3506-2.707-1.0508c-0.666-0.7012-1-1.6836-1-2.9482
				c0-1.3086,0.3379-2.3242,1.0117-3.0469s1.5469-1.084,2.6211-1.084c1.041,0,1.8906,0.3545,2.5488,1.0615
				c0.6602,0.709,0.9893,1.7051,0.9893,2.9883c0,0.0791-0.0029,0.1963-0.0068,0.3516h-5.8008
				c0.0488,0.8555,0.29,1.5098,0.7246,1.9629c0.4346,0.4551,0.9766,0.6816,1.626,0.6816c0.4834,0,0.8955-0.127,1.2373-0.3809
				S136.1997,37.8501,136.3999,37.2935z M132.0708,35.1616h4.3438c-0.0586-0.6533-0.2246-1.1445-0.498-1.4717
				c-0.4199-0.5078-0.9648-0.7617-1.6328-0.7617c-0.6055,0-1.1152,0.2031-1.5273,0.6084
				C132.3433,33.9419,132.1157,34.4839,132.0708,35.1616z"/>
			<path fill="#603813" d="M139.4175,39.7983V32.02h1.1787v1.0908c0.2441-0.3809,0.5693-0.6865,0.9746-0.9189
				c0.4053-0.2314,0.8672-0.3477,1.3848-0.3477c0.5762,0,1.0479,0.1201,1.416,0.3584c0.3691,0.2402,0.6289,0.5742,0.7813,1.0039
				c0.6152-0.9082,1.416-1.3623,2.4023-1.3623c0.7715,0,1.3643,0.2139,1.7793,0.6406c0.415,0.4277,0.623,1.0859,0.623,1.9736v5.3398
				h-1.3115v-4.9004c0-0.5273-0.043-0.9063-0.1279-1.1387c-0.0859-0.2314-0.2402-0.418-0.4648-0.5605
				c-0.2246-0.1406-0.4883-0.2119-0.791-0.2119c-0.5469,0-1.002,0.1816-1.3633,0.5459c-0.3613,0.3633-0.541,0.9463-0.541,1.7461
				v4.5195h-1.3184v-5.0537c0-0.5859-0.1074-1.0254-0.3223-1.3184s-0.5664-0.4395-1.0547-0.4395
				c-0.3711,0-0.7148,0.0977-1.0293,0.293s-0.543,0.4814-0.6855,0.8564c-0.1406,0.377-0.2119,0.9189-0.2119,1.627v4.0352H139.4175z"
				/>
			<path fill="#603813" d="M156.9888,38.8394c-0.4883,0.415-0.959,0.708-1.4102,0.8789c-0.4521,0.1699-0.9365,0.2559-1.4541,0.2559
				c-0.8545,0-1.5107-0.209-1.9697-0.626c-0.459-0.418-0.6895-0.9512-0.6895-1.6006c0-0.3809,0.0869-0.7285,0.2598-1.0439
				c0.1738-0.3145,0.4004-0.5674,0.6816-0.7578s0.5977-0.334,0.9492-0.4326c0.2578-0.0674,0.6484-0.1338,1.1719-0.1973
				c1.0645-0.127,1.8477-0.2783,2.3506-0.4541c0.0049-0.1807,0.0068-0.2949,0.0068-0.3447c0-0.5361-0.124-0.915-0.373-1.1348
				c-0.3369-0.2979-0.8379-0.4473-1.502-0.4473c-0.6191,0-1.0781,0.1094-1.373,0.3262c-0.2949,0.2178-0.5137,0.6025-0.6553,1.1543
				l-1.2891-0.1758c0.1172-0.5518,0.3096-0.998,0.5791-1.3369c0.2676-0.3398,0.6563-0.6006,1.1641-0.7842
				c0.5078-0.1826,1.0957-0.2744,1.7656-0.2744c0.6641,0,1.2031,0.0781,1.6182,0.2344s0.7197,0.3525,0.915,0.5898
				c0.1953,0.2363,0.332,0.5361,0.4102,0.8975c0.0449,0.2246,0.0664,0.6289,0.0664,1.2148v1.7578
				c0,1.2266,0.0273,2.001,0.084,2.3262c0.0566,0.3242,0.168,0.6357,0.334,0.9336h-1.377
				C157.1157,39.5249,157.0278,39.2046,156.9888,38.8394z M156.8784,35.894c-0.4785,0.1963-1.1963,0.3623-2.1533,0.498
				c-0.542,0.0791-0.9258,0.167-1.1504,0.2637c-0.2246,0.0986-0.3975,0.2412-0.5195,0.4287
				c-0.1221,0.1885-0.1836,0.3975-0.1836,0.626c0,0.3516,0.1328,0.6445,0.4004,0.8789c0.2656,0.2344,0.6543,0.3516,1.168,0.3516
				c0.5078,0,0.959-0.1104,1.3545-0.333c0.3955-0.2217,0.6865-0.5254,0.8721-0.9111c0.1406-0.2979,0.2119-0.7373,0.2119-1.3184
				V35.894z"/>
			<path fill="#603813" d="M163.936,37.4761l1.3037-0.2051c0.0732,0.5234,0.2764,0.9238,0.6123,1.2012
				c0.334,0.2793,0.8008,0.418,1.4023,0.418c0.6055,0,1.0547-0.123,1.3477-0.3701c0.293-0.2461,0.4395-0.5352,0.4395-0.8682
				c0-0.2969-0.1299-0.5313-0.3887-0.7031c-0.1807-0.1172-0.6299-0.2656-1.3477-0.4463c-0.9668-0.2441-1.6367-0.4551-2.0098-0.6338
				c-0.375-0.1777-0.6582-0.4248-0.8496-0.7393c-0.1934-0.3154-0.29-0.6631-0.29-1.0439c0-0.3467,0.0791-0.668,0.2373-0.9629
				c0.1592-0.2959,0.375-0.541,0.6484-0.7363c0.2051-0.1514,0.4844-0.2793,0.8398-0.3848c0.3535-0.1045,0.7324-0.1572,1.1387-0.1572
				c0.6094,0,1.1465,0.0879,1.6074,0.2637s0.8018,0.4141,1.0215,0.7139c0.2197,0.3008,0.3711,0.7021,0.4541,1.2051l-1.2891,0.1758
				c-0.0586-0.4004-0.2285-0.7129-0.5088-0.9375c-0.2813-0.2246-0.6777-0.3369-1.1904-0.3369c-0.6055,0-1.0381,0.1006-1.2959,0.2998
				c-0.2598,0.2012-0.3887,0.4355-0.3887,0.7031c0,0.1719,0.0537,0.3252,0.1611,0.4619c0.1074,0.1416,0.2764,0.2588,0.5049,0.3516
				c0.1328,0.0488,0.5205,0.1611,1.165,0.3369c0.9326,0.249,1.583,0.4531,1.9521,0.6113c0.3682,0.1592,0.6582,0.3896,0.8672,0.6924
				c0.2109,0.3027,0.3154,0.6787,0.3154,1.1279c0,0.4395-0.1279,0.8535-0.3838,1.2412c-0.2578,0.3887-0.627,0.6885-1.1104,0.9014
				c-0.4834,0.2119-1.0303,0.3184-1.6406,0.3184c-1.0107,0-1.7813-0.21-2.3115-0.6299
				C164.4204,38.9243,164.0825,38.3022,163.936,37.4761z"/>
			<path fill="#603813" d="M177.2876,37.2935l1.3633,0.1689c-0.2148,0.7959-0.6133,1.4131-1.1943,1.8525
				s-1.3232,0.6592-2.2266,0.6592c-1.1377,0-2.04-0.3506-2.7061-1.0508c-0.666-0.7012-1-1.6836-1-2.9482
				c0-1.3086,0.3369-2.3242,1.0107-3.0469s1.5479-1.084,2.6221-1.084c1.04,0,1.8896,0.3545,2.5488,1.0615
				c0.6592,0.709,0.9883,1.7051,0.9883,2.9883c0,0.0791-0.002,0.1963-0.0068,0.3516h-5.8008
				c0.0488,0.8555,0.29,1.5098,0.7256,1.9629c0.4336,0.4551,0.9766,0.6816,1.625,0.6816c0.4844,0,0.8965-0.127,1.2383-0.3809
				S177.0884,37.8501,177.2876,37.2935z M172.9595,35.1616h4.3438c-0.0586-0.6533-0.2246-1.1445-0.498-1.4717
				c-0.4199-0.5078-0.9648-0.7617-1.6338-0.7617c-0.6055,0-1.1143,0.2031-1.5264,0.6084
				C173.231,33.9419,173.0034,34.4839,172.9595,35.1616z"/>
			<path fill="#603813" d="M16.8081,57.7979v-0.9805c-0.4932,0.7715-1.2183,1.1563-2.1753,1.1563
				c-0.6201,0-1.1899-0.1699-1.7104-0.5117c-0.5195-0.3418-0.9229-0.8203-1.208-1.4321c-0.2861-0.6133-0.4287-1.3174-0.4287-2.1133
				c0-0.7764,0.1294-1.4805,0.3882-2.1133c0.2588-0.6318,0.647-1.1162,1.1646-1.4541c0.5176-0.3359,1.0962-0.5049,1.7358-0.5049
				c0.4688,0,0.8862,0.0986,1.2524,0.2969c0.3662,0.1973,0.6641,0.4551,0.8936,0.7725V47.061h1.311v10.7368H16.8081z
				 M12.6406,53.9165c0,0.9961,0.21,1.7412,0.6299,2.2334c0.4199,0.4937,0.9155,0.7397,1.4868,0.7397
				c0.5762,0,1.0654-0.2344,1.4688-0.7065c0.4023-0.4707,0.604-1.1895,0.604-2.1563c0-1.0645-0.2051-1.8457-0.6152-2.3438
				s-0.9155-0.748-1.5161-0.748c-0.5859,0-1.0757,0.2402-1.4688,0.7188S12.6406,52.8862,12.6406,53.9165z"/>
			<path fill="#603813" d="M20.1113,48.5776V47.061h1.3184v1.5166H20.1113z M20.1113,57.7979V50.02h1.3184v7.7778H20.1113z"/>
			<path fill="#603813" d="M22.9092,55.4761l1.3037-0.2051c0.0732,0.5234,0.2769,0.9238,0.6118,1.2007
				c0.334,0.2793,0.8018,0.418,1.4023,0.418c0.6055,0,1.0547-0.123,1.3477-0.3691s0.4395-0.5356,0.4395-0.8687
				c0-0.2969-0.1294-0.5313-0.3882-0.7031c-0.1807-0.1172-0.6299-0.2656-1.3477-0.4463c-0.9668-0.2441-1.6372-0.4551-2.0103-0.6338
				c-0.374-0.1777-0.6572-0.4248-0.8496-0.7393c-0.1934-0.3154-0.2896-0.6631-0.2896-1.0439c0-0.3467,0.0791-0.668,0.2378-0.9629
				c0.1587-0.2959,0.375-0.541,0.6484-0.7363c0.2051-0.1514,0.4844-0.2793,0.8389-0.3848c0.3535-0.1045,0.7334-0.1572,1.1387-0.1572
				c0.6104,0,1.1465,0.0879,1.6074,0.2637c0.4619,0.1758,0.8022,0.4141,1.022,0.7139c0.2197,0.3008,0.3711,0.7021,0.4541,1.2051
				l-1.2891,0.1758c-0.0586-0.4004-0.2285-0.7129-0.5093-0.9375s-0.6772-0.3369-1.1899-0.3369
				c-0.6055,0-1.0376,0.1006-1.2964,0.2998c-0.2588,0.2012-0.3882,0.4355-0.3882,0.7031c0,0.1719,0.0537,0.3252,0.1611,0.4619
				c0.1074,0.1416,0.2759,0.2588,0.5054,0.3516c0.1318,0.0488,0.52,0.1611,1.1646,0.3369c0.9326,0.249,1.583,0.4531,1.9517,0.6113
				c0.3687,0.1592,0.6582,0.3896,0.8682,0.6924s0.3149,0.6787,0.3149,1.1279c0,0.4395-0.1284,0.853-0.3843,1.2417
				c-0.2568,0.3887-0.6265,0.6875-1.1099,0.9004s-1.0303,0.3184-1.6406,0.3184c-1.0107,0-1.7813-0.209-2.311-0.6289
				S23.0557,56.3018,22.9092,55.4761z"/>
			<path fill="#603813" d="M36.2612,55.2935l1.3623,0.1689c-0.2148,0.7964-0.6128,1.4136-1.1938,1.853s-1.3232,0.6582-2.2266,0.6582
				c-1.1377,0-2.0396-0.3496-2.7065-1.0508c-0.666-0.7007-0.9995-1.6831-0.9995-2.9478c0-1.3086,0.3369-2.3242,1.0107-3.0469
				s1.5479-1.084,2.6221-1.084c1.04,0,1.8896,0.3545,2.5488,1.0615c0.6592,0.709,0.9888,1.7051,0.9888,2.9883
				c0,0.0791-0.0024,0.1963-0.0073,0.3516h-5.8008c0.0488,0.8555,0.2905,1.5098,0.7251,1.9629
				c0.4346,0.4546,0.9766,0.6812,1.626,0.6812c0.4834,0,0.896-0.127,1.2378-0.3809S36.061,55.8501,36.2612,55.2935z
				 M31.9326,53.1616h4.3433c-0.0586-0.6533-0.2246-1.1445-0.498-1.4717c-0.4199-0.5078-0.9644-0.7617-1.6333-0.7617
				c-0.6055,0-1.1147,0.2031-1.5269,0.6084C32.2046,51.9419,31.9766,52.4839,31.9326,53.1616z"/>
			<path fill="#603813" d="M39.2788,57.7979V50.02h1.1865v1.1064c0.5713-0.8545,1.3965-1.2822,2.4756-1.2822
				c0.4688,0,0.8994,0.084,1.2925,0.2529c0.3931,0.168,0.6875,0.3896,0.8828,0.6621c0.1953,0.2744,0.332,0.5986,0.4102,0.9746
				c0.0488,0.2441,0.0732,0.6719,0.0732,1.2813v4.7827h-1.3184v-4.731c0-0.5371-0.0513-0.9385-0.1538-1.2051
				c-0.1025-0.2656-0.2847-0.4785-0.5454-0.6367c-0.2617-0.1592-0.5679-0.2383-0.9194-0.2383c-0.5615,0-1.0464,0.1787-1.4536,0.5342
				c-0.4082,0.3574-0.6118,1.0332-0.6118,2.0293v4.2476H39.2788z M40.209,48.8706c-0.0049-0.5078,0.1343-0.9131,0.4175-1.2168
				c0.2783-0.3018,0.6348-0.4531,1.0693-0.4531c0.3027,0,0.7153,0.1309,1.2378,0.3945c0.2881,0.1465,0.5176,0.2207,0.6885,0.2207
				c0.1563,0,0.2759-0.043,0.3589-0.1289c0.083-0.085,0.1416-0.2549,0.1758-0.5088h0.9521
				c-0.0146,0.5566-0.1553,0.9736-0.4214,1.2529c-0.2661,0.2773-0.604,0.417-1.0142,0.417c-0.3076,0-0.7129-0.1367-1.2158-0.4102
				c-0.3271-0.1758-0.5664-0.2637-0.7178-0.2637c-0.166,0-0.3003,0.0586-0.4028,0.1758c-0.1074,0.1172-0.1587,0.291-0.1538,0.5205
				H40.209z"/>
			<path fill="#603813" d="M52.6968,56.8389c-0.4883,0.416-0.9585,0.709-1.4102,0.8789s-0.936,0.2559-1.4536,0.2559
				c-0.8545,0-1.5112-0.209-1.9702-0.625c-0.459-0.418-0.6885-0.9512-0.6885-1.6011c0-0.3809,0.0864-0.7285,0.2598-1.0439
				c0.1733-0.3145,0.4004-0.5674,0.6816-0.7578c0.2803-0.1904,0.5967-0.334,0.9482-0.4326
				c0.2588-0.0674,0.6494-0.1338,1.1719-0.1973c1.0645-0.127,1.8481-0.2783,2.3511-0.4541
				c0.0049-0.1807,0.0073-0.2949,0.0073-0.3447c0-0.5361-0.1245-0.915-0.3735-1.1348c-0.3369-0.2979-0.8374-0.4473-1.5015-0.4473
				c-0.6201,0-1.0781,0.1094-1.373,0.3262c-0.2959,0.2178-0.5142,0.6025-0.6558,1.1543l-1.2891-0.1758
				c0.1172-0.5518,0.3101-0.998,0.5786-1.3369c0.2686-0.3398,0.6567-0.6006,1.1646-0.7842
				c0.5078-0.1826,1.0962-0.2744,1.7651-0.2744c0.6641,0,1.2036,0.0781,1.6187,0.2344s0.7202,0.3525,0.9155,0.5898
				c0.1953,0.2363,0.332,0.5361,0.4102,0.8975c0.0439,0.2246,0.0659,0.6289,0.0659,1.2148v1.7578
				c0,1.2266,0.0278,2.0015,0.0845,2.3257c0.0557,0.3242,0.167,0.6367,0.333,0.9336h-1.377
				C52.8237,57.5244,52.7358,57.2041,52.6968,56.8389z M52.5869,53.894c-0.4785,0.1963-1.1963,0.3623-2.1533,0.498
				c-0.542,0.0791-0.9253,0.167-1.1499,0.2637c-0.2246,0.0986-0.3979,0.2412-0.52,0.4287c-0.1221,0.1885-0.1831,0.3975-0.1831,0.626
				c0,0.3516,0.1328,0.644,0.3994,0.8784c0.2656,0.2344,0.6553,0.3516,1.168,0.3516c0.5078,0,0.9595-0.1094,1.355-0.332
				s0.686-0.5259,0.8716-0.9116c0.1416-0.2979,0.2124-0.7373,0.2124-1.3184V53.894z"/>
			<path fill="#603813" d="M64.8325,60.7939l-0.1465-1.2383c0.2881,0.0781,0.5396,0.1172,0.7544,0.1172
				c0.293,0,0.5273-0.0488,0.7031-0.1465s0.3198-0.2344,0.4321-0.4102c0.083-0.1309,0.2173-0.459,0.4028-0.9805
				c0.0244-0.0742,0.0635-0.1816,0.1172-0.3223L64.144,50.02h1.4209l1.6187,4.5049c0.21,0.5703,0.3979,1.1719,0.564,1.8003
				c0.1514-0.604,0.332-1.1948,0.542-1.771l1.6626-4.5342h1.3184l-2.959,7.9106c-0.3174,0.8535-0.564,1.4414-0.7397,1.7637
				c-0.2344,0.4355-0.5029,0.7539-0.8057,0.957s-0.6641,0.3027-1.084,0.3027C65.4282,60.9541,65.145,60.9014,64.8325,60.7939z"/>
			<path fill="#603813" d="M86.3657,57.7979v-0.9805c-0.4932,0.7715-1.2183,1.1563-2.1753,1.1563
				c-0.6201,0-1.1899-0.1699-1.7104-0.5117c-0.5195-0.3418-0.9229-0.8203-1.208-1.4321c-0.2861-0.6133-0.4287-1.3174-0.4287-2.1133
				c0-0.7764,0.1294-1.4805,0.3882-2.1133c0.2588-0.6318,0.647-1.1162,1.1646-1.4541c0.5176-0.3359,1.0962-0.5049,1.7358-0.5049
				c0.4688,0,0.8862,0.0986,1.2524,0.2969c0.3662,0.1973,0.6641,0.4551,0.8936,0.7725V47.061h1.311v10.7368H86.3657z
				 M82.1982,53.9165c0,0.9961,0.21,1.7412,0.6299,2.2334c0.4199,0.4937,0.9155,0.7397,1.4868,0.7397
				c0.5762,0,1.0654-0.2344,1.4688-0.7065c0.4023-0.4707,0.604-1.1895,0.604-2.1563c0-1.0645-0.2051-1.8457-0.6152-2.3438
				s-0.9155-0.748-1.5161-0.748c-0.5859,0-1.0757,0.2402-1.4688,0.7188S82.1982,52.8862,82.1982,53.9165z"/>
			<path fill="#603813" d="M89.1709,53.9097c0-1.4404,0.4004-2.5078,1.2012-3.2012c0.6689-0.5762,1.4844-0.8643,2.4468-0.8643
				c1.0684,0,1.9434,0.3506,2.6211,1.0508c0.6797,0.7012,1.0186,1.6689,1.0186,2.9043c0,1.001-0.1494,1.7881-0.4502,2.3623
				c-0.3008,0.5737-0.7383,1.019-1.3105,1.3354c-0.5742,0.3184-1.2012,0.4766-1.8789,0.4766c-1.0894,0-1.9697-0.3477-2.6411-1.0469
				C89.5063,56.229,89.1709,55.2231,89.1709,53.9097z M90.5259,53.9097c0,0.9961,0.2173,1.7412,0.6519,2.2373
				c0.4346,0.4946,0.9814,0.7427,1.6411,0.7427c0.6543,0,1.1982-0.248,1.6328-0.7466c0.4346-0.498,0.6523-1.2568,0.6523-2.2783
				c0-0.9609-0.2188-1.6904-0.6563-2.1855c-0.4375-0.4961-0.9805-0.7441-1.6289-0.7441c-0.6597,0-1.2065,0.2471-1.6411,0.7402
				S90.5259,52.9136,90.5259,53.9097z"/>
			<path fill="#603813" d="M103.0796,54.9487l1.2959,0.1689c-0.1406,0.8936-0.5039,1.5923-1.0869,2.0981
				c-0.584,0.5059-1.2998,0.7578-2.1494,0.7578c-1.0645,0-1.9209-0.3477-2.5674-1.043c-0.6475-0.6953-0.9707-1.6929-0.9707-2.9917
				c0-0.8398,0.1396-1.5752,0.417-2.2051c0.2793-0.6299,0.7021-1.1025,1.2715-1.417c0.5684-0.3154,1.1875-0.4727,1.8564-0.4727
				c0.8447,0,1.5361,0.2139,2.0732,0.6406c0.5371,0.4277,0.8809,1.0342,1.0322,1.8203l-1.2822,0.1982
				c-0.1211-0.5225-0.3379-0.916-0.6475-1.1797c-0.3105-0.2637-0.6846-0.3955-1.124-0.3955c-0.6641,0-1.2041,0.2383-1.6191,0.7139
				c-0.415,0.4766-0.623,1.2295-0.623,2.2598c0,1.0449,0.2012,1.8047,0.6016,2.2773c0.4004,0.4741,0.9219,0.7104,1.5664,0.7104
				c0.5176,0,0.9502-0.1582,1.2969-0.4766C102.7671,56.0972,102.9868,55.6089,103.0796,54.9487z"/>
			<path fill="#603813" d="M110.6021,57.7979v-1.1426c-0.6055,0.8789-1.4287,1.3184-2.4688,1.3184
				c-0.459,0-0.8877-0.0879-1.2852-0.2637c-0.3984-0.1758-0.6934-0.3965-0.8867-0.6621s-0.3281-0.5918-0.4063-0.978
				c-0.0537-0.2588-0.0801-0.6689-0.0801-1.2305V50.02h1.3184v4.3135c0,0.6895,0.0264,1.1533,0.0801,1.3926
				c0.083,0.3467,0.2588,0.6187,0.5273,0.8159s0.6006,0.2969,0.9961,0.2969s0.7666-0.1016,1.1133-0.3047
				c0.3467-0.2012,0.5918-0.478,0.7363-0.8267c0.1436-0.3496,0.2158-0.8555,0.2158-1.5205V50.02h1.3184v7.7778H110.6021z"/>
			<path fill="#603813" d="M113.8462,57.7979V50.02h1.1797v1.0908c0.2441-0.3809,0.5684-0.6865,0.9736-0.9189
				c0.4053-0.2314,0.8662-0.3477,1.3838-0.3477c0.5762,0,1.0488,0.1201,1.418,0.3584c0.3682,0.2402,0.6289,0.5742,0.7793,1.0039
				c0.6152-0.9082,1.416-1.3623,2.4023-1.3623c0.7715,0,1.3652,0.2139,1.7803,0.6406c0.415,0.4277,0.6221,1.0859,0.6221,1.9736
				v5.3394h-1.3105v-4.8999c0-0.5273-0.043-0.9063-0.1289-1.1387c-0.085-0.2314-0.2402-0.418-0.4648-0.5605
				c-0.2246-0.1406-0.4883-0.2119-0.791-0.2119c-0.5469,0-1,0.1816-1.3613,0.5459c-0.3613,0.3633-0.543,0.9463-0.543,1.7461v4.519
				h-1.3184v-5.0532c0-0.5859-0.1074-1.0254-0.3223-1.3184s-0.5664-0.4395-1.0547-0.4395c-0.3711,0-0.7129,0.0977-1.0293,0.293
				c-0.3145,0.1953-0.543,0.4814-0.6836,0.8564c-0.1426,0.377-0.2129,0.9189-0.2129,1.627v4.0347H113.8462z"/>
			<path fill="#603813" d="M131.6665,55.2935l1.3613,0.1689c-0.2148,0.7964-0.6123,1.4136-1.1934,1.853
				s-1.3232,0.6582-2.2266,0.6582c-1.1377,0-2.0391-0.3496-2.707-1.0508c-0.666-0.7007-0.999-1.6831-0.999-2.9478
				c0-1.3086,0.3369-2.3242,1.0107-3.0469s1.5479-1.084,2.6221-1.084c1.04,0,1.8896,0.3545,2.5488,1.0615
				c0.6592,0.709,0.9893,1.7051,0.9893,2.9883c0,0.0791-0.0029,0.1963-0.0078,0.3516h-5.8008
				c0.0488,0.8555,0.291,1.5098,0.7246,1.9629c0.4355,0.4546,0.9766,0.6812,1.627,0.6812c0.4824,0,0.8955-0.127,1.2373-0.3809
				S131.4653,55.8501,131.6665,55.2935z M127.3374,53.1616h4.3428c-0.0586-0.6533-0.2246-1.1445-0.498-1.4717
				c-0.4199-0.5078-0.9639-0.7617-1.6328-0.7617c-0.6055,0-1.1152,0.2031-1.5273,0.6084S127.3813,52.4839,127.3374,53.1616z"/>
			<path fill="#603813" d="M134.6841,57.7979V50.02h1.1855v1.1064c0.5723-0.8545,1.3965-1.2822,2.4766-1.2822
				c0.4688,0,0.8984,0.084,1.292,0.2529c0.3936,0.168,0.6875,0.3896,0.8828,0.6621c0.1953,0.2744,0.332,0.5986,0.4102,0.9746
				c0.0488,0.2441,0.0732,0.6719,0.0732,1.2813v4.7827h-1.3184v-4.731c0-0.5371-0.0508-0.9385-0.1543-1.2051
				c-0.1016-0.2656-0.2842-0.4785-0.5449-0.6367c-0.2617-0.1592-0.5684-0.2383-0.9199-0.2383c-0.5605,0-1.0459,0.1787-1.4531,0.5342
				c-0.4082,0.3574-0.6113,1.0332-0.6113,2.0293v4.2476H134.6841z"/>
			<path fill="#603813" d="M145.9048,56.6182l0.1895,1.166c-0.3711,0.0781-0.7031,0.1172-0.9961,0.1172
				c-0.4785,0-0.8496-0.0762-1.1133-0.2285c-0.2637-0.1504-0.4492-0.3496-0.5566-0.5957s-0.1602-0.7656-0.1602-1.5562v-4.4756
				h-0.9668V50.02h0.9668v-1.9268l1.3105-0.791V50.02h1.3262v1.0254h-1.3262v4.5479c0,0.377,0.0234,0.6182,0.0703,0.7261
				c0.0449,0.1074,0.1211,0.1934,0.2266,0.2559c0.1045,0.0645,0.2549,0.0957,0.4502,0.0957
				C145.4722,56.6709,145.6646,56.6533,145.9048,56.6182z"/>
			<path fill="#603813" d="M152.269,56.8389c-0.4883,0.416-0.958,0.709-1.4102,0.8789s-0.9365,0.2559-1.4541,0.2559
				c-0.8535,0-1.5107-0.209-1.9697-0.625c-0.459-0.418-0.6885-0.9512-0.6885-1.6011c0-0.3809,0.0859-0.7285,0.2598-1.0439
				c0.1738-0.3145,0.4004-0.5674,0.6816-0.7578c0.2803-0.1904,0.5967-0.334,0.9482-0.4326
				c0.2588-0.0674,0.6494-0.1338,1.1719-0.1973c1.0645-0.127,1.8486-0.2783,2.3506-0.4541
				c0.0059-0.1807,0.0078-0.2949,0.0078-0.3447c0-0.5361-0.125-0.915-0.373-1.1348c-0.3379-0.2979-0.8379-0.4473-1.502-0.4473
				c-0.6201,0-1.0781,0.1094-1.373,0.3262c-0.2959,0.2178-0.5137,0.6025-0.6563,1.1543l-1.2891-0.1758
				c0.1172-0.5518,0.3105-0.998,0.5791-1.3369c0.2686-0.3398,0.6572-0.6006,1.165-0.7842c0.5078-0.1826,1.0957-0.2744,1.7646-0.2744
				c0.6641,0,1.2041,0.0781,1.6182,0.2344c0.416,0.1563,0.7207,0.3525,0.916,0.5898c0.1953,0.2363,0.332,0.5361,0.4102,0.8975
				c0.0439,0.2246,0.0664,0.6289,0.0664,1.2148v1.7578c0,1.2266,0.0273,2.0015,0.084,2.3257
				c0.0557,0.3242,0.167,0.6367,0.333,0.9336h-1.377C152.396,57.5244,152.3081,57.2041,152.269,56.8389z M152.1587,53.894
				c-0.4785,0.1963-1.1953,0.3623-2.1523,0.498c-0.543,0.0791-0.9258,0.167-1.1504,0.2637
				c-0.2246,0.0986-0.3984,0.2412-0.5195,0.4287c-0.123,0.1885-0.1836,0.3975-0.1836,0.626c0,0.3516,0.1328,0.644,0.3994,0.8784
				c0.2656,0.2344,0.6553,0.3516,1.168,0.3516c0.5078,0,0.96-0.1094,1.3545-0.332c0.3965-0.2227,0.6865-0.5259,0.8721-0.9116
				c0.1416-0.2979,0.2119-0.7373,0.2119-1.3184V53.894z"/>
			<path fill="#603813" d="M163.936,55.4761l1.3037-0.2051c0.0732,0.5234,0.2764,0.9238,0.6123,1.2007
				c0.334,0.2793,0.8008,0.418,1.4023,0.418c0.6055,0,1.0547-0.123,1.3477-0.3691s0.4395-0.5356,0.4395-0.8687
				c0-0.2969-0.1299-0.5313-0.3887-0.7031c-0.1807-0.1172-0.6299-0.2656-1.3477-0.4463c-0.9668-0.2441-1.6367-0.4551-2.0098-0.6338
				c-0.375-0.1777-0.6582-0.4248-0.8496-0.7393c-0.1934-0.3154-0.29-0.6631-0.29-1.0439c0-0.3467,0.0791-0.668,0.2373-0.9629
				c0.1592-0.2959,0.375-0.541,0.6484-0.7363c0.2051-0.1514,0.4844-0.2793,0.8398-0.3848c0.3535-0.1045,0.7324-0.1572,1.1387-0.1572
				c0.6094,0,1.1465,0.0879,1.6074,0.2637s0.8018,0.4141,1.0215,0.7139c0.2197,0.3008,0.3711,0.7021,0.4541,1.2051l-1.2891,0.1758
				c-0.0586-0.4004-0.2285-0.7129-0.5088-0.9375c-0.2813-0.2246-0.6777-0.3369-1.1904-0.3369c-0.6055,0-1.0381,0.1006-1.2959,0.2998
				c-0.2598,0.2012-0.3887,0.4355-0.3887,0.7031c0,0.1719,0.0537,0.3252,0.1611,0.4619c0.1074,0.1416,0.2764,0.2588,0.5049,0.3516
				c0.1328,0.0488,0.5205,0.1611,1.165,0.3369c0.9326,0.249,1.583,0.4531,1.9521,0.6113c0.3682,0.1592,0.6582,0.3896,0.8672,0.6924
				c0.2109,0.3027,0.3154,0.6787,0.3154,1.1279c0,0.4395-0.1279,0.853-0.3838,1.2417c-0.2578,0.3887-0.627,0.6875-1.1104,0.9004
				s-1.0303,0.3184-1.6406,0.3184c-1.0107,0-1.7813-0.209-2.3115-0.6289C164.4204,56.9248,164.0825,56.3018,163.936,55.4761z"/>
			<path fill="#603813" d="M177.061,57.7979v-1.1426c-0.6055,0.8789-1.4277,1.3184-2.4688,1.3184
				c-0.459,0-0.8867-0.0879-1.2852-0.2637s-0.6934-0.3965-0.8867-0.6621c-0.1924-0.2656-0.3281-0.5918-0.4063-0.978
				c-0.0527-0.2588-0.0801-0.6689-0.0801-1.2305V50.02h1.3184v4.3135c0,0.6895,0.0273,1.1533,0.0801,1.3926
				c0.084,0.3467,0.2598,0.6187,0.5273,0.8159c0.2695,0.1973,0.6016,0.2969,0.9961,0.2969c0.3965,0,0.7676-0.1016,1.1133-0.3047
				c0.3477-0.2012,0.5918-0.478,0.7363-0.8267c0.1445-0.3496,0.2168-0.8555,0.2168-1.5205V50.02h1.3184v7.7778H177.061z"/>
			<path fill="#603813" d="M11.769,66.5771v-1.5156h1.3184v1.5156H11.769z M11.769,75.7979v-7.7773h1.3184v7.7773H11.769z"/>
			<path fill="#603813" d="M15.0942,75.7979v-7.7773h1.1865v1.1055c0.5713-0.8535,1.3965-1.2813,2.4756-1.2813
				c0.4688,0,0.8994,0.084,1.2925,0.252s0.6875,0.3906,0.8828,0.6621c0.1953,0.2754,0.332,0.5996,0.4102,0.9746
				c0.0488,0.2441,0.0732,0.6719,0.0732,1.2813v4.7832h-1.3184v-4.7305c0-0.5371-0.0513-0.9395-0.1538-1.2051
				s-0.2847-0.4785-0.5454-0.6367c-0.2617-0.1602-0.5679-0.2383-0.9194-0.2383c-0.5615,0-1.0464,0.1777-1.4536,0.5332
				c-0.4082,0.3574-0.6118,1.0332-0.6118,2.0293v4.248H15.0942z"/>
			<path fill="#603813" d="M26.3149,74.6182l0.1904,1.166c-0.3711,0.0781-0.7031,0.1172-0.9961,0.1172
				c-0.4785,0-0.8496-0.0762-1.1133-0.2285c-0.2637-0.1504-0.4492-0.3496-0.5566-0.5957s-0.1611-0.7656-0.1611-1.5566v-4.4746
				h-0.9668v-1.0254h0.9668v-1.9277l1.311-0.791v2.7188h1.3257v1.0254h-1.3257v4.5469c0,0.377,0.0229,0.6191,0.0698,0.7266
				c0.0459,0.1074,0.1216,0.1934,0.2266,0.2559c0.105,0.0645,0.2554,0.0957,0.4507,0.0957
				C25.8828,74.6709,26.0757,74.6533,26.3149,74.6182z"/>
			<path fill="#603813" d="M32.9287,73.2939l1.3623,0.168c-0.2148,0.7969-0.6128,1.4141-1.1938,1.8535s-1.3232,0.6582-2.2266,0.6582
				c-1.1377,0-2.0396-0.3496-2.7065-1.0508c-0.666-0.7012-0.9995-1.6836-0.9995-2.9473c0-1.3086,0.3369-2.3242,1.0107-3.0469
				s1.5479-1.084,2.6221-1.084c1.04,0,1.8896,0.3535,2.5488,1.0605c0.6592,0.709,0.9888,1.7051,0.9888,2.9883
				c0,0.0801-0.0024,0.1973-0.0073,0.3516h-5.8008c0.0488,0.8555,0.2905,1.5098,0.7251,1.9629
				c0.4346,0.4551,0.9766,0.6816,1.626,0.6816c0.4834,0,0.896-0.127,1.2378-0.3809S32.7285,73.8506,32.9287,73.2939z
				 M28.6001,71.1611h4.3433c-0.0586-0.6523-0.2246-1.1445-0.498-1.4707c-0.4199-0.5078-0.9644-0.7617-1.6333-0.7617
				c-0.6055,0-1.1147,0.2031-1.5269,0.6074C28.8721,69.9424,28.644,70.4834,28.6001,71.1611z"/>
			<path fill="#603813" d="M35.9316,75.7979v-7.7773h1.1865v1.1777c0.3027-0.5508,0.5825-0.9141,0.8384-1.0898
				c0.2568-0.1758,0.5386-0.2637,0.8462-0.2637c0.4443,0,0.896,0.1406,1.355,0.4238l-0.4541,1.2227
				c-0.3223-0.1895-0.6445-0.2852-0.9668-0.2852c-0.2881,0-0.5469,0.0879-0.7764,0.2598c-0.2295,0.1738-0.3931,0.4141-0.4907,0.7227
				c-0.1465,0.4688-0.2197,0.9805-0.2197,1.5371v4.0723H35.9316z"/>
			<path fill="#603813" d="M41.2563,75.7979v-6.752h-1.1646v-1.0254h1.1646v-0.8281c0-0.5215,0.0464-0.9102,0.1392-1.1641
				c0.127-0.3418,0.3501-0.6191,0.6704-0.832c0.3193-0.2129,0.7676-0.3184,1.3438-0.3184c0.3711,0,0.7813,0.043,1.2305,0.1309
				l-0.1978,1.1504c-0.2734-0.0488-0.5322-0.0723-0.7764-0.0723c-0.4004,0-0.6836,0.0859-0.8496,0.2559
				c-0.166,0.1719-0.249,0.4902-0.249,0.959v0.7188h1.5161v1.0254h-1.5161v6.752H41.2563z"/>
			<path fill="#603813" d="M50.1846,74.8389c-0.4883,0.416-0.9585,0.709-1.4102,0.8789s-0.936,0.2559-1.4536,0.2559
				c-0.8545,0-1.5112-0.209-1.9702-0.625c-0.459-0.418-0.6885-0.9512-0.6885-1.6016c0-0.3809,0.0864-0.7285,0.2598-1.043
				s0.4004-0.5684,0.6816-0.7578c0.2803-0.1914,0.5967-0.334,0.9482-0.4336c0.2588-0.0664,0.6494-0.1328,1.1719-0.1973
				c1.0645-0.127,1.8481-0.2773,2.3511-0.4531c0.0049-0.1816,0.0073-0.2949,0.0073-0.3457c0-0.5352-0.1245-0.9141-0.3735-1.1348
				c-0.3369-0.2969-0.8374-0.4473-1.5015-0.4473c-0.6201,0-1.0781,0.1094-1.373,0.3262c-0.2959,0.2188-0.5142,0.6035-0.6558,1.1543
				l-1.2891-0.1758c0.1172-0.5508,0.3101-0.998,0.5786-1.3359c0.2686-0.3398,0.6567-0.6016,1.1646-0.7852
				c0.5078-0.1816,1.0962-0.2734,1.7651-0.2734c0.6641,0,1.2036,0.0781,1.6187,0.2344s0.7202,0.3516,0.9155,0.5898
				c0.1953,0.2363,0.332,0.5352,0.4102,0.8965c0.0439,0.2246,0.0659,0.6289,0.0659,1.2148v1.7578
				c0,1.2266,0.0278,2.002,0.0845,2.3262c0.0557,0.3242,0.167,0.6367,0.333,0.9336h-1.377
				C50.3115,75.5244,50.2236,75.2041,50.1846,74.8389z M50.0747,71.8936c-0.4785,0.1973-1.1963,0.3633-2.1533,0.498
				c-0.542,0.0801-0.9253,0.168-1.1499,0.2637c-0.2246,0.0996-0.3979,0.2422-0.52,0.4297s-0.1831,0.3965-0.1831,0.625
				c0,0.3516,0.1328,0.6445,0.3994,0.8789c0.2656,0.2344,0.6553,0.3516,1.168,0.3516c0.5078,0,0.9595-0.1094,1.355-0.332
				s0.686-0.5254,0.8716-0.9121c0.1416-0.2969,0.2124-0.7363,0.2124-1.3184V71.8936z"/>
			<path fill="#603813" d="M52.7554,75.7979v-1.0684l4.9512-5.6836c-0.5615,0.0293-1.0571,0.043-1.4868,0.043h-3.1714v-1.0684
				h6.3574v0.8711l-4.2114,4.9355l-0.813,0.9023c0.5908-0.0449,1.145-0.0664,1.6626-0.0664h3.5962v1.1348H52.7554z"/>
			<path fill="#603813" d="M96.938,72.9482l1.2969,0.1699c-0.1426,0.8926-0.5049,1.5918-1.0879,2.0977
				c-0.584,0.5059-1.3008,0.7578-2.1504,0.7578c-1.0645,0-1.9199-0.3477-2.5664-1.043c-0.6475-0.6953-0.9707-1.6934-0.9707-2.9922
				c0-0.8398,0.1392-1.5742,0.4175-2.2051c0.2783-0.6289,0.7017-1.1016,1.271-1.416c0.5684-0.3164,1.1875-0.4727,1.8564-0.4727
				c0.8447,0,1.5352,0.2129,2.0723,0.6406s0.8818,1.0332,1.0332,1.8203l-1.2813,0.1973c-0.123-0.5215-0.3389-0.916-0.6484-1.1797
				c-0.3105-0.2637-0.6855-0.3945-1.125-0.3945c-0.6641,0-1.2031,0.2383-1.6182,0.7129c-0.415,0.4766-0.6221,1.2305-0.6221,2.2598
				c0,1.0449,0.1992,1.8047,0.5996,2.2773c0.4004,0.4746,0.9238,0.7109,1.5684,0.7109c0.5176,0,0.9492-0.1582,1.2959-0.4766
				C96.6255,74.0967,96.8452,73.6084,96.938,72.9482z"/>
			<path fill="#603813" d="M98.8716,71.9092c0-1.4395,0.4004-2.5078,1.2012-3.2012c0.6689-0.5762,1.4844-0.8633,2.4463-0.8633
				c1.0693,0,1.9434,0.3496,2.6221,1.0508s1.0176,1.668,1.0176,2.9043c0,1-0.1494,1.7871-0.4502,2.3613
				c-0.2998,0.5742-0.7373,1.0195-1.3105,1.3359c-0.5742,0.3184-1.2002,0.4766-1.8789,0.4766c-1.0889,0-1.9697-0.3477-2.6406-1.0469
				C99.2075,74.2295,98.8716,73.2236,98.8716,71.9092z M100.2271,71.9092c0,0.9961,0.2168,1.7422,0.6514,2.2383
				c0.4346,0.4941,0.9814,0.7422,1.6406,0.7422c0.6543,0,1.1982-0.248,1.6338-0.7461c0.4336-0.498,0.6514-1.2578,0.6514-2.2793
				c0-0.9609-0.2188-1.6895-0.6553-2.1855c-0.4375-0.4961-0.9805-0.7441-1.6299-0.7441c-0.6592,0-1.2061,0.248-1.6406,0.7402
				C100.4438,70.1689,100.2271,70.9131,100.2271,71.9092z"/>
			<path fill="#603813" d="M107.7056,75.7979v-7.7773h1.1855v1.1055c0.5723-0.8535,1.3965-1.2813,2.4766-1.2813
				c0.4688,0,0.8984,0.084,1.292,0.252s0.6875,0.3906,0.8828,0.6621c0.1953,0.2754,0.332,0.5996,0.4102,0.9746
				c0.0488,0.2441,0.0732,0.6719,0.0732,1.2813v4.7832h-1.3184v-4.7305c0-0.5371-0.0508-0.9395-0.1543-1.2051
				c-0.1016-0.2656-0.2842-0.4785-0.5449-0.6367c-0.2617-0.1602-0.5684-0.2383-0.9199-0.2383c-0.5605,0-1.0459,0.1777-1.4531,0.5332
				c-0.4082,0.3574-0.6113,1.0332-0.6113,2.0293v4.248H107.7056z"/>
			<path fill="#603813" d="M146.4673,71.9092c0-1.4395,0.4004-2.5078,1.2012-3.2012c0.6699-0.5762,1.4844-0.8633,2.4473-0.8633
				c1.0684,0,1.9434,0.3496,2.6211,1.0508c0.6797,0.7012,1.0186,1.668,1.0186,2.9043c0,1-0.1494,1.7871-0.4502,2.3613
				s-0.7383,1.0195-1.3105,1.3359c-0.5742,0.3184-1.2012,0.4766-1.8789,0.4766c-1.0898,0-1.9697-0.3477-2.6406-1.0469
				C146.8032,74.2295,146.4673,73.2236,146.4673,71.9092z M147.8228,71.9092c0,0.9961,0.2168,1.7422,0.6523,2.2383
				c0.4336,0.4941,0.9805,0.7422,1.6406,0.7422c0.6543,0,1.1982-0.248,1.6328-0.7461s0.6523-1.2578,0.6523-2.2793
				c0-0.9609-0.2188-1.6895-0.6563-2.1855s-0.9805-0.7441-1.6289-0.7441c-0.6602,0-1.207,0.248-1.6406,0.7402
				C148.0396,70.1689,147.8228,70.9131,147.8228,71.9092z"/>
			<path fill="#603813" d="M158.1792,74.6182l0.1904,1.166c-0.3711,0.0781-0.7031,0.1172-0.9961,0.1172
				c-0.4785,0-0.8496-0.0762-1.1133-0.2285c-0.2637-0.1504-0.4492-0.3496-0.5566-0.5957s-0.1611-0.7656-0.1611-1.5566v-4.4746
				h-0.9668v-1.0254h0.9668v-1.9277l1.3115-0.791v2.7188h1.3252v1.0254h-1.3252v4.5469c0,0.377,0.0225,0.6191,0.0693,0.7266
				c0.0459,0.1074,0.1221,0.1934,0.2266,0.2559c0.1045,0.0645,0.2549,0.0957,0.4502,0.0957
				C157.7466,74.6709,157.9399,74.6533,158.1792,74.6182z"/>
			<path fill="#603813" d="M159.4536,75.7979v-7.7773h1.1865v1.1777c0.3027-0.5508,0.583-0.9141,0.8389-1.0898
				s0.5381-0.2637,0.8457-0.2637c0.4443,0,0.8965,0.1406,1.3555,0.4238l-0.4551,1.2227c-0.3223-0.1895-0.6445-0.2852-0.9668-0.2852
				c-0.2871,0-0.5469,0.0879-0.7754,0.2598c-0.2305,0.1738-0.3936,0.4141-0.4912,0.7227c-0.1465,0.4688-0.2197,0.9805-0.2197,1.5371
				v4.0723H159.4536z"/>
			<path fill="#603813" d="M163.9731,71.9092c0-1.4395,0.4004-2.5078,1.2012-3.2012c0.668-0.5762,1.4844-0.8633,2.4453-0.8633
				c1.0703,0,1.9434,0.3496,2.623,1.0508c0.6777,0.7012,1.0176,1.668,1.0176,2.9043c0,1-0.1504,1.7871-0.4512,2.3613
				c-0.2988,0.5742-0.7363,1.0195-1.3105,1.3359c-0.5742,0.3184-1.1992,0.4766-1.8789,0.4766c-1.0879,0-1.9688-0.3477-2.6406-1.0469
				C164.3081,74.2295,163.9731,73.2236,163.9731,71.9092z M165.3276,71.9092c0,0.9961,0.2178,1.7422,0.6514,2.2383
				c0.4355,0.4941,0.9824,0.7422,1.6406,0.7422c0.6543,0,1.1992-0.248,1.6338-0.7461s0.6514-1.2578,0.6514-2.2793
				c0-0.9609-0.2188-1.6895-0.6543-2.1855c-0.4375-0.4961-0.9805-0.7441-1.6309-0.7441c-0.6582,0-1.2051,0.248-1.6406,0.7402
				C165.5454,70.1689,165.3276,70.9131,165.3276,71.9092z"/>
			<path fill="#603813" d="M172.2778,73.4756l1.3047-0.2051c0.0723,0.5234,0.2764,0.9238,0.6113,1.2012
				c0.334,0.2793,0.8018,0.418,1.4023,0.418c0.6055,0,1.0547-0.123,1.3477-0.3691s0.4395-0.5352,0.4395-0.8691
				c0-0.2969-0.1289-0.5313-0.3887-0.7031c-0.1797-0.1172-0.6289-0.2656-1.3477-0.4453c-0.9668-0.2441-1.6367-0.4551-2.0098-0.6348
				c-0.374-0.1777-0.6572-0.4238-0.8496-0.7383c-0.1934-0.3164-0.2891-0.6641-0.2891-1.0449c0-0.3457,0.0781-0.668,0.2373-0.9629
				s0.375-0.541,0.6484-0.7363c0.2051-0.1504,0.4844-0.2793,0.8389-0.3848c0.3535-0.1035,0.7334-0.1563,1.1387-0.1563
				c0.6104,0,1.1465,0.0879,1.6074,0.2637c0.4619,0.1758,0.8027,0.4141,1.0215,0.7129c0.2207,0.3008,0.3711,0.7031,0.4551,1.2051
				l-1.2891,0.1758c-0.0586-0.4004-0.2285-0.7129-0.5098-0.9375s-0.6777-0.3359-1.1895-0.3359
				c-0.6055,0-1.0381,0.0996-1.2969,0.2988c-0.2588,0.2012-0.3887,0.4355-0.3887,0.7031c0,0.1719,0.0547,0.3262,0.1621,0.4629
				c0.1074,0.1406,0.2754,0.2578,0.5049,0.3516c0.1318,0.0488,0.5205,0.1602,1.165,0.3359c0.9316,0.25,1.582,0.4531,1.9512,0.6113
				c0.3691,0.1602,0.6582,0.3906,0.8682,0.6934s0.3154,0.6777,0.3154,1.127c0,0.4395-0.1289,0.8535-0.3848,1.2422
				c-0.2568,0.3887-0.627,0.6875-1.1094,0.9004c-0.4844,0.2129-1.0313,0.3184-1.6406,0.3184c-1.0117,0-1.7813-0.209-2.3115-0.6289
				S172.4243,74.3018,172.2778,73.4756z"/>
			<path fill="#603813" d="M11.2344,91.4756l1.3037-0.2051c0.0732,0.5234,0.2769,0.9238,0.6118,1.2012
				c0.334,0.2793,0.8018,0.418,1.4023,0.418c0.6055,0,1.0547-0.123,1.3477-0.3691s0.4395-0.5352,0.4395-0.8691
				c0-0.2969-0.1294-0.5313-0.3882-0.7031c-0.1807-0.1172-0.6299-0.2656-1.3477-0.4453c-0.9668-0.2441-1.6372-0.4551-2.0103-0.6348
				c-0.374-0.1777-0.6572-0.4238-0.8496-0.7383c-0.1934-0.3164-0.2896-0.6641-0.2896-1.0449c0-0.3457,0.0791-0.668,0.2378-0.9629
				s0.375-0.541,0.6484-0.7363c0.2051-0.1504,0.4844-0.2793,0.8389-0.3848c0.3535-0.1035,0.7334-0.1563,1.1387-0.1563
				c0.6104,0,1.1465,0.0879,1.6074,0.2637c0.4619,0.1758,0.8022,0.4141,1.022,0.7129c0.2197,0.3008,0.3711,0.7031,0.4541,1.2051
				l-1.2891,0.1758c-0.0586-0.4004-0.2285-0.7129-0.5093-0.9375s-0.6772-0.3359-1.1899-0.3359
				c-0.6055,0-1.0376,0.0996-1.2964,0.2988c-0.2588,0.2012-0.3882,0.4355-0.3882,0.7031c0,0.1719,0.0537,0.3262,0.1611,0.4629
				c0.1074,0.1406,0.2759,0.2578,0.5054,0.3516c0.1318,0.0488,0.52,0.1602,1.1646,0.3359c0.9326,0.25,1.583,0.4531,1.9517,0.6113
				c0.3687,0.1602,0.6582,0.3906,0.8682,0.6934s0.3149,0.6777,0.3149,1.127c0,0.4395-0.1284,0.8535-0.3843,1.2422
				c-0.2568,0.3887-0.6265,0.6875-1.1099,0.9004s-1.0303,0.3184-1.6406,0.3184c-1.0107,0-1.7813-0.209-2.311-0.6289
				S11.3809,92.3018,11.2344,91.4756z"/>
			<path fill="#603813" d="M24.3594,93.7979v-1.1426c-0.6055,0.8789-1.4282,1.3184-2.4683,1.3184
				c-0.459,0-0.8877-0.0879-1.2852-0.2637c-0.3984-0.1758-0.6938-0.3965-0.8867-0.6621s-0.3281-0.5918-0.4063-0.9785
				c-0.0537-0.2578-0.0806-0.668-0.0806-1.2305v-4.8184h1.3184v4.3125c0,0.6895,0.0269,1.1543,0.0806,1.3926
				c0.083,0.3477,0.2588,0.6191,0.5273,0.8164s0.6006,0.2969,0.9961,0.2969s0.7666-0.1016,1.1133-0.3047
				c0.3467-0.2012,0.5918-0.4785,0.7363-0.8262c0.1436-0.3496,0.2158-0.8555,0.2158-1.5215v-4.166h1.3184v7.7773H24.3594z"/>
			<path fill="#603813" d="M28.8198,93.7979h-1.2231V83.0615h1.3184v3.8301c0.5566-0.6973,1.2671-1.0469,2.1313-1.0469
				c0.4785,0,0.9312,0.0957,1.3589,0.2891c0.4268,0.1934,0.7783,0.4629,1.0547,0.8125c0.2754,0.3496,0.4917,0.7715,0.6479,1.2637
				c0.1563,0.4941,0.2344,1.0215,0.2344,1.582c0,1.332-0.3296,2.3633-0.9888,3.0898c-0.6592,0.7285-1.4502,1.0918-2.373,1.0918
				c-0.918,0-1.6382-0.3828-2.1606-1.1504V93.7979z M28.8052,89.8506c0,0.9336,0.127,1.6074,0.3809,2.0215
				c0.415,0.6797,0.9766,1.0176,1.6846,1.0176c0.5762,0,1.0742-0.25,1.4941-0.75s0.6299-1.2461,0.6299-2.2383
				c0-1.0156-0.2017-1.7656-0.604-2.248c-0.4033-0.4844-0.8901-0.7246-1.4614-0.7246c-0.5762,0-1.0742,0.25-1.4941,0.75
				S28.8052,88.9033,28.8052,89.8506z"/>
			<path fill="#603813" d="M35.4189,91.4756l1.3037-0.2051c0.0732,0.5234,0.2769,0.9238,0.6118,1.2012
				c0.334,0.2793,0.8018,0.418,1.4023,0.418c0.6055,0,1.0547-0.123,1.3477-0.3691s0.4395-0.5352,0.4395-0.8691
				c0-0.2969-0.1294-0.5313-0.3882-0.7031c-0.1807-0.1172-0.6299-0.2656-1.3477-0.4453c-0.9668-0.2441-1.6372-0.4551-2.0103-0.6348
				c-0.374-0.1777-0.6572-0.4238-0.8496-0.7383c-0.1934-0.3164-0.2896-0.6641-0.2896-1.0449c0-0.3457,0.0791-0.668,0.2378-0.9629
				s0.375-0.541,0.6484-0.7363c0.2051-0.1504,0.4844-0.2793,0.8389-0.3848c0.3535-0.1035,0.7334-0.1563,1.1387-0.1563
				c0.6104,0,1.1465,0.0879,1.6074,0.2637c0.4619,0.1758,0.8022,0.4141,1.022,0.7129c0.2197,0.3008,0.3711,0.7031,0.4541,1.2051
				l-1.2891,0.1758c-0.0586-0.4004-0.2285-0.7129-0.5093-0.9375s-0.6772-0.3359-1.1899-0.3359
				c-0.6055,0-1.0376,0.0996-1.2964,0.2988c-0.2588,0.2012-0.3882,0.4355-0.3882,0.7031c0,0.1719,0.0537,0.3262,0.1611,0.4629
				c0.1074,0.1406,0.2759,0.2578,0.5054,0.3516c0.1318,0.0488,0.52,0.1602,1.1646,0.3359c0.9326,0.25,1.583,0.4531,1.9517,0.6113
				c0.3687,0.1602,0.6582,0.3906,0.8682,0.6934s0.3149,0.6777,0.3149,1.127c0,0.4395-0.1284,0.8535-0.3843,1.2422
				c-0.2568,0.3887-0.6265,0.6875-1.1099,0.9004s-1.0303,0.3184-1.6406,0.3184c-1.0107,0-1.7813-0.209-2.311-0.6289
				S35.5654,92.3018,35.4189,91.4756z"/>
			<path fill="#603813" d="M43.4536,84.5771v-1.5156h1.3184v1.5156H43.4536z M43.4536,93.7979v-7.7773h1.3184v7.7773H43.4536z"/>
			<path fill="#603813" d="M46.2515,91.4756l1.3037-0.2051c0.0732,0.5234,0.2769,0.9238,0.6118,1.2012
				c0.334,0.2793,0.8018,0.418,1.4023,0.418c0.6055,0,1.0547-0.123,1.3477-0.3691s0.4395-0.5352,0.4395-0.8691
				c0-0.2969-0.1294-0.5313-0.3882-0.7031c-0.1807-0.1172-0.6299-0.2656-1.3477-0.4453c-0.9668-0.2441-1.6372-0.4551-2.0103-0.6348
				c-0.374-0.1777-0.6572-0.4238-0.8496-0.7383c-0.1934-0.3164-0.2896-0.6641-0.2896-1.0449c0-0.3457,0.0791-0.668,0.2378-0.9629
				s0.375-0.541,0.6484-0.7363c0.2051-0.1504,0.4844-0.2793,0.8389-0.3848c0.3535-0.1035,0.7334-0.1563,1.1387-0.1563
				c0.6104,0,1.1465,0.0879,1.6074,0.2637c0.4619,0.1758,0.8022,0.4141,1.022,0.7129c0.2197,0.3008,0.3711,0.7031,0.4541,1.2051
				l-1.2891,0.1758c-0.0586-0.4004-0.2285-0.7129-0.5093-0.9375s-0.6772-0.3359-1.1899-0.3359
				c-0.6055,0-1.0376,0.0996-1.2964,0.2988c-0.2588,0.2012-0.3882,0.4355-0.3882,0.7031c0,0.1719,0.0537,0.3262,0.1611,0.4629
				c0.1074,0.1406,0.2759,0.2578,0.5054,0.3516c0.1318,0.0488,0.52,0.1602,1.1646,0.3359c0.9326,0.25,1.583,0.4531,1.9517,0.6113
				c0.3687,0.1602,0.6582,0.3906,0.8682,0.6934s0.3149,0.6777,0.3149,1.127c0,0.4395-0.1284,0.8535-0.3843,1.2422
				c-0.2568,0.3887-0.6265,0.6875-1.1099,0.9004s-1.0303,0.3184-1.6406,0.3184c-1.0107,0-1.7813-0.209-2.311-0.6289
				S46.3979,92.3018,46.2515,91.4756z"/>
			<path fill="#603813" d="M57.1572,92.6182l0.1904,1.166c-0.3711,0.0781-0.7031,0.1172-0.9961,0.1172
				c-0.4785,0-0.8496-0.0762-1.1133-0.2285c-0.2637-0.1504-0.4492-0.3496-0.5566-0.5957s-0.1611-0.7656-0.1611-1.5566v-4.4746
				h-0.9668v-1.0254h0.9668v-1.9277l1.311-0.791v2.7188h1.3257v1.0254h-1.3257v4.5469c0,0.377,0.0229,0.6191,0.0698,0.7266
				c0.0459,0.1074,0.1216,0.1934,0.2266,0.2559c0.105,0.0645,0.2554,0.0957,0.4507,0.0957
				C56.7251,92.6709,56.918,92.6533,57.1572,92.6182z"/>
			<path fill="#603813" d="M63.771,91.2939l1.3623,0.168c-0.2148,0.7969-0.6128,1.4141-1.1938,1.8535s-1.3232,0.6582-2.2266,0.6582
				c-1.1377,0-2.0396-0.3496-2.7065-1.0508c-0.666-0.7012-0.9995-1.6836-0.9995-2.9473c0-1.3086,0.3369-2.3242,1.0107-3.0469
				s1.5479-1.084,2.6221-1.084c1.04,0,1.8896,0.3535,2.5488,1.0605c0.6592,0.709,0.9888,1.7051,0.9888,2.9883
				c0,0.0801-0.0024,0.1973-0.0073,0.3516h-5.8008c0.0488,0.8555,0.2905,1.5098,0.7251,1.9629
				c0.4346,0.4551,0.9766,0.6816,1.626,0.6816c0.4834,0,0.896-0.127,1.2378-0.3809S63.5708,91.8506,63.771,91.2939z
				 M59.4424,89.1611h4.3433c-0.0586-0.6523-0.2246-1.1445-0.498-1.4707c-0.4199-0.5078-0.9644-0.7617-1.6333-0.7617
				c-0.6055,0-1.1147,0.2031-1.5269,0.6074C59.7144,87.9424,59.4863,88.4834,59.4424,89.1611z"/>
			<path fill="#603813" d="M66.7886,93.7979v-7.7773h1.1792v1.0898c0.2441-0.3809,0.5688-0.6855,0.9741-0.918
				s0.8667-0.3477,1.3843-0.3477c0.5762,0,1.0483,0.1191,1.417,0.3574c0.3687,0.2402,0.6289,0.5742,0.7803,1.0039
				c0.6152-0.9082,1.416-1.3613,2.4023-1.3613c0.7715,0,1.3647,0.2129,1.7798,0.6406s0.6226,1.0859,0.6226,1.9727v5.3398h-1.311
				v-4.9004c0-0.5273-0.043-0.9063-0.1284-1.1387c-0.0854-0.2305-0.2402-0.418-0.4648-0.5605
				c-0.2246-0.1406-0.4883-0.2109-0.791-0.2109c-0.5469,0-1.001,0.1816-1.3623,0.5449s-0.542,0.9473-0.542,1.7461v4.5195h-1.3184
				v-5.0527c0-0.5859-0.1074-1.0254-0.3223-1.3184s-0.5664-0.4395-1.0547-0.4395c-0.3711,0-0.7139,0.0977-1.0293,0.293
				c-0.3145,0.1953-0.543,0.4805-0.6846,0.8555c-0.1416,0.377-0.2124,0.9199-0.2124,1.627v4.0352H66.7886z"/>
			<path fill="#603813" d="M84.3594,92.8389c-0.4883,0.416-0.9585,0.709-1.4102,0.8789s-0.936,0.2559-1.4536,0.2559
				c-0.8545,0-1.5112-0.209-1.9702-0.625c-0.459-0.418-0.6885-0.9512-0.6885-1.6016c0-0.3809,0.0864-0.7285,0.2598-1.043
				s0.4004-0.5684,0.6816-0.7578c0.2803-0.1914,0.5967-0.334,0.9482-0.4336c0.2588-0.0664,0.6494-0.1328,1.1719-0.1973
				c1.0645-0.127,1.8481-0.2773,2.3511-0.4531c0.0049-0.1816,0.0073-0.2949,0.0073-0.3457c0-0.5352-0.1245-0.9141-0.3735-1.1348
				c-0.3369-0.2969-0.8374-0.4473-1.5015-0.4473c-0.6201,0-1.0781,0.1094-1.373,0.3262c-0.2959,0.2188-0.5142,0.6035-0.6558,1.1543
				l-1.2891-0.1758c0.1172-0.5508,0.3101-0.998,0.5786-1.3359c0.2686-0.3398,0.6567-0.6016,1.1646-0.7852
				c0.5078-0.1816,1.0962-0.2734,1.7651-0.2734c0.6641,0,1.2036,0.0781,1.6187,0.2344s0.7202,0.3516,0.9155,0.5898
				c0.1953,0.2363,0.332,0.5352,0.4102,0.8965c0.0439,0.2246,0.0659,0.6289,0.0659,1.2148v1.7578
				c0,1.2266,0.0278,2.002,0.0845,2.3262c0.0557,0.3242,0.167,0.6367,0.333,0.9336h-1.377
				C84.4863,93.5244,84.3984,93.2041,84.3594,92.8389z M84.2495,89.8936c-0.4785,0.1973-1.1963,0.3633-2.1533,0.498
				c-0.542,0.0801-0.9253,0.168-1.1499,0.2637c-0.2246,0.0996-0.3979,0.2422-0.52,0.4297s-0.1831,0.3965-0.1831,0.625
				c0,0.3516,0.1328,0.6445,0.3994,0.8789c0.2656,0.2344,0.6553,0.3516,1.168,0.3516c0.5078,0,0.9595-0.1094,1.355-0.332
				s0.686-0.5254,0.8716-0.9121c0.1416-0.2969,0.2124-0.7363,0.2124-1.3184V89.8936z"/>
			<path fill="#603813" d="M87.0986,91.4756l1.3037-0.2051c0.0732,0.5234,0.2769,0.9238,0.6118,1.2012
				c0.334,0.2793,0.8018,0.418,1.4023,0.418c0.6055,0,1.0547-0.123,1.3477-0.3691s0.4395-0.5352,0.4395-0.8691
				c0-0.2969-0.1294-0.5313-0.3882-0.7031c-0.1807-0.1172-0.6299-0.2656-1.3477-0.4453c-0.9668-0.2441-1.6372-0.4551-2.0103-0.6348
				c-0.374-0.1777-0.6572-0.4238-0.8496-0.7383c-0.1934-0.3164-0.2896-0.6641-0.2896-1.0449c0-0.3457,0.0791-0.668,0.2378-0.9629
				s0.375-0.541,0.6484-0.7363c0.2051-0.1504,0.4844-0.2793,0.8389-0.3848c0.3535-0.1035,0.7334-0.1563,1.1387-0.1563
				c0.6104,0,1.1465,0.0879,1.6074,0.2637c0.4619,0.1758,0.8027,0.4141,1.0215,0.7129c0.2207,0.3008,0.3711,0.7031,0.4551,1.2051
				l-1.2896,0.1758c-0.0586-0.4004-0.2285-0.7129-0.5093-0.9375s-0.6772-0.3359-1.1899-0.3359
				c-0.6055,0-1.0376,0.0996-1.2964,0.2988c-0.2588,0.2012-0.3882,0.4355-0.3882,0.7031c0,0.1719,0.0537,0.3262,0.1611,0.4629
				c0.1074,0.1406,0.2759,0.2578,0.5054,0.3516c0.1318,0.0488,0.52,0.1602,1.1646,0.3359c0.9326,0.25,1.583,0.4531,1.9517,0.6113
				c0.3691,0.1602,0.6582,0.3906,0.8682,0.6934s0.3154,0.6777,0.3154,1.127c0,0.4395-0.1289,0.8535-0.3848,1.2422
				c-0.2568,0.3887-0.627,0.6875-1.1099,0.9004c-0.4834,0.2129-1.0303,0.3184-1.6406,0.3184c-1.0107,0-1.7813-0.209-2.311-0.6289
				S87.2451,92.3018,87.0986,91.4756z"/>
			<path fill="#603813" d="M95.4995,93.7979v-1.502h1.501v1.502H95.4995z"/>
		</g>
	</g>
</g>
<g>
</g>
<g>
</g>
<g>
</g>
<g>
</g>
<g>
</g>
<g>
</g>
<g>
</g>
<g>
</g>
<g>
</g>
<g>
</g>
<g>
</g>
<g>
</g>
<g>
</g>
<g>
</g>
<g>
</g>
</svg>
