<?xml version="1.0" encoding="utf-8"?>
<!-- Generator: Adobe Illustrator 16.0.0, SVG Export Plug-In . SVG Version: 6.00 Build 0)  -->
<!DOCTYPE svg PUBLIC "-//W3C//DTD SVG 1.1//EN" "http://www.w3.org/Graphics/SVG/1.1/DTD/svg11.dtd">
<svg version="1.1" id="Capa_1" xmlns="http://www.w3.org/2000/svg" xmlns:xlink="http://www.w3.org/1999/xlink" x="0px" y="0px"
	 width="195.729px" height="67.8936px" viewBox="0 0 195.729 67.8936" enable-background="new 0 0 195.729 67.8936"
	 xml:space="preserve">
<g>
	<g>
		<path fill="#603813" d="M9.5825,0h3.9624c0.8936,0,1.5747,0.0684,2.0435,0.2051c0.6299,0.1855,1.1694,0.5156,1.6187,0.9893
			s0.791,1.0527,1.0254,1.7393c0.2344,0.6855,0.3516,1.5322,0.3516,2.5381c0,0.8838-0.1099,1.6455-0.3296,2.2852
			c-0.2686,0.7813-0.6519,1.4131-1.1499,1.8965c-0.376,0.3662-0.8838,0.6523-1.5234,0.8574
			c-0.4785,0.1514-1.1182,0.2266-1.9189,0.2266H9.5825V0z M11.7505,1.8164v7.1123h1.6187c0.6055,0,1.0425-0.0342,1.311-0.1035
			c0.3516-0.0879,0.6431-0.2363,0.875-0.4463s0.4214-0.5557,0.5679-1.0361c0.1465-0.4814,0.2197-1.1367,0.2197-1.9668
			s-0.0732-1.4668-0.2197-1.9121c-0.1465-0.4434-0.3516-0.791-0.6152-1.0391c-0.2637-0.25-0.5981-0.418-1.0034-0.5059
			c-0.3027-0.0684-0.896-0.1025-1.7798-0.1025H11.7505z"/>
		<path fill="#603813" d="M20.4077,1.9043V0h2.0581v1.9043H20.4077z M20.4077,10.7373V2.959h2.0581v7.7783H20.4077z"/>
		<path fill="#603813" d="M23.8501,8.5186l2.0654-0.3154c0.0879,0.4004,0.2661,0.7041,0.5347,0.9121
			c0.2686,0.207,0.6445,0.3115,1.1279,0.3115c0.5322,0,0.9326-0.0977,1.2012-0.293c0.1807-0.1367,0.271-0.3203,0.271-0.5498
			c0-0.1563-0.0488-0.2861-0.1465-0.3877c-0.1025-0.0977-0.332-0.1885-0.6885-0.2715c-1.6602-0.3662-2.7124-0.7002-3.1567-1.0039
			c-0.6152-0.4189-0.9229-1.0029-0.9229-1.75c0-0.6738,0.2661-1.2402,0.7983-1.6992s1.3574-0.6885,2.4756-0.6885
			c1.0645,0,1.8555,0.1738,2.373,0.5205s0.874,0.8594,1.0693,1.5371l-1.9409,0.3594c-0.083-0.3027-0.2407-0.5352-0.4722-0.6953
			c-0.2324-0.1621-0.563-0.2422-0.9927-0.2422c-0.542,0-0.9302,0.0762-1.1646,0.2266c-0.1563,0.1084-0.2344,0.2471-0.2344,0.418
			c0,0.1465,0.0684,0.2715,0.2051,0.373c0.1855,0.1377,0.8262,0.3301,1.9229,0.5791c1.0957,0.249,1.8613,0.5547,2.2959,0.915
			c0.4297,0.3672,0.6445,0.877,0.6445,1.5313c0,0.7129-0.2979,1.3262-0.8936,1.8379c-0.5957,0.5137-1.4771,0.7695-2.644,0.7695
			c-1.0596,0-1.8984-0.2148-2.5161-0.6445S24.0405,9.2559,23.8501,8.5186z"/>
		<path fill="#603813" d="M37.4219,8.2617l2.0508,0.3447c-0.2637,0.752-0.6802,1.3242-1.249,1.7168
			c-0.5688,0.3936-1.2803,0.5898-2.1348,0.5898c-1.3525,0-2.3535-0.4414-3.0029-1.3262c-0.5127-0.707-0.769-1.6006-0.769-2.6797
			c0-1.2891,0.3369-2.2988,1.0107-3.0293c0.6738-0.7295,1.5259-1.0947,2.5562-1.0947c1.1572,0,2.0703,0.3818,2.7393,1.1465
			c0.6689,0.7637,0.9888,1.9346,0.9595,3.5117h-5.1563c0.0146,0.6104,0.1807,1.085,0.498,1.4248
			c0.3174,0.3389,0.7129,0.5088,1.1865,0.5088c0.3223,0,0.5933-0.0879,0.813-0.2637S37.3096,8.6523,37.4219,8.2617z M37.5391,6.1816
			c-0.0146-0.5957-0.1685-1.0488-0.4614-1.3584c-0.293-0.3105-0.6494-0.4648-1.0693-0.4648c-0.4492,0-0.8203,0.1631-1.1133,0.4902
			s-0.437,0.7715-0.4321,1.333H37.5391z"/>
		<path fill="#603813" d="M48.335,10.7373h-2.0581V6.7676c0-0.8398-0.0439-1.3828-0.1318-1.6299
			c-0.0879-0.2461-0.2305-0.4375-0.4287-0.5742c-0.1973-0.1367-0.4355-0.2051-0.7139-0.2051c-0.3564,0-0.6763,0.0977-0.9595,0.293
			s-0.4775,0.4531-0.5825,0.7754s-0.1572,0.9189-0.1572,1.7871v3.5234h-2.0581V2.959h1.9116v1.1426
			c0.6787-0.8789,1.5332-1.3184,2.5635-1.3184c0.4541,0,0.8691,0.082,1.2451,0.2451c0.376,0.1641,0.6602,0.373,0.8535,0.627
			c0.1924,0.2539,0.3267,0.541,0.4023,0.8633s0.1138,0.7842,0.1138,1.3848V10.7373z M43.2007,1.9111h-0.9375
			c-0.0049-0.1113-0.0073-0.1992-0.0073-0.2637c0-0.5117,0.1245-0.9063,0.3735-1.1826c0.249-0.2754,0.5688-0.4131,0.9595-0.4131
			c0.1709,0,0.3296,0.0176,0.4761,0.0547c0.1465,0.0361,0.4141,0.1416,0.8018,0.3145c0.3887,0.1738,0.6924,0.2598,0.9121,0.2598
			c0.1563,0,0.2866-0.0479,0.3916-0.1465c0.105-0.0967,0.1724-0.2607,0.2017-0.4902h0.9521
			c-0.0049,0.6592-0.1284,1.1309-0.3696,1.4141c-0.2422,0.2832-0.5532,0.4238-0.9341,0.4238c-0.166,0-0.3296-0.0166-0.4907-0.0508
			c-0.1123-0.0293-0.3931-0.1289-0.8423-0.3008c-0.4492-0.1699-0.7764-0.2559-0.9814-0.2559c-0.1563,0-0.2783,0.0479-0.3662,0.1426
			C43.252,1.5127,43.2056,1.6768,43.2007,1.9111z"/>
		<path fill="#603813" d="M49.9463,6.7383c0-0.6836,0.1685-1.3447,0.5054-1.9854c0.3369-0.6387,0.814-1.127,1.4321-1.4648
			c0.6172-0.3359,1.3071-0.5049,2.0688-0.5049c1.1768,0,2.1411,0.3818,2.8931,1.1465c0.752,0.7637,1.1279,1.7295,1.1279,2.8965
			c0,1.1768-0.3799,2.1523-1.1387,2.9258c-0.7598,0.7744-1.7153,1.1611-2.8677,1.1611c-0.7129,0-1.3931-0.1611-2.0396-0.4834
			c-0.6475-0.3223-1.1392-0.7949-1.4761-1.417C50.1147,8.3896,49.9463,7.6318,49.9463,6.7383z M52.0557,6.8486
			c0,0.7715,0.1831,1.3613,0.5493,1.7715s0.8179,0.6152,1.355,0.6152s0.9873-0.2051,1.3516-0.6152
			c0.3633-0.4102,0.5454-1.0049,0.5454-1.7871c0-0.7617-0.1821-1.3477-0.5454-1.7578C54.9473,4.665,54.4971,4.46,53.96,4.46
			s-0.9888,0.2051-1.355,0.6152S52.0557,6.0771,52.0557,6.8486z"/>
		<path fill="#603813" d="M70.8862,10.7373h-1.9116V9.5947c-0.3174,0.4443-0.6924,0.7754-1.124,0.9922
			c-0.4326,0.2178-0.8682,0.3262-1.3076,0.3262c-0.8936,0-1.6592-0.3604-2.2959-1.0801c-0.6377-0.7207-0.9561-1.7246-0.9561-3.0137
			c0-1.3184,0.3101-2.3213,0.9302-3.0068c0.6201-0.6865,1.4038-1.0293,2.3511-1.0293c0.8691,0,1.6211,0.3613,2.2559,1.084V0h2.0581
			V10.7373z M65.3931,6.6797c0,0.8301,0.1147,1.4307,0.3442,1.8018c0.332,0.5371,0.7959,0.8057,1.3916,0.8057
			c0.4736,0,0.8765-0.2012,1.2085-0.6045c0.332-0.4023,0.498-1.0039,0.498-1.8047c0-0.8945-0.1611-1.5371-0.4834-1.9307
			c-0.3223-0.3926-0.7349-0.5889-1.2378-0.5889c-0.4883,0-0.8975,0.1934-1.2266,0.582C65.5576,5.3281,65.3931,5.9082,65.3931,6.6797
			z"/>
		<path fill="#603813" d="M77.4194,8.2617l2.0508,0.3447c-0.2637,0.752-0.6802,1.3242-1.249,1.7168
			c-0.5688,0.3936-1.2803,0.5898-2.1348,0.5898c-1.3525,0-2.3535-0.4414-3.0029-1.3262c-0.5127-0.707-0.769-1.6006-0.769-2.6797
			c0-1.2891,0.3369-2.2988,1.0107-3.0293c0.6738-0.7295,1.5259-1.0947,2.5562-1.0947c1.1572,0,2.0703,0.3818,2.7393,1.1465
			c0.6689,0.7637,0.9888,1.9346,0.9595,3.5117h-5.1563c0.0146,0.6104,0.1807,1.085,0.498,1.4248
			c0.3174,0.3389,0.7129,0.5088,1.1865,0.5088c0.3223,0,0.5933-0.0879,0.813-0.2637S77.3071,8.6523,77.4194,8.2617z M77.5366,6.1816
			c-0.0146-0.5957-0.1685-1.0488-0.4614-1.3584c-0.293-0.3105-0.6494-0.4648-1.0693-0.4648c-0.4492,0-0.8203,0.1631-1.1133,0.4902
			s-0.437,0.7715-0.4321,1.333H77.5366z"/>
		<path fill="#603813" d="M85.4248,10.7373V0h2.0581v10.7373H85.4248z"/>
		<path fill="#603813" d="M91.1304,5.332l-1.8677-0.3369c0.21-0.752,0.5713-1.3086,1.084-1.6699s1.2744-0.542,2.2847-0.542
			c0.918,0,1.6016,0.1084,2.0508,0.3262c0.4492,0.2168,0.7656,0.4932,0.9492,0.8271c0.1836,0.335,0.2744,0.9492,0.2744,1.8418
			l-0.0225,2.4023c0,0.6846,0.0332,1.1885,0.0996,1.5127c0.0664,0.3252,0.1895,0.6729,0.3691,1.0439h-2.0352
			c-0.0547-0.1367-0.1201-0.3389-0.1982-0.6074c-0.0342-0.1221-0.0586-0.2031-0.0732-0.2422
			c-0.3516,0.3418-0.7275,0.5986-1.1279,0.7695c-0.4004,0.1699-0.8276,0.2559-1.2817,0.2559c-0.8008,0-1.4316-0.2168-1.8936-0.6523
			c-0.4609-0.4336-0.6919-0.9834-0.6919-1.6475c0-0.4395,0.105-0.8311,0.3149-1.1758c0.21-0.3438,0.5039-0.6074,0.8828-0.791
			c0.3779-0.1826,0.9238-0.3428,1.6367-0.4795c0.9614-0.1807,1.6284-0.3486,1.9995-0.5059V5.4561
			c0-0.3945-0.0977-0.6768-0.293-0.8457c-0.1953-0.168-0.5635-0.252-1.106-0.252c-0.3662,0-0.6519,0.0713-0.8569,0.2158
			C91.4233,4.7178,91.2573,4.9707,91.1304,5.332z M93.8843,7.002c-0.2637,0.0879-0.6807,0.1934-1.2529,0.3154
			c-0.5708,0.1221-0.9443,0.2412-1.1201,0.3584c-0.2686,0.1904-0.4028,0.4326-0.4028,0.7256c0,0.2881,0.1074,0.5371,0.3223,0.7461
			c0.2148,0.2109,0.4883,0.3154,0.8203,0.3154c0.3706,0,0.7251-0.1221,1.062-0.3662c0.249-0.1855,0.4121-0.4121,0.4902-0.6816
			c0.0547-0.1758,0.0811-0.5098,0.0811-1.0029V7.002z"/>
		<path fill="#603813" d="M103.6401,5.332l-1.8682-0.3369c0.2109-0.752,0.5723-1.3086,1.084-1.6699
			c0.5137-0.3613,1.2754-0.542,2.2852-0.542c0.918,0,1.6016,0.1084,2.0508,0.3262c0.4492,0.2168,0.7656,0.4932,0.9492,0.8271
			c0.1836,0.335,0.2744,0.9492,0.2744,1.8418l-0.0225,2.4023c0,0.6846,0.0332,1.1885,0.0996,1.5127
			c0.0664,0.3252,0.1895,0.6729,0.3691,1.0439h-2.0352c-0.0547-0.1367-0.1201-0.3389-0.1982-0.6074
			c-0.0342-0.1221-0.0586-0.2031-0.0732-0.2422c-0.3516,0.3418-0.7275,0.5986-1.1279,0.7695
			c-0.4004,0.1699-0.8271,0.2559-1.2822,0.2559c-0.8008,0-1.4316-0.2168-1.8926-0.6523c-0.4609-0.4336-0.6924-0.9834-0.6924-1.6475
			c0-0.4395,0.1045-0.8311,0.3154-1.1758c0.209-0.3438,0.5039-0.6074,0.8828-0.791c0.377-0.1826,0.9238-0.3428,1.6367-0.4795
			c0.9609-0.1807,1.6279-0.3486,1.999-0.5059V5.4561c0-0.3945-0.0977-0.6768-0.293-0.8457c-0.1953-0.168-0.5635-0.252-1.1064-0.252
			c-0.3652,0-0.6514,0.0713-0.8564,0.2158C103.9331,4.7178,103.7671,4.9707,103.6401,5.332z M106.394,7.002
			c-0.2637,0.0879-0.6807,0.1934-1.2529,0.3154c-0.5703,0.1221-0.9443,0.2412-1.1201,0.3584
			c-0.2686,0.1904-0.4033,0.4326-0.4033,0.7256c0,0.2881,0.1074,0.5371,0.3223,0.7461c0.2148,0.2109,0.4883,0.3154,0.8203,0.3154
			c0.3711,0,0.7256-0.1221,1.0625-0.3662c0.249-0.1855,0.4121-0.4121,0.4902-0.6816c0.0547-0.1758,0.0811-0.5098,0.0811-1.0029
			V7.002z"/>
		<path fill="#603813" d="M112.4146,10.7373h-2.0586V2.959h1.9121v1.1064c0.3271-0.5225,0.6211-0.8672,0.8828-1.0332
			c0.2607-0.166,0.5576-0.249,0.8896-0.249c0.4688,0,0.9209,0.1299,1.3545,0.3877l-0.6367,1.7949
			c-0.3467-0.2246-0.6689-0.3369-0.9668-0.3369c-0.2881,0-0.5322,0.0791-0.7324,0.2383c-0.2002,0.1582-0.3574,0.4453-0.4727,0.8604
			s-0.1719,1.2842-0.1719,2.6074V10.7373z"/>
		<path fill="#603813" d="M121.3647,13.6963V9.7852c-0.2686,0.3467-0.6025,0.6211-1.0029,0.8242
			c-0.4004,0.2021-0.833,0.3037-1.2969,0.3037c-0.8838,0-1.6113-0.332-2.1826-0.9961c-0.6738-0.7764-1.0107-1.8281-1.0107-3.1563
			c0-1.25,0.3164-2.2256,0.9492-2.9268c0.6309-0.7002,1.416-1.0508,2.3535-1.0508c0.5176,0,0.9658,0.1104,1.3438,0.3291
			c0.3789,0.2207,0.7148,0.5527,1.0078,0.9961V2.959h1.8965v10.7373H121.3647z M121.4302,6.7529
			c0-0.7959-0.1621-1.3877-0.4863-1.7764c-0.3252-0.3877-0.7314-0.582-1.2197-0.582c-0.498,0-0.915,0.1982-1.249,0.5928
			c-0.334,0.3965-0.502,1.0234-0.502,1.8828c0,0.8545,0.1621,1.4707,0.4844,1.8496c0.3223,0.3779,0.7197,0.5674,1.1934,0.5674
			s0.8887-0.2119,1.2451-0.6377C121.2524,8.2256,121.4302,7.5928,121.4302,6.7529z"/>
		<path fill="#603813" d="M130.564,10.7373V9.5732c-0.2832,0.415-0.6553,0.7422-1.1172,0.9805
			c-0.4609,0.2393-0.9482,0.3594-1.4609,0.3594c-0.5225,0-0.9912-0.1152-1.4063-0.3438c-0.415-0.2295-0.7158-0.5518-0.9014-0.9668
			s-0.2773-0.9893-0.2773-1.7217V2.959h2.0576v3.5742c0,1.0938,0.0381,1.7637,0.1133,2.0107
			c0.0752,0.2461,0.2139,0.4414,0.4141,0.5859c0.2002,0.1436,0.4541,0.2158,0.7617,0.2158c0.3516,0,0.667-0.0967,0.9443-0.2891
			c0.2793-0.1934,0.4688-0.4326,0.5723-0.7178c0.1016-0.2861,0.1533-0.9854,0.1533-2.0986V2.959h2.0576v7.7783H130.564z"/>
		<path fill="#603813" d="M134.6069,1.9043V0h2.0576v1.9043H134.6069z M134.6069,10.7373V2.959h2.0576v7.7783H134.6069z"/>
		<path fill="#603813" d="M142.3413,2.959v1.6406h-1.4063v3.1348c0,0.6348,0.0127,1.0049,0.04,1.1094
			c0.0273,0.1055,0.0879,0.1924,0.1836,0.2607c0.0947,0.0684,0.2109,0.1016,0.3477,0.1016c0.1904,0,0.4668-0.0654,0.8281-0.1973
			l0.1758,1.5967c-0.4785,0.2051-1.0215,0.3076-1.627,0.3076c-0.3711,0-0.7051-0.0625-1.0029-0.1865
			c-0.2979-0.125-0.5166-0.2861-0.6553-0.4834c-0.1396-0.1982-0.2363-0.4648-0.2891-0.8027
			c-0.0449-0.2383-0.0664-0.7217-0.0664-1.4492V4.5996h-0.9453V2.959h0.9453V1.4131l2.0654-1.2012V2.959H142.3413z"/>
		<path fill="#603813" d="M148.2739,8.2617l2.0508,0.3447c-0.2637,0.752-0.6797,1.3242-1.249,1.7168
			c-0.5693,0.3936-1.2803,0.5898-2.1348,0.5898c-1.3525,0-2.3535-0.4414-3.0029-1.3262c-0.5127-0.707-0.7695-1.6006-0.7695-2.6797
			c0-1.2891,0.3379-2.2988,1.0117-3.0293c0.6738-0.7295,1.5254-1.0947,2.5557-1.0947c1.1572,0,2.0703,0.3818,2.7393,1.1465
			c0.6689,0.7637,0.9883,1.9346,0.959,3.5117h-5.1563c0.0156,0.6104,0.1816,1.085,0.498,1.4248
			c0.3184,0.3389,0.7129,0.5088,1.1875,0.5088c0.3223,0,0.5928-0.0879,0.8125-0.2637S148.1616,8.6523,148.2739,8.2617z
			 M148.3911,6.1816c-0.0146-0.5957-0.168-1.0488-0.4609-1.3584c-0.293-0.3105-0.6504-0.4648-1.0703-0.4648
			c-0.4492,0-0.8203,0.1631-1.1133,0.4902s-0.4365,0.7715-0.4316,1.333H148.3911z"/>
		<path fill="#603813" d="M158.894,5.2588l-2.0283,0.3662c-0.0684-0.4053-0.2246-0.71-0.4648-0.915
			c-0.2422-0.2051-0.5566-0.3086-0.9414-0.3086c-0.5137,0-0.9219,0.1777-1.2266,0.5313c-0.3066,0.3545-0.459,0.9463-0.459,1.7764
			c0,0.9229,0.1553,1.5752,0.4648,1.9561c0.3105,0.3809,0.7266,0.5703,1.25,0.5703c0.3906,0,0.71-0.1104,0.959-0.333
			c0.249-0.2217,0.4248-0.6045,0.5273-1.1455l2.0215,0.3438c-0.21,0.9277-0.6133,1.6289-1.209,2.1016
			c-0.5957,0.4746-1.3936,0.7109-2.3945,0.7109c-1.1377,0-2.0449-0.3594-2.7207-1.0762c-0.6768-0.7188-1.0146-1.7119-1.0146-2.9814
			c0-1.2842,0.3389-2.2842,1.0186-2.999c0.6777-0.7158,1.5957-1.0732,2.7539-1.0732c0.9473,0,1.6992,0.2041,2.2598,0.6113
			C158.2485,3.8027,158.6499,4.4238,158.894,5.2588z"/>
		<path fill="#603813" d="M164.021,2.959v1.6406h-1.4063v3.1348c0,0.6348,0.0127,1.0049,0.04,1.1094
			c0.0273,0.1055,0.0879,0.1924,0.1836,0.2607c0.0947,0.0684,0.2109,0.1016,0.3477,0.1016c0.1904,0,0.4668-0.0654,0.8281-0.1973
			l0.1758,1.5967c-0.4785,0.2051-1.0215,0.3076-1.627,0.3076c-0.3711,0-0.7051-0.0625-1.0029-0.1865
			c-0.2979-0.125-0.5166-0.2861-0.6553-0.4834c-0.1396-0.1982-0.2363-0.4648-0.2891-0.8027
			c-0.0449-0.2383-0.0664-0.7217-0.0664-1.4492V4.5996h-0.9453V2.959h0.9453V1.4131l2.0654-1.2012V2.959H164.021z"/>
		<path fill="#603813" d="M170.5688,10.7373V9.5732c-0.2832,0.415-0.6553,0.7422-1.1172,0.9805
			c-0.4609,0.2393-0.9482,0.3594-1.4609,0.3594c-0.5225,0-0.9912-0.1152-1.4063-0.3438c-0.415-0.2295-0.7148-0.5518-0.9004-0.9668
			s-0.2793-0.9893-0.2793-1.7217V2.959h2.0586v3.5742c0,1.0938,0.0371,1.7637,0.1133,2.0107
			c0.0762,0.2461,0.2139,0.4414,0.4141,0.5859c0.2002,0.1436,0.4541,0.2158,0.7617,0.2158c0.3516,0,0.666-0.0967,0.9453-0.2891
			c0.2773-0.1934,0.4688-0.4326,0.5703-0.7178c0.1035-0.2861,0.1543-0.9854,0.1543-2.0986V2.959h2.0586v7.7783H170.5688z"/>
		<path fill="#603813" d="M176.5825,10.7373h-2.0586V2.959h1.9121v1.1064c0.3262-0.5225,0.6211-0.8672,0.8828-1.0332
			c0.2598-0.166,0.5566-0.249,0.8887-0.249c0.4688,0,0.9209,0.1299,1.3555,0.3877l-0.6367,1.7949
			c-0.3477-0.2246-0.6699-0.3369-0.9668-0.3369c-0.2891,0-0.5332,0.0791-0.7324,0.2383c-0.2012,0.1582-0.3584,0.4453-0.4727,0.8604
			c-0.1152,0.415-0.1719,1.2842-0.1719,2.6074V10.7373z"/>
		<path fill="#603813" d="M181.9868,5.332l-1.8672-0.3369c0.21-0.752,0.5713-1.3086,1.084-1.6699s1.2744-0.542,2.2852-0.542
			c0.918,0,1.6016,0.1084,2.0508,0.3262c0.4492,0.2168,0.7656,0.4932,0.9482,0.8271c0.1836,0.335,0.2744,0.9492,0.2744,1.8418
			l-0.0215,2.4023c0,0.6846,0.0332,1.1885,0.0986,1.5127c0.0664,0.3252,0.1895,0.6729,0.3701,1.0439h-2.0361
			c-0.0537-0.1367-0.1201-0.3389-0.1982-0.6074c-0.0332-0.1221-0.0586-0.2031-0.0723-0.2422
			c-0.3516,0.3418-0.7285,0.5986-1.1289,0.7695c-0.4004,0.1699-0.8271,0.2559-1.2813,0.2559c-0.8008,0-1.4316-0.2168-1.8936-0.6523
			c-0.4609-0.4336-0.6924-0.9834-0.6924-1.6475c0-0.4395,0.1055-0.8311,0.3154-1.1758c0.21-0.3438,0.5039-0.6074,0.8828-0.791
			c0.3779-0.1826,0.9238-0.3428,1.6367-0.4795c0.9619-0.1807,1.6279-0.3486,1.999-0.5059V5.4561
			c0-0.3945-0.0977-0.6768-0.293-0.8457c-0.1953-0.168-0.5635-0.252-1.1055-0.252c-0.3662,0-0.6523,0.0713-0.8574,0.2158
			C182.2798,4.7178,182.1138,4.9707,181.9868,5.332z M184.7407,7.002c-0.2637,0.0879-0.6807,0.1934-1.252,0.3154
			s-0.9453,0.2412-1.1211,0.3584c-0.2676,0.1904-0.4023,0.4326-0.4023,0.7256c0,0.2881,0.1074,0.5371,0.3223,0.7461
			c0.2148,0.2109,0.4883,0.3154,0.8203,0.3154c0.3711,0,0.7246-0.1221,1.0625-0.3662c0.248-0.1855,0.4121-0.4121,0.4902-0.6816
			c0.0537-0.1758,0.0801-0.5098,0.0801-1.0029V7.002z"/>
		<path fill="#603813" d="M0.1245,25.2881l1.3403-0.1172c0.0635,0.5371,0.2109,0.9775,0.4429,1.3213
			c0.2319,0.3447,0.5923,0.623,1.0806,0.835c0.4883,0.2129,1.0376,0.3184,1.6479,0.3184c0.542,0,1.0205-0.0801,1.4355-0.2412
			s0.7236-0.3818,0.9268-0.6631c0.2021-0.2803,0.3037-0.5869,0.3037-0.9189c0-0.3369-0.0977-0.6309-0.293-0.8828
			c-0.1953-0.251-0.5176-0.4619-0.9668-0.6338c-0.2881-0.1113-0.9253-0.2861-1.9116-0.5234
			c-0.9863-0.2363-1.6772-0.46-2.0728-0.6699c-0.5127-0.2686-0.895-0.6016-1.1465-1c-0.2515-0.3975-0.377-0.8428-0.377-1.3359
			c0-0.543,0.1538-1.0488,0.4614-1.5205c0.3076-0.4707,0.7568-0.8281,1.3477-1.0732c0.5908-0.2432,1.2476-0.3652,1.9702-0.3652
			c0.7959,0,1.498,0.1279,2.1055,0.3838c0.6084,0.2568,1.0757,0.6338,1.4028,1.1318s0.5029,1.0625,0.5273,1.6914l-1.3623,0.1035
			c-0.0732-0.6787-0.3213-1.1914-0.7437-1.5391c-0.4224-0.3457-1.0459-0.5195-1.8711-0.5195c-0.8594,0-1.4858,0.1572-1.8789,0.4727
			c-0.3931,0.3145-0.5894,0.6943-0.5894,1.1387c0,0.3857,0.1392,0.7031,0.4175,0.9521c0.2734,0.249,0.9873,0.5039,2.1426,0.7656
			c1.1543,0.2607,1.9468,0.4893,2.3765,0.6846c0.625,0.2881,1.0864,0.6533,1.3843,1.0947c0.2979,0.4424,0.4468,0.9512,0.4468,1.5273
			c0,0.5713-0.1636,1.1094-0.4907,1.6152C7.854,27.8252,7.3838,28.2188,6.771,28.499c-0.6128,0.2813-1.3022,0.4219-2.0688,0.4219
			c-0.9717,0-1.7861-0.1426-2.4429-0.4258c-0.6567-0.2822-1.1719-0.709-1.5449-1.2773C0.3403,26.6484,0.144,26.0049,0.1245,25.2881z
			"/>
		<path fill="#603813" d="M15.769,26.2324l1.3623,0.1689c-0.2148,0.7959-0.6128,1.4131-1.1938,1.8525s-1.3232,0.6592-2.2266,0.6592
			c-1.1377,0-2.0396-0.3506-2.7065-1.0508c-0.666-0.7012-0.9995-1.6836-0.9995-2.9482c0-1.3086,0.3369-2.3242,1.0107-3.0469
			s1.5479-1.084,2.6221-1.084c1.04,0,1.8896,0.3545,2.5488,1.0615c0.6592,0.709,0.9888,1.7051,0.9888,2.9883
			c0,0.0791-0.0024,0.1963-0.0073,0.3516h-5.8008c0.0488,0.8555,0.2905,1.5098,0.7251,1.9629
			c0.4346,0.4551,0.9766,0.6816,1.626,0.6816c0.4834,0,0.896-0.127,1.2378-0.3809S15.5688,26.7891,15.769,26.2324z M11.4404,24.1006
			h4.3433c-0.0586-0.6533-0.2246-1.1445-0.498-1.4717c-0.4199-0.5078-0.9644-0.7617-1.6333-0.7617
			c-0.6055,0-1.1147,0.2031-1.5269,0.6084C11.7124,22.8809,11.4844,23.4229,11.4404,24.1006z"/>
		<path fill="#603813" d="M25.9146,19.5166V18h1.3184v1.5166H25.9146z M25.9146,28.7373V20.959h1.3184v7.7783H25.9146z"/>
		<path fill="#603813" d="M34.2861,28.7373v-0.9814c-0.4932,0.7715-1.2183,1.1572-2.1753,1.1572
			c-0.6201,0-1.1899-0.1709-1.7104-0.5127c-0.5195-0.3418-0.9229-0.8193-1.208-1.4316c-0.2861-0.6133-0.4287-1.3174-0.4287-2.1133
			c0-0.7764,0.1294-1.4805,0.3882-2.1133c0.2588-0.6318,0.647-1.1162,1.1646-1.4541c0.5176-0.3359,1.0962-0.5049,1.7358-0.5049
			c0.4688,0,0.8862,0.0986,1.2524,0.2969c0.3662,0.1973,0.6641,0.4551,0.8936,0.7725V18h1.311v10.7373H34.2861z M30.1187,24.8555
			c0,0.9961,0.21,1.7412,0.6299,2.2334c0.4199,0.4941,0.9155,0.7402,1.4868,0.7402c0.5762,0,1.0654-0.2354,1.4688-0.707
			c0.4023-0.4707,0.604-1.1895,0.604-2.1563c0-1.0645-0.2051-1.8457-0.6152-2.3438s-0.9155-0.748-1.5161-0.748
			c-0.5859,0-1.0757,0.2402-1.4688,0.7188S30.1187,23.8252,30.1187,24.8555z"/>
		<path fill="#603813" d="M42.9067,26.2324l1.3623,0.1689c-0.2148,0.7959-0.6128,1.4131-1.1938,1.8525s-1.3232,0.6592-2.2266,0.6592
			c-1.1377,0-2.0396-0.3506-2.7065-1.0508c-0.666-0.7012-0.9995-1.6836-0.9995-2.9482c0-1.3086,0.3369-2.3242,1.0107-3.0469
			s1.5479-1.084,2.6221-1.084c1.04,0,1.8896,0.3545,2.5488,1.0615c0.6592,0.709,0.9888,1.7051,0.9888,2.9883
			c0,0.0791-0.0024,0.1963-0.0073,0.3516h-5.8008c0.0488,0.8555,0.2905,1.5098,0.7251,1.9629
			c0.4346,0.4551,0.9766,0.6816,1.626,0.6816c0.4834,0,0.896-0.127,1.2378-0.3809S42.7065,26.7891,42.9067,26.2324z
			 M38.5781,24.1006h4.3433c-0.0586-0.6533-0.2246-1.1445-0.498-1.4717c-0.4199-0.5078-0.9644-0.7617-1.6333-0.7617
			c-0.6055,0-1.1147,0.2031-1.5269,0.6084C38.8501,22.8809,38.6221,23.4229,38.5781,24.1006z"/>
		<path fill="#603813" d="M45.9243,28.7373V20.959h1.1865v1.1064c0.5713-0.8545,1.3965-1.2822,2.4756-1.2822
			c0.4688,0,0.8994,0.084,1.2925,0.2529c0.3931,0.168,0.6875,0.3896,0.8828,0.6621c0.1953,0.2744,0.332,0.5986,0.4102,0.9746
			c0.0488,0.2441,0.0732,0.6719,0.0732,1.2813v4.7832h-1.3184v-4.7314c0-0.5371-0.0513-0.9385-0.1538-1.2051
			c-0.1025-0.2656-0.2847-0.4785-0.5454-0.6367c-0.2617-0.1592-0.5679-0.2383-0.9194-0.2383c-0.5615,0-1.0464,0.1787-1.4536,0.5342
			c-0.4082,0.3574-0.6118,1.0332-0.6118,2.0293v4.248H45.9243z"/>
		<path fill="#603813" d="M57.145,27.5576l0.1904,1.165c-0.3711,0.0781-0.7031,0.1172-0.9961,0.1172
			c-0.4785,0-0.8496-0.0762-1.1133-0.2275c-0.2637-0.1504-0.4492-0.3496-0.5566-0.5967c-0.1074-0.2461-0.1611-0.7646-0.1611-1.5557
			v-4.4756h-0.9668V20.959h0.9668v-1.9268l1.311-0.791v2.7178h1.3257v1.0254h-1.3257v4.5479c0,0.377,0.0229,0.6182,0.0698,0.7256
			c0.0459,0.1074,0.1216,0.1934,0.2266,0.2568s0.2554,0.0947,0.4507,0.0947C56.7129,27.6094,56.9058,27.5928,57.145,27.5576z"/>
		<path fill="#603813" d="M58.4414,19.5166V18h1.3184v1.5166H58.4414z M58.4414,28.7373V20.959h1.3184v7.7783H58.4414z"/>
		<path fill="#603813" d="M62.0815,28.7373v-6.7529H60.917V20.959h1.1646v-0.8271c0-0.5225,0.0464-0.9111,0.1392-1.165
			c0.127-0.3418,0.3501-0.6191,0.6704-0.8311c0.3193-0.2129,0.7676-0.3184,1.3438-0.3184c0.3711,0,0.7813,0.043,1.2305,0.1309
			l-0.1978,1.1504c-0.2734-0.0488-0.5322-0.0732-0.7764-0.0732c-0.4004,0-0.6836,0.0859-0.8496,0.2568s-0.249,0.4902-0.249,0.959
			v0.7178h1.5161v1.0254h-1.5161v6.7529H62.0815z"/>
		<path fill="#603813" d="M65.9414,19.5166V18h1.3184v1.5166H65.9414z M65.9414,28.7373V20.959h1.3184v7.7783H65.9414z"/>
		<path fill="#603813" d="M74.3423,25.8877l1.2964,0.1689c-0.1416,0.8936-0.5044,1.5928-1.0874,2.0986
			c-0.584,0.5049-1.3003,0.7578-2.1499,0.7578c-1.0645,0-1.9204-0.3477-2.5669-1.0439c-0.6475-0.6953-0.9707-1.6924-0.9707-2.9912
			c0-0.8398,0.1392-1.5752,0.4175-2.2051s0.7017-1.1025,1.271-1.417c0.5684-0.3154,1.1875-0.4727,1.8564-0.4727
			c0.8447,0,1.5356,0.2139,2.0728,0.6406c0.5371,0.4277,0.8813,1.0342,1.0327,1.8203l-1.2817,0.1982
			c-0.1221-0.5225-0.3384-0.916-0.6479-1.1797c-0.3105-0.2637-0.6851-0.3955-1.1245-0.3955c-0.6641,0-1.2036,0.2383-1.6187,0.7139
			c-0.415,0.4766-0.6226,1.2295-0.6226,2.2598c0,1.0449,0.2002,1.8047,0.6006,2.2773c0.4004,0.4746,0.9229,0.7109,1.5674,0.7109
			c0.5176,0,0.9497-0.1582,1.2964-0.4766C74.0298,27.0361,74.2495,26.5479,74.3423,25.8877z"/>
		<path fill="#603813" d="M81.8423,27.7783c-0.4883,0.415-0.9585,0.708-1.4102,0.8789c-0.4517,0.1699-0.936,0.2559-1.4536,0.2559
			c-0.8545,0-1.5112-0.209-1.9702-0.626c-0.459-0.418-0.6885-0.9512-0.6885-1.6006c0-0.3809,0.0864-0.7285,0.2598-1.0439
			c0.1733-0.3145,0.4004-0.5674,0.6816-0.7578c0.2803-0.1904,0.5967-0.334,0.9482-0.4326c0.2588-0.0674,0.6494-0.1338,1.1719-0.1973
			c1.0645-0.127,1.8481-0.2783,2.3511-0.4541c0.0049-0.1807,0.0073-0.2949,0.0073-0.3447c0-0.5361-0.1245-0.915-0.3735-1.1348
			c-0.3369-0.2979-0.8374-0.4473-1.5015-0.4473c-0.6201,0-1.0781,0.1094-1.373,0.3262c-0.2959,0.2178-0.5142,0.6025-0.6558,1.1543
			l-1.2891-0.1758c0.1172-0.5518,0.3101-0.998,0.5786-1.3369c0.2686-0.3398,0.6567-0.6006,1.1646-0.7842
			c0.5078-0.1826,1.0962-0.2744,1.7651-0.2744c0.6641,0,1.2036,0.0781,1.6187,0.2344s0.7202,0.3525,0.9155,0.5898
			c0.1953,0.2363,0.332,0.5361,0.4102,0.8975c0.0439,0.2246,0.0659,0.6289,0.0659,1.2148v1.7578
			c0,1.2266,0.0278,2.001,0.0845,2.3262c0.0557,0.3242,0.167,0.6357,0.333,0.9336h-1.377
			C81.9692,28.4639,81.8813,28.1436,81.8423,27.7783z M81.7324,24.833c-0.4785,0.1963-1.1963,0.3623-2.1533,0.498
			c-0.542,0.0791-0.9253,0.167-1.1499,0.2637c-0.2246,0.0986-0.3979,0.2412-0.52,0.4287c-0.1221,0.1885-0.1831,0.3975-0.1831,0.626
			c0,0.3516,0.1328,0.6445,0.3994,0.8789c0.2656,0.2344,0.6553,0.3516,1.168,0.3516c0.5078,0,0.9595-0.1104,1.355-0.333
			c0.3955-0.2217,0.686-0.5254,0.8716-0.9111c0.1416-0.2979,0.2124-0.7373,0.2124-1.3184V24.833z"/>
		<path fill="#603813" d="M85.1089,28.7373V20.959h1.1865v1.1064c0.5713-0.8545,1.3965-1.2822,2.4756-1.2822
			c0.4688,0,0.8994,0.084,1.2925,0.2529c0.3931,0.168,0.6875,0.3896,0.8828,0.6621c0.1953,0.2744,0.332,0.5986,0.4102,0.9746
			c0.0488,0.2441,0.0732,0.6719,0.0732,1.2813v4.7832h-1.3184v-4.7314c0-0.5371-0.0513-0.9385-0.1538-1.2051
			c-0.1025-0.2656-0.2847-0.4785-0.5454-0.6367c-0.2617-0.1592-0.5679-0.2383-0.9194-0.2383c-0.5615,0-1.0464,0.1787-1.4536,0.5342
			c-0.4082,0.3574-0.6118,1.0332-0.6118,2.0293v4.248H85.1089z"/>
		<path fill="#603813" d="M100.5132,31.7334l-0.1465-1.2383c0.2881,0.0781,0.54,0.1172,0.7549,0.1172
			c0.293,0,0.5273-0.0488,0.7031-0.1465s0.3193-0.2344,0.4316-0.4102c0.083-0.1318,0.2168-0.459,0.4023-0.9814
			c0.0254-0.0732,0.0645-0.1807,0.1172-0.3223l-2.9512-7.793h1.4209l1.6182,4.5049c0.2109,0.5703,0.3984,1.1719,0.5645,1.8008
			c0.1514-0.6045,0.332-1.1953,0.542-1.7715l1.6631-4.5342h1.3184l-2.959,7.9102c-0.3184,0.8545-0.5645,1.4424-0.7402,1.7646
			c-0.2344,0.4346-0.5029,0.7539-0.8057,0.9561c-0.3027,0.2031-0.6641,0.3037-1.084,0.3037
			C101.1089,31.8936,100.8257,31.8398,100.5132,31.7334z"/>
		<path fill="#603813" d="M120.2388,28.7373v-0.9814c-0.4932,0.7715-1.2188,1.1572-2.1758,1.1572
			c-0.6191,0-1.1895-0.1709-1.71-0.5127c-0.5195-0.3418-0.9229-0.8193-1.208-1.4316c-0.2861-0.6133-0.4287-1.3174-0.4287-2.1133
			c0-0.7764,0.1299-1.4805,0.3877-2.1133c0.2598-0.6318,0.6475-1.1162,1.165-1.4541c0.5176-0.3359,1.0967-0.5049,1.7354-0.5049
			c0.4688,0,0.8867,0.0986,1.2529,0.2969c0.3662,0.1973,0.6641,0.4551,0.8936,0.7725V18h1.3105v10.7373H120.2388z M116.0708,24.8555
			c0,0.9961,0.2109,1.7412,0.6309,2.2334c0.4199,0.4941,0.915,0.7402,1.4863,0.7402c0.5762,0,1.0654-0.2354,1.4688-0.707
			c0.4023-0.4707,0.6035-1.1895,0.6035-2.1563c0-1.0645-0.2051-1.8457-0.6152-2.3438s-0.915-0.748-1.5156-0.748
			c-0.5859,0-1.0762,0.2402-1.4688,0.7188S116.0708,23.8252,116.0708,24.8555z"/>
		<path fill="#603813" d="M123.0435,24.8486c0-1.4404,0.4004-2.5078,1.2012-3.2012c0.6699-0.5762,1.4844-0.8643,2.4473-0.8643
			c1.0684,0,1.9434,0.3506,2.6211,1.0508c0.6797,0.7012,1.0186,1.6689,1.0186,2.9043c0,1.001-0.1494,1.7881-0.4502,2.3623
			c-0.3008,0.5732-0.7383,1.0195-1.3105,1.3359c-0.5742,0.3174-1.2012,0.4766-1.8789,0.4766c-1.0898,0-1.9697-0.3486-2.6406-1.0469
			C123.3794,27.168,123.0435,26.1621,123.0435,24.8486z M124.3989,24.8486c0,0.9961,0.2168,1.7412,0.6523,2.2373
			c0.4336,0.4951,0.9805,0.7432,1.6406,0.7432c0.6543,0,1.1982-0.249,1.6328-0.7471s0.6523-1.2568,0.6523-2.2783
			c0-0.9609-0.2188-1.6904-0.6563-2.1855c-0.4375-0.4961-0.9805-0.7441-1.6289-0.7441c-0.6602,0-1.207,0.2471-1.6406,0.7402
			C124.6157,23.1074,124.3989,23.8525,124.3989,24.8486z"/>
		<path fill="#603813" d="M136.9526,25.8877l1.2959,0.1689c-0.1406,0.8936-0.5039,1.5928-1.0869,2.0986
			c-0.584,0.5049-1.2998,0.7578-2.1494,0.7578c-1.0645,0-1.9209-0.3477-2.5674-1.0439c-0.6475-0.6953-0.9707-1.6924-0.9707-2.9912
			c0-0.8398,0.1396-1.5752,0.417-2.2051c0.2793-0.6299,0.7021-1.1025,1.2715-1.417c0.5684-0.3154,1.1875-0.4727,1.8564-0.4727
			c0.8447,0,1.5361,0.2139,2.0732,0.6406c0.5371,0.4277,0.8809,1.0342,1.0322,1.8203l-1.2822,0.1982
			c-0.1211-0.5225-0.3379-0.916-0.6475-1.1797c-0.3105-0.2637-0.6846-0.3955-1.124-0.3955c-0.6641,0-1.2041,0.2383-1.6191,0.7139
			c-0.415,0.4766-0.623,1.2295-0.623,2.2598c0,1.0449,0.2012,1.8047,0.6016,2.2773c0.4004,0.4746,0.9219,0.7109,1.5664,0.7109
			c0.5176,0,0.9502-0.1582,1.2969-0.4766C136.6401,27.0361,136.8599,26.5479,136.9526,25.8877z"/>
		<path fill="#603813" d="M144.4751,28.7373v-1.1426c-0.6055,0.8789-1.4287,1.3184-2.4688,1.3184
			c-0.459,0-0.8877-0.0879-1.2852-0.2637c-0.3984-0.1758-0.6934-0.3965-0.8867-0.6631c-0.1934-0.2656-0.3281-0.5918-0.4063-0.9775
			c-0.0537-0.2588-0.0801-0.6689-0.0801-1.2305V20.959h1.3184v4.3135c0,0.6895,0.0264,1.1533,0.0801,1.3926
			c0.083,0.3467,0.2588,0.6182,0.5273,0.8164c0.2686,0.1973,0.6006,0.2969,0.9961,0.2969s0.7666-0.1016,1.1133-0.3047
			c0.3467-0.2021,0.5918-0.4785,0.7363-0.8271c0.1436-0.3496,0.2158-0.8555,0.2158-1.5205v-4.167h1.3184v7.7783H144.4751z"/>
		<path fill="#603813" d="M147.7192,28.7373V20.959h1.1797v1.0908c0.2441-0.3809,0.5684-0.6865,0.9736-0.9189
			c0.4053-0.2314,0.8662-0.3477,1.3838-0.3477c0.5762,0,1.0488,0.1201,1.418,0.3584c0.3682,0.2402,0.6289,0.5742,0.7793,1.0039
			c0.6152-0.9082,1.416-1.3623,2.4023-1.3623c0.7715,0,1.3652,0.2139,1.7803,0.6406c0.415,0.4277,0.6221,1.0859,0.6221,1.9736
			v5.3398h-1.3105v-4.9004c0-0.5273-0.043-0.9063-0.1289-1.1387c-0.085-0.2314-0.2402-0.418-0.4648-0.5605
			c-0.2246-0.1406-0.4883-0.2119-0.791-0.2119c-0.5469,0-1,0.1816-1.3613,0.5459c-0.3613,0.3633-0.543,0.9463-0.543,1.7461v4.5195
			h-1.3184v-5.0537c0-0.5859-0.1074-1.0254-0.3223-1.3184s-0.5664-0.4395-1.0547-0.4395c-0.3711,0-0.7129,0.0977-1.0293,0.293
			c-0.3145,0.1953-0.543,0.4814-0.6836,0.8564c-0.1426,0.377-0.2129,0.9189-0.2129,1.627v4.0352H147.7192z"/>
		<path fill="#603813" d="M165.5396,26.2324l1.3613,0.1689c-0.2148,0.7959-0.6123,1.4131-1.1934,1.8525
			s-1.3232,0.6592-2.2266,0.6592c-1.1377,0-2.0391-0.3506-2.707-1.0508c-0.666-0.7012-0.999-1.6836-0.999-2.9482
			c0-1.3086,0.3369-2.3242,1.0107-3.0469s1.5479-1.084,2.6221-1.084c1.04,0,1.8896,0.3545,2.5488,1.0615
			c0.6592,0.709,0.9893,1.7051,0.9893,2.9883c0,0.0791-0.0029,0.1963-0.0078,0.3516h-5.8008
			c0.0488,0.8555,0.291,1.5098,0.7246,1.9629c0.4355,0.4551,0.9766,0.6816,1.627,0.6816c0.4824,0,0.8955-0.127,1.2373-0.3809
			S165.3384,26.7891,165.5396,26.2324z M161.2104,24.1006h4.3428c-0.0586-0.6533-0.2246-1.1445-0.498-1.4717
			c-0.4199-0.5078-0.9639-0.7617-1.6328-0.7617c-0.6055,0-1.1152,0.2031-1.5273,0.6084S161.2544,23.4229,161.2104,24.1006z"/>
		<path fill="#603813" d="M168.5571,28.7373V20.959h1.1855v1.1064c0.5723-0.8545,1.3965-1.2822,2.4766-1.2822
			c0.4688,0,0.8984,0.084,1.292,0.2529c0.3936,0.168,0.6875,0.3896,0.8828,0.6621c0.1953,0.2744,0.332,0.5986,0.4102,0.9746
			c0.0488,0.2441,0.0732,0.6719,0.0732,1.2813v4.7832h-1.3184v-4.7314c0-0.5371-0.0508-0.9385-0.1543-1.2051
			c-0.1016-0.2656-0.2842-0.4785-0.5449-0.6367c-0.2617-0.1592-0.5684-0.2383-0.9199-0.2383c-0.5605,0-1.0459,0.1787-1.4531,0.5342
			c-0.4082,0.3574-0.6113,1.0332-0.6113,2.0293v4.248H168.5571z"/>
		<path fill="#603813" d="M179.7778,27.5576l0.1895,1.165c-0.3711,0.0781-0.7031,0.1172-0.9961,0.1172
			c-0.4785,0-0.8496-0.0762-1.1133-0.2275c-0.2637-0.1504-0.4492-0.3496-0.5566-0.5967c-0.1074-0.2461-0.1602-0.7646-0.1602-1.5557
			v-4.4756h-0.9668V20.959h0.9668v-1.9268l1.3105-0.791v2.7178h1.3262v1.0254h-1.3262v4.5479c0,0.377,0.0234,0.6182,0.0703,0.7256
			c0.0449,0.1074,0.1211,0.1934,0.2266,0.2568c0.1045,0.0635,0.2549,0.0947,0.4502,0.0947
			C179.3452,27.6094,179.5376,27.5928,179.7778,27.5576z"/>
		<path fill="#603813" d="M186.1421,27.7783c-0.4883,0.415-0.958,0.708-1.4102,0.8789c-0.4521,0.1699-0.9365,0.2559-1.4541,0.2559
			c-0.8535,0-1.5107-0.209-1.9697-0.626c-0.459-0.418-0.6885-0.9512-0.6885-1.6006c0-0.3809,0.0859-0.7285,0.2598-1.0439
			c0.1738-0.3145,0.4004-0.5674,0.6816-0.7578c0.2803-0.1904,0.5967-0.334,0.9482-0.4326c0.2588-0.0674,0.6494-0.1338,1.1719-0.1973
			c1.0645-0.127,1.8486-0.2783,2.3506-0.4541c0.0059-0.1807,0.0078-0.2949,0.0078-0.3447c0-0.5361-0.125-0.915-0.373-1.1348
			c-0.3379-0.2979-0.8379-0.4473-1.502-0.4473c-0.6201,0-1.0781,0.1094-1.373,0.3262c-0.2959,0.2178-0.5137,0.6025-0.6563,1.1543
			l-1.2891-0.1758c0.1172-0.5518,0.3105-0.998,0.5791-1.3369c0.2686-0.3398,0.6572-0.6006,1.165-0.7842
			c0.5078-0.1826,1.0957-0.2744,1.7646-0.2744c0.6641,0,1.2041,0.0781,1.6182,0.2344c0.416,0.1563,0.7207,0.3525,0.916,0.5898
			c0.1953,0.2363,0.332,0.5361,0.4102,0.8975c0.0439,0.2246,0.0664,0.6289,0.0664,1.2148v1.7578c0,1.2266,0.0273,2.001,0.084,2.3262
			c0.0557,0.3242,0.167,0.6357,0.333,0.9336h-1.377C186.269,28.4639,186.1812,28.1436,186.1421,27.7783z M186.0317,24.833
			c-0.4785,0.1963-1.1953,0.3623-2.1523,0.498c-0.543,0.0791-0.9258,0.167-1.1504,0.2637
			c-0.2246,0.0986-0.3984,0.2412-0.5195,0.4287c-0.123,0.1885-0.1836,0.3975-0.1836,0.626c0,0.3516,0.1328,0.6445,0.3994,0.8789
			c0.2656,0.2344,0.6553,0.3516,1.168,0.3516c0.5078,0,0.96-0.1104,1.3545-0.333c0.3965-0.2217,0.6865-0.5254,0.8721-0.9111
			c0.1416-0.2979,0.2119-0.7373,0.2119-1.3184V24.833z"/>
		<path fill="#603813" d="M189.4087,28.7373V20.959h1.1865v1.1064c0.5713-0.8545,1.3965-1.2822,2.4756-1.2822
			c0.4688,0,0.8994,0.084,1.293,0.2529c0.3926,0.168,0.6875,0.3896,0.8828,0.6621c0.1953,0.2744,0.332,0.5986,0.4102,0.9746
			c0.0488,0.2441,0.0723,0.6719,0.0723,1.2813v4.7832h-1.3184v-4.7314c0-0.5371-0.0508-0.9385-0.1533-1.2051
			c-0.1025-0.2656-0.2842-0.4785-0.5459-0.6367c-0.2617-0.1592-0.5674-0.2383-0.9189-0.2383c-0.5615,0-1.0459,0.1787-1.4541,0.5342
			c-0.4082,0.3574-0.6113,1.0332-0.6113,2.0293v4.248H189.4087z"/>
		<path fill="#603813" d="M0.4102,46.7373V36h1.3184v10.7373H0.4102z"/>
		<path fill="#603813" d="M3.2813,42.8486c0-1.4404,0.4004-2.5078,1.2012-3.2012c0.6689-0.5762,1.4844-0.8643,2.4463-0.8643
			c1.0693,0,1.9434,0.3506,2.6221,1.0508c0.6787,0.7012,1.0181,1.6689,1.0181,2.9043c0,1.001-0.1499,1.7881-0.4507,2.3623
			c-0.2998,0.5732-0.7373,1.0195-1.3105,1.3359c-0.5742,0.3174-1.2002,0.4766-1.8789,0.4766c-1.0889,0-1.9692-0.3486-2.6406-1.0469
			S3.2813,44.1621,3.2813,42.8486z M4.6362,42.8486c0,0.9961,0.2173,1.7412,0.6519,2.2373
			c0.4346,0.4951,0.9814,0.7432,1.6406,0.7432c0.6543,0,1.1987-0.249,1.6333-0.7471s0.6519-1.2568,0.6519-2.2783
			c0-0.9609-0.2188-1.6904-0.6553-2.1855c-0.4375-0.4961-0.9805-0.7441-1.6299-0.7441c-0.6592,0-1.2061,0.2471-1.6406,0.7402
			S4.6362,41.8525,4.6362,42.8486z"/>
		<path fill="#603813" d="M11.5869,44.415l1.3037-0.2051c0.0732,0.5234,0.2769,0.9238,0.6118,1.2012
			c0.334,0.2793,0.8018,0.418,1.4023,0.418c0.6055,0,1.0547-0.123,1.3477-0.3701c0.293-0.2461,0.4395-0.5352,0.4395-0.8682
			c0-0.2969-0.1294-0.5313-0.3882-0.7031c-0.1807-0.1172-0.6299-0.2656-1.3477-0.4463c-0.9668-0.2441-1.6372-0.4551-2.0103-0.6338
			c-0.374-0.1777-0.6572-0.4248-0.8496-0.7393c-0.1934-0.3154-0.2896-0.6631-0.2896-1.0439c0-0.3467,0.0791-0.668,0.2378-0.9629
			c0.1587-0.2959,0.375-0.541,0.6484-0.7363c0.2051-0.1514,0.4844-0.2793,0.8389-0.3848c0.3535-0.1045,0.7334-0.1572,1.1387-0.1572
			c0.6104,0,1.1465,0.0879,1.6074,0.2637c0.4619,0.1758,0.8022,0.4141,1.022,0.7139c0.2197,0.3008,0.3711,0.7021,0.4541,1.2051
			l-1.2891,0.1758c-0.0586-0.4004-0.2285-0.7129-0.5093-0.9375s-0.6772-0.3369-1.1899-0.3369c-0.6055,0-1.0376,0.1006-1.2964,0.2998
			c-0.2588,0.2012-0.3882,0.4355-0.3882,0.7031c0,0.1719,0.0537,0.3252,0.1611,0.4619c0.1074,0.1416,0.2759,0.2588,0.5054,0.3516
			c0.1318,0.0488,0.52,0.1611,1.1646,0.3369c0.9326,0.249,1.583,0.4531,1.9517,0.6113c0.3687,0.1592,0.6582,0.3896,0.8682,0.6924
			s0.3149,0.6787,0.3149,1.1279c0,0.4395-0.1284,0.8535-0.3843,1.2412c-0.2568,0.3887-0.6265,0.6885-1.1099,0.9014
			c-0.4834,0.2119-1.0303,0.3184-1.6406,0.3184c-1.0107,0-1.7813-0.21-2.311-0.6299S11.7334,45.2412,11.5869,44.415z"/>
		<path fill="#603813" d="M26.7739,44.415l1.3037-0.2051c0.0732,0.5234,0.2769,0.9238,0.6118,1.2012
			c0.334,0.2793,0.8018,0.418,1.4023,0.418c0.6055,0,1.0547-0.123,1.3477-0.3701c0.293-0.2461,0.4395-0.5352,0.4395-0.8682
			c0-0.2969-0.1294-0.5313-0.3882-0.7031c-0.1807-0.1172-0.6299-0.2656-1.3477-0.4463c-0.9668-0.2441-1.6372-0.4551-2.0103-0.6338
			c-0.374-0.1777-0.6572-0.4248-0.8496-0.7393c-0.1934-0.3154-0.2896-0.6631-0.2896-1.0439c0-0.3467,0.0791-0.668,0.2378-0.9629
			c0.1587-0.2959,0.375-0.541,0.6484-0.7363c0.2051-0.1514,0.4844-0.2793,0.8389-0.3848c0.3535-0.1045,0.7334-0.1572,1.1387-0.1572
			c0.6104,0,1.1465,0.0879,1.6074,0.2637c0.4619,0.1758,0.8022,0.4141,1.022,0.7139c0.2197,0.3008,0.3711,0.7021,0.4541,1.2051
			l-1.2891,0.1758c-0.0586-0.4004-0.2285-0.7129-0.5093-0.9375s-0.6772-0.3369-1.1899-0.3369c-0.6055,0-1.0376,0.1006-1.2964,0.2998
			c-0.2588,0.2012-0.3882,0.4355-0.3882,0.7031c0,0.1719,0.0537,0.3252,0.1611,0.4619c0.1074,0.1416,0.2759,0.2588,0.5054,0.3516
			c0.1318,0.0488,0.52,0.1611,1.1646,0.3369c0.9326,0.249,1.583,0.4531,1.9517,0.6113c0.3687,0.1592,0.6582,0.3896,0.8682,0.6924
			s0.3149,0.6787,0.3149,1.1279c0,0.4395-0.1284,0.8535-0.3843,1.2412c-0.2568,0.3887-0.6265,0.6885-1.1099,0.9014
			c-0.4834,0.2119-1.0303,0.3184-1.6406,0.3184c-1.0107,0-1.7813-0.21-2.311-0.6299S26.9204,45.2412,26.7739,44.415z"/>
		<path fill="#603813" d="M39.8989,46.7373v-1.1426c-0.6055,0.8789-1.4282,1.3184-2.4683,1.3184
			c-0.459,0-0.8877-0.0879-1.2852-0.2637c-0.3984-0.1758-0.6938-0.3965-0.8867-0.6631c-0.1929-0.2656-0.3281-0.5918-0.4063-0.9775
			c-0.0537-0.2588-0.0806-0.6689-0.0806-1.2305V38.959h1.3184v4.3135c0,0.6895,0.0269,1.1533,0.0806,1.3926
			c0.083,0.3467,0.2588,0.6182,0.5273,0.8164c0.2686,0.1973,0.6006,0.2969,0.9961,0.2969s0.7666-0.1016,1.1133-0.3047
			c0.3467-0.2021,0.5918-0.4785,0.7363-0.8271c0.1436-0.3496,0.2158-0.8555,0.2158-1.5205v-4.167h1.3184v7.7783H39.8989z"/>
		<path fill="#603813" d="M44.3594,46.7373h-1.2231V36h1.3184v3.8311c0.5566-0.6982,1.2671-1.0479,2.1313-1.0479
			c0.4785,0,0.9312,0.0967,1.3589,0.2891c0.4268,0.1934,0.7783,0.4639,1.0547,0.8135c0.2754,0.3486,0.4917,0.7705,0.6479,1.2637
			s0.2344,1.0205,0.2344,1.582c0,1.332-0.3296,2.3633-0.9888,3.0898c-0.6592,0.7285-1.4502,1.0918-2.373,1.0918
			c-0.918,0-1.6382-0.3828-2.1606-1.1504V46.7373z M44.3447,42.79c0,0.9326,0.127,1.6064,0.3809,2.0215
			c0.415,0.6787,0.9766,1.0176,1.6846,1.0176c0.5762,0,1.0742-0.25,1.4941-0.751c0.4199-0.5,0.6299-1.2461,0.6299-2.2373
			c0-1.0156-0.2017-1.7656-0.604-2.248c-0.4033-0.4844-0.8901-0.7256-1.4614-0.7256c-0.5762,0-1.0742,0.25-1.4941,0.751
			C44.5547,41.1182,44.3447,41.8428,44.3447,42.79z"/>
		<path fill="#603813" d="M50.9585,44.415l1.3037-0.2051c0.0732,0.5234,0.2769,0.9238,0.6118,1.2012
			c0.334,0.2793,0.8018,0.418,1.4023,0.418c0.6055,0,1.0547-0.123,1.3477-0.3701c0.293-0.2461,0.4395-0.5352,0.4395-0.8682
			c0-0.2969-0.1294-0.5313-0.3882-0.7031c-0.1807-0.1172-0.6299-0.2656-1.3477-0.4463c-0.9668-0.2441-1.6372-0.4551-2.0103-0.6338
			c-0.374-0.1777-0.6572-0.4248-0.8496-0.7393c-0.1934-0.3154-0.2896-0.6631-0.2896-1.0439c0-0.3467,0.0791-0.668,0.2378-0.9629
			c0.1587-0.2959,0.375-0.541,0.6484-0.7363c0.2051-0.1514,0.4844-0.2793,0.8389-0.3848c0.3535-0.1045,0.7334-0.1572,1.1387-0.1572
			c0.6104,0,1.1465,0.0879,1.6074,0.2637c0.4619,0.1758,0.8022,0.4141,1.022,0.7139c0.2197,0.3008,0.3711,0.7021,0.4541,1.2051
			l-1.2891,0.1758c-0.0586-0.4004-0.2285-0.7129-0.5093-0.9375s-0.6772-0.3369-1.1899-0.3369c-0.6055,0-1.0376,0.1006-1.2964,0.2998
			c-0.2588,0.2012-0.3882,0.4355-0.3882,0.7031c0,0.1719,0.0537,0.3252,0.1611,0.4619c0.1074,0.1416,0.2759,0.2588,0.5054,0.3516
			c0.1318,0.0488,0.52,0.1611,1.1646,0.3369c0.9326,0.249,1.583,0.4531,1.9517,0.6113c0.3687,0.1592,0.6582,0.3896,0.8682,0.6924
			s0.3149,0.6787,0.3149,1.1279c0,0.4395-0.1284,0.8535-0.3843,1.2412c-0.2568,0.3887-0.6265,0.6885-1.1099,0.9014
			c-0.4834,0.2119-1.0303,0.3184-1.6406,0.3184c-1.0107,0-1.7813-0.21-2.311-0.6299S51.105,45.2412,50.9585,44.415z"/>
		<path fill="#603813" d="M58.9932,37.5166V36h1.3184v1.5166H58.9932z M58.9932,46.7373V38.959h1.3184v7.7783H58.9932z"/>
		<path fill="#603813" d="M61.791,44.415l1.3037-0.2051c0.0732,0.5234,0.2769,0.9238,0.6118,1.2012
			c0.334,0.2793,0.8018,0.418,1.4023,0.418c0.6055,0,1.0547-0.123,1.3477-0.3701c0.293-0.2461,0.4395-0.5352,0.4395-0.8682
			c0-0.2969-0.1294-0.5313-0.3882-0.7031c-0.1807-0.1172-0.6299-0.2656-1.3477-0.4463c-0.9668-0.2441-1.6372-0.4551-2.0103-0.6338
			c-0.374-0.1777-0.6572-0.4248-0.8496-0.7393c-0.1934-0.3154-0.2896-0.6631-0.2896-1.0439c0-0.3467,0.0791-0.668,0.2378-0.9629
			c0.1587-0.2959,0.375-0.541,0.6484-0.7363c0.2051-0.1514,0.4844-0.2793,0.8389-0.3848c0.3535-0.1045,0.7334-0.1572,1.1387-0.1572
			c0.6104,0,1.1465,0.0879,1.6074,0.2637c0.4619,0.1758,0.8022,0.4141,1.022,0.7139c0.2197,0.3008,0.3711,0.7021,0.4541,1.2051
			l-1.2891,0.1758c-0.0586-0.4004-0.2285-0.7129-0.5093-0.9375s-0.6772-0.3369-1.1899-0.3369c-0.6055,0-1.0376,0.1006-1.2964,0.2998
			c-0.2588,0.2012-0.3882,0.4355-0.3882,0.7031c0,0.1719,0.0537,0.3252,0.1611,0.4619c0.1074,0.1416,0.2759,0.2588,0.5054,0.3516
			c0.1318,0.0488,0.52,0.1611,1.1646,0.3369c0.9326,0.249,1.583,0.4531,1.9517,0.6113c0.3687,0.1592,0.6582,0.3896,0.8682,0.6924
			s0.3149,0.6787,0.3149,1.1279c0,0.4395-0.1284,0.8535-0.3843,1.2412c-0.2568,0.3887-0.6265,0.6885-1.1099,0.9014
			c-0.4834,0.2119-1.0303,0.3184-1.6406,0.3184c-1.0107,0-1.7813-0.21-2.311-0.6299S61.9375,45.2412,61.791,44.415z"/>
		<path fill="#603813" d="M72.6968,45.5576l0.1904,1.165c-0.3711,0.0781-0.7031,0.1172-0.9961,0.1172
			c-0.4785,0-0.8496-0.0762-1.1133-0.2275c-0.2637-0.1504-0.4492-0.3496-0.5566-0.5967c-0.1074-0.2461-0.1611-0.7646-0.1611-1.5557
			v-4.4756h-0.9668V38.959h0.9668v-1.9268l1.311-0.791v2.7178h1.3257v1.0254h-1.3257v4.5479c0,0.377,0.0229,0.6182,0.0698,0.7256
			c0.0459,0.1074,0.1216,0.1934,0.2266,0.2568s0.2554,0.0947,0.4507,0.0947C72.2646,45.6094,72.4575,45.5928,72.6968,45.5576z"/>
		<path fill="#603813" d="M79.3105,44.2324l1.3623,0.1689c-0.2148,0.7959-0.6128,1.4131-1.1938,1.8525s-1.3232,0.6592-2.2266,0.6592
			c-1.1377,0-2.0396-0.3506-2.7065-1.0508c-0.666-0.7012-0.9995-1.6836-0.9995-2.9482c0-1.3086,0.3369-2.3242,1.0107-3.0469
			s1.5479-1.084,2.6221-1.084c1.04,0,1.8896,0.3545,2.5488,1.0615c0.6592,0.709,0.9888,1.7051,0.9888,2.9883
			c0,0.0791-0.0024,0.1963-0.0073,0.3516h-5.8008c0.0488,0.8555,0.2905,1.5098,0.7251,1.9629
			c0.4346,0.4551,0.9766,0.6816,1.626,0.6816c0.4834,0,0.896-0.127,1.2378-0.3809S79.1104,44.7891,79.3105,44.2324z
			 M74.9819,42.1006h4.3433c-0.0586-0.6533-0.2246-1.1445-0.498-1.4717c-0.4199-0.5078-0.9644-0.7617-1.6333-0.7617
			c-0.6055,0-1.1147,0.2031-1.5269,0.6084C75.2539,40.8809,75.0259,41.4229,74.9819,42.1006z"/>
		<path fill="#603813" d="M82.3281,46.7373V38.959h1.1792v1.0908c0.2441-0.3809,0.5688-0.6865,0.9741-0.9189
			c0.4053-0.2314,0.8667-0.3477,1.3843-0.3477c0.5762,0,1.0483,0.1201,1.417,0.3584c0.3687,0.2402,0.6289,0.5742,0.7803,1.0039
			c0.6152-0.9082,1.416-1.3623,2.4023-1.3623c0.7715,0,1.3647,0.2139,1.7798,0.6406c0.4155,0.4277,0.6226,1.0859,0.6226,1.9736
			v5.3398h-1.311v-4.9004c0-0.5273-0.043-0.9063-0.1284-1.1387c-0.0854-0.2314-0.2402-0.418-0.4648-0.5605
			c-0.2246-0.1406-0.4883-0.2119-0.791-0.2119c-0.5469,0-1.001,0.1816-1.3623,0.5459c-0.3613,0.3633-0.542,0.9463-0.542,1.7461
			v4.5195h-1.3184v-5.0537c0-0.5859-0.1074-1.0254-0.3223-1.3184s-0.5664-0.4395-1.0547-0.4395
			c-0.3711,0-0.7139,0.0977-1.0293,0.293c-0.3145,0.1953-0.543,0.4814-0.6846,0.8564c-0.1416,0.377-0.2124,0.9189-0.2124,1.627
			v4.0352H82.3281z"/>
		<path fill="#603813" d="M99.8989,45.7783c-0.4883,0.415-0.959,0.708-1.4102,0.8789c-0.4512,0.1699-0.9355,0.2559-1.4531,0.2559
			c-0.8555,0-1.5117-0.209-1.9707-0.626c-0.459-0.418-0.6885-0.9512-0.6885-1.6006c0-0.3809,0.0869-0.7285,0.2598-1.0439
			c0.1729-0.3145,0.4004-0.5674,0.6816-0.7578c0.2803-0.1904,0.5967-0.334,0.9482-0.4326c0.2588-0.0674,0.6494-0.1338,1.1719-0.1973
			c1.0645-0.127,1.8477-0.2783,2.3516-0.4541c0.0039-0.1807,0.0068-0.2949,0.0068-0.3447c0-0.5361-0.124-0.915-0.374-1.1348
			c-0.3359-0.2979-0.8369-0.4473-1.501-0.4473c-0.6201,0-1.0781,0.1094-1.373,0.3262c-0.2959,0.2178-0.5146,0.6025-0.6553,1.1543
			l-1.2891-0.1758c0.1172-0.5518,0.3096-0.998,0.5781-1.3369c0.2686-0.3398,0.6563-0.6006,1.1641-0.7842
			c0.5078-0.1826,1.0967-0.2744,1.7656-0.2744c0.6641,0,1.2031,0.0781,1.6191,0.2344c0.4141,0.1563,0.7197,0.3525,0.915,0.5898
			c0.1953,0.2363,0.332,0.5361,0.4102,0.8975c0.0439,0.2246,0.0654,0.6289,0.0654,1.2148v1.7578c0,1.2266,0.0283,2.001,0.085,2.3262
			c0.0557,0.3242,0.167,0.6357,0.333,0.9336h-1.377C100.0259,46.4639,99.938,46.1436,99.8989,45.7783z M99.7896,42.833
			c-0.4785,0.1963-1.1973,0.3623-2.1543,0.498c-0.541,0.0791-0.9248,0.167-1.1494,0.2637
			c-0.2246,0.0986-0.3975,0.2412-0.5205,0.4287c-0.1211,0.1885-0.1826,0.3975-0.1826,0.626c0,0.3516,0.1328,0.6445,0.3994,0.8789
			c0.2656,0.2344,0.6553,0.3516,1.168,0.3516c0.5078,0,0.959-0.1104,1.3555-0.333c0.3945-0.2217,0.6855-0.5254,0.8711-0.9111
			c0.1416-0.2979,0.2129-0.7373,0.2129-1.3184V42.833z"/>
		<path fill="#603813" d="M102.6382,44.415l1.3037-0.2051c0.0732,0.5234,0.2773,0.9238,0.6113,1.2012
			c0.334,0.2793,0.8027,0.418,1.4023,0.418c0.6055,0,1.0547-0.123,1.3477-0.3701c0.293-0.2461,0.4395-0.5352,0.4395-0.8682
			c0-0.2969-0.1289-0.5313-0.3877-0.7031c-0.1807-0.1172-0.6299-0.2656-1.3477-0.4463c-0.9668-0.2441-1.6377-0.4551-2.0107-0.6338
			c-0.373-0.1777-0.6563-0.4248-0.8496-0.7393c-0.1934-0.3154-0.2891-0.6631-0.2891-1.0439c0-0.3467,0.0791-0.668,0.2383-0.9629
			c0.1582-0.2959,0.375-0.541,0.6484-0.7363c0.2051-0.1514,0.4844-0.2793,0.8379-0.3848c0.3535-0.1045,0.7344-0.1572,1.1387-0.1572
			c0.6113,0,1.1465,0.0879,1.6074,0.2637c0.4629,0.1758,0.8027,0.4141,1.0225,0.7139c0.2197,0.3008,0.3711,0.7021,0.4541,1.2051
			l-1.2891,0.1758c-0.0586-0.4004-0.2285-0.7129-0.5098-0.9375c-0.2803-0.2246-0.6768-0.3369-1.1895-0.3369
			c-0.6055,0-1.0371,0.1006-1.2969,0.2998c-0.2578,0.2012-0.3877,0.4355-0.3877,0.7031c0,0.1719,0.0537,0.3252,0.1611,0.4619
			c0.1074,0.1416,0.2754,0.2588,0.5059,0.3516c0.1309,0.0488,0.5195,0.1611,1.1641,0.3369c0.9326,0.249,1.583,0.4531,1.9512,0.6113
			c0.3691,0.1592,0.6582,0.3896,0.8691,0.6924c0.209,0.3027,0.3145,0.6787,0.3145,1.1279c0,0.4395-0.1289,0.8535-0.3848,1.2412
			c-0.2559,0.3887-0.626,0.6885-1.1094,0.9014c-0.4834,0.2119-1.0303,0.3184-1.6406,0.3184c-1.0107,0-1.7813-0.21-2.3105-0.6299
			C103.1226,45.8633,102.7847,45.2412,102.6382,44.415z"/>
		<path fill="#603813" d="M123.311,49.7178v-3.8086c-0.2051,0.2891-0.4922,0.5273-0.8604,0.7188
			c-0.3691,0.1895-0.7607,0.2852-1.1758,0.2852c-0.9229,0-1.7178-0.3682-2.3838-1.1055c-0.667-0.7373-1-1.748-1-3.0332
			c0-0.7803,0.1357-1.4814,0.4063-2.1016c0.2715-0.6201,0.6641-1.0898,1.1797-1.4102c0.5146-0.3193,1.0801-0.4795,1.6953-0.4795
			c0.9619,0,1.7188,0.4053,2.2705,1.2158v-1.04h1.1865v10.7588H123.311z M119.2466,42.8262c0,1.001,0.209,1.752,0.6289,2.252
			c0.4199,0.501,0.9238,0.751,1.5098,0.751c0.5605,0,1.0449-0.2383,1.4492-0.7139c0.4063-0.4766,0.6084-1.2002,0.6084-2.1719
			c0-1.0352-0.2139-1.8135-0.6406-2.3369c-0.4277-0.5215-0.9287-0.7832-1.5049-0.7832c-0.5723,0-1.0566,0.2432-1.4541,0.7285
			C119.4448,41.0381,119.2466,41.7959,119.2466,42.8262z"/>
		<path fill="#603813" d="M131.7925,46.7373v-1.1426c-0.6055,0.8789-1.4287,1.3184-2.4678,1.3184
			c-0.459,0-0.8887-0.0879-1.2852-0.2637c-0.3984-0.1758-0.6943-0.3965-0.8867-0.6631c-0.1934-0.2656-0.3281-0.5918-0.4063-0.9775
			c-0.0547-0.2588-0.0811-0.6689-0.0811-1.2305V38.959h1.3184v4.3135c0,0.6895,0.0264,1.1533,0.0811,1.3926
			c0.082,0.3467,0.2578,0.6182,0.5273,0.8164c0.2676,0.1973,0.5996,0.2969,0.9961,0.2969c0.3945,0,0.7656-0.1016,1.1133-0.3047
			c0.3457-0.2021,0.5918-0.4785,0.7363-0.8271c0.1426-0.3496,0.2148-0.8555,0.2148-1.5205v-4.167h1.3184v7.7783H131.7925z"/>
		<path fill="#603813" d="M140.3618,44.2324l1.3623,0.1689c-0.2148,0.7959-0.6123,1.4131-1.1943,1.8525
			c-0.5801,0.4395-1.3223,0.6592-2.2266,0.6592c-1.1367,0-2.0391-0.3506-2.7061-1.0508c-0.666-0.7012-0.999-1.6836-0.999-2.9482
			c0-1.3086,0.3359-2.3242,1.0098-3.0469s1.5488-1.084,2.623-1.084c1.0391,0,1.8887,0.3545,2.5488,1.0615
			c0.6582,0.709,0.9883,1.7051,0.9883,2.9883c0,0.0791-0.002,0.1963-0.0078,0.3516h-5.8008
			c0.0488,0.8555,0.291,1.5098,0.7256,1.9629c0.4346,0.4551,0.9766,0.6816,1.626,0.6816c0.4834,0,0.8965-0.127,1.2383-0.3809
			S140.1616,44.7891,140.3618,44.2324z M136.0337,42.1006h4.3428c-0.0586-0.6533-0.2246-1.1445-0.498-1.4717
			c-0.4199-0.5078-0.9639-0.7617-1.6338-0.7617c-0.6055,0-1.1143,0.2031-1.5264,0.6084
			C136.3052,40.8809,136.0767,41.4229,136.0337,42.1006z"/>
		<path fill="#603813" d="M151.3813,46.7373v-6.7529h-1.1641V38.959h1.1641v-0.8271c0-0.5225,0.0469-0.9111,0.1387-1.165
			c0.127-0.3418,0.3506-0.6191,0.6709-0.8311c0.3193-0.2129,0.7676-0.3184,1.3438-0.3184c0.3711,0,0.7813,0.043,1.2305,0.1309
			l-0.1982,1.1504c-0.2734-0.0488-0.5313-0.0732-0.7754-0.0732c-0.4004,0-0.6836,0.0859-0.8496,0.2568s-0.25,0.4902-0.25,0.959
			v0.7178h1.5166v1.0254h-1.5166v6.7529H151.3813z"/>
		<path fill="#603813" d="M154.7427,42.8486c0-1.4404,0.4004-2.5078,1.2012-3.2012c0.6699-0.5762,1.4844-0.8643,2.4473-0.8643
			c1.0684,0,1.9434,0.3506,2.6211,1.0508c0.6797,0.7012,1.0186,1.6689,1.0186,2.9043c0,1.001-0.1494,1.7881-0.4502,2.3623
			c-0.3008,0.5732-0.7383,1.0195-1.3105,1.3359c-0.5742,0.3174-1.2012,0.4766-1.8789,0.4766c-1.0898,0-1.9697-0.3486-2.6406-1.0469
			C155.0786,45.168,154.7427,44.1621,154.7427,42.8486z M156.0981,42.8486c0,0.9961,0.2168,1.7412,0.6523,2.2373
			c0.4336,0.4951,0.9805,0.7432,1.6406,0.7432c0.6543,0,1.1982-0.249,1.6328-0.7471s0.6523-1.2568,0.6523-2.2783
			c0-0.9609-0.2188-1.6904-0.6563-2.1855c-0.4375-0.4961-0.9805-0.7441-1.6289-0.7441c-0.6602,0-1.207,0.2471-1.6406,0.7402
			C156.3149,41.1074,156.0981,41.8525,156.0981,42.8486z"/>
		<path fill="#603813" d="M163.561,46.7373V38.959h1.1875v1.1787c0.3027-0.5508,0.582-0.915,0.8379-1.0908
			c0.2568-0.1758,0.5391-0.2637,0.8457-0.2637c0.4453,0,0.8965,0.1416,1.3555,0.4248l-0.4541,1.2227
			c-0.3223-0.1895-0.6445-0.2852-0.9668-0.2852c-0.2881,0-0.5469,0.0869-0.7764,0.2598c-0.2295,0.1738-0.3926,0.4141-0.4902,0.7217
			c-0.1465,0.4688-0.2207,0.9814-0.2207,1.5381v4.0723H163.561z"/>
		<path fill="#603813" d="M168.5708,46.7373V38.959h1.1797v1.0908c0.2441-0.3809,0.5684-0.6865,0.9746-0.9189
			c0.4043-0.2314,0.8662-0.3477,1.3838-0.3477c0.5762,0,1.0479,0.1201,1.417,0.3584c0.3691,0.2402,0.6289,0.5742,0.7803,1.0039
			c0.6152-0.9082,1.416-1.3623,2.4023-1.3623c0.7715,0,1.3643,0.2139,1.7803,0.6406c0.4141,0.4277,0.6221,1.0859,0.6221,1.9736
			v5.3398h-1.3115v-4.9004c0-0.5273-0.043-0.9063-0.1279-1.1387c-0.085-0.2314-0.2402-0.418-0.4648-0.5605
			c-0.2246-0.1406-0.4883-0.2119-0.791-0.2119c-0.5469,0-1.001,0.1816-1.3623,0.5459c-0.3613,0.3633-0.542,0.9463-0.542,1.7461
			v4.5195h-1.3184v-5.0537c0-0.5859-0.1074-1.0254-0.3223-1.3184s-0.5664-0.4395-1.0547-0.4395
			c-0.3711,0-0.7139,0.0977-1.0293,0.293c-0.3145,0.1953-0.543,0.4814-0.6846,0.8564c-0.1416,0.377-0.2129,0.9189-0.2129,1.627
			v4.0352H168.5708z"/>
		<path fill="#603813" d="M186.1421,45.7783c-0.4883,0.415-0.958,0.708-1.4102,0.8789c-0.4521,0.1699-0.9365,0.2559-1.4541,0.2559
			c-0.8535,0-1.5107-0.209-1.9697-0.626c-0.459-0.418-0.6885-0.9512-0.6885-1.6006c0-0.3809,0.0859-0.7285,0.2598-1.0439
			c0.1738-0.3145,0.4004-0.5674,0.6816-0.7578c0.2803-0.1904,0.5967-0.334,0.9482-0.4326c0.2588-0.0674,0.6494-0.1338,1.1719-0.1973
			c1.0645-0.127,1.8486-0.2783,2.3506-0.4541c0.0059-0.1807,0.0078-0.2949,0.0078-0.3447c0-0.5361-0.125-0.915-0.373-1.1348
			c-0.3379-0.2979-0.8379-0.4473-1.502-0.4473c-0.6201,0-1.0781,0.1094-1.373,0.3262c-0.2959,0.2178-0.5137,0.6025-0.6563,1.1543
			l-1.2891-0.1758c0.1172-0.5518,0.3105-0.998,0.5791-1.3369c0.2686-0.3398,0.6572-0.6006,1.165-0.7842
			c0.5078-0.1826,1.0957-0.2744,1.7646-0.2744c0.6641,0,1.2041,0.0781,1.6182,0.2344c0.416,0.1563,0.7207,0.3525,0.916,0.5898
			c0.1953,0.2363,0.332,0.5361,0.4102,0.8975c0.0439,0.2246,0.0664,0.6289,0.0664,1.2148v1.7578c0,1.2266,0.0273,2.001,0.084,2.3262
			c0.0557,0.3242,0.167,0.6357,0.333,0.9336h-1.377C186.269,46.4639,186.1812,46.1436,186.1421,45.7783z M186.0317,42.833
			c-0.4785,0.1963-1.1953,0.3623-2.1523,0.498c-0.543,0.0791-0.9258,0.167-1.1504,0.2637
			c-0.2246,0.0986-0.3984,0.2412-0.5195,0.4287c-0.123,0.1885-0.1836,0.3975-0.1836,0.626c0,0.3516,0.1328,0.6445,0.3994,0.8789
			c0.2656,0.2344,0.6553,0.3516,1.168,0.3516c0.5078,0,0.96-0.1104,1.3545-0.333c0.3965-0.2217,0.6865-0.5254,0.8721-0.9111
			c0.1416-0.2979,0.2119-0.7373,0.2119-1.3184V42.833z"/>
		<path fill="#603813" d="M189.4087,46.7373V38.959h1.1865v1.1064c0.5713-0.8545,1.3965-1.2822,2.4756-1.2822
			c0.4688,0,0.8994,0.084,1.293,0.2529c0.3926,0.168,0.6875,0.3896,0.8828,0.6621c0.1953,0.2744,0.332,0.5986,0.4102,0.9746
			c0.0488,0.2441,0.0723,0.6719,0.0723,1.2813v4.7832h-1.3184v-4.7314c0-0.5371-0.0508-0.9385-0.1533-1.2051
			c-0.1025-0.2656-0.2842-0.4785-0.5459-0.6367c-0.2617-0.1592-0.5674-0.2383-0.9189-0.2383c-0.5615,0-1.0459,0.1787-1.4541,0.5342
			c-0.4082,0.3574-0.6113,1.0332-0.6113,2.0293v4.248H189.4087z"/>
		<path fill="#603813" d="M5.7642,62.2324l1.3623,0.1689c-0.2148,0.7959-0.6128,1.4131-1.1938,1.8525s-1.3232,0.6592-2.2266,0.6592
			c-1.1377,0-2.0396-0.3506-2.7065-1.0508C0.3335,63.1611,0,62.1787,0,60.9141c0-1.3086,0.3369-2.3242,1.0107-3.0469
			s1.5479-1.084,2.6221-1.084c1.04,0,1.8896,0.3545,2.5488,1.0615c0.6592,0.709,0.9888,1.7051,0.9888,2.9883
			c0,0.0791-0.0024,0.1963-0.0073,0.3516H1.3623c0.0488,0.8555,0.2905,1.5098,0.7251,1.9629
			c0.4346,0.4551,0.9766,0.6816,1.626,0.6816c0.4834,0,0.896-0.127,1.2378-0.3809S5.564,62.7891,5.7642,62.2324z M1.4355,60.1006
			h4.3433c-0.0586-0.6533-0.2246-1.1445-0.498-1.4717c-0.4199-0.5078-0.9644-0.7617-1.6333-0.7617
			c-0.6055,0-1.1147,0.2031-1.5269,0.6084C1.7075,58.8809,1.4795,59.4229,1.4355,60.1006z"/>
		<path fill="#603813" d="M8.7524,64.7373V54h1.3184v10.7373H8.7524z"/>
		<path fill="#603813" d="M15.7544,62.415l1.3037-0.2051c0.0732,0.5234,0.2769,0.9238,0.6118,1.2012
			c0.334,0.2793,0.8018,0.418,1.4023,0.418c0.6055,0,1.0547-0.123,1.3477-0.3701c0.293-0.2461,0.4395-0.5352,0.4395-0.8682
			c0-0.2969-0.1294-0.5313-0.3882-0.7031c-0.1807-0.1172-0.6299-0.2656-1.3477-0.4463c-0.9668-0.2441-1.6372-0.4551-2.0103-0.6338
			c-0.374-0.1777-0.6572-0.4248-0.8496-0.7393c-0.1934-0.3154-0.2896-0.6631-0.2896-1.0439c0-0.3467,0.0791-0.668,0.2378-0.9629
			c0.1587-0.2959,0.375-0.541,0.6484-0.7363c0.2051-0.1514,0.4844-0.2793,0.8389-0.3848c0.3535-0.1045,0.7334-0.1572,1.1387-0.1572
			c0.6104,0,1.1465,0.0879,1.6074,0.2637c0.4619,0.1758,0.8022,0.4141,1.022,0.7139c0.2197,0.3008,0.3711,0.7021,0.4541,1.2051
			l-1.2891,0.1758c-0.0586-0.4004-0.2285-0.7129-0.5093-0.9375s-0.6772-0.3369-1.1899-0.3369c-0.6055,0-1.0376,0.1006-1.2964,0.2998
			c-0.2588,0.2012-0.3882,0.4355-0.3882,0.7031c0,0.1719,0.0537,0.3252,0.1611,0.4619c0.1074,0.1416,0.2759,0.2588,0.5054,0.3516
			c0.1318,0.0488,0.52,0.1611,1.1646,0.3369c0.9326,0.249,1.583,0.4531,1.9517,0.6113c0.3687,0.1592,0.6582,0.3896,0.8682,0.6924
			s0.3149,0.6787,0.3149,1.1279c0,0.4395-0.1284,0.8535-0.3843,1.2412c-0.2568,0.3887-0.6265,0.6885-1.1099,0.9014
			c-0.4834,0.2119-1.0303,0.3184-1.6406,0.3184c-1.0107,0-1.7813-0.21-2.311-0.6299S15.9009,63.2412,15.7544,62.415z"/>
		<path fill="#603813" d="M23.7891,55.5166V54h1.3184v1.5166H23.7891z M23.7891,64.7373V56.959h1.3184v7.7783H23.7891z"/>
		<path fill="#603813" d="M26.5869,62.415l1.3037-0.2051c0.0732,0.5234,0.2769,0.9238,0.6118,1.2012
			c0.334,0.2793,0.8018,0.418,1.4023,0.418c0.6055,0,1.0547-0.123,1.3477-0.3701c0.293-0.2461,0.4395-0.5352,0.4395-0.8682
			c0-0.2969-0.1294-0.5313-0.3882-0.7031c-0.1807-0.1172-0.6299-0.2656-1.3477-0.4463c-0.9668-0.2441-1.6372-0.4551-2.0103-0.6338
			c-0.374-0.1777-0.6572-0.4248-0.8496-0.7393c-0.1934-0.3154-0.2896-0.6631-0.2896-1.0439c0-0.3467,0.0791-0.668,0.2378-0.9629
			c0.1587-0.2959,0.375-0.541,0.6484-0.7363c0.2051-0.1514,0.4844-0.2793,0.8389-0.3848c0.3535-0.1045,0.7334-0.1572,1.1387-0.1572
			c0.6104,0,1.1465,0.0879,1.6074,0.2637c0.4619,0.1758,0.8022,0.4141,1.022,0.7139c0.2197,0.3008,0.3711,0.7021,0.4541,1.2051
			l-1.2891,0.1758c-0.0586-0.4004-0.2285-0.7129-0.5093-0.9375s-0.6772-0.3369-1.1899-0.3369c-0.6055,0-1.0376,0.1006-1.2964,0.2998
			c-0.2588,0.2012-0.3882,0.4355-0.3882,0.7031c0,0.1719,0.0537,0.3252,0.1611,0.4619c0.1074,0.1416,0.2759,0.2588,0.5054,0.3516
			c0.1318,0.0488,0.52,0.1611,1.1646,0.3369c0.9326,0.249,1.583,0.4531,1.9517,0.6113c0.3687,0.1592,0.6582,0.3896,0.8682,0.6924
			s0.3149,0.6787,0.3149,1.1279c0,0.4395-0.1284,0.8535-0.3843,1.2412c-0.2568,0.3887-0.6265,0.6885-1.1099,0.9014
			c-0.4834,0.2119-1.0303,0.3184-1.6406,0.3184c-1.0107,0-1.7813-0.21-2.311-0.6299S26.7334,63.2412,26.5869,62.415z"/>
		<path fill="#603813" d="M37.4927,63.5576l0.1904,1.165c-0.3711,0.0781-0.7031,0.1172-0.9961,0.1172
			c-0.4785,0-0.8496-0.0762-1.1133-0.2275c-0.2637-0.1504-0.4492-0.3496-0.5566-0.5967c-0.1074-0.2461-0.1611-0.7646-0.1611-1.5557
			v-4.4756h-0.9668V56.959h0.9668v-1.9268l1.311-0.791v2.7178h1.3257v1.0254H36.167v4.5479c0,0.377,0.0229,0.6182,0.0698,0.7256
			c0.0459,0.1074,0.1216,0.1934,0.2266,0.2568s0.2554,0.0947,0.4507,0.0947C37.0605,63.6094,37.2534,63.5928,37.4927,63.5576z"/>
		<path fill="#603813" d="M44.1064,62.2324l1.3623,0.1689c-0.2148,0.7959-0.6128,1.4131-1.1938,1.8525s-1.3232,0.6592-2.2266,0.6592
			c-1.1377,0-2.0396-0.3506-2.7065-1.0508c-0.666-0.7012-0.9995-1.6836-0.9995-2.9482c0-1.3086,0.3369-2.3242,1.0107-3.0469
			s1.5479-1.084,2.6221-1.084c1.04,0,1.8896,0.3545,2.5488,1.0615c0.6592,0.709,0.9888,1.7051,0.9888,2.9883
			c0,0.0791-0.0024,0.1963-0.0073,0.3516h-5.8008c0.0488,0.8555,0.2905,1.5098,0.7251,1.9629
			c0.4346,0.4551,0.9766,0.6816,1.626,0.6816c0.4834,0,0.896-0.127,1.2378-0.3809S43.9063,62.7891,44.1064,62.2324z
			 M39.7778,60.1006h4.3433c-0.0586-0.6533-0.2246-1.1445-0.498-1.4717c-0.4199-0.5078-0.9644-0.7617-1.6333-0.7617
			c-0.6055,0-1.1147,0.2031-1.5269,0.6084C40.0498,58.8809,39.8218,59.4229,39.7778,60.1006z"/>
		<path fill="#603813" d="M47.124,64.7373V56.959h1.1792v1.0908c0.2441-0.3809,0.5688-0.6865,0.9741-0.9189
			c0.4053-0.2314,0.8667-0.3477,1.3843-0.3477c0.5762,0,1.0483,0.1201,1.417,0.3584c0.3687,0.2402,0.6289,0.5742,0.7803,1.0039
			c0.6152-0.9082,1.416-1.3623,2.4023-1.3623c0.7715,0,1.3647,0.2139,1.7798,0.6406c0.415,0.4277,0.6226,1.0859,0.6226,1.9736
			v5.3398h-1.311v-4.9004c0-0.5273-0.043-0.9063-0.1284-1.1387c-0.0854-0.2314-0.2402-0.418-0.4648-0.5605
			c-0.2246-0.1406-0.4883-0.2119-0.791-0.2119c-0.5469,0-1.001,0.1816-1.3623,0.5459c-0.3613,0.3633-0.542,0.9463-0.542,1.7461
			v4.5195h-1.3184v-5.0537c0-0.5859-0.1074-1.0254-0.3223-1.3184s-0.5664-0.4395-1.0547-0.4395
			c-0.3711,0-0.7139,0.0977-1.0293,0.293c-0.3145,0.1953-0.543,0.4814-0.6846,0.8564c-0.1416,0.377-0.2124,0.9189-0.2124,1.627
			v4.0352H47.124z"/>
		<path fill="#603813" d="M64.6948,63.7783c-0.4883,0.415-0.9585,0.708-1.4102,0.8789c-0.4517,0.1699-0.936,0.2559-1.4536,0.2559
			c-0.8545,0-1.5112-0.209-1.9702-0.626c-0.459-0.418-0.6885-0.9512-0.6885-1.6006c0-0.3809,0.0864-0.7285,0.2598-1.0439
			c0.1733-0.3145,0.4004-0.5674,0.6816-0.7578c0.2803-0.1904,0.5967-0.334,0.9482-0.4326c0.2588-0.0674,0.6494-0.1338,1.1719-0.1973
			c1.0645-0.127,1.8481-0.2783,2.3511-0.4541c0.0049-0.1807,0.0073-0.2949,0.0073-0.3447c0-0.5361-0.1245-0.915-0.3735-1.1348
			c-0.3369-0.2979-0.8374-0.4473-1.5015-0.4473c-0.6201,0-1.0781,0.1094-1.373,0.3262c-0.2959,0.2178-0.5142,0.6025-0.6558,1.1543
			l-1.2891-0.1758c0.1172-0.5518,0.3101-0.998,0.5786-1.3369c0.2686-0.3398,0.6567-0.6006,1.1646-0.7842
			c0.5078-0.1826,1.0962-0.2744,1.7651-0.2744c0.6641,0,1.2036,0.0781,1.6187,0.2344s0.7202,0.3525,0.9155,0.5898
			c0.1953,0.2363,0.332,0.5361,0.4102,0.8975c0.0439,0.2246,0.0659,0.6289,0.0659,1.2148v1.7578
			c0,1.2266,0.0278,2.001,0.0845,2.3262c0.0557,0.3242,0.167,0.6357,0.333,0.9336h-1.377
			C64.8218,64.4639,64.7339,64.1436,64.6948,63.7783z M64.585,60.833c-0.4785,0.1963-1.1963,0.3623-2.1533,0.498
			c-0.542,0.0791-0.9253,0.167-1.1499,0.2637c-0.2246,0.0986-0.3979,0.2412-0.52,0.4287c-0.1221,0.1885-0.1831,0.3975-0.1831,0.626
			c0,0.3516,0.1328,0.6445,0.3994,0.8789c0.2656,0.2344,0.6553,0.3516,1.168,0.3516c0.5078,0,0.9595-0.1104,1.355-0.333
			c0.3955-0.2217,0.686-0.5254,0.8716-0.9111c0.1416-0.2979,0.2124-0.7373,0.2124-1.3184V60.833z"/>
		<path fill="#603813" d="M72.0703,67.7334l-0.1465-1.2383c0.2881,0.0781,0.5396,0.1172,0.7544,0.1172
			c0.293,0,0.5273-0.0488,0.7031-0.1465s0.3198-0.2344,0.4321-0.4102c0.083-0.1318,0.2173-0.459,0.4028-0.9814
			c0.0244-0.0732,0.0635-0.1807,0.1172-0.3223l-2.9517-7.793h1.4209l1.6187,4.5049c0.21,0.5703,0.3979,1.1719,0.564,1.8008
			c0.1514-0.6045,0.332-1.1953,0.542-1.7715l1.6626-4.5342h1.3184l-2.959,7.9102c-0.3174,0.8545-0.564,1.4424-0.7397,1.7646
			c-0.2344,0.4346-0.5029,0.7539-0.8057,0.9561c-0.3027,0.2031-0.6641,0.3037-1.084,0.3037
			C72.666,67.8936,72.3828,67.8398,72.0703,67.7334z"/>
		<path fill="#603813" d="M83.269,62.415l1.3037-0.2051c0.0732,0.5234,0.2769,0.9238,0.6118,1.2012
			c0.334,0.2793,0.8018,0.418,1.4023,0.418c0.6055,0,1.0547-0.123,1.3477-0.3701c0.293-0.2461,0.4395-0.5352,0.4395-0.8682
			c0-0.2969-0.1294-0.5313-0.3882-0.7031c-0.1807-0.1172-0.6299-0.2656-1.3477-0.4463c-0.9668-0.2441-1.6372-0.4551-2.0103-0.6338
			c-0.374-0.1777-0.6572-0.4248-0.8496-0.7393c-0.1934-0.3154-0.2896-0.6631-0.2896-1.0439c0-0.3467,0.0791-0.668,0.2378-0.9629
			c0.1587-0.2959,0.375-0.541,0.6484-0.7363c0.2051-0.1514,0.4844-0.2793,0.8389-0.3848c0.3535-0.1045,0.7334-0.1572,1.1387-0.1572
			c0.6104,0,1.1465,0.0879,1.6074,0.2637c0.4619,0.1758,0.8022,0.4141,1.022,0.7139c0.2197,0.3008,0.3711,0.7021,0.4541,1.2051
			l-1.2891,0.1758c-0.0586-0.4004-0.2285-0.7129-0.5093-0.9375s-0.6772-0.3369-1.1899-0.3369c-0.6055,0-1.0376,0.1006-1.2964,0.2998
			c-0.2588,0.2012-0.3882,0.4355-0.3882,0.7031c0,0.1719,0.0537,0.3252,0.1611,0.4619c0.1074,0.1416,0.2759,0.2588,0.5054,0.3516
			c0.1318,0.0488,0.52,0.1611,1.1646,0.3369c0.9326,0.249,1.583,0.4531,1.9517,0.6113c0.3687,0.1592,0.6582,0.3896,0.8682,0.6924
			s0.3149,0.6787,0.3149,1.1279c0,0.4395-0.1284,0.8535-0.3843,1.2412c-0.2568,0.3887-0.6265,0.6885-1.1099,0.9014
			c-0.4834,0.2119-1.0303,0.3184-1.6406,0.3184c-1.0107,0-1.7813-0.21-2.311-0.6299S83.4155,63.2412,83.269,62.415z"/>
		<path fill="#603813" d="M96.394,64.7373v-1.1426c-0.6055,0.8789-1.4287,1.3184-2.4678,1.3184
			c-0.459,0-0.8887-0.0879-1.2852-0.2637c-0.3989-0.1758-0.6943-0.3965-0.8872-0.6631c-0.1929-0.2656-0.3281-0.5918-0.4063-0.9775
			c-0.0537-0.2588-0.0806-0.6689-0.0806-1.2305V56.959h1.3184v4.3135c0,0.6895,0.0264,1.1533,0.0811,1.3926
			c0.082,0.3467,0.2578,0.6182,0.5273,0.8164c0.2676,0.1973,0.5996,0.2969,0.9961,0.2969c0.3945,0,0.7656-0.1016,1.1133-0.3047
			c0.3457-0.2021,0.5918-0.4785,0.7363-0.8271c0.1426-0.3496,0.2148-0.8555,0.2148-1.5205v-4.167h1.3184v7.7783H96.394z"/>
		<path fill="#603813" d="M99.1118,62.415l1.3027-0.2051c0.0742,0.5234,0.2773,0.9238,0.6123,1.2012
			c0.334,0.2793,0.8018,0.418,1.4023,0.418c0.6055,0,1.0547-0.123,1.3477-0.3701c0.293-0.2461,0.4395-0.5352,0.4395-0.8682
			c0-0.2969-0.1299-0.5313-0.3877-0.7031c-0.1816-0.1172-0.6309-0.2656-1.3477-0.4463c-0.9668-0.2441-1.6377-0.4551-2.0107-0.6338
			c-0.374-0.1777-0.6572-0.4248-0.8496-0.7393c-0.1934-0.3154-0.29-0.6631-0.29-1.0439c0-0.3467,0.0801-0.668,0.2383-0.9629
			c0.1582-0.2959,0.375-0.541,0.6484-0.7363c0.2051-0.1514,0.4844-0.2793,0.8389-0.3848c0.3535-0.1045,0.7334-0.1572,1.1387-0.1572
			c0.6104,0,1.1465,0.0879,1.6074,0.2637c0.4619,0.1758,0.8018,0.4141,1.0225,0.7139c0.2188,0.3008,0.3711,0.7021,0.4531,1.2051
			l-1.2891,0.1758c-0.0586-0.4004-0.2285-0.7129-0.5088-0.9375s-0.6768-0.3369-1.1904-0.3369c-0.6055,0-1.0371,0.1006-1.2959,0.2998
			c-0.2588,0.2012-0.3877,0.4355-0.3877,0.7031c0,0.1719,0.0527,0.3252,0.1602,0.4619c0.1074,0.1416,0.2764,0.2588,0.5059,0.3516
			c0.1318,0.0488,0.5195,0.1611,1.1641,0.3369c0.9336,0.249,1.584,0.4531,1.9521,0.6113c0.3682,0.1592,0.6582,0.3896,0.8682,0.6924
			s0.3145,0.6787,0.3145,1.1279c0,0.4395-0.1279,0.8535-0.3838,1.2412c-0.2568,0.3887-0.626,0.6885-1.1104,0.9014
			c-0.4824,0.2119-1.0293,0.3184-1.6406,0.3184c-1.0098,0-1.7813-0.21-2.3105-0.6299S99.2583,63.2412,99.1118,62.415z"/>
		<path fill="#603813" d="M111.2915,64.7373V56.959h1.1865v1.1787c0.3027-0.5508,0.583-0.915,0.8389-1.0908
			s0.5381-0.2637,0.8457-0.2637c0.4443,0,0.8965,0.1416,1.3555,0.4248l-0.4551,1.2227c-0.3223-0.1895-0.6445-0.2852-0.9668-0.2852
			c-0.2871,0-0.5469,0.0869-0.7754,0.2598c-0.2305,0.1738-0.3936,0.4141-0.4912,0.7217c-0.1465,0.4688-0.2197,0.9814-0.2197,1.5381
			v4.0723H111.2915z"/>
		<path fill="#603813" d="M121.6255,62.2324l1.3633,0.1689c-0.2148,0.7959-0.6133,1.4131-1.1943,1.8525
			s-1.3232,0.6592-2.2266,0.6592c-1.1377,0-2.04-0.3506-2.7061-1.0508c-0.666-0.7012-1-1.6836-1-2.9482
			c0-1.3086,0.3369-2.3242,1.0107-3.0469s1.5479-1.084,2.6221-1.084c1.04,0,1.8896,0.3545,2.5488,1.0615
			c0.6592,0.709,0.9883,1.7051,0.9883,2.9883c0,0.0791-0.002,0.1963-0.0068,0.3516h-5.8008c0.0488,0.8555,0.29,1.5098,0.7256,1.9629
			c0.4336,0.4551,0.9766,0.6816,1.625,0.6816c0.4844,0,0.8965-0.127,1.2383-0.3809S121.4263,62.7891,121.6255,62.2324z
			 M117.2974,60.1006h4.3438c-0.0586-0.6533-0.2246-1.1445-0.498-1.4717c-0.4199-0.5078-0.9648-0.7617-1.6338-0.7617
			c-0.6055,0-1.1143,0.2031-1.5264,0.6084C117.5688,58.8809,117.3413,59.4229,117.2974,60.1006z"/>
		<path fill="#603813" d="M124.6138,64.7373V54h1.3184v10.7373H124.6138z"/>
		<path fill="#603813" d="M133.0513,63.7783c-0.4883,0.415-0.958,0.708-1.4102,0.8789c-0.4512,0.1699-0.9355,0.2559-1.4531,0.2559
			c-0.8545,0-1.5117-0.209-1.9707-0.626c-0.459-0.418-0.6875-0.9512-0.6875-1.6006c0-0.3809,0.0859-0.7285,0.2598-1.0439
			c0.1729-0.3145,0.4004-0.5674,0.6816-0.7578c0.2793-0.1904,0.5957-0.334,0.9473-0.4326c0.2598-0.0674,0.6504-0.1338,1.1719-0.1973
			c1.0645-0.127,1.8486-0.2783,2.3516-0.4541c0.0049-0.1807,0.0078-0.2949,0.0078-0.3447c0-0.5361-0.125-0.915-0.374-1.1348
			c-0.3369-0.2979-0.8369-0.4473-1.501-0.4473c-0.6211,0-1.0781,0.1094-1.373,0.3262c-0.2969,0.2178-0.5146,0.6025-0.6563,1.1543
			l-1.2891-0.1758c0.1172-0.5518,0.3105-0.998,0.5781-1.3369c0.2695-0.3398,0.6572-0.6006,1.165-0.7842
			c0.5078-0.1826,1.0967-0.2744,1.7646-0.2744c0.6641,0,1.2041,0.0781,1.6191,0.2344s0.7207,0.3525,0.916,0.5898
			c0.1953,0.2363,0.332,0.5361,0.4102,0.8975c0.043,0.2246,0.0654,0.6289,0.0654,1.2148v1.7578c0,1.2266,0.0283,2.001,0.085,2.3262
			c0.0547,0.3242,0.166,0.6357,0.332,0.9336h-1.377C133.1782,64.4639,133.0903,64.1436,133.0513,63.7783z M132.9419,60.833
			c-0.4785,0.1963-1.1963,0.3623-2.1533,0.498c-0.542,0.0791-0.9248,0.167-1.1494,0.2637
			c-0.2246,0.0986-0.3984,0.2412-0.5205,0.4287c-0.1221,0.1885-0.1826,0.3975-0.1826,0.626c0,0.3516,0.1328,0.6445,0.3984,0.8789
			s0.6563,0.3516,1.168,0.3516c0.5078,0,0.96-0.1104,1.3555-0.333c0.3955-0.2217,0.6855-0.5254,0.8711-0.9111
			c0.1426-0.2979,0.2129-0.7373,0.2129-1.3184V60.833z"/>
		<path fill="#603813" d="M141.394,61.8877l1.2959,0.1689c-0.1406,0.8936-0.5039,1.5928-1.0869,2.0986
			c-0.584,0.5049-1.2998,0.7578-2.1494,0.7578c-1.0645,0-1.9209-0.3477-2.5674-1.0439c-0.6475-0.6953-0.9707-1.6924-0.9707-2.9912
			c0-0.8398,0.1396-1.5752,0.417-2.2051c0.2793-0.6299,0.7021-1.1025,1.2715-1.417c0.5684-0.3154,1.1875-0.4727,1.8564-0.4727
			c0.8447,0,1.5361,0.2139,2.0732,0.6406c0.5371,0.4277,0.8809,1.0342,1.0322,1.8203l-1.2822,0.1982
			c-0.1211-0.5225-0.3379-0.916-0.6475-1.1797c-0.3105-0.2637-0.6846-0.3955-1.124-0.3955c-0.6641,0-1.2041,0.2383-1.6191,0.7139
			c-0.415,0.4766-0.623,1.2295-0.623,2.2598c0,1.0449,0.2012,1.8047,0.6016,2.2773c0.4004,0.4746,0.9219,0.7109,1.5664,0.7109
			c0.5176,0,0.9502-0.1582,1.2969-0.4766C141.0815,63.0361,141.3013,62.5479,141.394,61.8877z"/>
		<path fill="#603813" d="M143.8257,55.5166V54h1.3184v1.5166H143.8257z M143.8257,64.7373V56.959h1.3184v7.7783H143.8257z"/>
		<path fill="#603813" d="M146.6606,60.8486c0-1.4404,0.4004-2.5078,1.2012-3.2012c0.668-0.5762,1.4844-0.8643,2.4453-0.8643
			c1.0703,0,1.9434,0.3506,2.623,1.0508c0.6777,0.7012,1.0176,1.6689,1.0176,2.9043c0,1.001-0.1504,1.7881-0.4512,2.3623
			c-0.2988,0.5732-0.7363,1.0195-1.3105,1.3359c-0.5742,0.3174-1.1992,0.4766-1.8789,0.4766c-1.0879,0-1.9688-0.3486-2.6406-1.0469
			C146.9956,63.168,146.6606,62.1621,146.6606,60.8486z M148.0151,60.8486c0,0.9961,0.2178,1.7412,0.6514,2.2373
			c0.4355,0.4951,0.9824,0.7432,1.6406,0.7432c0.6543,0,1.1992-0.249,1.6338-0.7471s0.6514-1.2568,0.6514-2.2783
			c0-0.9609-0.2188-1.6904-0.6543-2.1855c-0.4375-0.4961-0.9805-0.7441-1.6309-0.7441c-0.6582,0-1.2051,0.2471-1.6406,0.7402
			C148.2329,59.1074,148.0151,59.8525,148.0151,60.8486z"/>
		<path fill="#603813" d="M155.4927,64.7373V56.959h1.1875v1.1064c0.5703-0.8545,1.3965-1.2822,2.4746-1.2822
			c0.4688,0,0.9004,0.084,1.293,0.2529c0.3926,0.168,0.6875,0.3896,0.8828,0.6621c0.1953,0.2744,0.332,0.5986,0.4102,0.9746
			c0.0488,0.2441,0.0732,0.6719,0.0732,1.2813v4.7832h-1.3184v-4.7314c0-0.5371-0.0518-0.9385-0.1533-1.2051
			c-0.1035-0.2656-0.2852-0.4785-0.5459-0.6367c-0.2617-0.1592-0.5674-0.2383-0.9189-0.2383c-0.5625,0-1.0469,0.1787-1.4541,0.5342
			c-0.4082,0.3574-0.6123,1.0332-0.6123,2.0293v4.248H155.4927z"/>
		<path fill="#603813" d="M169.1606,62.2324l1.3613,0.1689c-0.2148,0.7959-0.6123,1.4131-1.1934,1.8525
			s-1.3232,0.6592-2.2266,0.6592c-1.1377,0-2.0391-0.3506-2.707-1.0508c-0.666-0.7012-0.999-1.6836-0.999-2.9482
			c0-1.3086,0.3369-2.3242,1.0107-3.0469s1.5479-1.084,2.6221-1.084c1.04,0,1.8896,0.3545,2.5488,1.0615
			c0.6592,0.709,0.9893,1.7051,0.9893,2.9883c0,0.0791-0.0029,0.1963-0.0078,0.3516h-5.8008
			c0.0488,0.8555,0.291,1.5098,0.7246,1.9629c0.4355,0.4551,0.9766,0.6816,1.627,0.6816c0.4824,0,0.8955-0.127,1.2373-0.3809
			S168.9595,62.7891,169.1606,62.2324z M164.8315,60.1006h4.3428c-0.0586-0.6533-0.2246-1.1445-0.498-1.4717
			c-0.4199-0.5078-0.9639-0.7617-1.6328-0.7617c-0.6055,0-1.1152,0.2031-1.5273,0.6084S164.8755,59.4229,164.8315,60.1006z"/>
		<path fill="#603813" d="M171.6509,62.415l1.3027-0.2051c0.0742,0.5234,0.2773,0.9238,0.6123,1.2012
			c0.334,0.2793,0.8018,0.418,1.4023,0.418c0.6055,0,1.0547-0.123,1.3477-0.3701c0.293-0.2461,0.4395-0.5352,0.4395-0.8682
			c0-0.2969-0.1299-0.5313-0.3877-0.7031c-0.1816-0.1172-0.6309-0.2656-1.3477-0.4463c-0.9668-0.2441-1.6377-0.4551-2.0107-0.6338
			c-0.374-0.1777-0.6572-0.4248-0.8496-0.7393c-0.1934-0.3154-0.29-0.6631-0.29-1.0439c0-0.3467,0.0801-0.668,0.2383-0.9629
			c0.1582-0.2959,0.375-0.541,0.6484-0.7363c0.2051-0.1514,0.4844-0.2793,0.8389-0.3848c0.3535-0.1045,0.7334-0.1572,1.1387-0.1572
			c0.6104,0,1.1465,0.0879,1.6074,0.2637c0.4619,0.1758,0.8018,0.4141,1.0225,0.7139c0.2188,0.3008,0.3711,0.7021,0.4531,1.2051
			l-1.2891,0.1758c-0.0586-0.4004-0.2285-0.7129-0.5088-0.9375s-0.6768-0.3369-1.1904-0.3369c-0.6055,0-1.0371,0.1006-1.2959,0.2998
			c-0.2588,0.2012-0.3877,0.4355-0.3877,0.7031c0,0.1719,0.0527,0.3252,0.1602,0.4619c0.1074,0.1416,0.2764,0.2588,0.5059,0.3516
			c0.1318,0.0488,0.5195,0.1611,1.1641,0.3369c0.9336,0.249,1.584,0.4531,1.9521,0.6113c0.3682,0.1592,0.6582,0.3896,0.8682,0.6924
			s0.3145,0.6787,0.3145,1.1279c0,0.4395-0.1279,0.8535-0.3838,1.2412c-0.2568,0.3887-0.626,0.6885-1.1104,0.9014
			c-0.4824,0.2119-1.0293,0.3184-1.6406,0.3184c-1.0098,0-1.7813-0.21-2.3105-0.6299S171.7974,63.2412,171.6509,62.415z"/>
		<path fill="#603813" d="M180.0513,64.7373v-1.502h1.502v1.502H180.0513z"/>
	</g>
</g>
<g>
</g>
<g>
</g>
<g>
</g>
<g>
</g>
<g>
</g>
<g>
</g>
<g>
</g>
<g>
</g>
<g>
</g>
<g>
</g>
<g>
</g>
<g>
</g>
<g>
</g>
<g>
</g>
<g>
</g>
</svg>
