<?xml version="1.0" encoding="utf-8"?>
<!-- Generator: Adobe Illustrator 16.0.0, SVG Export Plug-In . SVG Version: 6.00 Build 0)  -->
<!DOCTYPE svg PUBLIC "-//W3C//DTD SVG 1.1//EN" "http://www.w3.org/Graphics/SVG/1.1/DTD/svg11.dtd">
<svg version="1.1" id="Capa_1" xmlns="http://www.w3.org/2000/svg" xmlns:xlink="http://www.w3.org/1999/xlink" x="0px" y="0px"
	 width="282.4282px" height="100.8008px" viewBox="0 0 282.4282 100.8008" enable-background="new 0 0 282.4282 100.8008"
	 xml:space="preserve">
<g id="XMLID_8226_">
	<g>
		<path id="XMLID_1_" fill="#FFFFFF" d="M268.9282,99.3008H13.5c-6.5996,0-12-5.4004-12-12V13.5c0-6.5996,5.4004-12,12-12h255.4282
			c6.6016,0,12,5.4004,12,12v73.8008C280.9282,93.9004,275.5298,99.3008,268.9282,99.3008z"/>
		<path fill="#603813" d="M268.9751,100.8018c-0.0313,0-0.1094-0.002-0.1406-0.0039l-11.7412,0.0029c-0.8281,0-1.5-0.6719-1.5-1.5
			s0.6719-1.5,1.5-1.5h11.835c0.8281,0,1.5234,0.6719,1.5234,1.5C270.4517,100.1299,269.8032,100.8018,268.9751,100.8018z
			 M245.2573,100.8008h-11.835c-0.8281,0-1.5-0.6719-1.5-1.5s0.6719-1.5,1.5-1.5h11.835c0.8281,0,1.5,0.6719,1.5,1.5
			S246.0854,100.8008,245.2573,100.8008z M221.5874,100.8008h-11.8359c-0.8281,0-1.5-0.6719-1.5-1.5s0.6719-1.5,1.5-1.5h11.8359
			c0.8281,0,1.5,0.6719,1.5,1.5S222.4155,100.8008,221.5874,100.8008z M197.9165,100.8008h-11.835c-0.8281,0-1.5-0.6719-1.5-1.5
			s0.6719-1.5,1.5-1.5h11.835c0.8281,0,1.5,0.6719,1.5,1.5S198.7446,100.8008,197.9165,100.8008z M174.2456,100.8008h-11.835
			c-0.8281,0-1.5-0.6719-1.5-1.5s0.6719-1.5,1.5-1.5h11.835c0.8281,0,1.5,0.6719,1.5,1.5S175.0737,100.8008,174.2456,100.8008z
			 M150.5747,100.8008h-11.835c-0.8281,0-1.5-0.6719-1.5-1.5s0.6719-1.5,1.5-1.5h11.835c0.8281,0,1.5,0.6719,1.5,1.5
			S151.4028,100.8008,150.5747,100.8008z M126.9043,100.8008h-11.835c-0.8286,0-1.5-0.6719-1.5-1.5s0.6714-1.5,1.5-1.5h11.835
			c0.8286,0,1.5,0.6719,1.5,1.5S127.7329,100.8008,126.9043,100.8008z M103.2339,100.8008H91.3984c-0.8286,0-1.5-0.6719-1.5-1.5
			s0.6714-1.5,1.5-1.5h11.8354c0.8286,0,1.5,0.6719,1.5,1.5S104.0625,100.8008,103.2339,100.8008z M79.5635,100.8008H67.728
			c-0.8286,0-1.5-0.6719-1.5-1.5s0.6714-1.5,1.5-1.5h11.8354c0.8286,0,1.5,0.6719,1.5,1.5S80.3921,100.8008,79.5635,100.8008z
			 M55.8926,100.8008H44.0571c-0.8286,0-1.5-0.6719-1.5-1.5s0.6714-1.5,1.5-1.5h11.8354c0.8286,0,1.5,0.6719,1.5,1.5
			S56.7212,100.8008,55.8926,100.8008z M32.2222,100.8008H20.3867c-0.8286,0-1.5-0.6719-1.5-1.5s0.6714-1.5,1.5-1.5h11.8354
			c0.8286,0,1.5,0.6719,1.5,1.5S33.0508,100.8008,32.2222,100.8008z M8.6929,99.79c-0.2021,0-0.4072-0.041-0.604-0.1279
			c-4.1646-1.835-7.1143-5.5938-7.8901-10.0547c-0.1416-0.8164,0.4048-1.5928,1.2212-1.7344
			c0.8145-0.1436,1.5928,0.4043,1.7349,1.2207c0.603,3.4688,2.9004,6.3936,6.144,7.8232c0.7583,0.335,1.1016,1.2197,0.7676,1.9785
			C9.8188,99.4561,9.2695,99.79,8.6929,99.79z M278.9546,95.374c-0.2832,0-0.5703-0.0801-0.8242-0.2471
			c-0.6914-0.4561-0.8828-1.3867-0.4277-2.0781c1.1289-1.7129,1.7256-3.7012,1.7256-5.748v-4.873c0-0.8281,0.6719-1.5,1.5-1.5
			s1.5,0.6719,1.5,1.5v4.873c0,2.6357-0.7676,5.1934-2.2197,7.3984C279.9194,95.1367,279.4419,95.374,278.9546,95.374z M1.5,79.0254
			c-0.8286,0-1.5-0.6719-1.5-1.5v-11.835c0-0.8281,0.6714-1.5,1.5-1.5s1.5,0.6719,1.5,1.5v11.835
			C3,78.3535,2.3286,79.0254,1.5,79.0254z M280.9282,72.0928c-0.8281,0-1.5-0.6719-1.5-1.5V58.7568c0-0.8281,0.6719-1.5,1.5-1.5
			s1.5,0.6719,1.5,1.5v11.8359C282.4282,71.4209,281.7563,72.0928,280.9282,72.0928z M1.5,55.3555c-0.8286,0-1.5-0.6719-1.5-1.5
			V42.02c0-0.8286,0.6714-1.5,1.5-1.5S3,41.1914,3,42.02v11.8354C3,54.6836,2.3286,55.3555,1.5,55.3555z M280.9282,48.4219
			c-0.8281,0-1.5-0.6714-1.5-1.5V35.0864c0-0.8286,0.6719-1.5,1.5-1.5s1.5,0.6714,1.5,1.5v11.8354
			C282.4282,47.7505,281.7563,48.4219,280.9282,48.4219z M1.5,31.6846c-0.8286,0-1.5-0.6714-1.5-1.5V18.3491
			c0-0.8286,0.6714-1.5,1.5-1.5s1.5,0.6714,1.5,1.5v11.8354C3,31.0132,2.3286,31.6846,1.5,31.6846z M280.9282,24.7515
			c-0.8281,0-1.5-0.6714-1.5-1.5V13.5c-0.001-0.6094-0.0537-1.2202-0.1582-1.8135c-0.1426-0.8159,0.4023-1.5938,1.2188-1.7368
			c0.8115-0.1411,1.5928,0.4028,1.7363,1.2183c0.1338,0.7627,0.2021,1.5469,0.2031,2.3301v9.7534
			C282.4282,24.0801,281.7563,24.7515,280.9282,24.7515z M3.4849,8.4082c-0.2842,0-0.5718-0.0806-0.8267-0.249
			C1.9678,7.7017,1.7783,6.771,2.2354,6.0801C4.75,2.2822,8.9512,0.0088,13.4741,0c0.001,0,0.002,0,0.0029,0
			c0.8271,0,1.4985,0.6694,1.5,1.4971C14.9785,2.3252,14.3086,2.9985,13.48,3C9.9639,3.0068,6.6958,4.7773,4.7373,7.7363
			C4.4487,8.1724,3.9712,8.4082,3.4849,8.4082z M273.7124,4.0015c-0.2012,0-0.4053-0.041-0.6016-0.127
			C271.7876,3.2944,270.3804,3,268.9282,3h-6.9102c-0.8281,0-1.5-0.6714-1.5-1.5s0.6719-1.5,1.5-1.5h6.9102
			c1.8691,0,3.6816,0.3794,5.3877,1.1274c0.7588,0.3325,1.1035,1.2173,0.7715,1.9761
			C274.8403,3.666,274.2896,4.0015,273.7124,4.0015z M250.1831,3h-11.835c-0.8281,0-1.5-0.6714-1.5-1.5s0.6719-1.5,1.5-1.5h11.835
			c0.8281,0,1.5,0.6714,1.5,1.5S251.0112,3,250.1831,3z M226.5122,3h-11.835c-0.8281,0-1.5-0.6714-1.5-1.5s0.6719-1.5,1.5-1.5
			h11.835c0.8281,0,1.5,0.6714,1.5,1.5S227.3403,3,226.5122,3z M202.8413,3h-11.835c-0.8281,0-1.5-0.6714-1.5-1.5
			s0.6719-1.5,1.5-1.5h11.835c0.8281,0,1.5,0.6714,1.5,1.5S203.6694,3,202.8413,3z M179.1714,3h-11.8359
			c-0.8281,0-1.5-0.6714-1.5-1.5s0.6719-1.5,1.5-1.5h11.8359c0.8281,0,1.5,0.6714,1.5,1.5S179.9995,3,179.1714,3z M155.5005,3
			h-11.835c-0.8281,0-1.5-0.6714-1.5-1.5s0.6719-1.5,1.5-1.5h11.835c0.8281,0,1.5,0.6714,1.5,1.5S156.3286,3,155.5005,3z
			 M131.8301,3h-11.8354c-0.8286,0-1.5-0.6714-1.5-1.5s0.6714-1.5,1.5-1.5h11.8354c0.8286,0,1.5,0.6714,1.5,1.5
			S132.6587,3,131.8301,3z M108.1592,3h-11.835c-0.8286,0-1.5-0.6714-1.5-1.5s0.6714-1.5,1.5-1.5h11.835
			c0.8286,0,1.5,0.6714,1.5,1.5S108.9878,3,108.1592,3z M84.4888,3H72.6533c-0.8286,0-1.5-0.6714-1.5-1.5s0.6714-1.5,1.5-1.5
			h11.8354c0.8286,0,1.5,0.6714,1.5,1.5S85.3174,3,84.4888,3z M60.8179,3h-11.835c-0.8286,0-1.5-0.6714-1.5-1.5s0.6714-1.5,1.5-1.5
			h11.835c0.8286,0,1.5,0.6714,1.5,1.5S61.6465,3,60.8179,3z M37.1475,3H25.312c-0.8286,0-1.5-0.6714-1.5-1.5s0.6714-1.5,1.5-1.5
			h11.8354c0.8286,0,1.5,0.6714,1.5,1.5S37.9761,3,37.1475,3z"/>
	</g>
	<g>
		<g>
			<path fill="#603813" d="M20.0913,14.3076h3.9624c0.8936,0,1.5747,0.0684,2.0435,0.2051
				c0.6299,0.1855,1.1694,0.5156,1.6187,0.9893s0.791,1.0527,1.0254,1.7393c0.2344,0.6855,0.3516,1.5322,0.3516,2.5381
				c0,0.8838-0.1099,1.6455-0.3296,2.2852c-0.2686,0.7813-0.6519,1.4131-1.1499,1.8965c-0.376,0.3662-0.8838,0.6523-1.5234,0.8574
				c-0.4785,0.1514-1.1182,0.2266-1.9189,0.2266h-4.0796V14.3076z M22.2593,16.124v7.1123h1.6187
				c0.6055,0,1.0425-0.0342,1.311-0.1035c0.3516-0.0879,0.6431-0.2363,0.875-0.4463s0.4214-0.5557,0.5679-1.0361
				c0.1465-0.4814,0.2197-1.1367,0.2197-1.9668s-0.0732-1.4668-0.2197-1.9121c-0.1465-0.4434-0.3516-0.791-0.6152-1.0391
				c-0.2637-0.25-0.5981-0.418-1.0034-0.5059c-0.3027-0.0684-0.896-0.1025-1.7798-0.1025H22.2593z"/>
			<path fill="#603813" d="M30.9165,16.2119v-1.9043h2.0581v1.9043H30.9165z M30.9165,25.0449v-7.7783h2.0581v7.7783H30.9165z"/>
			<path fill="#603813" d="M34.3589,22.8262l2.0654-0.3154c0.0879,0.4004,0.2661,0.7041,0.5347,0.9121
				c0.2686,0.207,0.6445,0.3115,1.1279,0.3115c0.5322,0,0.9326-0.0977,1.2012-0.293c0.1807-0.1367,0.271-0.3203,0.271-0.5498
				c0-0.1563-0.0488-0.2861-0.1465-0.3877c-0.1025-0.0977-0.332-0.1885-0.6885-0.2715c-1.6602-0.3662-2.7124-0.7002-3.1567-1.0039
				c-0.6152-0.4189-0.9229-1.0029-0.9229-1.75c0-0.6738,0.2661-1.2402,0.7983-1.6992s1.3574-0.6885,2.4756-0.6885
				c1.0645,0,1.8555,0.1738,2.373,0.5205s0.874,0.8594,1.0693,1.5371l-1.9409,0.3594c-0.083-0.3027-0.2407-0.5352-0.4722-0.6953
				c-0.2324-0.1621-0.563-0.2422-0.9927-0.2422c-0.542,0-0.9302,0.0762-1.1646,0.2266c-0.1563,0.1084-0.2344,0.2471-0.2344,0.418
				c0,0.1465,0.0684,0.2715,0.2051,0.373c0.1855,0.1377,0.8262,0.3301,1.9229,0.5791c1.0957,0.249,1.8613,0.5547,2.2959,0.915
				c0.4297,0.3672,0.6445,0.877,0.6445,1.5313c0,0.7129-0.2979,1.3262-0.8936,1.8379c-0.5957,0.5137-1.4771,0.7695-2.644,0.7695
				c-1.0596,0-1.8984-0.2148-2.5161-0.6445S34.5493,23.5635,34.3589,22.8262z"/>
			<path fill="#603813" d="M47.9307,22.5693l2.0508,0.3447c-0.2637,0.752-0.6802,1.3242-1.249,1.7168
				c-0.5688,0.3936-1.2803,0.5898-2.1348,0.5898c-1.3525,0-2.3535-0.4414-3.0029-1.3262c-0.5127-0.707-0.769-1.6006-0.769-2.6797
				c0-1.2891,0.3369-2.2988,1.0107-3.0293c0.6738-0.7295,1.5259-1.0947,2.5562-1.0947c1.1572,0,2.0703,0.3818,2.7393,1.1465
				c0.6689,0.7637,0.9888,1.9346,0.9595,3.5117h-5.1563c0.0146,0.6104,0.1807,1.085,0.498,1.4248
				c0.3174,0.3389,0.7129,0.5088,1.1865,0.5088c0.3223,0,0.5933-0.0879,0.813-0.2637S47.8184,22.96,47.9307,22.5693z
				 M48.0479,20.4893c-0.0146-0.5957-0.1685-1.0488-0.4614-1.3584c-0.293-0.3105-0.6494-0.4648-1.0693-0.4648
				c-0.4492,0-0.8203,0.1631-1.1133,0.4902s-0.437,0.7715-0.4321,1.333H48.0479z"/>
			<path fill="#603813" d="M58.8438,25.0449h-2.0581v-3.9697c0-0.8398-0.0439-1.3828-0.1318-1.6299
				c-0.0879-0.2461-0.2305-0.4375-0.4287-0.5742c-0.1973-0.1367-0.4355-0.2051-0.7139-0.2051c-0.3564,0-0.6763,0.0977-0.9595,0.293
				s-0.4775,0.4531-0.5825,0.7754s-0.1572,0.9189-0.1572,1.7871v3.5234h-2.0581v-7.7783h1.9116v1.1426
				c0.6787-0.8789,1.5332-1.3184,2.5635-1.3184c0.4541,0,0.8691,0.082,1.2451,0.2451c0.376,0.1641,0.6602,0.373,0.8535,0.627
				c0.1924,0.2539,0.3267,0.541,0.4023,0.8633s0.1138,0.7842,0.1138,1.3848V25.0449z M53.7095,16.2188H52.772
				c-0.0049-0.1113-0.0073-0.1992-0.0073-0.2637c0-0.5117,0.1245-0.9063,0.3735-1.1826c0.249-0.2754,0.5688-0.4131,0.9595-0.4131
				c0.1709,0,0.3296,0.0176,0.4761,0.0547c0.1465,0.0361,0.4141,0.1416,0.8018,0.3145c0.3887,0.1738,0.6924,0.2598,0.9121,0.2598
				c0.1563,0,0.2866-0.0479,0.3916-0.1465c0.105-0.0967,0.1724-0.2607,0.2017-0.4902h0.9521
				c-0.0049,0.6592-0.1284,1.1309-0.3696,1.4141c-0.2422,0.2832-0.5532,0.4238-0.9341,0.4238c-0.166,0-0.3296-0.0166-0.4907-0.0508
				c-0.1123-0.0293-0.3931-0.1289-0.8423-0.3008c-0.4492-0.1699-0.7764-0.2559-0.9814-0.2559c-0.1563,0-0.2783,0.0479-0.3662,0.1426
				C53.7607,15.8203,53.7144,15.9844,53.7095,16.2188z"/>
			<path fill="#603813" d="M60.4551,21.0459c0-0.6836,0.1685-1.3447,0.5054-1.9854c0.3369-0.6387,0.814-1.127,1.4321-1.4648
				c0.6172-0.3359,1.3071-0.5049,2.0688-0.5049c1.1768,0,2.1411,0.3818,2.8931,1.1465c0.752,0.7637,1.1279,1.7295,1.1279,2.8965
				c0,1.1768-0.3799,2.1523-1.1387,2.9258c-0.7598,0.7744-1.7153,1.1611-2.8677,1.1611c-0.7129,0-1.3931-0.1611-2.0396-0.4834
				c-0.6475-0.3223-1.1392-0.7949-1.4761-1.417C60.6235,22.6973,60.4551,21.9395,60.4551,21.0459z M62.5645,21.1563
				c0,0.7715,0.1831,1.3613,0.5493,1.7715s0.8179,0.6152,1.355,0.6152s0.9873-0.2051,1.3516-0.6152
				c0.3633-0.4102,0.5454-1.0049,0.5454-1.7871c0-0.7617-0.1821-1.3477-0.5454-1.7578c-0.3643-0.4102-0.8145-0.6152-1.3516-0.6152
				s-0.9888,0.2051-1.355,0.6152S62.5645,20.3848,62.5645,21.1563z"/>
			<path fill="#603813" d="M81.395,25.0449h-1.9116v-1.1426c-0.3174,0.4443-0.6924,0.7754-1.124,0.9922
				c-0.4326,0.2178-0.8682,0.3262-1.3076,0.3262c-0.8936,0-1.6592-0.3604-2.2959-1.0801c-0.6377-0.7207-0.9561-1.7246-0.9561-3.0137
				c0-1.3184,0.3101-2.3213,0.9302-3.0068c0.6201-0.6865,1.4038-1.0293,2.3511-1.0293c0.8691,0,1.6211,0.3613,2.2559,1.084v-3.8672
				h2.0581V25.0449z M75.9019,20.9873c0,0.8301,0.1147,1.4307,0.3442,1.8018c0.332,0.5371,0.7959,0.8057,1.3916,0.8057
				c0.4736,0,0.8765-0.2012,1.2085-0.6045c0.332-0.4023,0.498-1.0039,0.498-1.8047c0-0.8945-0.1611-1.5371-0.4834-1.9307
				c-0.3223-0.3926-0.7349-0.5889-1.2378-0.5889c-0.4883,0-0.8975,0.1934-1.2266,0.582
				C76.0664,19.6357,75.9019,20.2158,75.9019,20.9873z"/>
			<path fill="#603813" d="M87.9282,22.5693l2.0508,0.3447c-0.2637,0.752-0.6802,1.3242-1.249,1.7168
				c-0.5688,0.3936-1.2803,0.5898-2.1348,0.5898c-1.3525,0-2.3535-0.4414-3.0029-1.3262c-0.5127-0.707-0.769-1.6006-0.769-2.6797
				c0-1.2891,0.3369-2.2988,1.0107-3.0293c0.6738-0.7295,1.5259-1.0947,2.5562-1.0947c1.1572,0,2.0703,0.3818,2.7393,1.1465
				c0.6689,0.7637,0.9888,1.9346,0.9595,3.5117h-5.1563c0.0146,0.6104,0.1807,1.085,0.498,1.4248
				c0.3174,0.3389,0.7129,0.5088,1.1865,0.5088c0.3223,0,0.5933-0.0879,0.813-0.2637S87.8159,22.96,87.9282,22.5693z
				 M88.0454,20.4893c-0.0146-0.5957-0.1685-1.0488-0.4614-1.3584c-0.293-0.3105-0.6494-0.4648-1.0693-0.4648
				c-0.4492,0-0.8203,0.1631-1.1133,0.4902s-0.437,0.7715-0.4321,1.333H88.0454z"/>
			<path fill="#603813" d="M95.9336,25.0449V14.3076h2.0581v10.7373H95.9336z"/>
			<path fill="#603813" d="M101.6392,19.6396l-1.8677-0.3369c0.21-0.752,0.5713-1.3086,1.084-1.6699s1.2744-0.542,2.2852-0.542
				c0.918,0,1.6016,0.1084,2.0508,0.3262c0.4492,0.2168,0.7656,0.4932,0.9482,0.8271c0.1836,0.335,0.2749,0.9492,0.2749,1.8418
				l-0.022,2.4023c0,0.6846,0.0332,1.1885,0.0986,1.5127c0.0664,0.3252,0.1895,0.6729,0.3701,1.0439h-2.0361
				c-0.0537-0.1367-0.1196-0.3389-0.1978-0.6074c-0.0342-0.1221-0.0586-0.2031-0.0732-0.2422
				c-0.3516,0.3418-0.7275,0.5986-1.1279,0.7695c-0.4004,0.1699-0.8276,0.2559-1.2817,0.2559c-0.8008,0-1.4316-0.2168-1.8936-0.6523
				c-0.4609-0.4336-0.6919-0.9834-0.6919-1.6475c0-0.4395,0.105-0.8311,0.3149-1.1758c0.21-0.3438,0.5039-0.6074,0.8828-0.791
				c0.3779-0.1826,0.9238-0.3428,1.6367-0.4795c0.9619-0.1807,1.6284-0.3486,1.9995-0.5059v-0.2051
				c0-0.3945-0.0977-0.6768-0.293-0.8457c-0.1953-0.168-0.564-0.252-1.106-0.252c-0.3662,0-0.6519,0.0713-0.8569,0.2158
				C101.9321,19.0254,101.7661,19.2783,101.6392,19.6396z M104.3931,21.3096c-0.2637,0.0879-0.6812,0.1934-1.2524,0.3154
				s-0.9448,0.2412-1.1206,0.3584c-0.2686,0.1904-0.4028,0.4326-0.4028,0.7256c0,0.2881,0.1074,0.5371,0.3223,0.7461
				c0.2148,0.2109,0.4883,0.3154,0.8203,0.3154c0.3711,0,0.7251-0.1221,1.062-0.3662c0.249-0.1855,0.4126-0.4121,0.4907-0.6816
				c0.0537-0.1758,0.0806-0.5098,0.0806-1.0029V21.3096z"/>
			<path fill="#603813" d="M107.7183,22.8262l2.0654-0.3154c0.0879,0.4004,0.2661,0.7041,0.5347,0.9121
				c0.2686,0.207,0.6445,0.3115,1.1279,0.3115c0.5322,0,0.9326-0.0977,1.2012-0.293c0.1807-0.1367,0.271-0.3203,0.271-0.5498
				c0-0.1563-0.0488-0.2861-0.1465-0.3877c-0.1025-0.0977-0.332-0.1885-0.6885-0.2715c-1.6602-0.3662-2.7124-0.7002-3.1567-1.0039
				c-0.6152-0.4189-0.9229-1.0029-0.9229-1.75c0-0.6738,0.2661-1.2402,0.7983-1.6992s1.3574-0.6885,2.4756-0.6885
				c1.0645,0,1.8555,0.1738,2.373,0.5205s0.874,0.8594,1.0693,1.5371l-1.9409,0.3594c-0.083-0.3027-0.2407-0.5352-0.4722-0.6953
				c-0.2324-0.1621-0.563-0.2422-0.9927-0.2422c-0.542,0-0.9302,0.0762-1.1646,0.2266c-0.1563,0.1084-0.2344,0.2471-0.2344,0.418
				c0,0.1465,0.0684,0.2715,0.2051,0.373c0.1855,0.1377,0.8262,0.3301,1.9229,0.5791c1.0957,0.249,1.8613,0.5547,2.2959,0.915
				c0.4297,0.3672,0.6445,0.877,0.6445,1.5313c0,0.7129-0.2979,1.3262-0.8936,1.8379c-0.5957,0.5137-1.4771,0.7695-2.644,0.7695
				c-1.0596,0-1.8984-0.2148-2.5161-0.6445S107.9087,23.5635,107.7183,22.8262z"/>
			<path fill="#603813" d="M125.4575,22.5693l2.0508,0.3447c-0.2637,0.752-0.6802,1.3242-1.249,1.7168
				c-0.5688,0.3936-1.2803,0.5898-2.1348,0.5898c-1.3525,0-2.3535-0.4414-3.0029-1.3262c-0.5127-0.707-0.769-1.6006-0.769-2.6797
				c0-1.2891,0.3369-2.2988,1.0107-3.0293c0.6738-0.7295,1.5259-1.0947,2.5562-1.0947c1.1572,0,2.0703,0.3818,2.7393,1.1465
				c0.6689,0.7637,0.9888,1.9346,0.9595,3.5117h-5.1563c0.0146,0.6104,0.1807,1.085,0.498,1.4248
				c0.3174,0.3389,0.7129,0.5088,1.1865,0.5088c0.3223,0,0.5933-0.0879,0.813-0.2637S125.3452,22.96,125.4575,22.5693z
				 M125.5747,20.4893c-0.0146-0.5957-0.1685-1.0488-0.4614-1.3584c-0.293-0.3105-0.6494-0.4648-1.0693-0.4648
				c-0.4492,0-0.8203,0.1631-1.1133,0.4902s-0.437,0.7715-0.4321,1.333H125.5747z"/>
			<path fill="#603813" d="M128.5703,22.8262l2.0654-0.3154c0.0879,0.4004,0.2661,0.7041,0.5347,0.9121
				c0.2686,0.207,0.6445,0.3115,1.1279,0.3115c0.5322,0,0.9326-0.0977,1.2012-0.293c0.1807-0.1367,0.271-0.3203,0.271-0.5498
				c0-0.1563-0.0488-0.2861-0.1465-0.3877c-0.1025-0.0977-0.332-0.1885-0.6885-0.2715c-1.6602-0.3662-2.7124-0.7002-3.1567-1.0039
				c-0.6152-0.4189-0.9229-1.0029-0.9229-1.75c0-0.6738,0.2661-1.2402,0.7983-1.6992s1.3574-0.6885,2.4756-0.6885
				c1.0645,0,1.8555,0.1738,2.373,0.5205s0.874,0.8594,1.0693,1.5371l-1.9409,0.3594c-0.083-0.3027-0.2407-0.5352-0.4722-0.6953
				c-0.2324-0.1621-0.563-0.2422-0.9927-0.2422c-0.542,0-0.9302,0.0762-1.1646,0.2266c-0.1563,0.1084-0.2344,0.2471-0.2344,0.418
				c0,0.1465,0.0684,0.2715,0.2051,0.373c0.1855,0.1377,0.8262,0.3301,1.9229,0.5791c1.0957,0.249,1.8613,0.5547,2.2959,0.915
				c0.4297,0.3672,0.6445,0.877,0.6445,1.5313c0,0.7129-0.2979,1.3262-0.8936,1.8379c-0.5957,0.5137-1.4771,0.7695-2.644,0.7695
				c-1.0596,0-1.8984-0.2148-2.5161-0.6445S128.7607,23.5635,128.5703,22.8262z"/>
			<path fill="#603813" d="M141.2046,17.2666v1.6406h-1.4063v3.1348c0,0.6348,0.0127,1.0049,0.04,1.1094
				c0.0273,0.1055,0.0879,0.1924,0.1836,0.2607c0.0947,0.0684,0.2109,0.1016,0.3477,0.1016c0.1904,0,0.4668-0.0654,0.8281-0.1973
				l0.1758,1.5967c-0.4785,0.2051-1.0215,0.3076-1.627,0.3076c-0.3711,0-0.7051-0.0625-1.0029-0.1865
				c-0.2979-0.125-0.5166-0.2861-0.6553-0.4834c-0.1396-0.1982-0.2363-0.4648-0.2891-0.8027
				c-0.0449-0.2383-0.0664-0.7217-0.0664-1.4492v-3.3916h-0.9448v-1.6406h0.9448v-1.5459l2.0654-1.2012v2.7471H141.2046z"/>
			<path fill="#603813" d="M144.603,25.0449h-2.0576v-7.7783h1.9111v1.1064c0.3271-0.5225,0.6211-0.8672,0.8828-1.0332
				c0.2607-0.166,0.5576-0.249,0.8896-0.249c0.4688,0,0.9199,0.1299,1.3555,0.3877l-0.6377,1.7949
				c-0.3467-0.2246-0.6689-0.3369-0.9668-0.3369c-0.2881,0-0.5322,0.0791-0.7324,0.2383c-0.2002,0.1582-0.3584,0.4453-0.4727,0.8604
				s-0.1719,1.2842-0.1719,2.6074V25.0449z"/>
			<path fill="#603813" d="M153.5903,25.0449v-1.1641c-0.2832,0.415-0.6563,0.7422-1.1172,0.9805
				c-0.4609,0.2393-0.9492,0.3594-1.4609,0.3594c-0.5234,0-0.9922-0.1152-1.4063-0.3438c-0.416-0.2295-0.7158-0.5518-0.9014-0.9668
				s-0.2783-0.9893-0.2783-1.7217v-4.9219h2.0586v3.5742c0,1.0938,0.0371,1.7637,0.1133,2.0107
				c0.0752,0.2461,0.2129,0.4414,0.4141,0.5859c0.1992,0.1436,0.4531,0.2158,0.7617,0.2158c0.3516,0,0.666-0.0967,0.9443-0.2891
				c0.2783-0.1934,0.4688-0.4326,0.5713-0.7178c0.1025-0.2861,0.1543-0.9854,0.1543-2.0986v-3.2813h2.0576v7.7783H153.5903z"/>
			<path fill="#603813" d="M164.4146,19.5664l-2.0283,0.3662c-0.0684-0.4053-0.2236-0.71-0.4648-0.915
				c-0.2422-0.2051-0.5557-0.3086-0.9414-0.3086c-0.5127,0-0.9219,0.1777-1.2266,0.5313c-0.3057,0.3545-0.458,0.9463-0.458,1.7764
				c0,0.9229,0.1543,1.5752,0.4648,1.9561s0.7266,0.5703,1.249,0.5703c0.3906,0,0.71-0.1104,0.96-0.333
				c0.248-0.2217,0.4238-0.6045,0.5273-1.1455l2.0215,0.3438c-0.2109,0.9277-0.6133,1.6289-1.209,2.1016
				c-0.5957,0.4746-1.3945,0.7109-2.3945,0.7109c-1.1387,0-2.0449-0.3594-2.7217-1.0762c-0.6768-0.7188-1.0146-1.7119-1.0146-2.9814
				c0-1.2842,0.3398-2.2842,1.0186-2.999c0.6787-0.7158,1.5967-1.0732,2.7539-1.0732c0.9473,0,1.7002,0.2041,2.2598,0.6113
				C163.769,18.1104,164.1704,18.7314,164.4146,19.5664z"/>
			<path fill="#603813" d="M169.5415,17.2666v1.6406h-1.4063v3.1348c0,0.6348,0.0137,1.0049,0.041,1.1094
				c0.0264,0.1055,0.0879,0.1924,0.1836,0.2607c0.0938,0.0684,0.2109,0.1016,0.3477,0.1016c0.1895,0,0.4658-0.0654,0.8271-0.1973
				l0.1758,1.5967c-0.4785,0.2051-1.0205,0.3076-1.626,0.3076c-0.3711,0-0.7051-0.0625-1.0039-0.1865
				c-0.2969-0.125-0.5156-0.2861-0.6543-0.4834c-0.1406-0.1982-0.2363-0.4648-0.29-0.8027
				c-0.0439-0.2383-0.0654-0.7217-0.0654-1.4492v-3.3916h-0.9453v-1.6406h0.9453v-1.5459l2.0645-1.2012v2.7471H169.5415z"/>
			<path fill="#603813" d="M176.0903,25.0449v-1.1641c-0.2832,0.415-0.6563,0.7422-1.1172,0.9805
				c-0.4609,0.2393-0.9492,0.3594-1.4609,0.3594c-0.5234,0-0.9922-0.1152-1.4063-0.3438c-0.416-0.2295-0.7158-0.5518-0.9014-0.9668
				s-0.2783-0.9893-0.2783-1.7217v-4.9219h2.0586v3.5742c0,1.0938,0.0371,1.7637,0.1133,2.0107
				c0.0752,0.2461,0.2129,0.4414,0.4141,0.5859c0.1992,0.1436,0.4531,0.2158,0.7617,0.2158c0.3516,0,0.666-0.0967,0.9443-0.2891
				c0.2783-0.1934,0.4688-0.4326,0.5713-0.7178c0.1025-0.2861,0.1543-0.9854,0.1543-2.0986v-3.2813h2.0576v7.7783H176.0903z"/>
			<path fill="#603813" d="M182.103,25.0449h-2.0576v-7.7783h1.9111v1.1064c0.3271-0.5225,0.6211-0.8672,0.8828-1.0332
				c0.2607-0.166,0.5576-0.249,0.8896-0.249c0.4688,0,0.9199,0.1299,1.3555,0.3877l-0.6377,1.7949
				c-0.3467-0.2246-0.6689-0.3369-0.9668-0.3369c-0.2881,0-0.5322,0.0791-0.7324,0.2383c-0.2002,0.1582-0.3584,0.4453-0.4727,0.8604
				s-0.1719,1.2842-0.1719,2.6074V25.0449z"/>
			<path fill="#603813" d="M187.5083,19.6396l-1.8672-0.3369c0.209-0.752,0.5703-1.3086,1.084-1.6699
				c0.5117-0.3613,1.2734-0.542,2.2852-0.542c0.918,0,1.6016,0.1084,2.0508,0.3262c0.4492,0.2168,0.7656,0.4932,0.9473,0.8271
				c0.1836,0.335,0.2754,0.9492,0.2754,1.8418l-0.0215,2.4023c0,0.6846,0.0332,1.1885,0.0977,1.5127
				c0.0664,0.3252,0.1895,0.6729,0.3711,1.0439h-2.0371c-0.0527-0.1367-0.1191-0.3389-0.1973-0.6074
				c-0.0342-0.1221-0.0586-0.2031-0.0732-0.2422c-0.3516,0.3418-0.7275,0.5986-1.1279,0.7695
				c-0.4004,0.1699-0.8281,0.2559-1.2813,0.2559c-0.8008,0-1.4316-0.2168-1.8945-0.6523c-0.4609-0.4336-0.6914-0.9834-0.6914-1.6475
				c0-0.4395,0.1055-0.8311,0.3145-1.1758c0.2109-0.3438,0.5039-0.6074,0.8828-0.791c0.3789-0.1826,0.9238-0.3428,1.6367-0.4795
				c0.9629-0.1807,1.6289-0.3486,2-0.5059v-0.2051c0-0.3945-0.0977-0.6768-0.293-0.8457c-0.1953-0.168-0.5645-0.252-1.1055-0.252
				c-0.3672,0-0.6523,0.0713-0.8574,0.2158C187.8013,19.0254,187.6353,19.2783,187.5083,19.6396z M190.2622,21.3096
				c-0.2637,0.0879-0.6816,0.1934-1.252,0.3154c-0.5723,0.1221-0.9453,0.2412-1.1211,0.3584
				c-0.2686,0.1904-0.4023,0.4326-0.4023,0.7256c0,0.2881,0.1074,0.5371,0.3223,0.7461c0.2148,0.2109,0.4883,0.3154,0.8203,0.3154
				c0.3711,0,0.7246-0.1221,1.0615-0.3662c0.249-0.1855,0.4131-0.4121,0.4912-0.6816c0.0527-0.1758,0.0801-0.5098,0.0801-1.0029
				V21.3096z"/>
			<path fill="#603813" d="M193.5874,22.8262l2.0654-0.3154c0.0879,0.4004,0.2656,0.7041,0.5352,0.9121
				c0.2676,0.207,0.6445,0.3115,1.127,0.3115c0.5332,0,0.9336-0.0977,1.2012-0.293c0.1816-0.1367,0.2715-0.3203,0.2715-0.5498
				c0-0.1563-0.0488-0.2861-0.1465-0.3877c-0.1025-0.0977-0.332-0.1885-0.6885-0.2715c-1.6602-0.3662-2.7119-0.7002-3.1572-1.0039
				c-0.6152-0.4189-0.9219-1.0029-0.9219-1.75c0-0.6738,0.2656-1.2402,0.7979-1.6992s1.3574-0.6885,2.4756-0.6885
				c1.0645,0,1.8555,0.1738,2.373,0.5205s0.874,0.8594,1.0693,1.5371l-1.9404,0.3594c-0.084-0.3027-0.2412-0.5352-0.4727-0.6953
				c-0.2324-0.1621-0.5625-0.2422-0.9922-0.2422c-0.543,0-0.9307,0.0762-1.165,0.2266c-0.1563,0.1084-0.2344,0.2471-0.2344,0.418
				c0,0.1465,0.0684,0.2715,0.2051,0.373c0.1855,0.1377,0.8262,0.3301,1.9229,0.5791c1.0957,0.249,1.8613,0.5547,2.2959,0.915
				c0.4297,0.3672,0.6445,0.877,0.6445,1.5313c0,0.7129-0.2979,1.3262-0.8936,1.8379c-0.5957,0.5137-1.4766,0.7695-2.6445,0.7695
				c-1.0586,0-1.8984-0.2148-2.5156-0.6445S193.7778,23.5635,193.5874,22.8262z"/>
			<path fill="#603813" d="M213.9556,25.0449h-1.9111v-1.1426c-0.3174,0.4443-0.6924,0.7754-1.124,0.9922
				c-0.4326,0.2178-0.8682,0.3262-1.3076,0.3262c-0.8936,0-1.6592-0.3604-2.2959-1.0801c-0.6377-0.7207-0.9561-1.7246-0.9561-3.0137
				c0-1.3184,0.3096-2.3213,0.9307-3.0068c0.6191-0.6865,1.4033-1.0293,2.3506-1.0293c0.8691,0,1.6211,0.3613,2.2559,1.084v-3.8672
				h2.0576V25.0449z M208.4634,20.9873c0,0.8301,0.1143,1.4307,0.3438,1.8018c0.332,0.5371,0.7959,0.8057,1.3916,0.8057
				c0.4736,0,0.876-0.2012,1.208-0.6045c0.332-0.4023,0.498-1.0039,0.498-1.8047c0-0.8945-0.1602-1.5371-0.4824-1.9307
				c-0.3223-0.3926-0.7354-0.5889-1.2383-0.5889c-0.4883,0-0.8975,0.1934-1.2266,0.582
				C208.6274,19.6357,208.4634,20.2158,208.4634,20.9873z"/>
			<path fill="#603813" d="M220.4888,22.5693l2.0508,0.3447c-0.2637,0.752-0.6797,1.3242-1.248,1.7168
				c-0.5693,0.3936-1.2813,0.5898-2.1348,0.5898c-1.3535,0-2.3535-0.4414-3.0039-1.3262c-0.5117-0.707-0.7686-1.6006-0.7686-2.6797
				c0-1.2891,0.3369-2.2988,1.0107-3.0293c0.6738-0.7295,1.5254-1.0947,2.5566-1.0947c1.1563,0,2.0703,0.3818,2.7383,1.1465
				c0.6699,0.7637,0.9893,1.9346,0.96,3.5117h-5.1563c0.0146,0.6104,0.1807,1.085,0.498,1.4248
				c0.3174,0.3389,0.7129,0.5088,1.1865,0.5088c0.3223,0,0.5938-0.0879,0.8125-0.2637
				C220.2114,23.2432,220.3774,22.96,220.4888,22.5693z M220.606,20.4893c-0.0137-0.5957-0.168-1.0488-0.4609-1.3584
				c-0.293-0.3105-0.6494-0.4648-1.0693-0.4648c-0.4492,0-0.8203,0.1631-1.1133,0.4902s-0.4365,0.7715-0.4326,1.333H220.606z"/>
			<path fill="#603813" d="M235.6284,25.0449h-1.9121v-1.1426c-0.3164,0.4443-0.6914,0.7754-1.123,0.9922
				c-0.4336,0.2178-0.8691,0.3262-1.3086,0.3262c-0.8926,0-1.6582-0.3604-2.2949-1.0801c-0.6387-0.7207-0.957-1.7246-0.957-3.0137
				c0-1.3184,0.3105-2.3213,0.9297-3.0068c0.6211-0.6865,1.4043-1.0293,2.3516-1.0293c0.8691,0,1.6211,0.3613,2.2559,1.084v-3.8672
				h2.0586V25.0449z M230.1343,20.9873c0,0.8301,0.1152,1.4307,0.3457,1.8018c0.332,0.5371,0.7949,0.8057,1.3906,0.8057
				c0.4746,0,0.877-0.2012,1.209-0.6045c0.332-0.4023,0.498-1.0039,0.498-1.8047c0-0.8945-0.1621-1.5371-0.4844-1.9307
				c-0.3223-0.3926-0.7344-0.5889-1.2363-0.5889c-0.4883,0-0.8984,0.1934-1.2266,0.582
				C230.3003,19.6357,230.1343,20.2158,230.1343,20.9873z"/>
			<path fill="#603813" d="M239.1958,19.6396l-1.8682-0.3369c0.21-0.752,0.5713-1.3086,1.084-1.6699s1.2744-0.542,2.2852-0.542
				c0.918,0,1.6016,0.1084,2.0508,0.3262c0.4492,0.2168,0.7656,0.4932,0.9482,0.8271c0.1836,0.335,0.2754,0.9492,0.2754,1.8418
				l-0.0225,2.4023c0,0.6846,0.0332,1.1885,0.0986,1.5127c0.0664,0.3252,0.1895,0.6729,0.3701,1.0439h-2.0361
				c-0.0537-0.1367-0.1201-0.3389-0.1973-0.6074c-0.0352-0.1221-0.0586-0.2031-0.0742-0.2422
				c-0.3516,0.3418-0.7275,0.5986-1.127,0.7695c-0.4014,0.1699-0.8281,0.2559-1.2822,0.2559c-0.8008,0-1.4316-0.2168-1.8936-0.6523
				c-0.4609-0.4336-0.6914-0.9834-0.6914-1.6475c0-0.4395,0.1045-0.8311,0.3145-1.1758c0.21-0.3438,0.5039-0.6074,0.8828-0.791
				c0.3779-0.1826,0.9238-0.3428,1.6367-0.4795c0.9619-0.1807,1.6279-0.3486,2-0.5059v-0.2051c0-0.3945-0.0986-0.6768-0.293-0.8457
				c-0.1963-0.168-0.5645-0.252-1.1064-0.252c-0.3662,0-0.6514,0.0713-0.8564,0.2158
				C239.4888,19.0254,239.3218,19.2783,239.1958,19.6396z M241.9497,21.3096c-0.2637,0.0879-0.6816,0.1934-1.2529,0.3154
				s-0.9443,0.2412-1.1201,0.3584c-0.2695,0.1904-0.4033,0.4326-0.4033,0.7256c0,0.2881,0.1074,0.5371,0.3223,0.7461
				c0.2148,0.2109,0.4883,0.3154,0.8203,0.3154c0.3711,0,0.7256-0.1221,1.0615-0.3662c0.25-0.1855,0.4131-0.4121,0.4912-0.6816
				c0.0537-0.1758,0.0811-0.5098,0.0811-1.0029V21.3096z"/>
			<path fill="#603813" d="M249.5669,17.2666v1.6406h-1.4063v3.1348c0,0.6348,0.0137,1.0049,0.04,1.1094
				c0.0273,0.1055,0.0879,0.1924,0.1836,0.2607c0.0947,0.0684,0.2109,0.1016,0.3477,0.1016c0.1904,0,0.4658-0.0654,0.8281-0.1973
				l0.1758,1.5967c-0.4795,0.2051-1.0215,0.3076-1.627,0.3076c-0.3711,0-0.7051-0.0625-1.0029-0.1865
				c-0.2979-0.125-0.5166-0.2861-0.6553-0.4834c-0.1396-0.1982-0.2363-0.4648-0.2891-0.8027
				c-0.0449-0.2383-0.0664-0.7217-0.0664-1.4492v-3.3916h-0.9453v-1.6406h0.9453v-1.5459l2.0654-1.2012v2.7471H249.5669z"/>
			<path fill="#603813" d="M250.519,21.0459c0-0.6836,0.1689-1.3447,0.5049-1.9854c0.3379-0.6387,0.8145-1.127,1.4326-1.4648
				c0.6172-0.3359,1.3076-0.5049,2.0693-0.5049c1.1758,0,2.1406,0.3818,2.8926,1.1465c0.752,0.7637,1.1279,1.7295,1.1279,2.8965
				c0,1.1768-0.3799,2.1523-1.1387,2.9258c-0.7598,0.7744-1.7158,1.1611-2.8682,1.1611c-0.7129,0-1.3926-0.1611-2.0391-0.4834
				c-0.6475-0.3223-1.1387-0.7949-1.4766-1.417C250.688,22.6973,250.519,21.9395,250.519,21.0459z M252.6284,21.1563
				c0,0.7715,0.1826,1.3613,0.5498,1.7715c0.3652,0.4102,0.8174,0.6152,1.3545,0.6152s0.9873-0.2051,1.3516-0.6152
				c0.3633-0.4102,0.5459-1.0049,0.5459-1.7871c0-0.7617-0.1826-1.3477-0.5459-1.7578c-0.3643-0.4102-0.8145-0.6152-1.3516-0.6152
				s-0.9893,0.2051-1.3545,0.6152C252.811,19.793,252.6284,20.3848,252.6284,21.1563z"/>
			<path fill="#603813" d="M259.4331,22.8262l2.0654-0.3154c0.0879,0.4004,0.2656,0.7041,0.5342,0.9121
				c0.2686,0.207,0.6445,0.3115,1.1289,0.3115c0.5313,0,0.9316-0.0977,1.2012-0.293c0.1797-0.1367,0.2705-0.3203,0.2705-0.5498
				c0-0.1563-0.0488-0.2861-0.1465-0.3877c-0.1025-0.0977-0.332-0.1885-0.6885-0.2715c-1.6602-0.3662-2.7129-0.7002-3.1563-1.0039
				c-0.6152-0.4189-0.9238-1.0029-0.9238-1.75c0-0.6738,0.2666-1.2402,0.7988-1.6992s1.3574-0.6885,2.4756-0.6885
				c1.0645,0,1.8555,0.1738,2.373,0.5205s0.874,0.8594,1.0693,1.5371l-1.9414,0.3594c-0.083-0.3027-0.2402-0.5352-0.4717-0.6953
				c-0.2324-0.1621-0.5635-0.2422-0.9932-0.2422c-0.541,0-0.9297,0.0762-1.1641,0.2266c-0.1563,0.1084-0.2344,0.2471-0.2344,0.418
				c0,0.1465,0.0684,0.2715,0.2051,0.373c0.1855,0.1377,0.8262,0.3301,1.9229,0.5791c1.0957,0.249,1.8613,0.5547,2.2959,0.915
				c0.4297,0.3672,0.6445,0.877,0.6445,1.5313c0,0.7129-0.2979,1.3262-0.8936,1.8379c-0.5957,0.5137-1.4775,0.7695-2.6436,0.7695
				c-1.0605,0-1.8984-0.2148-2.5166-0.6445C260.0278,24.1465,259.6235,23.5635,259.4331,22.8262z"/>
			<path fill="#603813" d="M13.6592,39.5957l1.3403-0.1172c0.0635,0.5371,0.2109,0.9775,0.4429,1.3213
				c0.2319,0.3447,0.5923,0.623,1.0806,0.835c0.4883,0.2129,1.0376,0.3184,1.6479,0.3184c0.542,0,1.0205-0.0801,1.4355-0.2412
				s0.7236-0.3818,0.9268-0.6631c0.2021-0.2803,0.3037-0.5869,0.3037-0.9189c0-0.3369-0.0977-0.6309-0.293-0.8828
				c-0.1953-0.251-0.5176-0.4619-0.9668-0.6338c-0.2881-0.1113-0.9253-0.2861-1.9116-0.5234
				c-0.9863-0.2363-1.6772-0.46-2.0728-0.6699c-0.5127-0.2686-0.895-0.6016-1.1465-1c-0.2515-0.3975-0.377-0.8428-0.377-1.3359
				c0-0.543,0.1538-1.0488,0.4614-1.5205c0.3076-0.4707,0.7568-0.8281,1.3477-1.0732c0.5908-0.2432,1.2476-0.3652,1.9702-0.3652
				c0.7959,0,1.498,0.1279,2.1055,0.3838c0.6084,0.2568,1.0757,0.6338,1.4028,1.1318s0.5029,1.0625,0.5273,1.6914l-1.3623,0.1035
				c-0.0732-0.6787-0.3213-1.1914-0.7437-1.5391c-0.4224-0.3457-1.0459-0.5195-1.8711-0.5195c-0.8594,0-1.4858,0.1572-1.8789,0.4727
				c-0.3931,0.3145-0.5894,0.6943-0.5894,1.1387c0,0.3857,0.1392,0.7031,0.4175,0.9521c0.2734,0.249,0.9873,0.5039,2.1426,0.7656
				c1.1543,0.2607,1.9468,0.4893,2.3765,0.6846c0.625,0.2881,1.0864,0.6533,1.3843,1.0947
				c0.2979,0.4424,0.4468,0.9512,0.4468,1.5273c0,0.5713-0.1636,1.1094-0.4907,1.6152c-0.3271,0.5049-0.7974,0.8984-1.4102,1.1787
				c-0.6128,0.2813-1.3022,0.4219-2.0688,0.4219c-0.9717,0-1.7861-0.1426-2.4429-0.4258c-0.6567-0.2822-1.1719-0.709-1.5449-1.2773
				C13.875,40.9561,13.6787,40.3125,13.6592,39.5957z"/>
			<path fill="#603813" d="M29.3037,40.54l1.3623,0.1689c-0.2148,0.7959-0.6128,1.4131-1.1938,1.8525s-1.3232,0.6592-2.2266,0.6592
				c-1.1377,0-2.0396-0.3506-2.7065-1.0508c-0.666-0.7012-0.9995-1.6836-0.9995-2.9482c0-1.3086,0.3369-2.3242,1.0107-3.0469
				s1.5479-1.084,2.6221-1.084c1.04,0,1.8896,0.3545,2.5488,1.0615c0.6592,0.709,0.9888,1.7051,0.9888,2.9883
				c0,0.0791-0.0024,0.1963-0.0073,0.3516h-5.8008c0.0488,0.8555,0.2905,1.5098,0.7251,1.9629
				c0.4346,0.4551,0.9766,0.6816,1.626,0.6816c0.4834,0,0.896-0.127,1.2378-0.3809S29.1035,41.0967,29.3037,40.54z M24.9751,38.4082
				h4.3433c-0.0586-0.6533-0.2246-1.1445-0.498-1.4717c-0.4199-0.5078-0.9644-0.7617-1.6333-0.7617
				c-0.6055,0-1.1147,0.2031-1.5269,0.6084C25.2471,37.1885,25.019,37.7305,24.9751,38.4082z"/>
			<path fill="#603813" d="M42.4111,43.0449v-0.9814c-0.4932,0.7715-1.2183,1.1572-2.1753,1.1572
				c-0.6201,0-1.1899-0.1709-1.7104-0.5127c-0.5195-0.3418-0.9229-0.8193-1.208-1.4316c-0.2861-0.6133-0.4287-1.3174-0.4287-2.1133
				c0-0.7764,0.1294-1.4805,0.3882-2.1133c0.2588-0.6318,0.647-1.1162,1.1646-1.4541c0.5176-0.3359,1.0962-0.5049,1.7358-0.5049
				c0.4688,0,0.8862,0.0986,1.2524,0.2969c0.3662,0.1973,0.6641,0.4551,0.8936,0.7725v-3.8525h1.311v10.7373H42.4111z
				 M38.2437,39.1631c0,0.9961,0.21,1.7412,0.6299,2.2334c0.4199,0.4941,0.9155,0.7402,1.4868,0.7402
				c0.5762,0,1.0654-0.2354,1.4688-0.707c0.4023-0.4707,0.604-1.1895,0.604-2.1563c0-1.0645-0.2051-1.8457-0.6152-2.3438
				s-0.9155-0.748-1.5161-0.748c-0.5859,0-1.0757,0.2402-1.4688,0.7188S38.2437,38.1328,38.2437,39.1631z"/>
			<path fill="#603813" d="M45.7144,33.8242v-1.5166h1.3184v1.5166H45.7144z M45.7144,43.0449v-7.7783h1.3184v7.7783H45.7144z"/>
			<path fill="#603813" d="M48.5122,40.7227l1.3037-0.2051c0.0732,0.5234,0.2769,0.9238,0.6118,1.2012
				c0.334,0.2793,0.8018,0.418,1.4023,0.418c0.6055,0,1.0547-0.123,1.3477-0.3701c0.293-0.2461,0.4395-0.5352,0.4395-0.8682
				c0-0.2969-0.1294-0.5313-0.3882-0.7031c-0.1807-0.1172-0.6299-0.2656-1.3477-0.4463c-0.9668-0.2441-1.6372-0.4551-2.0103-0.6338
				c-0.374-0.1777-0.6572-0.4248-0.8496-0.7393c-0.1934-0.3154-0.2896-0.6631-0.2896-1.0439c0-0.3467,0.0791-0.668,0.2378-0.9629
				c0.1587-0.2959,0.375-0.541,0.6484-0.7363c0.2051-0.1514,0.4844-0.2793,0.8389-0.3848c0.3535-0.1045,0.7334-0.1572,1.1387-0.1572
				c0.6104,0,1.1465,0.0879,1.6074,0.2637c0.4619,0.1758,0.8022,0.4141,1.022,0.7139c0.2197,0.3008,0.3711,0.7021,0.4541,1.2051
				l-1.2891,0.1758c-0.0586-0.4004-0.2285-0.7129-0.5093-0.9375s-0.6772-0.3369-1.1899-0.3369
				c-0.6055,0-1.0376,0.1006-1.2964,0.2998c-0.2588,0.2012-0.3882,0.4355-0.3882,0.7031c0,0.1719,0.0537,0.3252,0.1611,0.4619
				c0.1074,0.1416,0.2759,0.2588,0.5054,0.3516c0.1318,0.0488,0.52,0.1611,1.1646,0.3369c0.9326,0.249,1.583,0.4531,1.9517,0.6113
				c0.3687,0.1592,0.6582,0.3896,0.8682,0.6924s0.3149,0.6787,0.3149,1.1279c0,0.4395-0.1284,0.8535-0.3843,1.2412
				c-0.2568,0.3887-0.6265,0.6885-1.1099,0.9014c-0.4834,0.2119-1.0303,0.3184-1.6406,0.3184c-1.0107,0-1.7813-0.21-2.311-0.6299
				S48.6587,41.5488,48.5122,40.7227z"/>
			<path fill="#603813" d="M61.8643,40.54l1.3623,0.1689c-0.2148,0.7959-0.6128,1.4131-1.1938,1.8525s-1.3232,0.6592-2.2266,0.6592
				c-1.1377,0-2.0396-0.3506-2.7065-1.0508c-0.666-0.7012-0.9995-1.6836-0.9995-2.9482c0-1.3086,0.3369-2.3242,1.0107-3.0469
				s1.5479-1.084,2.6221-1.084c1.04,0,1.8896,0.3545,2.5488,1.0615c0.6592,0.709,0.9888,1.7051,0.9888,2.9883
				c0,0.0791-0.0024,0.1963-0.0073,0.3516h-5.8008c0.0488,0.8555,0.2905,1.5098,0.7251,1.9629
				c0.4346,0.4551,0.9766,0.6816,1.626,0.6816c0.4834,0,0.896-0.127,1.2378-0.3809S61.6641,41.0967,61.8643,40.54z M57.5356,38.4082
				h4.3433c-0.0586-0.6533-0.2246-1.1445-0.498-1.4717c-0.4199-0.5078-0.9644-0.7617-1.6333-0.7617
				c-0.6055,0-1.1147,0.2031-1.5269,0.6084C57.8076,37.1885,57.5796,37.7305,57.5356,38.4082z"/>
			<path fill="#603813" d="M64.8818,43.0449v-7.7783h1.1865v1.1064c0.5713-0.8545,1.3965-1.2822,2.4756-1.2822
				c0.4688,0,0.8994,0.084,1.2925,0.2529c0.3931,0.168,0.6875,0.3896,0.8828,0.6621c0.1953,0.2744,0.332,0.5986,0.4102,0.9746
				c0.0488,0.2441,0.0732,0.6719,0.0732,1.2813v4.7832h-1.3184v-4.7314c0-0.5371-0.0513-0.9385-0.1538-1.2051
				c-0.1025-0.2656-0.2847-0.4785-0.5454-0.6367c-0.2617-0.1592-0.5679-0.2383-0.9194-0.2383c-0.5615,0-1.0464,0.1787-1.4536,0.5342
				c-0.4082,0.3574-0.6118,1.0332-0.6118,2.0293v4.248H64.8818z M65.812,34.1172c-0.0049-0.5078,0.1343-0.9131,0.4175-1.2168
				c0.2783-0.3018,0.6348-0.4531,1.0693-0.4531c0.3027,0,0.7153,0.1309,1.2378,0.3945c0.2881,0.1465,0.5176,0.2207,0.6885,0.2207
				c0.1563,0,0.2759-0.043,0.3589-0.1289c0.083-0.085,0.1416-0.2549,0.1758-0.5088h0.9521
				c-0.0146,0.5566-0.1553,0.9736-0.4214,1.2529c-0.2661,0.2773-0.604,0.417-1.0142,0.417c-0.3076,0-0.7129-0.1367-1.2158-0.4102
				c-0.3271-0.1758-0.5664-0.2637-0.7178-0.2637c-0.166,0-0.3003,0.0586-0.4028,0.1758c-0.1074,0.1172-0.1587,0.291-0.1538,0.5205
				H65.812z"/>
			<path fill="#603813" d="M78.2998,42.0859c-0.4883,0.415-0.9585,0.708-1.4102,0.8789c-0.4517,0.1699-0.936,0.2559-1.4536,0.2559
				c-0.8545,0-1.5112-0.209-1.9702-0.626c-0.459-0.418-0.6885-0.9512-0.6885-1.6006c0-0.3809,0.0864-0.7285,0.2598-1.0439
				c0.1733-0.3145,0.4004-0.5674,0.6816-0.7578c0.2803-0.1904,0.5967-0.334,0.9482-0.4326
				c0.2588-0.0674,0.6494-0.1338,1.1719-0.1973c1.0645-0.127,1.8481-0.2783,2.3511-0.4541
				c0.0049-0.1807,0.0073-0.2949,0.0073-0.3447c0-0.5361-0.1245-0.915-0.3735-1.1348c-0.3369-0.2979-0.8374-0.4473-1.5015-0.4473
				c-0.6201,0-1.0781,0.1094-1.373,0.3262c-0.2959,0.2178-0.5142,0.6025-0.6558,1.1543l-1.2891-0.1758
				c0.1172-0.5518,0.3101-0.998,0.5786-1.3369c0.2686-0.3398,0.6567-0.6006,1.1646-0.7842
				c0.5078-0.1826,1.0962-0.2744,1.7651-0.2744c0.6641,0,1.2036,0.0781,1.6187,0.2344s0.7202,0.3525,0.9155,0.5898
				c0.1953,0.2363,0.332,0.5361,0.4102,0.8975c0.0439,0.2246,0.0659,0.6289,0.0659,1.2148v1.7578
				c0,1.2266,0.0278,2.001,0.0845,2.3262c0.0557,0.3242,0.167,0.6357,0.333,0.9336h-1.377
				C78.4268,42.7715,78.3389,42.4512,78.2998,42.0859z M78.1899,39.1406c-0.4785,0.1963-1.1963,0.3623-2.1533,0.498
				c-0.542,0.0791-0.9253,0.167-1.1499,0.2637c-0.2246,0.0986-0.3979,0.2412-0.52,0.4287c-0.1221,0.1885-0.1831,0.3975-0.1831,0.626
				c0,0.3516,0.1328,0.6445,0.3994,0.8789c0.2656,0.2344,0.6553,0.3516,1.168,0.3516c0.5078,0,0.9595-0.1104,1.355-0.333
				c0.3955-0.2217,0.686-0.5254,0.8716-0.9111c0.1416-0.2979,0.2124-0.7373,0.2124-1.3184V39.1406z"/>
			<path fill="#603813" d="M91.9351,40.54l1.3623,0.1689c-0.2148,0.7959-0.6128,1.4131-1.1938,1.8525s-1.3232,0.6592-2.2266,0.6592
				c-1.1377,0-2.0396-0.3506-2.7065-1.0508c-0.666-0.7012-0.9995-1.6836-0.9995-2.9482c0-1.3086,0.3369-2.3242,1.0107-3.0469
				s1.5479-1.084,2.6221-1.084c1.04,0,1.8896,0.3545,2.5488,1.0615c0.6592,0.709,0.9888,1.7051,0.9888,2.9883
				c0,0.0791-0.0024,0.1963-0.0073,0.3516h-5.8008c0.0488,0.8555,0.2905,1.5098,0.7251,1.9629
				c0.4346,0.4551,0.9766,0.6816,1.626,0.6816c0.4834,0,0.896-0.127,1.2378-0.3809S91.7349,41.0967,91.9351,40.54z M87.6064,38.4082
				h4.3433c-0.0586-0.6533-0.2246-1.1445-0.498-1.4717c-0.4199-0.5078-0.9644-0.7617-1.6333-0.7617
				c-0.6055,0-1.1147,0.2031-1.5269,0.6084C87.8784,37.1885,87.6504,37.7305,87.6064,38.4082z"/>
			<path fill="#603813" d="M94.9526,43.0449v-7.7783h1.1865v1.1064c0.5713-0.8545,1.3965-1.2822,2.4756-1.2822
				c0.4688,0,0.8994,0.084,1.2925,0.2529c0.3931,0.168,0.6875,0.3896,0.8828,0.6621c0.1953,0.2744,0.332,0.5986,0.4102,0.9746
				c0.0488,0.2441,0.0732,0.6719,0.0732,1.2813v4.7832h-1.3184v-4.7314c0-0.5371-0.0513-0.9385-0.1538-1.2051
				c-0.1025-0.2656-0.2847-0.4785-0.5454-0.6367c-0.2617-0.1592-0.5679-0.2383-0.9194-0.2383c-0.5615,0-1.0464,0.1787-1.4536,0.5342
				c-0.4082,0.3574-0.6118,1.0332-0.6118,2.0293v4.248H94.9526z"/>
			<path fill="#603813" d="M113.3848,43.0449v-0.9814c-0.4932,0.7715-1.2183,1.1572-2.1753,1.1572
				c-0.6201,0-1.1899-0.1709-1.7104-0.5127c-0.5195-0.3418-0.9229-0.8193-1.208-1.4316c-0.2861-0.6133-0.4287-1.3174-0.4287-2.1133
				c0-0.7764,0.1294-1.4805,0.3882-2.1133c0.2588-0.6318,0.647-1.1162,1.1646-1.4541c0.5176-0.3359,1.0962-0.5049,1.7358-0.5049
				c0.4688,0,0.8862,0.0986,1.2524,0.2969c0.3662,0.1973,0.6641,0.4551,0.8936,0.7725v-3.8525h1.311v10.7373H113.3848z
				 M109.2173,39.1631c0,0.9961,0.21,1.7412,0.6299,2.2334c0.4199,0.4941,0.9155,0.7402,1.4868,0.7402
				c0.5762,0,1.0654-0.2354,1.4688-0.707c0.4023-0.4707,0.604-1.1895,0.604-2.1563c0-1.0645-0.2051-1.8457-0.6152-2.3438
				s-0.9155-0.748-1.5161-0.748c-0.5859,0-1.0757,0.2402-1.4688,0.7188S109.2173,38.1328,109.2173,39.1631z"/>
			<path fill="#603813" d="M122.0054,40.54l1.3623,0.1689c-0.2148,0.7959-0.6128,1.4131-1.1938,1.8525s-1.3232,0.6592-2.2266,0.6592
				c-1.1377,0-2.0396-0.3506-2.7065-1.0508c-0.666-0.7012-0.9995-1.6836-0.9995-2.9482c0-1.3086,0.3369-2.3242,1.0107-3.0469
				s1.5479-1.084,2.6221-1.084c1.04,0,1.8896,0.3545,2.5488,1.0615c0.6592,0.709,0.9888,1.7051,0.9888,2.9883
				c0,0.0791-0.0024,0.1963-0.0073,0.3516h-5.8008c0.0488,0.8555,0.2905,1.5098,0.7251,1.9629
				c0.4346,0.4551,0.9766,0.6816,1.626,0.6816c0.4834,0,0.896-0.127,1.2378-0.3809S121.8052,41.0967,122.0054,40.54z
				 M117.6768,38.4082h4.3433c-0.0586-0.6533-0.2246-1.1445-0.498-1.4717c-0.4199-0.5078-0.9644-0.7617-1.6333-0.7617
				c-0.6055,0-1.1147,0.2031-1.5269,0.6084C117.9487,37.1885,117.7207,37.7305,117.6768,38.4082z"/>
			<path fill="#603813" d="M127.9014,41.8652l0.1904,1.165c-0.3711,0.0781-0.7031,0.1172-0.9961,0.1172
				c-0.4785,0-0.8496-0.0762-1.1133-0.2275c-0.2637-0.1504-0.4492-0.3496-0.5566-0.5967c-0.1074-0.2461-0.1611-0.7646-0.1611-1.5557
				V36.292h-0.9668v-1.0254h0.9668v-1.9268l1.311-0.791v2.7178h1.3257v1.0254h-1.3257v4.5479c0,0.377,0.0229,0.6182,0.0698,0.7256
				c0.0459,0.1074,0.1216,0.1934,0.2266,0.2568s0.2554,0.0947,0.4507,0.0947C127.4692,41.917,127.6621,41.9004,127.9014,41.8652z"/>
			<path fill="#603813" d="M134.2661,42.0859c-0.4883,0.415-0.9585,0.708-1.4102,0.8789c-0.4517,0.1699-0.936,0.2559-1.4536,0.2559
				c-0.8545,0-1.5112-0.209-1.9702-0.626c-0.459-0.418-0.6885-0.9512-0.6885-1.6006c0-0.3809,0.0864-0.7285,0.2598-1.0439
				c0.1733-0.3145,0.4004-0.5674,0.6816-0.7578c0.2803-0.1904,0.5967-0.334,0.9482-0.4326
				c0.2588-0.0674,0.6494-0.1338,1.1719-0.1973c1.0645-0.127,1.8481-0.2783,2.3511-0.4541
				c0.0049-0.1807,0.0073-0.2949,0.0073-0.3447c0-0.5361-0.1245-0.915-0.3735-1.1348c-0.3369-0.2979-0.8374-0.4473-1.5015-0.4473
				c-0.6201,0-1.0781,0.1094-1.373,0.3262c-0.2959,0.2178-0.5142,0.6025-0.6558,1.1543l-1.2891-0.1758
				c0.1172-0.5518,0.3101-0.998,0.5786-1.3369c0.2686-0.3398,0.6567-0.6006,1.1646-0.7842
				c0.5078-0.1826,1.0962-0.2744,1.7651-0.2744c0.6641,0,1.2036,0.0781,1.6187,0.2344s0.7202,0.3525,0.9155,0.5898
				c0.1953,0.2363,0.332,0.5361,0.4102,0.8975c0.0439,0.2246,0.0659,0.6289,0.0659,1.2148v1.7578
				c0,1.2266,0.0278,2.001,0.0845,2.3262c0.0557,0.3242,0.167,0.6357,0.333,0.9336h-1.377
				C134.3931,42.7715,134.3052,42.4512,134.2661,42.0859z M134.1563,39.1406c-0.4785,0.1963-1.1963,0.3623-2.1533,0.498
				c-0.542,0.0791-0.9253,0.167-1.1499,0.2637c-0.2246,0.0986-0.3979,0.2412-0.52,0.4287c-0.1221,0.1885-0.1831,0.3975-0.1831,0.626
				c0,0.3516,0.1328,0.6445,0.3994,0.8789c0.2656,0.2344,0.6553,0.3516,1.168,0.3516c0.5078,0,0.9595-0.1104,1.355-0.333
				c0.3955-0.2217,0.686-0.5254,0.8716-0.9111c0.1416-0.2979,0.2124-0.7373,0.2124-1.3184V39.1406z"/>
			<path fill="#603813" d="M137.5034,43.0449V32.3076h1.3184v10.7373H137.5034z"/>
			<path fill="#603813" d="M140.8364,43.0449V32.3076h1.3184v10.7373H140.8364z"/>
			<path fill="#603813" d="M149.522,40.54l1.3633,0.1689c-0.2148,0.7959-0.6133,1.4131-1.1943,1.8525s-1.3232,0.6592-2.2266,0.6592
				c-1.1377,0-2.04-0.3506-2.7061-1.0508c-0.666-0.7012-1-1.6836-1-2.9482c0-1.3086,0.3369-2.3242,1.0107-3.0469
				s1.5479-1.084,2.6221-1.084c1.04,0,1.8896,0.3545,2.5488,1.0615c0.6592,0.709,0.9883,1.7051,0.9883,2.9883
				c0,0.0791-0.002,0.1963-0.0068,0.3516h-5.8008c0.0488,0.8555,0.29,1.5098,0.7256,1.9629
				c0.4336,0.4551,0.9766,0.6816,1.625,0.6816c0.4844,0,0.8965-0.127,1.2383-0.3809S149.3228,41.0967,149.522,40.54z
				 M145.1938,38.4082h4.3438c-0.0586-0.6533-0.2246-1.1445-0.498-1.4717c-0.4199-0.5078-0.9648-0.7617-1.6338-0.7617
				c-0.6055,0-1.1143,0.2031-1.5264,0.6084C145.4653,37.1885,145.2378,37.7305,145.1938,38.4082z"/>
			<path fill="#603813" d="M157.5259,46.041l-0.1465-1.2383c0.2871,0.0781,0.5391,0.1172,0.7539,0.1172
				c0.293,0,0.5273-0.0488,0.7031-0.1465s0.3203-0.2344,0.4316-0.4102c0.084-0.1318,0.2178-0.459,0.4033-0.9814
				c0.0244-0.0732,0.0635-0.1807,0.1172-0.3223l-2.9521-7.793h1.4219l1.6182,4.5049c0.21,0.5703,0.3975,1.1719,0.5635,1.8008
				c0.1523-0.6045,0.332-1.1953,0.543-1.7715l1.6621-4.5342h1.3184l-2.959,7.9102c-0.3174,0.8545-0.5645,1.4424-0.7402,1.7646
				c-0.2344,0.4346-0.502,0.7539-0.8047,0.9561c-0.3027,0.2031-0.6641,0.3037-1.084,0.3037
				C158.1216,46.2012,157.8384,46.1475,157.5259,46.041z"/>
			<path fill="#603813" d="M169.6001,40.7227l1.3037-0.2051c0.0732,0.5234,0.2764,0.9238,0.6123,1.2012
				c0.334,0.2793,0.8008,0.418,1.4023,0.418c0.6055,0,1.0547-0.123,1.3477-0.3701c0.293-0.2461,0.4395-0.5352,0.4395-0.8682
				c0-0.2969-0.1299-0.5313-0.3887-0.7031c-0.1807-0.1172-0.6299-0.2656-1.3477-0.4463c-0.9668-0.2441-1.6367-0.4551-2.0098-0.6338
				c-0.375-0.1777-0.6582-0.4248-0.8496-0.7393c-0.1934-0.3154-0.29-0.6631-0.29-1.0439c0-0.3467,0.0791-0.668,0.2373-0.9629
				c0.1592-0.2959,0.375-0.541,0.6484-0.7363c0.2051-0.1514,0.4844-0.2793,0.8398-0.3848c0.3535-0.1045,0.7324-0.1572,1.1387-0.1572
				c0.6094,0,1.1465,0.0879,1.6074,0.2637s0.8018,0.4141,1.0215,0.7139c0.2197,0.3008,0.3711,0.7021,0.4541,1.2051l-1.2891,0.1758
				c-0.0586-0.4004-0.2285-0.7129-0.5088-0.9375c-0.2813-0.2246-0.6777-0.3369-1.1904-0.3369c-0.6055,0-1.0381,0.1006-1.2959,0.2998
				c-0.2598,0.2012-0.3887,0.4355-0.3887,0.7031c0,0.1719,0.0537,0.3252,0.1611,0.4619c0.1074,0.1416,0.2764,0.2588,0.5049,0.3516
				c0.1328,0.0488,0.5205,0.1611,1.165,0.3369c0.9326,0.249,1.583,0.4531,1.9521,0.6113c0.3682,0.1592,0.6582,0.3896,0.8672,0.6924
				c0.2109,0.3027,0.3154,0.6787,0.3154,1.1279c0,0.4395-0.1279,0.8535-0.3838,1.2412c-0.2578,0.3887-0.627,0.6885-1.1104,0.9014
				c-0.4834,0.2119-1.0303,0.3184-1.6406,0.3184c-1.0107,0-1.7813-0.21-2.3115-0.6299
				C170.0845,42.1709,169.7466,41.5488,169.6001,40.7227z"/>
			<path fill="#603813" d="M182.9517,40.54l1.3633,0.1689c-0.2148,0.7959-0.6133,1.4131-1.1943,1.8525s-1.3232,0.6592-2.2266,0.6592
				c-1.1377,0-2.04-0.3506-2.7061-1.0508c-0.666-0.7012-1-1.6836-1-2.9482c0-1.3086,0.3369-2.3242,1.0107-3.0469
				s1.5479-1.084,2.6221-1.084c1.04,0,1.8896,0.3545,2.5488,1.0615c0.6592,0.709,0.9883,1.7051,0.9883,2.9883
				c0,0.0791-0.002,0.1963-0.0068,0.3516h-5.8008c0.0488,0.8555,0.29,1.5098,0.7256,1.9629
				c0.4336,0.4551,0.9766,0.6816,1.625,0.6816c0.4844,0,0.8965-0.127,1.2383-0.3809S182.7524,41.0967,182.9517,40.54z
				 M178.6235,38.4082h4.3438c-0.0586-0.6533-0.2246-1.1445-0.498-1.4717c-0.4199-0.5078-0.9648-0.7617-1.6338-0.7617
				c-0.6055,0-1.1143,0.2031-1.5264,0.6084C178.895,37.1885,178.6675,37.7305,178.6235,38.4082z"/>
			<path fill="#603813" d="M196.3384,40.54l1.3623,0.1689c-0.2148,0.7959-0.6123,1.4131-1.1943,1.8525
				c-0.5801,0.4395-1.3223,0.6592-2.2266,0.6592c-1.1367,0-2.0391-0.3506-2.7061-1.0508c-0.666-0.7012-0.999-1.6836-0.999-2.9482
				c0-1.3086,0.3359-2.3242,1.0098-3.0469s1.5488-1.084,2.623-1.084c1.0391,0,1.8887,0.3545,2.5488,1.0615
				c0.6582,0.709,0.9883,1.7051,0.9883,2.9883c0,0.0791-0.002,0.1963-0.0078,0.3516h-5.8008
				c0.0488,0.8555,0.291,1.5098,0.7256,1.9629c0.4346,0.4551,0.9766,0.6816,1.626,0.6816c0.4834,0,0.8965-0.127,1.2383-0.3809
				S196.1382,41.0967,196.3384,40.54z M192.0103,38.4082h4.3428c-0.0586-0.6533-0.2246-1.1445-0.498-1.4717
				c-0.4199-0.5078-0.9639-0.7617-1.6338-0.7617c-0.6055,0-1.1143,0.2031-1.5264,0.6084
				C192.2817,37.1885,192.0532,37.7305,192.0103,38.4082z"/>
			<path fill="#603813" d="M198.8286,40.7227l1.3037-0.2051c0.0732,0.5234,0.2764,0.9238,0.6123,1.2012
				c0.334,0.2793,0.8008,0.418,1.4023,0.418c0.6055,0,1.0547-0.123,1.3477-0.3701c0.293-0.2461,0.4395-0.5352,0.4395-0.8682
				c0-0.2969-0.1299-0.5313-0.3887-0.7031c-0.1807-0.1172-0.6299-0.2656-1.3477-0.4463c-0.9668-0.2441-1.6367-0.4551-2.0098-0.6338
				c-0.375-0.1777-0.6582-0.4248-0.8496-0.7393c-0.1934-0.3154-0.29-0.6631-0.29-1.0439c0-0.3467,0.0791-0.668,0.2373-0.9629
				c0.1592-0.2959,0.375-0.541,0.6484-0.7363c0.2051-0.1514,0.4844-0.2793,0.8398-0.3848c0.3535-0.1045,0.7324-0.1572,1.1387-0.1572
				c0.6094,0,1.1465,0.0879,1.6074,0.2637s0.8018,0.4141,1.0215,0.7139c0.2197,0.3008,0.3711,0.7021,0.4541,1.2051l-1.2891,0.1758
				c-0.0586-0.4004-0.2285-0.7129-0.5088-0.9375c-0.2813-0.2246-0.6777-0.3369-1.1904-0.3369c-0.6055,0-1.0381,0.1006-1.2959,0.2998
				c-0.2598,0.2012-0.3887,0.4355-0.3887,0.7031c0,0.1719,0.0537,0.3252,0.1611,0.4619c0.1074,0.1416,0.2764,0.2588,0.5049,0.3516
				c0.1328,0.0488,0.5205,0.1611,1.165,0.3369c0.9326,0.249,1.583,0.4531,1.9521,0.6113c0.3682,0.1592,0.6582,0.3896,0.8672,0.6924
				c0.2109,0.3027,0.3154,0.6787,0.3154,1.1279c0,0.4395-0.1279,0.8535-0.3838,1.2412c-0.2578,0.3887-0.627,0.6885-1.1104,0.9014
				c-0.4834,0.2119-1.0303,0.3184-1.6406,0.3184c-1.0107,0-1.7813-0.21-2.3115-0.6299
				C199.313,42.1709,198.9751,41.5488,198.8286,40.7227z"/>
			<path fill="#603813" d="M206.856,46.0254V35.2666h1.2012v1.0107c0.2832-0.3955,0.6035-0.6924,0.959-0.8896
				c0.3574-0.1982,0.7891-0.2969,1.2969-0.2969c0.6641,0,1.25,0.1709,1.7578,0.5127s0.8906,0.8242,1.1504,1.4463
				c0.2578,0.623,0.3877,1.3057,0.3877,2.0479c0,0.7959-0.1436,1.5117-0.4287,2.1494c-0.2852,0.6367-0.7012,1.125-1.2441,1.4648
				c-0.5449,0.3389-1.1172,0.5088-1.7188,0.5088c-0.4395,0-0.834-0.0928-1.1816-0.2783c-0.3496-0.1855-0.6367-0.4199-0.8613-0.7031
				v3.7861H206.856z M208.0493,39.1992c0,1.002,0.2031,1.7412,0.6084,2.2197s0.8955,0.7178,1.4717,0.7178
				c0.5859,0,1.0879-0.248,1.5059-0.7432c0.418-0.4961,0.626-1.2637,0.626-2.3037c0-0.9912-0.2041-1.7334-0.6123-2.2266
				c-0.4072-0.4932-0.8945-0.7402-1.4609-0.7402c-0.5605,0-1.0586,0.2627-1.4902,0.7881
				C208.2661,37.4355,208.0493,38.1992,208.0493,39.1992z"/>
			<path fill="#603813" d="M220.5229,40.54l1.3623,0.1689c-0.2148,0.7959-0.6133,1.4131-1.1934,1.8525
				c-0.582,0.4395-1.3242,0.6592-2.2266,0.6592c-1.1387,0-2.04-0.3506-2.707-1.0508c-0.666-0.7012-1-1.6836-1-2.9482
				c0-1.3086,0.3379-2.3242,1.0117-3.0469s1.5469-1.084,2.6211-1.084c1.041,0,1.8906,0.3545,2.5488,1.0615
				c0.6602,0.709,0.9893,1.7051,0.9893,2.9883c0,0.0791-0.0029,0.1963-0.0068,0.3516h-5.8008
				c0.0488,0.8555,0.29,1.5098,0.7246,1.9629c0.4346,0.4551,0.9766,0.6816,1.626,0.6816c0.4834,0,0.8955-0.127,1.2373-0.3809
				S220.3228,41.0967,220.5229,40.54z M216.1938,38.4082h4.3438c-0.0586-0.6533-0.2246-1.1445-0.498-1.4717
				c-0.4199-0.5078-0.9648-0.7617-1.6328-0.7617c-0.6055,0-1.1152,0.2031-1.5273,0.6084
				C216.4663,37.1885,216.2388,37.7305,216.1938,38.4082z"/>
			<path fill="#603813" d="M228.6167,40.1953l1.2969,0.1689c-0.1426,0.8936-0.5059,1.5928-1.0879,2.0986
				c-0.584,0.5049-1.3008,0.7578-2.1504,0.7578c-1.0645,0-1.9209-0.3477-2.5674-1.0439c-0.6465-0.6953-0.9707-1.6924-0.9707-2.9912
				c0-0.8398,0.1396-1.5752,0.418-2.2051s0.7012-1.1025,1.2715-1.417c0.5684-0.3154,1.1875-0.4727,1.8555-0.4727
				c0.8447,0,1.5361,0.2139,2.0732,0.6406c0.5371,0.4277,0.8809,1.0342,1.0332,1.8203l-1.2813,0.1982
				c-0.123-0.5225-0.3398-0.916-0.6484-1.1797c-0.3105-0.2637-0.6855-0.3955-1.125-0.3955c-0.6641,0-1.2041,0.2383-1.6182,0.7139
				c-0.416,0.4766-0.623,1.2295-0.623,2.2598c0,1.0449,0.2002,1.8047,0.6006,2.2773c0.4004,0.4746,0.9229,0.7109,1.5674,0.7109
				c0.5176,0,0.9502-0.1582,1.2959-0.4766C228.3042,41.3438,228.5229,40.8555,228.6167,40.1953z"/>
			<path fill="#603813" d="M231.0474,33.8242v-1.5166h1.3184v1.5166H231.0474z M231.0474,43.0449v-7.7783h1.3184v7.7783H231.0474z"
				/>
			<path fill="#603813" d="M234.687,43.0449V36.292h-1.165v-1.0254h1.165v-0.8271c0-0.5225,0.0459-0.9111,0.1396-1.165
				c0.126-0.3418,0.3496-0.6191,0.6699-0.8311c0.3193-0.2129,0.7676-0.3184,1.3438-0.3184c0.3711,0,0.7813,0.043,1.2305,0.1309
				l-0.1973,1.1504c-0.2744-0.0488-0.5332-0.0732-0.7773-0.0732c-0.4004,0-0.6836,0.0859-0.8496,0.2568s-0.248,0.4902-0.248,0.959
				v0.7178h1.5156v1.0254h-1.5156v6.7529H234.687z"/>
			<path fill="#603813" d="M238.5474,33.8242v-1.5166h1.3184v1.5166H238.5474z M238.5474,43.0449v-7.7783h1.3184v7.7783H238.5474z"
				/>
			<path fill="#603813" d="M246.9478,40.1953l1.2969,0.1689c-0.1426,0.8936-0.5049,1.5928-1.0879,2.0986
				c-0.584,0.5049-1.3008,0.7578-2.1504,0.7578c-1.0645,0-1.9199-0.3477-2.5664-1.0439c-0.6475-0.6953-0.9707-1.6924-0.9707-2.9912
				c0-0.8398,0.1387-1.5752,0.418-2.2051c0.2773-0.6299,0.7012-1.1025,1.2705-1.417c0.5684-0.3154,1.1875-0.4727,1.8564-0.4727
				c0.8447,0,1.5352,0.2139,2.0723,0.6406c0.5371,0.4277,0.8818,1.0342,1.0332,1.8203l-1.2813,0.1982
				c-0.123-0.5225-0.3389-0.916-0.6484-1.1797c-0.3105-0.2637-0.6855-0.3955-1.125-0.3955c-0.6641,0-1.2031,0.2383-1.6182,0.7139
				c-0.415,0.4766-0.6221,1.2295-0.6221,2.2598c0,1.0449,0.1992,1.8047,0.5996,2.2773c0.4004,0.4746,0.9238,0.7109,1.5684,0.7109
				c0.5166,0,0.9492-0.1582,1.2959-0.4766C246.6353,41.3438,246.855,40.8555,246.9478,40.1953z"/>
			<path fill="#603813" d="M254.4478,42.0859c-0.4883,0.415-0.958,0.708-1.4102,0.8789c-0.4512,0.1699-0.9365,0.2559-1.4531,0.2559
				c-0.8555,0-1.5117-0.209-1.9707-0.626c-0.459-0.418-0.6885-0.9512-0.6885-1.6006c0-0.3809,0.0869-0.7285,0.2598-1.0439
				c0.1738-0.3145,0.4004-0.5674,0.6816-0.7578c0.2803-0.1904,0.5967-0.334,0.9482-0.4326
				c0.2588-0.0674,0.6494-0.1338,1.1719-0.1973c1.0645-0.127,1.8477-0.2783,2.3516-0.4541
				c0.0039-0.1807,0.0068-0.2949,0.0068-0.3447c0-0.5361-0.124-0.915-0.374-1.1348c-0.3359-0.2979-0.8369-0.4473-1.501-0.4473
				c-0.6201,0-1.0781,0.1094-1.373,0.3262c-0.2959,0.2178-0.5146,0.6025-0.6553,1.1543l-1.2891-0.1758
				c0.1172-0.5518,0.3096-0.998,0.5781-1.3369c0.2686-0.3398,0.6563-0.6006,1.1641-0.7842
				c0.5078-0.1826,1.0967-0.2744,1.7656-0.2744c0.6641,0,1.2031,0.0781,1.6191,0.2344c0.4141,0.1563,0.7197,0.3525,0.915,0.5898
				c0.1953,0.2363,0.332,0.5361,0.4102,0.8975c0.0439,0.2246,0.0654,0.6289,0.0654,1.2148v1.7578
				c0,1.2266,0.0283,2.001,0.085,2.3262c0.0557,0.3242,0.167,0.6357,0.333,0.9336h-1.377
				C254.5747,42.7715,254.4868,42.4512,254.4478,42.0859z M254.3384,39.1406c-0.4795,0.1963-1.1973,0.3623-2.1543,0.498
				c-0.541,0.0791-0.9248,0.167-1.1494,0.2637c-0.2246,0.0986-0.3984,0.2412-0.5205,0.4287
				c-0.1221,0.1885-0.1826,0.3975-0.1826,0.626c0,0.3516,0.1328,0.6445,0.3994,0.8789c0.2656,0.2344,0.6553,0.3516,1.168,0.3516
				c0.5078,0,0.959-0.1104,1.3555-0.333c0.3945-0.2217,0.6855-0.5254,0.8711-0.9111c0.1416-0.2979,0.2129-0.7373,0.2129-1.3184
				V39.1406z"/>
			<path fill="#603813" d="M262.729,43.0449V32.3076h1.3184v10.7373H262.729z"/>
			<path fill="#603813" d="M271.1665,42.0859c-0.4883,0.415-0.958,0.708-1.4102,0.8789c-0.4512,0.1699-0.9365,0.2559-1.4531,0.2559
				c-0.8555,0-1.5117-0.209-1.9707-0.626c-0.459-0.418-0.6885-0.9512-0.6885-1.6006c0-0.3809,0.0869-0.7285,0.2598-1.0439
				c0.1738-0.3145,0.4004-0.5674,0.6816-0.7578c0.2803-0.1904,0.5967-0.334,0.9482-0.4326
				c0.2588-0.0674,0.6494-0.1338,1.1719-0.1973c1.0645-0.127,1.8477-0.2783,2.3516-0.4541
				c0.0039-0.1807,0.0068-0.2949,0.0068-0.3447c0-0.5361-0.124-0.915-0.374-1.1348c-0.3359-0.2979-0.8369-0.4473-1.501-0.4473
				c-0.6201,0-1.0781,0.1094-1.373,0.3262c-0.2959,0.2178-0.5146,0.6025-0.6553,1.1543l-1.2891-0.1758
				c0.1172-0.5518,0.3096-0.998,0.5781-1.3369c0.2686-0.3398,0.6563-0.6006,1.1641-0.7842
				c0.5078-0.1826,1.0967-0.2744,1.7656-0.2744c0.6641,0,1.2031,0.0781,1.6191,0.2344c0.4141,0.1563,0.7197,0.3525,0.915,0.5898
				c0.1953,0.2363,0.332,0.5361,0.4102,0.8975c0.0439,0.2246,0.0654,0.6289,0.0654,1.2148v1.7578
				c0,1.2266,0.0283,2.001,0.085,2.3262c0.0557,0.3242,0.167,0.6357,0.333,0.9336h-1.377
				C271.2935,42.7715,271.2056,42.4512,271.1665,42.0859z M271.0571,39.1406c-0.4795,0.1963-1.1973,0.3623-2.1543,0.498
				c-0.541,0.0791-0.9248,0.167-1.1494,0.2637c-0.2246,0.0986-0.3984,0.2412-0.5205,0.4287
				c-0.1221,0.1885-0.1826,0.3975-0.1826,0.626c0,0.3516,0.1328,0.6445,0.3994,0.8789c0.2656,0.2344,0.6553,0.3516,1.168,0.3516
				c0.5078,0,0.959-0.1104,1.3555-0.333c0.3945-0.2217,0.6855-0.5254,0.8711-0.9111c0.1416-0.2979,0.2129-0.7373,0.2129-1.3184
				V39.1406z"/>
			<path fill="#603813" d="M19.2988,58.54l1.3623,0.1689c-0.2148,0.7959-0.6128,1.4131-1.1938,1.8525s-1.3232,0.6592-2.2266,0.6592
				c-1.1377,0-2.0396-0.3506-2.7065-1.0508c-0.666-0.7012-0.9995-1.6836-0.9995-2.9482c0-1.3086,0.3369-2.3242,1.0107-3.0469
				s1.5479-1.084,2.6221-1.084c1.04,0,1.8896,0.3545,2.5488,1.0615c0.6592,0.709,0.9888,1.7051,0.9888,2.9883
				c0,0.0791-0.0024,0.1963-0.0073,0.3516H14.897c0.0488,0.8555,0.2905,1.5098,0.7251,1.9629
				c0.4346,0.4551,0.9766,0.6816,1.626,0.6816c0.4834,0,0.896-0.127,1.2378-0.3809S19.0986,59.0967,19.2988,58.54z M14.9702,56.4082
				h4.3433c-0.0586-0.6533-0.2246-1.1445-0.498-1.4717c-0.4199-0.5078-0.9644-0.7617-1.6333-0.7617
				c-0.6055,0-1.1147,0.2031-1.5269,0.6084C15.2422,55.1885,15.0142,55.7305,14.9702,56.4082z"/>
			<path fill="#603813" d="M21.7891,58.7227l1.3037-0.2051c0.0732,0.5234,0.2769,0.9238,0.6118,1.2012
				c0.334,0.2793,0.8018,0.418,1.4023,0.418c0.6055,0,1.0547-0.123,1.3477-0.3701c0.293-0.2461,0.4395-0.5352,0.4395-0.8682
				c0-0.2969-0.1294-0.5313-0.3882-0.7031c-0.1807-0.1172-0.6299-0.2656-1.3477-0.4463c-0.9668-0.2441-1.6372-0.4551-2.0103-0.6338
				c-0.374-0.1777-0.6572-0.4248-0.8496-0.7393c-0.1934-0.3154-0.2896-0.6631-0.2896-1.0439c0-0.3467,0.0791-0.668,0.2378-0.9629
				c0.1587-0.2959,0.375-0.541,0.6484-0.7363c0.2051-0.1514,0.4844-0.2793,0.8389-0.3848c0.3535-0.1045,0.7334-0.1572,1.1387-0.1572
				c0.6104,0,1.1465,0.0879,1.6074,0.2637c0.4619,0.1758,0.8022,0.4141,1.022,0.7139c0.2197,0.3008,0.3711,0.7021,0.4541,1.2051
				l-1.2891,0.1758c-0.0586-0.4004-0.2285-0.7129-0.5093-0.9375s-0.6772-0.3369-1.1899-0.3369
				c-0.6055,0-1.0376,0.1006-1.2964,0.2998c-0.2588,0.2012-0.3882,0.4355-0.3882,0.7031c0,0.1719,0.0537,0.3252,0.1611,0.4619
				c0.1074,0.1416,0.2759,0.2588,0.5054,0.3516c0.1318,0.0488,0.52,0.1611,1.1646,0.3369c0.9326,0.249,1.583,0.4531,1.9517,0.6113
				c0.3687,0.1592,0.6582,0.3896,0.8682,0.6924s0.3149,0.6787,0.3149,1.1279c0,0.4395-0.1284,0.8535-0.3843,1.2412
				c-0.2568,0.3887-0.6265,0.6885-1.1099,0.9014c-0.4834,0.2119-1.0303,0.3184-1.6406,0.3184c-1.0107,0-1.7813-0.21-2.311-0.6299
				S21.9355,59.5488,21.7891,58.7227z"/>
			<path fill="#603813" d="M32.6948,59.8652l0.1904,1.165c-0.3711,0.0781-0.7031,0.1172-0.9961,0.1172
				c-0.4785,0-0.8496-0.0762-1.1133-0.2275c-0.2637-0.1504-0.4492-0.3496-0.5566-0.5967c-0.1074-0.2461-0.1611-0.7646-0.1611-1.5557
				V54.292h-0.9668v-1.0254h0.9668v-1.9268l1.311-0.791v2.7178h1.3257v1.0254h-1.3257v4.5479c0,0.377,0.0229,0.6182,0.0698,0.7256
				c0.0459,0.1074,0.1216,0.1934,0.2266,0.2568s0.2554,0.0947,0.4507,0.0947C32.2627,59.917,32.4556,59.9004,32.6948,59.8652z"/>
			<path fill="#603813" d="M33.9692,61.0449v-7.7783h1.1865v1.1787c0.3027-0.5508,0.5825-0.915,0.8384-1.0908
				c0.2568-0.1758,0.5386-0.2637,0.8462-0.2637c0.4443,0,0.896,0.1416,1.355,0.4248l-0.4541,1.2227
				c-0.3223-0.1895-0.6445-0.2852-0.9668-0.2852c-0.2881,0-0.5469,0.0869-0.7764,0.2598c-0.2295,0.1738-0.3931,0.4141-0.4907,0.7217
				c-0.1465,0.4688-0.2197,0.9814-0.2197,1.5381v4.0723H33.9692z"/>
			<path fill="#603813" d="M44.0767,61.0449v-1.1426c-0.6055,0.8789-1.4282,1.3184-2.4683,1.3184
				c-0.459,0-0.8877-0.0879-1.2852-0.2637c-0.3984-0.1758-0.6938-0.3965-0.8867-0.6631c-0.1929-0.2656-0.3281-0.5918-0.4063-0.9775
				c-0.0537-0.2588-0.0806-0.6689-0.0806-1.2305v-4.8193h1.3184v4.3135c0,0.6895,0.0269,1.1533,0.0806,1.3926
				c0.083,0.3467,0.2588,0.6182,0.5273,0.8164c0.2686,0.1973,0.6006,0.2969,0.9961,0.2969s0.7666-0.1016,1.1133-0.3047
				c0.3467-0.2021,0.5918-0.4785,0.7363-0.8271c0.1436-0.3496,0.2158-0.8555,0.2158-1.5205v-4.167h1.3184v7.7783H44.0767z"/>
			<path fill="#603813" d="M52.397,58.1953l1.2964,0.1689c-0.1416,0.8936-0.5044,1.5928-1.0874,2.0986
				c-0.584,0.5049-1.3003,0.7578-2.1499,0.7578c-1.0645,0-1.9204-0.3477-2.5669-1.0439c-0.6475-0.6953-0.9707-1.6924-0.9707-2.9912
				c0-0.8398,0.1392-1.5752,0.4175-2.2051s0.7017-1.1025,1.271-1.417c0.5684-0.3154,1.1875-0.4727,1.8564-0.4727
				c0.8447,0,1.5356,0.2139,2.0728,0.6406c0.5371,0.4277,0.8813,1.0342,1.0327,1.8203L52.2871,55.75
				c-0.1221-0.5225-0.3384-0.916-0.6479-1.1797c-0.3105-0.2637-0.6851-0.3955-1.1245-0.3955c-0.6641,0-1.2036,0.2383-1.6187,0.7139
				c-0.415,0.4766-0.6226,1.2295-0.6226,2.2598c0,1.0449,0.2002,1.8047,0.6006,2.2773c0.4004,0.4746,0.9229,0.7109,1.5674,0.7109
				c0.5176,0,0.9497-0.1582,1.2964-0.4766C52.0845,59.3438,52.3042,58.8555,52.397,58.1953z"/>
			<path fill="#603813" d="M57.6997,59.8652l0.1904,1.165c-0.3711,0.0781-0.7031,0.1172-0.9961,0.1172
				c-0.4785,0-0.8496-0.0762-1.1133-0.2275c-0.2637-0.1504-0.4492-0.3496-0.5566-0.5967c-0.1074-0.2461-0.1611-0.7646-0.1611-1.5557
				V54.292h-0.9668v-1.0254h0.9668v-1.9268l1.311-0.791v2.7178h1.3257v1.0254H56.374v4.5479c0,0.377,0.0229,0.6182,0.0698,0.7256
				c0.0459,0.1074,0.1216,0.1934,0.2266,0.2568s0.2554,0.0947,0.4507,0.0947C57.2676,59.917,57.4604,59.9004,57.6997,59.8652z"/>
			<path fill="#603813" d="M64.0864,61.0449v-1.1426c-0.6055,0.8789-1.4282,1.3184-2.4683,1.3184
				c-0.459,0-0.8877-0.0879-1.2852-0.2637c-0.3984-0.1758-0.6938-0.3965-0.8867-0.6631c-0.1929-0.2656-0.3281-0.5918-0.4063-0.9775
				c-0.0537-0.2588-0.0806-0.6689-0.0806-1.2305v-4.8193h1.3184v4.3135c0,0.6895,0.0269,1.1533,0.0806,1.3926
				c0.083,0.3467,0.2588,0.6182,0.5273,0.8164c0.2686,0.1973,0.6006,0.2969,0.9961,0.2969s0.7666-0.1016,1.1133-0.3047
				c0.3467-0.2021,0.5918-0.4785,0.7363-0.8271c0.1436-0.3496,0.2158-0.8555,0.2158-1.5205v-4.167h1.3184v7.7783H64.0864z"/>
			<path fill="#603813" d="M67.3164,61.0449v-7.7783h1.1865v1.1787c0.3027-0.5508,0.5825-0.915,0.8384-1.0908
				c0.2568-0.1758,0.5386-0.2637,0.8462-0.2637c0.4443,0,0.896,0.1416,1.355,0.4248l-0.4541,1.2227
				c-0.3223-0.1895-0.6445-0.2852-0.9668-0.2852c-0.2881,0-0.5469,0.0869-0.7764,0.2598c-0.2295,0.1738-0.3931,0.4141-0.4907,0.7217
				c-0.1465,0.4688-0.2197,0.9814-0.2197,1.5381v4.0723H67.3164z"/>
			<path fill="#603813" d="M77.4019,60.0859c-0.4883,0.415-0.9585,0.708-1.4102,0.8789c-0.4517,0.1699-0.936,0.2559-1.4536,0.2559
				c-0.8545,0-1.5112-0.209-1.9702-0.626c-0.459-0.418-0.6885-0.9512-0.6885-1.6006c0-0.3809,0.0864-0.7285,0.2598-1.0439
				c0.1733-0.3145,0.4004-0.5674,0.6816-0.7578c0.2803-0.1904,0.5967-0.334,0.9482-0.4326
				c0.2588-0.0674,0.6494-0.1338,1.1719-0.1973c1.0645-0.127,1.8481-0.2783,2.3511-0.4541
				c0.0049-0.1807,0.0073-0.2949,0.0073-0.3447c0-0.5361-0.1245-0.915-0.3735-1.1348c-0.3369-0.2979-0.8374-0.4473-1.5015-0.4473
				c-0.6201,0-1.0781,0.1094-1.373,0.3262c-0.2959,0.2178-0.5142,0.6025-0.6558,1.1543l-1.2891-0.1758
				c0.1172-0.5518,0.3101-0.998,0.5786-1.3369c0.2686-0.3398,0.6567-0.6006,1.1646-0.7842
				c0.5078-0.1826,1.0962-0.2744,1.7651-0.2744c0.6641,0,1.2036,0.0781,1.6187,0.2344s0.7202,0.3525,0.9155,0.5898
				c0.1953,0.2363,0.332,0.5361,0.4102,0.8975c0.0439,0.2246,0.0659,0.6289,0.0659,1.2148v1.7578
				c0,1.2266,0.0278,2.001,0.0845,2.3262c0.0557,0.3242,0.167,0.6357,0.333,0.9336h-1.377
				C77.5288,60.7715,77.4409,60.4512,77.4019,60.0859z M77.292,57.1406c-0.4785,0.1963-1.1963,0.3623-2.1533,0.498
				c-0.542,0.0791-0.9253,0.167-1.1499,0.2637c-0.2246,0.0986-0.3979,0.2412-0.52,0.4287c-0.1221,0.1885-0.1831,0.3975-0.1831,0.626
				c0,0.3516,0.1328,0.6445,0.3994,0.8789c0.2656,0.2344,0.6553,0.3516,1.168,0.3516c0.5078,0,0.9595-0.1104,1.355-0.333
				c0.3955-0.2217,0.686-0.5254,0.8716-0.9111c0.1416-0.2979,0.2124-0.7373,0.2124-1.3184V57.1406z"/>
			<path fill="#603813" d="M90.9058,61.0449v-0.9814c-0.4932,0.7715-1.2183,1.1572-2.1753,1.1572
				c-0.6201,0-1.1899-0.1709-1.7104-0.5127c-0.5195-0.3418-0.9229-0.8193-1.208-1.4316c-0.2861-0.6133-0.4287-1.3174-0.4287-2.1133
				c0-0.7764,0.1294-1.4805,0.3882-2.1133c0.2588-0.6318,0.647-1.1162,1.1646-1.4541c0.5176-0.3359,1.0962-0.5049,1.7358-0.5049
				c0.4688,0,0.8862,0.0986,1.2524,0.2969c0.3662,0.1973,0.6641,0.4551,0.8936,0.7725v-3.8525h1.311v10.7373H90.9058z
				 M86.7383,57.1631c0,0.9961,0.21,1.7412,0.6299,2.2334c0.4199,0.4941,0.9155,0.7402,1.4868,0.7402
				c0.5762,0,1.0654-0.2354,1.4688-0.707c0.4023-0.4707,0.604-1.1895,0.604-2.1563c0-1.0645-0.2051-1.8457-0.6152-2.3438
				s-0.9155-0.748-1.5161-0.748c-0.5859,0-1.0757,0.2402-1.4688,0.7188S86.7383,56.1328,86.7383,57.1631z"/>
			<path fill="#603813" d="M99.5264,58.54l1.3623,0.1689c-0.2148,0.7959-0.6128,1.4131-1.1938,1.8525s-1.3232,0.6592-2.2266,0.6592
				c-1.1377,0-2.0396-0.3506-2.7065-1.0508c-0.666-0.7012-0.9995-1.6836-0.9995-2.9482c0-1.3086,0.3369-2.3242,1.0107-3.0469
				s1.5479-1.084,2.6221-1.084c1.04,0,1.8896,0.3545,2.5488,1.0615c0.6592,0.709,0.9888,1.7051,0.9888,2.9883
				c0,0.0791-0.0024,0.1963-0.0073,0.3516h-5.8008c0.0488,0.8555,0.2905,1.5098,0.7251,1.9629
				c0.4346,0.4551,0.9766,0.6816,1.626,0.6816c0.4834,0,0.896-0.127,1.2378-0.3809S99.3262,59.0967,99.5264,58.54z M95.1978,56.4082
				h4.3433c-0.0586-0.6533-0.2246-1.1445-0.498-1.4717c-0.4199-0.5078-0.9644-0.7617-1.6333-0.7617
				c-0.6055,0-1.1147,0.2031-1.5269,0.6084C95.4697,55.1885,95.2417,55.7305,95.1978,56.4082z"/>
			<path fill="#603813" d="M112.7813,61.0449v-0.9814c-0.4932,0.7715-1.2183,1.1572-2.1753,1.1572
				c-0.6201,0-1.1899-0.1709-1.7104-0.5127c-0.5195-0.3418-0.9229-0.8193-1.208-1.4316c-0.2861-0.6133-0.4287-1.3174-0.4287-2.1133
				c0-0.7764,0.1294-1.4805,0.3882-2.1133c0.2588-0.6318,0.647-1.1162,1.1646-1.4541c0.5176-0.3359,1.0962-0.5049,1.7358-0.5049
				c0.4688,0,0.8862,0.0986,1.2524,0.2969c0.3662,0.1973,0.6641,0.4551,0.8936,0.7725v-3.8525h1.311v10.7373H112.7813z
				 M108.6138,57.1631c0,0.9961,0.21,1.7412,0.6299,2.2334c0.4199,0.4941,0.9155,0.7402,1.4868,0.7402
				c0.5762,0,1.0654-0.2354,1.4688-0.707c0.4023-0.4707,0.604-1.1895,0.604-2.1563c0-1.0645-0.2051-1.8457-0.6152-2.3438
				s-0.9155-0.748-1.5161-0.748c-0.5859,0-1.0757,0.2402-1.4688,0.7188S108.6138,56.1328,108.6138,57.1631z"/>
			<path fill="#603813" d="M121.1528,60.0859c-0.4883,0.415-0.9585,0.708-1.4102,0.8789c-0.4517,0.1699-0.936,0.2559-1.4536,0.2559
				c-0.8545,0-1.5112-0.209-1.9702-0.626c-0.459-0.418-0.6885-0.9512-0.6885-1.6006c0-0.3809,0.0864-0.7285,0.2598-1.0439
				c0.1733-0.3145,0.4004-0.5674,0.6816-0.7578c0.2803-0.1904,0.5967-0.334,0.9482-0.4326
				c0.2588-0.0674,0.6494-0.1338,1.1719-0.1973c1.0645-0.127,1.8481-0.2783,2.3511-0.4541
				c0.0049-0.1807,0.0073-0.2949,0.0073-0.3447c0-0.5361-0.1245-0.915-0.3735-1.1348c-0.3369-0.2979-0.8374-0.4473-1.5015-0.4473
				c-0.6201,0-1.0781,0.1094-1.373,0.3262c-0.2959,0.2178-0.5142,0.6025-0.6558,1.1543l-1.2891-0.1758
				c0.1172-0.5518,0.3101-0.998,0.5786-1.3369c0.2686-0.3398,0.6567-0.6006,1.1646-0.7842
				c0.5078-0.1826,1.0962-0.2744,1.7651-0.2744c0.6641,0,1.2036,0.0781,1.6187,0.2344s0.7202,0.3525,0.9155,0.5898
				c0.1953,0.2363,0.332,0.5361,0.4102,0.8975c0.0439,0.2246,0.0659,0.6289,0.0659,1.2148v1.7578
				c0,1.2266,0.0278,2.001,0.0845,2.3262c0.0557,0.3242,0.167,0.6357,0.333,0.9336h-1.377
				C121.2798,60.7715,121.1919,60.4512,121.1528,60.0859z M121.043,57.1406c-0.4785,0.1963-1.1963,0.3623-2.1533,0.498
				c-0.542,0.0791-0.9253,0.167-1.1499,0.2637c-0.2246,0.0986-0.3979,0.2412-0.52,0.4287c-0.1221,0.1885-0.1831,0.3975-0.1831,0.626
				c0,0.3516,0.1328,0.6445,0.3994,0.8789c0.2656,0.2344,0.6553,0.3516,1.168,0.3516c0.5078,0,0.9595-0.1104,1.355-0.333
				c0.3955-0.2217,0.686-0.5254,0.8716-0.9111c0.1416-0.2979,0.2124-0.7373,0.2124-1.3184V57.1406z"/>
			<path fill="#603813" d="M127.2979,59.8652l0.1904,1.165c-0.3711,0.0781-0.7031,0.1172-0.9961,0.1172
				c-0.4785,0-0.8496-0.0762-1.1133-0.2275c-0.2637-0.1504-0.4492-0.3496-0.5566-0.5967c-0.1074-0.2461-0.1611-0.7646-0.1611-1.5557
				V54.292h-0.9668v-1.0254h0.9668v-1.9268l1.311-0.791v2.7178h1.3257v1.0254h-1.3257v4.5479c0,0.377,0.0229,0.6182,0.0698,0.7256
				c0.0459,0.1074,0.1216,0.1934,0.2266,0.2568s0.2554,0.0947,0.4507,0.0947C126.8657,59.917,127.0586,59.9004,127.2979,59.8652z"/>
			<path fill="#603813" d="M128.0962,57.1563c0-1.4404,0.4004-2.5078,1.2012-3.2012c0.6689-0.5762,1.4844-0.8643,2.4463-0.8643
				c1.0693,0,1.9434,0.3506,2.6221,1.0508c0.6787,0.7012,1.0181,1.6689,1.0181,2.9043c0,1.001-0.1499,1.7881-0.4507,2.3623
				c-0.2998,0.5732-0.7373,1.0195-1.3105,1.3359c-0.5742,0.3174-1.2002,0.4766-1.8789,0.4766c-1.0889,0-1.9692-0.3486-2.6406-1.0469
				S128.0962,58.4697,128.0962,57.1563z M129.4512,57.1563c0,0.9961,0.2173,1.7412,0.6519,2.2373
				c0.4346,0.4951,0.9814,0.7432,1.6406,0.7432c0.6543,0,1.1987-0.249,1.6333-0.7471s0.6519-1.2568,0.6519-2.2783
				c0-0.9609-0.2188-1.6904-0.6553-2.1855c-0.4375-0.4961-0.9805-0.7441-1.6299-0.7441c-0.6592,0-1.2061,0.2471-1.6406,0.7402
				S129.4512,56.1602,129.4512,57.1563z"/>
			<path fill="#603813" d="M136.4019,58.7227l1.3037-0.2051c0.0732,0.5234,0.2773,0.9238,0.6113,1.2012
				c0.334,0.2793,0.8027,0.418,1.4023,0.418c0.6055,0,1.0547-0.123,1.3477-0.3701c0.293-0.2461,0.4395-0.5352,0.4395-0.8682
				c0-0.2969-0.1289-0.5313-0.3877-0.7031c-0.1807-0.1172-0.6299-0.2656-1.3477-0.4463c-0.9668-0.2441-1.6377-0.4551-2.0107-0.6338
				c-0.373-0.1777-0.6567-0.4248-0.8491-0.7393c-0.1934-0.3154-0.2896-0.6631-0.2896-1.0439c0-0.3467,0.0791-0.668,0.2378-0.9629
				c0.1587-0.2959,0.375-0.541,0.6489-0.7363c0.2051-0.1514,0.4844-0.2793,0.8379-0.3848c0.3535-0.1045,0.7344-0.1572,1.1387-0.1572
				c0.6113,0,1.1465,0.0879,1.6074,0.2637c0.4629,0.1758,0.8027,0.4141,1.0225,0.7139c0.2197,0.3008,0.3711,0.7021,0.4541,1.2051
				l-1.2891,0.1758c-0.0586-0.4004-0.2285-0.7129-0.5098-0.9375c-0.2803-0.2246-0.6768-0.3369-1.1895-0.3369
				c-0.6055,0-1.0371,0.1006-1.2969,0.2998c-0.2578,0.2012-0.3877,0.4355-0.3877,0.7031c0,0.1719,0.0537,0.3252,0.1611,0.4619
				c0.1074,0.1416,0.2754,0.2588,0.5059,0.3516c0.1309,0.0488,0.5195,0.1611,1.1641,0.3369c0.9326,0.249,1.583,0.4531,1.9512,0.6113
				c0.3691,0.1592,0.6582,0.3896,0.8691,0.6924c0.209,0.3027,0.3145,0.6787,0.3145,1.1279c0,0.4395-0.1289,0.8535-0.3848,1.2412
				c-0.2559,0.3887-0.626,0.6885-1.1094,0.9014c-0.4834,0.2119-1.0303,0.3184-1.6406,0.3184c-1.0107,0-1.7813-0.21-2.3105-0.6299
				C136.8862,60.1709,136.5483,59.5488,136.4019,58.7227z"/>
			<path fill="#603813" d="M154.5786,64.0254v-3.8086c-0.2051,0.2891-0.4922,0.5273-0.8604,0.7188
				c-0.3691,0.1895-0.7607,0.2852-1.1758,0.2852c-0.9229,0-1.7178-0.3682-2.3838-1.1055c-0.667-0.7373-1-1.748-1-3.0332
				c0-0.7803,0.1357-1.4814,0.4063-2.1016c0.2715-0.6201,0.6641-1.0898,1.1797-1.4102c0.5146-0.3193,1.0801-0.4795,1.6953-0.4795
				c0.9619,0,1.7188,0.4053,2.2705,1.2158v-1.04h1.1865v10.7588H154.5786z M150.5142,57.1338c0,1.001,0.209,1.752,0.6289,2.252
				c0.4199,0.501,0.9238,0.751,1.5098,0.751c0.5605,0,1.0449-0.2383,1.4492-0.7139c0.4063-0.4766,0.6084-1.2002,0.6084-2.1719
				c0-1.0352-0.2139-1.8135-0.6406-2.3369c-0.4277-0.5215-0.9287-0.7832-1.5049-0.7832c-0.5723,0-1.0566,0.2432-1.4541,0.7285
				C150.7124,55.3457,150.5142,56.1035,150.5142,57.1338z"/>
			<path fill="#603813" d="M163.0601,61.0449v-1.1426c-0.6055,0.8789-1.4287,1.3184-2.4678,1.3184
				c-0.459,0-0.8887-0.0879-1.2852-0.2637c-0.3984-0.1758-0.6943-0.3965-0.8867-0.6631c-0.1934-0.2656-0.3281-0.5918-0.4063-0.9775
				c-0.0547-0.2588-0.0811-0.6689-0.0811-1.2305v-4.8193h1.3184v4.3135c0,0.6895,0.0264,1.1533,0.0811,1.3926
				c0.082,0.3467,0.2578,0.6182,0.5273,0.8164c0.2676,0.1973,0.5996,0.2969,0.9961,0.2969c0.3945,0,0.7656-0.1016,1.1133-0.3047
				c0.3457-0.2021,0.5918-0.4785,0.7363-0.8271c0.1426-0.3496,0.2148-0.8555,0.2148-1.5205v-4.167h1.3184v7.7783H163.0601z"/>
			<path fill="#603813" d="M171.6294,58.54l1.3623,0.1689c-0.2148,0.7959-0.6123,1.4131-1.1943,1.8525
				c-0.5801,0.4395-1.3223,0.6592-2.2266,0.6592c-1.1367,0-2.0391-0.3506-2.7061-1.0508c-0.666-0.7012-0.999-1.6836-0.999-2.9482
				c0-1.3086,0.3359-2.3242,1.0098-3.0469s1.5488-1.084,2.623-1.084c1.0391,0,1.8887,0.3545,2.5488,1.0615
				c0.6582,0.709,0.9883,1.7051,0.9883,2.9883c0,0.0791-0.002,0.1963-0.0078,0.3516h-5.8008
				c0.0488,0.8555,0.291,1.5098,0.7256,1.9629c0.4346,0.4551,0.9766,0.6816,1.626,0.6816c0.4834,0,0.8965-0.127,1.2383-0.3809
				S171.4292,59.0967,171.6294,58.54z M167.3013,56.4082h4.3428c-0.0586-0.6533-0.2246-1.1445-0.498-1.4717
				c-0.4199-0.5078-0.9639-0.7617-1.6338-0.7617c-0.6055,0-1.1143,0.2031-1.5264,0.6084
				C167.5728,55.1885,167.3442,55.7305,167.3013,56.4082z"/>
			<path fill="#603813" d="M179.311,58.7227l1.3027-0.2051c0.0742,0.5234,0.2773,0.9238,0.6123,1.2012
				c0.334,0.2793,0.8018,0.418,1.4023,0.418c0.6055,0,1.0547-0.123,1.3477-0.3701c0.293-0.2461,0.4395-0.5352,0.4395-0.8682
				c0-0.2969-0.1299-0.5313-0.3877-0.7031c-0.1816-0.1172-0.6309-0.2656-1.3477-0.4463c-0.9668-0.2441-1.6377-0.4551-2.0107-0.6338
				c-0.374-0.1777-0.6572-0.4248-0.8496-0.7393c-0.1934-0.3154-0.29-0.6631-0.29-1.0439c0-0.3467,0.0801-0.668,0.2383-0.9629
				c0.1582-0.2959,0.375-0.541,0.6484-0.7363c0.2051-0.1514,0.4844-0.2793,0.8389-0.3848c0.3535-0.1045,0.7334-0.1572,1.1387-0.1572
				c0.6104,0,1.1465,0.0879,1.6074,0.2637c0.4619,0.1758,0.8018,0.4141,1.0225,0.7139c0.2188,0.3008,0.3711,0.7021,0.4531,1.2051
				l-1.2891,0.1758c-0.0586-0.4004-0.2285-0.7129-0.5088-0.9375s-0.6768-0.3369-1.1904-0.3369
				c-0.6055,0-1.0371,0.1006-1.2959,0.2998c-0.2588,0.2012-0.3877,0.4355-0.3877,0.7031c0,0.1719,0.0527,0.3252,0.1602,0.4619
				c0.1074,0.1416,0.2764,0.2588,0.5059,0.3516c0.1318,0.0488,0.5195,0.1611,1.1641,0.3369c0.9336,0.249,1.584,0.4531,1.9521,0.6113
				c0.3682,0.1592,0.6582,0.3896,0.8682,0.6924s0.3145,0.6787,0.3145,1.1279c0,0.4395-0.1279,0.8535-0.3838,1.2412
				c-0.2568,0.3887-0.626,0.6885-1.1104,0.9014c-0.4824,0.2119-1.0293,0.3184-1.6406,0.3184c-1.0098,0-1.7813-0.21-2.3105-0.6299
				S179.4575,59.5488,179.311,58.7227z"/>
			<path fill="#603813" d="M192.6626,58.54l1.3623,0.1689c-0.2148,0.7959-0.6123,1.4131-1.1943,1.8525
				c-0.5801,0.4395-1.3223,0.6592-2.2266,0.6592c-1.1367,0-2.0391-0.3506-2.7061-1.0508c-0.666-0.7012-0.999-1.6836-0.999-2.9482
				c0-1.3086,0.3359-2.3242,1.0098-3.0469s1.5488-1.084,2.623-1.084c1.0391,0,1.8887,0.3545,2.5488,1.0615
				c0.6582,0.709,0.9883,1.7051,0.9883,2.9883c0,0.0791-0.002,0.1963-0.0078,0.3516h-5.8008
				c0.0488,0.8555,0.291,1.5098,0.7256,1.9629c0.4346,0.4551,0.9766,0.6816,1.626,0.6816c0.4834,0,0.8965-0.127,1.2383-0.3809
				S192.4624,59.0967,192.6626,58.54z M188.3345,56.4082h4.3428c-0.0586-0.6533-0.2246-1.1445-0.498-1.4717
				c-0.4199-0.5078-0.9639-0.7617-1.6338-0.7617c-0.6055,0-1.1143,0.2031-1.5264,0.6084
				C188.606,55.1885,188.3774,55.7305,188.3345,56.4082z"/>
			<path fill="#603813" d="M205.9692,61.0449v-1.1426c-0.6055,0.8789-1.4287,1.3184-2.4688,1.3184
				c-0.459,0-0.8877-0.0879-1.2852-0.2637c-0.3984-0.1758-0.6934-0.3965-0.8867-0.6631c-0.1934-0.2656-0.3281-0.5918-0.4063-0.9775
				c-0.0537-0.2588-0.0801-0.6689-0.0801-1.2305v-4.8193h1.3184v4.3135c0,0.6895,0.0264,1.1533,0.0801,1.3926
				c0.083,0.3467,0.2588,0.6182,0.5273,0.8164c0.2686,0.1973,0.6006,0.2969,0.9961,0.2969s0.7666-0.1016,1.1133-0.3047
				c0.3467-0.2021,0.5918-0.4785,0.7363-0.8271c0.1436-0.3496,0.2158-0.8555,0.2158-1.5205v-4.167h1.3184v7.7783H205.9692z"/>
			<path fill="#603813" d="M212.0923,59.8652l0.1895,1.165c-0.3711,0.0781-0.7031,0.1172-0.9961,0.1172
				c-0.4785,0-0.8496-0.0762-1.1133-0.2275c-0.2637-0.1504-0.4492-0.3496-0.5566-0.5967c-0.1074-0.2461-0.1602-0.7646-0.1602-1.5557
				V54.292h-0.9668v-1.0254h0.9668v-1.9268l1.3105-0.791v2.7178h1.3262v1.0254h-1.3262v4.5479c0,0.377,0.0234,0.6182,0.0703,0.7256
				c0.0449,0.1074,0.1211,0.1934,0.2266,0.2568c0.1045,0.0635,0.2549,0.0947,0.4502,0.0947
				C211.6597,59.917,211.8521,59.9004,212.0923,59.8652z"/>
			<path fill="#603813" d="M213.3882,51.8242v-1.5166h1.3184v1.5166H213.3882z M213.3882,61.0449v-7.7783h1.3184v7.7783H213.3882z"
				/>
			<path fill="#603813" d="M216.6841,61.0449V50.3076h1.3184v10.7373H216.6841z"/>
			<path fill="#603813" d="M220.0532,51.8242v-1.5166h1.3184v1.5166H220.0532z M220.0532,61.0449v-7.7783h1.3184v7.7783H220.0532z"
				/>
			<path fill="#603813" d="M222.6821,61.0449v-1.0693l4.9521-5.6836c-0.5615,0.0293-1.0576,0.0439-1.4873,0.0439h-3.1719v-1.0693
				h6.3584v0.8721l-4.2119,4.9355l-0.8125,0.9014c0.5898-0.0439,1.1445-0.0654,1.6621-0.0654h3.5967v1.1348H222.6821z"/>
			<path fill="#603813" d="M235.9546,60.0859c-0.4883,0.415-0.958,0.708-1.4102,0.8789c-0.4512,0.1699-0.9365,0.2559-1.4531,0.2559
				c-0.8555,0-1.5117-0.209-1.9707-0.626c-0.459-0.418-0.6885-0.9512-0.6885-1.6006c0-0.3809,0.0869-0.7285,0.2598-1.0439
				c0.1738-0.3145,0.4004-0.5674,0.6816-0.7578c0.2803-0.1904,0.5967-0.334,0.9482-0.4326
				c0.2588-0.0674,0.6494-0.1338,1.1719-0.1973c1.0645-0.127,1.8477-0.2783,2.3516-0.4541
				c0.0039-0.1807,0.0068-0.2949,0.0068-0.3447c0-0.5361-0.124-0.915-0.374-1.1348c-0.3359-0.2979-0.8369-0.4473-1.501-0.4473
				c-0.6201,0-1.0781,0.1094-1.373,0.3262c-0.2959,0.2178-0.5146,0.6025-0.6553,1.1543l-1.2891-0.1758
				c0.1172-0.5518,0.3096-0.998,0.5781-1.3369c0.2686-0.3398,0.6563-0.6006,1.1641-0.7842
				c0.5078-0.1826,1.0967-0.2744,1.7656-0.2744c0.6641,0,1.2031,0.0781,1.6191,0.2344c0.4141,0.1563,0.7197,0.3525,0.915,0.5898
				c0.1953,0.2363,0.332,0.5361,0.4102,0.8975c0.0439,0.2246,0.0654,0.6289,0.0654,1.2148v1.7578
				c0,1.2266,0.0283,2.001,0.085,2.3262c0.0557,0.3242,0.167,0.6357,0.333,0.9336h-1.377
				C236.0815,60.7715,235.9937,60.4512,235.9546,60.0859z M235.8452,57.1406c-0.4795,0.1963-1.1973,0.3623-2.1543,0.498
				c-0.541,0.0791-0.9248,0.167-1.1494,0.2637c-0.2246,0.0986-0.3984,0.2412-0.5205,0.4287
				c-0.1221,0.1885-0.1826,0.3975-0.1826,0.626c0,0.3516,0.1328,0.6445,0.3994,0.8789c0.2656,0.2344,0.6553,0.3516,1.168,0.3516
				c0.5078,0,0.959-0.1104,1.3555-0.333c0.3945-0.2217,0.6855-0.5254,0.8711-0.9111c0.1416-0.2979,0.2129-0.7373,0.2129-1.3184
				V57.1406z"/>
			<path fill="#603813" d="M239.2065,61.0449v-7.7783h1.1855v1.1787c0.3027-0.5508,0.583-0.915,0.8389-1.0908
				c0.2568-0.1758,0.5381-0.2637,0.8467-0.2637c0.4434,0,0.8955,0.1416,1.3545,0.4248l-0.4541,1.2227
				c-0.3223-0.1895-0.6445-0.2852-0.9668-0.2852c-0.2881,0-0.5469,0.0869-0.7764,0.2598c-0.2295,0.1738-0.3936,0.4141-0.4912,0.7217
				c-0.1465,0.4688-0.2188,0.9814-0.2188,1.5381v4.0723H239.2065z"/>
			<path fill="#603813" d="M249.2915,60.0859c-0.4883,0.415-0.958,0.708-1.4102,0.8789c-0.4512,0.1699-0.9365,0.2559-1.4531,0.2559
				c-0.8555,0-1.5117-0.209-1.9707-0.626c-0.459-0.418-0.6885-0.9512-0.6885-1.6006c0-0.3809,0.0869-0.7285,0.2598-1.0439
				c0.1738-0.3145,0.4004-0.5674,0.6816-0.7578c0.2803-0.1904,0.5967-0.334,0.9482-0.4326
				c0.2588-0.0674,0.6494-0.1338,1.1719-0.1973c1.0645-0.127,1.8477-0.2783,2.3516-0.4541
				c0.0039-0.1807,0.0068-0.2949,0.0068-0.3447c0-0.5361-0.124-0.915-0.374-1.1348c-0.3359-0.2979-0.8369-0.4473-1.501-0.4473
				c-0.6201,0-1.0781,0.1094-1.373,0.3262c-0.2959,0.2178-0.5146,0.6025-0.6553,1.1543l-1.2891-0.1758
				c0.1172-0.5518,0.3096-0.998,0.5781-1.3369c0.2686-0.3398,0.6563-0.6006,1.1641-0.7842
				c0.5078-0.1826,1.0967-0.2744,1.7656-0.2744c0.6641,0,1.2031,0.0781,1.6191,0.2344c0.4141,0.1563,0.7197,0.3525,0.915,0.5898
				c0.1953,0.2363,0.332,0.5361,0.4102,0.8975c0.0439,0.2246,0.0654,0.6289,0.0654,1.2148v1.7578
				c0,1.2266,0.0283,2.001,0.085,2.3262c0.0557,0.3242,0.167,0.6357,0.333,0.9336h-1.377
				C249.4185,60.7715,249.3306,60.4512,249.2915,60.0859z M249.1821,57.1406c-0.4795,0.1963-1.1973,0.3623-2.1543,0.498
				c-0.541,0.0791-0.9248,0.167-1.1494,0.2637c-0.2246,0.0986-0.3984,0.2412-0.5205,0.4287
				c-0.1221,0.1885-0.1826,0.3975-0.1826,0.626c0,0.3516,0.1328,0.6445,0.3994,0.8789c0.2656,0.2344,0.6553,0.3516,1.168,0.3516
				c0.5078,0,0.959-0.1104,1.3555-0.333c0.3945-0.2217,0.6855-0.5254,0.8711-0.9111c0.1416-0.2979,0.2129-0.7373,0.2129-1.3184
				V57.1406z M246.6177,52.2998l0.9746-2.0508h1.7285l-1.6113,2.0508H246.6177z"/>
			<path fill="#603813" d="M263.0747,58.54l1.3623,0.1689c-0.2148,0.7959-0.6133,1.4131-1.1934,1.8525
				c-0.582,0.4395-1.3242,0.6592-2.2266,0.6592c-1.1387,0-2.04-0.3506-2.707-1.0508c-0.666-0.7012-1-1.6836-1-2.9482
				c0-1.3086,0.3379-2.3242,1.0117-3.0469s1.5469-1.084,2.6211-1.084c1.041,0,1.8906,0.3545,2.5488,1.0615
				c0.6602,0.709,0.9893,1.7051,0.9893,2.9883c0,0.0791-0.0029,0.1963-0.0068,0.3516h-5.8008
				c0.0479,0.8555,0.29,1.5098,0.7246,1.9629c0.4346,0.4551,0.9766,0.6816,1.626,0.6816c0.4834,0,0.8955-0.127,1.2373-0.3809
				S262.8745,59.0967,263.0747,58.54z M258.7456,56.4082h4.3438c-0.0586-0.6533-0.2246-1.1445-0.498-1.4717
				c-0.4199-0.5078-0.9648-0.7617-1.6328-0.7617c-0.6064,0-1.1152,0.2031-1.5273,0.6084
				C259.0181,55.1885,258.7905,55.7305,258.7456,56.4082z"/>
			<path fill="#603813" d="M266.0913,61.0449v-7.7783h1.1875v1.1064c0.5703-0.8545,1.3955-1.2822,2.4746-1.2822
				c0.4688,0,0.9004,0.084,1.293,0.2529c0.3936,0.168,0.6875,0.3896,0.8828,0.6621c0.1953,0.2744,0.332,0.5986,0.4102,0.9746
				c0.0488,0.2441,0.0732,0.6719,0.0732,1.2813v4.7832h-1.3184v-4.7314c0-0.5371-0.0518-0.9385-0.1533-1.2051
				c-0.1035-0.2656-0.2852-0.4785-0.5459-0.6367c-0.2617-0.1592-0.5674-0.2383-0.9189-0.2383c-0.5625,0-1.0469,0.1787-1.4541,0.5342
				c-0.4082,0.3574-0.6123,1.0332-0.6123,2.0293v4.248H266.0913z"/>
			<path fill="#603813" d="M13.9448,79.0449V68.3076h1.3184v10.7373H13.9448z"/>
			<path fill="#603813" d="M22.3823,78.0859c-0.4883,0.415-0.9585,0.708-1.4102,0.8789c-0.4517,0.1699-0.936,0.2559-1.4536,0.2559
				c-0.8545,0-1.5112-0.209-1.9702-0.626c-0.459-0.418-0.6885-0.9512-0.6885-1.6006c0-0.3809,0.0864-0.7285,0.2598-1.0439
				c0.1733-0.3145,0.4004-0.5674,0.6816-0.7578c0.2803-0.1904,0.5967-0.334,0.9482-0.4326
				c0.2588-0.0674,0.6494-0.1338,1.1719-0.1973c1.0645-0.127,1.8481-0.2783,2.3511-0.4541
				c0.0049-0.1807,0.0073-0.2949,0.0073-0.3447c0-0.5361-0.1245-0.915-0.3735-1.1348c-0.3369-0.2979-0.8374-0.4473-1.5015-0.4473
				c-0.6201,0-1.0781,0.1094-1.373,0.3262c-0.2959,0.2178-0.5142,0.6025-0.6558,1.1543l-1.2891-0.1758
				c0.1172-0.5518,0.3101-0.998,0.5786-1.3369c0.2686-0.3398,0.6567-0.6006,1.1646-0.7842
				c0.5078-0.1826,1.0962-0.2744,1.7651-0.2744c0.6641,0,1.2036,0.0781,1.6187,0.2344s0.7202,0.3525,0.9155,0.5898
				c0.1953,0.2363,0.332,0.5361,0.4102,0.8975c0.0439,0.2246,0.0659,0.6289,0.0659,1.2148v1.7578
				c0,1.2266,0.0278,2.001,0.0845,2.3262c0.0557,0.3242,0.167,0.6357,0.333,0.9336h-1.377
				C22.5093,78.7715,22.4214,78.4512,22.3823,78.0859z M22.2725,75.1406c-0.4785,0.1963-1.1963,0.3623-2.1533,0.498
				c-0.542,0.0791-0.9253,0.167-1.1499,0.2637c-0.2246,0.0986-0.3979,0.2412-0.52,0.4287c-0.1221,0.1885-0.1831,0.3975-0.1831,0.626
				c0,0.3516,0.1328,0.6445,0.3994,0.8789c0.2656,0.2344,0.6553,0.3516,1.168,0.3516c0.5078,0,0.9595-0.1104,1.355-0.333
				c0.3955-0.2217,0.686-0.5254,0.8716-0.9111c0.1416-0.2979,0.2124-0.7373,0.2124-1.3184V75.1406z"/>
			<path fill="#603813" d="M29.8237,69.8242v-1.5166h1.3184v1.5166H29.8237z M29.8237,79.0449v-7.7783h1.3184v7.7783H29.8237z"/>
			<path fill="#603813" d="M33.1489,79.0449v-7.7783h1.1792v1.0908c0.2441-0.3809,0.5688-0.6865,0.9741-0.9189
				c0.4053-0.2314,0.8667-0.3477,1.3843-0.3477c0.5762,0,1.0483,0.1201,1.417,0.3584c0.3687,0.2402,0.6289,0.5742,0.7803,1.0039
				c0.6152-0.9082,1.416-1.3623,2.4023-1.3623c0.7715,0,1.3647,0.2139,1.7798,0.6406c0.415,0.4277,0.6226,1.0859,0.6226,1.9736
				v5.3398h-1.311v-4.9004c0-0.5273-0.043-0.9063-0.1284-1.1387c-0.0854-0.2314-0.2402-0.418-0.4648-0.5605
				c-0.2246-0.1406-0.4883-0.2119-0.791-0.2119c-0.5469,0-1.001,0.1816-1.3623,0.5459c-0.3613,0.3633-0.542,0.9463-0.542,1.7461
				v4.5195h-1.3184v-5.0537c0-0.5859-0.1074-1.0254-0.3223-1.3184s-0.5664-0.4395-1.0547-0.4395
				c-0.3711,0-0.7139,0.0977-1.0293,0.293c-0.3145,0.1953-0.543,0.4814-0.6846,0.8564c-0.1416,0.377-0.2124,0.9189-0.2124,1.627
				v4.0352H33.1489z"/>
			<path fill="#603813" d="M45.644,82.0254V71.2666h1.2012v1.0107c0.2832-0.3955,0.603-0.6924,0.9595-0.8896
				c0.3564-0.1982,0.7886-0.2969,1.2964-0.2969c0.6641,0,1.25,0.1709,1.7578,0.5127s0.8911,0.8242,1.1499,1.4463
				c0.2588,0.623,0.3882,1.3057,0.3882,2.0479c0,0.7959-0.1431,1.5117-0.4282,2.1494c-0.2861,0.6367-0.7012,1.125-1.2451,1.4648
				c-0.5449,0.3389-1.1172,0.5088-1.7178,0.5088c-0.4395,0-0.834-0.0928-1.1826-0.2783c-0.3496-0.1855-0.6362-0.4199-0.8608-0.7031
				v3.7861H45.644z M46.8379,75.1992c0,1.002,0.2026,1.7412,0.6079,2.2197s0.896,0.7178,1.4722,0.7178
				c0.5859,0,1.0879-0.248,1.5049-0.7432c0.418-0.4961,0.6265-1.2637,0.6265-2.3037c0-0.9912-0.2041-1.7334-0.6118-2.2266
				s-0.8945-0.7402-1.4609-0.7402c-0.5615,0-1.0586,0.2627-1.4902,0.7881C47.0537,73.4355,46.8379,74.1992,46.8379,75.1992z"/>
			<path fill="#603813" d="M53.957,79.0449V68.3076h1.3184v10.7373H53.957z"/>
			<path fill="#603813" d="M62.6436,76.54l1.3623,0.1689c-0.2148,0.7959-0.6128,1.4131-1.1938,1.8525s-1.3232,0.6592-2.2266,0.6592
				c-1.1377,0-2.0396-0.3506-2.7065-1.0508c-0.666-0.7012-0.9995-1.6836-0.9995-2.9482c0-1.3086,0.3369-2.3242,1.0107-3.0469
				s1.5479-1.084,2.6221-1.084c1.04,0,1.8896,0.3545,2.5488,1.0615c0.6592,0.709,0.9888,1.7051,0.9888,2.9883
				c0,0.0791-0.0024,0.1963-0.0073,0.3516h-5.8008c0.0488,0.8555,0.2905,1.5098,0.7251,1.9629
				c0.4346,0.4551,0.9766,0.6816,1.626,0.6816c0.4834,0,0.896-0.127,1.2378-0.3809S62.4434,77.0967,62.6436,76.54z M58.3149,74.4082
				h4.3433c-0.0586-0.6533-0.2246-1.1445-0.498-1.4717c-0.4199-0.5078-0.9644-0.7617-1.6333-0.7617
				c-0.6055,0-1.1147,0.2031-1.5269,0.6084C58.5869,73.1885,58.3589,73.7305,58.3149,74.4082z"/>
			<path fill="#603813" d="M65.6611,79.0449v-7.7783h1.1792v1.0908c0.2441-0.3809,0.5688-0.6865,0.9741-0.9189
				c0.4053-0.2314,0.8667-0.3477,1.3843-0.3477c0.5762,0,1.0483,0.1201,1.417,0.3584c0.3687,0.2402,0.6289,0.5742,0.7803,1.0039
				c0.6152-0.9082,1.416-1.3623,2.4023-1.3623c0.7715,0,1.3647,0.2139,1.7798,0.6406c0.415,0.4277,0.6226,1.0859,0.6226,1.9736
				v5.3398h-1.311v-4.9004c0-0.5273-0.043-0.9063-0.1284-1.1387c-0.0854-0.2314-0.2402-0.418-0.4648-0.5605
				c-0.2246-0.1406-0.4883-0.2119-0.791-0.2119c-0.5469,0-1.001,0.1816-1.3623,0.5459c-0.3613,0.3633-0.542,0.9463-0.542,1.7461
				v4.5195h-1.3184v-5.0537c0-0.5859-0.1074-1.0254-0.3223-1.3184s-0.5664-0.4395-1.0547-0.4395
				c-0.3711,0-0.7139,0.0977-1.0293,0.293c-0.3145,0.1953-0.543,0.4814-0.6846,0.8564c-0.1416,0.377-0.2124,0.9189-0.2124,1.627
				v4.0352H65.6611z"/>
			<path fill="#603813" d="M83.481,76.54l1.3623,0.1689c-0.2148,0.7959-0.6128,1.4131-1.1938,1.8525s-1.3232,0.6592-2.2266,0.6592
				c-1.1377,0-2.0396-0.3506-2.7065-1.0508c-0.666-0.7012-0.9995-1.6836-0.9995-2.9482c0-1.3086,0.3369-2.3242,1.0107-3.0469
				s1.5479-1.084,2.6221-1.084c1.04,0,1.8896,0.3545,2.5488,1.0615c0.6592,0.709,0.9888,1.7051,0.9888,2.9883
				c0,0.0791-0.0024,0.1963-0.0073,0.3516h-5.8008c0.0488,0.8555,0.2905,1.5098,0.7251,1.9629
				c0.4346,0.4551,0.9766,0.6816,1.626,0.6816c0.4834,0,0.896-0.127,1.2378-0.3809S83.2808,77.0967,83.481,76.54z M79.1523,74.4082
				h4.3433c-0.0586-0.6533-0.2246-1.1445-0.498-1.4717c-0.4199-0.5078-0.9644-0.7617-1.6333-0.7617
				c-0.6055,0-1.1147,0.2031-1.5269,0.6084C79.4243,73.1885,79.1963,73.7305,79.1523,74.4082z"/>
			<path fill="#603813" d="M86.4985,79.0449v-7.7783h1.1865v1.1064c0.5713-0.8545,1.3965-1.2822,2.4756-1.2822
				c0.4688,0,0.8994,0.084,1.2925,0.2529c0.3931,0.168,0.6875,0.3896,0.8828,0.6621c0.1953,0.2744,0.332,0.5986,0.4102,0.9746
				c0.0488,0.2441,0.0732,0.6719,0.0732,1.2813v4.7832H91.501v-4.7314c0-0.5371-0.0513-0.9385-0.1538-1.2051
				c-0.1025-0.2656-0.2847-0.4785-0.5454-0.6367c-0.2617-0.1592-0.5679-0.2383-0.9194-0.2383c-0.5615,0-1.0464,0.1787-1.4536,0.5342
				c-0.4082,0.3574-0.6118,1.0332-0.6118,2.0293v4.248H86.4985z"/>
			<path fill="#603813" d="M97.7192,77.8652l0.1904,1.165c-0.3711,0.0781-0.7031,0.1172-0.9961,0.1172
				c-0.4785,0-0.8496-0.0762-1.1133-0.2275c-0.2637-0.1504-0.4492-0.3496-0.5566-0.5967c-0.1074-0.2461-0.1611-0.7646-0.1611-1.5557
				V72.292h-0.9668v-1.0254h0.9668v-1.9268l1.311-0.791v2.7178h1.3257v1.0254h-1.3257v4.5479c0,0.377,0.0229,0.6182,0.0698,0.7256
				c0.0459,0.1074,0.1216,0.1934,0.2266,0.2568s0.2554,0.0947,0.4507,0.0947C97.2871,77.917,97.48,77.9004,97.7192,77.8652z"/>
			<path fill="#603813" d="M104.084,78.0859c-0.4883,0.415-0.9585,0.708-1.4102,0.8789c-0.4517,0.1699-0.936,0.2559-1.4536,0.2559
				c-0.8545,0-1.5112-0.209-1.9702-0.626c-0.459-0.418-0.6885-0.9512-0.6885-1.6006c0-0.3809,0.0864-0.7285,0.2598-1.0439
				c0.1733-0.3145,0.4004-0.5674,0.6816-0.7578c0.2803-0.1904,0.5967-0.334,0.9482-0.4326
				c0.2588-0.0674,0.6494-0.1338,1.1719-0.1973c1.0645-0.127,1.8481-0.2783,2.3511-0.4541
				c0.0049-0.1807,0.0073-0.2949,0.0073-0.3447c0-0.5361-0.1245-0.915-0.3735-1.1348c-0.3369-0.2979-0.8374-0.4473-1.5015-0.4473
				c-0.6201,0-1.0781,0.1094-1.373,0.3262c-0.2959,0.2178-0.5142,0.6025-0.6558,1.1543l-1.2891-0.1758
				c0.1172-0.5518,0.3101-0.998,0.5786-1.3369c0.2686-0.3398,0.6567-0.6006,1.1646-0.7842
				c0.5078-0.1826,1.0962-0.2744,1.7651-0.2744c0.6641,0,1.2036,0.0781,1.6187,0.2344s0.7202,0.3525,0.9155,0.5898
				c0.1953,0.2363,0.332,0.5361,0.4102,0.8975c0.0439,0.2246,0.0659,0.6289,0.0659,1.2148v1.7578
				c0,1.2266,0.0278,2.001,0.0845,2.3262c0.0557,0.3242,0.167,0.6357,0.333,0.9336h-1.377
				C104.2109,78.7715,104.123,78.4512,104.084,78.0859z M103.9741,75.1406c-0.4785,0.1963-1.1963,0.3623-2.1533,0.498
				c-0.542,0.0791-0.9253,0.167-1.1499,0.2637c-0.2246,0.0986-0.3979,0.2412-0.52,0.4287c-0.1221,0.1885-0.1831,0.3975-0.1831,0.626
				c0,0.3516,0.1328,0.6445,0.3994,0.8789c0.2656,0.2344,0.6553,0.3516,1.168,0.3516c0.5078,0,0.9595-0.1104,1.355-0.333
				c0.3955-0.2217,0.686-0.5254,0.8716-0.9111c0.1416-0.2979,0.2124-0.7373,0.2124-1.3184V75.1406z"/>
			<path fill="#603813" d="M112.4263,76.1953l1.2964,0.1689c-0.1416,0.8936-0.5044,1.5928-1.0874,2.0986
				c-0.584,0.5049-1.3003,0.7578-2.1499,0.7578c-1.0645,0-1.9204-0.3477-2.5669-1.0439c-0.6475-0.6953-0.9707-1.6924-0.9707-2.9912
				c0-0.8398,0.1392-1.5752,0.4175-2.2051s0.7017-1.1025,1.271-1.417c0.5684-0.3154,1.1875-0.4727,1.8564-0.4727
				c0.8447,0,1.5356,0.2139,2.0728,0.6406c0.5371,0.4277,0.8813,1.0342,1.0327,1.8203l-1.2817,0.1982
				c-0.1221-0.5225-0.3384-0.916-0.6479-1.1797c-0.3105-0.2637-0.6851-0.3955-1.1245-0.3955c-0.6641,0-1.2036,0.2383-1.6187,0.7139
				c-0.415,0.4766-0.6226,1.2295-0.6226,2.2598c0,1.0449,0.2002,1.8047,0.6006,2.2773c0.4004,0.4746,0.9229,0.7109,1.5674,0.7109
				c0.5176,0,0.9497-0.1582,1.2964-0.4766C112.1138,77.3438,112.3335,76.8555,112.4263,76.1953z"/>
			<path fill="#603813" d="M114.8579,69.8242v-1.5166h1.3184v1.5166H114.8579z M114.8579,79.0449v-7.7783h1.3184v7.7783H114.8579z"
				/>
			<path fill="#603813" d="M117.6924,75.1563c0-1.4404,0.4004-2.5078,1.2012-3.2012c0.6689-0.5762,1.4844-0.8643,2.4463-0.8643
				c1.0693,0,1.9434,0.3506,2.6221,1.0508c0.6787,0.7012,1.0181,1.6689,1.0181,2.9043c0,1.001-0.1499,1.7881-0.4507,2.3623
				c-0.2998,0.5732-0.7373,1.0195-1.3105,1.3359c-0.5742,0.3174-1.2002,0.4766-1.8789,0.4766c-1.0889,0-1.9692-0.3486-2.6406-1.0469
				S117.6924,76.4697,117.6924,75.1563z M119.0474,75.1563c0,0.9961,0.2173,1.7412,0.6519,2.2373
				c0.4346,0.4951,0.9814,0.7432,1.6406,0.7432c0.6543,0,1.1987-0.249,1.6333-0.7471s0.6519-1.2568,0.6519-2.2783
				c0-0.9609-0.2188-1.6904-0.6553-2.1855c-0.4375-0.4961-0.9805-0.7441-1.6299-0.7441c-0.6592,0-1.2061,0.2471-1.6406,0.7402
				S119.0474,74.1602,119.0474,75.1563z M120.6074,70.2998l0.9741-2.0508h1.7285l-1.6113,2.0508H120.6074z"/>
			<path fill="#603813" d="M126.5254,79.0449v-7.7783h1.1865v1.1064c0.5713-0.8545,1.3965-1.2822,2.4756-1.2822
				c0.4688,0,0.8994,0.084,1.2925,0.2529c0.3931,0.168,0.6875,0.3896,0.8828,0.6621c0.1953,0.2744,0.332,0.5986,0.4102,0.9746
				c0.0488,0.2441,0.0732,0.6719,0.0732,1.2813v4.7832h-1.3184v-4.7314c0-0.5371-0.0513-0.9385-0.1538-1.2051
				c-0.1025-0.2656-0.2847-0.4785-0.5454-0.6367c-0.2617-0.1592-0.5679-0.2383-0.9194-0.2383c-0.5615,0-1.0464,0.1787-1.4536,0.5342
				c-0.4082,0.3574-0.6118,1.0332-0.6118,2.0293v4.248H126.5254z"/>
			<path fill="#603813" d="M144.0815,79.0449v-0.9814c-0.4932,0.7715-1.2178,1.1572-2.1748,1.1572
				c-0.6211,0-1.1904-0.1709-1.7109-0.5127c-0.5195-0.3418-0.9229-0.8193-1.208-1.4316c-0.2861-0.6133-0.4287-1.3174-0.4287-2.1133
				c0-0.7764,0.1289-1.4805,0.3887-2.1133c0.2578-0.6318,0.6465-1.1162,1.1641-1.4541c0.5176-0.3359,1.0957-0.5049,1.7363-0.5049
				c0.4688,0,0.8857,0.0986,1.252,0.2969c0.3662,0.1973,0.6641,0.4551,0.8936,0.7725v-3.8525h1.3115v10.7373H144.0815z
				 M139.9146,75.1631c0,0.9961,0.209,1.7412,0.6289,2.2334c0.4199,0.4941,0.916,0.7402,1.4873,0.7402
				c0.5762,0,1.0654-0.2354,1.4688-0.707c0.4023-0.4707,0.6045-1.1895,0.6045-2.1563c0-1.0645-0.2051-1.8457-0.6152-2.3438
				s-0.916-0.748-1.5166-0.748c-0.5859,0-1.0752,0.2402-1.4688,0.7188S139.9146,74.1328,139.9146,75.1631z"/>
			<path fill="#603813" d="M152.7017,76.54l1.3633,0.1689c-0.2148,0.7959-0.6133,1.4131-1.1943,1.8525s-1.3232,0.6592-2.2266,0.6592
				c-1.1377,0-2.04-0.3506-2.7061-1.0508c-0.666-0.7012-1-1.6836-1-2.9482c0-1.3086,0.3369-2.3242,1.0107-3.0469
				s1.5479-1.084,2.6221-1.084c1.04,0,1.8896,0.3545,2.5488,1.0615c0.6592,0.709,0.9883,1.7051,0.9883,2.9883
				c0,0.0791-0.002,0.1963-0.0068,0.3516h-5.8008c0.0488,0.8555,0.29,1.5098,0.7256,1.9629
				c0.4336,0.4551,0.9766,0.6816,1.625,0.6816c0.4844,0,0.8965-0.127,1.2383-0.3809S152.5024,77.0967,152.7017,76.54z
				 M148.3735,74.4082h4.3438c-0.0586-0.6533-0.2246-1.1445-0.498-1.4717c-0.4199-0.5078-0.9648-0.7617-1.6338-0.7617
				c-0.6055,0-1.1143,0.2031-1.5264,0.6084C148.645,73.1885,148.4175,73.7305,148.3735,74.4082z"/>
			<path fill="#603813" d="M155.6899,79.0449V68.3076h1.3184v10.7373H155.6899z"/>
			<path fill="#603813" d="M162.6919,76.7227l1.3047-0.2051c0.0723,0.5234,0.2764,0.9238,0.6113,1.2012
				c0.334,0.2793,0.8018,0.418,1.4023,0.418c0.6055,0,1.0547-0.123,1.3477-0.3701c0.293-0.2461,0.4395-0.5352,0.4395-0.8682
				c0-0.2969-0.1289-0.5313-0.3887-0.7031c-0.1797-0.1172-0.6289-0.2656-1.3477-0.4463c-0.9668-0.2441-1.6367-0.4551-2.0098-0.6338
				c-0.374-0.1777-0.6572-0.4248-0.8496-0.7393c-0.1934-0.3154-0.2891-0.6631-0.2891-1.0439c0-0.3467,0.0781-0.668,0.2373-0.9629
				c0.1592-0.2959,0.375-0.541,0.6484-0.7363c0.2051-0.1514,0.4844-0.2793,0.8389-0.3848c0.3535-0.1045,0.7334-0.1572,1.1387-0.1572
				c0.6104,0,1.1465,0.0879,1.6074,0.2637c0.4619,0.1758,0.8027,0.4141,1.0215,0.7139c0.2207,0.3008,0.3711,0.7021,0.4551,1.2051
				l-1.2891,0.1758c-0.0586-0.4004-0.2285-0.7129-0.5098-0.9375s-0.6777-0.3369-1.1895-0.3369
				c-0.6055,0-1.0381,0.1006-1.2969,0.2998c-0.2588,0.2012-0.3887,0.4355-0.3887,0.7031c0,0.1719,0.0547,0.3252,0.1621,0.4619
				c0.1074,0.1416,0.2754,0.2588,0.5049,0.3516c0.1318,0.0488,0.5205,0.1611,1.165,0.3369c0.9316,0.249,1.582,0.4531,1.9512,0.6113
				c0.3691,0.1592,0.6582,0.3896,0.8682,0.6924s0.3154,0.6787,0.3154,1.1279c0,0.4395-0.1289,0.8535-0.3848,1.2412
				c-0.2568,0.3887-0.627,0.6885-1.1094,0.9014c-0.4844,0.2119-1.0313,0.3184-1.6406,0.3184c-1.0117,0-1.7813-0.21-2.3115-0.6299
				S162.8384,77.5488,162.6919,76.7227z"/>
			<path fill="#603813" d="M170.7271,69.8242v-1.5166h1.3184v1.5166H170.7271z M170.7271,79.0449v-7.7783h1.3184v7.7783H170.7271z"
				/>
			<path fill="#603813" d="M173.5249,76.7227l1.3037-0.2051c0.0732,0.5234,0.2773,0.9238,0.6113,1.2012
				c0.334,0.2793,0.8027,0.418,1.4023,0.418c0.6055,0,1.0547-0.123,1.3477-0.3701c0.293-0.2461,0.4395-0.5352,0.4395-0.8682
				c0-0.2969-0.1289-0.5313-0.3877-0.7031c-0.1807-0.1172-0.6299-0.2656-1.3477-0.4463c-0.9668-0.2441-1.6377-0.4551-2.0107-0.6338
				c-0.373-0.1777-0.6563-0.4248-0.8496-0.7393c-0.1934-0.3154-0.2891-0.6631-0.2891-1.0439c0-0.3467,0.0791-0.668,0.2383-0.9629
				c0.1582-0.2959,0.375-0.541,0.6484-0.7363c0.2051-0.1514,0.4844-0.2793,0.8379-0.3848c0.3535-0.1045,0.7344-0.1572,1.1387-0.1572
				c0.6113,0,1.1465,0.0879,1.6074,0.2637c0.4629,0.1758,0.8027,0.4141,1.0225,0.7139c0.2197,0.3008,0.3711,0.7021,0.4541,1.2051
				l-1.2891,0.1758c-0.0586-0.4004-0.2285-0.7129-0.5098-0.9375c-0.2803-0.2246-0.6768-0.3369-1.1895-0.3369
				c-0.6055,0-1.0371,0.1006-1.2969,0.2998c-0.2578,0.2012-0.3877,0.4355-0.3877,0.7031c0,0.1719,0.0537,0.3252,0.1611,0.4619
				c0.1074,0.1416,0.2754,0.2588,0.5059,0.3516c0.1309,0.0488,0.5195,0.1611,1.1641,0.3369c0.9326,0.249,1.583,0.4531,1.9512,0.6113
				c0.3691,0.1592,0.6582,0.3896,0.8691,0.6924c0.209,0.3027,0.3145,0.6787,0.3145,1.1279c0,0.4395-0.1289,0.8535-0.3848,1.2412
				c-0.2559,0.3887-0.626,0.6885-1.1094,0.9014c-0.4834,0.2119-1.0303,0.3184-1.6406,0.3184c-1.0107,0-1.7813-0.21-2.3105-0.6299
				C174.0093,78.1709,173.6714,77.5488,173.5249,76.7227z"/>
			<path fill="#603813" d="M184.4302,77.8652l0.1914,1.165c-0.3711,0.0781-0.7031,0.1172-0.9961,0.1172
				c-0.4785,0-0.8496-0.0762-1.1133-0.2275c-0.2637-0.1504-0.4492-0.3496-0.5566-0.5967c-0.1074-0.2461-0.1621-0.7646-0.1621-1.5557
				V72.292h-0.9668v-1.0254h0.9668v-1.9268l1.3115-0.791v2.7178h1.3252v1.0254h-1.3252v4.5479c0,0.377,0.0225,0.6182,0.0693,0.7256
				s0.1221,0.1934,0.2266,0.2568c0.1055,0.0635,0.2559,0.0947,0.4512,0.0947C183.9985,77.917,184.1919,77.9004,184.4302,77.8652z"/>
			<path fill="#603813" d="M191.0444,76.54l1.3623,0.1689c-0.2148,0.7959-0.6133,1.4131-1.1934,1.8525
				c-0.582,0.4395-1.3242,0.6592-2.2266,0.6592c-1.1387,0-2.04-0.3506-2.707-1.0508c-0.666-0.7012-1-1.6836-1-2.9482
				c0-1.3086,0.3379-2.3242,1.0117-3.0469s1.5469-1.084,2.6211-1.084c1.041,0,1.8906,0.3545,2.5488,1.0615
				c0.6602,0.709,0.9893,1.7051,0.9893,2.9883c0,0.0791-0.0029,0.1963-0.0068,0.3516h-5.8008
				c0.0488,0.8555,0.29,1.5098,0.7246,1.9629c0.4346,0.4551,0.9766,0.6816,1.626,0.6816c0.4834,0,0.8955-0.127,1.2373-0.3809
				S190.8442,77.0967,191.0444,76.54z M186.7153,74.4082h4.3438c-0.0586-0.6533-0.2246-1.1445-0.498-1.4717
				c-0.4199-0.5078-0.9648-0.7617-1.6328-0.7617c-0.6055,0-1.1152,0.2031-1.5273,0.6084
				C186.9878,73.1885,186.7603,73.7305,186.7153,74.4082z"/>
			<path fill="#603813" d="M194.062,79.0449v-7.7783h1.1787v1.0908c0.2441-0.3809,0.5693-0.6865,0.9746-0.9189
				c0.4053-0.2314,0.8672-0.3477,1.3848-0.3477c0.5762,0,1.0479,0.1201,1.416,0.3584c0.3691,0.2402,0.6289,0.5742,0.7813,1.0039
				c0.6152-0.9082,1.416-1.3623,2.4023-1.3623c0.7715,0,1.3643,0.2139,1.7793,0.6406c0.415,0.4277,0.623,1.0859,0.623,1.9736v5.3398
				h-1.3115v-4.9004c0-0.5273-0.043-0.9063-0.1279-1.1387c-0.0859-0.2314-0.2402-0.418-0.4648-0.5605
				c-0.2246-0.1406-0.4883-0.2119-0.791-0.2119c-0.5469,0-1.002,0.1816-1.3633,0.5459c-0.3613,0.3633-0.541,0.9463-0.541,1.7461
				v4.5195h-1.3184v-5.0537c0-0.5859-0.1074-1.0254-0.3223-1.3184s-0.5664-0.4395-1.0547-0.4395
				c-0.3711,0-0.7148,0.0977-1.0293,0.293s-0.543,0.4814-0.6855,0.8564c-0.1406,0.377-0.2119,0.9189-0.2119,1.627v4.0352H194.062z"
				/>
			<path fill="#603813" d="M211.6333,78.0859c-0.4883,0.415-0.959,0.708-1.4102,0.8789c-0.4521,0.1699-0.9365,0.2559-1.4541,0.2559
				c-0.8545,0-1.5107-0.209-1.9697-0.626c-0.459-0.418-0.6895-0.9512-0.6895-1.6006c0-0.3809,0.0869-0.7285,0.2598-1.0439
				c0.1738-0.3145,0.4004-0.5674,0.6816-0.7578s0.5977-0.334,0.9492-0.4326c0.2578-0.0674,0.6484-0.1338,1.1719-0.1973
				c1.0645-0.127,1.8477-0.2783,2.3506-0.4541c0.0049-0.1807,0.0068-0.2949,0.0068-0.3447c0-0.5361-0.124-0.915-0.373-1.1348
				c-0.3369-0.2979-0.8379-0.4473-1.502-0.4473c-0.6191,0-1.0781,0.1094-1.373,0.3262c-0.2949,0.2178-0.5137,0.6025-0.6553,1.1543
				l-1.2891-0.1758c0.1172-0.5518,0.3096-0.998,0.5791-1.3369c0.2676-0.3398,0.6563-0.6006,1.1641-0.7842
				c0.5078-0.1826,1.0957-0.2744,1.7656-0.2744c0.6641,0,1.2031,0.0781,1.6182,0.2344s0.7197,0.3525,0.915,0.5898
				c0.1953,0.2363,0.332,0.5361,0.4102,0.8975c0.0449,0.2246,0.0664,0.6289,0.0664,1.2148v1.7578
				c0,1.2266,0.0273,2.001,0.084,2.3262c0.0566,0.3242,0.168,0.6357,0.334,0.9336h-1.377
				C211.7603,78.7715,211.6724,78.4512,211.6333,78.0859z M211.5229,75.1406c-0.4785,0.1963-1.1963,0.3623-2.1533,0.498
				c-0.542,0.0791-0.9258,0.167-1.1504,0.2637c-0.2246,0.0986-0.3975,0.2412-0.5195,0.4287
				c-0.1221,0.1885-0.1836,0.3975-0.1836,0.626c0,0.3516,0.1328,0.6445,0.4004,0.8789c0.2656,0.2344,0.6543,0.3516,1.168,0.3516
				c0.5078,0,0.959-0.1104,1.3545-0.333c0.3955-0.2217,0.6865-0.5254,0.8721-0.9111c0.1406-0.2979,0.2119-0.7373,0.2119-1.3184
				V75.1406z"/>
			<path fill="#603813" d="M215.2729,79.0449v-1.502h1.501v1.502H215.2729z"/>
		</g>
	</g>
</g>
<g>
</g>
<g>
</g>
<g>
</g>
<g>
</g>
<g>
</g>
<g>
</g>
<g>
</g>
<g>
</g>
<g>
</g>
<g>
</g>
<g>
</g>
<g>
</g>
<g>
</g>
<g>
</g>
<g>
</g>
</svg>
