<?xml version="1.0" encoding="utf-8"?>
<!-- Generator: Adobe Illustrator 16.0.0, SVG Export Plug-In . SVG Version: 6.00 Build 0)  -->
<!DOCTYPE svg PUBLIC "-//W3C//DTD SVG 1.1//EN" "http://www.w3.org/Graphics/SVG/1.1/DTD/svg11.dtd">
<svg version="1.1" id="Capa_1" xmlns="http://www.w3.org/2000/svg" xmlns:xlink="http://www.w3.org/1999/xlink" x="0px" y="0px"
	 width="236.3115px" height="106.4346px" viewBox="0 0 236.3115 106.4346" enable-background="new 0 0 236.3115 106.4346"
	 xml:space="preserve">
<g id="XMLID_8225_">
	<g>
		<path id="XMLID_1_" fill="#FFFFFF" d="M222.8115,104.9346H13.5c-6.5996,0-12-5.3994-12-12V13.5c0-6.6006,5.4004-12,12-12h209.3115
			c6.6006,0,12,5.3994,12,12v79.4346C234.8115,99.5352,229.4121,104.9346,222.8115,104.9346z"/>
		<path fill="#603813" d="M222.8594,106.4346h-12.1367c-0.8281,0-1.5-0.6719-1.5-1.5s0.6719-1.5,1.5-1.5h12.0889
			c0.8281,0,1.5234,0.6719,1.5234,1.5S223.6875,106.4346,222.8594,106.4346z M198.6328,106.4346h-12.0889
			c-0.8281,0-1.5-0.6719-1.5-1.5s0.6719-1.5,1.5-1.5h12.0889c0.8281,0,1.5,0.6719,1.5,1.5S199.4609,106.4346,198.6328,106.4346z
			 M174.4541,106.4346h-12.0889c-0.8281,0-1.5-0.6719-1.5-1.5s0.6719-1.5,1.5-1.5h12.0889c0.8281,0,1.5,0.6719,1.5,1.5
			S175.2822,106.4346,174.4541,106.4346z M150.2754,106.4346h-12.0889c-0.8281,0-1.5-0.6719-1.5-1.5s0.6719-1.5,1.5-1.5h12.0889
			c0.8281,0,1.5,0.6719,1.5,1.5S151.1035,106.4346,150.2754,106.4346z M126.0967,106.4346h-12.0889c-0.8286,0-1.5-0.6719-1.5-1.5
			s0.6714-1.5,1.5-1.5h12.0889c0.8281,0,1.5,0.6719,1.5,1.5S126.9248,106.4346,126.0967,106.4346z M101.9185,106.4346H89.8291
			c-0.8286,0-1.5-0.6719-1.5-1.5s0.6714-1.5,1.5-1.5h12.0894c0.8286,0,1.5,0.6719,1.5,1.5S102.7471,106.4346,101.9185,106.4346z
			 M77.7397,106.4346H65.6504c-0.8286,0-1.5-0.6719-1.5-1.5s0.6714-1.5,1.5-1.5h12.0894c0.8286,0,1.5,0.6719,1.5,1.5
			S78.5684,106.4346,77.7397,106.4346z M53.561,106.4346H41.4717c-0.8286,0-1.5-0.6719-1.5-1.5s0.6714-1.5,1.5-1.5H53.561
			c0.8286,0,1.5,0.6719,1.5,1.5S54.3896,106.4346,53.561,106.4346z M29.3823,106.4346H17.293c-0.8286,0-1.5-0.6719-1.5-1.5
			s0.6714-1.5,1.5-1.5h12.0894c0.8286,0,1.5,0.6719,1.5,1.5S30.2109,106.4346,29.3823,106.4346z M5.856,103.668
			c-0.3374,0-0.6772-0.1133-0.957-0.3457C1.7856,100.7373,0,96.9512,0,92.9346v-1.541c0-0.8281,0.6714-1.5,1.5-1.5
			s1.5,0.6719,1.5,1.5v1.541c0,3.1221,1.3906,6.0664,3.8149,8.0791c0.6377,0.5293,0.7251,1.4746,0.1963,2.1123
			C6.7144,103.4834,6.2866,103.668,5.856,103.668z M232.9756,100.793c-0.2734,0-0.5498-0.0742-0.7979-0.2305
			c-0.7012-0.4414-0.9121-1.3672-0.4707-2.0684c1.0498-1.668,1.6045-3.5908,1.6045-5.5596v-5.3818c0-0.8281,0.6719-1.5,1.5-1.5
			s1.5,0.6719,1.5,1.5v5.3818c0,2.5352-0.7139,5.0098-2.0654,7.1572C233.9609,100.5449,233.4736,100.793,232.9756,100.793z
			 M1.5,80.8047c-0.8286,0-1.5-0.6719-1.5-1.5V67.2148c0-0.8281,0.6714-1.5,1.5-1.5s1.5,0.6719,1.5,1.5v12.0898
			C3,80.1328,2.3286,80.8047,1.5,80.8047z M234.8115,76.9629c-0.8281,0-1.5-0.6719-1.5-1.5V63.374c0-0.8281,0.6719-1.5,1.5-1.5
			s1.5,0.6719,1.5,1.5v12.0889C236.3115,76.291,235.6396,76.9629,234.8115,76.9629z M1.5,56.626c-0.8286,0-1.5-0.6719-1.5-1.5
			V43.0366c0-0.8286,0.6714-1.5,1.5-1.5s1.5,0.6714,1.5,1.5V55.126C3,55.9541,2.3286,56.626,1.5,56.626z M234.8115,52.7847
			c-0.8281,0-1.5-0.6714-1.5-1.5V39.1953c0-0.8286,0.6719-1.5,1.5-1.5s1.5,0.6714,1.5,1.5v12.0894
			C236.3115,52.1133,235.6396,52.7847,234.8115,52.7847z M1.5,32.4473c-0.8286,0-1.5-0.6714-1.5-1.5V18.8579
			c0-0.8286,0.6714-1.5,1.5-1.5s1.5,0.6714,1.5,1.5v12.0894C3,31.7759,2.3286,32.4473,1.5,32.4473z M234.8115,28.606
			c-0.8281,0-1.5-0.6714-1.5-1.5V15.0166c0-0.8286,0.6719-1.5,1.5-1.5s1.5,0.6714,1.5,1.5V27.106
			C236.3115,27.9346,235.6396,28.606,234.8115,28.606z M3.3467,8.6216c-0.2739,0-0.5513-0.0747-0.7998-0.2319
			C1.8467,7.9468,1.6377,7.0205,2.0801,6.3203C4.5752,2.3721,8.8345,0.0098,13.4736,0c0.001,0,0.002,0,0.0029,0
			c0.8271,0,1.498,0.6694,1.5,1.4971C14.9785,2.3252,14.3081,2.998,13.4795,3C9.873,3.0073,6.5596,4.8477,4.6162,7.9229
			C4.3306,8.3745,3.8442,8.6216,3.3467,8.6216z M230.4346,5.7515c-0.3369,0-0.6748-0.1128-0.9551-0.3442
			C227.6025,3.855,225.2344,3,222.8115,3h-3.8164c-0.8281,0-1.5-0.6714-1.5-1.5s0.6719-1.5,1.5-1.5h3.8164
			c3.1191,0,6.166,1.0991,8.5801,3.0957c0.6387,0.5278,0.7275,1.4731,0.2002,2.1118
			C231.2949,5.5659,230.8662,5.7515,230.4346,5.7515z M206.9053,3h-12.0889c-0.8281,0-1.5-0.6714-1.5-1.5s0.6719-1.5,1.5-1.5
			h12.0889c0.8281,0,1.5,0.6714,1.5,1.5S207.7334,3,206.9053,3z M182.7266,3h-12.0889c-0.8281,0-1.5-0.6714-1.5-1.5
			s0.6719-1.5,1.5-1.5h12.0889c0.8281,0,1.5,0.6714,1.5,1.5S183.5547,3,182.7266,3z M158.5479,3H146.459
			c-0.8281,0-1.5-0.6714-1.5-1.5s0.6719-1.5,1.5-1.5h12.0889c0.8281,0,1.5,0.6714,1.5,1.5S159.376,3,158.5479,3z M134.3691,3
			h-12.0889c-0.8281,0-1.5-0.6714-1.5-1.5s0.6719-1.5,1.5-1.5h12.0889c0.8281,0,1.5,0.6714,1.5,1.5S135.1973,3,134.3691,3z
			 M110.1909,3H98.1016c-0.8286,0-1.5-0.6714-1.5-1.5s0.6714-1.5,1.5-1.5h12.0894c0.8286,0,1.5,0.6714,1.5,1.5
			S111.0195,3,110.1909,3z M86.0122,3H73.9229c-0.8286,0-1.5-0.6714-1.5-1.5s0.6714-1.5,1.5-1.5h12.0894
			c0.8286,0,1.5,0.6714,1.5,1.5S86.8408,3,86.0122,3z M61.8335,3H49.7441c-0.8286,0-1.5-0.6714-1.5-1.5s0.6714-1.5,1.5-1.5h12.0894
			c0.8286,0,1.5,0.6714,1.5,1.5S62.6621,3,61.8335,3z M37.6548,3H25.5654c-0.8286,0-1.5-0.6714-1.5-1.5s0.6714-1.5,1.5-1.5h12.0894
			c0.8286,0,1.5,0.6714,1.5,1.5S38.4834,3,37.6548,3z"/>
	</g>
	<g>
		<g>
			<path fill="#603813" d="M43.7539,9.502h3.9624c0.8936,0,1.5747,0.0684,2.0435,0.2051c0.6299,0.1855,1.1694,0.5156,1.6187,0.9893
				s0.791,1.0527,1.0254,1.7393c0.2344,0.6855,0.3516,1.5322,0.3516,2.5381c0,0.8838-0.1099,1.6455-0.3296,2.2852
				c-0.2686,0.7813-0.6519,1.4131-1.1499,1.8965c-0.376,0.3662-0.8838,0.6523-1.5234,0.8574
				c-0.4785,0.1514-1.1182,0.2266-1.9189,0.2266h-4.0796V9.502z M45.9219,11.3184v7.1123h1.6187
				c0.6055,0,1.0425-0.0342,1.311-0.1035c0.3516-0.0879,0.6431-0.2363,0.875-0.4463s0.4214-0.5557,0.5679-1.0361
				c0.1465-0.4814,0.2197-1.1367,0.2197-1.9668s-0.0732-1.4668-0.2197-1.9121c-0.1465-0.4434-0.3516-0.791-0.6152-1.0391
				c-0.2637-0.25-0.5981-0.418-1.0034-0.5059c-0.3027-0.0684-0.896-0.1025-1.7798-0.1025H45.9219z"/>
			<path fill="#603813" d="M54.5791,11.4063V9.502h2.0581v1.9043H54.5791z M54.5791,20.2393v-7.7783h2.0581v7.7783H54.5791z"/>
			<path fill="#603813" d="M58.0215,18.0205l2.0654-0.3154c0.0879,0.4004,0.2661,0.7041,0.5347,0.9121
				c0.2686,0.207,0.6445,0.3115,1.1279,0.3115c0.5322,0,0.9326-0.0977,1.2012-0.293c0.1807-0.1367,0.271-0.3203,0.271-0.5498
				c0-0.1563-0.0488-0.2861-0.1465-0.3877c-0.1025-0.0977-0.332-0.1885-0.6885-0.2715c-1.6602-0.3662-2.7124-0.7002-3.1567-1.0039
				c-0.6152-0.4189-0.9229-1.0029-0.9229-1.75c0-0.6738,0.2661-1.2402,0.7983-1.6992s1.3574-0.6885,2.4756-0.6885
				c1.0645,0,1.8555,0.1738,2.373,0.5205s0.874,0.8594,1.0693,1.5371l-1.9409,0.3594c-0.083-0.3027-0.2407-0.5352-0.4722-0.6953
				c-0.2324-0.1621-0.563-0.2422-0.9927-0.2422c-0.542,0-0.9302,0.0762-1.1646,0.2266c-0.1563,0.1084-0.2344,0.2471-0.2344,0.418
				c0,0.1465,0.0684,0.2715,0.2051,0.373c0.1855,0.1377,0.8262,0.3301,1.9229,0.5791c1.0957,0.249,1.8613,0.5547,2.2959,0.915
				c0.4297,0.3672,0.6445,0.877,0.6445,1.5313c0,0.7129-0.2979,1.3262-0.8936,1.8379c-0.5957,0.5137-1.4771,0.7695-2.644,0.7695
				c-1.0596,0-1.8984-0.2148-2.5161-0.6445S58.2119,18.7578,58.0215,18.0205z"/>
			<path fill="#603813" d="M71.5933,17.7637l2.0508,0.3447c-0.2637,0.752-0.6802,1.3242-1.249,1.7168
				c-0.5688,0.3936-1.2803,0.5898-2.1348,0.5898c-1.3525,0-2.3535-0.4414-3.0029-1.3262c-0.5127-0.707-0.769-1.6006-0.769-2.6797
				c0-1.2891,0.3369-2.2988,1.0107-3.0293c0.6738-0.7295,1.5259-1.0947,2.5562-1.0947c1.1572,0,2.0703,0.3818,2.7393,1.1465
				c0.6689,0.7637,0.9888,1.9346,0.9595,3.5117h-5.1563c0.0146,0.6104,0.1807,1.085,0.498,1.4248
				c0.3174,0.3389,0.7129,0.5088,1.1865,0.5088c0.3223,0,0.5933-0.0879,0.813-0.2637S71.481,18.1543,71.5933,17.7637z
				 M71.7104,15.6836c-0.0146-0.5957-0.1685-1.0488-0.4614-1.3584c-0.293-0.3105-0.6494-0.4648-1.0693-0.4648
				c-0.4492,0-0.8203,0.1631-1.1133,0.4902s-0.437,0.7715-0.4321,1.333H71.7104z"/>
			<path fill="#603813" d="M82.5063,20.2393h-2.0581v-3.9697c0-0.8398-0.0439-1.3828-0.1318-1.6299
				c-0.0879-0.2461-0.2305-0.4375-0.4287-0.5742c-0.1973-0.1367-0.4355-0.2051-0.7139-0.2051c-0.3564,0-0.6763,0.0977-0.9595,0.293
				s-0.4775,0.4531-0.5825,0.7754s-0.1572,0.9189-0.1572,1.7871v3.5234h-2.0581v-7.7783h1.9116v1.1426
				c0.6787-0.8789,1.5332-1.3184,2.5635-1.3184c0.4541,0,0.8691,0.082,1.2451,0.2451c0.376,0.1641,0.6602,0.373,0.8535,0.627
				c0.1924,0.2539,0.3267,0.541,0.4023,0.8633s0.1138,0.7842,0.1138,1.3848V20.2393z M77.3721,11.4131h-0.9375
				c-0.0049-0.1113-0.0073-0.1992-0.0073-0.2637c0-0.5117,0.1245-0.9063,0.3735-1.1826c0.249-0.2754,0.5688-0.4131,0.9595-0.4131
				c0.1709,0,0.3296,0.0176,0.4761,0.0547c0.1465,0.0361,0.4141,0.1416,0.8018,0.3145c0.3887,0.1738,0.6924,0.2598,0.9121,0.2598
				c0.1563,0,0.2866-0.0479,0.3916-0.1465c0.105-0.0967,0.1724-0.2607,0.2017-0.4902h0.9521
				c-0.0049,0.6592-0.1284,1.1309-0.3696,1.4141c-0.2422,0.2832-0.5532,0.4238-0.9341,0.4238c-0.166,0-0.3296-0.0166-0.4907-0.0508
				c-0.1123-0.0293-0.3931-0.1289-0.8423-0.3008c-0.4492-0.1699-0.7764-0.2559-0.9814-0.2559c-0.1563,0-0.2783,0.0479-0.3662,0.1426
				C77.4233,11.0146,77.377,11.1787,77.3721,11.4131z"/>
			<path fill="#603813" d="M84.1177,16.2402c0-0.6836,0.1685-1.3447,0.5054-1.9854c0.3369-0.6387,0.814-1.127,1.4321-1.4648
				c0.6172-0.3359,1.3071-0.5049,2.0688-0.5049c1.1768,0,2.1411,0.3818,2.8931,1.1465c0.752,0.7637,1.1279,1.7295,1.1279,2.8965
				c0,1.1768-0.3799,2.1523-1.1387,2.9258c-0.7598,0.7744-1.7153,1.1611-2.8677,1.1611c-0.7129,0-1.3931-0.1611-2.0396-0.4834
				c-0.6475-0.3223-1.1392-0.7949-1.4761-1.417C84.2861,17.8916,84.1177,17.1338,84.1177,16.2402z M86.2271,16.3506
				c0,0.7715,0.1831,1.3613,0.5493,1.7715s0.8179,0.6152,1.355,0.6152s0.9873-0.2051,1.3516-0.6152
				c0.3633-0.4102,0.5454-1.0049,0.5454-1.7871c0-0.7617-0.1821-1.3477-0.5454-1.7578c-0.3643-0.4102-0.8145-0.6152-1.3516-0.6152
				s-0.9888,0.2051-1.355,0.6152S86.2271,15.5791,86.2271,16.3506z"/>
			<path fill="#603813" d="M105.0576,20.2393h-1.9116v-1.1426c-0.3174,0.4443-0.6924,0.7754-1.124,0.9922
				c-0.4326,0.2178-0.8682,0.3262-1.3076,0.3262c-0.8936,0-1.6592-0.3604-2.2959-1.0801c-0.6377-0.7207-0.9561-1.7246-0.9561-3.0137
				c0-1.3184,0.3101-2.3213,0.9302-3.0068c0.6201-0.6865,1.4038-1.0293,2.3511-1.0293c0.8691,0,1.6211,0.3613,2.2559,1.084V9.502
				h2.0581V20.2393z M99.5645,16.1816c0,0.8301,0.1147,1.4307,0.3442,1.8018c0.332,0.5371,0.7959,0.8057,1.3916,0.8057
				c0.4736,0,0.8765-0.2012,1.2085-0.6045c0.332-0.4023,0.498-1.0039,0.498-1.8047c0-0.8945-0.1611-1.5371-0.4834-1.9307
				c-0.3223-0.3926-0.7349-0.5889-1.2378-0.5889c-0.4883,0-0.8975,0.1934-1.2266,0.582
				C99.729,14.8301,99.5645,15.4102,99.5645,16.1816z"/>
			<path fill="#603813" d="M111.5908,17.7637l2.0508,0.3447c-0.2637,0.752-0.6802,1.3242-1.249,1.7168
				c-0.5688,0.3936-1.2803,0.5898-2.1348,0.5898c-1.3525,0-2.3535-0.4414-3.0029-1.3262c-0.5127-0.707-0.769-1.6006-0.769-2.6797
				c0-1.2891,0.3369-2.2988,1.0107-3.0293c0.6738-0.7295,1.5259-1.0947,2.5562-1.0947c1.1572,0,2.0703,0.3818,2.7393,1.1465
				c0.6689,0.7637,0.9893,1.9346,0.96,3.5117h-5.1567c0.0146,0.6104,0.1807,1.085,0.498,1.4248
				c0.3174,0.3389,0.7129,0.5088,1.1865,0.5088c0.3223,0,0.5933-0.0879,0.813-0.2637S111.4785,18.1543,111.5908,17.7637z
				 M111.708,15.6836c-0.0146-0.5957-0.1685-1.0488-0.4614-1.3584c-0.293-0.3105-0.6494-0.4648-1.0693-0.4648
				c-0.4492,0-0.8203,0.1631-1.1133,0.4902s-0.437,0.7715-0.4321,1.333H111.708z"/>
			<path fill="#603813" d="M121.1348,14.834l-1.8682-0.3369c0.21-0.752,0.5713-1.3086,1.084-1.6699s1.2744-0.542,2.2852-0.542
				c0.918,0,1.6016,0.1084,2.0508,0.3262c0.4492,0.2168,0.7656,0.4932,0.9482,0.8271c0.1836,0.335,0.2754,0.9492,0.2754,1.8418
				l-0.0225,2.4023c0,0.6846,0.0332,1.1885,0.0986,1.5127c0.0664,0.3252,0.1895,0.6729,0.3701,1.0439h-2.0361
				c-0.0537-0.1367-0.1191-0.3389-0.1973-0.6074c-0.0352-0.1221-0.0586-0.2031-0.0742-0.2422
				c-0.3516,0.3418-0.7266,0.5986-1.127,0.7695c-0.4004,0.1699-0.8281,0.2559-1.2822,0.2559c-0.8008,0-1.4316-0.2168-1.8936-0.6523
				c-0.4609-0.4336-0.6914-0.9834-0.6914-1.6475c0-0.4395,0.1045-0.8311,0.3145-1.1758c0.21-0.3438,0.5039-0.6074,0.8828-0.791
				c0.3779-0.1826,0.9238-0.3428,1.6367-0.4795c0.9619-0.1807,1.6289-0.3486,2-0.5059V14.958c0-0.3945-0.0977-0.6768-0.293-0.8457
				c-0.1953-0.168-0.5645-0.252-1.1064-0.252c-0.3662,0-0.6514,0.0713-0.8564,0.2158
				C121.4277,14.2197,121.2617,14.4727,121.1348,14.834z M123.8887,16.5039c-0.2637,0.0879-0.6816,0.1934-1.2529,0.3154
				s-0.9443,0.2412-1.1201,0.3584c-0.2695,0.1904-0.4033,0.4326-0.4033,0.7256c0,0.2881,0.1074,0.5371,0.3223,0.7461
				c0.2148,0.2109,0.4883,0.3154,0.8203,0.3154c0.3711,0,0.7256-0.1221,1.0615-0.3662c0.25-0.1855,0.4131-0.4121,0.4912-0.6816
				c0.0537-0.1758,0.0811-0.5098,0.0811-1.0029V16.5039z"/>
			<path fill="#603813" d="M127.9385,20.2393V9.502h2.0576v10.7373H127.9385z"/>
			<path fill="#603813" d="M131.916,20.752l2.3506,0.2861c0.0391,0.2725,0.1299,0.4609,0.2705,0.5635
				c0.1953,0.1465,0.5039,0.2197,0.9238,0.2197c0.5371,0,0.9395-0.0801,1.208-0.2422c0.1807-0.1074,0.3174-0.2803,0.4102-0.5195
				c0.0635-0.1709,0.0947-0.4863,0.0947-0.9453v-1.1348c-0.6152,0.8398-1.3906,1.2598-2.3281,1.2598
				c-1.0449,0-1.873-0.4414-2.4834-1.3262c-0.4785-0.6973-0.7178-1.5664-0.7178-2.6074c0-1.3027,0.3135-2.2988,0.9414-2.9883
				c0.627-0.6875,1.4072-1.0322,2.3398-1.0322c0.9619,0,1.7559,0.4229,2.3809,1.2666v-1.0908h1.9258v6.9795
				c0,0.918-0.0762,1.6045-0.2266,2.0586c-0.1523,0.4541-0.3643,0.8105-0.6377,1.0693s-0.6387,0.4619-1.0947,0.6084
				c-0.457,0.1465-1.0342,0.2188-1.7324,0.2188c-1.3184,0-2.2539-0.2256-2.8047-0.6768c-0.5527-0.4521-0.8281-1.0244-0.8281-1.7178
				C131.9082,20.9326,131.9102,20.8496,131.916,20.752z M133.7539,16.1885c0,0.8262,0.1602,1.4297,0.4795,1.8135
				c0.3193,0.3828,0.7139,0.5752,1.1826,0.5752c0.5039,0,0.9277-0.1973,1.2754-0.5898c0.3457-0.3936,0.5195-0.9756,0.5195-1.7471
				c0-0.8057-0.166-1.4033-0.498-1.7939s-0.752-0.5859-1.2598-0.5859c-0.4932,0-0.9004,0.1914-1.2197,0.5742
				C133.9141,14.8184,133.7539,15.4033,133.7539,16.1885z"/>
			<path fill="#603813" d="M140.793,16.2402c0-0.6836,0.168-1.3447,0.5049-1.9854c0.3369-0.6387,0.8135-1.127,1.4326-1.4648
				c0.6172-0.3359,1.3066-0.5049,2.0684-0.5049c1.1768,0,2.1406,0.3818,2.8926,1.1465c0.752,0.7637,1.1289,1.7295,1.1289,2.8965
				c0,1.1768-0.3809,2.1523-1.1387,2.9258c-0.7598,0.7744-1.7158,1.1611-2.8682,1.1611c-0.7129,0-1.3936-0.1611-2.04-0.4834
				s-1.1387-0.7949-1.4756-1.417C140.9609,17.8916,140.793,17.1338,140.793,16.2402z M142.9023,16.3506
				c0,0.7715,0.1826,1.3613,0.5488,1.7715s0.8184,0.6152,1.3555,0.6152s0.9863-0.2051,1.3516-0.6152
				c0.3633-0.4102,0.5449-1.0049,0.5449-1.7871c0-0.7617-0.1816-1.3477-0.5449-1.7578c-0.3652-0.4102-0.8145-0.6152-1.3516-0.6152
				s-0.9893,0.2051-1.3555,0.6152S142.9023,15.5791,142.9023,16.3506z"/>
			<path fill="#603813" d="M152.4014,20.2393h-2.0576v-7.7783h1.9111v1.1064c0.3271-0.5225,0.6211-0.8672,0.8828-1.0332
				c0.2607-0.166,0.5576-0.249,0.8896-0.249c0.4688,0,0.9199,0.1299,1.3555,0.3877l-0.6377,1.7949
				c-0.3467-0.2246-0.6689-0.3369-0.9668-0.3369c-0.2881,0-0.5322,0.0791-0.7324,0.2383c-0.2002,0.1582-0.3584,0.4453-0.4727,0.8604
				s-0.1719,1.2842-0.1719,2.6074V20.2393z"/>
			<path fill="#603813" d="M156.2686,11.4063V9.502h2.0576v1.9043H156.2686z M156.2686,20.2393v-7.7783h2.0576v7.7783H156.2686z"/>
			<path fill="#603813" d="M164.0029,12.4609v1.6406h-1.4063v3.1348c0,0.6348,0.0127,1.0049,0.04,1.1094
				c0.0273,0.1055,0.0879,0.1924,0.1836,0.2607c0.0947,0.0684,0.2109,0.1016,0.3477,0.1016c0.1904,0,0.4668-0.0654,0.8281-0.1973
				l0.1758,1.5967c-0.4785,0.2051-1.0215,0.3076-1.627,0.3076c-0.3711,0-0.7051-0.0625-1.0029-0.1865
				c-0.2979-0.125-0.5166-0.2861-0.6553-0.4834c-0.1396-0.1982-0.2363-0.4648-0.2891-0.8027
				c-0.0449-0.2383-0.0664-0.7217-0.0664-1.4492v-3.3916h-0.9453v-1.6406h0.9453V10.915l2.0654-1.2012v2.7471H164.0029z"/>
			<path fill="#603813" d="M165.2773,12.4609h1.8965v1.0615c0.6797-0.8242,1.4873-1.2373,2.4248-1.2373
				c0.498,0,0.9307,0.1025,1.2959,0.3076c0.3672,0.2051,0.667,0.5156,0.9014,0.9297c0.3418-0.4141,0.71-0.7246,1.1064-0.9297
				c0.3945-0.2051,0.8174-0.3076,1.2666-0.3076c0.5713,0,1.0547,0.1162,1.4502,0.3477c0.3955,0.2324,0.6914,0.5732,0.8867,1.0225
				c0.1406,0.332,0.2119,0.8691,0.2119,1.6113v4.9727h-2.0576v-4.4453c0-0.7715-0.0713-1.2695-0.2129-1.4941
				c-0.1904-0.293-0.4834-0.4395-0.8789-0.4395c-0.2881,0-0.5586,0.0879-0.8125,0.2637s-0.4375,0.4326-0.5498,0.7725
				c-0.1123,0.3389-0.1689,0.875-0.1689,1.6074v3.7354h-2.0576v-4.2627c0-0.7568-0.0361-1.2451-0.1104-1.4648
				c-0.0723-0.2197-0.1865-0.3828-0.3398-0.4912c-0.1543-0.1064-0.3633-0.1602-0.627-0.1602c-0.3164,0-0.6025,0.085-0.8564,0.2559
				s-0.4355,0.418-0.5459,0.7402c-0.1094,0.3223-0.1641,0.8564-0.1641,1.6035v3.7793h-2.0586V12.4609z"/>
			<path fill="#603813" d="M178.293,16.2402c0-0.6836,0.168-1.3447,0.5049-1.9854c0.3369-0.6387,0.8135-1.127,1.4326-1.4648
				c0.6172-0.3359,1.3066-0.5049,2.0684-0.5049c1.1768,0,2.1406,0.3818,2.8926,1.1465c0.752,0.7637,1.1289,1.7295,1.1289,2.8965
				c0,1.1768-0.3809,2.1523-1.1387,2.9258c-0.7598,0.7744-1.7158,1.1611-2.8682,1.1611c-0.7129,0-1.3936-0.1611-2.04-0.4834
				s-1.1387-0.7949-1.4756-1.417C178.4609,17.8916,178.293,17.1338,178.293,16.2402z M180.4023,16.3506
				c0,0.7715,0.1826,1.3613,0.5488,1.7715s0.8184,0.6152,1.3555,0.6152s0.9863-0.2051,1.3516-0.6152
				c0.3633-0.4102,0.5449-1.0049,0.5449-1.7871c0-0.7617-0.1816-1.3477-0.5449-1.7578c-0.3652-0.4102-0.8145-0.6152-1.3516-0.6152
				s-0.9893,0.2051-1.3555,0.6152S180.4023,15.5791,180.4023,16.3506z"/>
			<path fill="#603813" d="M187.2061,18.0205l2.0654-0.3154c0.0879,0.4004,0.2656,0.7041,0.5352,0.9121
				c0.2676,0.207,0.6445,0.3115,1.127,0.3115c0.5332,0,0.9336-0.0977,1.2012-0.293c0.1816-0.1367,0.2715-0.3203,0.2715-0.5498
				c0-0.1563-0.0488-0.2861-0.1465-0.3877c-0.1025-0.0977-0.332-0.1885-0.6885-0.2715c-1.6602-0.3662-2.7119-0.7002-3.1572-1.0039
				c-0.6152-0.4189-0.9219-1.0029-0.9219-1.75c0-0.6738,0.2656-1.2402,0.7979-1.6992s1.3574-0.6885,2.4756-0.6885
				c1.0645,0,1.8555,0.1738,2.373,0.5205s0.874,0.8594,1.0693,1.5371l-1.9404,0.3594c-0.084-0.3027-0.2412-0.5352-0.4727-0.6953
				c-0.2324-0.1621-0.5625-0.2422-0.9922-0.2422c-0.543,0-0.9307,0.0762-1.165,0.2266c-0.1563,0.1084-0.2344,0.2471-0.2344,0.418
				c0,0.1465,0.0684,0.2715,0.2051,0.373c0.1855,0.1377,0.8262,0.3301,1.9229,0.5791c1.0957,0.249,1.8613,0.5547,2.2959,0.915
				c0.4297,0.3672,0.6445,0.877,0.6445,1.5313c0,0.7129-0.2979,1.3262-0.8936,1.8379c-0.5957,0.5137-1.4766,0.7695-2.6445,0.7695
				c-1.0586,0-1.8984-0.2148-2.5156-0.6445S187.3965,18.7578,187.2061,18.0205z"/>
			<path fill="#603813" d="M18.4478,34.79l1.3403-0.1172c0.0635,0.5371,0.2109,0.9775,0.4429,1.3213
				c0.2319,0.3447,0.5923,0.623,1.0806,0.835c0.4883,0.2129,1.0376,0.3184,1.6479,0.3184c0.542,0,1.0205-0.0801,1.4355-0.2412
				s0.7236-0.3818,0.9268-0.6631c0.2021-0.2803,0.3037-0.5869,0.3037-0.9189c0-0.3369-0.0977-0.6309-0.293-0.8828
				c-0.1953-0.251-0.5176-0.4619-0.9668-0.6338c-0.2881-0.1113-0.9253-0.2861-1.9116-0.5234
				c-0.9863-0.2363-1.6772-0.46-2.0728-0.6699c-0.5127-0.2686-0.895-0.6016-1.1465-1c-0.2515-0.3975-0.377-0.8428-0.377-1.3359
				c0-0.543,0.1538-1.0488,0.4614-1.5205c0.3076-0.4707,0.7568-0.8281,1.3477-1.0732c0.5908-0.2432,1.2476-0.3652,1.9702-0.3652
				c0.7959,0,1.498,0.1279,2.1055,0.3838c0.6084,0.2568,1.0757,0.6338,1.4028,1.1318s0.5029,1.0625,0.5273,1.6914l-1.3623,0.1035
				c-0.0732-0.6787-0.3213-1.1914-0.7437-1.5391c-0.4224-0.3457-1.0459-0.5195-1.8711-0.5195c-0.8594,0-1.4858,0.1572-1.8789,0.4727
				c-0.3931,0.3145-0.5894,0.6943-0.5894,1.1387c0,0.3857,0.1392,0.7031,0.4175,0.9521c0.2734,0.249,0.9873,0.5039,2.1426,0.7656
				c1.1543,0.2607,1.9468,0.4893,2.3765,0.6846c0.625,0.2881,1.0864,0.6533,1.3843,1.0947
				c0.2979,0.4424,0.4468,0.9512,0.4468,1.5273c0,0.5713-0.1636,1.1094-0.4907,1.6152c-0.3271,0.5049-0.7974,0.8984-1.4102,1.1787
				c-0.6128,0.2813-1.3022,0.4219-2.0688,0.4219c-0.9717,0-1.7861-0.1426-2.4429-0.4258c-0.6567-0.2822-1.1719-0.709-1.5449-1.2773
				C18.6636,36.1504,18.4673,35.5068,18.4478,34.79z"/>
			<path fill="#603813" d="M34.0923,35.7344l1.3623,0.1689c-0.2148,0.7959-0.6128,1.4131-1.1938,1.8525
				s-1.3232,0.6592-2.2266,0.6592c-1.1377,0-2.0396-0.3506-2.7065-1.0508c-0.666-0.7012-0.9995-1.6836-0.9995-2.9482
				c0-1.3086,0.3369-2.3242,1.0107-3.0469s1.5479-1.084,2.6221-1.084c1.04,0,1.8896,0.3545,2.5488,1.0615
				c0.6592,0.709,0.9888,1.7051,0.9888,2.9883c0,0.0791-0.0024,0.1963-0.0073,0.3516h-5.8008
				c0.0488,0.8555,0.2905,1.5098,0.7251,1.9629c0.4346,0.4551,0.9766,0.6816,1.626,0.6816c0.4834,0,0.896-0.127,1.2378-0.3809
				S33.8921,36.291,34.0923,35.7344z M29.7637,33.6025h4.3433c-0.0586-0.6533-0.2246-1.1445-0.498-1.4717
				c-0.4199-0.5078-0.9644-0.7617-1.6333-0.7617c-0.6055,0-1.1147,0.2031-1.5269,0.6084
				C30.0356,32.3828,29.8076,32.9248,29.7637,33.6025z"/>
			<path fill="#603813" d="M51.5962,38.2393v-0.9814c-0.4932,0.7715-1.2183,1.1572-2.1753,1.1572
				c-0.6201,0-1.1899-0.1709-1.7104-0.5127c-0.5195-0.3418-0.9229-0.8193-1.208-1.4316c-0.2861-0.6133-0.4287-1.3174-0.4287-2.1133
				c0-0.7764,0.1294-1.4805,0.3882-2.1133c0.2588-0.6318,0.647-1.1162,1.1646-1.4541c0.5176-0.3359,1.0962-0.5049,1.7358-0.5049
				c0.4688,0,0.8862,0.0986,1.2524,0.2969c0.3662,0.1973,0.6641,0.4551,0.8936,0.7725V27.502h1.311v10.7373H51.5962z
				 M47.4287,34.3574c0,0.9961,0.21,1.7412,0.6299,2.2334c0.4199,0.4941,0.9155,0.7402,1.4868,0.7402
				c0.5762,0,1.0654-0.2354,1.4688-0.707c0.4023-0.4707,0.604-1.1895,0.604-2.1563c0-1.0645-0.2051-1.8457-0.6152-2.3438
				s-0.9155-0.748-1.5161-0.748c-0.5859,0-1.0757,0.2402-1.4688,0.7188S47.4287,33.3271,47.4287,34.3574z"/>
			<path fill="#603813" d="M54.8994,29.0186V27.502h1.3184v1.5166H54.8994z M54.8994,38.2393v-7.7783h1.3184v7.7783H54.8994z"/>
			<path fill="#603813" d="M57.6973,35.917l1.3037-0.2051c0.0732,0.5234,0.2769,0.9238,0.6118,1.2012
				c0.334,0.2793,0.8018,0.418,1.4023,0.418c0.6055,0,1.0547-0.123,1.3477-0.3701c0.293-0.2461,0.4395-0.5352,0.4395-0.8682
				c0-0.2969-0.1294-0.5313-0.3882-0.7031c-0.1807-0.1172-0.6299-0.2656-1.3477-0.4463c-0.9668-0.2441-1.6372-0.4551-2.0103-0.6338
				c-0.374-0.1777-0.6572-0.4248-0.8496-0.7393c-0.1934-0.3154-0.2896-0.6631-0.2896-1.0439c0-0.3467,0.0791-0.668,0.2378-0.9629
				c0.1587-0.2959,0.375-0.541,0.6484-0.7363c0.2051-0.1514,0.4844-0.2793,0.8389-0.3848c0.3535-0.1045,0.7334-0.1572,1.1387-0.1572
				c0.6104,0,1.1465,0.0879,1.6074,0.2637c0.4619,0.1758,0.8022,0.4141,1.022,0.7139c0.2197,0.3008,0.3711,0.7021,0.4541,1.2051
				l-1.2891,0.1758c-0.0586-0.4004-0.2285-0.7129-0.5093-0.9375s-0.6772-0.3369-1.1899-0.3369
				c-0.6055,0-1.0376,0.1006-1.2964,0.2998c-0.2588,0.2012-0.3882,0.4355-0.3882,0.7031c0,0.1719,0.0537,0.3252,0.1611,0.4619
				c0.1074,0.1416,0.2759,0.2588,0.5054,0.3516c0.1318,0.0488,0.52,0.1611,1.1646,0.3369c0.9326,0.249,1.583,0.4531,1.9517,0.6113
				c0.3687,0.1592,0.6582,0.3896,0.8682,0.6924s0.3149,0.6787,0.3149,1.1279c0,0.4395-0.1284,0.8535-0.3843,1.2412
				c-0.2568,0.3887-0.6265,0.6885-1.1099,0.9014c-0.4834,0.2119-1.0303,0.3184-1.6406,0.3184c-1.0107,0-1.7813-0.21-2.311-0.6299
				S57.8438,36.7432,57.6973,35.917z"/>
			<path fill="#603813" d="M71.0493,35.7344l1.3623,0.1689c-0.2148,0.7959-0.6128,1.4131-1.1938,1.8525
				s-1.3232,0.6592-2.2266,0.6592c-1.1377,0-2.0396-0.3506-2.7065-1.0508c-0.666-0.7012-0.9995-1.6836-0.9995-2.9482
				c0-1.3086,0.3369-2.3242,1.0107-3.0469s1.5479-1.084,2.6221-1.084c1.04,0,1.8896,0.3545,2.5488,1.0615
				c0.6592,0.709,0.9888,1.7051,0.9888,2.9883c0,0.0791-0.0024,0.1963-0.0073,0.3516h-5.8008
				c0.0488,0.8555,0.2905,1.5098,0.7251,1.9629c0.4346,0.4551,0.9766,0.6816,1.626,0.6816c0.4834,0,0.896-0.127,1.2378-0.3809
				S70.8491,36.291,71.0493,35.7344z M66.7207,33.6025h4.3433c-0.0586-0.6533-0.2246-1.1445-0.498-1.4717
				c-0.4199-0.5078-0.9644-0.7617-1.6333-0.7617c-0.6055,0-1.1147,0.2031-1.5269,0.6084
				C66.9927,32.3828,66.7646,32.9248,66.7207,33.6025z"/>
			<path fill="#603813" d="M74.0669,38.2393v-7.7783h1.1865v1.1064c0.5713-0.8545,1.3965-1.2822,2.4756-1.2822
				c0.4688,0,0.8994,0.084,1.2925,0.2529c0.3931,0.168,0.6875,0.3896,0.8828,0.6621c0.1953,0.2744,0.332,0.5986,0.4102,0.9746
				c0.0488,0.2441,0.0732,0.6719,0.0732,1.2813v4.7832h-1.3184v-4.7314c0-0.5371-0.0513-0.9385-0.1538-1.2051
				c-0.1025-0.2656-0.2847-0.4785-0.5454-0.6367c-0.2617-0.1592-0.5679-0.2383-0.9194-0.2383c-0.5615,0-1.0464,0.1787-1.4536,0.5342
				c-0.4082,0.3574-0.6118,1.0332-0.6118,2.0293v4.248H74.0669z M74.9971,29.3115c-0.0049-0.5078,0.1343-0.9131,0.4175-1.2168
				c0.2783-0.3018,0.6348-0.4531,1.0693-0.4531c0.3027,0,0.7153,0.1309,1.2378,0.3945c0.2881,0.1465,0.5176,0.2207,0.6885,0.2207
				c0.1563,0,0.2759-0.043,0.3589-0.1289c0.083-0.085,0.1416-0.2549,0.1758-0.5088h0.9521
				c-0.0146,0.5566-0.1553,0.9736-0.4214,1.2529c-0.2661,0.2773-0.604,0.417-1.0142,0.417c-0.3076,0-0.7129-0.1367-1.2158-0.4102
				c-0.3271-0.1758-0.5664-0.2637-0.7178-0.2637c-0.166,0-0.3003,0.0586-0.4028,0.1758c-0.1074,0.1172-0.1587,0.291-0.1538,0.5205
				H74.9971z"/>
			<path fill="#603813" d="M87.4849,37.2803c-0.4883,0.415-0.9585,0.708-1.4102,0.8789c-0.4517,0.1699-0.936,0.2559-1.4536,0.2559
				c-0.8545,0-1.5112-0.209-1.9702-0.626c-0.459-0.418-0.6885-0.9512-0.6885-1.6006c0-0.3809,0.0864-0.7285,0.2598-1.0439
				c0.1733-0.3145,0.4004-0.5674,0.6816-0.7578c0.2803-0.1904,0.5967-0.334,0.9482-0.4326
				c0.2588-0.0674,0.6494-0.1338,1.1719-0.1973c1.0645-0.127,1.8481-0.2783,2.3511-0.4541
				c0.0049-0.1807,0.0073-0.2949,0.0073-0.3447c0-0.5361-0.1245-0.915-0.3735-1.1348c-0.3369-0.2979-0.8374-0.4473-1.5015-0.4473
				c-0.6201,0-1.0781,0.1094-1.373,0.3262c-0.2959,0.2178-0.5142,0.6025-0.6558,1.1543l-1.2891-0.1758
				c0.1172-0.5518,0.3101-0.998,0.5786-1.3369c0.2686-0.3398,0.6567-0.6006,1.1646-0.7842
				c0.5078-0.1826,1.0962-0.2744,1.7651-0.2744c0.6641,0,1.2036,0.0781,1.6187,0.2344s0.7202,0.3525,0.9155,0.5898
				c0.1953,0.2363,0.332,0.5361,0.4102,0.8975c0.0439,0.2246,0.0659,0.6289,0.0659,1.2148v1.7578
				c0,1.2266,0.0278,2.001,0.0845,2.3262c0.0557,0.3242,0.167,0.6357,0.333,0.9336h-1.377
				C87.6118,37.9658,87.5239,37.6455,87.4849,37.2803z M87.375,34.335c-0.4785,0.1963-1.1963,0.3623-2.1533,0.498
				c-0.542,0.0791-0.9253,0.167-1.1499,0.2637c-0.2246,0.0986-0.3979,0.2412-0.52,0.4287c-0.1221,0.1885-0.1831,0.3975-0.1831,0.626
				c0,0.3516,0.1328,0.6445,0.3994,0.8789c0.2656,0.2344,0.6553,0.3516,1.168,0.3516c0.5078,0,0.9595-0.1104,1.355-0.333
				c0.3955-0.2217,0.686-0.5254,0.8716-0.9111c0.1416-0.2979,0.2124-0.7373,0.2124-1.3184V34.335z"/>
			<path fill="#603813" d="M90.7515,38.2393v-7.7783h1.1865v1.1064c0.5713-0.8545,1.3965-1.2822,2.4756-1.2822
				c0.4688,0,0.8994,0.084,1.2925,0.2529c0.3931,0.168,0.6875,0.3896,0.8828,0.6621c0.1953,0.2744,0.332,0.5986,0.4102,0.9746
				c0.0488,0.2441,0.0732,0.6719,0.0732,1.2813v4.7832h-1.3184v-4.7314c0-0.5371-0.0513-0.9385-0.1538-1.2051
				c-0.1025-0.2656-0.2847-0.4785-0.5454-0.6367c-0.2617-0.1592-0.5679-0.2383-0.9194-0.2383c-0.5615,0-1.0464,0.1787-1.4536,0.5342
				c-0.4082,0.3574-0.6118,1.0332-0.6118,2.0293v4.248H90.7515z"/>
			<path fill="#603813" d="M113.8584,35.7344l1.3623,0.1689c-0.2148,0.7959-0.6133,1.4131-1.1934,1.8525
				c-0.582,0.4395-1.3237,0.6592-2.2271,0.6592c-1.1377,0-2.0396-0.3506-2.7065-1.0508c-0.666-0.7012-0.9995-1.6836-0.9995-2.9482
				c0-1.3086,0.3369-2.3242,1.0107-3.0469s1.5479-1.084,2.6221-1.084c1.04,0,1.8901,0.3545,2.5483,1.0615
				c0.6602,0.709,0.9893,1.7051,0.9893,2.9883c0,0.0791-0.0029,0.1963-0.0068,0.3516h-5.8013
				c0.0488,0.8555,0.2905,1.5098,0.7251,1.9629c0.4346,0.4551,0.9766,0.6816,1.626,0.6816c0.4834,0,0.896-0.127,1.2378-0.3809
				C113.3867,36.6963,113.6582,36.291,113.8584,35.7344z M109.5298,33.6025h4.3433c-0.0586-0.6533-0.2246-1.1445-0.498-1.4717
				c-0.4199-0.5078-0.9644-0.7617-1.6333-0.7617c-0.6055,0-1.1147,0.2031-1.5269,0.6084
				C109.8018,32.3828,109.5737,32.9248,109.5298,33.6025z"/>
			<path fill="#603813" d="M116.876,38.2393v-7.7783h1.1865v1.1064c0.5713-0.8545,1.3965-1.2822,2.4756-1.2822
				c0.4688,0,0.8994,0.084,1.292,0.2529c0.3936,0.168,0.6875,0.3896,0.8828,0.6621c0.1953,0.2744,0.332,0.5986,0.4102,0.9746
				c0.0488,0.2441,0.0742,0.6719,0.0742,1.2813v4.7832h-1.3184v-4.7314c0-0.5371-0.0518-0.9385-0.1543-1.2051
				c-0.1025-0.2656-0.2852-0.4785-0.5449-0.6367c-0.2617-0.1592-0.5684-0.2383-0.9199-0.2383c-0.5615,0-1.0469,0.1787-1.4531,0.5342
				c-0.4082,0.3574-0.6123,1.0332-0.6123,2.0293v4.248H116.876z"/>
			<path fill="#603813" d="M139.7051,38.2393v-0.9814c-0.4941,0.7715-1.2188,1.1572-2.1758,1.1572
				c-0.6201,0-1.1895-0.1709-1.7109-0.5127c-0.5195-0.3418-0.9219-0.8193-1.207-1.4316c-0.2871-0.6133-0.4297-1.3174-0.4297-2.1133
				c0-0.7764,0.1299-1.4805,0.3887-2.1133c0.2588-0.6318,0.6465-1.1162,1.1641-1.4541c0.5176-0.3359,1.0967-0.5049,1.7363-0.5049
				c0.4688,0,0.8867,0.0986,1.252,0.2969c0.3672,0.1973,0.6641,0.4551,0.8945,0.7725V27.502h1.3105v10.7373H139.7051z
				 M135.5371,34.3574c0,0.9961,0.21,1.7412,0.6299,2.2334c0.4199,0.4941,0.915,0.7402,1.4873,0.7402
				c0.5762,0,1.0645-0.2354,1.4688-0.707c0.4023-0.4707,0.6035-1.1895,0.6035-2.1563c0-1.0645-0.2051-1.8457-0.6152-2.3438
				s-0.916-0.748-1.5156-0.748c-0.5859,0-1.0762,0.2402-1.4688,0.7188C135.7334,32.5732,135.5371,33.3271,135.5371,34.3574z"/>
			<path fill="#603813" d="M148.3252,35.7344l1.3623,0.1689c-0.2148,0.7959-0.6133,1.4131-1.1934,1.8525
				c-0.582,0.4395-1.3242,0.6592-2.2266,0.6592c-1.1387,0-2.04-0.3506-2.707-1.0508c-0.666-0.7012-1-1.6836-1-2.9482
				c0-1.3086,0.3379-2.3242,1.0117-3.0469s1.5469-1.084,2.6211-1.084c1.041,0,1.8906,0.3545,2.5488,1.0615
				c0.6602,0.709,0.9893,1.7051,0.9893,2.9883c0,0.0791-0.0029,0.1963-0.0068,0.3516h-5.8008
				c0.0488,0.8555,0.29,1.5098,0.7246,1.9629c0.4346,0.4551,0.9766,0.6816,1.626,0.6816c0.4834,0,0.8955-0.127,1.2373-0.3809
				S148.125,36.291,148.3252,35.7344z M143.9961,33.6025h4.3438c-0.0586-0.6533-0.2246-1.1445-0.498-1.4717
				c-0.4199-0.5078-0.9648-0.7617-1.6328-0.7617c-0.6055,0-1.1152,0.2031-1.5273,0.6084
				C144.2686,32.3828,144.041,32.9248,143.9961,33.6025z"/>
			<path fill="#603813" d="M154.2207,37.0596l0.1914,1.165c-0.3711,0.0781-0.7031,0.1172-0.9961,0.1172
				c-0.4785,0-0.8496-0.0762-1.1133-0.2275c-0.2637-0.1504-0.4492-0.3496-0.5566-0.5967c-0.1074-0.2461-0.1621-0.7646-0.1621-1.5557
				v-4.4756h-0.9668v-1.0254h0.9668v-1.9268l1.3115-0.791v2.7178h1.3252v1.0254h-1.3252v4.5479c0,0.377,0.0225,0.6182,0.0693,0.7256
				s0.1221,0.1934,0.2266,0.2568c0.1055,0.0635,0.2559,0.0947,0.4512,0.0947C153.7891,37.1113,153.9824,37.0947,154.2207,37.0596z"
				/>
			<path fill="#603813" d="M160.5859,37.2803c-0.4883,0.415-0.959,0.708-1.4102,0.8789c-0.4512,0.1699-0.9355,0.2559-1.4531,0.2559
				c-0.8555,0-1.5117-0.209-1.9707-0.626c-0.459-0.418-0.6885-0.9512-0.6885-1.6006c0-0.3809,0.0869-0.7285,0.2598-1.0439
				c0.1729-0.3145,0.4004-0.5674,0.6816-0.7578c0.2803-0.1904,0.5967-0.334,0.9482-0.4326
				c0.2588-0.0674,0.6494-0.1338,1.1719-0.1973c1.0645-0.127,1.8477-0.2783,2.3516-0.4541
				c0.0039-0.1807,0.0068-0.2949,0.0068-0.3447c0-0.5361-0.124-0.915-0.374-1.1348c-0.3359-0.2979-0.8369-0.4473-1.501-0.4473
				c-0.6201,0-1.0781,0.1094-1.373,0.3262c-0.2959,0.2178-0.5146,0.6025-0.6553,1.1543l-1.2891-0.1758
				c0.1172-0.5518,0.3096-0.998,0.5781-1.3369c0.2686-0.3398,0.6563-0.6006,1.1641-0.7842
				c0.5078-0.1826,1.0967-0.2744,1.7656-0.2744c0.6641,0,1.2031,0.0781,1.6191,0.2344c0.4141,0.1563,0.7197,0.3525,0.915,0.5898
				c0.1953,0.2363,0.332,0.5361,0.4102,0.8975c0.0439,0.2246,0.0654,0.6289,0.0654,1.2148v1.7578
				c0,1.2266,0.0283,2.001,0.085,2.3262c0.0557,0.3242,0.167,0.6357,0.333,0.9336h-1.377
				C160.7129,37.9658,160.625,37.6455,160.5859,37.2803z M160.4766,34.335c-0.4785,0.1963-1.1973,0.3623-2.1543,0.498
				c-0.541,0.0791-0.9248,0.167-1.1494,0.2637c-0.2246,0.0986-0.3975,0.2412-0.5205,0.4287
				c-0.1211,0.1885-0.1826,0.3975-0.1826,0.626c0,0.3516,0.1328,0.6445,0.3994,0.8789c0.2656,0.2344,0.6553,0.3516,1.168,0.3516
				c0.5078,0,0.959-0.1104,1.3555-0.333c0.3945-0.2217,0.6855-0.5254,0.8711-0.9111c0.1416-0.2979,0.2129-0.7373,0.2129-1.3184
				V34.335z"/>
			<path fill="#603813" d="M163.8232,38.2393V27.502h1.3184v10.7373H163.8232z"/>
			<path fill="#603813" d="M167.1563,38.2393V27.502h1.3184v10.7373H167.1563z"/>
			<path fill="#603813" d="M175.8418,35.7344l1.3633,0.1689c-0.2148,0.7959-0.6133,1.4131-1.1943,1.8525
				s-1.3232,0.6592-2.2266,0.6592c-1.1377,0-2.04-0.3506-2.7061-1.0508c-0.666-0.7012-1-1.6836-1-2.9482
				c0-1.3086,0.3369-2.3242,1.0107-3.0469s1.5479-1.084,2.6221-1.084c1.04,0,1.8896,0.3545,2.5488,1.0615
				c0.6592,0.709,0.9883,1.7051,0.9883,2.9883c0,0.0791-0.002,0.1963-0.0068,0.3516h-5.8008
				c0.0488,0.8555,0.29,1.5098,0.7256,1.9629c0.4336,0.4551,0.9766,0.6816,1.625,0.6816c0.4844,0,0.8965-0.127,1.2383-0.3809
				S175.6426,36.291,175.8418,35.7344z M171.5137,33.6025h4.3438c-0.0586-0.6533-0.2246-1.1445-0.498-1.4717
				c-0.4199-0.5078-0.9648-0.7617-1.6338-0.7617c-0.6055,0-1.1143,0.2031-1.5264,0.6084
				C171.7852,32.3828,171.5576,32.9248,171.5137,33.6025z"/>
			<path fill="#603813" d="M188.2412,41.2354l-0.1465-1.2383c0.2881,0.0781,0.54,0.1172,0.7549,0.1172
				c0.293,0,0.5273-0.0488,0.7031-0.1465s0.3193-0.2344,0.4316-0.4102c0.083-0.1318,0.2168-0.459,0.4023-0.9814
				c0.0254-0.0732,0.0645-0.1807,0.1172-0.3223l-2.9512-7.793h1.4209l1.6182,4.5049c0.2109,0.5703,0.3984,1.1719,0.5645,1.8008
				c0.1514-0.6045,0.332-1.1953,0.542-1.7715l1.6631-4.5342h1.3184l-2.959,7.9102c-0.3184,0.8545-0.5645,1.4424-0.7402,1.7646
				c-0.2344,0.4346-0.5029,0.7539-0.8057,0.9561c-0.3027,0.2031-0.6641,0.3037-1.084,0.3037
				C188.8369,41.3955,188.5537,41.3418,188.2412,41.2354z"/>
			<path fill="#603813" d="M204.7129,35.917l1.3027-0.2051c0.0742,0.5234,0.2773,0.9238,0.6123,1.2012
				c0.334,0.2793,0.8018,0.418,1.4023,0.418c0.6055,0,1.0547-0.123,1.3477-0.3701c0.293-0.2461,0.4395-0.5352,0.4395-0.8682
				c0-0.2969-0.1299-0.5313-0.3877-0.7031c-0.1816-0.1172-0.6309-0.2656-1.3477-0.4463c-0.9668-0.2441-1.6377-0.4551-2.0107-0.6338
				c-0.374-0.1777-0.6572-0.4248-0.8496-0.7393c-0.1934-0.3154-0.29-0.6631-0.29-1.0439c0-0.3467,0.0801-0.668,0.2383-0.9629
				c0.1582-0.2959,0.375-0.541,0.6484-0.7363c0.2051-0.1514,0.4844-0.2793,0.8389-0.3848c0.3535-0.1045,0.7334-0.1572,1.1387-0.1572
				c0.6104,0,1.1465,0.0879,1.6074,0.2637c0.4619,0.1758,0.8018,0.4141,1.0225,0.7139c0.2188,0.3008,0.3711,0.7021,0.4531,1.2051
				l-1.2891,0.1758c-0.0586-0.4004-0.2285-0.7129-0.5088-0.9375s-0.6768-0.3369-1.1904-0.3369
				c-0.6055,0-1.0371,0.1006-1.2959,0.2998c-0.2588,0.2012-0.3877,0.4355-0.3877,0.7031c0,0.1719,0.0527,0.3252,0.1602,0.4619
				c0.1074,0.1416,0.2764,0.2588,0.5059,0.3516c0.1318,0.0488,0.5195,0.1611,1.1641,0.3369c0.9336,0.249,1.584,0.4531,1.9521,0.6113
				c0.3682,0.1592,0.6582,0.3896,0.8682,0.6924s0.3145,0.6787,0.3145,1.1279c0,0.4395-0.1279,0.8535-0.3838,1.2412
				c-0.2568,0.3887-0.626,0.6885-1.1104,0.9014c-0.4824,0.2119-1.0293,0.3184-1.6406,0.3184c-1.0098,0-1.7813-0.21-2.3105-0.6299
				S204.8594,36.7432,204.7129,35.917z"/>
			<path fill="#603813" d="M218.0645,35.7344l1.3623,0.1689c-0.2148,0.7959-0.6123,1.4131-1.1943,1.8525
				c-0.5801,0.4395-1.3223,0.6592-2.2266,0.6592c-1.1367,0-2.0391-0.3506-2.7061-1.0508c-0.666-0.7012-0.999-1.6836-0.999-2.9482
				c0-1.3086,0.3359-2.3242,1.0098-3.0469s1.5488-1.084,2.623-1.084c1.0391,0,1.8887,0.3545,2.5488,1.0615
				c0.6582,0.709,0.9883,1.7051,0.9883,2.9883c0,0.0791-0.002,0.1963-0.0078,0.3516h-5.8008
				c0.0488,0.8555,0.291,1.5098,0.7256,1.9629c0.4346,0.4551,0.9766,0.6816,1.626,0.6816c0.4834,0,0.8965-0.127,1.2383-0.3809
				S217.8643,36.291,218.0645,35.7344z M213.7363,33.6025h4.3428c-0.0586-0.6533-0.2246-1.1445-0.498-1.4717
				c-0.4199-0.5078-0.9639-0.7617-1.6338-0.7617c-0.6055,0-1.1143,0.2031-1.5264,0.6084
				C214.0078,32.3828,213.7793,32.9248,213.7363,33.6025z"/>
			<path fill="#603813" d="M24.0874,53.7344l1.3623,0.1689c-0.2148,0.7959-0.6128,1.4131-1.1938,1.8525
				s-1.3232,0.6592-2.2266,0.6592c-1.1377,0-2.0396-0.3506-2.7065-1.0508c-0.666-0.7012-0.9995-1.6836-0.9995-2.9482
				c0-1.3086,0.3369-2.3242,1.0107-3.0469s1.5479-1.084,2.6221-1.084c1.04,0,1.8896,0.3545,2.5488,1.0615
				c0.6592,0.709,0.9888,1.7051,0.9888,2.9883c0,0.0791-0.0024,0.1963-0.0073,0.3516h-5.8008
				c0.0488,0.8555,0.2905,1.5098,0.7251,1.9629c0.4346,0.4551,0.9766,0.6816,1.626,0.6816c0.4834,0,0.896-0.127,1.2378-0.3809
				S23.8872,54.291,24.0874,53.7344z M19.7588,51.6025h4.3433c-0.0586-0.6533-0.2246-1.1445-0.498-1.4717
				c-0.4199-0.5078-0.9644-0.7617-1.6333-0.7617c-0.6055,0-1.1147,0.2031-1.5269,0.6084
				C20.0308,50.3828,19.8027,50.9248,19.7588,51.6025z"/>
			<path fill="#603813" d="M26.5776,53.917l1.3037-0.2051c0.0732,0.5234,0.2769,0.9238,0.6118,1.2012
				c0.334,0.2793,0.8018,0.418,1.4023,0.418c0.6055,0,1.0547-0.123,1.3477-0.3701c0.293-0.2461,0.4395-0.5352,0.4395-0.8682
				c0-0.2969-0.1294-0.5313-0.3882-0.7031c-0.1807-0.1172-0.6299-0.2656-1.3477-0.4463c-0.9668-0.2441-1.6372-0.4551-2.0103-0.6338
				c-0.374-0.1777-0.6572-0.4248-0.8496-0.7393c-0.1934-0.3154-0.2896-0.6631-0.2896-1.0439c0-0.3467,0.0791-0.668,0.2378-0.9629
				c0.1587-0.2959,0.375-0.541,0.6484-0.7363c0.2051-0.1514,0.4844-0.2793,0.8389-0.3848c0.3535-0.1045,0.7334-0.1572,1.1387-0.1572
				c0.6104,0,1.1465,0.0879,1.6074,0.2637c0.4619,0.1758,0.8022,0.4141,1.022,0.7139c0.2197,0.3008,0.3711,0.7021,0.4541,1.2051
				l-1.2891,0.1758c-0.0586-0.4004-0.2285-0.7129-0.5093-0.9375s-0.6772-0.3369-1.1899-0.3369
				c-0.6055,0-1.0376,0.1006-1.2964,0.2998c-0.2588,0.2012-0.3882,0.4355-0.3882,0.7031c0,0.1719,0.0537,0.3252,0.1611,0.4619
				c0.1074,0.1416,0.2759,0.2588,0.5054,0.3516c0.1318,0.0488,0.52,0.1611,1.1646,0.3369c0.9326,0.249,1.583,0.4531,1.9517,0.6113
				c0.3687,0.1592,0.6582,0.3896,0.8682,0.6924s0.3149,0.6787,0.3149,1.1279c0,0.4395-0.1284,0.8535-0.3843,1.2412
				c-0.2568,0.3887-0.6265,0.6885-1.1099,0.9014c-0.4834,0.2119-1.0303,0.3184-1.6406,0.3184c-1.0107,0-1.7813-0.21-2.311-0.6299
				S26.7241,54.7432,26.5776,53.917z"/>
			<path fill="#603813" d="M34.605,59.2197V48.4609h1.2012v1.0107c0.2832-0.3955,0.603-0.6924,0.9595-0.8896
				c0.3564-0.1982,0.7886-0.2969,1.2964-0.2969c0.6641,0,1.25,0.1709,1.7578,0.5127s0.8911,0.8242,1.1499,1.4463
				c0.2588,0.623,0.3882,1.3057,0.3882,2.0479c0,0.7959-0.1431,1.5117-0.4282,2.1494c-0.2861,0.6367-0.7012,1.125-1.2451,1.4648
				c-0.5449,0.3389-1.1172,0.5088-1.7178,0.5088c-0.4395,0-0.834-0.0928-1.1826-0.2783c-0.3496-0.1855-0.6362-0.4199-0.8608-0.7031
				v3.7861H34.605z M35.7988,52.3936c0,1.002,0.2026,1.7412,0.6079,2.2197s0.896,0.7178,1.4722,0.7178
				c0.5859,0,1.0879-0.248,1.5049-0.7432c0.418-0.4961,0.6265-1.2637,0.6265-2.3037c0-0.9912-0.2041-1.7334-0.6118-2.2266
				s-0.8945-0.7402-1.4609-0.7402c-0.5615,0-1.0586,0.2627-1.4902,0.7881C36.0146,50.6299,35.7988,51.3936,35.7988,52.3936z"/>
			<path fill="#603813" d="M48.272,53.7344l1.3623,0.1689c-0.2148,0.7959-0.6128,1.4131-1.1938,1.8525s-1.3232,0.6592-2.2266,0.6592
				c-1.1377,0-2.0396-0.3506-2.7065-1.0508c-0.666-0.7012-0.9995-1.6836-0.9995-2.9482c0-1.3086,0.3369-2.3242,1.0107-3.0469
				s1.5479-1.084,2.6221-1.084c1.04,0,1.8896,0.3545,2.5488,1.0615c0.6592,0.709,0.9888,1.7051,0.9888,2.9883
				c0,0.0791-0.0024,0.1963-0.0073,0.3516h-5.8008c0.0488,0.8555,0.2905,1.5098,0.7251,1.9629
				c0.4346,0.4551,0.9766,0.6816,1.626,0.6816c0.4834,0,0.896-0.127,1.2378-0.3809S48.0718,54.291,48.272,53.7344z M43.9434,51.6025
				h4.3433c-0.0586-0.6533-0.2246-1.1445-0.498-1.4717c-0.4199-0.5078-0.9644-0.7617-1.6333-0.7617
				c-0.6055,0-1.1147,0.2031-1.5269,0.6084C44.2153,50.3828,43.9873,50.9248,43.9434,51.6025z"/>
			<path fill="#603813" d="M56.3652,53.3896l1.2964,0.1689c-0.1416,0.8936-0.5044,1.5928-1.0874,2.0986
				c-0.584,0.5049-1.3003,0.7578-2.1499,0.7578c-1.0645,0-1.9204-0.3477-2.5669-1.0439c-0.6475-0.6953-0.9707-1.6924-0.9707-2.9912
				c0-0.8398,0.1392-1.5752,0.4175-2.2051s0.7017-1.1025,1.271-1.417c0.5684-0.3154,1.1875-0.4727,1.8564-0.4727
				c0.8447,0,1.5356,0.2139,2.0728,0.6406c0.5371,0.4277,0.8813,1.0342,1.0327,1.8203l-1.2817,0.1982
				c-0.1221-0.5225-0.3384-0.916-0.6479-1.1797c-0.3105-0.2637-0.6851-0.3955-1.1245-0.3955c-0.6641,0-1.2036,0.2383-1.6187,0.7139
				c-0.415,0.4766-0.6226,1.2295-0.6226,2.2598c0,1.0449,0.2002,1.8047,0.6006,2.2773c0.4004,0.4746,0.9229,0.7109,1.5674,0.7109
				c0.5176,0,0.9497-0.1582,1.2964-0.4766C56.0527,54.5381,56.2725,54.0498,56.3652,53.3896z"/>
			<path fill="#603813" d="M58.7969,47.0186V45.502h1.3184v1.5166H58.7969z M58.7969,56.2393v-7.7783h1.3184v7.7783H58.7969z"/>
			<path fill="#603813" d="M62.437,56.2393v-6.7529h-1.1646v-1.0254h1.1646v-0.8271c0-0.5225,0.0464-0.9111,0.1392-1.165
				c0.127-0.3418,0.3501-0.6191,0.6704-0.8311c0.3193-0.2129,0.7676-0.3184,1.3438-0.3184c0.3711,0,0.7813,0.043,1.2305,0.1309
				l-0.1978,1.1504c-0.2734-0.0488-0.5322-0.0732-0.7764-0.0732c-0.4004,0-0.6836,0.0859-0.8496,0.2568s-0.249,0.4902-0.249,0.959
				v0.7178h1.5161v1.0254H63.748v6.7529H62.437z"/>
			<path fill="#603813" d="M66.2969,47.0186V45.502h1.3184v1.5166H66.2969z M66.2969,56.2393v-7.7783h1.3184v7.7783H66.2969z"/>
			<path fill="#603813" d="M74.6978,53.3896l1.2964,0.1689c-0.1416,0.8936-0.5044,1.5928-1.0874,2.0986
				c-0.584,0.5049-1.3003,0.7578-2.1499,0.7578c-1.0645,0-1.9204-0.3477-2.5669-1.0439c-0.6475-0.6953-0.9707-1.6924-0.9707-2.9912
				c0-0.8398,0.1392-1.5752,0.4175-2.2051s0.7017-1.1025,1.271-1.417c0.5684-0.3154,1.1875-0.4727,1.8564-0.4727
				c0.8447,0,1.5356,0.2139,2.0728,0.6406c0.5371,0.4277,0.8813,1.0342,1.0327,1.8203l-1.2817,0.1982
				c-0.1221-0.5225-0.3384-0.916-0.6479-1.1797c-0.3105-0.2637-0.6851-0.3955-1.1245-0.3955c-0.6641,0-1.2036,0.2383-1.6187,0.7139
				c-0.415,0.4766-0.6226,1.2295-0.6226,2.2598c0,1.0449,0.2002,1.8047,0.6006,2.2773c0.4004,0.4746,0.9229,0.7109,1.5674,0.7109
				c0.5176,0,0.9497-0.1582,1.2964-0.4766C74.3853,54.5381,74.605,54.0498,74.6978,53.3896z"/>
			<path fill="#603813" d="M82.1978,55.2803c-0.4883,0.415-0.9585,0.708-1.4102,0.8789c-0.4517,0.1699-0.936,0.2559-1.4536,0.2559
				c-0.8545,0-1.5112-0.209-1.9702-0.626c-0.459-0.418-0.6885-0.9512-0.6885-1.6006c0-0.3809,0.0864-0.7285,0.2598-1.0439
				c0.1733-0.3145,0.4004-0.5674,0.6816-0.7578c0.2803-0.1904,0.5967-0.334,0.9482-0.4326
				c0.2588-0.0674,0.6494-0.1338,1.1719-0.1973c1.0645-0.127,1.8481-0.2783,2.3511-0.4541
				c0.0049-0.1807,0.0073-0.2949,0.0073-0.3447c0-0.5361-0.1245-0.915-0.3735-1.1348c-0.3369-0.2979-0.8374-0.4473-1.5015-0.4473
				c-0.6201,0-1.0781,0.1094-1.373,0.3262c-0.2959,0.2178-0.5142,0.6025-0.6558,1.1543l-1.2891-0.1758
				c0.1172-0.5518,0.3101-0.998,0.5786-1.3369c0.2686-0.3398,0.6567-0.6006,1.1646-0.7842
				c0.5078-0.1826,1.0962-0.2744,1.7651-0.2744c0.6641,0,1.2036,0.0781,1.6187,0.2344s0.7202,0.3525,0.9155,0.5898
				c0.1953,0.2363,0.332,0.5361,0.4102,0.8975c0.0439,0.2246,0.0659,0.6289,0.0659,1.2148v1.7578
				c0,1.2266,0.0278,2.001,0.0845,2.3262c0.0557,0.3242,0.167,0.6357,0.333,0.9336h-1.377
				C82.3247,55.9658,82.2368,55.6455,82.1978,55.2803z M82.0879,52.335c-0.4785,0.1963-1.1963,0.3623-2.1533,0.498
				c-0.542,0.0791-0.9253,0.167-1.1499,0.2637c-0.2246,0.0986-0.3979,0.2412-0.52,0.4287c-0.1221,0.1885-0.1831,0.3975-0.1831,0.626
				c0,0.3516,0.1328,0.6445,0.3994,0.8789c0.2656,0.2344,0.6553,0.3516,1.168,0.3516c0.5078,0,0.9595-0.1104,1.355-0.333
				c0.3955-0.2217,0.686-0.5254,0.8716-0.9111c0.1416-0.2979,0.2124-0.7373,0.2124-1.3184V52.335z"/>
			<path fill="#603813" d="M85.4644,56.2393v-7.7783h1.1865v1.1064c0.5713-0.8545,1.3965-1.2822,2.4756-1.2822
				c0.4688,0,0.8994,0.084,1.2925,0.2529c0.3931,0.168,0.6875,0.3896,0.8828,0.6621c0.1953,0.2744,0.332,0.5986,0.4102,0.9746
				c0.0488,0.2441,0.0732,0.6719,0.0732,1.2813v4.7832h-1.3184v-4.7314c0-0.5371-0.0513-0.9385-0.1538-1.2051
				c-0.1025-0.2656-0.2847-0.4785-0.5454-0.6367c-0.2617-0.1592-0.5679-0.2383-0.9194-0.2383c-0.5615,0-1.0464,0.1787-1.4536,0.5342
				c-0.4082,0.3574-0.6118,1.0332-0.6118,2.0293v4.248H85.4644z"/>
			<path fill="#603813" d="M113.2324,56.2393V45.502h1.3184v10.7373H113.2324z"/>
			<path fill="#603813" d="M116.1025,52.3506c0-1.4404,0.4004-2.5078,1.2012-3.2012c0.6689-0.5762,1.4844-0.8643,2.4463-0.8643
				c1.0693,0,1.9434,0.3506,2.6221,1.0508c0.6787,0.7012,1.0186,1.6689,1.0186,2.9043c0,1.001-0.1504,1.7881-0.4512,2.3623
				c-0.2998,0.5732-0.7373,1.0195-1.3105,1.3359c-0.5742,0.3174-1.2002,0.4766-1.8789,0.4766c-1.0889,0-1.9688-0.3486-2.6406-1.0469
				S116.1025,53.6641,116.1025,52.3506z M117.457,52.3506c0,0.9961,0.2178,1.7412,0.6523,2.2373
				c0.4346,0.4951,0.9814,0.7432,1.6406,0.7432c0.6543,0,1.1992-0.249,1.6328-0.7471c0.4355-0.498,0.6523-1.2568,0.6523-2.2783
				c0-0.9609-0.2188-1.6904-0.6553-2.1855c-0.4375-0.4961-0.9805-0.7441-1.6299-0.7441c-0.6592,0-1.2061,0.2471-1.6406,0.7402
				S117.457,51.3545,117.457,52.3506z"/>
			<path fill="#603813" d="M124.4082,53.917l1.3047-0.2051c0.0723,0.5234,0.2764,0.9238,0.6113,1.2012
				c0.334,0.2793,0.8018,0.418,1.4023,0.418c0.6055,0,1.0547-0.123,1.3477-0.3701c0.293-0.2461,0.4395-0.5352,0.4395-0.8682
				c0-0.2969-0.1289-0.5313-0.3887-0.7031c-0.1797-0.1172-0.6289-0.2656-1.3477-0.4463c-0.9668-0.2441-1.6367-0.4551-2.0098-0.6338
				c-0.374-0.1777-0.6572-0.4248-0.8496-0.7393c-0.1934-0.3154-0.2891-0.6631-0.2891-1.0439c0-0.3467,0.0781-0.668,0.2373-0.9629
				c0.1592-0.2959,0.375-0.541,0.6484-0.7363c0.2051-0.1514,0.4844-0.2793,0.8389-0.3848c0.3535-0.1045,0.7334-0.1572,1.1387-0.1572
				c0.6104,0,1.1465,0.0879,1.6074,0.2637c0.4619,0.1758,0.8027,0.4141,1.0215,0.7139c0.2207,0.3008,0.3711,0.7021,0.4551,1.2051
				l-1.2891,0.1758c-0.0586-0.4004-0.2285-0.7129-0.5098-0.9375s-0.6777-0.3369-1.1895-0.3369
				c-0.6055,0-1.0381,0.1006-1.2969,0.2998c-0.2588,0.2012-0.3887,0.4355-0.3887,0.7031c0,0.1719,0.0547,0.3252,0.1621,0.4619
				c0.1074,0.1416,0.2754,0.2588,0.5049,0.3516c0.1318,0.0488,0.5205,0.1611,1.165,0.3369c0.9316,0.249,1.582,0.4531,1.9512,0.6113
				c0.3691,0.1592,0.6582,0.3896,0.8682,0.6924s0.3154,0.6787,0.3154,1.1279c0,0.4395-0.1289,0.8535-0.3848,1.2412
				c-0.2568,0.3887-0.627,0.6885-1.1094,0.9014c-0.4844,0.2119-1.0313,0.3184-1.6406,0.3184c-1.0117,0-1.7813-0.21-2.3115-0.6299
				S124.5547,54.7432,124.4082,53.917z"/>
			<path fill="#603813" d="M156.9658,55.2803c-0.4883,0.415-0.958,0.708-1.4102,0.8789c-0.4521,0.1699-0.9365,0.2559-1.4541,0.2559
				c-0.8535,0-1.5107-0.209-1.9697-0.626c-0.459-0.418-0.6885-0.9512-0.6885-1.6006c0-0.3809,0.0859-0.7285,0.2598-1.0439
				c0.1738-0.3145,0.4004-0.5674,0.6816-0.7578c0.2803-0.1904,0.5967-0.334,0.9482-0.4326
				c0.2588-0.0674,0.6494-0.1338,1.1719-0.1973c1.0645-0.127,1.8486-0.2783,2.3506-0.4541
				c0.0059-0.1807,0.0078-0.2949,0.0078-0.3447c0-0.5361-0.125-0.915-0.373-1.1348c-0.3379-0.2979-0.8379-0.4473-1.502-0.4473
				c-0.6201,0-1.0781,0.1094-1.373,0.3262c-0.2959,0.2178-0.5137,0.6025-0.6563,1.1543l-1.2891-0.1758
				c0.1172-0.5518,0.3105-0.998,0.5791-1.3369c0.2686-0.3398,0.6572-0.6006,1.165-0.7842c0.5078-0.1826,1.0957-0.2744,1.7646-0.2744
				c0.6641,0,1.2041,0.0781,1.6182,0.2344c0.416,0.1563,0.7207,0.3525,0.916,0.5898c0.1953,0.2363,0.332,0.5361,0.4102,0.8975
				c0.0439,0.2246,0.0664,0.6289,0.0664,1.2148v1.7578c0,1.2266,0.0273,2.001,0.084,2.3262c0.0557,0.3242,0.167,0.6357,0.333,0.9336
				h-1.377C157.0928,55.9658,157.0049,55.6455,156.9658,55.2803z M156.8555,52.335c-0.4785,0.1963-1.1953,0.3623-2.1523,0.498
				c-0.543,0.0791-0.9258,0.167-1.1504,0.2637c-0.2246,0.0986-0.3984,0.2412-0.5195,0.4287
				c-0.123,0.1885-0.1836,0.3975-0.1836,0.626c0,0.3516,0.1328,0.6445,0.3994,0.8789c0.2656,0.2344,0.6553,0.3516,1.168,0.3516
				c0.5078,0,0.96-0.1104,1.3545-0.333c0.3965-0.2217,0.6865-0.5254,0.8721-0.9111c0.1416-0.2979,0.2119-0.7373,0.2119-1.3184
				V52.335z"/>
			<path fill="#603813" d="M160.2031,56.2393V45.502h1.3184v10.7373H160.2031z"/>
			<path fill="#603813" d="M163.3232,56.8838l1.2822,0.1904c0.0527,0.3955,0.2021,0.6836,0.4463,0.8643
				c0.3271,0.2441,0.7744,0.3662,1.3408,0.3662c0.6094,0,1.0811-0.1221,1.4131-0.3662s0.5566-0.5859,0.6738-1.0254
				c0.0684-0.2686,0.1006-0.832,0.0947-1.6914c-0.5762,0.6787-1.293,1.0176-2.1523,1.0176c-1.0703,0-1.8975-0.3857-2.4834-1.1572
				s-0.8789-1.6963-0.8789-2.7764c0-0.7412,0.1338-1.4268,0.4033-2.0537c0.2676-0.6279,0.6572-1.1123,1.168-1.4541
				c0.5098-0.3418,1.1094-0.5127,1.7979-0.5127c0.918,0,1.6748,0.3711,2.2705,1.1133v-0.9375h1.2158v6.7236
				c0,1.2109-0.124,2.0693-0.3701,2.5742c-0.2461,0.5059-0.6367,0.9043-1.1719,1.1973c-0.5342,0.293-1.1924,0.4395-1.9736,0.4395
				c-0.9277,0-1.6768-0.208-2.249-0.626C163.5801,58.3525,163.3037,57.7236,163.3232,56.8838z M164.4141,52.2109
				c0,1.0205,0.2031,1.7646,0.6084,2.2334s0.9131,0.7031,1.5234,0.7031c0.6055,0,1.1133-0.2324,1.5234-0.6992
				c0.4102-0.4658,0.6152-1.1973,0.6152-2.1934c0-0.9521-0.2119-1.6699-0.6338-2.1533s-0.9316-0.7256-1.5273-0.7256
				c-0.5859,0-1.084,0.2383-1.4941,0.7148C164.6191,50.5664,164.4141,51.2734,164.4141,52.2109z"/>
			<path fill="#603813" d="M171.416,52.3506c0-1.4404,0.4004-2.5078,1.2012-3.2012c0.6699-0.5762,1.4844-0.8643,2.4473-0.8643
				c1.0684,0,1.9434,0.3506,2.6211,1.0508c0.6797,0.7012,1.0186,1.6689,1.0186,2.9043c0,1.001-0.1494,1.7881-0.4502,2.3623
				c-0.3008,0.5732-0.7383,1.0195-1.3105,1.3359c-0.5742,0.3174-1.2012,0.4766-1.8789,0.4766c-1.0898,0-1.9697-0.3486-2.6406-1.0469
				C171.752,54.6699,171.416,53.6641,171.416,52.3506z M172.7715,52.3506c0,0.9961,0.2168,1.7412,0.6523,2.2373
				c0.4336,0.4951,0.9805,0.7432,1.6406,0.7432c0.6543,0,1.1982-0.249,1.6328-0.7471s0.6523-1.2568,0.6523-2.2783
				c0-0.9609-0.2188-1.6904-0.6563-2.1855c-0.4375-0.4961-0.9805-0.7441-1.6289-0.7441c-0.6602,0-1.207,0.2471-1.6406,0.7402
				C172.9883,50.6094,172.7715,51.3545,172.7715,52.3506z"/>
			<path fill="#603813" d="M180.2344,56.2393v-7.7783h1.1875v1.1787c0.3027-0.5508,0.582-0.915,0.8379-1.0908
				c0.2568-0.1758,0.5391-0.2637,0.8457-0.2637c0.4453,0,0.8965,0.1416,1.3555,0.4248l-0.4541,1.2227
				c-0.3223-0.1895-0.6445-0.2852-0.9668-0.2852c-0.2881,0-0.5469,0.0869-0.7764,0.2598c-0.2295,0.1738-0.3926,0.4141-0.4902,0.7217
				c-0.1465,0.4688-0.2207,0.9814-0.2207,1.5381v4.0723H180.2344z"/>
			<path fill="#603813" d="M185.252,47.0186V45.502h1.3184v1.5166H185.252z M185.252,56.2393v-7.7783h1.3184v7.7783H185.252z"/>
			<path fill="#603813" d="M191.4551,55.0596l0.1914,1.165c-0.3711,0.0781-0.7031,0.1172-0.9961,0.1172
				c-0.4785,0-0.8496-0.0762-1.1133-0.2275c-0.2637-0.1504-0.4492-0.3496-0.5566-0.5967c-0.1074-0.2461-0.1621-0.7646-0.1621-1.5557
				v-4.4756h-0.9668v-1.0254h0.9668v-1.9268l1.3115-0.791v2.7178h1.3252v1.0254h-1.3252v4.5479c0,0.377,0.0225,0.6182,0.0693,0.7256
				s0.1221,0.1934,0.2266,0.2568c0.1055,0.0635,0.2559,0.0947,0.4512,0.0947C191.0234,55.1113,191.2168,55.0947,191.4551,55.0596z"
				/>
			<path fill="#603813" d="M192.7441,56.2393v-7.7783h1.1797v1.0908c0.2441-0.3809,0.5684-0.6865,0.9746-0.9189
				c0.4043-0.2314,0.8662-0.3477,1.3838-0.3477c0.5762,0,1.0479,0.1201,1.417,0.3584c0.3691,0.2402,0.6289,0.5742,0.7803,1.0039
				c0.6152-0.9082,1.416-1.3623,2.4023-1.3623c0.7715,0,1.3643,0.2139,1.7803,0.6406c0.4141,0.4277,0.6221,1.0859,0.6221,1.9736
				v5.3398h-1.3115v-4.9004c0-0.5273-0.043-0.9063-0.1279-1.1387c-0.085-0.2314-0.2402-0.418-0.4648-0.5605
				c-0.2246-0.1406-0.4883-0.2119-0.791-0.2119c-0.5469,0-1.001,0.1816-1.3623,0.5459c-0.3613,0.3633-0.542,0.9463-0.542,1.7461
				v4.5195h-1.3184v-5.0537c0-0.5859-0.1074-1.0254-0.3223-1.3184s-0.5664-0.4395-1.0547-0.4395
				c-0.3711,0-0.7139,0.0977-1.0293,0.293c-0.3145,0.1953-0.543,0.4814-0.6846,0.8564c-0.1416,0.377-0.2129,0.9189-0.2129,1.627
				v4.0352H192.7441z"/>
			<path fill="#603813" d="M204.749,52.3506c0-1.4404,0.4004-2.5078,1.2012-3.2012c0.6689-0.5762,1.4844-0.8643,2.4463-0.8643
				c1.0693,0,1.9434,0.3506,2.6221,1.0508c0.6787,0.7012,1.0186,1.6689,1.0186,2.9043c0,1.001-0.1504,1.7881-0.4512,2.3623
				c-0.2998,0.5732-0.7373,1.0195-1.3105,1.3359c-0.5742,0.3174-1.2002,0.4766-1.8789,0.4766c-1.0889,0-1.9688-0.3486-2.6406-1.0469
				S204.749,53.6641,204.749,52.3506z M206.1035,52.3506c0,0.9961,0.2178,1.7412,0.6523,2.2373
				c0.4346,0.4951,0.9814,0.7432,1.6406,0.7432c0.6543,0,1.1992-0.249,1.6328-0.7471c0.4355-0.498,0.6523-1.2568,0.6523-2.2783
				c0-0.9609-0.2188-1.6904-0.6553-2.1855c-0.4375-0.4961-0.9805-0.7441-1.6299-0.7441c-0.6592,0-1.2061,0.2471-1.6406,0.7402
				S206.1035,51.3545,206.1035,52.3506z"/>
			<path fill="#603813" d="M213.0547,53.917l1.3037-0.2051c0.0732,0.5234,0.2764,0.9238,0.6123,1.2012
				c0.334,0.2793,0.8008,0.418,1.4023,0.418c0.6055,0,1.0547-0.123,1.3477-0.3701c0.293-0.2461,0.4395-0.5352,0.4395-0.8682
				c0-0.2969-0.1299-0.5313-0.3887-0.7031c-0.1807-0.1172-0.6299-0.2656-1.3477-0.4463c-0.9668-0.2441-1.6367-0.4551-2.0098-0.6338
				c-0.375-0.1777-0.6582-0.4248-0.8496-0.7393c-0.1934-0.3154-0.29-0.6631-0.29-1.0439c0-0.3467,0.0791-0.668,0.2373-0.9629
				c0.1592-0.2959,0.375-0.541,0.6484-0.7363c0.2051-0.1514,0.4844-0.2793,0.8398-0.3848c0.3535-0.1045,0.7324-0.1572,1.1387-0.1572
				c0.6094,0,1.1465,0.0879,1.6074,0.2637s0.8018,0.4141,1.0215,0.7139c0.2197,0.3008,0.3711,0.7021,0.4541,1.2051l-1.2891,0.1758
				c-0.0586-0.4004-0.2285-0.7129-0.5088-0.9375c-0.2813-0.2246-0.6777-0.3369-1.1904-0.3369c-0.6055,0-1.0381,0.1006-1.2959,0.2998
				c-0.2598,0.2012-0.3887,0.4355-0.3887,0.7031c0,0.1719,0.0537,0.3252,0.1611,0.4619c0.1074,0.1416,0.2764,0.2588,0.5049,0.3516
				c0.1328,0.0488,0.5205,0.1611,1.165,0.3369c0.9326,0.249,1.583,0.4531,1.9521,0.6113c0.3682,0.1592,0.6582,0.3896,0.8672,0.6924
				c0.2109,0.3027,0.3154,0.6787,0.3154,1.1279c0,0.4395-0.1279,0.8535-0.3838,1.2412c-0.2578,0.3887-0.627,0.6885-1.1104,0.9014
				c-0.4834,0.2119-1.0303,0.3184-1.6406,0.3184c-1.0107,0-1.7813-0.21-2.3115-0.6299
				C213.5391,55.3652,213.2012,54.7432,213.0547,53.917z"/>
			<path fill="#603813" d="M23.8604,74.2393v-1.1426c-0.6055,0.8789-1.4282,1.3184-2.4683,1.3184
				c-0.459,0-0.8877-0.0879-1.2852-0.2637c-0.3984-0.1758-0.6938-0.3965-0.8867-0.6631c-0.1929-0.2656-0.3281-0.5918-0.4063-0.9775
				c-0.0537-0.2588-0.0806-0.6689-0.0806-1.2305v-4.8193h1.3184v4.3135c0,0.6895,0.0269,1.1533,0.0806,1.3926
				c0.083,0.3467,0.2588,0.6182,0.5273,0.8164c0.2686,0.1973,0.6006,0.2969,0.9961,0.2969s0.7666-0.1016,1.1133-0.3047
				c0.3467-0.2021,0.5918-0.4785,0.7363-0.8271c0.1436-0.3496,0.2158-0.8555,0.2158-1.5205v-4.167h1.3184v7.7783H23.8604z"/>
			<path fill="#603813" d="M29.9834,73.0596l0.1904,1.165c-0.3711,0.0781-0.7031,0.1172-0.9961,0.1172
				c-0.4785,0-0.8496-0.0762-1.1133-0.2275c-0.2637-0.1504-0.4492-0.3496-0.5566-0.5967c-0.1074-0.2461-0.1611-0.7646-0.1611-1.5557
				v-4.4756h-0.9668v-1.0254h0.9668v-1.9268l1.311-0.791v2.7178h1.3257v1.0254h-1.3257v4.5479c0,0.377,0.0229,0.6182,0.0698,0.7256
				c0.0459,0.1074,0.1216,0.1934,0.2266,0.2568s0.2554,0.0947,0.4507,0.0947C29.5513,73.1113,29.7441,73.0947,29.9834,73.0596z"/>
			<path fill="#603813" d="M31.2798,65.0186V63.502h1.3184v1.5166H31.2798z M31.2798,74.2393v-7.7783h1.3184v7.7783H31.2798z"/>
			<path fill="#603813" d="M34.5757,74.2393V63.502h1.3184v10.7373H34.5757z"/>
			<path fill="#603813" d="M37.9448,65.0186V63.502h1.3184v1.5166H37.9448z M37.9448,74.2393v-7.7783h1.3184v7.7783H37.9448z"/>
			<path fill="#603813" d="M40.5742,74.2393v-1.0693l4.9512-5.6836c-0.5615,0.0293-1.0571,0.0439-1.4868,0.0439h-3.1714v-1.0693
				h6.3574v0.8721l-4.2114,4.9355l-0.813,0.9014c0.5908-0.0439,1.145-0.0654,1.6626-0.0654h3.5962v1.1348H40.5742z"/>
			<path fill="#603813" d="M53.8457,73.2803c-0.4883,0.415-0.9585,0.708-1.4102,0.8789c-0.4517,0.1699-0.936,0.2559-1.4536,0.2559
				c-0.8545,0-1.5112-0.209-1.9702-0.626c-0.459-0.418-0.6885-0.9512-0.6885-1.6006c0-0.3809,0.0864-0.7285,0.2598-1.0439
				c0.1733-0.3145,0.4004-0.5674,0.6816-0.7578c0.2803-0.1904,0.5967-0.334,0.9482-0.4326
				c0.2588-0.0674,0.6494-0.1338,1.1719-0.1973c1.0645-0.127,1.8481-0.2783,2.3511-0.4541
				c0.0049-0.1807,0.0073-0.2949,0.0073-0.3447c0-0.5361-0.1245-0.915-0.3735-1.1348c-0.3369-0.2979-0.8374-0.4473-1.5015-0.4473
				c-0.6201,0-1.0781,0.1094-1.373,0.3262c-0.2959,0.2178-0.5142,0.6025-0.6558,1.1543l-1.2891-0.1758
				c0.1172-0.5518,0.3101-0.998,0.5786-1.3369c0.2686-0.3398,0.6567-0.6006,1.1646-0.7842
				c0.5078-0.1826,1.0962-0.2744,1.7651-0.2744c0.6641,0,1.2036,0.0781,1.6187,0.2344s0.7202,0.3525,0.9155,0.5898
				c0.1953,0.2363,0.332,0.5361,0.4102,0.8975c0.0439,0.2246,0.0659,0.6289,0.0659,1.2148v1.7578
				c0,1.2266,0.0278,2.001,0.0845,2.3262c0.0557,0.3242,0.167,0.6357,0.333,0.9336h-1.377
				C53.9727,73.9658,53.8848,73.6455,53.8457,73.2803z M53.7358,70.335c-0.4785,0.1963-1.1963,0.3623-2.1533,0.498
				c-0.542,0.0791-0.9253,0.167-1.1499,0.2637c-0.2246,0.0986-0.3979,0.2412-0.52,0.4287c-0.1221,0.1885-0.1831,0.3975-0.1831,0.626
				c0,0.3516,0.1328,0.6445,0.3994,0.8789c0.2656,0.2344,0.6553,0.3516,1.168,0.3516c0.5078,0,0.9595-0.1104,1.355-0.333
				c0.3955-0.2217,0.686-0.5254,0.8716-0.9111c0.1416-0.2979,0.2124-0.7373,0.2124-1.3184V70.335z"/>
			<path fill="#603813" d="M62.1587,74.2393v-0.9814c-0.4932,0.7715-1.2183,1.1572-2.1753,1.1572
				c-0.6201,0-1.1899-0.1709-1.7104-0.5127c-0.5195-0.3418-0.9229-0.8193-1.208-1.4316c-0.2861-0.6133-0.4287-1.3174-0.4287-2.1133
				c0-0.7764,0.1294-1.4805,0.3882-2.1133c0.2588-0.6318,0.647-1.1162,1.1646-1.4541c0.5176-0.3359,1.0962-0.5049,1.7358-0.5049
				c0.4688,0,0.8862,0.0986,1.2524,0.2969c0.3662,0.1973,0.6641,0.4551,0.8936,0.7725V63.502h1.311v10.7373H62.1587z
				 M57.9912,70.3574c0,0.9961,0.21,1.7412,0.6299,2.2334c0.4199,0.4941,0.9155,0.7402,1.4868,0.7402
				c0.5762,0,1.0654-0.2354,1.4688-0.707c0.4023-0.4707,0.604-1.1895,0.604-2.1563c0-1.0645-0.2051-1.8457-0.6152-2.3438
				s-0.9155-0.748-1.5161-0.748c-0.5859,0-1.0757,0.2402-1.4688,0.7188S57.9912,69.3271,57.9912,70.3574z"/>
			<path fill="#603813" d="M64.9639,70.3506c0-1.4404,0.4004-2.5078,1.2012-3.2012c0.6689-0.5762,1.4844-0.8643,2.4463-0.8643
				c1.0693,0,1.9434,0.3506,2.6221,1.0508c0.6787,0.7012,1.0181,1.6689,1.0181,2.9043c0,1.001-0.1499,1.7881-0.4507,2.3623
				c-0.2998,0.5732-0.7373,1.0195-1.3105,1.3359c-0.5742,0.3174-1.2002,0.4766-1.8789,0.4766c-1.0889,0-1.9692-0.3486-2.6406-1.0469
				S64.9639,71.6641,64.9639,70.3506z M66.3188,70.3506c0,0.9961,0.2173,1.7412,0.6519,2.2373
				c0.4346,0.4951,0.9814,0.7432,1.6406,0.7432c0.6543,0,1.1987-0.249,1.6333-0.7471s0.6519-1.2568,0.6519-2.2783
				c0-0.9609-0.2188-1.6904-0.6553-2.1855c-0.4375-0.4961-0.9805-0.7441-1.6299-0.7441c-0.6592,0-1.2061,0.2471-1.6406,0.7402
				S66.3188,69.3545,66.3188,70.3506z"/>
			<path fill="#603813" d="M73.2695,71.917l1.3037-0.2051c0.0732,0.5234,0.2769,0.9238,0.6118,1.2012
				c0.334,0.2793,0.8018,0.418,1.4023,0.418c0.6055,0,1.0547-0.123,1.3477-0.3701c0.293-0.2461,0.4395-0.5352,0.4395-0.8682
				c0-0.2969-0.1294-0.5313-0.3882-0.7031c-0.1807-0.1172-0.6299-0.2656-1.3477-0.4463c-0.9668-0.2441-1.6372-0.4551-2.0103-0.6338
				c-0.374-0.1777-0.6572-0.4248-0.8496-0.7393c-0.1934-0.3154-0.2896-0.6631-0.2896-1.0439c0-0.3467,0.0791-0.668,0.2378-0.9629
				c0.1587-0.2959,0.375-0.541,0.6484-0.7363c0.2051-0.1514,0.4844-0.2793,0.8389-0.3848c0.3535-0.1045,0.7334-0.1572,1.1387-0.1572
				c0.6104,0,1.1465,0.0879,1.6074,0.2637c0.4619,0.1758,0.8022,0.4141,1.022,0.7139c0.2197,0.3008,0.3711,0.7021,0.4541,1.2051
				l-1.2891,0.1758c-0.0586-0.4004-0.2285-0.7129-0.5093-0.9375s-0.6772-0.3369-1.1899-0.3369
				c-0.6055,0-1.0376,0.1006-1.2964,0.2998c-0.2588,0.2012-0.3882,0.4355-0.3882,0.7031c0,0.1719,0.0537,0.3252,0.1611,0.4619
				c0.1074,0.1416,0.2759,0.2588,0.5054,0.3516c0.1318,0.0488,0.52,0.1611,1.1646,0.3369c0.9326,0.249,1.583,0.4531,1.9517,0.6113
				c0.3687,0.1592,0.6582,0.3896,0.8682,0.6924s0.3149,0.6787,0.3149,1.1279c0,0.4395-0.1284,0.8535-0.3843,1.2412
				c-0.2568,0.3887-0.6265,0.6885-1.1099,0.9014c-0.4834,0.2119-1.0303,0.3184-1.6406,0.3184c-1.0107,0-1.7813-0.21-2.311-0.6299
				S73.416,72.7432,73.2695,71.917z"/>
			<path fill="#603813" d="M94.0718,77.2197V66.4609h1.2012v1.0107c0.2832-0.3955,0.603-0.6924,0.9595-0.8896
				c0.3564-0.1982,0.7886-0.2969,1.2964-0.2969c0.6641,0,1.25,0.1709,1.7578,0.5127s0.8911,0.8242,1.1499,1.4463
				c0.2588,0.623,0.3882,1.3057,0.3882,2.0479c0,0.7959-0.1431,1.5117-0.4282,2.1494c-0.2861,0.6367-0.7012,1.125-1.2451,1.4648
				c-0.5449,0.3389-1.1172,0.5088-1.7178,0.5088c-0.4395,0-0.834-0.0928-1.1826-0.2783c-0.3496-0.1855-0.6362-0.4199-0.8608-0.7031
				v3.7861H94.0718z M95.2656,70.3936c0,1.002,0.2026,1.7412,0.6079,2.2197s0.896,0.7178,1.4722,0.7178
				c0.5859,0,1.0879-0.248,1.5049-0.7432c0.418-0.4961,0.6265-1.2637,0.6265-2.3037c0-0.9912-0.2041-1.7334-0.6118-2.2266
				s-0.8945-0.7402-1.4609-0.7402c-0.5615,0-1.0586,0.2627-1.4902,0.7881C95.4814,68.6299,95.2656,69.3936,95.2656,70.3936z"/>
			<path fill="#603813" d="M107.4893,73.2803c-0.4883,0.415-0.9585,0.708-1.4102,0.8789c-0.4517,0.1699-0.936,0.2559-1.4536,0.2559
				c-0.8545,0-1.5112-0.209-1.9702-0.626c-0.459-0.418-0.6885-0.9512-0.6885-1.6006c0-0.3809,0.0864-0.7285,0.2598-1.0439
				c0.1733-0.3145,0.4004-0.5674,0.6816-0.7578c0.2803-0.1904,0.5967-0.334,0.9482-0.4326
				c0.2588-0.0674,0.6494-0.1338,1.1719-0.1973c1.0645-0.127,1.8481-0.2783,2.3511-0.4541
				c0.0049-0.1807,0.0073-0.2949,0.0073-0.3447c0-0.5361-0.1245-0.915-0.3735-1.1348c-0.3369-0.2979-0.8374-0.4473-1.5015-0.4473
				c-0.6201,0-1.0781,0.1094-1.373,0.3262c-0.2959,0.2178-0.5142,0.6025-0.6558,1.1543l-1.2891-0.1758
				c0.1172-0.5518,0.3101-0.998,0.5786-1.3369c0.2686-0.3398,0.6567-0.6006,1.1646-0.7842
				c0.5078-0.1826,1.0962-0.2744,1.7651-0.2744c0.6641,0,1.2036,0.0781,1.6187,0.2344s0.7202,0.3525,0.9155,0.5898
				c0.1953,0.2363,0.332,0.5361,0.4102,0.8975c0.0439,0.2246,0.0659,0.6289,0.0659,1.2148v1.7578
				c0,1.2266,0.0278,2.001,0.0845,2.3262c0.0557,0.3242,0.167,0.6357,0.333,0.9336h-1.377
				C107.6162,73.9658,107.5283,73.6455,107.4893,73.2803z M107.3794,70.335c-0.4785,0.1963-1.1963,0.3623-2.1533,0.498
				c-0.542,0.0791-0.9253,0.167-1.1499,0.2637c-0.2246,0.0986-0.3979,0.2412-0.52,0.4287c-0.1221,0.1885-0.1831,0.3975-0.1831,0.626
				c0,0.3516,0.1328,0.6445,0.3994,0.8789c0.2656,0.2344,0.6553,0.3516,1.168,0.3516c0.5078,0,0.9595-0.1104,1.355-0.333
				c0.3955-0.2217,0.686-0.5254,0.8716-0.9111c0.1416-0.2979,0.2124-0.7373,0.2124-1.3184V70.335z"/>
			<path fill="#603813" d="M110.7417,74.2393v-7.7783h1.1865v1.1787c0.3027-0.5508,0.5825-0.915,0.8384-1.0908
				c0.2568-0.1758,0.5381-0.2637,0.8467-0.2637c0.4434,0,0.8955,0.1416,1.3545,0.4248l-0.4541,1.2227
				c-0.3223-0.1895-0.6445-0.2852-0.9668-0.2852c-0.2881,0-0.5469,0.0869-0.7764,0.2598c-0.2295,0.1738-0.3931,0.4141-0.4907,0.7217
				c-0.1465,0.4688-0.2197,0.9814-0.2197,1.5381v4.0723H110.7417z"/>
			<path fill="#603813" d="M120.8271,73.2803c-0.4883,0.415-0.958,0.708-1.4102,0.8789c-0.4521,0.1699-0.9365,0.2559-1.4541,0.2559
				c-0.8535,0-1.5107-0.209-1.9697-0.626c-0.459-0.418-0.6885-0.9512-0.6885-1.6006c0-0.3809,0.0859-0.7285,0.2598-1.0439
				c0.1738-0.3145,0.4004-0.5674,0.6816-0.7578c0.2803-0.1904,0.5967-0.334,0.9482-0.4326
				c0.2588-0.0674,0.6494-0.1338,1.1719-0.1973c1.0645-0.127,1.8486-0.2783,2.3506-0.4541
				c0.0059-0.1807,0.0078-0.2949,0.0078-0.3447c0-0.5361-0.125-0.915-0.373-1.1348c-0.3379-0.2979-0.8379-0.4473-1.502-0.4473
				c-0.6201,0-1.0781,0.1094-1.373,0.3262c-0.2959,0.2178-0.5137,0.6025-0.6563,1.1543l-1.2891-0.1758
				c0.1172-0.5518,0.3105-0.998,0.5791-1.3369c0.2686-0.3398,0.6572-0.6006,1.165-0.7842c0.5078-0.1826,1.0957-0.2744,1.7646-0.2744
				c0.6641,0,1.2041,0.0781,1.6182,0.2344c0.416,0.1563,0.7207,0.3525,0.916,0.5898c0.1953,0.2363,0.332,0.5361,0.4102,0.8975
				c0.0439,0.2246,0.0664,0.6289,0.0664,1.2148v1.7578c0,1.2266,0.0273,2.001,0.084,2.3262c0.0557,0.3242,0.167,0.6357,0.333,0.9336
				h-1.377C120.9541,73.9658,120.8662,73.6455,120.8271,73.2803z M120.7168,70.335c-0.4785,0.1963-1.1953,0.3623-2.1523,0.498
				c-0.543,0.0791-0.9258,0.167-1.1504,0.2637c-0.2246,0.0986-0.3984,0.2412-0.5195,0.4287
				c-0.123,0.1885-0.1836,0.3975-0.1836,0.626c0,0.3516,0.1328,0.6445,0.3994,0.8789c0.2656,0.2344,0.6553,0.3516,1.168,0.3516
				c0.5078,0,0.96-0.1104,1.3545-0.333c0.3965-0.2217,0.6865-0.5254,0.8721-0.9111c0.1416-0.2979,0.2119-0.7373,0.2119-1.3184
				V70.335z"/>
			<path fill="#603813" d="M136.8682,77.2197V66.4609h1.2012v1.0107c0.2832-0.3955,0.6025-0.6924,0.96-0.8896
				c0.3555-0.1982,0.7881-0.2969,1.2959-0.2969c0.6641,0,1.25,0.1709,1.7578,0.5127s0.8916,0.8242,1.1494,1.4463
				c0.2598,0.623,0.3887,1.3057,0.3887,2.0479c0,0.7959-0.1426,1.5117-0.4277,2.1494c-0.2871,0.6367-0.7012,1.125-1.2461,1.4648
				c-0.5449,0.3389-1.1172,0.5088-1.7168,0.5088c-0.4395,0-0.834-0.0928-1.1836-0.2783s-0.6357-0.4199-0.8604-0.7031v3.7861
				H136.8682z M138.0625,70.3936c0,1.002,0.2021,1.7412,0.6074,2.2197s0.8965,0.7178,1.4727,0.7178
				c0.5859,0,1.0879-0.248,1.5039-0.7432c0.418-0.4961,0.627-1.2637,0.627-2.3037c0-0.9912-0.2041-1.7334-0.6113-2.2266
				c-0.4082-0.4932-0.8945-0.7402-1.4609-0.7402c-0.5625,0-1.0586,0.2627-1.4902,0.7881
				C138.2773,68.6299,138.0625,69.3936,138.0625,70.3936z"/>
			<path fill="#603813" d="M145.1953,74.2393v-7.7783h1.1875v1.1787c0.3027-0.5508,0.582-0.915,0.8379-1.0908
				c0.2568-0.1758,0.5391-0.2637,0.8457-0.2637c0.4453,0,0.8965,0.1416,1.3555,0.4248l-0.4541,1.2227
				c-0.3223-0.1895-0.6445-0.2852-0.9668-0.2852c-0.2881,0-0.5469,0.0869-0.7764,0.2598c-0.2295,0.1738-0.3926,0.4141-0.4902,0.7217
				c-0.1465,0.4688-0.2207,0.9814-0.2207,1.5381v4.0723H145.1953z"/>
			<path fill="#603813" d="M149.7148,70.3506c0-1.4404,0.4004-2.5078,1.2012-3.2012c0.6689-0.5762,1.4844-0.8643,2.4463-0.8643
				c1.0693,0,1.9434,0.3506,2.6221,1.0508c0.6787,0.7012,1.0176,1.6689,1.0176,2.9043c0,1.001-0.1494,1.7881-0.4502,2.3623
				c-0.2998,0.5732-0.7373,1.0195-1.3105,1.3359c-0.5742,0.3174-1.2002,0.4766-1.8789,0.4766c-1.0889,0-1.9697-0.3486-2.6406-1.0469
				S149.7148,71.6641,149.7148,70.3506z M151.0703,70.3506c0,0.9961,0.2168,1.7412,0.6514,2.2373
				c0.4346,0.4951,0.9814,0.7432,1.6406,0.7432c0.6543,0,1.1982-0.249,1.6338-0.7471c0.4336-0.498,0.6514-1.2568,0.6514-2.2783
				c0-0.9609-0.2188-1.6904-0.6553-2.1855c-0.4375-0.4961-0.9805-0.7441-1.6299-0.7441c-0.6592,0-1.2061,0.2471-1.6406,0.7402
				S151.0703,69.3545,151.0703,70.3506z"/>
			<path fill="#603813" d="M158.5479,77.2197V66.4609h1.2012v1.0107c0.2832-0.3955,0.6025-0.6924,0.96-0.8896
				c0.3555-0.1982,0.7881-0.2969,1.2959-0.2969c0.6641,0,1.25,0.1709,1.7578,0.5127s0.8916,0.8242,1.1494,1.4463
				c0.2598,0.623,0.3887,1.3057,0.3887,2.0479c0,0.7959-0.1426,1.5117-0.4277,2.1494c-0.2871,0.6367-0.7012,1.125-1.2461,1.4648
				c-0.5449,0.3389-1.1172,0.5088-1.7168,0.5088c-0.4395,0-0.834-0.0928-1.1836-0.2783s-0.6357-0.4199-0.8604-0.7031v3.7861
				H158.5479z M159.7422,70.3936c0,1.002,0.2021,1.7412,0.6074,2.2197s0.8965,0.7178,1.4727,0.7178
				c0.5859,0,1.0879-0.248,1.5039-0.7432c0.418-0.4961,0.627-1.2637,0.627-2.3037c0-0.9912-0.2041-1.7334-0.6113-2.2266
				c-0.4082-0.4932-0.8945-0.7402-1.4609-0.7402c-0.5625,0-1.0586,0.2627-1.4902,0.7881
				C159.957,68.6299,159.7422,69.3936,159.7422,70.3936z"/>
			<path fill="#603813" d="M166.3994,70.3506c0-1.4404,0.4004-2.5078,1.2012-3.2012c0.6689-0.5762,1.4844-0.8643,2.4463-0.8643
				c1.0693,0,1.9434,0.3506,2.6221,1.0508c0.6787,0.7012,1.0186,1.6689,1.0186,2.9043c0,1.001-0.1504,1.7881-0.4512,2.3623
				c-0.2998,0.5732-0.7373,1.0195-1.3105,1.3359c-0.5742,0.3174-1.2002,0.4766-1.8789,0.4766c-1.0889,0-1.9688-0.3486-2.6406-1.0469
				S166.3994,71.6641,166.3994,70.3506z M167.7539,70.3506c0,0.9961,0.2178,1.7412,0.6523,2.2373
				c0.4346,0.4951,0.9814,0.7432,1.6406,0.7432c0.6543,0,1.1992-0.249,1.6328-0.7471c0.4355-0.498,0.6523-1.2568,0.6523-2.2783
				c0-0.9609-0.2188-1.6904-0.6553-2.1855c-0.4375-0.4961-0.9805-0.7441-1.6299-0.7441c-0.6592,0-1.2061,0.2471-1.6406,0.7402
				S167.7539,69.3545,167.7539,70.3506z"/>
			<path fill="#603813" d="M175.2178,74.2393v-7.7783h1.1865v1.1787c0.3027-0.5508,0.582-0.915,0.8379-1.0908
				c0.2578-0.1758,0.5391-0.2637,0.8467-0.2637c0.4443,0,0.8955,0.1416,1.3545,0.4248l-0.4531,1.2227
				c-0.3223-0.1895-0.6445-0.2852-0.9668-0.2852c-0.2891,0-0.5469,0.0869-0.7773,0.2598c-0.2285,0.1738-0.3926,0.4141-0.4902,0.7217
				c-0.1465,0.4688-0.2197,0.9814-0.2197,1.5381v4.0723H175.2178z"/>
			<path fill="#603813" d="M185.3027,71.3896l1.2969,0.1689c-0.1416,0.8936-0.5039,1.5928-1.0879,2.0986
				c-0.584,0.5049-1.2998,0.7578-2.1494,0.7578c-1.0645,0-1.9209-0.3477-2.5674-1.0439c-0.6465-0.6953-0.9707-1.6924-0.9707-2.9912
				c0-0.8398,0.1396-1.5752,0.418-2.2051s0.7012-1.1025,1.2715-1.417c0.5684-0.3154,1.1875-0.4727,1.8555-0.4727
				c0.8457,0,1.5361,0.2139,2.0732,0.6406c0.5371,0.4277,0.8818,1.0342,1.0322,1.8203l-1.2813,0.1982
				c-0.1221-0.5225-0.3379-0.916-0.6484-1.1797s-0.6846-0.3955-1.124-0.3955c-0.6641,0-1.2041,0.2383-1.6182,0.7139
				c-0.416,0.4766-0.623,1.2295-0.623,2.2598c0,1.0449,0.2002,1.8047,0.6006,2.2773c0.4004,0.4746,0.9229,0.7109,1.5674,0.7109
				c0.5176,0,0.9492-0.1582,1.2969-0.4766C184.9902,72.5381,185.2109,72.0498,185.3027,71.3896z"/>
			<path fill="#603813" d="M187.7344,65.0186V63.502h1.3184v1.5166H187.7344z M187.7344,74.2393v-7.7783h1.3184v7.7783H187.7344z"/>
			<path fill="#603813" d="M190.5693,70.3506c0-1.4404,0.4004-2.5078,1.2012-3.2012c0.6689-0.5762,1.4844-0.8643,2.4463-0.8643
				c1.0693,0,1.9434,0.3506,2.6221,1.0508c0.6787,0.7012,1.0186,1.6689,1.0186,2.9043c0,1.001-0.1504,1.7881-0.4512,2.3623
				c-0.2998,0.5732-0.7373,1.0195-1.3105,1.3359c-0.5742,0.3174-1.2002,0.4766-1.8789,0.4766c-1.0889,0-1.9688-0.3486-2.6406-1.0469
				S190.5693,71.6641,190.5693,70.3506z M191.9238,70.3506c0,0.9961,0.2178,1.7412,0.6523,2.2373
				c0.4346,0.4951,0.9814,0.7432,1.6406,0.7432c0.6543,0,1.1992-0.249,1.6328-0.7471c0.4355-0.498,0.6523-1.2568,0.6523-2.2783
				c0-0.9609-0.2188-1.6904-0.6553-2.1855c-0.4375-0.4961-0.9805-0.7441-1.6299-0.7441c-0.6592,0-1.2061,0.2471-1.6406,0.7402
				S191.9238,69.3545,191.9238,70.3506z"/>
			<path fill="#603813" d="M199.4023,74.2393v-7.7783h1.1865v1.1064c0.5713-0.8545,1.3965-1.2822,2.4756-1.2822
				c0.4688,0,0.8994,0.084,1.293,0.2529c0.3926,0.168,0.6875,0.3896,0.8828,0.6621c0.1953,0.2744,0.332,0.5986,0.4102,0.9746
				c0.0488,0.2441,0.0723,0.6719,0.0723,1.2813v4.7832h-1.3184v-4.7314c0-0.5371-0.0508-0.9385-0.1533-1.2051
				c-0.1025-0.2656-0.2842-0.4785-0.5459-0.6367c-0.2617-0.1592-0.5674-0.2383-0.9189-0.2383c-0.5615,0-1.0459,0.1787-1.4541,0.5342
				c-0.4082,0.3574-0.6113,1.0332-0.6113,2.0293v4.248H199.4023z"/>
			<path fill="#603813" d="M212.8203,73.2803c-0.4883,0.415-0.959,0.708-1.4102,0.8789c-0.4512,0.1699-0.9355,0.2559-1.4531,0.2559
				c-0.8555,0-1.5117-0.209-1.9707-0.626c-0.459-0.418-0.6885-0.9512-0.6885-1.6006c0-0.3809,0.0869-0.7285,0.2598-1.0439
				c0.1729-0.3145,0.4004-0.5674,0.6816-0.7578c0.2803-0.1904,0.5967-0.334,0.9482-0.4326
				c0.2588-0.0674,0.6494-0.1338,1.1719-0.1973c1.0645-0.127,1.8477-0.2783,2.3516-0.4541
				c0.0039-0.1807,0.0068-0.2949,0.0068-0.3447c0-0.5361-0.124-0.915-0.374-1.1348c-0.3359-0.2979-0.8369-0.4473-1.501-0.4473
				c-0.6201,0-1.0781,0.1094-1.373,0.3262c-0.2959,0.2178-0.5146,0.6025-0.6553,1.1543l-1.2891-0.1758
				c0.1172-0.5518,0.3096-0.998,0.5781-1.3369c0.2686-0.3398,0.6563-0.6006,1.1641-0.7842
				c0.5078-0.1826,1.0967-0.2744,1.7656-0.2744c0.6641,0,1.2031,0.0781,1.6191,0.2344c0.4141,0.1563,0.7197,0.3525,0.915,0.5898
				c0.1953,0.2363,0.332,0.5361,0.4102,0.8975c0.0439,0.2246,0.0654,0.6289,0.0654,1.2148v1.7578
				c0,1.2266,0.0283,2.001,0.085,2.3262c0.0557,0.3242,0.167,0.6357,0.333,0.9336h-1.377
				C212.9473,73.9658,212.8594,73.6455,212.8203,73.2803z M212.7109,70.335c-0.4785,0.1963-1.1973,0.3623-2.1543,0.498
				c-0.541,0.0791-0.9248,0.167-1.1494,0.2637c-0.2246,0.0986-0.3975,0.2412-0.5205,0.4287
				c-0.1211,0.1885-0.1826,0.3975-0.1826,0.626c0,0.3516,0.1328,0.6445,0.3994,0.8789c0.2656,0.2344,0.6553,0.3516,1.168,0.3516
				c0.5078,0,0.959-0.1104,1.3555-0.333c0.3945-0.2217,0.6855-0.5254,0.8711-0.9111c0.1416-0.2979,0.2129-0.7373,0.2129-1.3184
				V70.335z"/>
			<path fill="#603813" d="M216.0723,74.2393v-7.7783h1.1865v1.1787c0.3027-0.5508,0.583-0.915,0.8389-1.0908
				s0.5381-0.2637,0.8457-0.2637c0.4443,0,0.8965,0.1416,1.3555,0.4248l-0.4551,1.2227c-0.3223-0.1895-0.6445-0.2852-0.9668-0.2852
				c-0.2871,0-0.5469,0.0869-0.7754,0.2598c-0.2305,0.1738-0.3936,0.4141-0.4912,0.7217c-0.1465,0.4688-0.2197,0.9814-0.2197,1.5381
				v4.0723H216.0723z"/>
			<path fill="#603813" d="M18.7334,92.2393V81.502h1.3184v10.7373H18.7334z"/>
			<path fill="#603813" d="M21.6045,88.3506c0-1.4404,0.4004-2.5078,1.2012-3.2012c0.6689-0.5762,1.4844-0.8643,2.4463-0.8643
				c1.0693,0,1.9434,0.3506,2.6221,1.0508c0.6787,0.7012,1.0181,1.6689,1.0181,2.9043c0,1.001-0.1499,1.7881-0.4507,2.3623
				c-0.2998,0.5732-0.7373,1.0195-1.3105,1.3359c-0.5742,0.3174-1.2002,0.4766-1.8789,0.4766c-1.0889,0-1.9692-0.3486-2.6406-1.0469
				S21.6045,89.6641,21.6045,88.3506z M22.9595,88.3506c0,0.9961,0.2173,1.7412,0.6519,2.2373
				c0.4346,0.4951,0.9814,0.7432,1.6406,0.7432c0.6543,0,1.1987-0.249,1.6333-0.7471s0.6519-1.2568,0.6519-2.2783
				c0-0.9609-0.2188-1.6904-0.6553-2.1855c-0.4375-0.4961-0.9805-0.7441-1.6299-0.7441c-0.6592,0-1.2061,0.2471-1.6406,0.7402
				S22.9595,87.3545,22.9595,88.3506z"/>
			<path fill="#603813" d="M29.9102,89.917l1.3037-0.2051c0.0732,0.5234,0.2769,0.9238,0.6118,1.2012
				c0.334,0.2793,0.8018,0.418,1.4023,0.418c0.6055,0,1.0547-0.123,1.3477-0.3701c0.293-0.2461,0.4395-0.5352,0.4395-0.8682
				c0-0.2969-0.1294-0.5313-0.3882-0.7031c-0.1807-0.1172-0.6299-0.2656-1.3477-0.4463c-0.9668-0.2441-1.6372-0.4551-2.0103-0.6338
				c-0.374-0.1777-0.6572-0.4248-0.8496-0.7393c-0.1934-0.3154-0.2896-0.6631-0.2896-1.0439c0-0.3467,0.0791-0.668,0.2378-0.9629
				c0.1587-0.2959,0.375-0.541,0.6484-0.7363c0.2051-0.1514,0.4844-0.2793,0.8389-0.3848c0.3535-0.1045,0.7334-0.1572,1.1387-0.1572
				c0.6104,0,1.1465,0.0879,1.6074,0.2637c0.4619,0.1758,0.8022,0.4141,1.022,0.7139c0.2197,0.3008,0.3711,0.7021,0.4541,1.2051
				l-1.2891,0.1758c-0.0586-0.4004-0.2285-0.7129-0.5093-0.9375s-0.6772-0.3369-1.1899-0.3369
				c-0.6055,0-1.0376,0.1006-1.2964,0.2998c-0.2588,0.2012-0.3882,0.4355-0.3882,0.7031c0,0.1719,0.0537,0.3252,0.1611,0.4619
				c0.1074,0.1416,0.2759,0.2588,0.5054,0.3516c0.1318,0.0488,0.52,0.1611,1.1646,0.3369c0.9326,0.249,1.583,0.4531,1.9517,0.6113
				c0.3687,0.1592,0.6582,0.3896,0.8682,0.6924s0.3149,0.6787,0.3149,1.1279c0,0.4395-0.1284,0.8535-0.3843,1.2412
				c-0.2568,0.3887-0.6265,0.6885-1.1099,0.9014c-0.4834,0.2119-1.0303,0.3184-1.6406,0.3184c-1.0107,0-1.7813-0.21-2.311-0.6299
				S30.0566,90.7432,29.9102,89.917z"/>
			<path fill="#603813" d="M41.5776,89.917l1.3037-0.2051c0.0732,0.5234,0.2769,0.9238,0.6118,1.2012
				c0.334,0.2793,0.8018,0.418,1.4023,0.418c0.6055,0,1.0547-0.123,1.3477-0.3701c0.293-0.2461,0.4395-0.5352,0.4395-0.8682
				c0-0.2969-0.1294-0.5313-0.3882-0.7031c-0.1807-0.1172-0.6299-0.2656-1.3477-0.4463c-0.9668-0.2441-1.6372-0.4551-2.0103-0.6338
				c-0.374-0.1777-0.6572-0.4248-0.8496-0.7393c-0.1934-0.3154-0.2896-0.6631-0.2896-1.0439c0-0.3467,0.0791-0.668,0.2378-0.9629
				c0.1587-0.2959,0.375-0.541,0.6484-0.7363c0.2051-0.1514,0.4844-0.2793,0.8389-0.3848c0.3535-0.1045,0.7334-0.1572,1.1387-0.1572
				c0.6104,0,1.1465,0.0879,1.6074,0.2637c0.4619,0.1758,0.8022,0.4141,1.022,0.7139c0.2197,0.3008,0.3711,0.7021,0.4541,1.2051
				l-1.2891,0.1758c-0.0586-0.4004-0.2285-0.7129-0.5093-0.9375s-0.6772-0.3369-1.1899-0.3369
				c-0.6055,0-1.0376,0.1006-1.2964,0.2998c-0.2588,0.2012-0.3882,0.4355-0.3882,0.7031c0,0.1719,0.0537,0.3252,0.1611,0.4619
				c0.1074,0.1416,0.2759,0.2588,0.5054,0.3516c0.1318,0.0488,0.52,0.1611,1.1646,0.3369c0.9326,0.249,1.583,0.4531,1.9517,0.6113
				c0.3687,0.1592,0.6582,0.3896,0.8682,0.6924s0.3149,0.6787,0.3149,1.1279c0,0.4395-0.1284,0.8535-0.3843,1.2412
				c-0.2568,0.3887-0.6265,0.6885-1.1099,0.9014c-0.4834,0.2119-1.0303,0.3184-1.6406,0.3184c-1.0107,0-1.7813-0.21-2.311-0.6299
				S41.7241,90.7432,41.5776,89.917z"/>
			<path fill="#603813" d="M54.9297,89.7344l1.3623,0.1689c-0.2148,0.7959-0.6128,1.4131-1.1938,1.8525
				s-1.3232,0.6592-2.2266,0.6592c-1.1377,0-2.0396-0.3506-2.7065-1.0508c-0.666-0.7012-0.9995-1.6836-0.9995-2.9482
				c0-1.3086,0.3369-2.3242,1.0107-3.0469s1.5479-1.084,2.6221-1.084c1.04,0,1.8896,0.3545,2.5488,1.0615
				c0.6592,0.709,0.9888,1.7051,0.9888,2.9883c0,0.0791-0.0024,0.1963-0.0073,0.3516h-5.8008
				c0.0488,0.8555,0.2905,1.5098,0.7251,1.9629c0.4346,0.4551,0.9766,0.6816,1.626,0.6816c0.4834,0,0.896-0.127,1.2378-0.3809
				S54.7295,90.291,54.9297,89.7344z M50.6011,87.6025h4.3433c-0.0586-0.6533-0.2246-1.1445-0.498-1.4717
				c-0.4199-0.5078-0.9644-0.7617-1.6333-0.7617c-0.6055,0-1.1147,0.2031-1.5269,0.6084
				C50.873,86.3828,50.645,86.9248,50.6011,87.6025z"/>
			<path fill="#603813" d="M57.9326,92.2393v-7.7783h1.1865v1.1787c0.3027-0.5508,0.5825-0.915,0.8384-1.0908
				c0.2568-0.1758,0.5386-0.2637,0.8462-0.2637c0.4443,0,0.896,0.1416,1.355,0.4248l-0.4541,1.2227
				c-0.3223-0.1895-0.6445-0.2852-0.9668-0.2852c-0.2881,0-0.5469,0.0869-0.7764,0.2598c-0.2295,0.1738-0.3931,0.4141-0.4907,0.7217
				c-0.1465,0.4688-0.2197,0.9814-0.2197,1.5381v4.0723H57.9326z"/>
			<path fill="#603813" d="M65.103,92.2393l-2.959-7.7783h1.3916l1.6699,4.6582c0.1807,0.5029,0.3467,1.0254,0.498,1.5674
				c0.1172-0.4102,0.2808-0.9033,0.4907-1.4795l1.7285-4.7461h1.355l-2.9443,7.7783H65.103z"/>
			<path fill="#603813" d="M70.4497,83.0186V81.502h1.3184v1.5166H70.4497z M70.4497,92.2393v-7.7783h1.3184v7.7783H70.4497z"/>
			<path fill="#603813" d="M78.8506,89.3896l1.2964,0.1689c-0.1416,0.8936-0.5044,1.5928-1.0874,2.0986
				c-0.584,0.5049-1.3003,0.7578-2.1499,0.7578c-1.0645,0-1.9204-0.3477-2.5669-1.0439c-0.6475-0.6953-0.9707-1.6924-0.9707-2.9912
				c0-0.8398,0.1392-1.5752,0.4175-2.2051s0.7017-1.1025,1.271-1.417c0.5684-0.3154,1.1875-0.4727,1.8564-0.4727
				c0.8447,0,1.5356,0.2139,2.0728,0.6406c0.5371,0.4277,0.8813,1.0342,1.0327,1.8203l-1.2817,0.1982
				c-0.1221-0.5225-0.3384-0.916-0.6479-1.1797c-0.3105-0.2637-0.6851-0.3955-1.1245-0.3955c-0.6641,0-1.2036,0.2383-1.6187,0.7139
				c-0.415,0.4766-0.6226,1.2295-0.6226,2.2598c0,1.0449,0.2002,1.8047,0.6006,2.2773c0.4004,0.4746,0.9229,0.7109,1.5674,0.7109
				c0.5176,0,0.9497-0.1582,1.2964-0.4766C78.5381,90.5381,78.7578,90.0498,78.8506,89.3896z"/>
			<path fill="#603813" d="M81.2822,83.0186V81.502h1.3184v1.5166H81.2822z M81.2822,92.2393v-7.7783h1.3184v7.7783H81.2822z"/>
			<path fill="#603813" d="M84.1167,88.3506c0-1.4404,0.4004-2.5078,1.2012-3.2012c0.6689-0.5762,1.4844-0.8643,2.4463-0.8643
				c1.0693,0,1.9434,0.3506,2.6221,1.0508c0.6787,0.7012,1.0181,1.6689,1.0181,2.9043c0,1.001-0.1499,1.7881-0.4507,2.3623
				c-0.2998,0.5732-0.7373,1.0195-1.3105,1.3359c-0.5742,0.3174-1.2002,0.4766-1.8789,0.4766c-1.0889,0-1.9692-0.3486-2.6406-1.0469
				S84.1167,89.6641,84.1167,88.3506z M85.4717,88.3506c0,0.9961,0.2173,1.7412,0.6519,2.2373
				c0.4346,0.4951,0.9814,0.7432,1.6406,0.7432c0.6543,0,1.1987-0.249,1.6333-0.7471s0.6519-1.2568,0.6519-2.2783
				c0-0.9609-0.2188-1.6904-0.6553-2.1855c-0.4375-0.4961-0.9805-0.7441-1.6299-0.7441c-0.6592,0-1.2061,0.2471-1.6406,0.7402
				S85.4717,87.3545,85.4717,88.3506z"/>
			<path fill="#603813" d="M92.4224,89.917l1.3037-0.2051c0.0732,0.5234,0.2769,0.9238,0.6118,1.2012
				c0.334,0.2793,0.8018,0.418,1.4023,0.418c0.6055,0,1.0547-0.123,1.3477-0.3701c0.293-0.2461,0.4395-0.5352,0.4395-0.8682
				c0-0.2969-0.1294-0.5313-0.3882-0.7031c-0.1807-0.1172-0.6299-0.2656-1.3477-0.4463c-0.9668-0.2441-1.6372-0.4551-2.0103-0.6338
				c-0.374-0.1777-0.6572-0.4248-0.8496-0.7393c-0.1934-0.3154-0.2896-0.6631-0.2896-1.0439c0-0.3467,0.0791-0.668,0.2378-0.9629
				c0.1587-0.2959,0.375-0.541,0.6484-0.7363c0.2051-0.1514,0.4844-0.2793,0.8389-0.3848c0.3535-0.1045,0.7334-0.1572,1.1387-0.1572
				c0.6104,0,1.1465,0.0879,1.6074,0.2637c0.4619,0.1758,0.8022,0.4141,1.022,0.7139c0.2197,0.3008,0.3711,0.7021,0.4541,1.2051
				l-1.2891,0.1758c-0.0586-0.4004-0.2285-0.7129-0.5093-0.9375s-0.6772-0.3369-1.1899-0.3369
				c-0.6055,0-1.0376,0.1006-1.2964,0.2998c-0.2588,0.2012-0.3882,0.4355-0.3882,0.7031c0,0.1719,0.0537,0.3252,0.1611,0.4619
				c0.1074,0.1416,0.2759,0.2588,0.5054,0.3516c0.1318,0.0488,0.52,0.1611,1.1646,0.3369c0.9326,0.249,1.583,0.4531,1.9517,0.6113
				c0.3687,0.1592,0.6582,0.3896,0.8682,0.6924s0.3149,0.6787,0.3149,1.1279c0,0.4395-0.1284,0.8535-0.3843,1.2412
				c-0.2568,0.3887-0.6265,0.6885-1.1099,0.9014c-0.4834,0.2119-1.0303,0.3184-1.6406,0.3184c-1.0107,0-1.7813-0.21-2.311-0.6299
				S92.5688,90.7432,92.4224,89.917z"/>
			<path fill="#603813" d="M100.8232,92.2393v-1.502h1.5015v1.502H100.8232z"/>
		</g>
	</g>
</g>
<g>
</g>
<g>
</g>
<g>
</g>
<g>
</g>
<g>
</g>
<g>
</g>
<g>
</g>
<g>
</g>
<g>
</g>
<g>
</g>
<g>
</g>
<g>
</g>
<g>
</g>
<g>
</g>
<g>
</g>
</svg>
