<?xml version="1.0" encoding="utf-8"?>
<!-- Generator: Adobe Illustrator 19.0.0, SVG Export Plug-In . SVG Version: 6.00 Build 0)  -->
<svg version="1.1" id="Capa_1" xmlns="http://www.w3.org/2000/svg" xmlns:xlink="http://www.w3.org/1999/xlink" x="0px" y="0px"
	 viewBox="0 0 207.0929 67.041" style="enable-background:new 0 0 207.0929 67.041;" xml:space="preserve">
<style type="text/css">
	.st0{fill:#0F0F0F;}
	.st1{fill:#3D3D3D;}
	.st2{fill:#C7C7C7;}
	.st3{fill:#E3C67D;}
	.st4{fill:#3B86B1;}
	.st5{fill:#75C6F0;}
	.st6{fill:#A3781F;}
	.st7{fill:#42210B;}
	.st8{fill:#FFFFFF;}
</style>
<g id="XMLID_84_">
	<g id="XMLID_626_">
		<ellipse id="XMLID_629_" class="st0" cx="12.9768" cy="8.465" rx="2.998" ry="2.7539"/>
		<ellipse id="XMLID_628_" class="st1" cx="12.5857" cy="7.9747" rx="1.9058" ry="1.751"/>
		<path id="XMLID_627_" class="st2" d="M11.0676,7.6183c0-0.5947,0.4693-1.0771,1.0479-1.0771
			C12.6936,6.5412,11.0676,8.2135,11.0676,7.6183z"/>
	</g>
	<g id="XMLID_87_">
		<path id="XMLID_77_" class="st3" d="M5,45H0l0.0215-34.5337C0.498,6.8462,3.5693,0,11.7788,0H201v5H11.7788
			C6.2808,5,5.1597,10.0518,5,10.9814V45z"/>
		<path id="XMLID_80_" class="st4" d="M197.7256,66H22.0762c-1.3809,0-2.5-1.1191-2.5-2.5s1.1191-2.5,2.5-2.5h175.6494
			c1.6309,0,2.376-0.8472,2.7939-1.3208c1.7354-1.9639,1.6616-6.2629,1.4985-7.5754C202.0054,52.0012,202,51.79,202,51.6865V24.3052
			c0-1.3809,1.1191-2.5,2.5-2.5s2.5,1.1191,2.5,2.5v27.2388c0,1.2754,0.6001,7.6743-2.731,11.4458
			C202.6548,64.8169,200.3906,66,197.7256,66z"/>
		<g id="XMLID_106_">
			<path id="XMLID_241_" class="st5" d="M203.5,31.5c-0.8281,0-1.5-0.6714-1.5-1.5v-6c0-0.8286,0.6719-1.5,1.5-1.5
				s1.5,0.6714,1.5,1.5v6C205,30.8286,204.3281,31.5,203.5,31.5z"/>
			<path id="XMLID_240_" class="st5" d="M195.1475,63h-12.1826c-0.8281,0-1.5-0.6719-1.5-1.5s0.6719-1.5,1.5-1.5h12.1826
				c0.8281,0,1.5,0.6719,1.5,1.5S195.9756,63,195.1475,63z M170.8174,63h-12.1416c-0.8281,0-1.5-0.6719-1.5-1.5s0.6719-1.5,1.5-1.5
				h12.1416c0.8281,0,1.5,0.6719,1.5,1.5S171.6455,63,170.8174,63z M146.5361,63h-12.1396c-0.8281,0-1.5-0.6719-1.5-1.5
				s0.6719-1.5,1.5-1.5h12.1396c0.8281,0,1.5,0.6719,1.5,1.5S147.3643,63,146.5361,63z M122.2578,63h-12.1357
				c-0.8286,0-1.5-0.6719-1.5-1.5s0.6714-1.5,1.5-1.5h12.1357c0.8281,0,1.5,0.6719,1.5,1.5S123.0859,63,122.2578,63z M97.9834,63
				H85.8447c-0.8286,0-1.5-0.6719-1.5-1.5s0.6714-1.5,1.5-1.5h12.1387c0.8286,0,1.5,0.6719,1.5,1.5S98.812,63,97.9834,63z
				 M73.7051,63H61.5635c-0.8286,0-1.5-0.6719-1.5-1.5s0.6714-1.5,1.5-1.5h12.1416c0.8286,0,1.5,0.6719,1.5,1.5
				S74.5337,63,73.7051,63z M49.4199,63H37.2563c-0.8286,0-1.5-0.6719-1.5-1.5s0.6714-1.5,1.5-1.5h12.1636
				c0.8286,0,1.5,0.6719,1.5,1.5S50.2485,63,49.4199,63z M203.2012,55.5947c-0.0947,0-0.1895-0.0088-0.2852-0.0273
				c-0.8135-0.1563-1.3472-0.9424-1.1899-1.7559C201.981,52.4863,202,51.3994,202,51.0977c0-0.0117,0-0.1104,0-0.1221V42
				c0-0.8281,0.6719-1.5,1.5-1.5s1.5,0.6719,1.5,1.5l0.001,9.0977c0,0.4727-0.0322,1.7383-0.3291,3.2803
				C204.5342,55.0957,203.9053,55.5947,203.2012,55.5947z"/>
			<path id="XMLID_243_" class="st5" d="M26,63h-6c-0.8286,0-1.5-0.6719-1.5-1.5S19.1714,60,20,60h6c0.8286,0,1.5,0.6719,1.5,1.5
				S26.8286,63,26,63z"/>
		</g>
		<path id="XMLID_608_" class="st6" d="M3,44.2189V9.3703c0,0,1.024-6.4585,6.8639-7.4673c5.8398-1.0088,43.6395,0,43.9285,0
			c0.2886,0-39.5073,1.1093-39.5073,1.1093S4.7631,2.0929,3.8539,9.7257C2.9452,17.3585,3,44.2189,3,44.2189z"/>
		<g id="XMLID_91_">
			<g id="XMLID_131_">
				<path id="XMLID_132_" class="st7" d="M17.085,28.7051v-1.9824h1.0166c0.771,0,1.2495-0.0908,1.436-0.2734
					c0.1865-0.1816,0.2798-0.6289,0.2798-1.3403V14.8281c0-0.7119-0.0933-1.1587-0.2798-1.3408s-0.665-0.2729-1.436-0.2729H17.085
					v-1.9697h17.1812v6.9512h-1.9824c-0.0508-1.9907-0.375-3.3188-0.9722-3.9839s-1.8066-0.9976-3.6279-0.9976h-4.1938v5.3623
					h0.9912c1.0928,0,1.8086-0.188,2.1479-0.5654c0.3384-0.3765,0.5503-1.2432,0.6353-2.5986l1.9824-0.0127v8.7559l-1.9824-0.0127
					c-0.0762-1.4995-0.2842-2.4673-0.6226-2.9038c-0.3394-0.4365-1.0508-0.6543-2.1353-0.6543h-1.0166v6.1377h4.5747
					c1.5254,0,2.5713-0.3535,3.1392-1.061c0.5674-0.7075,0.9277-2.1582,1.0801-4.3525h1.9824v7.396H17.085z"/>
				<path id="XMLID_135_" class="st7" d="M36.7314,11.2446h9.3657v1.9697h-1.2197c-0.7798,0-1.2646,0.0933-1.4551,0.2793
					c-0.1909,0.1865-0.2861,0.6313-0.2861,1.3345v11.8945h3.2534c1.1606,0,2.0288-0.0996,2.605-0.2988
					c0.5762-0.1987,0.9912-0.5313,1.2456-0.9976c0.2456-0.4487,0.4272-0.9951,0.5464-1.6392
					c0.1182-0.6436,0.1777-1.4146,0.1777-2.313v-0.3174h2.0078v7.5483H36.7314v-1.9824h1.0166c0.771,0,1.2495-0.0908,1.436-0.2734
					c0.1865-0.1816,0.2798-0.6289,0.2798-1.3403V14.8281c0-0.7119-0.0933-1.1587-0.2798-1.3408s-0.665-0.2729-1.436-0.2729h-1.0166
					V11.2446z"/>
				<path id="XMLID_155_" class="st7" d="M69.3145,25.1089c0,0.7031,0.0952,1.1479,0.2861,1.334
					c0.1904,0.1865,0.6753,0.2798,1.4551,0.2798h1.2197v1.9824h-9.3657v-1.9824h1.0166c0.771,0,1.2495-0.0908,1.436-0.2734
					c0.1865-0.1816,0.2798-0.6289,0.2798-1.3403V14.8281c0-0.7119-0.0933-1.1587-0.2798-1.3408s-0.665-0.2729-1.436-0.2729h-1.0166
					v-1.9697h9.188c2.355,0,4.1318,0.4023,5.3311,1.207c1.1987,0.8052,1.7979,1.9995,1.7979,3.5835
					c0,0.8643-0.1631,1.6187-0.4893,2.2622c-0.3262,0.644-0.8193,1.1904-1.4805,1.6392c-0.4746,0.3135-1.1353,0.5381-1.9824,0.6738
					c-0.8472,0.1353-2.0288,0.2031-3.5454,0.2031h-2.4146V25.1089z M69.3145,18.8438h1.7412c1.6011,0,2.7256-0.2139,3.374-0.6416
					c0.6479-0.4277,0.9722-1.1504,0.9722-2.167c0-1.042-0.3115-1.7725-0.9341-2.1919c-0.623-0.4194-1.8281-0.6289-3.6157-0.6289
					h-1.5376V18.8438z"/>
				<path id="XMLID_175_" class="st7" d="M87.1436,25.1089c0,0.7031,0.0952,1.1479,0.2861,1.334
					c0.1904,0.1865,0.6753,0.2798,1.4551,0.2798h1.2197v1.9824h-9.3657v-1.9824h1.0166c0.771,0,1.2495-0.0908,1.436-0.2734
					c0.1865-0.1816,0.2798-0.6289,0.2798-1.3403V14.8281c0-0.7119-0.0933-1.1587-0.2798-1.3408s-0.665-0.2729-1.436-0.2729h-1.0166
					v-1.9697h10.4331c2.186,0,3.8081,0.3428,4.8672,1.0293c1.0591,0.686,1.5884,1.7407,1.5884,3.1641
					c0,1.2539-0.4214,2.2559-1.2642,3.0054c-0.8433,0.75-2.0864,1.2222-3.73,1.417c1.2456,0.1865,2.1162,0.54,2.6118,1.061
					s0.7856,1.4258,0.8701,2.7134l0.1147,1.563c0.042,0.6099,0.1182,1.0083,0.2285,1.1943
					c0.1099,0.1865,0.2925,0.2798,0.5464,0.2798c0.5083,0,0.7793-0.9531,0.8135-2.8594c0-0.0337,0-0.0591,0-0.0762h1.6519
					c0.0171,0.1104,0.0273,0.2266,0.0317,0.3496c0.0044,0.1226,0.0063,0.2983,0.0063,0.5273c0,1.6011-0.29,2.77-0.8706,3.5073
					c-0.5801,0.7368-1.4976,1.1055-2.751,1.1055c-1.0337,0-1.8428-0.2837-2.4272-0.8516c-0.5845-0.5674-0.894-1.355-0.9277-2.3633
					l-0.0762-2.0464c-0.0508-1.3638-0.354-2.2891-0.9087-2.7764s-1.6074-0.731-3.1577-0.731h-1.2456V25.1089z M87.1436,18.4751
					h3.0752c1.2368,0,2.1436-0.2095,2.7197-0.6289s0.8643-1.0864,0.8643-2.0015c0-0.9404-0.2754-1.6138-0.8262-2.0205
					s-1.4995-0.6099-2.8467-0.6099h-2.9863V18.4751z"/>
				<path id="XMLID_178_" class="st7" d="M101.1987,19.9619c0-2.7617,0.8833-4.9878,2.6494-6.6777
					c1.7666-1.6904,4.0898-2.5352,6.9702-2.5352c2.8896,0,5.2129,0.8447,6.9707,2.5352c1.7578,1.6899,2.6367,3.916,2.6367,6.6777
					c0,2.7705-0.8809,5.0029-2.6436,6.6973c-1.7617,1.6943-4.083,2.5415-6.9639,2.5415c-2.8804,0-5.2036-0.8491-6.9702-2.5479
					C102.082,24.9541,101.1987,22.7241,101.1987,19.9619z M105.3032,19.9619c0,2.2539,0.4873,4.0093,1.4614,5.2676
					s2.3257,1.8872,4.0537,1.8872c1.7285,0,3.0781-0.627,4.0479-1.8809s1.4551-3.0117,1.4551-5.2739
					c0-2.2534-0.4824-4.0049-1.4482-5.2544s-2.3174-1.8745-4.0547-1.8745c-1.728,0-3.0796,0.625-4.0537,1.8745
					S105.3032,17.7085,105.3032,19.9619z"/>
				<path id="XMLID_181_" class="st7" d="M136.2852,21.9443h2.2363c-0.1699,2.3213-0.8828,4.1157-2.1416,5.3818
					c-1.2578,1.2666-2.959,1.8999-5.1016,1.8999c-1.2793,0-2.4355-0.1992-3.4697-0.5972c-1.0332-0.3979-1.957-1.0083-2.7705-1.8301
					c-0.8975-0.8896-1.5771-1.9165-2.0391-3.0815s-0.6924-2.4165-0.6924-3.7554c0-1.3467,0.2236-2.5815,0.6729-3.7041
					s1.127-2.1372,2.0332-3.0435c0.8223-0.8218,1.7412-1.4424,2.7578-1.8618s2.1094-0.6289,3.2793-0.6289
					c0.9316,0,1.8105,0.146,2.6367,0.438c0.8262,0.2925,1.6367,0.7437,2.4336,1.3535l0.5205-1.563h1.8809v7.1548h-2.0078
					c-0.2031-1.6689-0.7393-2.9609-1.6074-3.876s-1.9893-1.3726-3.3613-1.3726c-1.6016,0-2.8574,0.6396-3.7676,1.9189
					c-0.9111,1.2793-1.3662,3.0498-1.3662,5.312c0,2.1519,0.4531,3.8145,1.3594,4.9878s2.1816,1.7598,3.8252,1.7598
					c1.2793,0,2.3174-0.417,3.1133-1.2515C135.5059,24.751,136.0313,23.5371,136.2852,21.9443z"/>
				<path id="XMLID_183_" class="st7" d="M140.3896,28.7051v-1.9824h1.0166c0.7715,0,1.25-0.0908,1.4365-0.2734
					c0.1865-0.1816,0.2793-0.6289,0.2793-1.3403V14.8281c0-0.7119-0.0928-1.1587-0.2793-1.3408s-0.665-0.2729-1.4365-0.2729h-1.0166
					v-1.9697h17.1816v6.9512h-1.9824c-0.0508-1.9907-0.375-3.3188-0.9727-3.9839c-0.5967-0.665-1.8066-0.9976-3.6279-0.9976h-4.1934
					v5.3623h0.9912c1.0928,0,1.8086-0.188,2.1475-0.5654c0.3389-0.3765,0.5508-1.2432,0.6357-2.5986l1.9824-0.0127v8.7559
					l-1.9824-0.0127c-0.0762-1.4995-0.2842-2.4673-0.623-2.9038s-1.0508-0.6543-2.1348-0.6543h-1.0166v6.1377h4.5742
					c1.5254,0,2.5713-0.3535,3.1396-1.061c0.5674-0.7075,0.9277-2.1582,1.0801-4.3525h1.9824v7.396H140.3896z"/>
				<path id="XMLID_185_" class="st7" d="M160.582,28.7051v-7.2056h2.0332c0.2803,1.7368,0.9238,3.0649,1.9316,3.9839
					c1.0088,0.9194,2.3174,1.3789,3.9268,1.3789c1.1611,0,2.0488-0.1948,2.6631-0.5845c0.6133-0.3896,0.9209-0.9531,0.9209-1.6899
					c0-0.6611-0.2354-1.1987-0.7051-1.6143c-0.4707-0.415-1.2227-0.7412-2.2559-0.9785l-2.834-0.6606
					c-2.0332-0.4741-3.4971-1.1162-4.3906-1.9253s-1.3408-1.8911-1.3408-3.2466c0-1.6436,0.5723-2.9609,1.7158-3.9521
					s2.6729-1.4868,4.5879-1.4868c0.9482,0,1.8359,0.146,2.6621,0.438c0.8262,0.2925,1.6289,0.7437,2.4082,1.3535l0.915-1.2705
					h1.5625v6.6079h-1.9824c-0.2959-1.584-0.9209-2.8125-1.874-3.6851s-2.1494-1.3091-3.5898-1.3091
					c-1.0508,0-1.8643,0.1968-2.4404,0.5908s-0.8643,0.9424-0.8643,1.6455c0,0.5933,0.2041,1.0679,0.6104,1.4233
					c0.4072,0.356,1.0586,0.6357,1.957,0.8389l3.5205,0.8135c1.8633,0.4233,3.2568,1.0864,4.1807,1.9888
					c0.9229,0.9023,1.3848,2.0522,1.3848,3.4502c0,1.6519-0.6055,3.001-1.8174,4.0474c-1.2109,1.0464-2.7822,1.5693-4.7139,1.5693
					c-0.9746,0-1.9404-0.1777-2.8975-0.5337c-0.958-0.356-1.9277-0.8979-2.9102-1.6265l-0.5723,1.6392H160.582z"/>
				<path id="XMLID_187_" class="st7" d="M177.624,19.9619c0-2.7617,0.8828-4.9878,2.6494-6.6777
					c1.7666-1.6904,4.0898-2.5352,6.9697-2.5352c2.8896,0,5.2129,0.8447,6.9707,2.5352c1.7578,1.6899,2.6367,3.916,2.6367,6.6777
					c0,2.7705-0.8809,5.0029-2.6436,6.6973c-1.7617,1.6943-4.083,2.5415-6.9639,2.5415c-2.8799,0-5.2031-0.8491-6.9697-2.5479
					S177.624,22.7241,177.624,19.9619z M181.7285,19.9619c0,2.2539,0.4873,4.0093,1.4609,5.2676
					c0.9746,1.2583,2.3262,1.8872,4.0537,1.8872c1.7285,0,3.0781-0.627,4.0479-1.8809s1.4551-3.0117,1.4551-5.2739
					c0-2.2534-0.4824-4.0049-1.4482-5.2544s-2.3174-1.8745-4.0547-1.8745c-1.7275,0-3.0791,0.625-4.0537,1.8745
					C182.2158,15.957,181.7285,17.7085,181.7285,19.9619z"/>
			</g>
			<g id="XMLID_104_">
				<g id="XMLID_239_">
					<path id="XMLID_108_" class="st8" d="M31.0732,53.4004c-0.2944,0.6846-0.6982,1.2832-1.2114,1.7969
						c-0.5137,0.5137-1.1152,0.917-1.8052,1.2109c-0.6899,0.2949-1.4253,0.4414-2.2061,0.4414h-7.2842V33.8418h7.2842
						c0.7808,0,1.5161,0.1475,2.2061,0.4414c0.6899,0.2949,1.2915,0.6982,1.8052,1.2119c0.5132,0.5127,0.917,1.1143,1.2114,1.8047
						c0.2939,0.6895,0.4409,1.4258,0.4409,2.2061v11.6963C31.5142,51.9834,31.3672,52.7158,31.0732,53.4004z M29.4443,39.5059
						c0-0.5137-0.0962-0.9922-0.2886-1.4365c-0.1924-0.4434-0.4575-0.834-0.7944-1.1709s-0.7275-0.6016-1.1709-0.7939
						c-0.4443-0.1924-0.9229-0.2891-1.436-0.2891h-5.1182V54.876h5.1182c0.5132,0,0.9917-0.0957,1.436-0.2881
						c0.4434-0.1924,0.834-0.4551,1.1709-0.7861c0.3369-0.332,0.6021-0.7197,0.7944-1.1641
						c0.1924-0.4434,0.2886-0.9219,0.2886-1.4355V39.5059z"/>
					<path id="XMLID_234_" class="st8" d="M25.8506,57.3496h-7.2842c-0.2764,0-0.5-0.2236-0.5-0.5V33.8418
						c0-0.2764,0.2236-0.5,0.5-0.5h7.2842c0.8442,0,1.6523,0.1621,2.4019,0.4814c0.7471,0.3193,1.4072,0.7627,1.9629,1.3184
						c0.5562,0.5557,0.9995,1.2158,1.3179,1.9619c0.3193,0.749,0.481,1.5566,0.481,2.4023v11.6963
						c0,0.8457-0.1621,1.6514-0.4814,2.3955l0,0c-0.3179,0.7393-0.7612,1.3965-1.3174,1.9531s-1.2168,1-1.9629,1.3174
						C27.5054,57.1875,26.6973,57.3496,25.8506,57.3496z M19.0664,56.3496h6.7842c0.7104,0,1.3867-0.1348,2.0098-0.4014
						c0.6284-0.2676,1.1826-0.6387,1.6479-1.1045c0.4658-0.4668,0.8379-1.0186,1.1055-1.6406
						c0.2656-0.6191,0.4004-1.292,0.4004-2.001V39.5059c0-0.71-0.1348-1.3857-0.4009-2.0098
						c-0.2676-0.6279-0.6396-1.1826-1.105-1.6475c-0.4648-0.4648-1.0195-0.8369-1.6479-1.1055
						c-0.625-0.2666-1.3013-0.4014-2.0098-0.4014h-6.7842V56.3496z M25.7544,55.376h-5.1182c-0.2764,0-0.5-0.2236-0.5-0.5V35.8154
						c0-0.2764,0.2236-0.5,0.5-0.5h5.1182c0.5786,0,1.1284,0.1113,1.6348,0.3301c0.5,0.2168,0.9458,0.5195,1.3257,0.8994
						c0.3804,0.3799,0.6831,0.8262,0.8994,1.3252c0.2192,0.5059,0.3301,1.0557,0.3301,1.6357v11.6963
						c0,0.5801-0.1108,1.1299-0.3301,1.6348c-0.2163,0.5-0.52,0.9443-0.9019,1.3213c-0.3809,0.374-0.8257,0.6729-1.3228,0.8887
						C26.8843,55.2656,26.3345,55.376,25.7544,55.376z M21.1362,54.376h4.6182c0.4429,0,0.8589-0.083,1.2373-0.2471
						c0.3838-0.166,0.7271-0.3965,1.019-0.6836c0.29-0.2861,0.521-0.624,0.686-1.0059c0.1646-0.3789,0.2476-0.7949,0.2476-1.2373
						V39.5059c0-0.4424-0.083-0.8584-0.2476-1.2383c-0.166-0.3828-0.3979-0.7246-0.689-1.0156
						c-0.2905-0.29-0.6323-0.5225-1.0166-0.6885c-0.3794-0.165-0.7959-0.248-1.2368-0.248h-4.6182V54.376z"/>
				</g>
				<g id="XMLID_232_">
					<path id="XMLID_111_" class="st8" d="M36.4399,56.8496V33.8418h12.9478v1.9736H38.5098v8.5518h8.8081v1.9736h-8.8081v8.5352
						h10.8779v1.9736H36.4399z"/>
					<path id="XMLID_229_" class="st8" d="M49.3877,57.3496H36.4399c-0.2764,0-0.5-0.2236-0.5-0.5V33.8418
						c0-0.2764,0.2236-0.5,0.5-0.5h12.9478c0.2764,0,0.5,0.2236,0.5,0.5v1.9736c0,0.2764-0.2236,0.5-0.5,0.5H39.0098v7.5518h8.3081
						c0.2764,0,0.5,0.2236,0.5,0.5v1.9736c0,0.2764-0.2236,0.5-0.5,0.5h-8.3081v7.5352h10.3779c0.2764,0,0.5,0.2236,0.5,0.5v1.9736
						C49.8877,57.126,49.6641,57.3496,49.3877,57.3496z M36.9399,56.3496h11.9478V55.376H38.5098c-0.2764,0-0.5-0.2236-0.5-0.5
						v-8.5352c0-0.2764,0.2236-0.5,0.5-0.5h8.3081v-0.9736h-8.3081c-0.2764,0-0.5-0.2236-0.5-0.5v-8.5518
						c0-0.2764,0.2236-0.5,0.5-0.5h10.3779v-0.9736H36.9399V56.3496z"/>
				</g>
				<g id="XMLID_228_">
					<path id="XMLID_113_" class="st8" d="M73.5024,51.5234c0,0.7803-0.1577,1.5137-0.4731,2.1973
						c-0.3159,0.6855-0.7383,1.2842-1.2676,1.7979c-0.5293,0.5127-1.1445,0.917-1.8452,1.2109s-1.4414,0.4414-2.2222,0.4414H66.042
						c-0.7813,0-1.522-0.1475-2.2222-0.4414c-0.7007-0.2939-1.3159-0.6982-1.8452-1.2109
						c-0.5293-0.5137-0.9521-1.1123-1.2676-1.7979c-0.3154-0.6836-0.4731-1.417-0.4731-2.1973v-0.915l2.0693-0.3369v1.252
						c0,0.5127,0.1045,0.9922,0.313,1.4355c0.2085,0.4443,0.4893,0.834,0.8423,1.1709s0.7622,0.6025,1.2275,0.7949
						s0.9546,0.2881,1.4683,0.2881h1.4438c0.5132,0,1-0.0957,1.46-0.2881s0.8667-0.458,1.2192-0.7949
						c0.353-0.3369,0.6338-0.7266,0.8428-1.1709c0.2085-0.4434,0.3125-0.9229,0.3125-1.4355V50.833
						c0-0.791-0.1553-1.4492-0.4653-1.9736c-0.3101-0.5234-0.7217-0.9707-1.2354-1.3398c-0.5132-0.3682-1.0938-0.6816-1.7407-0.9385
						c-0.6475-0.2568-1.313-0.5127-1.9976-0.7695s-1.3506-0.54-1.9976-0.8506c-0.6475-0.3105-1.2275-0.6982-1.7407-1.1631
						c-0.5137-0.4658-0.9253-1.0352-1.2354-1.709c-0.3105-0.6738-0.4653-1.5029-0.4653-2.4863v-0.4336
						c0-0.7803,0.147-1.5137,0.4409-2.1982c0.2944-0.6846,0.6982-1.2832,1.2114-1.7969c0.5137-0.5137,1.1152-0.917,1.8052-1.2114
						s1.4253-0.4414,2.2061-0.4414h1.4761c0.7808,0,1.5137,0.147,2.1982,0.4414c0.6841,0.2944,1.2837,0.6978,1.7969,1.2114
						c0.5137,0.5137,0.917,1.1123,1.2114,1.7969c0.2939,0.6846,0.4414,1.418,0.4414,2.1982v0.5938l-2.0698,0.3369v-0.9307
						c0-0.5137-0.0962-0.9922-0.2891-1.4365c-0.1924-0.4434-0.4546-0.8311-0.7861-1.1631
						c-0.3315-0.3311-0.7192-0.5938-1.1631-0.7861s-0.9229-0.2881-1.436-0.2881h-1.2837c-0.5132,0-0.9922,0.0957-1.436,0.2881
						s-0.834,0.4551-1.1709,0.7861c-0.3369,0.332-0.6021,0.7197-0.7944,1.1631c-0.1924,0.4443-0.2886,0.9229-0.2886,1.4365v0.4336
						c0,0.7373,0.1548,1.3584,0.4653,1.8604c0.3101,0.5029,0.7217,0.9336,1.2354,1.292c0.5132,0.3584,1.0933,0.6689,1.7407,0.9307
						c0.647,0.2617,1.313,0.5293,1.9976,0.8018c0.6846,0.2734,1.3501,0.5723,1.9976,0.8984
						c0.647,0.3271,1.2275,0.7275,1.7407,1.2041c0.5137,0.4756,0.9253,1.0557,1.2354,1.7402s0.4653,1.5195,0.4653,2.5029V51.5234z"
						/>
					<path id="XMLID_115_" class="st8" d="M67.6943,57.6709H66.042c-0.8438,0-1.6563-0.1621-2.4155-0.4805
						c-0.7544-0.3164-1.4268-0.7578-1.9995-1.3125c-0.5728-0.5557-1.0352-1.2109-1.374-1.9482
						c-0.3442-0.7461-0.519-1.5557-0.519-2.4063v-0.915c0-0.2451,0.1777-0.4541,0.4194-0.4932l2.0693-0.3369
						c0.1431-0.0273,0.293,0.0176,0.4043,0.1123c0.1118,0.0947,0.1763,0.2344,0.1763,0.3809v1.252
						c0,0.4365,0.0894,0.8486,0.2656,1.2227c0.1807,0.3857,0.4277,0.7295,0.7349,1.0225c0.3076,0.293,0.6689,0.5273,1.0732,0.6943
						c0.4014,0.166,0.8315,0.25,1.2773,0.25h1.4438c0.4453,0,0.8716-0.084,1.2671-0.249c0.4004-0.168,0.7593-0.4014,1.0669-0.6953
						c0.3066-0.293,0.5542-0.6367,0.7354-1.0225c0.1758-0.374,0.2651-0.7852,0.2651-1.2227V50.833
						c0-0.6963-0.1333-1.2754-0.3955-1.7188c-0.2739-0.4629-0.6431-0.8623-1.0972-1.1885c-0.479-0.3438-1.0283-0.6396-1.6333-0.8799
						c-0.6445-0.2559-1.3071-0.5107-1.9888-0.7666c-0.6987-0.2617-1.3848-0.5537-2.0381-0.8672
						c-0.6875-0.3301-1.3135-0.748-1.8599-1.2441c-0.562-0.5088-1.0171-1.1377-1.354-1.8701
						c-0.3394-0.7354-0.5112-1.6426-0.5112-2.6953v-0.4336c0-0.8457,0.1621-1.6514,0.4814-2.3955
						c0.3179-0.7393,0.7612-1.3965,1.3174-1.9531c0.5557-0.5557,1.2163-0.9995,1.9624-1.3179
						c0.7485-0.3193,1.5571-0.4814,2.4023-0.4814h1.4761c0.8462,0,1.6519,0.1621,2.396,0.4819
						c0.7412,0.3193,1.3984,0.7627,1.9526,1.3174c0.5557,0.5557,0.999,1.2129,1.3174,1.9531
						c0.3198,0.7451,0.4819,1.5508,0.4819,2.3955v0.5938c0,0.2451-0.1777,0.4541-0.4194,0.4932l-2.0698,0.3369
						c-0.1445,0.0264-0.293-0.0176-0.4043-0.1123c-0.1118-0.0947-0.1763-0.2344-0.1763-0.3809v-0.9307
						c0-0.4424-0.0835-0.8584-0.2476-1.2373c-0.1665-0.3838-0.3955-0.7227-0.6816-1.0088c-0.2856-0.2861-0.625-0.5146-1.0078-0.6807
						c-0.3779-0.1641-0.7944-0.2471-1.2373-0.2471h-1.2837c-0.4429,0-0.8594,0.083-1.2373,0.2471
						c-0.3838,0.166-0.7266,0.3965-1.019,0.6836c-0.2896,0.2852-0.5205,0.624-0.6865,1.0059
						c-0.1641,0.3789-0.2471,0.7949-0.2471,1.2373v0.4336c0,0.6406,0.1313,1.1787,0.3906,1.5977
						c0.2729,0.4424,0.6416,0.8271,1.0962,1.1445c0.4814,0.3359,1.0337,0.6318,1.6421,0.877
						c0.646,0.2617,1.311,0.5293,1.9951,0.8008c0.6997,0.2803,1.3853,0.5879,2.0376,0.917c0.6895,0.3486,1.3135,0.7803,1.856,1.2842
						c0.5596,0.5176,1.0142,1.1572,1.3506,1.9004c0.3384,0.7471,0.5098,1.6582,0.5098,2.709v0.6904
						c0,0.8506-0.1748,1.6602-0.519,2.4072c-0.3398,0.7373-0.8022,1.3926-1.3735,1.9463c-0.5732,0.5557-1.2456,0.9971-2,1.3135
						C69.3501,57.5098,68.5376,57.6709,67.6943,57.6709z M60.7339,51.0332v0.4902c0,0.7051,0.1436,1.373,0.4272,1.9873
						c0.2876,0.625,0.6782,1.1797,1.1616,1.6494c0.4829,0.4668,1.0518,0.8398,1.6904,1.1084
						c0.6362,0.2666,1.3188,0.4023,2.0288,0.4023h1.6523c0.7095,0,1.3921-0.1357,2.0288-0.4023
						c0.6387-0.2686,1.2075-0.6416,1.6909-1.1094c0.4819-0.4678,0.873-1.0225,1.1611-1.6475
						c0.2837-0.6152,0.4272-1.2832,0.4272-1.9883V50.833c0-0.9072-0.1416-1.6797-0.4209-2.2969
						c-0.2808-0.6201-0.6577-1.1514-1.1196-1.5791c-0.4741-0.4404-1.0215-0.8193-1.6265-1.125
						c-0.626-0.3154-1.2847-0.6113-1.9575-0.8809c-0.6851-0.2725-1.3516-0.54-1.9995-0.8018
						c-0.6777-0.2744-1.2964-0.6055-1.8394-0.9844c-0.5674-0.3965-1.0298-0.8809-1.375-1.4395
						c-0.3579-0.5791-0.5396-1.293-0.5396-2.123v-0.4336c0-0.5801,0.1108-1.1299,0.3296-1.6348
						c0.2173-0.501,0.5205-0.9443,0.9023-1.3213c0.3813-0.374,0.8262-0.6729,1.3232-0.8887
						c0.5039-0.2188,1.0542-0.3291,1.6348-0.3291h1.2837c0.5806,0,1.1309,0.1104,1.6348,0.3291
						c0.4985,0.2158,0.9419,0.5156,1.3179,0.8916c0.375,0.376,0.6748,0.8184,0.8911,1.3174
						c0.2192,0.5049,0.3306,1.0557,0.3306,1.6357v0.3428l1.0698-0.1738v-0.1689c0-0.708-0.1348-1.3818-0.4009-2.001
						c-0.2681-0.623-0.6396-1.1748-1.1055-1.6406c-0.4648-0.4648-1.0166-0.8369-1.6411-1.1055
						c-0.6182-0.2656-1.291-0.4014-2.0005-0.4014h-1.4761c-0.7095,0-1.3857,0.1357-2.0098,0.4014
						c-0.6284,0.2686-1.1826,0.6406-1.6479,1.1055c-0.4658,0.4668-0.8379,1.0186-1.1055,1.6406
						c-0.2656,0.6191-0.4004,1.292-0.4004,2.001v0.4336c0,0.9072,0.1411,1.6729,0.4194,2.2773
						c0.2803,0.6084,0.6563,1.1299,1.1172,1.5479c0.4751,0.4297,1.0205,0.7939,1.6211,1.082c0.627,0.3018,1.2856,0.582,1.957,0.834
						c0.6875,0.2578,1.356,0.5146,2.0063,0.7725c0.6807,0.2705,1.3022,0.6055,1.8477,0.9971
						c0.5669,0.4072,1.0293,0.9092,1.374,1.4912c0.355,0.6006,0.5352,1.3506,0.5352,2.2285v0.6904
						c0,0.5859-0.1211,1.1406-0.3599,1.6484c-0.2339,0.4971-0.5537,0.9414-0.9502,1.3193c-0.396,0.3789-0.8574,0.6797-1.3716,0.8945
						c-0.5186,0.2168-1.0747,0.3271-1.6528,0.3271h-1.4438c-0.5776,0-1.1362-0.1094-1.6592-0.3262
						c-0.5195-0.2148-0.9844-0.5156-1.3818-0.8955c-0.397-0.3779-0.7163-0.8223-0.9497-1.3203
						c-0.2393-0.5078-0.3604-1.0625-0.3604-1.6475v-0.6641L60.7339,51.0332z"/>
				</g>
				<g id="XMLID_225_">
					<path id="XMLID_116_" class="st8" d="M90.1162,53.7207c-0.2939,0.6855-0.6978,1.2842-1.2109,1.7979
						c-0.5137,0.5127-1.1128,0.917-1.7974,1.2109s-1.417,0.4414-2.1978,0.4414h-1.6367c-0.7808,0-1.5161-0.1475-2.2061-0.4414
						s-1.2915-0.6982-1.8052-1.2109c-0.5132-0.5137-0.917-1.1123-1.2114-1.7979c-0.2939-0.6836-0.4409-1.417-0.4409-2.1973V39.1689
						c0-0.7803,0.147-1.5137,0.4409-2.1982c0.2944-0.6846,0.6982-1.2832,1.2114-1.7969c0.5137-0.5137,1.1152-0.917,1.8052-1.2114
						s1.4253-0.4414,2.2061-0.4414h1.6367c0.7808,0,1.5132,0.147,2.1978,0.4414s1.2837,0.6978,1.7974,1.2114
						c0.5132,0.5137,0.917,1.1123,1.2109,1.7969c0.2944,0.6846,0.4414,1.418,0.4414,2.1982v12.3545
						C90.5576,52.3037,90.4106,53.0371,90.1162,53.7207z M88.4878,39.1689c0-0.5137-0.0962-0.9922-0.2886-1.4365
						c-0.1924-0.4434-0.4551-0.8311-0.7861-1.1631c-0.332-0.3311-0.7197-0.5938-1.1636-0.7861s-0.9224-0.2881-1.4355-0.2881h-1.4443
						c-0.5132,0-0.9922,0.0957-1.436,0.2881s-0.834,0.4551-1.1709,0.7861c-0.3369,0.332-0.6021,0.7197-0.7944,1.1631
						c-0.1924,0.4443-0.2886,0.9229-0.2886,1.4365v12.3545c0,0.5127,0.0962,0.9922,0.2886,1.4355
						c0.1924,0.4443,0.4575,0.834,0.7944,1.1709s0.7271,0.6025,1.1709,0.7949s0.9229,0.2881,1.436,0.2881h1.4443
						c0.5132,0,0.9917-0.0957,1.4355-0.2881s0.8315-0.458,1.1636-0.7949c0.3311-0.3369,0.5938-0.7266,0.7861-1.1709
						c0.1924-0.4434,0.2886-0.9229,0.2886-1.4355V39.1689z"/>
					<path id="XMLID_220_" class="st8" d="M84.9102,57.6709h-1.6367c-0.8442,0-1.6523-0.1621-2.4019-0.4814
						c-0.7446-0.3174-1.4048-0.7598-1.9624-1.3174c-0.5571-0.5566-1-1.2139-1.3179-1.9541
						c-0.3193-0.7432-0.4814-1.5488-0.4814-2.3945V39.1689c0-0.8457,0.1621-1.6514,0.4814-2.3955
						c0.3179-0.7393,0.7612-1.3965,1.3174-1.9531c0.5557-0.5557,1.2163-0.9995,1.9624-1.3179
						c0.7485-0.3193,1.5571-0.4814,2.4023-0.4814h1.6367c0.8457,0,1.6514,0.1621,2.3955,0.4819
						c0.7407,0.3188,1.3979,0.7617,1.9531,1.3174c0.5566,0.5566,0.9995,1.2139,1.3169,1.9531
						c0.3198,0.7432,0.4819,1.5498,0.4819,2.3955v12.3545c0,0.8457-0.1621,1.6514-0.4819,2.3945l0,0
						c-0.3169,0.7393-0.7603,1.3965-1.3169,1.9541c-0.5576,0.5566-1.2148,1-1.9536,1.3164
						C86.5605,57.5088,85.7544,57.6709,84.9102,57.6709z M83.2734,34.0205c-0.7095,0-1.3857,0.1357-2.0098,0.4014
						c-0.6284,0.2686-1.1826,0.6406-1.6479,1.1055c-0.4658,0.4668-0.8379,1.0186-1.1055,1.6406
						c-0.2656,0.6191-0.4004,1.292-0.4004,2.001v12.3545c0,0.709,0.1348,1.3818,0.4004,2c0.2676,0.623,0.6396,1.1748,1.1055,1.6416
						c0.4668,0.4658,1.0215,0.8379,1.6475,1.1045c0.6255,0.2666,1.3018,0.4014,2.0103,0.4014h1.6367
						c0.708,0,1.3809-0.1348,2.0005-0.4004c0.6216-0.2676,1.1738-0.6396,1.6416-1.1055c0.4658-0.4668,0.8374-1.0195,1.1045-1.6416
						c0,0,0,0,0.0005-0.001c0.2656-0.6172,0.4004-1.2891,0.4004-1.999V39.1689c0-0.709-0.1348-1.3828-0.4009-2.001
						c-0.2671-0.6221-0.6387-1.1738-1.105-1.6406c-0.4653-0.4658-1.0176-0.8369-1.6416-1.1055c-0.6182-0.2656-1.291-0.4014-2-0.4014
						H83.2734z M84.814,55.7129h-1.4443c-0.5806,0-1.1309-0.1104-1.6348-0.3291c-0.4985-0.2158-0.9443-0.5195-1.3257-0.9004
						s-0.6841-0.8271-0.8999-1.3262c-0.2188-0.5039-0.3296-1.0537-0.3296-1.6338V39.1689c0-0.5801,0.1108-1.1299,0.3296-1.6348
						c0.2173-0.501,0.5205-0.9443,0.9023-1.3213c0.3813-0.374,0.8262-0.6729,1.3232-0.8887
						c0.5039-0.2188,1.0542-0.3291,1.6348-0.3291h1.4443c0.5806,0,1.1304,0.1104,1.6343,0.3291
						c0.498,0.2158,0.9414,0.5156,1.3179,0.8906c0.376,0.3779,0.6758,0.8203,0.8916,1.3184
						c0.2192,0.5059,0.3301,1.0557,0.3301,1.6357v12.3545c0,0.5801-0.1108,1.1299-0.3301,1.6348
						c-0.2148,0.4961-0.5137,0.9414-0.8882,1.3223c-0.3774,0.3828-0.8218,0.6865-1.3213,0.9033
						C85.9443,55.6025,85.3945,55.7129,84.814,55.7129z M83.3696,35.9951c-0.4429,0-0.8594,0.083-1.2373,0.2471
						c-0.3838,0.166-0.7266,0.3965-1.019,0.6836c-0.2896,0.2852-0.5205,0.624-0.6865,1.0059
						c-0.1641,0.3789-0.2471,0.7949-0.2471,1.2373v12.3545c0,0.4424,0.083,0.8584,0.2471,1.2363
						c0.166,0.3828,0.3979,0.7246,0.6895,1.0166c0.292,0.292,0.6338,0.5244,1.0161,0.6895
						c0.3779,0.1641,0.7944,0.2471,1.2373,0.2471h1.4443c0.4429,0,0.8589-0.083,1.2368-0.2471
						c0.3813-0.165,0.7197-0.3965,1.0063-0.6865c0.2871-0.293,0.5171-0.6357,0.6831-1.0186
						c0.1646-0.3789,0.2476-0.7949,0.2476-1.2373V39.1689c0-0.4424-0.083-0.8584-0.2476-1.2383
						c-0.1655-0.3818-0.395-0.7207-0.6812-1.0078c-0.2861-0.2861-0.626-0.5146-1.0083-0.6807
						c-0.3779-0.1641-0.7939-0.2471-1.2368-0.2471H83.3696z"/>
				</g>
				<g id="XMLID_218_">
					<path id="XMLID_118_" class="st8" d="M97.5693,35.8154v8.5518h8.8081v1.9736h-8.8081v10.5088h-2.0698V33.8418h12.9478v1.9736
						H97.5693z"/>
					<path id="XMLID_215_" class="st8" d="M97.5693,57.3496h-2.0698c-0.2764,0-0.5-0.2236-0.5-0.5V33.8418
						c0-0.2764,0.2236-0.5,0.5-0.5h12.9478c0.2764,0,0.5,0.2236,0.5,0.5v1.9736c0,0.2764-0.2236,0.5-0.5,0.5H98.0693v7.5518h8.3081
						c0.2764,0,0.5,0.2236,0.5,0.5v1.9736c0,0.2764-0.2236,0.5-0.5,0.5h-8.3081v10.0088
						C98.0693,57.126,97.8457,57.3496,97.5693,57.3496z M95.9995,56.3496h1.0698V46.3408c0-0.2764,0.2236-0.5,0.5-0.5h8.3081
						v-0.9736h-8.3081c-0.2764,0-0.5-0.2236-0.5-0.5v-8.5518c0-0.2764,0.2236-0.5,0.5-0.5h10.3779v-0.9736H95.9995V56.3496z"/>
				</g>
				<g id="XMLID_214_">
					<path id="XMLID_120_" class="st8" d="M117.3203,35.8154v21.0342H115.25V35.8154h-5.4873v-1.9736h13.0449v1.9736H117.3203z"/>
					<path id="XMLID_211_" class="st8" d="M117.3203,57.3496H115.25c-0.2764,0-0.5-0.2236-0.5-0.5V36.3154h-4.9873
						c-0.2764,0-0.5-0.2236-0.5-0.5v-1.9736c0-0.2764,0.2236-0.5,0.5-0.5h13.0449c0.2764,0,0.5,0.2236,0.5,0.5v1.9736
						c0,0.2764-0.2236,0.5-0.5,0.5h-4.9873v20.5342C117.8203,57.126,117.5967,57.3496,117.3203,57.3496z M115.75,56.3496h1.0703
						V35.8154c0-0.2764,0.2236-0.5,0.5-0.5h4.9873v-0.9736h-12.0449v0.9736h4.9873c0.2764,0,0.5,0.2236,0.5,0.5V56.3496z"/>
				</g>
				<g id="XMLID_210_">
					<path id="XMLID_122_" class="st8" d="M141.4668,56.8496h-1.0752l-4.4756-17.3115l-0.0645-0.8984l-0.0967,0.8984
						l-4.4443,17.3115h-1.0742l-6.1133-23.0078h2.0693l4.5088,17.4883l0.0645,0.8506l0.0635-0.8506l4.4287-17.4883h1.1553
						l4.4277,17.4883l0.0645,0.8506l0.0801-0.8506l4.4932-17.4883h2.0693L141.4668,56.8496z"/>
					<path id="XMLID_125_" class="st8" d="M141.4668,57.3496h-1.0752c-0.2275,0-0.4268-0.1543-0.4844-0.375l-4.0732-15.7549
						l-4.0391,15.7539c-0.0566,0.2217-0.2559,0.376-0.4844,0.376h-1.0742c-0.2266,0-0.4248-0.1523-0.4834-0.3721l-6.1133-23.0073
						c-0.04-0.1499-0.0078-0.3101,0.0869-0.4331s0.2412-0.1953,0.3965-0.1953h2.0693c0.2285,0,0.4268,0.1543,0.4844,0.375
						l4.0879,15.8574l4.0088-15.855c0.0557-0.2222,0.2559-0.3774,0.4844-0.3774h1.1553c0.2285,0,0.4287,0.1553,0.4844,0.3774
						l4.0215,15.8823l4.0752-15.8843c0.0566-0.2212,0.2559-0.3755,0.4844-0.3755h2.0693c0.1553,0,0.3018,0.0718,0.3965,0.1948
						s0.127,0.2827,0.0869,0.4331l-6.0811,23.0078C141.8926,57.1963,141.6934,57.3496,141.4668,57.3496z M140.7783,56.3496h0.3037
						l5.8164-22.0078h-1.0322l-4.3965,17.1123l-0.0664,0.7734c-0.0244,0.2588-0.2529,0.4932-0.5029,0.4531
						c-0.2598-0.002-0.4736-0.2031-0.4941-0.4619l-0.0645-0.8506l-4.3174-17.0264h-0.377l-4.334,17.1113l-0.0488,0.7646
						c-0.0195,0.2607-0.2373,0.4629-0.499,0.4629l0,0c-0.2617,0-0.4785-0.2012-0.499-0.4619l-0.0645-0.8506l-4.3975-17.0264h-1.0313
						l5.8477,22.0078h0.3018l4.3477-16.9355l0.084-0.8281c0.0273-0.2568,0.2568-0.4707,0.5059-0.4463
						c0.2588,0.0049,0.4717,0.2061,0.4902,0.4639l0.0645,0.8984L140.7783,56.3496z"/>
				</g>
				<g id="XMLID_207_">
					<path id="XMLID_126_" class="st8" d="M158.8115,51.4912h-7.2842l-1.5088,5.3584h-2.1494l6.7383-23.0078h1.0908l6.7715,23.0078
						h-2.1338L158.8115,51.4912z M152.0889,49.5176h6.1768l-3.0322-10.6055l-0.0645-0.8506l-0.0635,0.8506L152.0889,49.5176z"/>
					<path id="XMLID_202_" class="st8" d="M162.4697,57.3496h-2.1338c-0.2236,0-0.4199-0.1484-0.4805-0.3633l-1.4219-4.9951h-6.5273
						L150.5,56.9854c-0.0605,0.2158-0.2578,0.3643-0.4814,0.3643h-2.1494c-0.1572,0-0.3057-0.0742-0.4004-0.2002
						c-0.0938-0.126-0.124-0.2891-0.0791-0.4404l6.7383-23.0078c0.0625-0.2129,0.2578-0.3594,0.4795-0.3594h1.0908
						c0.2217,0,0.417,0.146,0.4795,0.3589l6.7715,23.0073c0.0449,0.1514,0.0156,0.3145-0.0791,0.4414
						C162.7754,57.2754,162.627,57.3496,162.4697,57.3496z M160.7139,56.3496h1.0879l-6.4775-22.0078h-0.3418l-6.4463,22.0078
						h1.1035l1.4063-4.9941c0.0605-0.2158,0.2578-0.3643,0.4814-0.3643h7.2842c0.2236,0,0.4199,0.1484,0.4805,0.3633
						L160.7139,56.3496z M158.2656,50.0176h-6.1768c-0.1572,0-0.3047-0.0732-0.3994-0.1982
						c-0.0938-0.126-0.124-0.2881-0.0811-0.4385l3.002-10.5566l0.0596-0.7998c0.0195-0.2607,0.2373-0.4629,0.499-0.4629l0,0
						c0.2617,0,0.4785,0.2012,0.499,0.4619l0.0605,0.7998l3.0176,10.5566c0.043,0.1514,0.0137,0.3135-0.0811,0.4385
						C158.5703,49.9443,158.4229,50.0176,158.2656,50.0176z M152.751,49.0176h4.8516l-2.4316-8.5068L152.751,49.0176z"/>
				</g>
				<g id="XMLID_201_">
					<path id="XMLID_129_" class="st8" d="M176.2354,56.8496l-6.2412-9.8193h-2.8398v9.8193h-2.0693V33.8418h7.2998
						c0.7813,0,1.5137,0.1475,2.1982,0.4414c0.6846,0.2949,1.2832,0.6982,1.7969,1.2119c0.5137,0.5127,0.917,1.1143,1.2109,1.8047
						c0.2949,0.6895,0.4414,1.4258,0.4414,2.2061v1.8613c0,0.7803-0.1465,1.5156-0.4414,2.2061
						c-0.2939,0.6895-0.6973,1.291-1.2109,1.8047s-1.1123,0.917-1.7969,1.2119c-0.6846,0.2939-1.417,0.4404-2.1982,0.4404
						l6.2412,9.8193H176.2354z M175.9629,39.5059c0-0.5137-0.0967-0.9922-0.2891-1.4365c-0.1924-0.4434-0.4551-0.834-0.7861-1.1709
						c-0.332-0.3369-0.7197-0.6016-1.1631-0.7939c-0.4443-0.1924-0.9229-0.2891-1.4355-0.2891h-5.1348v9.2422h5.1348
						c0.5127,0,0.9912-0.0967,1.4355-0.2891c0.4434-0.1924,0.8311-0.457,1.1631-0.7939c0.3311-0.3369,0.5938-0.7275,0.7861-1.1719
						c0.1924-0.4434,0.2891-0.9219,0.2891-1.4355V39.5059z"/>
					<path id="XMLID_196_" class="st8" d="M178.626,57.3496h-2.3906c-0.1709,0-0.3301-0.0879-0.4219-0.2314l-6.0938-9.5879h-2.0654
						v9.3193c0,0.2764-0.2236,0.5-0.5,0.5h-2.0693c-0.2764,0-0.5-0.2236-0.5-0.5V33.8418c0-0.2764,0.2236-0.5,0.5-0.5h7.2998
						c0.8447,0,1.6504,0.1621,2.3955,0.4819c0.7412,0.3188,1.3975,0.7622,1.9531,1.3179c0.5557,0.5547,0.999,1.2148,1.3174,1.9619
						c0.3193,0.7471,0.4814,1.5557,0.4814,2.4023v1.8613c0,0.8457-0.1621,1.6543-0.4814,2.4023
						c-0.3184,0.7461-0.7617,1.4063-1.3174,1.9619s-1.2119,0.999-1.9521,1.3174c-0.4844,0.208-0.9941,0.3486-1.5234,0.4219
						l5.79,9.1104c0.0977,0.1543,0.1045,0.3496,0.0166,0.5098C178.9766,57.25,178.8086,57.3496,178.626,57.3496z M176.5098,56.3496
						h1.2061l-5.7529-9.0508c-0.0977-0.1543-0.1045-0.3496-0.0166-0.5088c0.0879-0.1602,0.2559-0.2598,0.4385-0.2598
						c0.71,0,1.3828-0.1348,2.001-0.3994c0.623-0.2686,1.1748-0.6406,1.6406-1.1064c0.4648-0.4648,0.8369-1.0195,1.1045-1.6475
						c0.2666-0.623,0.4014-1.2998,0.4014-2.0098v-1.8613c0-0.7109-0.1348-1.3867-0.4014-2.0098
						c-0.2676-0.6289-0.6387-1.1826-1.1045-1.6475c-0.4658-0.4658-1.0176-0.8379-1.6416-1.1064
						c-0.6182-0.2656-1.292-0.4004-2-0.4004h-6.7998v22.0078h1.0693v-9.3193c0-0.2764,0.2236-0.5,0.5-0.5h2.8398
						c0.1709,0,0.3301,0.0879,0.4219,0.2314L176.5098,56.3496z M172.2891,45.5576h-5.1348c-0.2764,0-0.5-0.2236-0.5-0.5v-9.2422
						c0-0.2764,0.2236-0.5,0.5-0.5h5.1348c0.5781,0,1.1279,0.1113,1.6338,0.3301c0.501,0.2178,0.9453,0.5205,1.3213,0.9023
						c0.374,0.3799,0.6729,0.8252,0.8887,1.3223c0.2188,0.5068,0.3301,1.0566,0.3301,1.6357v1.8613
						c0,0.5791-0.1113,1.1289-0.3301,1.6348c-0.2158,0.4971-0.5146,0.9424-0.8887,1.3232c-0.376,0.3818-0.8203,0.6846-1.3203,0.9023
						C173.417,45.4463,172.8672,45.5576,172.2891,45.5576z M167.6543,44.5576h4.6348c0.4404,0,0.8574-0.083,1.2373-0.248
						c0.3818-0.166,0.7197-0.3965,1.0049-0.6855c0.2871-0.292,0.5176-0.6357,0.6836-1.0195c0.165-0.3799,0.248-0.7959,0.248-1.2373
						v-1.8613c0-0.4414-0.083-0.8584-0.248-1.2383c-0.166-0.3838-0.3965-0.7266-0.6836-1.0186
						c-0.2852-0.2891-0.623-0.5195-1.0059-0.6855c-0.3789-0.165-0.7959-0.248-1.2363-0.248h-4.6348V44.5576z"/>
				</g>
				<g id="XMLID_194_">
					<path id="XMLID_134_" class="st8" d="M182.5732,56.8496V33.8418h12.9473v1.9736h-10.8779v8.5518h8.8086v1.9736h-8.8086v8.5352
						h10.8779v1.9736H182.5732z"/>
					<path id="XMLID_191_" class="st8" d="M195.5205,57.3496h-12.9473c-0.2764,0-0.5-0.2236-0.5-0.5V33.8418
						c0-0.2764,0.2236-0.5,0.5-0.5h12.9473c0.2764,0,0.5,0.2236,0.5,0.5v1.9736c0,0.2764-0.2236,0.5-0.5,0.5h-10.3779v7.5518h8.3086
						c0.2764,0,0.5,0.2236,0.5,0.5v1.9736c0,0.2764-0.2236,0.5-0.5,0.5h-8.3086v7.5352h10.3779c0.2764,0,0.5,0.2236,0.5,0.5v1.9736
						C196.0205,57.126,195.7969,57.3496,195.5205,57.3496z M183.0732,56.3496h11.9473V55.376h-10.3779c-0.2764,0-0.5-0.2236-0.5-0.5
						v-8.5352c0-0.2764,0.2236-0.5,0.5-0.5h8.3086v-0.9736h-8.3086c-0.2764,0-0.5-0.2236-0.5-0.5v-8.5518
						c0-0.2764,0.2236-0.5,0.5-0.5h10.3779v-0.9736h-11.9473V56.3496z"/>
				</g>
			</g>
		</g>
	</g>
</g>
</svg>
