<?xml version="1.0" encoding="utf-8"?>
<!-- Generator: Adobe Illustrator 19.0.0, SVG Export Plug-In . SVG Version: 6.00 Build 0)  -->
<svg version="1.1" id="Capa_1" xmlns="http://www.w3.org/2000/svg" xmlns:xlink="http://www.w3.org/1999/xlink" x="0px" y="0px"
	 viewBox="0 0 591.1948 182" style="enable-background:new 0 0 591.1948 182;" xml:space="preserve">
<style type="text/css">
	.st0{fill:#0F0F0F;}
	.st1{fill:#3D3D3D;}
	.st2{fill:#C7C7C7;}
	.st3{fill:#E3C67D;}
	.st4{fill:#3B86B1;}
	.st5{fill:#F9F19D;}
	.st6{fill:#A3781F;}
	.st7{fill:#42210B;}
</style>
<g id="XMLID_606_">
	<g id="XMLID_391_">
		<ellipse id="XMLID_396_" class="st0" cx="32.8493" cy="21.2129" rx="8.7004" ry="7.9922"/>
		<ellipse id="XMLID_469_" class="st1" cx="31.7138" cy="19.7905" rx="5.5303" ry="5.0806"/>
		<path id="XMLID_471_" class="st2" d="M27.3081,18.7563c0-1.7255,1.3623-3.1254,3.041-3.1254
			C32.0273,15.6309,27.3081,20.4829,27.3081,18.7563z"/>
	</g>
	<g id="XMLID_599_">
		<path id="XMLID_4_" class="st3" d="M5,125H0V27.8164l0.0186-0.1514C0.0522,27.3887,3.6997,0,29.3721,0H579v5H29.3721
			C8.709,5,5.2915,26.0093,5,28.1313V125z"/>
		<path id="XMLID_11_" class="st4" d="M568.9863,182H59.2559c-1.3809,0-2.5-1.1191-2.5-2.5s1.1191-2.5,2.5-2.5h509.7305
			c4.9912,0,8.8066-1.4883,11.6631-4.7178c7.4873-8.4619,5.457-25.2065,5.4365-25.3755c-0.0117-0.1016-0.0859-0.1646-0.0859-0.2661
			V67.1821c0-1.3809,1.1191-2.5,2.5-2.5s2.5,1.1191,2.5,2.5v79.312c0,1.9912,1.9766,19.3096-6.6621,29.0889
			C580.5293,179.8945,575.4092,182,568.9863,182z"/>
		<g id="XMLID_3_">
			<path id="XMLID_108_" class="st5" d="M585.5,73.5c-0.8281,0-1.5-0.6714-1.5-1.5v-6c0-0.8286,0.6719-1.5,1.5-1.5
				s1.5,0.6714,1.5,1.5v6C587,72.8286,586.3281,73.5,585.5,73.5z"/>
			<path id="XMLID_107_" class="st5" d="M563.8047,178c-0.0029,0-0.0068,0-0.0107,0h-5.125c-0.8281,0-1.5-0.6719-1.5-1.5
				s0.6719-1.5,1.5-1.5h5.126c0.0029,0,0.0059,0,0.0098,0c2.3594,0,4.5488-0.3301,6.5078-0.9805
				c0.7881-0.2607,1.6348,0.1641,1.8965,0.9512c0.2607,0.7861-0.165,1.6348-0.9512,1.8965
				C568.9941,177.6191,566.4863,178,563.8047,178z M546.4072,178h-12.2285c-0.8281,0-1.5-0.6719-1.5-1.5s0.6719-1.5,1.5-1.5h12.2285
				c0.8281,0,1.5,0.6719,1.5,1.5S547.2354,178,546.4072,178z M521.9688,178h-12.2012c-0.8281,0-1.5-0.6719-1.5-1.5
				s0.6719-1.5,1.5-1.5h12.2012c0.8281,0,1.5,0.6719,1.5,1.5S522.7969,178,521.9688,178z M497.5713,178h-12.1914
				c-0.8281,0-1.5-0.6719-1.5-1.5s0.6719-1.5,1.5-1.5h12.1914c0.8281,0,1.5,0.6719,1.5,1.5S498.3994,178,497.5713,178z
				 M473.1934,178h-12.1865c-0.8281,0-1.5-0.6719-1.5-1.5s0.6719-1.5,1.5-1.5h12.1865c0.8281,0,1.5,0.6719,1.5,1.5
				S474.0215,178,473.1934,178z M448.8232,178h-12.1816c-0.8281,0-1.5-0.6719-1.5-1.5s0.6719-1.5,1.5-1.5h12.1816
				c0.8281,0,1.5,0.6719,1.5,1.5S449.6514,178,448.8232,178z M424.46,178h-12.1797c-0.8281,0-1.5-0.6719-1.5-1.5s0.6719-1.5,1.5-1.5
				H424.46c0.8281,0,1.5,0.6719,1.5,1.5S425.2881,178,424.46,178z M400.1025,178h-12.1787c-0.8281,0-1.5-0.6719-1.5-1.5
				s0.6719-1.5,1.5-1.5h12.1787c0.8281,0,1.5,0.6719,1.5,1.5S400.9307,178,400.1025,178z M375.7451,178h-12.1768
				c-0.8281,0-1.5-0.6719-1.5-1.5s0.6719-1.5,1.5-1.5h12.1768c0.8281,0,1.5,0.6719,1.5,1.5S376.5732,178,375.7451,178z
				 M351.3906,178H339.252c-0.8281,0-1.5-0.6719-1.5-1.5s0.6719-1.5,1.5-1.5h12.1387c0.8281,0,1.5,0.6719,1.5,1.5
				S352.2188,178,351.3906,178z M327.0801,178h-12.209c-0.8286,0-1.5-0.6719-1.5-1.5s0.6714-1.5,1.5-1.5h12.209
				c0.8281,0,1.5,0.6719,1.5,1.5S327.9082,178,327.0801,178z M302.6934,178h-12.1768c-0.8286,0-1.5-0.6719-1.5-1.5
				s0.6714-1.5,1.5-1.5h12.1768c0.8286,0,1.5,0.6719,1.5,1.5S303.522,178,302.6934,178z M278.3408,178h-12.1772
				c-0.8286,0-1.5-0.6719-1.5-1.5s0.6714-1.5,1.5-1.5h12.1772c0.8286,0,1.5,0.6719,1.5,1.5S279.1694,178,278.3408,178z
				 M253.9858,178h-12.1777c-0.8286,0-1.5-0.6719-1.5-1.5s0.6714-1.5,1.5-1.5h12.1777c0.8286,0,1.5,0.6719,1.5,1.5
				S254.8145,178,253.9858,178z M229.6294,178h-12.1787c-0.8286,0-1.5-0.6719-1.5-1.5s0.6714-1.5,1.5-1.5h12.1787
				c0.8286,0,1.5,0.6719,1.5,1.5S230.458,178,229.6294,178z M205.27,178h-12.1812c-0.8286,0-1.5-0.6719-1.5-1.5s0.6714-1.5,1.5-1.5
				H205.27c0.8286,0,1.5,0.6719,1.5,1.5S206.0986,178,205.27,178z M180.9072,178h-12.1836c-0.8286,0-1.5-0.6719-1.5-1.5
				s0.6714-1.5,1.5-1.5h12.1836c0.8286,0,1.5,0.6719,1.5,1.5S181.7358,178,180.9072,178z M156.5381,178h-12.188
				c-0.8286,0-1.5-0.6719-1.5-1.5s0.6714-1.5,1.5-1.5h12.188c0.8286,0,1.5,0.6719,1.5,1.5S157.3667,178,156.5381,178z M132.1582,178
				h-12.1958c-0.8286,0-1.5-0.6719-1.5-1.5s0.6714-1.5,1.5-1.5h12.1958c0.8286,0,1.5,0.6719,1.5,1.5S132.9868,178,132.1582,178z
				 M107.7612,178H95.5493c-0.8286,0-1.5-0.6719-1.5-1.5s0.6714-1.5,1.5-1.5h12.2119c0.8286,0,1.5,0.6719,1.5,1.5
				S108.5898,178,107.7612,178z M83.3193,178H71.0552c-0.8286,0-1.5-0.6719-1.5-1.5s0.6714-1.5,1.5-1.5h12.2642
				c0.8286,0,1.5,0.6719,1.5,1.5S84.1479,178,83.3193,178z M580.208,169.6523c-0.2891,0-0.5811-0.083-0.8379-0.2568
				c-0.6875-0.4639-0.8682-1.3955-0.4043-2.082c1.9199-2.8447,3.3271-6.4473,4.1807-10.708
				c0.1631-0.8125,0.9531-1.3359,1.7656-1.1758c0.8125,0.1631,1.3389,0.9531,1.1758,1.7656
				c-0.9316,4.6514-2.4922,8.6211-4.6357,11.7959C581.1621,169.4209,580.6895,169.6523,580.208,169.6523z M585.5,146.2842
				c-0.8281,0-1.5-0.6719-1.5-1.5V132.627c0-0.8281,0.6719-1.5,1.5-1.5s1.5,0.6719,1.5,1.5v12.1572
				C587,145.6123,586.3281,146.2842,585.5,146.2842z M585.5,121.9707c-0.8281,0-1.5-0.6719-1.5-1.5v-12.1572
				c0-0.8281,0.6719-1.5,1.5-1.5s1.5,0.6719,1.5,1.5v12.1572C587,121.2988,586.3281,121.9707,585.5,121.9707z M585.5,97.6572
				c-0.8281,0-1.5-0.6719-1.5-1.5V84c0-0.8286,0.6719-1.5,1.5-1.5s1.5,0.6714,1.5,1.5v12.1572
				C587,96.9854,586.3281,97.6572,585.5,97.6572z"/>
			<path id="XMLID_110_" class="st5" d="M60,178h-6c-0.8286,0-1.5-0.6719-1.5-1.5s0.6714-1.5,1.5-1.5h6c0.8286,0,1.5,0.6719,1.5,1.5
				S60.8286,178,60,178z"/>
		</g>
		<path id="XMLID_486_" class="st6" d="M4,124.9702V23.8413c0,0,2.9204-18.7432,19.8672-21.6704
			c16.9468-2.9277,126.6142,0,127.4526,0c0.8384,0-114.6621,3.2192-114.6621,3.2192S9.0718,2.7212,6.4336,24.8711
			C3.7949,47.0215,4,124.9702,4,124.9702z"/>
		<g id="XMLID_600_">
			<g id="XMLID_33_">
				<path id="XMLID_34_" class="st7" d="M44.772,79.9512v-5.7529h2.9502c2.2368,0,3.626-0.2642,4.167-0.793
					c0.5405-0.5283,0.8115-1.8252,0.8115-3.8906v-29.834c0-2.0654-0.271-3.3618-0.8115-3.8906
					c-0.541-0.5283-1.9302-0.793-4.167-0.793H44.772v-5.7163h49.8589v20.1724h-5.7529c-0.1475-5.7773-1.0879-9.6309-2.8213-11.561
					c-1.7334-1.9297-5.2432-2.895-10.5288-2.895H63.3584v15.5625h2.8765c3.1714,0,5.2485-0.5469,6.2324-1.6411
					c0.9829-1.0938,1.5977-3.6079,1.8438-7.5415l5.7529-0.0371V66.749l-5.7529-0.0371c-0.2212-4.3516-0.8242-7.1602-1.8071-8.4263
					c-0.9834-1.2661-3.0488-1.8994-6.1953-1.8994h-2.9502v17.812h13.2759c4.4253,0,7.4614-1.0264,9.1089-3.0791
					c1.647-2.0527,2.6919-6.2632,3.1348-12.6309h5.7529v21.4629H44.772z"/>
				<path id="XMLID_36_" class="st7" d="M101.7852,29.2808h27.1787v5.7163h-3.54c-2.2622,0-3.6694,0.271-4.2227,0.811
					c-0.5532,0.5415-0.8296,1.832-0.8296,3.8726v34.5176h9.4404c3.3682,0,5.8882-0.2886,7.5601-0.8667
					c1.6719-0.5771,2.8765-1.5425,3.6143-2.895c0.7129-1.3027,1.2412-2.8882,1.5854-4.7573
					c0.3442-1.8677,0.5166-4.1055,0.5166-6.7114v-0.9219h5.8267v21.9053h-47.1299v-5.7529h2.9502c2.2368,0,3.626-0.2642,4.167-0.793
					c0.5405-0.5283,0.8115-1.8252,0.8115-3.8906v-29.834c0-2.0654-0.271-3.3618-0.8115-3.8906
					c-0.541-0.5283-1.9302-0.793-4.167-0.793h-2.9502V29.2808z"/>
				<path id="XMLID_38_" class="st7" d="M196.3398,69.5146c0,2.041,0.2773,3.3315,0.8301,3.8721
					c0.5537,0.541,1.96,0.8115,4.2227,0.8115h3.54v5.7529h-27.1787v-5.7529h2.9502c2.2363,0,3.626-0.2642,4.167-0.793
					c0.541-0.5283,0.8115-1.8252,0.8115-3.8906v-29.834c0-2.0654-0.2705-3.3618-0.8115-3.8906
					c-0.541-0.5283-1.9307-0.793-4.167-0.793h-2.9502v-5.7163h26.6621c6.835,0,11.9912,1.168,15.4707,3.5034
					c3.4785,2.3359,5.2188,5.8027,5.2188,10.3999c0,2.5073-0.4746,4.6958-1.4199,6.564c-0.9473,1.8687-2.3789,3.4546-4.2969,4.7573
					c-1.377,0.9097-3.2949,1.5615-5.7529,1.9546c-2.459,0.3936-5.8877,0.5898-10.2891,0.5898h-7.0068V69.5146z M196.3398,51.334
					h5.0527c4.6465,0,7.9102-0.6206,9.791-1.8623c1.8809-1.2412,2.8213-3.3374,2.8213-6.2876c0-3.0239-0.9033-5.1445-2.7109-6.3618
					c-1.8066-1.2168-5.3047-1.8252-10.4912-1.8252h-4.4629V51.334z"/>
				<path id="XMLID_41_" class="st7" d="M248.0791,69.5146c0,2.041,0.2773,3.3315,0.8301,3.8721
					c0.5537,0.541,1.96,0.8115,4.2227,0.8115h3.54v5.7529h-27.1787v-5.7529h2.9502c2.2363,0,3.626-0.2642,4.167-0.793
					c0.541-0.5283,0.8115-1.8252,0.8115-3.8906v-29.834c0-2.0654-0.2705-3.3618-0.8115-3.8906
					c-0.541-0.5283-1.9307-0.793-4.167-0.793h-2.9502v-5.7163h30.2764c6.3428,0,11.0508,0.9961,14.124,2.9873
					s4.6104,5.0522,4.6104,9.1826c0,3.6387-1.2236,6.5459-3.6699,8.7217s-6.0537,3.5464-10.8232,4.1118
					c3.6143,0.541,6.1406,1.5674,7.5781,3.0791c1.4385,1.5122,2.2803,4.1367,2.5264,7.8735l0.332,4.5361
					c0.123,1.77,0.3438,2.9258,0.6641,3.4663c0.3193,0.541,0.8477,0.8115,1.585,0.8115c1.4756,0,2.2617-2.7661,2.3604-8.2974
					c0-0.0981,0-0.1719,0-0.2217h4.7939c0.0498,0.3198,0.0801,0.6582,0.0928,1.0142c0.0117,0.3569,0.0186,0.8667,0.0186,1.5308
					c0,4.6465-0.8428,8.0391-2.5264,10.1782c-1.6846,2.1387-4.3457,3.2085-7.9844,3.2085c-2.999,0-5.3467-0.8242-7.043-2.4712
					c-1.6973-1.6465-2.5947-3.9331-2.6924-6.8589l-0.2217-5.9375c-0.1475-3.958-1.0264-6.644-2.6367-8.0581
					c-1.6104-1.4131-4.665-2.1201-9.1641-2.1201h-3.6143V69.5146z M248.0791,50.2646h8.9248c3.5889,0,6.2197-0.6089,7.8916-1.8257
					s2.5078-3.1528,2.5078-5.8081c0-2.729-0.7988-4.6836-2.3965-5.8638c-1.5986-1.1802-4.3516-1.77-8.2607-1.77h-8.667V50.2646z"/>
				<path id="XMLID_44_" class="st7" d="M288.8662,54.5791c0-8.0146,2.5635-14.4746,7.6895-19.3794s11.8682-7.3569,20.2275-7.3569
					c8.3838,0,15.126,2.4521,20.2275,7.3569s7.6523,11.3647,7.6523,19.3794c0,8.0396-2.5576,14.5181-7.6709,19.4346
					c-5.1143,4.9175-11.8506,7.376-20.209,7.376c-8.3594,0-15.1016-2.4648-20.2275-7.394S288.8662,62.5942,288.8662,54.5791z
					 M300.7783,54.5791c0,6.54,1.4131,11.6353,4.2412,15.2861c2.8262,3.6509,6.748,5.4761,11.7637,5.4761
					s8.9307-1.8188,11.7461-5.458c2.8145-3.6382,4.2217-8.7397,4.2217-15.3042c0-6.5396-1.4014-11.6221-4.2041-15.249
					c-2.8027-3.626-6.7236-5.4395-11.7637-5.4395c-5.0156,0-8.9375,1.8135-11.7637,5.4395
					C302.1914,42.957,300.7783,48.0396,300.7783,54.5791z"/>
				<path id="XMLID_47_" class="st7" d="M390.6865,60.332h6.4902c-0.4922,6.7368-2.5635,11.9429-6.2139,15.6177
					c-3.6514,3.6758-8.5869,5.5137-14.8066,5.5137c-3.7129,0-7.0684-0.5781-10.0674-1.7334c-3-1.1553-5.6797-2.9253-8.04-5.3105
					c-2.6055-2.5815-4.5791-5.562-5.918-8.9429c-1.3408-3.3799-2.0107-7.0127-2.0107-10.8975c0-3.9092,0.6514-7.4917,1.9551-10.75
					c1.3027-3.2573,3.2695-6.2012,5.9004-8.832c2.3848-2.3843,5.0518-4.1855,8.0029-5.4028
					c2.9502-1.2168,6.1211-1.8252,9.5137-1.8252c2.7041,0,5.2559,0.4238,7.6523,1.272c2.3975,0.8486,4.751,2.1577,7.0625,3.9277
					l1.5117-4.5361h5.458v20.7622h-5.8271c-0.5898-4.8428-2.1445-8.5923-4.665-11.2476c-2.5195-2.6553-5.7705-3.9829-9.7539-3.9829
					c-4.6465,0-8.292,1.8564-10.9346,5.5688s-3.9639,8.8506-3.9639,15.4146c0,6.2451,1.3145,11.0698,3.9463,14.4746
					c2.6299,3.4058,6.3301,5.1079,11.0996,5.1079c3.7119,0,6.7236-1.2109,9.0352-3.6328
					C388.4238,68.4766,389.9482,64.9546,390.6865,60.332z"/>
				<path id="XMLID_49_" class="st7" d="M402.5986,79.9512v-5.7529h2.9502c2.2363,0,3.626-0.2642,4.167-0.793
					c0.541-0.5283,0.8115-1.8252,0.8115-3.8906v-29.834c0-2.0654-0.2705-3.3618-0.8115-3.8906
					c-0.541-0.5283-1.9307-0.793-4.167-0.793h-2.9502v-5.7163h49.8584v20.1724h-5.7529c-0.1475-5.7773-1.0879-9.6309-2.8203-11.561
					c-1.7334-1.9297-5.2432-2.895-10.5293-2.895h-12.1699v15.5625h2.877c3.1719,0,5.249-0.5469,6.2324-1.6411
					c0.9824-1.0938,1.5977-3.6079,1.8438-7.5415l5.7529-0.0371V66.749l-5.7529-0.0371c-0.2217-4.3516-0.8242-7.1602-1.8066-8.4263
					c-0.9844-1.2661-3.0488-1.8994-6.1963-1.8994h-2.9502v17.812h13.2764c4.4258,0,7.4619-1.0264,9.1094-3.0791
					c1.6465-2.0527,2.6914-6.2632,3.1338-12.6309h5.7529v21.4629H402.5986z"/>
				<path id="XMLID_51_" class="st7" d="M461.1973,79.9512V59.0415h5.9004c0.8115,5.04,2.6787,8.894,5.6055,11.561
					c2.9248,2.668,6.7236,4.0015,11.3945,4.0015c3.3682,0,5.9434-0.5654,7.7266-1.6963c1.7822-1.1309,2.6738-2.7661,2.6738-4.9048
					c0-1.918-0.6826-3.479-2.0469-4.6836s-3.5469-2.1509-6.5459-2.8398l-8.2236-1.9175
					c-5.9004-1.3765-10.1484-3.2388-12.7412-5.5869c-2.5947-2.3477-3.8906-5.4888-3.8906-9.4224
					c0-4.7695,1.6592-8.5928,4.9785-11.4692c3.3184-2.8765,7.7559-4.3145,13.3125-4.3145c2.7529,0,5.3291,0.4238,7.7256,1.272
					c2.3975,0.8486,4.7266,2.1577,6.9883,3.9277l2.6553-3.688h4.5361v19.1768h-5.7529c-0.8604-4.5972-2.6738-8.1621-5.4395-10.6948
					c-2.7656-2.5317-6.2383-3.7983-10.418-3.7983c-3.0488,0-5.4092,0.5718-7.0801,1.7148
					c-1.6729,1.1431-2.5078,2.7354-2.5078,4.7759c0,1.7212,0.5898,3.0977,1.7695,4.1304c1.1807,1.0322,3.0732,1.8438,5.6797,2.4336
					l10.2148,2.3604c5.4082,1.2295,9.4531,3.1528,12.1328,5.7715c2.6797,2.6182,4.0195,5.9556,4.0195,10.0122
					c0,4.7939-1.7578,8.7095-5.2734,11.7456c-3.5156,3.0366-8.0762,4.5547-13.6816,4.5547c-2.8271,0-5.6299-0.5166-8.4082-1.5493
					c-2.7783-1.0322-5.5928-2.6055-8.4443-4.7202l-1.6602,4.7573H461.1973z"/>
				<path id="XMLID_53_" class="st7" d="M510.6494,54.5791c0-8.0146,2.5635-14.4746,7.6895-19.3794s11.8682-7.3569,20.2275-7.3569
					c8.3838,0,15.126,2.4521,20.2275,7.3569s7.6523,11.3647,7.6523,19.3794c0,8.0396-2.5576,14.5181-7.6709,19.4346
					c-5.1143,4.9175-11.8506,7.376-20.209,7.376c-8.3594,0-15.1016-2.4648-20.2275-7.394S510.6494,62.5942,510.6494,54.5791z
					 M522.5615,54.5791c0,6.54,1.4131,11.6353,4.2412,15.2861c2.8262,3.6509,6.748,5.4761,11.7637,5.4761
					s8.9307-1.8188,11.7461-5.458c2.8145-3.6382,4.2217-8.7397,4.2217-15.3042c0-6.5396-1.4014-11.6221-4.2041-15.249
					c-2.8027-3.626-6.7236-5.4395-11.7637-5.4395c-5.0156,0-8.9375,1.8135-11.7637,5.4395
					C523.9746,42.957,522.5615,48.0396,522.5615,54.5791z"/>
			</g>
			<g id="XMLID_1_">
				<g id="XMLID_106_">
					<path id="XMLID_5_" class="st4" d="M85.3652,151.6133c-0.854,1.9863-2.0254,3.7246-3.5151,5.2148s-3.2358,2.6621-5.2383,3.5156
						c-2.002,0.8535-4.1362,1.2803-6.4019,1.2803H49.0713V94.856H70.21c2.2656,0,4.3999,0.4272,6.4019,1.2808
						c2.0024,0.8535,3.7485,2.0254,5.2383,3.5156s2.6611,3.2354,3.5151,5.2383c0.8535,2.002,1.2808,4.1357,1.2808,6.4014v33.9424
						C86.646,147.501,86.2188,149.627,85.3652,151.6133z M80.6396,111.292c0-1.4893-0.2793-2.8789-0.8384-4.167
						c-0.5586-1.2871-1.3267-2.4219-2.3047-3.3984c-0.9775-0.9785-2.1113-1.7461-3.3989-2.3047
						c-1.2881-0.5596-2.6772-0.8389-4.167-0.8389h-14.853v55.3135h14.853c1.4897,0,2.8789-0.2793,4.167-0.8379
						c1.2876-0.5586,2.4214-1.3184,3.3989-2.2813c0.978-0.9609,1.7461-2.0869,2.3047-3.375
						c0.5591-1.2881,0.8384-2.6777,0.8384-4.168V111.292z"/>
					<path id="XMLID_101_" class="st4" d="M70.21,162.124H49.0713c-0.2764,0-0.5-0.2236-0.5-0.5V94.856c0-0.2764,0.2236-0.5,0.5-0.5
						H70.21c2.3223,0,4.5425,0.4443,6.5981,1.3208c2.0518,0.875,3.8672,2.0938,5.3955,3.6221
						c1.5283,1.5293,2.7471,3.3438,3.6216,5.3955c0.8765,2.0557,1.3208,4.2754,1.3208,6.5977v33.9424
						c0,2.3232-0.4443,4.5361-1.3213,6.5762l0,0c-0.8755,2.0361-2.0938,3.8438-3.6211,5.3711
						c-1.5283,1.5283-3.3438,2.7471-5.3955,3.6221C74.7529,161.6797,72.5332,162.124,70.21,162.124z M49.5713,161.124H70.21
						c2.1875,0,4.2754-0.417,6.2056-1.2402c1.9341-0.8242,3.6436-1.9717,5.0811-3.4092c1.437-1.4375,2.584-3.1396,3.4092-5.0586l0,0
						c0.8228-1.915,1.2402-3.9951,1.2402-6.1816V111.292c0-2.1865-0.4175-4.2744-1.2407-6.2051
						c-0.8242-1.9336-1.9712-3.6426-3.4087-5.0811c-1.4375-1.4375-3.147-2.585-5.0811-3.4092
						c-1.9307-0.8232-4.0186-1.2407-6.2056-1.2407H49.5713V161.124z M69.9307,156.3965h-14.853c-0.2764,0-0.5-0.2236-0.5-0.5
						V100.583c0-0.2764,0.2236-0.5,0.5-0.5h14.853c1.5527,0,3.0215,0.2959,4.3662,0.8799c1.3418,0.583,2.5376,1.3936,3.5532,2.4102
						c1.0161,1.0146,1.8271,2.21,2.4097,3.5527c0.584,1.3447,0.8799,2.8145,0.8799,4.3662v33.9424
						c0,1.5527-0.2959,3.0225-0.8799,4.3672c-0.5825,1.3428-1.394,2.5313-2.4126,3.5322c-1.0151,1-2.2095,1.8018-3.5503,2.3838
						C72.9512,156.1006,71.4824,156.3965,69.9307,156.3965z M55.5776,155.3965h14.353c1.4141,0,2.749-0.2676,3.9683-0.7969
						c1.2271-0.5322,2.3198-1.2656,3.2466-2.1787c0.9268-0.9102,1.666-1.9932,2.1973-3.2178
						c0.5288-1.2188,0.7969-2.5537,0.7969-3.9688V111.292c0-1.4141-0.2681-2.749-0.7969-3.9678
						c-0.5327-1.2266-1.2725-2.3184-2.1997-3.2441c-0.9268-0.9277-2.0181-1.668-3.2446-2.1992
						c-1.2183-0.5293-2.5532-0.7979-3.9678-0.7979h-14.353V155.3965z"/>
				</g>
				<g id="XMLID_99_">
					<path id="XMLID_7_" class="st4" d="M100.9399,161.624V94.856h37.5747v5.7271h-31.5684v24.8174h25.562v5.7266h-25.562v24.7695
						h31.5684v5.7275H100.9399z"/>
					<path id="XMLID_96_" class="st4" d="M138.5146,162.124h-37.5747c-0.2764,0-0.5-0.2236-0.5-0.5V94.856
						c0-0.2764,0.2236-0.5,0.5-0.5h37.5747c0.2764,0,0.5,0.2236,0.5,0.5v5.7271c0,0.2764-0.2236,0.5-0.5,0.5h-31.0684v23.8174
						h25.062c0.2764,0,0.5,0.2236,0.5,0.5v5.7266c0,0.2764-0.2236,0.5-0.5,0.5h-25.062v23.7695h31.0684c0.2764,0,0.5,0.2236,0.5,0.5
						v5.7275C139.0146,161.9004,138.791,162.124,138.5146,162.124z M101.4399,161.124h36.5747v-4.7275h-31.0684
						c-0.2764,0-0.5-0.2236-0.5-0.5V131.127c0-0.2764,0.2236-0.5,0.5-0.5h25.062v-4.7266h-25.062c-0.2764,0-0.5-0.2236-0.5-0.5
						V100.583c0-0.2764,0.2236-0.5,0.5-0.5h31.0684V95.356h-36.5747V161.124z"/>
				</g>
				<g id="XMLID_95_">
					<path id="XMLID_16_" class="st4" d="M208.4951,146.166c0,2.2656-0.458,4.3926-1.373,6.3789
						c-0.916,1.9863-2.1426,3.7246-3.6787,5.2148s-3.3213,2.6621-5.3545,3.5156s-4.1826,1.2793-6.4482,1.2793h-4.7959
						c-2.2666,0-4.416-0.4258-6.4492-1.2793s-3.8174-2.0254-5.3545-3.5156c-1.5361-1.4902-2.7627-3.2285-3.6777-5.2148
						c-0.916-1.9863-1.374-4.1133-1.374-6.3789v-2.6543l6.0068-0.9775v3.6318c0,1.4902,0.3027,2.8789,0.9082,4.167
						c0.6045,1.2881,1.4199,2.4209,2.4443,3.3994c1.0244,0.9775,2.2109,1.7461,3.5615,2.3047s2.7705,0.8379,4.2607,0.8379h4.1904
						c1.4893,0,2.9014-0.2793,4.2363-0.8379s2.5146-1.3271,3.5391-2.3047c1.0244-0.9785,1.8389-2.1113,2.4443-3.3994
						s0.9082-2.6768,0.9082-4.167v-2.002c0-2.2969-0.4502-4.2061-1.3506-5.7266c-0.9004-1.5215-2.0957-2.8174-3.585-3.8887
						c-1.4902-1.0703-3.1748-1.9785-5.0518-2.7236c-1.8789-0.7451-3.8105-1.4893-5.7969-2.2354
						c-1.9873-0.7441-3.9189-1.5664-5.7969-2.4668c-1.8789-0.9004-3.5615-2.0254-5.0518-3.376s-2.6855-3.0029-3.585-4.959
						c-0.9014-1.9561-1.3506-4.3604-1.3506-7.2168v-1.2568c0-2.2656,0.4268-4.3926,1.2803-6.3789s2.0254-3.7246,3.5156-5.2148
						c1.4893-1.4902,3.2354-2.6611,5.2383-3.5151c2.002-0.8535,4.1357-1.2808,6.4014-1.2808h4.2842
						c2.2656,0,4.3916,0.4272,6.3789,1.2808c1.9854,0.854,3.7246,2.0249,5.2139,3.5151c1.4902,1.4902,2.6621,3.2285,3.5156,5.2148
						s1.2803,4.1133,1.2803,6.3789v1.7227l-6.0059,0.9775v-2.7002c0-1.4902-0.2793-2.8789-0.8379-4.168
						c-0.5586-1.2871-1.3203-2.4121-2.2822-3.375c-0.9619-0.9619-2.0879-1.7227-3.375-2.2813
						c-1.2891-0.5586-2.6777-0.8379-4.167-0.8379h-3.7256c-1.4893,0-2.8789,0.2793-4.167,0.8379s-2.4209,1.3193-3.3984,2.2813
						c-0.9785,0.9629-1.7461,2.0879-2.3047,3.375c-0.5596,1.2891-0.8389,2.6777-0.8389,4.168v1.2568
						c0,2.1416,0.4502,3.9424,1.3506,5.4014s2.0957,2.709,3.585,3.748c1.4902,1.04,3.1738,1.9395,5.0518,2.7002
						s3.8105,1.5361,5.7969,2.3281s3.9189,1.6611,5.7969,2.6074c1.8779,0.9473,3.5625,2.1113,5.0518,3.4922
						c1.4902,1.3818,2.6846,3.0654,3.585,5.0518s1.3506,4.4082,1.3506,7.2637V146.166z"/>
					<path id="XMLID_18_" class="st4" d="M191.6406,163.0547h-4.7959c-2.3242,0-4.5591-0.4434-6.6426-1.3184
						c-2.0806-0.873-3.9341-2.0898-5.5093-3.6172c-1.5747-1.5283-2.8477-3.333-3.7837-5.3652
						c-0.9424-2.043-1.4199-4.2598-1.4199-6.5879v-2.6543c0-0.2451,0.1777-0.4541,0.4199-0.4932l6.0068-0.9775
						c0.1421-0.0283,0.292,0.0166,0.4038,0.1123c0.1118,0.0947,0.1763,0.2344,0.1763,0.3809v3.6318
						c0,1.4092,0.2896,2.7393,0.8608,3.9541c0.5747,1.2246,1.3608,2.3184,2.3369,3.251c0.9756,0.9307,2.1221,1.6729,3.4072,2.2041
						c1.2837,0.5303,2.6528,0.7998,4.0698,0.7998h4.1904c1.4155,0,2.7759-0.2686,4.0435-0.7988
						c1.2715-0.5322,2.4111-1.2744,3.3867-2.2051c0.9746-0.9307,1.7607-2.0244,2.3369-3.251
						c0.5713-1.2148,0.8608-2.5449,0.8608-3.9541v-2.002c0-2.1953-0.4312-4.0361-1.2808-5.4717
						c-0.8604-1.4541-2.02-2.7109-3.4468-3.7373c-1.4502-1.042-3.1138-1.9385-4.9443-2.665
						c-1.876-0.7441-3.8047-1.4873-5.7881-2.2324c-1.9883-0.7441-3.9526-1.5801-5.8374-2.4834
						c-1.9116-0.916-3.6514-2.0791-5.1714-3.457c-1.5347-1.3906-2.7803-3.1133-3.7031-5.1201
						c-0.9268-2.0107-1.3965-4.5088-1.3965-7.4258v-1.2568c0-2.3242,0.4443-4.5361,1.3208-6.5762
						c0.875-2.0361,2.0933-3.8428,3.6216-5.3711c1.5264-1.5273,3.3418-2.7456,5.3955-3.6216
						c2.0557-0.8765,4.2754-1.3208,6.5977-1.3208h4.2842c2.3223,0,4.5347,0.4443,6.5762,1.3213
						c2.0386,0.877,3.8452,2.0957,5.3701,3.6211c1.5283,1.5283,2.7466,3.335,3.6216,5.3711c0.8765,2.04,1.3208,4.252,1.3208,6.5762
						v1.7227c0,0.2451-0.1777,0.4541-0.4199,0.4932l-6.0054,0.9775c-0.146,0.0244-0.293-0.0176-0.4043-0.1123
						c-0.1118-0.0947-0.1763-0.2344-0.1763-0.3809v-2.7002c0-1.4141-0.2681-2.749-0.7969-3.9688
						c-0.5298-1.2217-1.2622-2.3057-2.1768-3.2207c-0.9126-0.9121-1.9961-1.6445-3.2207-2.1758
						c-1.2197-0.5293-2.5547-0.7969-3.9678-0.7969h-3.7256c-1.4141,0-2.749,0.2676-3.9683,0.7969
						c-1.2246,0.5313-2.3169,1.2637-3.2466,2.1787c-0.9268,0.9121-1.666,1.9941-2.1968,3.2178
						c-0.5288,1.2188-0.7974,2.5547-0.7974,3.9688v1.2568c0,2.0381,0.4292,3.7666,1.2759,5.1387
						c0.8608,1.3945,2.02,2.6055,3.4458,3.6006c1.4507,1.0127,3.1172,1.9033,4.9531,2.6465
						c1.8774,0.7607,3.8091,1.5361,5.7944,2.3271c1.9922,0.7949,3.9561,1.6777,5.8369,2.626
						c1.9126,0.9648,3.6509,2.166,5.1665,3.5723c1.5317,1.4199,2.7764,3.1729,3.7007,5.2119c0.9258,2.042,1.395,4.5557,1.395,7.4697
						v2.002c0,2.3281-0.4775,4.5439-1.4189,6.5879c-0.9375,2.0332-2.2109,3.8379-3.7847,5.3643
						c-1.5737,1.5273-3.4272,2.7441-5.5093,3.6182C196.1987,162.6113,193.9639,163.0547,191.6406,163.0547z M170.4893,143.9365
						v2.2295c0,2.1826,0.4468,4.2588,1.3281,6.1699c0.8843,1.9199,2.0859,3.624,3.5718,5.0654
						c1.4854,1.4395,3.2349,2.5879,5.1997,3.4131c1.9609,0.8232,4.0654,1.2402,6.2559,1.2402h4.7959
						c2.1899,0,4.2939-0.417,6.2549-1.2402c1.9663-0.8252,3.7158-1.9736,5.1997-3.4131c1.4854-1.4414,2.687-3.1455,3.5728-5.0654
						c0.8809-1.9121,1.3271-3.9873,1.3271-6.1699v-2.002c0-2.7715-0.4395-5.1455-1.3062-7.0576
						c-0.8687-1.916-2.0361-3.5625-3.4692-4.8916c-1.4473-1.3418-3.1084-2.4893-4.937-3.4121
						c-1.855-0.9346-3.792-1.8057-5.7568-2.5889c-1.9873-0.793-3.9209-1.5684-5.7993-2.3291
						c-1.9053-0.7725-3.6382-1.6982-5.1504-2.7539c-1.5386-1.0732-2.7915-2.3838-3.7241-3.8955
						c-0.9458-1.5322-1.4253-3.4385-1.4253-5.6641v-1.2568c0-1.5527,0.2964-3.0215,0.8804-4.3672
						c0.582-1.3408,1.3936-2.5293,2.4126-3.5322c1.0176-1.001,2.2119-1.8037,3.5503-2.3838c1.3452-0.583,2.814-0.8789,4.3657-0.8789
						h3.7256c1.5508,0,3.0195,0.2959,4.3657,0.8789c1.3403,0.582,2.5278,1.3848,3.5298,2.3867
						c1.0039,1.0049,1.8071,2.1924,2.3872,3.5293c0.5835,1.3467,0.8794,2.8154,0.8794,4.3672v2.1123l5.0059-0.8145v-1.2979
						c0-2.1875-0.417-4.2676-1.2397-6.1816c-0.8242-1.918-1.9717-3.6201-3.4097-5.0586c-1.4351-1.4355-3.1367-2.583-5.0581-3.4092
						c-1.9155-0.8228-3.9956-1.2402-6.1812-1.2402h-4.2842c-2.1865,0-4.2744,0.4175-6.2051,1.2407
						c-1.936,0.8257-3.6455,1.9722-5.0811,3.4087c-1.438,1.4385-2.5854,3.1406-3.4097,5.0586
						c-0.8228,1.9141-1.2397,3.9941-1.2397,6.1816v1.2568c0,2.7715,0.439,5.1289,1.3047,7.0078
						c0.8662,1.8838,2.0327,3.498,3.4668,4.7979c1.4478,1.3125,3.1074,2.4209,4.9321,3.2949
						c1.8579,0.8916,3.7944,1.7148,5.7559,2.4502c1.9897,0.7471,3.9243,1.4922,5.8057,2.2383
						c1.9067,0.7568,3.6426,1.6934,5.1592,2.7822c1.54,1.1074,2.793,2.4668,3.7236,4.04c0.9424,1.5918,1.4204,3.6045,1.4204,5.9814
						v2.002c0,1.5566-0.3218,3.0303-0.9556,4.3799c-0.6289,1.3379-1.4873,2.5313-2.5518,3.5479s-2.3066,1.8252-3.6914,2.4043
						c-1.3901,0.582-2.8804,0.877-4.4292,0.877h-4.1904c-1.5488,0-3.0469-0.2949-4.4517-0.876
						c-1.3999-0.5791-2.6504-1.3877-3.7158-2.4053c-1.0659-1.0176-1.9243-2.2119-2.5518-3.5479
						c-0.6338-1.3496-0.9556-2.8232-0.9556-4.3799v-3.0439L170.4893,143.9365z"/>
				</g>
				<g id="XMLID_92_">
					<path id="XMLID_19_" class="st4" d="M256.708,152.5449c-0.8545,1.9863-2.0254,3.7246-3.5156,5.2148
						c-1.4893,1.4902-3.2285,2.6621-5.2148,3.5156s-4.1133,1.2793-6.3789,1.2793h-4.749c-2.2656,0-4.3994-0.4258-6.4014-1.2793
						c-2.0029-0.8535-3.749-2.0254-5.2383-3.5156c-1.4902-1.4902-2.6621-3.2285-3.5156-5.2148s-1.2803-4.1133-1.2803-6.3789
						v-35.8516c0-2.2656,0.4268-4.3926,1.2803-6.3789s2.0254-3.7246,3.5156-5.2148c1.4893-1.4902,3.2354-2.6611,5.2383-3.5151
						c2.002-0.8535,4.1357-1.2808,6.4014-1.2808h4.749c2.2656,0,4.3926,0.4272,6.3789,1.2808
						c1.9863,0.854,3.7256,2.0249,5.2148,3.5151c1.4902,1.4902,2.6611,3.2285,3.5156,5.2148
						c0.8535,1.9863,1.2803,4.1133,1.2803,6.3789v35.8516C257.9883,148.4316,257.5615,150.5586,256.708,152.5449z
						 M251.9824,110.3145c0-1.4902-0.2793-2.8789-0.8389-4.168c-0.5586-1.2871-1.3193-2.4121-2.2813-3.375
						c-0.9619-0.9619-2.0879-1.7227-3.375-2.2813c-1.2891-0.5586-2.6777-0.8379-4.168-0.8379h-4.1904
						c-1.4893,0-2.8789,0.2793-4.167,0.8379s-2.4209,1.3193-3.3984,2.2813c-0.9785,0.9629-1.7461,2.0879-2.3047,3.375
						c-0.5596,1.2891-0.8389,2.6777-0.8389,4.168v35.8516c0,1.4902,0.2793,2.8789,0.8389,4.167
						c0.5586,1.2881,1.3262,2.4209,2.3047,3.3994c0.9775,0.9775,2.1104,1.7461,3.3984,2.3047s2.6777,0.8379,4.167,0.8379h4.1904
						c1.4902,0,2.8789-0.2793,4.168-0.8379c1.2871-0.5586,2.4131-1.3271,3.375-2.3047c0.9619-0.9785,1.7227-2.1113,2.2813-3.3994
						c0.5596-1.2881,0.8389-2.6768,0.8389-4.167V110.3145z"/>
					<path id="XMLID_87_" class="st4" d="M241.5986,163.0547h-4.749c-2.3242,0-4.5439-0.4443-6.5977-1.3193
						c-2.0522-0.875-3.8677-2.0938-5.3955-3.6221c-1.5283-1.5283-2.7466-3.335-3.6216-5.3711
						c-0.8765-2.04-1.3208-4.252-1.3208-6.5762v-35.8516c0-2.3242,0.4443-4.5361,1.3208-6.5762
						c0.875-2.0361,2.0933-3.8428,3.6216-5.3711c1.5264-1.5273,3.3418-2.7456,5.3955-3.6216
						c2.0557-0.8765,4.2754-1.3208,6.5977-1.3208h4.749c2.3232,0,4.5356,0.4443,6.5762,1.3213
						c2.0391,0.8765,3.8462,2.0947,5.3711,3.6211c1.5269,1.5264,2.7451,3.334,3.6216,5.3711c0.8765,2.04,1.3208,4.252,1.3208,6.5762
						v35.8516c0,2.3242-0.4443,4.5361-1.3208,6.5762l0,0c-0.8765,2.0371-2.0947,3.8447-3.6216,5.3711
						c-1.5264,1.5273-3.3335,2.7461-5.3711,3.6211C246.1367,162.6104,243.9243,163.0547,241.5986,163.0547z M236.8496,94.4248
						c-2.1865,0-4.2744,0.4175-6.2051,1.2407c-1.936,0.8257-3.6455,1.9722-5.0811,3.4087c-1.438,1.4385-2.5854,3.1406-3.4097,5.0586
						c-0.8228,1.9141-1.2397,3.9941-1.2397,6.1816v35.8516c0,2.1875,0.417,4.2676,1.2397,6.1816
						c0.8242,1.918,1.9717,3.6201,3.4097,5.0586c1.437,1.4375,3.1465,2.585,5.0806,3.4092
						c1.9292,0.8223,4.0166,1.2393,6.2056,1.2393h4.749c2.189,0,4.2686-0.417,6.1816-1.2383
						c1.9199-0.8252,3.6221-1.9727,5.0586-3.4102c1.4365-1.4365,2.584-3.1387,3.4097-5.0586
						c0.8228-1.915,1.2397-3.9941,1.2397-6.1816v-35.8516c0-2.1875-0.417-4.2676-1.2397-6.1816
						c-0.8257-1.9199-1.9731-3.6221-3.4097-5.0586c-1.4351-1.4365-3.1372-2.583-5.0586-3.4092
						c-1.915-0.8228-3.9951-1.2402-6.1816-1.2402H236.8496z M241.3193,157.375h-4.1904c-1.5518,0-3.0205-0.2959-4.3657-0.8789
						c-1.3398-0.5811-2.5352-1.3916-3.5532-2.4102c-1.0176-1.0176-1.8286-2.2139-2.4097-3.5537
						c-0.584-1.3447-0.8804-2.8135-0.8804-4.3662v-35.8516c0-1.5527,0.2964-3.0215,0.8804-4.3672
						c0.582-1.3408,1.3936-2.5293,2.4126-3.5322c1.0176-1.001,2.2119-1.8037,3.5503-2.3838c1.3452-0.583,2.814-0.8789,4.3657-0.8789
						h4.1904c1.5513,0,3.0205,0.2959,4.3667,0.8789c1.3403,0.582,2.5278,1.3848,3.5298,2.3867
						c1.0029,1.0039,1.8057,2.1914,2.3862,3.5293c0.584,1.3457,0.8804,2.8145,0.8804,4.3672v35.8516
						c0,1.5527-0.2964,3.0215-0.8804,4.3662c-0.5796,1.3369-1.3818,2.5322-2.3833,3.5508
						c-1.0024,1.0186-2.1909,1.8311-3.5322,2.4131C244.3398,157.0791,242.8706,157.375,241.3193,157.375z M237.1289,100.1523
						c-1.4141,0-2.749,0.2676-3.9683,0.7969c-1.2246,0.5313-2.3169,1.2637-3.2466,2.1787c-0.9268,0.9121-1.666,1.9941-2.1968,3.2178
						c-0.5288,1.2188-0.7974,2.5547-0.7974,3.9688v35.8516c0,1.415,0.2681,2.75,0.7974,3.9678
						c0.5313,1.2246,1.2715,2.3164,2.1997,3.2451c0.9287,0.9287,2.0205,1.6689,3.2437,2.1992
						c1.2192,0.5293,2.5542,0.7969,3.9683,0.7969h4.1904c1.4141,0,2.749-0.2676,3.9692-0.7969
						c1.2227-0.5303,2.3052-1.2695,3.2173-2.1963c0.915-0.9307,1.6479-2.0234,2.1792-3.248
						c0.5293-1.2178,0.7974-2.5527,0.7974-3.9678v-35.8516c0-1.4141-0.2686-2.75-0.7974-3.9688
						c-0.5308-1.2227-1.2632-2.3066-2.1763-3.2207c-0.9126-0.9121-1.9961-1.6445-3.2207-2.1758
						c-1.2197-0.5293-2.5547-0.7969-3.9688-0.7969H237.1289z"/>
				</g>
				<g id="XMLID_85_">
					<path id="XMLID_21_" class="st4" d="M278.3359,100.583v24.8174h25.5615v5.7266h-25.5615v30.4971h-6.0068V94.856h37.5742v5.7271
						H278.3359z"/>
					<path id="XMLID_82_" class="st4" d="M278.3359,162.124h-6.0068c-0.2764,0-0.5-0.2236-0.5-0.5V94.856
						c0-0.2764,0.2236-0.5,0.5-0.5h37.5742c0.2764,0,0.5,0.2236,0.5,0.5v5.7271c0,0.2764-0.2236,0.5-0.5,0.5h-31.0674v23.8174
						h25.0615c0.2764,0,0.5,0.2236,0.5,0.5v5.7266c0,0.2764-0.2236,0.5-0.5,0.5h-25.0615v29.9971
						C278.8359,161.9004,278.6123,162.124,278.3359,162.124z M272.8291,161.124h5.0068V131.127c0-0.2764,0.2236-0.5,0.5-0.5h25.0615
						v-4.7266h-25.0615c-0.2764,0-0.5-0.2236-0.5-0.5V100.583c0-0.2764,0.2236-0.5,0.5-0.5h31.0674V95.356h-36.5742V161.124z"/>
				</g>
				<g id="XMLID_81_">
					<path id="XMLID_23_" class="st4" d="M335.6514,100.583v61.041h-6.0059v-61.041h-15.9238V94.856h37.8535v5.7271H335.6514z"/>
					<path id="XMLID_78_" class="st4" d="M335.6514,162.124h-6.0059c-0.2764,0-0.5-0.2236-0.5-0.5v-60.541h-15.4238
						c-0.2764,0-0.5-0.2236-0.5-0.5V94.856c0-0.2764,0.2236-0.5,0.5-0.5h37.8535c0.2764,0,0.5,0.2236,0.5,0.5v5.7271
						c0,0.2764-0.2236,0.5-0.5,0.5h-15.4238v60.541C336.1514,161.9004,335.9277,162.124,335.6514,162.124z M330.1455,161.124h5.0059
						v-60.541c0-0.2764,0.2236-0.5,0.5-0.5h15.4238V95.356h-36.8535v4.7271h15.4238c0.2764,0,0.5,0.2236,0.5,0.5V161.124z"/>
				</g>
				<g id="XMLID_77_">
					<path id="XMLID_25_" class="st4" d="M405.7256,161.624h-3.1201l-12.9902-50.2393l-0.1865-2.6074l-0.2793,2.6074
						l-12.8965,50.2393h-3.1201L355.3936,94.856h6.0059l13.084,50.7515l0.1855,2.4668l0.1865-2.4668l12.8506-50.7515h3.3525
						l12.8506,50.7515l0.1865,2.4668l0.2324-2.4668l13.0371-50.7515h6.0068L405.7256,161.624z"/>
					<path id="XMLID_27_" class="st4" d="M405.7256,162.124h-3.1201c-0.2275,0-0.4268-0.1543-0.4844-0.375l-12.7402-49.2744
						l-12.6436,49.2734c-0.0566,0.2217-0.2559,0.376-0.4844,0.376h-3.1201c-0.2266,0-0.4248-0.1523-0.4834-0.3721l-17.7393-66.7676
						c-0.04-0.1499-0.0078-0.3101,0.0869-0.4331s0.2412-0.1953,0.3965-0.1953h6.0059c0.2285,0,0.4268,0.1543,0.4844,0.375
						l12.7871,49.5991l12.5508-49.5967c0.0557-0.2222,0.2559-0.3774,0.4844-0.3774h3.3525c0.2285,0,0.4287,0.1553,0.4844,0.3774
						l12.5811,49.6846l12.7568-49.6865c0.0566-0.2207,0.2559-0.3755,0.4844-0.3755h6.0068c0.1553,0,0.3018,0.0718,0.3965,0.1948
						s0.127,0.2827,0.0869,0.4331L406.209,161.752C406.1514,161.9707,405.9521,162.124,405.7256,162.124z M402.9922,161.124h2.3486
						l17.3818-65.7681h-4.9697l-12.9404,50.3755l-0.2188,2.3896c-0.0244,0.2568-0.2402,0.4531-0.498,0.4531
						c-0.002,0-0.0029,0-0.0049,0c-0.2598-0.002-0.4736-0.2031-0.4941-0.4619l-0.1865-2.4668L390.6699,95.356h-2.5742
						l-12.7559,50.3745l-0.1719,2.3818c-0.0205,0.2607-0.2373,0.4619-0.499,0.4619l0,0c-0.2617,0-0.4785-0.2021-0.499-0.4629
						l-0.1855-2.4668L361.0117,95.356h-4.9678l17.4736,65.7681h2.3477l12.7998-49.8633l0.2666-2.5371
						c0.0273-0.2568,0.2266-0.4443,0.5059-0.4463c0.2588,0.0049,0.4717,0.2061,0.4902,0.4639l0.1865,2.6074L402.9922,161.124z"/>
				</g>
				<g id="XMLID_74_">
					<path id="XMLID_28_" class="st4" d="M456.0576,146.0723h-21.1387l-4.377,15.5518h-6.2383l19.5547-66.7681h3.166
						l19.6494,66.7681h-6.1934L456.0576,146.0723z M436.5488,140.3457h17.9258l-8.7998-30.7764l-0.1865-2.4678l-0.1865,2.4678
						L436.5488,140.3457z"/>
					<path id="XMLID_69_" class="st4" d="M466.6738,162.124h-6.1934c-0.2236,0-0.4199-0.1484-0.4805-0.3633l-4.3203-15.1885
						h-20.3818l-4.2744,15.1875c-0.0605,0.2148-0.2578,0.3643-0.4814,0.3643h-6.2383c-0.1572,0-0.3057-0.0742-0.4004-0.2002
						c-0.0938-0.126-0.124-0.2891-0.0791-0.4404l19.5547-66.7681c0.0625-0.2129,0.2578-0.3594,0.4795-0.3594h3.166
						c0.2217,0,0.417,0.146,0.4795,0.3589l19.6494,66.7676c0.0449,0.1514,0.0156,0.3145-0.0791,0.4414
						C466.9795,162.0498,466.8311,162.124,466.6738,162.124z M460.8584,161.124h5.1475L446.6504,95.356h-2.417l-19.2627,65.7681
						h5.1924l4.2744-15.1875c0.0605-0.2148,0.2578-0.3643,0.4814-0.3643h21.1387c0.2236,0,0.4199,0.1484,0.4805,0.3633
						L460.8584,161.124z M454.4746,140.8457h-17.9258c-0.1572,0-0.3047-0.0732-0.3994-0.1982
						c-0.0938-0.126-0.124-0.2881-0.0811-0.4385l8.7383-30.7275l0.1826-2.418c0.0205-0.2607,0.2373-0.4619,0.499-0.4619
						s0.4785,0.2012,0.499,0.4619l0.1826,2.417l8.7852,30.7275c0.043,0.1514,0.0137,0.3135-0.0811,0.4385
						C454.7793,140.7725,454.6318,140.8457,454.4746,140.8457z M437.2109,139.8457h16.6006l-8.3223-29.1074L437.2109,139.8457z"/>
				</g>
				<g id="XMLID_68_">
					<path id="XMLID_31_" class="st4" d="M506.6221,161.624l-18.1123-28.4951h-8.2412v28.4951h-6.0059V94.856h21.1846
						c2.2656,0,4.3926,0.4272,6.3789,1.2808s3.7256,2.0254,5.2148,3.5156c1.4902,1.4902,2.6611,3.2354,3.5156,5.2383
						c0.8535,2.002,1.2803,4.1357,1.2803,6.4014v5.4014c0,2.2656-0.4268,4.4004-1.2803,6.4023
						c-0.8545,2.002-2.0254,3.748-3.5156,5.2373c-1.4893,1.4902-3.2285,2.6621-5.2148,3.5156
						c-1.9863,0.8545-4.1133,1.2803-6.3789,1.2803l18.1123,28.4951H506.6221z M505.8311,111.292
						c0-1.4893-0.2793-2.8789-0.8389-4.167c-0.5586-1.2871-1.3193-2.4219-2.2813-3.3984c-0.9619-0.9785-2.0879-1.7461-3.375-2.3047
						c-1.2891-0.5596-2.6777-0.8389-4.168-0.8389h-14.8994v26.8193h14.8994c1.4902,0,2.8789-0.2793,4.168-0.8379
						c1.2871-0.5586,2.4131-1.3281,3.375-2.3047c0.9619-0.9785,1.7227-2.1113,2.2813-3.3994
						c0.5596-1.2881,0.8389-2.6768,0.8389-4.167V111.292z"/>
					<path id="XMLID_63_" class="st4" d="M513.5596,162.124h-6.9375c-0.1709,0-0.3301-0.0879-0.4219-0.2314l-17.9648-28.2637
						h-7.4668v27.9951c0,0.2764-0.2236,0.5-0.5,0.5h-6.0059c-0.2764,0-0.5-0.2236-0.5-0.5V94.856c0-0.2764,0.2236-0.5,0.5-0.5
						h21.1846c2.3232,0,4.5361,0.4443,6.5762,1.3213c2.0371,0.8755,3.8447,2.0942,5.3711,3.6216
						c1.5273,1.5273,2.7461,3.3428,3.6221,5.3955c0.876,2.0547,1.3203,4.2744,1.3203,6.5977v5.4014
						c0,2.3232-0.4443,4.5439-1.3203,6.5986c-0.877,2.0537-2.0957,3.8691-3.6221,5.3945c-1.5264,1.5273-3.334,2.7461-5.3711,3.6211
						c-1.7744,0.7637-3.6807,1.1992-5.6797,1.2988l17.6377,27.749c0.0977,0.1543,0.1045,0.3496,0.0166,0.5088
						C513.9102,162.0244,513.7422,162.124,513.5596,162.124z M506.8965,161.124h5.7529l-17.624-27.7266
						c-0.0977-0.1543-0.1045-0.3496-0.0166-0.5088c0.0879-0.1602,0.2559-0.2598,0.4385-0.2598c2.1895,0,4.2695-0.417,6.1816-1.2393
						c1.9199-0.8252,3.6221-1.9727,5.0586-3.4102c1.4355-1.4355,2.583-3.1445,3.4092-5.0801
						c0.8232-1.9297,1.2402-4.0186,1.2402-6.2061v-5.4014c0-2.1875-0.417-4.2754-1.2402-6.2051
						c-0.8252-1.9346-1.9727-3.6445-3.4092-5.0811c-1.4365-1.4375-3.1387-2.585-5.0586-3.4102
						c-1.915-0.8223-3.9951-1.2397-6.1816-1.2397h-20.6846v65.7681h5.0059v-27.9951c0-0.2764,0.2236-0.5,0.5-0.5h8.2412
						c0.1709,0,0.3301,0.0879,0.4219,0.2314L506.8965,161.124z M495.168,127.9023h-14.8994c-0.2764,0-0.5-0.2236-0.5-0.5V100.583
						c0-0.2764,0.2236-0.5,0.5-0.5h14.8994c1.5527,0,3.0215,0.2959,4.3672,0.8799c1.3428,0.583,2.5313,1.3955,3.5322,2.4131
						c1,1.0146,1.8018,2.209,2.3838,3.5498c0.584,1.3447,0.8799,2.8135,0.8799,4.3662v5.4014c0,1.5527-0.2959,3.0215-0.8799,4.3662
						c-0.5801,1.3369-1.3818,2.5322-2.3838,3.5508c-1.0039,1.0195-2.1924,1.8311-3.5322,2.4131
						C498.1885,127.6064,496.7197,127.9023,495.168,127.9023z M480.7686,126.9023h14.3994c1.4141,0,2.749-0.2676,3.9688-0.7969
						c1.2217-0.5303,2.3047-1.2686,3.2178-2.1963c0.915-0.9307,1.6484-2.0234,2.1787-3.248
						c0.5293-1.2178,0.7979-2.5527,0.7979-3.9678v-5.4014c0-1.415-0.2686-2.75-0.7979-3.9678
						c-0.5322-1.2275-1.2656-2.3193-2.1787-3.2471c-0.9102-0.9258-1.9932-1.665-3.2178-2.1963
						c-1.2188-0.5293-2.5547-0.7979-3.9688-0.7979h-14.3994V126.9023z"/>
				</g>
				<g id="XMLID_61_">
					<path id="XMLID_56_" class="st4" d="M525.0137,161.624V94.856h37.5742v5.7271h-31.5674v24.8174h25.5615v5.7266h-25.5615
						v24.7695h31.5674v5.7275H525.0137z"/>
					<path id="XMLID_58_" class="st4" d="M562.5879,162.124h-37.5742c-0.2764,0-0.5-0.2236-0.5-0.5V94.856
						c0-0.2764,0.2236-0.5,0.5-0.5h37.5742c0.2764,0,0.5,0.2236,0.5,0.5v5.7271c0,0.2764-0.2236,0.5-0.5,0.5h-31.0674v23.8174
						h25.0615c0.2764,0,0.5,0.2236,0.5,0.5v5.7266c0,0.2764-0.2236,0.5-0.5,0.5h-25.0615v23.7695h31.0674
						c0.2764,0,0.5,0.2236,0.5,0.5v5.7275C563.0879,161.9004,562.8643,162.124,562.5879,162.124z M525.5137,161.124h36.5742v-4.7275
						h-31.0674c-0.2764,0-0.5-0.2236-0.5-0.5V131.127c0-0.2764,0.2236-0.5,0.5-0.5h25.0615v-4.7266h-25.0615
						c-0.2764,0-0.5-0.2236-0.5-0.5V100.583c0-0.2764,0.2236-0.5,0.5-0.5h31.0674V95.356h-36.5742V161.124z"/>
				</g>
			</g>
		</g>
	</g>
</g>
</svg>
